M48
;DRILL file {KiCad 4.0.7} date 12/11/18 18:15:21
;FORMAT={-:-/ absolute / inch / decimal}
FMAT,2
INCH,TZ
T1C0.016
T2C0.030
T3C0.031
T4C0.035
T5C0.039
T6C0.047
%
G90
G05
M72
T1
X3.2194Y-3.5715
X3.3299Y-3.5116
X5.3781Y-2.625
X5.4465Y-3.5291
X5.5867Y-3.5789
X5.9001Y-2.8712
X6.0772Y-2.7653
X6.1095Y-2.8863
X6.2208Y-2.8166
X6.3705Y-2.6819
X6.3882Y-2.7682
X6.4163Y-2.8545
X6.5143Y-2.8419
X6.545Y-2.8184
X6.5816Y-2.7919
X6.6043Y-2.8111
X6.6264Y-2.7721
X6.6656Y-2.6746
X6.8063Y-2.7724
X6.8621Y-2.7721
X6.8683Y-2.9361
X6.8882Y-3.095
X6.8901Y-2.6737
X6.9078Y-3.1483
X6.9078Y-3.1181
X6.9323Y-2.6757
X6.9411Y-2.8252
X6.9465Y-2.9132
X7.0209Y-3.2609
X7.042Y-2.7987
X7.0634Y-2.7731
X7.08Y-3.2428
X7.1442Y-3.2264
X8.0595Y-1.9154
X10.3455Y-3.4959
X11.4076Y-3.5302
T2
X1.55Y-2.775
X1.55Y-2.875
X1.55Y-2.975
X1.65Y-2.725
X1.65Y-2.825
X1.65Y-2.925
X1.8088Y-4.1275
X1.8588Y-4.2275
X1.9088Y-4.1275
X1.9588Y-4.2275
X2.0088Y-4.1275
X2.0588Y-4.2275
X3.2655Y-4.1275
X3.3155Y-4.2275
X3.3655Y-4.1275
X3.4155Y-4.2275
X3.4655Y-4.1275
X3.5155Y-4.2275
X4.6435Y-4.1275
X4.6935Y-4.2275
X4.7435Y-4.1275
X4.7935Y-4.2275
X4.8435Y-4.1275
X4.8935Y-4.2275
X6.0608Y-4.1275
X6.1108Y-4.2275
X6.1608Y-4.1275
X6.2108Y-4.2275
X6.2608Y-4.1275
X6.3108Y-4.2275
X7.675Y-4.1275
X7.725Y-4.2275
X7.775Y-4.1275
X7.825Y-4.2275
X7.875Y-4.1275
X7.925Y-4.2275
X9.1317Y-4.1275
X9.1817Y-4.2275
X9.2317Y-4.1275
X9.2817Y-4.2275
X9.3317Y-4.1275
X9.3817Y-4.2275
X10.5131Y-4.12
X10.5631Y-4.22
X10.6131Y-4.12
X10.6631Y-4.22
X10.7131Y-4.12
X10.7631Y-4.22
X11.9269Y-4.1275
X11.9769Y-4.2275
X12.0269Y-4.1275
X12.0769Y-4.2275
X12.1269Y-4.1275
X12.1769Y-4.2275
T3
X1.2726Y-1.3802
X1.2726Y-1.5802
X1.2726Y-1.7802
X1.2726Y-1.9802
X1.2726Y-2.0802
X1.3364Y-3.6306
X1.3364Y-3.9306
X1.4364Y-3.6306
X1.4364Y-3.9306
X1.5726Y-1.3802
X1.5726Y-1.5802
X1.5726Y-1.7802
X1.5726Y-1.9802
X1.5726Y-2.0802
X1.6907Y-3.6306
X1.6907Y-3.9306
X1.7Y-3.425
X1.7844Y-1.3802
X1.7844Y-1.5802
X1.7844Y-1.7802
X1.7844Y-1.9802
X1.7844Y-2.0802
X1.7907Y-3.6306
X1.7907Y-3.9306
X1.8Y-2.275
X1.8Y-2.375
X1.8Y-3.425
X1.9Y-3.425
X2.Y-3.425
X2.045Y-3.6306
X2.045Y-3.9306
X2.0844Y-1.3802
X2.0844Y-1.5802
X2.0844Y-1.7802
X2.0844Y-1.9802
X2.0844Y-2.0802
X2.1Y-2.275
X2.1Y-2.375
X2.1Y-3.425
X2.145Y-3.6306
X2.145Y-3.9306
X2.2Y-3.425
X2.2962Y-1.3802
X2.2962Y-1.5802
X2.2962Y-1.7802
X2.2962Y-1.9802
X2.2962Y-2.0802
X2.3Y-3.425
X2.3994Y-3.6306
X2.3994Y-3.9306
X2.4Y-3.425
X2.4994Y-3.6306
X2.4994Y-3.9306
X2.5Y-2.275
X2.5Y-2.375
X2.5Y-3.425
X2.5962Y-1.3802
X2.5962Y-1.5802
X2.5962Y-1.7802
X2.5962Y-1.9802
X2.5962Y-2.0802
X2.5962Y-4.285
X2.6Y-3.425
X2.7537Y-3.6306
X2.7537Y-3.9306
X2.7931Y-4.285
X2.8Y-2.275
X2.8Y-2.375
X2.808Y-1.3802
X2.808Y-1.5802
X2.808Y-1.7802
X2.808Y-1.9802
X2.808Y-2.0802
X2.8537Y-3.6306
X2.8537Y-3.9306
X3.0531Y-2.325
X3.108Y-1.3802
X3.108Y-1.5802
X3.108Y-1.7802
X3.108Y-1.9802
X3.108Y-2.0802
X3.108Y-3.6306
X3.108Y-3.9306
X3.2Y-3.425
X3.208Y-3.6306
X3.208Y-3.9306
X3.25Y-2.325
X3.3Y-3.425
X3.3198Y-1.3802
X3.3198Y-1.5802
X3.3198Y-1.7802
X3.3198Y-1.9802
X3.3198Y-2.0802
X3.4Y-3.425
X3.4624Y-3.6306
X3.4624Y-3.9306
X3.5Y-2.275
X3.5Y-2.375
X3.5Y-3.425
X3.5624Y-3.6306
X3.5624Y-3.9306
X3.6Y-3.425
X3.6198Y-1.3802
X3.6198Y-1.5802
X3.6198Y-1.7802
X3.6198Y-1.9802
X3.6198Y-2.0802
X3.7Y-3.425
X3.8Y-2.275
X3.8Y-2.375
X3.8Y-3.425
X3.8167Y-3.6306
X3.8167Y-3.9306
X3.8317Y-1.3802
X3.8317Y-1.5802
X3.8317Y-1.7802
X3.8317Y-1.9802
X3.8317Y-2.0802
X3.9Y-3.425
X3.9167Y-3.6306
X3.9167Y-3.9306
X4.Y-3.425
X4.0531Y-2.325
X4.1Y-3.425
X4.1317Y-1.3802
X4.1317Y-1.5802
X4.1317Y-1.7802
X4.1317Y-1.9802
X4.1317Y-2.0802
X4.1317Y-2.6251
X4.1317Y-3.0251
X4.171Y-3.6306
X4.171Y-3.9306
X4.25Y-2.325
X4.271Y-3.6306
X4.271Y-3.9306
X4.3435Y-1.3802
X4.3435Y-1.5802
X4.3435Y-1.7802
X4.3435Y-1.9802
X4.3435Y-2.0802
X4.486Y-3.1039
X4.5Y-2.85
X4.5254Y-3.6306
X4.5254Y-3.9306
X4.55Y-2.275
X4.55Y-2.375
X4.6254Y-3.6306
X4.6254Y-3.9306
X4.6435Y-1.3802
X4.6435Y-1.5802
X4.6435Y-1.7802
X4.6435Y-1.9802
X4.6435Y-2.0802
X4.85Y-2.275
X4.85Y-2.375
X4.8553Y-1.3802
X4.8553Y-1.5802
X4.8553Y-1.7802
X4.8553Y-1.9802
X4.8553Y-2.0802
X4.8797Y-3.6306
X4.8797Y-3.9306
X4.886Y-3.1039
X4.9Y-2.85
X4.9797Y-3.6306
X4.9797Y-3.9306
X5.15Y-2.525
X5.15Y-2.625
X5.15Y-2.725
X5.15Y-2.825
X5.15Y-2.925
X5.15Y-3.025
X5.15Y-3.125
X5.15Y-3.225
X5.15Y-3.325
X5.15Y-3.425
X5.1553Y-1.3802
X5.1553Y-1.5802
X5.1553Y-1.7802
X5.1553Y-1.9802
X5.1553Y-2.0802
X5.234Y-3.6306
X5.234Y-3.9306
X5.334Y-3.6306
X5.334Y-3.9306
X5.3915Y-1.2291
X5.3915Y-1.5291
X5.3915Y-1.8983
X5.3915Y-2.1983
X5.3915Y-4.285
X5.45Y-2.525
X5.45Y-2.625
X5.45Y-2.725
X5.45Y-2.825
X5.45Y-2.925
X5.45Y-3.025
X5.45Y-3.125
X5.45Y-3.225
X5.45Y-3.325
X5.45Y-3.425
X5.4915Y-1.2291
X5.4915Y-1.5291
X5.4915Y-1.8983
X5.4915Y-2.1983
X5.5883Y-3.6306
X5.5883Y-3.9306
X5.5883Y-4.285
X5.6883Y-3.6306
X5.6883Y-3.9306
X5.7002Y-2.7102
X5.7608Y-1.5771
X5.7608Y-1.7771
X5.7608Y-1.9771
X5.7608Y-2.1771
X5.7608Y-2.2771
X5.9427Y-1.3322
X5.9427Y-3.6306
X5.9427Y-3.9306
X6.0427Y-3.6306
X6.0427Y-3.9306
X6.0608Y-1.5771
X6.0608Y-1.7771
X6.0608Y-1.9771
X6.0608Y-2.1771
X6.0608Y-2.2771
X6.1002Y-2.7102
X6.1395Y-1.1354
X6.2726Y-1.5771
X6.2726Y-1.7771
X6.2726Y-1.9771
X6.2726Y-2.1771
X6.2726Y-2.2771
X6.297Y-3.6306
X6.297Y-3.9306
X6.3364Y-1.1354
X6.3427Y-1.3322
X6.397Y-3.6306
X6.397Y-3.9306
X6.5726Y-1.5771
X6.5726Y-1.7771
X6.5726Y-1.9771
X6.5726Y-2.1771
X6.5726Y-2.2771
X6.6513Y-3.6306
X6.6513Y-3.9306
X6.7513Y-3.6306
X6.7513Y-3.9306
X6.7844Y-1.5771
X6.7844Y-1.7771
X6.7844Y-1.9771
X6.7844Y-2.1771
X6.7844Y-2.2771
X7.0844Y-1.5771
X7.0844Y-1.7771
X7.0844Y-1.9771
X7.0844Y-2.1771
X7.0844Y-2.2771
X7.2025Y-1.1747
X7.2025Y-3.6306
X7.2025Y-3.9306
X7.2962Y-1.5771
X7.2962Y-1.7771
X7.2962Y-1.9771
X7.2962Y-2.1771
X7.2962Y-2.2771
X7.3025Y-3.6306
X7.3025Y-3.9306
X7.5569Y-2.6314
X7.5569Y-3.3007
X7.5569Y-3.6306
X7.5569Y-3.9306
X7.5962Y-1.5771
X7.5962Y-1.7771
X7.5962Y-1.9771
X7.5962Y-2.1771
X7.5962Y-2.2771
X7.6025Y-1.1747
X7.6569Y-2.6314
X7.6569Y-3.3007
X7.6569Y-3.6306
X7.6569Y-3.9306
X7.7569Y-2.6314
X7.7569Y-3.3007
X7.7931Y-1.1747
X7.808Y-1.5771
X7.808Y-1.7771
X7.808Y-1.9771
X7.808Y-2.1771
X7.808Y-2.2771
X7.8569Y-2.6314
X7.8569Y-3.3007
X7.9112Y-3.6306
X7.9112Y-3.9306
X7.9569Y-2.6314
X7.9569Y-3.3007
X8.0112Y-3.6306
X8.0112Y-3.9306
X8.0569Y-2.6314
X8.0569Y-3.3007
X8.108Y-1.5771
X8.108Y-1.7771
X8.108Y-1.9771
X8.108Y-2.1771
X8.108Y-2.2771
X8.1569Y-2.6314
X8.1569Y-3.3007
X8.1931Y-1.1747
X8.2569Y-2.6314
X8.2569Y-3.3007
X8.2655Y-3.6306
X8.2655Y-3.9306
X8.3569Y-2.6314
X8.3569Y-3.3007
X8.3655Y-3.6306
X8.3655Y-3.9306
X8.3836Y-1.2291
X8.3836Y-1.5291
X8.3836Y-1.8983
X8.3836Y-2.1983
X8.4569Y-2.6314
X8.4569Y-3.3007
X8.4624Y-4.2456
X8.4836Y-1.2291
X8.4836Y-1.5291
X8.4836Y-1.8983
X8.4836Y-2.1983
X8.6198Y-3.6306
X8.6198Y-3.9306
X8.6592Y-4.2456
X8.7198Y-3.6306
X8.7198Y-3.9306
X8.7529Y-1.3802
X8.7529Y-1.5802
X8.7529Y-1.7802
X8.7529Y-1.9802
X8.7529Y-2.0802
X8.8317Y-2.2952
X8.8317Y-2.3952
X8.9742Y-3.6306
X8.9742Y-3.9306
X9.0529Y-1.3802
X9.0529Y-1.5802
X9.0529Y-1.7802
X9.0529Y-1.9802
X9.0529Y-2.0802
X9.0742Y-3.6306
X9.0742Y-3.9306
X9.1317Y-2.2952
X9.1317Y-2.3952
X9.2647Y-1.3802
X9.2647Y-1.5802
X9.2647Y-1.7802
X9.2647Y-1.9802
X9.2647Y-2.0802
X9.3285Y-3.6306
X9.3285Y-3.9306
X9.4072Y-2.3558
X9.4285Y-3.6306
X9.4285Y-3.9306
X9.5647Y-1.3802
X9.5647Y-1.5802
X9.5647Y-1.7802
X9.5647Y-1.9802
X9.5647Y-2.0802
X9.6041Y-2.3558
X9.6828Y-3.6306
X9.6828Y-3.9306
X9.7765Y-1.3802
X9.7765Y-1.5802
X9.7765Y-1.7802
X9.7765Y-1.9802
X9.7765Y-2.0802
X9.7828Y-3.6306
X9.7828Y-3.9306
X9.8553Y-2.2952
X9.8553Y-2.3952
X10.0372Y-3.6306
X10.0372Y-3.9306
X10.0765Y-1.3802
X10.0765Y-1.5802
X10.0765Y-1.7802
X10.0765Y-1.9802
X10.0765Y-2.0802
X10.1372Y-3.6306
X10.1372Y-3.9306
X10.1553Y-2.2952
X10.1553Y-2.3952
X10.2883Y-1.3802
X10.2883Y-1.5802
X10.2883Y-1.7802
X10.2883Y-1.9802
X10.2883Y-2.0802
X10.3915Y-3.6306
X10.3915Y-3.9306
X10.4915Y-3.6306
X10.4915Y-3.9306
X10.5883Y-1.3802
X10.5883Y-1.5802
X10.5883Y-1.7802
X10.5883Y-1.9802
X10.5883Y-2.0802
X10.7458Y-3.6306
X10.7458Y-3.9306
X10.7608Y-1.3802
X10.7608Y-1.5802
X10.7608Y-1.7802
X10.7608Y-1.9802
X10.7608Y-2.0802
X10.8458Y-3.6306
X10.8458Y-3.9306
X10.8789Y-2.2952
X10.8789Y-2.3952
X11.0608Y-1.3802
X11.0608Y-1.5802
X11.0608Y-1.7802
X11.0608Y-1.9802
X11.0608Y-2.0802
X11.1002Y-3.6306
X11.1002Y-3.9306
X11.1789Y-2.2952
X11.1789Y-2.3952
X11.2002Y-3.6306
X11.2002Y-3.9306
X11.2576Y-4.285
X11.2726Y-1.3802
X11.2726Y-1.5802
X11.2726Y-1.7802
X11.2726Y-1.9802
X11.2726Y-2.0802
X11.4545Y-2.3558
X11.4545Y-3.6306
X11.4545Y-3.9306
X11.4545Y-4.285
X11.5545Y-3.6306
X11.5545Y-3.9306
X11.5726Y-1.3802
X11.5726Y-1.5802
X11.5726Y-1.7802
X11.5726Y-1.9802
X11.5726Y-2.0802
X11.6513Y-2.3558
X11.7844Y-1.3802
X11.7844Y-1.5802
X11.7844Y-1.7802
X11.7844Y-1.9802
X11.7844Y-2.0802
X11.8088Y-3.6306
X11.8088Y-3.9306
X11.8876Y-3.3007
X11.9025Y-2.2952
X11.9025Y-2.3952
X11.9088Y-3.6306
X11.9088Y-3.9306
X11.9876Y-3.3007
X12.0844Y-1.3802
X12.0844Y-1.5802
X12.0844Y-1.7802
X12.0844Y-1.9802
X12.0844Y-2.0802
X12.0876Y-3.3007
X12.1631Y-3.6306
X12.1631Y-3.9306
X12.1876Y-3.3007
X12.2025Y-2.2952
X12.2025Y-2.3952
X12.2631Y-3.6306
X12.2631Y-3.9306
X12.2876Y-3.3007
X12.2962Y-1.3802
X12.2962Y-1.5802
X12.2962Y-1.7802
X12.2962Y-1.9802
X12.2962Y-2.0802
X12.3876Y-3.3007
X12.4876Y-3.3007
X12.5175Y-3.6306
X12.5175Y-3.9306
X12.5876Y-3.3007
X12.5962Y-1.3802
X12.5962Y-1.5802
X12.5962Y-1.7802
X12.5962Y-1.9802
X12.5962Y-2.0802
X12.6175Y-3.6306
X12.6175Y-3.9306
X12.6876Y-3.3007
X12.7876Y-3.3007
T4
X2.8324Y-2.6708
X2.8824Y-2.5708
X2.9324Y-2.6708
X2.9824Y-2.5708
X3.0324Y-2.6708
X3.0824Y-2.5708
X3.1324Y-2.6708
X3.1824Y-2.5708
T5
X1.6513Y-1.096
X1.7694Y-1.096
X1.8876Y-1.096
X2.6356Y-1.096
X2.7537Y-1.096
X2.8718Y-1.096
X3.5805Y-1.096
X3.6986Y-1.096
X3.8167Y-1.096
X4.6041Y-1.096
X4.7222Y-1.096
X4.8403Y-1.096
X9.0135Y-1.096
X9.1317Y-1.096
X9.2498Y-1.096
X10.0372Y-1.096
X10.1553Y-1.096
X10.2734Y-1.096
X10.3915Y-3.1039
X10.4915Y-3.1039
X10.5915Y-3.1039
X11.0214Y-1.096
X11.1395Y-1.096
X11.2576Y-1.096
X12.045Y-1.096
X12.1631Y-1.096
X12.2813Y-1.096
T6
X8.7773Y-2.8676
X10.1553Y-2.8676
X10.8639Y-2.8676
X12.2419Y-2.8676
T0
M30
