M48
;DRILL file {KiCad 4.0.7} date 12/11/18 18:15:21
;FORMAT={-:-/ absolute / inch / decimal}
FMAT,2
INCH,TZ
T1C0.039
T2C0.098
T3C0.128
T4C0.138
%
G90
G05
M72
T1
X1.5332Y-1.1731
X2.0057Y-1.1731
X2.5175Y-1.1731
X2.9899Y-1.1731
X3.4624Y-1.1731
X3.9348Y-1.1731
X4.486Y-1.1731
X4.9584Y-1.1731
X8.8954Y-1.1731
X9.3679Y-1.1731
X9.9191Y-1.1731
X10.3915Y-1.1731
X10.9033Y-1.1731
X11.3757Y-1.1731
X11.9269Y-1.1731
X12.3994Y-1.1731
T2
X1.0969Y-1.1978
X1.0969Y-4.5813
X6.963Y-1.1978
X6.963Y-4.5813
X12.852Y-1.1978
X12.852Y-4.5813
T3
X1.3Y-2.6502
X1.3Y-3.0502
X1.734Y-4.4775
X2.134Y-4.4775
X2.7738Y-2.9208
X3.1907Y-4.4775
X3.2411Y-2.9208
X3.5907Y-4.4775
X4.5687Y-4.4775
X4.9687Y-4.4775
X5.986Y-4.4775
X6.386Y-4.4775
X7.6002Y-4.4775
X8.0002Y-4.4775
X9.0569Y-4.4775
X9.4569Y-4.4775
X10.4383Y-4.47
X10.8383Y-4.47
X11.8521Y-4.4775
X12.2521Y-4.4775
T4
X10.4915Y-2.448
T0
M30
