G04 #@! TF.GenerationSoftware,KiCad,Pcbnew,7.0.7*
G04 #@! TF.CreationDate,2024-06-25T14:53:43-04:00*
G04 #@! TF.ProjectId,AOML_AB_3.0_reorganized-v3,414f4d4c-5f41-4425-9f33-2e305f72656f,3*
G04 #@! TF.SameCoordinates,Original*
G04 #@! TF.FileFunction,Soldermask,Bot*
G04 #@! TF.FilePolarity,Negative*
%FSLAX46Y46*%
G04 Gerber Fmt 4.6, Leading zero omitted, Abs format (unit mm)*
G04 Created by KiCad (PCBNEW 7.0.7) date 2024-06-25 14:53:43*
%MOMM*%
%LPD*%
G01*
G04 APERTURE LIST*
G04 Aperture macros list*
%AMRoundRect*
0 Rectangle with rounded corners*
0 $1 Rounding radius*
0 $2 $3 $4 $5 $6 $7 $8 $9 X,Y pos of 4 corners*
0 Add a 4 corners polygon primitive as box body*
4,1,4,$2,$3,$4,$5,$6,$7,$8,$9,$2,$3,0*
0 Add four circle primitives for the rounded corners*
1,1,$1+$1,$2,$3*
1,1,$1+$1,$4,$5*
1,1,$1+$1,$6,$7*
1,1,$1+$1,$8,$9*
0 Add four rect primitives between the rounded corners*
20,1,$1+$1,$2,$3,$4,$5,0*
20,1,$1+$1,$4,$5,$6,$7,0*
20,1,$1+$1,$6,$7,$8,$9,0*
20,1,$1+$1,$8,$9,$2,$3,0*%
G04 Aperture macros list end*
%ADD10RoundRect,0.102000X-1.050000X-1.050000X1.050000X-1.050000X1.050000X1.050000X-1.050000X1.050000X0*%
%ADD11C,2.304000*%
%ADD12C,1.524000*%
%ADD13RoundRect,0.102000X-0.975000X0.975000X-0.975000X-0.975000X0.975000X-0.975000X0.975000X0.975000X0*%
%ADD14C,2.154000*%
%ADD15C,8.500000*%
%ADD16R,1.524000X1.524000*%
%ADD17C,3.327400*%
%ADD18R,1.700000X1.700000*%
%ADD19O,1.700000X1.700000*%
%ADD20R,1.651000X1.651000*%
%ADD21C,1.651000*%
%ADD22C,1.600000*%
%ADD23O,1.600000X1.600000*%
%ADD24C,1.371600*%
%ADD25C,1.784000*%
%ADD26RoundRect,0.102000X0.790000X0.790000X-0.790000X0.790000X-0.790000X-0.790000X0.790000X-0.790000X0*%
%ADD27RoundRect,0.102000X-1.050000X1.050000X-1.050000X-1.050000X1.050000X-1.050000X1.050000X1.050000X0*%
%ADD28R,1.397000X1.397000*%
%ADD29C,1.397000*%
%ADD30R,1.320800X1.320800*%
%ADD31C,1.320800*%
%ADD32C,3.860800*%
G04 APERTURE END LIST*
D10*
X102827300Y-93750000D03*
D11*
X106637300Y-93750000D03*
X110447300Y-93750000D03*
D12*
X295050000Y-125400000D03*
X300130000Y-125400000D03*
X302670000Y-125400000D03*
X305210000Y-125400000D03*
X307750000Y-125400000D03*
X307750000Y-120320000D03*
X305210000Y-120320000D03*
X302670000Y-120320000D03*
X300130000Y-120320000D03*
X295050000Y-120320000D03*
D13*
X351000000Y-114000000D03*
D14*
X351000000Y-119000000D03*
X351000000Y-124000000D03*
X351000000Y-129000000D03*
X351000000Y-134000000D03*
X351000000Y-139000000D03*
X351000000Y-144000000D03*
D15*
X58000000Y-178000000D03*
D12*
X275256380Y-107000000D03*
X280336380Y-107000000D03*
X282876380Y-107000000D03*
X285416380Y-107000000D03*
X287956380Y-107000000D03*
X287956380Y-101920000D03*
X285416380Y-101920000D03*
X282876380Y-101920000D03*
X280336380Y-101920000D03*
X275256380Y-101920000D03*
X100300000Y-107000000D03*
X105380000Y-107000000D03*
X107920000Y-107000000D03*
X110460000Y-107000000D03*
X113000000Y-107000000D03*
X113000000Y-101920000D03*
X110460000Y-101920000D03*
X107920000Y-101920000D03*
X105380000Y-101920000D03*
X100300000Y-101920000D03*
D16*
X198914200Y-150425000D03*
D12*
X202419400Y-150425000D03*
D10*
X180447300Y-93750000D03*
D11*
X184257300Y-93750000D03*
X188067300Y-93750000D03*
D10*
X277783680Y-93750000D03*
D11*
X281593680Y-93750000D03*
X285403680Y-93750000D03*
D16*
X81497800Y-152234800D03*
D12*
X81497800Y-155740000D03*
D17*
X61869001Y-124389900D03*
X61869001Y-135819900D03*
D12*
X68229001Y-125659900D03*
X70769001Y-126929900D03*
X68229001Y-128199900D03*
X70769001Y-129469900D03*
X68229001Y-130739900D03*
X70769001Y-132009900D03*
X68229001Y-133279900D03*
X70769001Y-134549900D03*
D18*
X328400000Y-93475000D03*
D19*
X330940000Y-93475000D03*
X333480000Y-93475000D03*
X336020000Y-93475000D03*
X338560000Y-93475000D03*
X341100000Y-93475000D03*
X343640000Y-93475000D03*
D16*
X293976150Y-149425000D03*
D12*
X297481350Y-149425000D03*
X223923048Y-107000000D03*
X229003048Y-107000000D03*
X231543048Y-107000000D03*
X234083048Y-107000000D03*
X236623048Y-107000000D03*
X236623048Y-101920000D03*
X234083048Y-101920000D03*
X231543048Y-101920000D03*
X229003048Y-101920000D03*
X223923048Y-101920000D03*
D20*
X226000000Y-117000000D03*
D21*
X223460000Y-117000000D03*
X220920000Y-117000000D03*
X218380000Y-117000000D03*
D18*
X57460000Y-108000000D03*
D19*
X60000000Y-108000000D03*
D15*
X58000000Y-92000000D03*
X356000000Y-178000000D03*
D12*
X295050000Y-141480000D03*
X300130000Y-141480000D03*
X302670000Y-141480000D03*
X305210000Y-141480000D03*
X307750000Y-141480000D03*
X307750000Y-136400000D03*
X305210000Y-136400000D03*
X302670000Y-136400000D03*
X300130000Y-136400000D03*
X295050000Y-136400000D03*
D15*
X356000000Y-92000000D03*
X207000000Y-92000000D03*
D10*
X252117014Y-93750000D03*
D11*
X255927014Y-93750000D03*
X259737014Y-93750000D03*
D12*
X300923048Y-107000000D03*
X306003048Y-107000000D03*
X308543048Y-107000000D03*
X311083048Y-107000000D03*
X313623048Y-107000000D03*
X313623048Y-101920000D03*
X311083048Y-101920000D03*
X308543048Y-101920000D03*
X306003048Y-101920000D03*
X300923048Y-101920000D03*
D18*
X62480000Y-103400000D03*
D19*
X59940000Y-103400000D03*
X57400000Y-103400000D03*
D12*
X126173333Y-107000000D03*
X131253333Y-107000000D03*
X133793333Y-107000000D03*
X136333333Y-107000000D03*
X138873333Y-107000000D03*
X138873333Y-101920000D03*
X136333333Y-101920000D03*
X133793333Y-101920000D03*
X131253333Y-101920000D03*
X126173333Y-101920000D03*
X314501400Y-141480000D03*
X319581400Y-141480000D03*
X322121400Y-141480000D03*
X324661400Y-141480000D03*
X327201400Y-141480000D03*
X327201400Y-136400000D03*
X324661400Y-136400000D03*
X322121400Y-136400000D03*
X319581400Y-136400000D03*
X314501400Y-136400000D03*
D16*
X167914150Y-150500000D03*
D12*
X171419350Y-150500000D03*
X177920000Y-107000000D03*
X183000000Y-107000000D03*
X185540000Y-107000000D03*
X188080000Y-107000000D03*
X190620000Y-107000000D03*
X190620000Y-101920000D03*
X188080000Y-101920000D03*
X185540000Y-101920000D03*
X183000000Y-101920000D03*
X177920000Y-101920000D03*
D15*
X207000000Y-178000000D03*
D22*
X298240000Y-115400000D03*
D23*
X305860000Y-115400000D03*
D24*
X89000000Y-123000000D03*
X89000000Y-118000000D03*
D16*
X85664150Y-95500000D03*
D12*
X89169350Y-95500000D03*
X314501400Y-125480000D03*
X319581400Y-125480000D03*
X322121400Y-125480000D03*
X324661400Y-125480000D03*
X327201400Y-125480000D03*
X327201400Y-120400000D03*
X324661400Y-120400000D03*
X322121400Y-120400000D03*
X319581400Y-120400000D03*
X314501400Y-120400000D03*
D10*
X128700633Y-93750000D03*
D11*
X132510633Y-93750000D03*
X136320633Y-93750000D03*
D25*
X106540000Y-136810000D03*
X104000000Y-136810000D03*
X101460000Y-136810000D03*
X101460000Y-129190000D03*
X104000000Y-129190000D03*
D26*
X106540000Y-129190000D03*
D16*
X137914150Y-150275000D03*
D12*
X141419350Y-150275000D03*
D16*
X108932800Y-150975000D03*
D12*
X112438000Y-150975000D03*
D10*
X226450348Y-93750000D03*
D11*
X230260348Y-93750000D03*
X234070348Y-93750000D03*
D27*
X351250000Y-158090000D03*
D11*
X351250000Y-161900000D03*
X351250000Y-165710000D03*
D16*
X232757150Y-150050000D03*
D12*
X236262350Y-150050000D03*
D28*
X319081500Y-115400000D03*
D29*
X323018500Y-115400000D03*
D18*
X195900000Y-117075000D03*
D19*
X195900000Y-119615000D03*
X195900000Y-122155000D03*
D16*
X263828350Y-149925000D03*
D12*
X267333550Y-149925000D03*
X152046666Y-107000000D03*
X157126666Y-107000000D03*
X159666666Y-107000000D03*
X162206666Y-107000000D03*
X164746666Y-107000000D03*
X164746666Y-101920000D03*
X162206666Y-101920000D03*
X159666666Y-101920000D03*
X157126666Y-101920000D03*
X152046666Y-101920000D03*
D16*
X322579000Y-150425000D03*
D12*
X326084200Y-150425000D03*
X249589714Y-107000000D03*
X254669714Y-107000000D03*
X257209714Y-107000000D03*
X259749714Y-107000000D03*
X262289714Y-107000000D03*
X262289714Y-101920000D03*
X259749714Y-101920000D03*
X257209714Y-101920000D03*
X254669714Y-101920000D03*
X249589714Y-101920000D03*
D10*
X154573966Y-93750000D03*
D11*
X158383966Y-93750000D03*
X162193966Y-93750000D03*
D30*
X188000000Y-120000000D03*
D31*
X190000000Y-120000000D03*
D10*
X303450348Y-93750000D03*
D11*
X307260348Y-93750000D03*
X311070348Y-93750000D03*
D12*
X186960000Y-170360000D03*
X188230000Y-172900000D03*
X189500000Y-170360000D03*
X190770000Y-172900000D03*
X192040000Y-170360000D03*
X193310000Y-172900000D03*
D32*
X185055000Y-179250000D03*
X195215000Y-179250000D03*
D12*
X97460000Y-170360000D03*
X98730000Y-172900000D03*
X100000000Y-170360000D03*
X101270000Y-172900000D03*
X102540000Y-170360000D03*
X103810000Y-172900000D03*
D32*
X95555000Y-179250000D03*
X105715000Y-179250000D03*
D12*
X156710000Y-170360000D03*
X157980000Y-172900000D03*
X159250000Y-170360000D03*
X160520000Y-172900000D03*
X161790000Y-170360000D03*
X163060000Y-172900000D03*
D32*
X154805000Y-179250000D03*
X164965000Y-179250000D03*
D12*
X126960000Y-170360000D03*
X128230000Y-172900000D03*
X129500000Y-170360000D03*
X130770000Y-172900000D03*
X132040000Y-170360000D03*
X133310000Y-172900000D03*
D32*
X125055000Y-179250000D03*
X135215000Y-179250000D03*
D12*
X220960000Y-170360000D03*
X222230000Y-172900000D03*
X223500000Y-170360000D03*
X224770000Y-172900000D03*
X226040000Y-170360000D03*
X227310000Y-172900000D03*
D32*
X219055000Y-179250000D03*
X229215000Y-179250000D03*
D12*
X281460000Y-170360000D03*
X282730000Y-172900000D03*
X284000000Y-170360000D03*
X285270000Y-172900000D03*
X286540000Y-170360000D03*
X287810000Y-172900000D03*
D32*
X279555000Y-179250000D03*
X289715000Y-179250000D03*
D12*
X251960000Y-170360000D03*
X253230000Y-172900000D03*
X254500000Y-170360000D03*
X255770000Y-172900000D03*
X257040000Y-170360000D03*
X258310000Y-172900000D03*
D32*
X250055000Y-179250000D03*
X260215000Y-179250000D03*
D12*
X310960000Y-170360000D03*
X312230000Y-172900000D03*
X313500000Y-170360000D03*
X314770000Y-172900000D03*
X316040000Y-170360000D03*
X317310000Y-172900000D03*
D32*
X309055000Y-179250000D03*
X319215000Y-179250000D03*
M02*
