M48
; DRILL file {KiCad 7.0.7} date Tue Jun 25 14:55:41 2024
; FORMAT={-:-/ absolute / metric / decimal}
; #@! TF.CreationDate,2024-06-25T14:55:41-04:00
; #@! TF.GenerationSoftware,Kicad,Pcbnew,7.0.7
; #@! TF.FileFunction,Plated,1,2,PTH
FMAT,2
METRIC
; #@! TA.AperFunction,Plated,PTH,ViaDrill
T1C0.300
; #@! TA.AperFunction,Plated,PTH,ViaDrill
T2C0.400
; #@! TA.AperFunction,Plated,PTH,ViaDrill
T3C0.450
; #@! TA.AperFunction,Plated,PTH,ViaDrill
T4C0.600
; #@! TA.AperFunction,Plated,PTH,ComponentDrill
T5C0.800
; #@! TA.AperFunction,Plated,PTH,ComponentDrill
T6C0.813
; #@! TA.AperFunction,Plated,PTH,ComponentDrill
T7C0.864
; #@! TA.AperFunction,Plated,PTH,ComponentDrill
T8C0.889
; #@! TA.AperFunction,Plated,PTH,ComponentDrill
T9C0.965
; #@! TA.AperFunction,Plated,PTH,ComponentDrill
T10C1.000
; #@! TA.AperFunction,Plated,PTH,ComponentDrill
T11C1.016
; #@! TA.AperFunction,Plated,PTH,ComponentDrill
T12C1.143
; #@! TA.AperFunction,Plated,PTH,ComponentDrill
T13C1.300
; #@! TA.AperFunction,Plated,PTH,ComponentDrill
T14C1.400
; #@! TA.AperFunction,Plated,PTH,ComponentDrill
T15C3.353
%
G90
G05
T1
X64.0Y-126.75
X67.0Y-137.0
X71.75Y-102.0
X71.75Y-142.75
X73.75Y-109.5
X73.75Y-112.5
X73.75Y-115.75
X74.25Y-163.75
X74.25Y-166.75
X74.5Y-162.5
X77.0Y-145.0
X78.0Y-108.5
X78.0Y-111.5
X78.0Y-114.5
X79.763Y-102.0
X86.25Y-146.25
X89.0Y-130.25
X91.5Y-163.0
X92.0Y-91.7
X95.0Y-159.5
X95.0Y-163.0
X96.5Y-147.25
X96.5Y-155.0
X97.0Y-163.0
X98.0Y-160.0
X99.0Y-109.5
X99.75Y-111.5
X100.75Y-110.5
X101.0Y-162.5
X102.0Y-160.0
X105.71Y-109.21
X107.75Y-97.5
X109.9Y-109.2
X111.572Y-97.5
X113.0Y-135.35
X113.5Y-157.5
X113.75Y-164.925
X114.0Y-158.5
X114.625Y-159.5
X116.3Y-163.3
X116.5Y-147.75
X117.5Y-174.0
X118.5Y-161.5
X120.0Y-140.0
X120.0Y-174.0
X121.5Y-147.75
X121.5Y-162.5
X123.0Y-161.0
X123.5Y-157.0
X124.0Y-162.5
X125.0Y-100.0
X125.0Y-134.0
X126.5Y-162.5
X127.5Y-159.5
X128.0Y-103.5
X128.5Y-100.0
X131.0Y-104.1
X131.0Y-109.3
X131.0Y-118.5
X131.0Y-162.5
X131.5Y-159.5
X133.0Y-122.0
X133.0Y-131.5
X133.5Y-129.5
X134.0Y-118.0
X134.0Y-123.0
X134.25Y-97.5
X135.4Y-109.2
X136.2Y-103.7
X136.5Y-126.5
X136.5Y-128.5
X136.75Y-97.5
X136.8Y-118.5
X137.0Y-121.0
X139.5Y-117.0
X140.0Y-126.0
X140.345Y-128.445
X140.4Y-127.1
X142.0Y-160.0
X142.0Y-174.0
X142.1Y-125.5
X142.75Y-162.475
X143.0Y-159.0
X144.0Y-158.0
X145.0Y-115.5
X145.0Y-118.0
X146.0Y-118.0
X146.0Y-123.5
X146.0Y-127.0
X147.0Y-116.5
X147.0Y-120.0
X147.0Y-123.0
X147.5Y-126.0
X149.0Y-103.5
X149.0Y-124.635
X149.8Y-173.5
X150.0Y-163.0
X151.0Y-100.0
X153.0Y-161.0
X153.5Y-103.5
X153.5Y-105.0
X153.5Y-113.0
X154.0Y-100.0
X154.0Y-157.5
X154.0Y-163.0
X154.5Y-122.0
X154.5Y-131.0
X155.25Y-139.75
X155.7Y-120.5
X156.0Y-163.0
X156.9Y-109.3
X157.0Y-160.0
X157.875Y-127.625
X158.3Y-120.5
X159.0Y-103.5
X159.0Y-105.0
X159.75Y-97.5
X160.0Y-130.0
X160.5Y-120.5
X160.5Y-162.852
X160.6Y-124.5
X161.0Y-160.0
X161.1Y-109.3
X162.0Y-103.5
X162.0Y-105.0
X163.0Y-97.5
X164.5Y-129.5
X167.75Y-132.5
X170.5Y-119.5
X171.0Y-127.5
X171.0Y-130.5
X172.0Y-160.5
X172.5Y-144.5
X172.6Y-173.8
X173.0Y-103.5
X173.0Y-104.5
X173.0Y-105.5
X173.0Y-164.798
X173.402Y-159.598
X174.75Y-141.75
X174.965Y-158.489
X175.25Y-161.75
X175.8Y-100.0
X176.0Y-145.475
X176.0Y-148.0
X176.5Y-162.9
X177.5Y-145.475
X177.5Y-148.0
X178.0Y-115.5
X178.3Y-119.146
X179.3Y-173.8
X180.5Y-147.0
X180.5Y-151.25
X180.5Y-163.0
X181.654Y-119.146
X182.3Y-109.3
X182.5Y-161.0
X182.75Y-133.75
X184.0Y-156.0
X184.5Y-163.0
X185.5Y-97.5
X186.5Y-159.5
X187.0Y-100.0
X187.0Y-162.5
X187.4Y-109.3
X188.0Y-103.5
X188.0Y-104.5
X188.0Y-105.5
X189.0Y-97.5
X190.3Y-129.0
X190.5Y-103.5
X190.5Y-104.5
X190.5Y-105.5
X191.0Y-138.2
X191.0Y-162.5
X191.0Y-127.0
X191.1Y-136.0
X191.5Y-159.5
X192.4Y-132.0
X194.25Y-99.5
X194.75Y-98.25
X195.5Y-97.25
X195.5Y-136.0
X197.0Y-108.0
X197.0Y-109.5
X197.0Y-110.5
X197.0Y-111.8
X197.0Y-113.0
X197.25Y-132.554
X197.25Y-173.25
X197.5Y-130.0
X197.75Y-142.25
X198.0Y-128.5
X198.25Y-135.0
X198.5Y-116.7
X198.75Y-119.559
X199.0Y-128.0
X200.0Y-108.5
X200.5Y-140.0
X200.525Y-102.271
X200.9Y-107.9
X201.0Y-117.0
X201.452Y-132.298
X201.5Y-134.75
X201.5Y-136.75
X201.8Y-108.5
X202.0Y-117.0
X202.25Y-106.0
X202.5Y-104.0
X202.5Y-105.0
X202.5Y-125.347
X202.5Y-137.5
X202.7Y-106.9
X202.75Y-124.0
X202.875Y-159.875
X203.0Y-117.0
X203.25Y-144.25
X203.75Y-162.475
X203.775Y-159.225
X204.0Y-117.0
X204.0Y-142.9
X204.5Y-158.475
X205.0Y-142.4
X205.0Y-147.0
X205.1Y-117.0
X205.13Y-111.77
X205.5Y-141.2
X205.6Y-100.3
X206.0Y-108.9
X206.0Y-111.0
X206.3Y-117.0
X206.5Y-146.8
X206.5Y-112.945
X207.6Y-117.0
X208.9Y-117.0
X208.9Y-131.7
X209.0Y-137.5
X209.8Y-130.8
X211.2Y-108.5
X211.4Y-104.5
X211.5Y-102.25
X211.8Y-105.5
X211.8Y-106.6
X212.6Y-109.7
X212.612Y-110.987
X213.5Y-142.0
X213.75Y-112.75
X214.5Y-128.0
X214.5Y-162.5
X216.1Y-133.1
X216.4Y-146.0
X216.5Y-110.405
X216.5Y-160.5
X217.0Y-125.0
X217.25Y-99.25
X217.3Y-103.5
X217.5Y-133.5
X217.5Y-155.5
X217.5Y-173.5
X218.0Y-100.1
X218.0Y-130.0
X218.25Y-98.25
X218.5Y-162.5
X219.0Y-97.25
X219.5Y-100.0
X219.5Y-133.5
X220.1Y-104.4
X220.15Y-103.15
X220.5Y-159.0
X220.96Y-119.5
X221.0Y-133.5
X221.0Y-162.0
X222.5Y-133.5
X223.0Y-121.5
X224.0Y-133.5
X224.5Y-123.0
X225.0Y-100.0
X225.0Y-119.5
X225.0Y-134.0
X225.0Y-162.0
X225.5Y-159.0
X226.0Y-135.0
X227.0Y-139.0
X229.75Y-109.5
X231.25Y-97.5
X231.25Y-125.5
X232.5Y-109.5
X232.7Y-103.5
X233.0Y-97.5
X233.0Y-119.0
X233.0Y-132.5
X234.0Y-105.5
X234.0Y-120.0
X234.1Y-103.5
X235.6Y-122.5
X236.4Y-173.8
X236.5Y-159.5
X237.25Y-162.1
X237.5Y-131.0
X237.65Y-158.85
X239.0Y-136.0
X239.0Y-158.2
X239.5Y-118.1
X240.0Y-99.5
X240.0Y-149.5
X240.2Y-141.3
X240.9Y-147.4
X242.0Y-132.5
X242.5Y-134.375
X243.0Y-118.5
X243.5Y-103.5
X243.5Y-105.2
X244.0Y-118.0
X244.0Y-120.0
X244.25Y-143.5
X244.75Y-135.0
X244.8Y-174.1
X245.3Y-144.2
X245.5Y-162.5
X245.6Y-135.8
X246.0Y-139.5
X246.5Y-108.0
X247.0Y-140.425
X247.0Y-143.4
X248.0Y-155.5
X248.0Y-160.5
X248.5Y-124.0
X249.0Y-162.5
X250.0Y-99.5
X250.0Y-124.0
X250.25Y-140.25
X250.35Y-139.1
X251.5Y-159.0
X251.5Y-162.5
X252.65Y-123.15
X254.73Y-116.73
X254.855Y-109.355
X255.0Y-133.8
X255.0Y-141.0
X255.5Y-112.0
X255.5Y-113.0
X256.0Y-159.0
X256.0Y-162.5
X256.6Y-115.4
X256.7Y-133.8
X257.0Y-118.5
X257.0Y-123.5
X257.0Y-132.5
X257.25Y-97.5
X257.5Y-114.2
X258.1Y-109.3
X259.5Y-104.5
X259.5Y-105.5
X260.5Y-97.5
X260.5Y-112.0
X260.5Y-113.0
X260.5Y-114.0
X261.0Y-114.9
X261.0Y-118.0
X261.0Y-124.0
X261.0Y-128.0
X261.4Y-119.6
X261.4Y-125.3
X263.3Y-114.2
X264.0Y-130.0
X264.0Y-133.9
X265.0Y-117.26
X265.9Y-122.2
X265.9Y-125.6
X267.0Y-99.75
X267.2Y-104.5
X267.2Y-105.5
X267.2Y-173.7
X267.375Y-159.375
X267.5Y-161.975
X268.275Y-158.725
X269.5Y-158.0
X270.5Y-114.7
X271.0Y-122.095
X271.825Y-127.175
X272.0Y-115.5
X272.5Y-129.5
X272.5Y-146.5
X272.5Y-148.5
X273.9Y-173.7
X274.0Y-135.75
X274.5Y-127.0
X274.6Y-164.6
X275.0Y-136.5
X275.5Y-141.0
X276.0Y-99.75
X277.5Y-160.0
X278.2Y-161.6
X278.451Y-111.799
X278.5Y-154.5
X279.0Y-113.0
X279.0Y-123.5
X279.0Y-132.5
X280.0Y-114.2
X280.3Y-109.3
X281.0Y-158.5
X281.0Y-162.0
X281.5Y-120.5
X282.25Y-97.5
X284.0Y-109.3
X284.0Y-128.0
X284.8Y-119.0
X285.0Y-105.5
X285.5Y-158.5
X285.5Y-162.0
X285.6Y-143.0
X285.6Y-144.2
X285.75Y-97.5
X286.8Y-113.0
X286.8Y-114.0
X286.8Y-115.0
X287.0Y-143.0
X288.0Y-122.5
X288.0Y-137.6
X288.0Y-139.0
X290.7Y-119.0
X292.0Y-105.5
X292.5Y-121.0
X293.1Y-99.75
X295.0Y-117.0
X297.3Y-173.8
X297.375Y-158.875
X297.5Y-161.475
X298.775Y-158.225
X300.5Y-129.5
X300.5Y-157.5
X302.25Y-99.75
X303.5Y-146.75
X303.5Y-148.5
X304.0Y-162.5
X304.2Y-173.8
X307.0Y-160.6
X307.493Y-129.577
X307.5Y-117.0
X307.5Y-155.5
X308.0Y-162.5
X308.25Y-97.5
X308.5Y-114.0
X309.5Y-128.0
X310.0Y-117.0
X310.5Y-137.5
X310.8Y-138.9
X311.0Y-158.8
X311.0Y-162.5
X311.5Y-97.5
X311.5Y-104.0
X311.5Y-105.0
X313.5Y-130.0
X313.5Y-131.5
X314.1Y-145.9
X314.5Y-159.5
X315.0Y-162.5
X317.2Y-105.0
X317.4Y-107.0
X320.25Y-103.25
X320.25Y-105.4
X322.4Y-99.8
X323.6Y-129.5
X324.6Y-128.7
X326.5Y-127.5
X326.875Y-159.375
X327.4Y-103.4
X327.775Y-158.725
X328.0Y-164.0
X329.4Y-102.8
X329.5Y-157.975
X330.0Y-148.25
X331.25Y-162.5
X331.75Y-146.8
X336.5Y-151.5
X337.4Y-104.4
X337.5Y-98.1
X339.5Y-129.0
X344.5Y-106.0
X344.5Y-132.0
T2
X330.0Y-139.4
T3
X55.0Y-147.0
X55.0Y-149.25
X55.0Y-151.5
X55.0Y-153.5
X55.0Y-155.75
X55.75Y-144.5
X55.75Y-158.25
X57.5Y-144.5
X57.5Y-158.25
X59.25Y-144.5
X59.25Y-158.25
X61.0Y-144.5
X61.0Y-158.25
X62.75Y-144.5
X64.5Y-144.5
X74.5Y-95.5
X75.75Y-169.75
X76.0Y-93.25
X76.0Y-94.75
X76.0Y-96.25
X76.0Y-97.75
X79.75Y-168.0
X81.25Y-93.25
X81.25Y-94.75
X81.25Y-96.25
X81.25Y-97.75
X98.5Y-164.5
X99.5Y-165.0
X100.5Y-165.0
X101.5Y-164.5
X128.0Y-164.0
X128.25Y-139.75
X129.0Y-164.5
X130.0Y-164.5
X131.0Y-164.0
X137.25Y-135.5
X138.25Y-141.75
X138.75Y-137.25
X157.518Y-164.0
X158.682Y-164.5
X159.722Y-164.5
X161.1Y-163.9
X162.0Y-138.25
X170.5Y-135.25
X170.5Y-141.25
X173.0Y-136.5
X173.0Y-138.25
X173.0Y-140.0
X180.5Y-133.25
X185.25Y-138.0
X185.75Y-123.75
X188.0Y-164.0
X189.0Y-164.5
X190.0Y-164.5
X191.0Y-164.0
X222.0Y-163.5
X223.0Y-164.0
X224.0Y-164.0
X225.0Y-163.5
X253.0Y-164.0
X254.0Y-164.5
X255.0Y-164.5
X256.0Y-164.0
X282.5Y-163.5
X283.5Y-164.0
X284.5Y-164.0
X285.5Y-163.5
X312.0Y-164.0
X313.0Y-164.5
X314.0Y-164.5
X315.0Y-164.0
X342.5Y-159.0
X342.5Y-166.25
T4
X108.0Y-158.2
X108.0Y-165.9
X137.4Y-157.7
X137.4Y-165.4
X166.0Y-145.318
X167.5Y-158.0
X167.5Y-165.7
X174.5Y-174.75
X181.5Y-152.5
X198.0Y-157.7
X198.0Y-165.3
X232.0Y-157.4
X232.0Y-164.9
X262.4Y-157.0
X262.4Y-164.8
X292.5Y-156.7
X292.5Y-164.3
X322.1Y-157.1
X322.1Y-164.8
X345.5Y-137.0
T5
X298.24Y-115.4
X305.86Y-115.4
T6
X188.0Y-120.0
X190.0Y-120.0
T7
X89.0Y-118.0
X89.0Y-123.0
T8
X319.082Y-115.4
X323.018Y-115.4
T9
X68.229Y-125.66
X68.229Y-128.2
X68.229Y-130.74
X68.229Y-133.28
X70.769Y-126.93
X70.769Y-129.47
X70.769Y-132.01
X70.769Y-134.55
X81.498Y-152.235
X81.498Y-155.74
X85.664Y-95.5
X89.169Y-95.5
X108.933Y-150.975
X112.438Y-150.975
X137.914Y-150.275
X141.419Y-150.275
X167.914Y-150.5
X171.419Y-150.5
X198.914Y-150.425
X202.419Y-150.425
X232.757Y-150.05
X236.262Y-150.05
X263.828Y-149.925
X267.334Y-149.925
X293.976Y-149.425
X297.481Y-149.425
X322.579Y-150.425
X326.084Y-150.425
T10
X57.4Y-103.4
X57.46Y-108.0
X59.94Y-103.4
X60.0Y-108.0
X62.48Y-103.4
X101.46Y-129.19
X101.46Y-136.81
X104.0Y-129.19
X104.0Y-136.81
X106.54Y-129.19
X106.54Y-136.81
X195.9Y-117.075
X195.9Y-119.615
X195.9Y-122.155
X328.4Y-93.475
X330.94Y-93.475
X333.48Y-93.475
X336.02Y-93.475
X338.56Y-93.475
X341.1Y-93.475
X343.64Y-93.475
T11
X97.46Y-170.36
X98.73Y-172.9
X100.0Y-170.36
X100.3Y-101.92
X100.3Y-107.0
X101.27Y-172.9
X102.54Y-170.36
X103.81Y-172.9
X105.38Y-101.92
X105.38Y-107.0
X107.92Y-101.92
X107.92Y-107.0
X110.46Y-101.92
X110.46Y-107.0
X113.0Y-101.92
X113.0Y-107.0
X126.173Y-101.92
X126.173Y-107.0
X126.96Y-170.36
X128.23Y-172.9
X129.5Y-170.36
X130.77Y-172.9
X131.253Y-101.92
X131.253Y-107.0
X132.04Y-170.36
X133.31Y-172.9
X133.793Y-101.92
X133.793Y-107.0
X136.333Y-101.92
X136.333Y-107.0
X138.873Y-101.92
X138.873Y-107.0
X152.047Y-101.92
X152.047Y-107.0
X156.71Y-170.36
X157.127Y-101.92
X157.127Y-107.0
X157.98Y-172.9
X159.25Y-170.36
X159.667Y-101.92
X159.667Y-107.0
X160.52Y-172.9
X161.79Y-170.36
X162.207Y-101.92
X162.207Y-107.0
X163.06Y-172.9
X164.747Y-101.92
X164.747Y-107.0
X177.92Y-101.92
X177.92Y-107.0
X183.0Y-101.92
X183.0Y-107.0
X185.54Y-101.92
X185.54Y-107.0
X186.96Y-170.36
X188.08Y-101.92
X188.08Y-107.0
X188.23Y-172.9
X189.5Y-170.36
X190.62Y-101.92
X190.62Y-107.0
X190.77Y-172.9
X192.04Y-170.36
X193.31Y-172.9
X220.96Y-170.36
X222.23Y-172.9
X223.5Y-170.36
X223.923Y-101.92
X223.923Y-107.0
X224.77Y-172.9
X226.04Y-170.36
X227.31Y-172.9
X229.003Y-101.92
X229.003Y-107.0
X231.543Y-101.92
X231.543Y-107.0
X234.083Y-101.92
X234.083Y-107.0
X236.623Y-101.92
X236.623Y-107.0
X249.59Y-101.92
X249.59Y-107.0
X251.96Y-170.36
X253.23Y-172.9
X254.5Y-170.36
X254.67Y-101.92
X254.67Y-107.0
X255.77Y-172.9
X257.04Y-170.36
X257.21Y-101.92
X257.21Y-107.0
X258.31Y-172.9
X259.75Y-101.92
X259.75Y-107.0
X262.29Y-101.92
X262.29Y-107.0
X275.256Y-101.92
X275.256Y-107.0
X280.336Y-101.92
X280.336Y-107.0
X281.46Y-170.36
X282.73Y-172.9
X282.876Y-101.92
X282.876Y-107.0
X284.0Y-170.36
X285.27Y-172.9
X285.416Y-101.92
X285.416Y-107.0
X286.54Y-170.36
X287.81Y-172.9
X287.956Y-101.92
X287.956Y-107.0
X295.05Y-120.32
X295.05Y-125.4
X295.05Y-136.4
X295.05Y-141.48
X300.13Y-120.32
X300.13Y-125.4
X300.13Y-136.4
X300.13Y-141.48
X300.923Y-101.92
X300.923Y-107.0
X302.67Y-120.32
X302.67Y-125.4
X302.67Y-136.4
X302.67Y-141.48
X305.21Y-120.32
X305.21Y-125.4
X305.21Y-136.4
X305.21Y-141.48
X306.003Y-101.92
X306.003Y-107.0
X307.75Y-120.32
X307.75Y-125.4
X307.75Y-136.4
X307.75Y-141.48
X308.543Y-101.92
X308.543Y-107.0
X310.96Y-170.36
X311.083Y-101.92
X311.083Y-107.0
X312.23Y-172.9
X313.5Y-170.36
X313.623Y-101.92
X313.623Y-107.0
X314.501Y-120.4
X314.501Y-125.48
X314.501Y-136.4
X314.501Y-141.48
X314.77Y-172.9
X316.04Y-170.36
X317.31Y-172.9
X319.581Y-120.4
X319.581Y-125.48
X319.581Y-136.4
X319.581Y-141.48
X322.121Y-120.4
X322.121Y-125.48
X322.121Y-136.4
X322.121Y-141.48
X324.661Y-120.4
X324.661Y-125.48
X324.661Y-136.4
X324.661Y-141.48
X327.201Y-120.4
X327.201Y-125.48
X327.201Y-136.4
X327.201Y-141.48
T12
X218.38Y-117.0
X220.92Y-117.0
X223.46Y-117.0
X226.0Y-117.0
T13
X351.0Y-114.0
X351.0Y-119.0
X351.0Y-124.0
X351.0Y-129.0
X351.0Y-134.0
X351.0Y-139.0
X351.0Y-144.0
T14
X102.827Y-93.75
X106.637Y-93.75
X110.447Y-93.75
X128.701Y-93.75
X132.511Y-93.75
X136.321Y-93.75
X154.574Y-93.75
X158.384Y-93.75
X162.194Y-93.75
X180.447Y-93.75
X184.257Y-93.75
X188.067Y-93.75
X226.45Y-93.75
X230.26Y-93.75
X234.07Y-93.75
X252.117Y-93.75
X255.927Y-93.75
X259.737Y-93.75
X277.784Y-93.75
X281.594Y-93.75
X285.404Y-93.75
X303.45Y-93.75
X307.26Y-93.75
X311.07Y-93.75
X351.25Y-158.09
X351.25Y-161.9
X351.25Y-165.71
T15
X95.555Y-179.25
X105.715Y-179.25
X125.055Y-179.25
X135.215Y-179.25
X154.805Y-179.25
X164.965Y-179.25
X185.055Y-179.25
X195.215Y-179.25
X219.055Y-179.25
X229.215Y-179.25
X250.055Y-179.25
X260.215Y-179.25
X279.555Y-179.25
X289.715Y-179.25
X309.055Y-179.25
X319.215Y-179.25
T0
M30
