%TF.GenerationSoftware,KiCad,Pcbnew,7.0.7*%
%TF.CreationDate,2024-06-25T14:55:52-04:00*%
%TF.ProjectId,AOML_AB_3.0_reorganized-v3,414f4d4c-5f41-4425-9f33-2e305f72656f,3*%
%TF.SameCoordinates,Original*%
%TF.FileFunction,Drillmap*%
%TF.FilePolarity,Positive*%
%FSLAX45Y45*%
G04 Gerber Fmt 4.5, Leading zero omitted, Abs format (unit mm)*
G04 Created by KiCad (PCBNEW 7.0.7) date 2024-06-25 14:55:52*
%MOMM*%
%LPD*%
G01*
G04 APERTURE LIST*
%ADD10C,0.100000*%
%ADD11C,0.200000*%
%ADD12C,0.332740*%
%ADD13C,0.635000*%
G04 APERTURE END LIST*
D10*
X5800000Y-8600000D02*
X35600000Y-8600000D01*
X36200000Y-9200000D02*
G75*
G03*
X35600000Y-8600000I-600000J0D01*
G01*
X36200000Y-9200000D02*
X36200000Y-18000000D01*
X5200000Y-18000000D02*
X5200000Y-9200000D01*
X5800000Y-8600000D02*
G75*
G03*
X5200000Y-9200000I0J-600000D01*
G01*
X35600000Y-18600000D02*
X5800000Y-18600000D01*
X35600000Y-18600000D02*
G75*
G03*
X36200000Y-18000000I0J600000D01*
G01*
X5200000Y-18000000D02*
G75*
G03*
X5800000Y-18600000I600000J0D01*
G01*
D11*
D12*
X6020530Y-12272620D02*
X6353270Y-12605360D01*
X6353270Y-12272620D02*
X6020530Y-12605360D01*
X6020530Y-13415620D02*
X6353270Y-13748360D01*
X6353270Y-13415620D02*
X6020530Y-13748360D01*
D13*
X6117500Y-9200000D02*
G75*
G03*
X6117500Y-9200000I-317500J0D01*
G01*
X6117500Y-17800000D02*
G75*
G03*
X6117500Y-17800000I-317500J0D01*
G01*
X21017500Y-9200000D02*
G75*
G03*
X21017500Y-9200000I-317500J0D01*
G01*
X21017500Y-17800000D02*
G75*
G03*
X21017500Y-17800000I-317500J0D01*
G01*
X35917500Y-9200000D02*
G75*
G03*
X35917500Y-9200000I-317500J0D01*
G01*
X35917500Y-17800000D02*
G75*
G03*
X35917500Y-17800000I-317500J0D01*
G01*
D11*
X5455777Y-18916484D02*
X5455777Y-18716484D01*
X5455777Y-18716484D02*
X5503396Y-18716484D01*
X5503396Y-18716484D02*
X5531967Y-18726008D01*
X5531967Y-18726008D02*
X5551015Y-18745055D01*
X5551015Y-18745055D02*
X5560539Y-18764103D01*
X5560539Y-18764103D02*
X5570063Y-18802198D01*
X5570063Y-18802198D02*
X5570063Y-18830770D01*
X5570063Y-18830770D02*
X5560539Y-18868865D01*
X5560539Y-18868865D02*
X5551015Y-18887912D01*
X5551015Y-18887912D02*
X5531967Y-18906960D01*
X5531967Y-18906960D02*
X5503396Y-18916484D01*
X5503396Y-18916484D02*
X5455777Y-18916484D01*
X5655777Y-18916484D02*
X5655777Y-18783150D01*
X5655777Y-18821246D02*
X5665301Y-18802198D01*
X5665301Y-18802198D02*
X5674824Y-18792674D01*
X5674824Y-18792674D02*
X5693872Y-18783150D01*
X5693872Y-18783150D02*
X5712920Y-18783150D01*
X5779586Y-18916484D02*
X5779586Y-18783150D01*
X5779586Y-18716484D02*
X5770062Y-18726008D01*
X5770062Y-18726008D02*
X5779586Y-18735531D01*
X5779586Y-18735531D02*
X5789110Y-18726008D01*
X5789110Y-18726008D02*
X5779586Y-18716484D01*
X5779586Y-18716484D02*
X5779586Y-18735531D01*
X5903396Y-18916484D02*
X5884348Y-18906960D01*
X5884348Y-18906960D02*
X5874824Y-18887912D01*
X5874824Y-18887912D02*
X5874824Y-18716484D01*
X6008158Y-18916484D02*
X5989110Y-18906960D01*
X5989110Y-18906960D02*
X5979586Y-18887912D01*
X5979586Y-18887912D02*
X5979586Y-18716484D01*
X6236729Y-18916484D02*
X6236729Y-18716484D01*
X6236729Y-18716484D02*
X6303396Y-18859341D01*
X6303396Y-18859341D02*
X6370062Y-18716484D01*
X6370062Y-18716484D02*
X6370062Y-18916484D01*
X6551015Y-18916484D02*
X6551015Y-18811722D01*
X6551015Y-18811722D02*
X6541491Y-18792674D01*
X6541491Y-18792674D02*
X6522443Y-18783150D01*
X6522443Y-18783150D02*
X6484348Y-18783150D01*
X6484348Y-18783150D02*
X6465301Y-18792674D01*
X6551015Y-18906960D02*
X6531967Y-18916484D01*
X6531967Y-18916484D02*
X6484348Y-18916484D01*
X6484348Y-18916484D02*
X6465301Y-18906960D01*
X6465301Y-18906960D02*
X6455777Y-18887912D01*
X6455777Y-18887912D02*
X6455777Y-18868865D01*
X6455777Y-18868865D02*
X6465301Y-18849817D01*
X6465301Y-18849817D02*
X6484348Y-18840293D01*
X6484348Y-18840293D02*
X6531967Y-18840293D01*
X6531967Y-18840293D02*
X6551015Y-18830770D01*
X6646253Y-18783150D02*
X6646253Y-18983150D01*
X6646253Y-18792674D02*
X6665301Y-18783150D01*
X6665301Y-18783150D02*
X6703396Y-18783150D01*
X6703396Y-18783150D02*
X6722443Y-18792674D01*
X6722443Y-18792674D02*
X6731967Y-18802198D01*
X6731967Y-18802198D02*
X6741491Y-18821246D01*
X6741491Y-18821246D02*
X6741491Y-18878389D01*
X6741491Y-18878389D02*
X6731967Y-18897436D01*
X6731967Y-18897436D02*
X6722443Y-18906960D01*
X6722443Y-18906960D02*
X6703396Y-18916484D01*
X6703396Y-18916484D02*
X6665301Y-18916484D01*
X6665301Y-18916484D02*
X6646253Y-18906960D01*
X6827205Y-18897436D02*
X6836729Y-18906960D01*
X6836729Y-18906960D02*
X6827205Y-18916484D01*
X6827205Y-18916484D02*
X6817682Y-18906960D01*
X6817682Y-18906960D02*
X6827205Y-18897436D01*
X6827205Y-18897436D02*
X6827205Y-18916484D01*
X6827205Y-18792674D02*
X6836729Y-18802198D01*
X6836729Y-18802198D02*
X6827205Y-18811722D01*
X6827205Y-18811722D02*
X6817682Y-18802198D01*
X6817682Y-18802198D02*
X6827205Y-18792674D01*
X6827205Y-18792674D02*
X6827205Y-18811722D01*
X4995000Y-19145000D02*
X5195000Y-19345000D01*
X5195000Y-19145000D02*
X4995000Y-19345000D01*
X5436729Y-19136484D02*
X5560539Y-19136484D01*
X5560539Y-19136484D02*
X5493872Y-19212674D01*
X5493872Y-19212674D02*
X5522444Y-19212674D01*
X5522444Y-19212674D02*
X5541491Y-19222198D01*
X5541491Y-19222198D02*
X5551015Y-19231722D01*
X5551015Y-19231722D02*
X5560539Y-19250770D01*
X5560539Y-19250770D02*
X5560539Y-19298389D01*
X5560539Y-19298389D02*
X5551015Y-19317436D01*
X5551015Y-19317436D02*
X5541491Y-19326960D01*
X5541491Y-19326960D02*
X5522444Y-19336484D01*
X5522444Y-19336484D02*
X5465301Y-19336484D01*
X5465301Y-19336484D02*
X5446253Y-19326960D01*
X5446253Y-19326960D02*
X5436729Y-19317436D01*
X5646253Y-19317436D02*
X5655777Y-19326960D01*
X5655777Y-19326960D02*
X5646253Y-19336484D01*
X5646253Y-19336484D02*
X5636729Y-19326960D01*
X5636729Y-19326960D02*
X5646253Y-19317436D01*
X5646253Y-19317436D02*
X5646253Y-19336484D01*
X5722443Y-19136484D02*
X5846253Y-19136484D01*
X5846253Y-19136484D02*
X5779586Y-19212674D01*
X5779586Y-19212674D02*
X5808158Y-19212674D01*
X5808158Y-19212674D02*
X5827205Y-19222198D01*
X5827205Y-19222198D02*
X5836729Y-19231722D01*
X5836729Y-19231722D02*
X5846253Y-19250770D01*
X5846253Y-19250770D02*
X5846253Y-19298389D01*
X5846253Y-19298389D02*
X5836729Y-19317436D01*
X5836729Y-19317436D02*
X5827205Y-19326960D01*
X5827205Y-19326960D02*
X5808158Y-19336484D01*
X5808158Y-19336484D02*
X5751015Y-19336484D01*
X5751015Y-19336484D02*
X5731967Y-19326960D01*
X5731967Y-19326960D02*
X5722443Y-19317436D01*
X5922443Y-19155531D02*
X5931967Y-19146008D01*
X5931967Y-19146008D02*
X5951015Y-19136484D01*
X5951015Y-19136484D02*
X5998634Y-19136484D01*
X5998634Y-19136484D02*
X6017682Y-19146008D01*
X6017682Y-19146008D02*
X6027205Y-19155531D01*
X6027205Y-19155531D02*
X6036729Y-19174579D01*
X6036729Y-19174579D02*
X6036729Y-19193627D01*
X6036729Y-19193627D02*
X6027205Y-19222198D01*
X6027205Y-19222198D02*
X5912920Y-19336484D01*
X5912920Y-19336484D02*
X6036729Y-19336484D01*
X6103396Y-19136484D02*
X6236729Y-19136484D01*
X6236729Y-19136484D02*
X6151015Y-19336484D01*
X6312920Y-19336484D02*
X6312920Y-19203150D01*
X6312920Y-19222198D02*
X6322443Y-19212674D01*
X6322443Y-19212674D02*
X6341491Y-19203150D01*
X6341491Y-19203150D02*
X6370063Y-19203150D01*
X6370063Y-19203150D02*
X6389110Y-19212674D01*
X6389110Y-19212674D02*
X6398634Y-19231722D01*
X6398634Y-19231722D02*
X6398634Y-19336484D01*
X6398634Y-19231722D02*
X6408158Y-19212674D01*
X6408158Y-19212674D02*
X6427205Y-19203150D01*
X6427205Y-19203150D02*
X6455777Y-19203150D01*
X6455777Y-19203150D02*
X6474824Y-19212674D01*
X6474824Y-19212674D02*
X6484348Y-19231722D01*
X6484348Y-19231722D02*
X6484348Y-19336484D01*
X6579586Y-19336484D02*
X6579586Y-19203150D01*
X6579586Y-19222198D02*
X6589110Y-19212674D01*
X6589110Y-19212674D02*
X6608158Y-19203150D01*
X6608158Y-19203150D02*
X6636729Y-19203150D01*
X6636729Y-19203150D02*
X6655777Y-19212674D01*
X6655777Y-19212674D02*
X6665301Y-19231722D01*
X6665301Y-19231722D02*
X6665301Y-19336484D01*
X6665301Y-19231722D02*
X6674824Y-19212674D01*
X6674824Y-19212674D02*
X6693872Y-19203150D01*
X6693872Y-19203150D02*
X6722443Y-19203150D01*
X6722443Y-19203150D02*
X6741491Y-19212674D01*
X6741491Y-19212674D02*
X6751015Y-19231722D01*
X6751015Y-19231722D02*
X6751015Y-19336484D01*
X7141491Y-19126960D02*
X6970063Y-19384103D01*
X7398634Y-19136484D02*
X7417682Y-19136484D01*
X7417682Y-19136484D02*
X7436729Y-19146008D01*
X7436729Y-19146008D02*
X7446253Y-19155531D01*
X7446253Y-19155531D02*
X7455777Y-19174579D01*
X7455777Y-19174579D02*
X7465301Y-19212674D01*
X7465301Y-19212674D02*
X7465301Y-19260293D01*
X7465301Y-19260293D02*
X7455777Y-19298389D01*
X7455777Y-19298389D02*
X7446253Y-19317436D01*
X7446253Y-19317436D02*
X7436729Y-19326960D01*
X7436729Y-19326960D02*
X7417682Y-19336484D01*
X7417682Y-19336484D02*
X7398634Y-19336484D01*
X7398634Y-19336484D02*
X7379586Y-19326960D01*
X7379586Y-19326960D02*
X7370063Y-19317436D01*
X7370063Y-19317436D02*
X7360539Y-19298389D01*
X7360539Y-19298389D02*
X7351015Y-19260293D01*
X7351015Y-19260293D02*
X7351015Y-19212674D01*
X7351015Y-19212674D02*
X7360539Y-19174579D01*
X7360539Y-19174579D02*
X7370063Y-19155531D01*
X7370063Y-19155531D02*
X7379586Y-19146008D01*
X7379586Y-19146008D02*
X7398634Y-19136484D01*
X7551015Y-19317436D02*
X7560539Y-19326960D01*
X7560539Y-19326960D02*
X7551015Y-19336484D01*
X7551015Y-19336484D02*
X7541491Y-19326960D01*
X7541491Y-19326960D02*
X7551015Y-19317436D01*
X7551015Y-19317436D02*
X7551015Y-19336484D01*
X7751015Y-19336484D02*
X7636729Y-19336484D01*
X7693872Y-19336484D02*
X7693872Y-19136484D01*
X7693872Y-19136484D02*
X7674825Y-19165055D01*
X7674825Y-19165055D02*
X7655777Y-19184103D01*
X7655777Y-19184103D02*
X7636729Y-19193627D01*
X7817682Y-19136484D02*
X7941491Y-19136484D01*
X7941491Y-19136484D02*
X7874825Y-19212674D01*
X7874825Y-19212674D02*
X7903396Y-19212674D01*
X7903396Y-19212674D02*
X7922444Y-19222198D01*
X7922444Y-19222198D02*
X7931967Y-19231722D01*
X7931967Y-19231722D02*
X7941491Y-19250770D01*
X7941491Y-19250770D02*
X7941491Y-19298389D01*
X7941491Y-19298389D02*
X7931967Y-19317436D01*
X7931967Y-19317436D02*
X7922444Y-19326960D01*
X7922444Y-19326960D02*
X7903396Y-19336484D01*
X7903396Y-19336484D02*
X7846253Y-19336484D01*
X7846253Y-19336484D02*
X7827206Y-19326960D01*
X7827206Y-19326960D02*
X7817682Y-19317436D01*
X8131967Y-19336484D02*
X8017682Y-19336484D01*
X8074825Y-19336484D02*
X8074825Y-19136484D01*
X8074825Y-19136484D02*
X8055777Y-19165055D01*
X8055777Y-19165055D02*
X8036729Y-19184103D01*
X8036729Y-19184103D02*
X8017682Y-19193627D01*
X8255777Y-19136484D02*
X8274825Y-19136484D01*
X8274825Y-19136484D02*
X8293872Y-19146008D01*
X8293872Y-19146008D02*
X8303396Y-19155531D01*
X8303396Y-19155531D02*
X8312920Y-19174579D01*
X8312920Y-19174579D02*
X8322444Y-19212674D01*
X8322444Y-19212674D02*
X8322444Y-19260293D01*
X8322444Y-19260293D02*
X8312920Y-19298389D01*
X8312920Y-19298389D02*
X8303396Y-19317436D01*
X8303396Y-19317436D02*
X8293872Y-19326960D01*
X8293872Y-19326960D02*
X8274825Y-19336484D01*
X8274825Y-19336484D02*
X8255777Y-19336484D01*
X8255777Y-19336484D02*
X8236729Y-19326960D01*
X8236729Y-19326960D02*
X8227206Y-19317436D01*
X8227206Y-19317436D02*
X8217682Y-19298389D01*
X8217682Y-19298389D02*
X8208158Y-19260293D01*
X8208158Y-19260293D02*
X8208158Y-19212674D01*
X8208158Y-19212674D02*
X8217682Y-19174579D01*
X8217682Y-19174579D02*
X8227206Y-19155531D01*
X8227206Y-19155531D02*
X8236729Y-19146008D01*
X8236729Y-19146008D02*
X8255777Y-19136484D01*
X8398634Y-19136484D02*
X8398634Y-19174579D01*
X8474825Y-19136484D02*
X8474825Y-19174579D01*
X8770063Y-19412674D02*
X8760539Y-19403150D01*
X8760539Y-19403150D02*
X8741491Y-19374579D01*
X8741491Y-19374579D02*
X8731968Y-19355531D01*
X8731968Y-19355531D02*
X8722444Y-19326960D01*
X8722444Y-19326960D02*
X8712920Y-19279341D01*
X8712920Y-19279341D02*
X8712920Y-19241246D01*
X8712920Y-19241246D02*
X8722444Y-19193627D01*
X8722444Y-19193627D02*
X8731968Y-19165055D01*
X8731968Y-19165055D02*
X8741491Y-19146008D01*
X8741491Y-19146008D02*
X8760539Y-19117436D01*
X8760539Y-19117436D02*
X8770063Y-19107912D01*
X8836730Y-19155531D02*
X8846253Y-19146008D01*
X8846253Y-19146008D02*
X8865301Y-19136484D01*
X8865301Y-19136484D02*
X8912920Y-19136484D01*
X8912920Y-19136484D02*
X8931968Y-19146008D01*
X8931968Y-19146008D02*
X8941491Y-19155531D01*
X8941491Y-19155531D02*
X8951015Y-19174579D01*
X8951015Y-19174579D02*
X8951015Y-19193627D01*
X8951015Y-19193627D02*
X8941491Y-19222198D01*
X8941491Y-19222198D02*
X8827206Y-19336484D01*
X8827206Y-19336484D02*
X8951015Y-19336484D01*
X9189111Y-19336484D02*
X9189111Y-19136484D01*
X9274825Y-19336484D02*
X9274825Y-19231722D01*
X9274825Y-19231722D02*
X9265301Y-19212674D01*
X9265301Y-19212674D02*
X9246253Y-19203150D01*
X9246253Y-19203150D02*
X9217682Y-19203150D01*
X9217682Y-19203150D02*
X9198634Y-19212674D01*
X9198634Y-19212674D02*
X9189111Y-19222198D01*
X9398634Y-19336484D02*
X9379587Y-19326960D01*
X9379587Y-19326960D02*
X9370063Y-19317436D01*
X9370063Y-19317436D02*
X9360539Y-19298389D01*
X9360539Y-19298389D02*
X9360539Y-19241246D01*
X9360539Y-19241246D02*
X9370063Y-19222198D01*
X9370063Y-19222198D02*
X9379587Y-19212674D01*
X9379587Y-19212674D02*
X9398634Y-19203150D01*
X9398634Y-19203150D02*
X9427206Y-19203150D01*
X9427206Y-19203150D02*
X9446253Y-19212674D01*
X9446253Y-19212674D02*
X9455777Y-19222198D01*
X9455777Y-19222198D02*
X9465301Y-19241246D01*
X9465301Y-19241246D02*
X9465301Y-19298389D01*
X9465301Y-19298389D02*
X9455777Y-19317436D01*
X9455777Y-19317436D02*
X9446253Y-19326960D01*
X9446253Y-19326960D02*
X9427206Y-19336484D01*
X9427206Y-19336484D02*
X9398634Y-19336484D01*
X9579587Y-19336484D02*
X9560539Y-19326960D01*
X9560539Y-19326960D02*
X9551015Y-19307912D01*
X9551015Y-19307912D02*
X9551015Y-19136484D01*
X9731968Y-19326960D02*
X9712920Y-19336484D01*
X9712920Y-19336484D02*
X9674825Y-19336484D01*
X9674825Y-19336484D02*
X9655777Y-19326960D01*
X9655777Y-19326960D02*
X9646253Y-19307912D01*
X9646253Y-19307912D02*
X9646253Y-19231722D01*
X9646253Y-19231722D02*
X9655777Y-19212674D01*
X9655777Y-19212674D02*
X9674825Y-19203150D01*
X9674825Y-19203150D02*
X9712920Y-19203150D01*
X9712920Y-19203150D02*
X9731968Y-19212674D01*
X9731968Y-19212674D02*
X9741492Y-19231722D01*
X9741492Y-19231722D02*
X9741492Y-19250770D01*
X9741492Y-19250770D02*
X9646253Y-19269817D01*
X9817682Y-19326960D02*
X9836730Y-19336484D01*
X9836730Y-19336484D02*
X9874825Y-19336484D01*
X9874825Y-19336484D02*
X9893873Y-19326960D01*
X9893873Y-19326960D02*
X9903396Y-19307912D01*
X9903396Y-19307912D02*
X9903396Y-19298389D01*
X9903396Y-19298389D02*
X9893873Y-19279341D01*
X9893873Y-19279341D02*
X9874825Y-19269817D01*
X9874825Y-19269817D02*
X9846253Y-19269817D01*
X9846253Y-19269817D02*
X9827206Y-19260293D01*
X9827206Y-19260293D02*
X9817682Y-19241246D01*
X9817682Y-19241246D02*
X9817682Y-19231722D01*
X9817682Y-19231722D02*
X9827206Y-19212674D01*
X9827206Y-19212674D02*
X9846253Y-19203150D01*
X9846253Y-19203150D02*
X9874825Y-19203150D01*
X9874825Y-19203150D02*
X9893873Y-19212674D01*
X9970063Y-19412674D02*
X9979587Y-19403150D01*
X9979587Y-19403150D02*
X9998634Y-19374579D01*
X9998634Y-19374579D02*
X10008158Y-19355531D01*
X10008158Y-19355531D02*
X10017682Y-19326960D01*
X10017682Y-19326960D02*
X10027206Y-19279341D01*
X10027206Y-19279341D02*
X10027206Y-19241246D01*
X10027206Y-19241246D02*
X10017682Y-19193627D01*
X10017682Y-19193627D02*
X10008158Y-19165055D01*
X10008158Y-19165055D02*
X9998634Y-19146008D01*
X9998634Y-19146008D02*
X9979587Y-19117436D01*
X9979587Y-19117436D02*
X9970063Y-19107912D01*
X10331968Y-19412674D02*
X10322444Y-19403150D01*
X10322444Y-19403150D02*
X10303396Y-19374579D01*
X10303396Y-19374579D02*
X10293873Y-19355531D01*
X10293873Y-19355531D02*
X10284349Y-19326960D01*
X10284349Y-19326960D02*
X10274825Y-19279341D01*
X10274825Y-19279341D02*
X10274825Y-19241246D01*
X10274825Y-19241246D02*
X10284349Y-19193627D01*
X10284349Y-19193627D02*
X10293873Y-19165055D01*
X10293873Y-19165055D02*
X10303396Y-19146008D01*
X10303396Y-19146008D02*
X10322444Y-19117436D01*
X10322444Y-19117436D02*
X10331968Y-19107912D01*
X10408158Y-19203150D02*
X10408158Y-19336484D01*
X10408158Y-19222198D02*
X10417682Y-19212674D01*
X10417682Y-19212674D02*
X10436730Y-19203150D01*
X10436730Y-19203150D02*
X10465301Y-19203150D01*
X10465301Y-19203150D02*
X10484349Y-19212674D01*
X10484349Y-19212674D02*
X10493873Y-19231722D01*
X10493873Y-19231722D02*
X10493873Y-19336484D01*
X10617682Y-19336484D02*
X10598634Y-19326960D01*
X10598634Y-19326960D02*
X10589111Y-19317436D01*
X10589111Y-19317436D02*
X10579587Y-19298389D01*
X10579587Y-19298389D02*
X10579587Y-19241246D01*
X10579587Y-19241246D02*
X10589111Y-19222198D01*
X10589111Y-19222198D02*
X10598634Y-19212674D01*
X10598634Y-19212674D02*
X10617682Y-19203150D01*
X10617682Y-19203150D02*
X10646254Y-19203150D01*
X10646254Y-19203150D02*
X10665301Y-19212674D01*
X10665301Y-19212674D02*
X10674825Y-19222198D01*
X10674825Y-19222198D02*
X10684349Y-19241246D01*
X10684349Y-19241246D02*
X10684349Y-19298389D01*
X10684349Y-19298389D02*
X10674825Y-19317436D01*
X10674825Y-19317436D02*
X10665301Y-19326960D01*
X10665301Y-19326960D02*
X10646254Y-19336484D01*
X10646254Y-19336484D02*
X10617682Y-19336484D01*
X10741492Y-19203150D02*
X10817682Y-19203150D01*
X10770063Y-19136484D02*
X10770063Y-19307912D01*
X10770063Y-19307912D02*
X10779587Y-19326960D01*
X10779587Y-19326960D02*
X10798634Y-19336484D01*
X10798634Y-19336484D02*
X10817682Y-19336484D01*
X11036730Y-19203150D02*
X11036730Y-19403150D01*
X11036730Y-19212674D02*
X11055777Y-19203150D01*
X11055777Y-19203150D02*
X11093873Y-19203150D01*
X11093873Y-19203150D02*
X11112920Y-19212674D01*
X11112920Y-19212674D02*
X11122444Y-19222198D01*
X11122444Y-19222198D02*
X11131968Y-19241246D01*
X11131968Y-19241246D02*
X11131968Y-19298389D01*
X11131968Y-19298389D02*
X11122444Y-19317436D01*
X11122444Y-19317436D02*
X11112920Y-19326960D01*
X11112920Y-19326960D02*
X11093873Y-19336484D01*
X11093873Y-19336484D02*
X11055777Y-19336484D01*
X11055777Y-19336484D02*
X11036730Y-19326960D01*
X11246253Y-19336484D02*
X11227206Y-19326960D01*
X11227206Y-19326960D02*
X11217682Y-19307912D01*
X11217682Y-19307912D02*
X11217682Y-19136484D01*
X11408158Y-19336484D02*
X11408158Y-19231722D01*
X11408158Y-19231722D02*
X11398634Y-19212674D01*
X11398634Y-19212674D02*
X11379587Y-19203150D01*
X11379587Y-19203150D02*
X11341492Y-19203150D01*
X11341492Y-19203150D02*
X11322444Y-19212674D01*
X11408158Y-19326960D02*
X11389111Y-19336484D01*
X11389111Y-19336484D02*
X11341492Y-19336484D01*
X11341492Y-19336484D02*
X11322444Y-19326960D01*
X11322444Y-19326960D02*
X11312920Y-19307912D01*
X11312920Y-19307912D02*
X11312920Y-19288865D01*
X11312920Y-19288865D02*
X11322444Y-19269817D01*
X11322444Y-19269817D02*
X11341492Y-19260293D01*
X11341492Y-19260293D02*
X11389111Y-19260293D01*
X11389111Y-19260293D02*
X11408158Y-19250770D01*
X11474825Y-19203150D02*
X11551015Y-19203150D01*
X11503396Y-19136484D02*
X11503396Y-19307912D01*
X11503396Y-19307912D02*
X11512920Y-19326960D01*
X11512920Y-19326960D02*
X11531968Y-19336484D01*
X11531968Y-19336484D02*
X11551015Y-19336484D01*
X11693873Y-19326960D02*
X11674825Y-19336484D01*
X11674825Y-19336484D02*
X11636730Y-19336484D01*
X11636730Y-19336484D02*
X11617682Y-19326960D01*
X11617682Y-19326960D02*
X11608158Y-19307912D01*
X11608158Y-19307912D02*
X11608158Y-19231722D01*
X11608158Y-19231722D02*
X11617682Y-19212674D01*
X11617682Y-19212674D02*
X11636730Y-19203150D01*
X11636730Y-19203150D02*
X11674825Y-19203150D01*
X11674825Y-19203150D02*
X11693873Y-19212674D01*
X11693873Y-19212674D02*
X11703396Y-19231722D01*
X11703396Y-19231722D02*
X11703396Y-19250770D01*
X11703396Y-19250770D02*
X11608158Y-19269817D01*
X11874825Y-19336484D02*
X11874825Y-19136484D01*
X11874825Y-19326960D02*
X11855777Y-19336484D01*
X11855777Y-19336484D02*
X11817682Y-19336484D01*
X11817682Y-19336484D02*
X11798634Y-19326960D01*
X11798634Y-19326960D02*
X11789111Y-19317436D01*
X11789111Y-19317436D02*
X11779587Y-19298389D01*
X11779587Y-19298389D02*
X11779587Y-19241246D01*
X11779587Y-19241246D02*
X11789111Y-19222198D01*
X11789111Y-19222198D02*
X11798634Y-19212674D01*
X11798634Y-19212674D02*
X11817682Y-19203150D01*
X11817682Y-19203150D02*
X11855777Y-19203150D01*
X11855777Y-19203150D02*
X11874825Y-19212674D01*
X11951015Y-19412674D02*
X11960539Y-19403150D01*
X11960539Y-19403150D02*
X11979587Y-19374579D01*
X11979587Y-19374579D02*
X11989111Y-19355531D01*
X11989111Y-19355531D02*
X11998634Y-19326960D01*
X11998634Y-19326960D02*
X12008158Y-19279341D01*
X12008158Y-19279341D02*
X12008158Y-19241246D01*
X12008158Y-19241246D02*
X11998634Y-19193627D01*
X11998634Y-19193627D02*
X11989111Y-19165055D01*
X11989111Y-19165055D02*
X11979587Y-19146008D01*
X11979587Y-19146008D02*
X11960539Y-19117436D01*
X11960539Y-19117436D02*
X11951015Y-19107912D01*
X5195000Y-19565000D02*
G75*
G03*
X5195000Y-19565000I-100000J0D01*
G01*
X5541491Y-19456484D02*
X5503396Y-19456484D01*
X5503396Y-19456484D02*
X5484348Y-19466008D01*
X5484348Y-19466008D02*
X5474824Y-19475531D01*
X5474824Y-19475531D02*
X5455777Y-19504103D01*
X5455777Y-19504103D02*
X5446253Y-19542198D01*
X5446253Y-19542198D02*
X5446253Y-19618389D01*
X5446253Y-19618389D02*
X5455777Y-19637436D01*
X5455777Y-19637436D02*
X5465301Y-19646960D01*
X5465301Y-19646960D02*
X5484348Y-19656484D01*
X5484348Y-19656484D02*
X5522444Y-19656484D01*
X5522444Y-19656484D02*
X5541491Y-19646960D01*
X5541491Y-19646960D02*
X5551015Y-19637436D01*
X5551015Y-19637436D02*
X5560539Y-19618389D01*
X5560539Y-19618389D02*
X5560539Y-19570770D01*
X5560539Y-19570770D02*
X5551015Y-19551722D01*
X5551015Y-19551722D02*
X5541491Y-19542198D01*
X5541491Y-19542198D02*
X5522444Y-19532674D01*
X5522444Y-19532674D02*
X5484348Y-19532674D01*
X5484348Y-19532674D02*
X5465301Y-19542198D01*
X5465301Y-19542198D02*
X5455777Y-19551722D01*
X5455777Y-19551722D02*
X5446253Y-19570770D01*
X5646253Y-19637436D02*
X5655777Y-19646960D01*
X5655777Y-19646960D02*
X5646253Y-19656484D01*
X5646253Y-19656484D02*
X5636729Y-19646960D01*
X5636729Y-19646960D02*
X5646253Y-19637436D01*
X5646253Y-19637436D02*
X5646253Y-19656484D01*
X5722443Y-19456484D02*
X5846253Y-19456484D01*
X5846253Y-19456484D02*
X5779586Y-19532674D01*
X5779586Y-19532674D02*
X5808158Y-19532674D01*
X5808158Y-19532674D02*
X5827205Y-19542198D01*
X5827205Y-19542198D02*
X5836729Y-19551722D01*
X5836729Y-19551722D02*
X5846253Y-19570770D01*
X5846253Y-19570770D02*
X5846253Y-19618389D01*
X5846253Y-19618389D02*
X5836729Y-19637436D01*
X5836729Y-19637436D02*
X5827205Y-19646960D01*
X5827205Y-19646960D02*
X5808158Y-19656484D01*
X5808158Y-19656484D02*
X5751015Y-19656484D01*
X5751015Y-19656484D02*
X5731967Y-19646960D01*
X5731967Y-19646960D02*
X5722443Y-19637436D01*
X6027205Y-19456484D02*
X5931967Y-19456484D01*
X5931967Y-19456484D02*
X5922443Y-19551722D01*
X5922443Y-19551722D02*
X5931967Y-19542198D01*
X5931967Y-19542198D02*
X5951015Y-19532674D01*
X5951015Y-19532674D02*
X5998634Y-19532674D01*
X5998634Y-19532674D02*
X6017682Y-19542198D01*
X6017682Y-19542198D02*
X6027205Y-19551722D01*
X6027205Y-19551722D02*
X6036729Y-19570770D01*
X6036729Y-19570770D02*
X6036729Y-19618389D01*
X6036729Y-19618389D02*
X6027205Y-19637436D01*
X6027205Y-19637436D02*
X6017682Y-19646960D01*
X6017682Y-19646960D02*
X5998634Y-19656484D01*
X5998634Y-19656484D02*
X5951015Y-19656484D01*
X5951015Y-19656484D02*
X5931967Y-19646960D01*
X5931967Y-19646960D02*
X5922443Y-19637436D01*
X6160539Y-19456484D02*
X6179586Y-19456484D01*
X6179586Y-19456484D02*
X6198634Y-19466008D01*
X6198634Y-19466008D02*
X6208158Y-19475531D01*
X6208158Y-19475531D02*
X6217682Y-19494579D01*
X6217682Y-19494579D02*
X6227205Y-19532674D01*
X6227205Y-19532674D02*
X6227205Y-19580293D01*
X6227205Y-19580293D02*
X6217682Y-19618389D01*
X6217682Y-19618389D02*
X6208158Y-19637436D01*
X6208158Y-19637436D02*
X6198634Y-19646960D01*
X6198634Y-19646960D02*
X6179586Y-19656484D01*
X6179586Y-19656484D02*
X6160539Y-19656484D01*
X6160539Y-19656484D02*
X6141491Y-19646960D01*
X6141491Y-19646960D02*
X6131967Y-19637436D01*
X6131967Y-19637436D02*
X6122443Y-19618389D01*
X6122443Y-19618389D02*
X6112920Y-19580293D01*
X6112920Y-19580293D02*
X6112920Y-19532674D01*
X6112920Y-19532674D02*
X6122443Y-19494579D01*
X6122443Y-19494579D02*
X6131967Y-19475531D01*
X6131967Y-19475531D02*
X6141491Y-19466008D01*
X6141491Y-19466008D02*
X6160539Y-19456484D01*
X6312920Y-19656484D02*
X6312920Y-19523150D01*
X6312920Y-19542198D02*
X6322443Y-19532674D01*
X6322443Y-19532674D02*
X6341491Y-19523150D01*
X6341491Y-19523150D02*
X6370063Y-19523150D01*
X6370063Y-19523150D02*
X6389110Y-19532674D01*
X6389110Y-19532674D02*
X6398634Y-19551722D01*
X6398634Y-19551722D02*
X6398634Y-19656484D01*
X6398634Y-19551722D02*
X6408158Y-19532674D01*
X6408158Y-19532674D02*
X6427205Y-19523150D01*
X6427205Y-19523150D02*
X6455777Y-19523150D01*
X6455777Y-19523150D02*
X6474824Y-19532674D01*
X6474824Y-19532674D02*
X6484348Y-19551722D01*
X6484348Y-19551722D02*
X6484348Y-19656484D01*
X6579586Y-19656484D02*
X6579586Y-19523150D01*
X6579586Y-19542198D02*
X6589110Y-19532674D01*
X6589110Y-19532674D02*
X6608158Y-19523150D01*
X6608158Y-19523150D02*
X6636729Y-19523150D01*
X6636729Y-19523150D02*
X6655777Y-19532674D01*
X6655777Y-19532674D02*
X6665301Y-19551722D01*
X6665301Y-19551722D02*
X6665301Y-19656484D01*
X6665301Y-19551722D02*
X6674824Y-19532674D01*
X6674824Y-19532674D02*
X6693872Y-19523150D01*
X6693872Y-19523150D02*
X6722443Y-19523150D01*
X6722443Y-19523150D02*
X6741491Y-19532674D01*
X6741491Y-19532674D02*
X6751015Y-19551722D01*
X6751015Y-19551722D02*
X6751015Y-19656484D01*
X7141491Y-19446960D02*
X6970063Y-19704103D01*
X7398634Y-19456484D02*
X7417682Y-19456484D01*
X7417682Y-19456484D02*
X7436729Y-19466008D01*
X7436729Y-19466008D02*
X7446253Y-19475531D01*
X7446253Y-19475531D02*
X7455777Y-19494579D01*
X7455777Y-19494579D02*
X7465301Y-19532674D01*
X7465301Y-19532674D02*
X7465301Y-19580293D01*
X7465301Y-19580293D02*
X7455777Y-19618389D01*
X7455777Y-19618389D02*
X7446253Y-19637436D01*
X7446253Y-19637436D02*
X7436729Y-19646960D01*
X7436729Y-19646960D02*
X7417682Y-19656484D01*
X7417682Y-19656484D02*
X7398634Y-19656484D01*
X7398634Y-19656484D02*
X7379586Y-19646960D01*
X7379586Y-19646960D02*
X7370063Y-19637436D01*
X7370063Y-19637436D02*
X7360539Y-19618389D01*
X7360539Y-19618389D02*
X7351015Y-19580293D01*
X7351015Y-19580293D02*
X7351015Y-19532674D01*
X7351015Y-19532674D02*
X7360539Y-19494579D01*
X7360539Y-19494579D02*
X7370063Y-19475531D01*
X7370063Y-19475531D02*
X7379586Y-19466008D01*
X7379586Y-19466008D02*
X7398634Y-19456484D01*
X7551015Y-19637436D02*
X7560539Y-19646960D01*
X7560539Y-19646960D02*
X7551015Y-19656484D01*
X7551015Y-19656484D02*
X7541491Y-19646960D01*
X7541491Y-19646960D02*
X7551015Y-19637436D01*
X7551015Y-19637436D02*
X7551015Y-19656484D01*
X7636729Y-19475531D02*
X7646253Y-19466008D01*
X7646253Y-19466008D02*
X7665301Y-19456484D01*
X7665301Y-19456484D02*
X7712920Y-19456484D01*
X7712920Y-19456484D02*
X7731967Y-19466008D01*
X7731967Y-19466008D02*
X7741491Y-19475531D01*
X7741491Y-19475531D02*
X7751015Y-19494579D01*
X7751015Y-19494579D02*
X7751015Y-19513627D01*
X7751015Y-19513627D02*
X7741491Y-19542198D01*
X7741491Y-19542198D02*
X7627206Y-19656484D01*
X7627206Y-19656484D02*
X7751015Y-19656484D01*
X7931967Y-19456484D02*
X7836729Y-19456484D01*
X7836729Y-19456484D02*
X7827206Y-19551722D01*
X7827206Y-19551722D02*
X7836729Y-19542198D01*
X7836729Y-19542198D02*
X7855777Y-19532674D01*
X7855777Y-19532674D02*
X7903396Y-19532674D01*
X7903396Y-19532674D02*
X7922444Y-19542198D01*
X7922444Y-19542198D02*
X7931967Y-19551722D01*
X7931967Y-19551722D02*
X7941491Y-19570770D01*
X7941491Y-19570770D02*
X7941491Y-19618389D01*
X7941491Y-19618389D02*
X7931967Y-19637436D01*
X7931967Y-19637436D02*
X7922444Y-19646960D01*
X7922444Y-19646960D02*
X7903396Y-19656484D01*
X7903396Y-19656484D02*
X7855777Y-19656484D01*
X7855777Y-19656484D02*
X7836729Y-19646960D01*
X7836729Y-19646960D02*
X7827206Y-19637436D01*
X8065301Y-19456484D02*
X8084348Y-19456484D01*
X8084348Y-19456484D02*
X8103396Y-19466008D01*
X8103396Y-19466008D02*
X8112920Y-19475531D01*
X8112920Y-19475531D02*
X8122444Y-19494579D01*
X8122444Y-19494579D02*
X8131967Y-19532674D01*
X8131967Y-19532674D02*
X8131967Y-19580293D01*
X8131967Y-19580293D02*
X8122444Y-19618389D01*
X8122444Y-19618389D02*
X8112920Y-19637436D01*
X8112920Y-19637436D02*
X8103396Y-19646960D01*
X8103396Y-19646960D02*
X8084348Y-19656484D01*
X8084348Y-19656484D02*
X8065301Y-19656484D01*
X8065301Y-19656484D02*
X8046253Y-19646960D01*
X8046253Y-19646960D02*
X8036729Y-19637436D01*
X8036729Y-19637436D02*
X8027206Y-19618389D01*
X8027206Y-19618389D02*
X8017682Y-19580293D01*
X8017682Y-19580293D02*
X8017682Y-19532674D01*
X8017682Y-19532674D02*
X8027206Y-19494579D01*
X8027206Y-19494579D02*
X8036729Y-19475531D01*
X8036729Y-19475531D02*
X8046253Y-19466008D01*
X8046253Y-19466008D02*
X8065301Y-19456484D01*
X8255777Y-19456484D02*
X8274825Y-19456484D01*
X8274825Y-19456484D02*
X8293872Y-19466008D01*
X8293872Y-19466008D02*
X8303396Y-19475531D01*
X8303396Y-19475531D02*
X8312920Y-19494579D01*
X8312920Y-19494579D02*
X8322444Y-19532674D01*
X8322444Y-19532674D02*
X8322444Y-19580293D01*
X8322444Y-19580293D02*
X8312920Y-19618389D01*
X8312920Y-19618389D02*
X8303396Y-19637436D01*
X8303396Y-19637436D02*
X8293872Y-19646960D01*
X8293872Y-19646960D02*
X8274825Y-19656484D01*
X8274825Y-19656484D02*
X8255777Y-19656484D01*
X8255777Y-19656484D02*
X8236729Y-19646960D01*
X8236729Y-19646960D02*
X8227206Y-19637436D01*
X8227206Y-19637436D02*
X8217682Y-19618389D01*
X8217682Y-19618389D02*
X8208158Y-19580293D01*
X8208158Y-19580293D02*
X8208158Y-19532674D01*
X8208158Y-19532674D02*
X8217682Y-19494579D01*
X8217682Y-19494579D02*
X8227206Y-19475531D01*
X8227206Y-19475531D02*
X8236729Y-19466008D01*
X8236729Y-19466008D02*
X8255777Y-19456484D01*
X8398634Y-19456484D02*
X8398634Y-19494579D01*
X8474825Y-19456484D02*
X8474825Y-19494579D01*
X8770063Y-19732674D02*
X8760539Y-19723150D01*
X8760539Y-19723150D02*
X8741491Y-19694579D01*
X8741491Y-19694579D02*
X8731968Y-19675531D01*
X8731968Y-19675531D02*
X8722444Y-19646960D01*
X8722444Y-19646960D02*
X8712920Y-19599341D01*
X8712920Y-19599341D02*
X8712920Y-19561246D01*
X8712920Y-19561246D02*
X8722444Y-19513627D01*
X8722444Y-19513627D02*
X8731968Y-19485055D01*
X8731968Y-19485055D02*
X8741491Y-19466008D01*
X8741491Y-19466008D02*
X8760539Y-19437436D01*
X8760539Y-19437436D02*
X8770063Y-19427912D01*
X8931968Y-19456484D02*
X8893872Y-19456484D01*
X8893872Y-19456484D02*
X8874825Y-19466008D01*
X8874825Y-19466008D02*
X8865301Y-19475531D01*
X8865301Y-19475531D02*
X8846253Y-19504103D01*
X8846253Y-19504103D02*
X8836730Y-19542198D01*
X8836730Y-19542198D02*
X8836730Y-19618389D01*
X8836730Y-19618389D02*
X8846253Y-19637436D01*
X8846253Y-19637436D02*
X8855777Y-19646960D01*
X8855777Y-19646960D02*
X8874825Y-19656484D01*
X8874825Y-19656484D02*
X8912920Y-19656484D01*
X8912920Y-19656484D02*
X8931968Y-19646960D01*
X8931968Y-19646960D02*
X8941491Y-19637436D01*
X8941491Y-19637436D02*
X8951015Y-19618389D01*
X8951015Y-19618389D02*
X8951015Y-19570770D01*
X8951015Y-19570770D02*
X8941491Y-19551722D01*
X8941491Y-19551722D02*
X8931968Y-19542198D01*
X8931968Y-19542198D02*
X8912920Y-19532674D01*
X8912920Y-19532674D02*
X8874825Y-19532674D01*
X8874825Y-19532674D02*
X8855777Y-19542198D01*
X8855777Y-19542198D02*
X8846253Y-19551722D01*
X8846253Y-19551722D02*
X8836730Y-19570770D01*
X9189111Y-19656484D02*
X9189111Y-19456484D01*
X9274825Y-19656484D02*
X9274825Y-19551722D01*
X9274825Y-19551722D02*
X9265301Y-19532674D01*
X9265301Y-19532674D02*
X9246253Y-19523150D01*
X9246253Y-19523150D02*
X9217682Y-19523150D01*
X9217682Y-19523150D02*
X9198634Y-19532674D01*
X9198634Y-19532674D02*
X9189111Y-19542198D01*
X9398634Y-19656484D02*
X9379587Y-19646960D01*
X9379587Y-19646960D02*
X9370063Y-19637436D01*
X9370063Y-19637436D02*
X9360539Y-19618389D01*
X9360539Y-19618389D02*
X9360539Y-19561246D01*
X9360539Y-19561246D02*
X9370063Y-19542198D01*
X9370063Y-19542198D02*
X9379587Y-19532674D01*
X9379587Y-19532674D02*
X9398634Y-19523150D01*
X9398634Y-19523150D02*
X9427206Y-19523150D01*
X9427206Y-19523150D02*
X9446253Y-19532674D01*
X9446253Y-19532674D02*
X9455777Y-19542198D01*
X9455777Y-19542198D02*
X9465301Y-19561246D01*
X9465301Y-19561246D02*
X9465301Y-19618389D01*
X9465301Y-19618389D02*
X9455777Y-19637436D01*
X9455777Y-19637436D02*
X9446253Y-19646960D01*
X9446253Y-19646960D02*
X9427206Y-19656484D01*
X9427206Y-19656484D02*
X9398634Y-19656484D01*
X9579587Y-19656484D02*
X9560539Y-19646960D01*
X9560539Y-19646960D02*
X9551015Y-19627912D01*
X9551015Y-19627912D02*
X9551015Y-19456484D01*
X9731968Y-19646960D02*
X9712920Y-19656484D01*
X9712920Y-19656484D02*
X9674825Y-19656484D01*
X9674825Y-19656484D02*
X9655777Y-19646960D01*
X9655777Y-19646960D02*
X9646253Y-19627912D01*
X9646253Y-19627912D02*
X9646253Y-19551722D01*
X9646253Y-19551722D02*
X9655777Y-19532674D01*
X9655777Y-19532674D02*
X9674825Y-19523150D01*
X9674825Y-19523150D02*
X9712920Y-19523150D01*
X9712920Y-19523150D02*
X9731968Y-19532674D01*
X9731968Y-19532674D02*
X9741492Y-19551722D01*
X9741492Y-19551722D02*
X9741492Y-19570770D01*
X9741492Y-19570770D02*
X9646253Y-19589817D01*
X9817682Y-19646960D02*
X9836730Y-19656484D01*
X9836730Y-19656484D02*
X9874825Y-19656484D01*
X9874825Y-19656484D02*
X9893873Y-19646960D01*
X9893873Y-19646960D02*
X9903396Y-19627912D01*
X9903396Y-19627912D02*
X9903396Y-19618389D01*
X9903396Y-19618389D02*
X9893873Y-19599341D01*
X9893873Y-19599341D02*
X9874825Y-19589817D01*
X9874825Y-19589817D02*
X9846253Y-19589817D01*
X9846253Y-19589817D02*
X9827206Y-19580293D01*
X9827206Y-19580293D02*
X9817682Y-19561246D01*
X9817682Y-19561246D02*
X9817682Y-19551722D01*
X9817682Y-19551722D02*
X9827206Y-19532674D01*
X9827206Y-19532674D02*
X9846253Y-19523150D01*
X9846253Y-19523150D02*
X9874825Y-19523150D01*
X9874825Y-19523150D02*
X9893873Y-19532674D01*
X9970063Y-19732674D02*
X9979587Y-19723150D01*
X9979587Y-19723150D02*
X9998634Y-19694579D01*
X9998634Y-19694579D02*
X10008158Y-19675531D01*
X10008158Y-19675531D02*
X10017682Y-19646960D01*
X10017682Y-19646960D02*
X10027206Y-19599341D01*
X10027206Y-19599341D02*
X10027206Y-19561246D01*
X10027206Y-19561246D02*
X10017682Y-19513627D01*
X10017682Y-19513627D02*
X10008158Y-19485055D01*
X10008158Y-19485055D02*
X9998634Y-19466008D01*
X9998634Y-19466008D02*
X9979587Y-19437436D01*
X9979587Y-19437436D02*
X9970063Y-19427912D01*
X10331968Y-19732674D02*
X10322444Y-19723150D01*
X10322444Y-19723150D02*
X10303396Y-19694579D01*
X10303396Y-19694579D02*
X10293873Y-19675531D01*
X10293873Y-19675531D02*
X10284349Y-19646960D01*
X10284349Y-19646960D02*
X10274825Y-19599341D01*
X10274825Y-19599341D02*
X10274825Y-19561246D01*
X10274825Y-19561246D02*
X10284349Y-19513627D01*
X10284349Y-19513627D02*
X10293873Y-19485055D01*
X10293873Y-19485055D02*
X10303396Y-19466008D01*
X10303396Y-19466008D02*
X10322444Y-19437436D01*
X10322444Y-19437436D02*
X10331968Y-19427912D01*
X10408158Y-19523150D02*
X10408158Y-19656484D01*
X10408158Y-19542198D02*
X10417682Y-19532674D01*
X10417682Y-19532674D02*
X10436730Y-19523150D01*
X10436730Y-19523150D02*
X10465301Y-19523150D01*
X10465301Y-19523150D02*
X10484349Y-19532674D01*
X10484349Y-19532674D02*
X10493873Y-19551722D01*
X10493873Y-19551722D02*
X10493873Y-19656484D01*
X10617682Y-19656484D02*
X10598634Y-19646960D01*
X10598634Y-19646960D02*
X10589111Y-19637436D01*
X10589111Y-19637436D02*
X10579587Y-19618389D01*
X10579587Y-19618389D02*
X10579587Y-19561246D01*
X10579587Y-19561246D02*
X10589111Y-19542198D01*
X10589111Y-19542198D02*
X10598634Y-19532674D01*
X10598634Y-19532674D02*
X10617682Y-19523150D01*
X10617682Y-19523150D02*
X10646254Y-19523150D01*
X10646254Y-19523150D02*
X10665301Y-19532674D01*
X10665301Y-19532674D02*
X10674825Y-19542198D01*
X10674825Y-19542198D02*
X10684349Y-19561246D01*
X10684349Y-19561246D02*
X10684349Y-19618389D01*
X10684349Y-19618389D02*
X10674825Y-19637436D01*
X10674825Y-19637436D02*
X10665301Y-19646960D01*
X10665301Y-19646960D02*
X10646254Y-19656484D01*
X10646254Y-19656484D02*
X10617682Y-19656484D01*
X10741492Y-19523150D02*
X10817682Y-19523150D01*
X10770063Y-19456484D02*
X10770063Y-19627912D01*
X10770063Y-19627912D02*
X10779587Y-19646960D01*
X10779587Y-19646960D02*
X10798634Y-19656484D01*
X10798634Y-19656484D02*
X10817682Y-19656484D01*
X11036730Y-19523150D02*
X11036730Y-19723150D01*
X11036730Y-19532674D02*
X11055777Y-19523150D01*
X11055777Y-19523150D02*
X11093873Y-19523150D01*
X11093873Y-19523150D02*
X11112920Y-19532674D01*
X11112920Y-19532674D02*
X11122444Y-19542198D01*
X11122444Y-19542198D02*
X11131968Y-19561246D01*
X11131968Y-19561246D02*
X11131968Y-19618389D01*
X11131968Y-19618389D02*
X11122444Y-19637436D01*
X11122444Y-19637436D02*
X11112920Y-19646960D01*
X11112920Y-19646960D02*
X11093873Y-19656484D01*
X11093873Y-19656484D02*
X11055777Y-19656484D01*
X11055777Y-19656484D02*
X11036730Y-19646960D01*
X11246253Y-19656484D02*
X11227206Y-19646960D01*
X11227206Y-19646960D02*
X11217682Y-19627912D01*
X11217682Y-19627912D02*
X11217682Y-19456484D01*
X11408158Y-19656484D02*
X11408158Y-19551722D01*
X11408158Y-19551722D02*
X11398634Y-19532674D01*
X11398634Y-19532674D02*
X11379587Y-19523150D01*
X11379587Y-19523150D02*
X11341492Y-19523150D01*
X11341492Y-19523150D02*
X11322444Y-19532674D01*
X11408158Y-19646960D02*
X11389111Y-19656484D01*
X11389111Y-19656484D02*
X11341492Y-19656484D01*
X11341492Y-19656484D02*
X11322444Y-19646960D01*
X11322444Y-19646960D02*
X11312920Y-19627912D01*
X11312920Y-19627912D02*
X11312920Y-19608865D01*
X11312920Y-19608865D02*
X11322444Y-19589817D01*
X11322444Y-19589817D02*
X11341492Y-19580293D01*
X11341492Y-19580293D02*
X11389111Y-19580293D01*
X11389111Y-19580293D02*
X11408158Y-19570770D01*
X11474825Y-19523150D02*
X11551015Y-19523150D01*
X11503396Y-19456484D02*
X11503396Y-19627912D01*
X11503396Y-19627912D02*
X11512920Y-19646960D01*
X11512920Y-19646960D02*
X11531968Y-19656484D01*
X11531968Y-19656484D02*
X11551015Y-19656484D01*
X11693873Y-19646960D02*
X11674825Y-19656484D01*
X11674825Y-19656484D02*
X11636730Y-19656484D01*
X11636730Y-19656484D02*
X11617682Y-19646960D01*
X11617682Y-19646960D02*
X11608158Y-19627912D01*
X11608158Y-19627912D02*
X11608158Y-19551722D01*
X11608158Y-19551722D02*
X11617682Y-19532674D01*
X11617682Y-19532674D02*
X11636730Y-19523150D01*
X11636730Y-19523150D02*
X11674825Y-19523150D01*
X11674825Y-19523150D02*
X11693873Y-19532674D01*
X11693873Y-19532674D02*
X11703396Y-19551722D01*
X11703396Y-19551722D02*
X11703396Y-19570770D01*
X11703396Y-19570770D02*
X11608158Y-19589817D01*
X11874825Y-19656484D02*
X11874825Y-19456484D01*
X11874825Y-19646960D02*
X11855777Y-19656484D01*
X11855777Y-19656484D02*
X11817682Y-19656484D01*
X11817682Y-19656484D02*
X11798634Y-19646960D01*
X11798634Y-19646960D02*
X11789111Y-19637436D01*
X11789111Y-19637436D02*
X11779587Y-19618389D01*
X11779587Y-19618389D02*
X11779587Y-19561246D01*
X11779587Y-19561246D02*
X11789111Y-19542198D01*
X11789111Y-19542198D02*
X11798634Y-19532674D01*
X11798634Y-19532674D02*
X11817682Y-19523150D01*
X11817682Y-19523150D02*
X11855777Y-19523150D01*
X11855777Y-19523150D02*
X11874825Y-19532674D01*
X11951015Y-19732674D02*
X11960539Y-19723150D01*
X11960539Y-19723150D02*
X11979587Y-19694579D01*
X11979587Y-19694579D02*
X11989111Y-19675531D01*
X11989111Y-19675531D02*
X11998634Y-19646960D01*
X11998634Y-19646960D02*
X12008158Y-19599341D01*
X12008158Y-19599341D02*
X12008158Y-19561246D01*
X12008158Y-19561246D02*
X11998634Y-19513627D01*
X11998634Y-19513627D02*
X11989111Y-19485055D01*
X11989111Y-19485055D02*
X11979587Y-19466008D01*
X11979587Y-19466008D02*
X11960539Y-19437436D01*
X11960539Y-19437436D02*
X11951015Y-19427912D01*
M02*
