G04 #@! TF.GenerationSoftware,KiCad,Pcbnew,7.0.7*
G04 #@! TF.CreationDate,2024-06-25T14:53:43-04:00*
G04 #@! TF.ProjectId,AOML_AB_3.0_reorganized-v3,414f4d4c-5f41-4425-9f33-2e305f72656f,3*
G04 #@! TF.SameCoordinates,Original*
G04 #@! TF.FileFunction,Paste,Top*
G04 #@! TF.FilePolarity,Positive*
%FSLAX46Y46*%
G04 Gerber Fmt 4.6, Leading zero omitted, Abs format (unit mm)*
G04 Created by KiCad (PCBNEW 7.0.7) date 2024-06-25 14:53:43*
%MOMM*%
%LPD*%
G01*
G04 APERTURE LIST*
G04 Aperture macros list*
%AMRoundRect*
0 Rectangle with rounded corners*
0 $1 Rounding radius*
0 $2 $3 $4 $5 $6 $7 $8 $9 X,Y pos of 4 corners*
0 Add a 4 corners polygon primitive as box body*
4,1,4,$2,$3,$4,$5,$6,$7,$8,$9,$2,$3,0*
0 Add four circle primitives for the rounded corners*
1,1,$1+$1,$2,$3*
1,1,$1+$1,$4,$5*
1,1,$1+$1,$6,$7*
1,1,$1+$1,$8,$9*
0 Add four rect primitives between the rounded corners*
20,1,$1+$1,$2,$3,$4,$5,0*
20,1,$1+$1,$4,$5,$6,$7,0*
20,1,$1+$1,$6,$7,$8,$9,0*
20,1,$1+$1,$8,$9,$2,$3,0*%
G04 Aperture macros list end*
%ADD10R,0.855600X1.250000*%
%ADD11R,1.016000X1.219200*%
%ADD12R,1.200000X0.800000*%
%ADD13R,0.508000X1.473200*%
%ADD14R,0.650001X0.399999*%
%ADD15R,1.305598X1.449997*%
%ADD16RoundRect,0.150000X-0.512500X-0.150000X0.512500X-0.150000X0.512500X0.150000X-0.512500X0.150000X0*%
%ADD17R,2.000000X1.500000*%
%ADD18R,2.000000X3.800000*%
%ADD19R,1.100000X1.380000*%
%ADD20R,1.778000X3.505200*%
%ADD21O,1.250000X0.549999*%
%ADD22R,1.066800X1.346200*%
%ADD23R,1.525000X0.650000*%
%ADD24R,3.440000X1.460000*%
%ADD25R,1.210000X0.730000*%
%ADD26R,1.193800X0.304800*%
%ADD27R,0.304800X1.193800*%
%ADD28R,2.311400X2.006600*%
%ADD29R,0.457200X0.812800*%
%ADD30R,1.475000X0.450000*%
%ADD31R,3.100000X5.180000*%
%ADD32R,1.193800X0.508000*%
%ADD33R,0.900000X0.350000*%
%ADD34R,2.184400X1.625600*%
%ADD35R,3.200400X0.939800*%
%ADD36R,8.204200X10.591800*%
%ADD37R,1.200000X0.400000*%
%ADD38RoundRect,0.091500X-0.358500X-0.213500X0.358500X-0.213500X0.358500X0.213500X-0.358500X0.213500X0*%
%ADD39RoundRect,0.068900X-0.381100X-0.196100X0.381100X-0.196100X0.381100X0.196100X-0.381100X0.196100X0*%
%ADD40R,1.549400X0.939800*%
%ADD41R,2.133600X1.498600*%
%ADD42R,0.952500X0.558800*%
%ADD43R,1.168400X1.447800*%
%ADD44R,1.250000X0.855600*%
%ADD45RoundRect,0.100000X-0.637500X-0.100000X0.637500X-0.100000X0.637500X0.100000X-0.637500X0.100000X0*%
G04 APERTURE END LIST*
D10*
X73970000Y-145000000D03*
X75825600Y-145000000D03*
D11*
X276949400Y-122000000D03*
X278651200Y-122000000D03*
D10*
X150000000Y-164500000D03*
X151855600Y-164500000D03*
X316156400Y-153500000D03*
X318012000Y-153500000D03*
D12*
X252650300Y-125730000D03*
X252650300Y-128270000D03*
X258950300Y-128270000D03*
X258950300Y-125730000D03*
D10*
X124572200Y-155725000D03*
X126427800Y-155725000D03*
D13*
X339550001Y-158627100D03*
X340849999Y-158627100D03*
X340200000Y-156772900D03*
D14*
X75675001Y-162649999D03*
X75675001Y-163300000D03*
X75675001Y-163949999D03*
X77725002Y-163949999D03*
X77725002Y-163300000D03*
X77725002Y-162649999D03*
D10*
X202475000Y-141750000D03*
X200619400Y-141750000D03*
D15*
X195802799Y-132000000D03*
X194197201Y-132000000D03*
D11*
X130350900Y-153725000D03*
X128649100Y-153725000D03*
X255265100Y-153425000D03*
X253563300Y-153425000D03*
D16*
X235606800Y-119050000D03*
X235606800Y-120000000D03*
X235606800Y-120950000D03*
X237881800Y-120950000D03*
X237881800Y-119050000D03*
D11*
X341149100Y-107000000D03*
X342850900Y-107000000D03*
D17*
X72350000Y-93200000D03*
X72350000Y-95500000D03*
D18*
X78650000Y-95500000D03*
D17*
X72350000Y-97800000D03*
D10*
X102644400Y-154500000D03*
X104500000Y-154500000D03*
D11*
X341050900Y-166100000D03*
X339349100Y-166100000D03*
X124576900Y-160842600D03*
X126278700Y-160842600D03*
X154076900Y-161000000D03*
X155778700Y-161000000D03*
D10*
X234072200Y-131000000D03*
X235927800Y-131000000D03*
D11*
X285412900Y-152275000D03*
X283711100Y-152275000D03*
X314435100Y-153500000D03*
X312733300Y-153500000D03*
X95149100Y-161000000D03*
X96850900Y-161000000D03*
D10*
X241072200Y-120000000D03*
X242927800Y-120000000D03*
X199547200Y-124250000D03*
X201402800Y-124250000D03*
D19*
X68887000Y-102000000D03*
X70613000Y-102000000D03*
D10*
X222915200Y-155550000D03*
X224770800Y-155550000D03*
X283634200Y-154275000D03*
X285489800Y-154275000D03*
D11*
X151437100Y-122000000D03*
X153138900Y-122000000D03*
D20*
X352116200Y-151500000D03*
X346883800Y-151500000D03*
D11*
X217798200Y-160550000D03*
X219500000Y-160550000D03*
D21*
X209874999Y-104055000D03*
X209874999Y-105325000D03*
X209874999Y-106595000D03*
X209874999Y-107865000D03*
X209874999Y-109135000D03*
X209874999Y-110405000D03*
X209874999Y-111675000D03*
X209874999Y-112945000D03*
X215124999Y-112945000D03*
X215124999Y-111675000D03*
X215124999Y-110405000D03*
X215124999Y-109135000D03*
X215124999Y-107865000D03*
X215124999Y-106595000D03*
X215124999Y-105325000D03*
X215124999Y-104055000D03*
D11*
X184076900Y-160925000D03*
X185778700Y-160925000D03*
D22*
X240123700Y-131000000D03*
X241876300Y-131000000D03*
D23*
X138576000Y-119555000D03*
X138576000Y-120825000D03*
X138576000Y-122095000D03*
X138576000Y-123365000D03*
X138576000Y-124635000D03*
X138576000Y-125905000D03*
X138576000Y-127175000D03*
X138576000Y-128445000D03*
X144000000Y-128445000D03*
X144000000Y-127175000D03*
X144000000Y-125905000D03*
X144000000Y-124635000D03*
X144000000Y-123365000D03*
X144000000Y-122095000D03*
X144000000Y-120825000D03*
X144000000Y-119555000D03*
D10*
X179441600Y-115832200D03*
X181297200Y-115832200D03*
D11*
X341149100Y-104000000D03*
X342850900Y-104000000D03*
D10*
X304500000Y-164000000D03*
X306355600Y-164000000D03*
X154072200Y-156000000D03*
X155927800Y-156000000D03*
X249486400Y-155425000D03*
X251342000Y-155425000D03*
D11*
X95149100Y-164500000D03*
X96850900Y-164500000D03*
X308576900Y-160600000D03*
X310278700Y-160600000D03*
D12*
X127426000Y-125730000D03*
X127426000Y-128270000D03*
X133726000Y-128270000D03*
X133726000Y-125730000D03*
D24*
X64700000Y-168326000D03*
X64700000Y-162474000D03*
D25*
X81275000Y-167800000D03*
X84635000Y-167800000D03*
D10*
X287134200Y-152275000D03*
X288989800Y-152275000D03*
D26*
X200250001Y-129250000D03*
X200250001Y-129749999D03*
X200250001Y-130250000D03*
X200250001Y-130749999D03*
X200250001Y-131250001D03*
X200250001Y-131750000D03*
X200250001Y-132249999D03*
X200250001Y-132750000D03*
X200250001Y-133250000D03*
X200250001Y-133750001D03*
X200250001Y-134250000D03*
X200250001Y-134749999D03*
X200250001Y-135250001D03*
X200250001Y-135750000D03*
X200250001Y-136250001D03*
X200250001Y-136750000D03*
D27*
X202250000Y-138749999D03*
X202749999Y-138749999D03*
X203250000Y-138749999D03*
X203749999Y-138749999D03*
X204250001Y-138749999D03*
X204750000Y-138749999D03*
X205249999Y-138749999D03*
X205750000Y-138749999D03*
X206250000Y-138749999D03*
X206750001Y-138749999D03*
X207250000Y-138749999D03*
X207749999Y-138749999D03*
X208250001Y-138749999D03*
X208750000Y-138749999D03*
X209250001Y-138749999D03*
X209750000Y-138749999D03*
D26*
X211749999Y-136750000D03*
X211749999Y-136250001D03*
X211749999Y-135750000D03*
X211749999Y-135250001D03*
X211749999Y-134749999D03*
X211749999Y-134250000D03*
X211749999Y-133750001D03*
X211749999Y-133250000D03*
X211749999Y-132750000D03*
X211749999Y-132249999D03*
X211749999Y-131750000D03*
X211749999Y-131250001D03*
X211749999Y-130749999D03*
X211749999Y-130250000D03*
X211749999Y-129749999D03*
X211749999Y-129250000D03*
D27*
X209750000Y-127250001D03*
X209250001Y-127250001D03*
X208750000Y-127250001D03*
X208250001Y-127250001D03*
X207749999Y-127250001D03*
X207250000Y-127250001D03*
X206750001Y-127250001D03*
X206250000Y-127250001D03*
X205750000Y-127250001D03*
X205249999Y-127250001D03*
X204750000Y-127250001D03*
X204250001Y-127250001D03*
X203749999Y-127250001D03*
X203250000Y-127250001D03*
X202749999Y-127250001D03*
X202250000Y-127250001D03*
D10*
X192644450Y-153925000D03*
X194500050Y-153925000D03*
D28*
X187201800Y-130500000D03*
X183798200Y-130500000D03*
D10*
X218915200Y-155550000D03*
X220770800Y-155550000D03*
D12*
X149138000Y-116730000D03*
X149138000Y-119270000D03*
X155438000Y-119270000D03*
X155438000Y-116730000D03*
D10*
X194330600Y-136000000D03*
X192475000Y-136000000D03*
D12*
X274645000Y-116730000D03*
X274645000Y-119270000D03*
X280945000Y-119270000D03*
X280945000Y-116730000D03*
D10*
X128572200Y-155725000D03*
X130427800Y-155725000D03*
X237072200Y-141000000D03*
X238927800Y-141000000D03*
X229072200Y-137000000D03*
X230927800Y-137000000D03*
X120500000Y-164225000D03*
X122355600Y-164225000D03*
D12*
X252645000Y-116730000D03*
X252645000Y-119270000D03*
X258945000Y-119270000D03*
X258945000Y-116730000D03*
D10*
X257058600Y-153425000D03*
X258914200Y-153425000D03*
D21*
X198750000Y-104150000D03*
X198750000Y-105420000D03*
X198750000Y-106690000D03*
X198750000Y-107960000D03*
X198750000Y-109230000D03*
X198750000Y-110500000D03*
X198750000Y-111770000D03*
X198750000Y-113040000D03*
X204000000Y-113040000D03*
X204000000Y-111770000D03*
X204000000Y-110500000D03*
X204000000Y-109230000D03*
X204000000Y-107960000D03*
X204000000Y-106690000D03*
X204000000Y-105420000D03*
X204000000Y-104150000D03*
D29*
X80609700Y-145000000D03*
X79466700Y-145000000D03*
D11*
X218721300Y-164050000D03*
X220423100Y-164050000D03*
X190850950Y-153925000D03*
X189149150Y-153925000D03*
D10*
X279634200Y-154275000D03*
X281489800Y-154275000D03*
D11*
X151437100Y-131000000D03*
X153138900Y-131000000D03*
D15*
X195802799Y-129000000D03*
X194197201Y-129000000D03*
D11*
X86168500Y-145000000D03*
X84466700Y-145000000D03*
D10*
X308656400Y-155500000D03*
X310512000Y-155500000D03*
D11*
X184721300Y-164425000D03*
X186423100Y-164425000D03*
D30*
X259562000Y-156775000D03*
X259562000Y-157425000D03*
X259562000Y-158075000D03*
X259562000Y-158725000D03*
X259562000Y-159375000D03*
X259562000Y-160025000D03*
X259562000Y-160675000D03*
X259562000Y-161325000D03*
X259562000Y-161975000D03*
X259562000Y-162625000D03*
X259562000Y-163275000D03*
X259562000Y-163925000D03*
X259562000Y-164575000D03*
X259562000Y-165225000D03*
X265438000Y-165225000D03*
X265438000Y-164575000D03*
X265438000Y-163925000D03*
X265438000Y-163275000D03*
X265438000Y-162625000D03*
X265438000Y-161975000D03*
X265438000Y-161325000D03*
X265438000Y-160675000D03*
X265438000Y-160025000D03*
X265438000Y-159375000D03*
X265438000Y-158725000D03*
X265438000Y-158075000D03*
X265438000Y-157425000D03*
X265438000Y-156775000D03*
D31*
X262500000Y-161000000D03*
D10*
X99000000Y-156500000D03*
X100855600Y-156500000D03*
X194330600Y-138250000D03*
X192475000Y-138250000D03*
X230855600Y-134000000D03*
X229000000Y-134000000D03*
D32*
X140250000Y-136099998D03*
X140250000Y-137049999D03*
X140250000Y-138000000D03*
X143171000Y-138000000D03*
X143171000Y-136099998D03*
D33*
X200524999Y-98940000D03*
X200524999Y-99580000D03*
X200524999Y-100220000D03*
X200524999Y-100860000D03*
X200524999Y-101500000D03*
X202224999Y-101500000D03*
X202224999Y-100220000D03*
X202224999Y-100860000D03*
X202224999Y-99580000D03*
X202224999Y-98940000D03*
D10*
X245423100Y-163925000D03*
X247278700Y-163925000D03*
X68670000Y-142840000D03*
X70525600Y-142840000D03*
X158144400Y-156000000D03*
X160000000Y-156000000D03*
X95072200Y-156500000D03*
X96927800Y-156500000D03*
D30*
X105062000Y-157775000D03*
X105062000Y-158425000D03*
X105062000Y-159075000D03*
X105062000Y-159725000D03*
X105062000Y-160375000D03*
X105062000Y-161025000D03*
X105062000Y-161675000D03*
X105062000Y-162325000D03*
X105062000Y-162975000D03*
X105062000Y-163625000D03*
X105062000Y-164275000D03*
X105062000Y-164925000D03*
X105062000Y-165575000D03*
X105062000Y-166225000D03*
X110938000Y-166225000D03*
X110938000Y-165575000D03*
X110938000Y-164925000D03*
X110938000Y-164275000D03*
X110938000Y-163625000D03*
X110938000Y-162975000D03*
X110938000Y-162325000D03*
X110938000Y-161675000D03*
X110938000Y-161025000D03*
X110938000Y-160375000D03*
X110938000Y-159725000D03*
X110938000Y-159075000D03*
X110938000Y-158425000D03*
X110938000Y-157775000D03*
D31*
X108000000Y-162000000D03*
D34*
X81854200Y-133000000D03*
X78145800Y-133000000D03*
D11*
X254944100Y-122000000D03*
X256645900Y-122000000D03*
D10*
X213047200Y-126250000D03*
X214902800Y-126250000D03*
D17*
X164277800Y-135950000D03*
X164277800Y-138250000D03*
D18*
X170577800Y-138250000D03*
D17*
X164277800Y-140550000D03*
D11*
X249500000Y-163925000D03*
X251201800Y-163925000D03*
D23*
X264083000Y-119555000D03*
X264083000Y-120825000D03*
X264083000Y-122095000D03*
X264083000Y-123365000D03*
X264083000Y-124635000D03*
X264083000Y-125905000D03*
X264083000Y-127175000D03*
X264083000Y-128445000D03*
X269507000Y-128445000D03*
X269507000Y-127175000D03*
X269507000Y-125905000D03*
X269507000Y-124635000D03*
X269507000Y-123365000D03*
X269507000Y-122095000D03*
X269507000Y-120825000D03*
X269507000Y-119555000D03*
D11*
X129725100Y-131000000D03*
X131426900Y-131000000D03*
D30*
X229000000Y-156900000D03*
X229000000Y-157550000D03*
X229000000Y-158200000D03*
X229000000Y-158850000D03*
X229000000Y-159500000D03*
X229000000Y-160150000D03*
X229000000Y-160800000D03*
X229000000Y-161450000D03*
X229000000Y-162100000D03*
X229000000Y-162750000D03*
X229000000Y-163400000D03*
X229000000Y-164050000D03*
X229000000Y-164700000D03*
X229000000Y-165350000D03*
X234876000Y-165350000D03*
X234876000Y-164700000D03*
X234876000Y-164050000D03*
X234876000Y-163400000D03*
X234876000Y-162750000D03*
X234876000Y-162100000D03*
X234876000Y-161450000D03*
X234876000Y-160800000D03*
X234876000Y-160150000D03*
X234876000Y-159500000D03*
X234876000Y-158850000D03*
X234876000Y-158200000D03*
X234876000Y-157550000D03*
X234876000Y-156900000D03*
D31*
X231938000Y-161125000D03*
D11*
X159923100Y-154000000D03*
X158221300Y-154000000D03*
D35*
X72876500Y-154080000D03*
D36*
X60443200Y-151540000D03*
D35*
X72876500Y-149000000D03*
D10*
X226415200Y-153550000D03*
X228270800Y-153550000D03*
D37*
X252000000Y-138450000D03*
X252000000Y-139100000D03*
X252000000Y-139750000D03*
X253900000Y-139750000D03*
X253900000Y-139100000D03*
X253900000Y-138450000D03*
D38*
X140723000Y-114315000D03*
D39*
X140723000Y-115155000D03*
X140723000Y-115955000D03*
D38*
X140723000Y-116795000D03*
X142493000Y-116795000D03*
D39*
X142493000Y-115955000D03*
X142493000Y-115155000D03*
D38*
X142493000Y-114315000D03*
D29*
X167356300Y-123000000D03*
X168499300Y-123000000D03*
D11*
X341149100Y-129000000D03*
X342850900Y-129000000D03*
X276944100Y-131000000D03*
X278645900Y-131000000D03*
D10*
X91072200Y-164500000D03*
X92927800Y-164500000D03*
D11*
X131350900Y-139750000D03*
X129649100Y-139750000D03*
D10*
X211902800Y-141750000D03*
X210047200Y-141750000D03*
D11*
X129725100Y-122000000D03*
X131426900Y-122000000D03*
X278649100Y-160000000D03*
X280350900Y-160000000D03*
X254944100Y-131000000D03*
X256645900Y-131000000D03*
D10*
X189072250Y-155925000D03*
X190927850Y-155925000D03*
D38*
X266230000Y-114520000D03*
D39*
X266230000Y-115360000D03*
X266230000Y-116160000D03*
D38*
X266230000Y-117000000D03*
X268000000Y-117000000D03*
D39*
X268000000Y-116160000D03*
X268000000Y-115360000D03*
D38*
X268000000Y-114520000D03*
D11*
X93233300Y-91200000D03*
X94935100Y-91200000D03*
D10*
X169072200Y-126000000D03*
X170927800Y-126000000D03*
D29*
X210571500Y-145500000D03*
X209428500Y-145500000D03*
D11*
X249149100Y-160609250D03*
X250850900Y-160609250D03*
D40*
X113115700Y-132050000D03*
D41*
X115592200Y-133000000D03*
D40*
X113115700Y-133950000D03*
D30*
X164500000Y-157648100D03*
X164500000Y-158298100D03*
X164500000Y-158948100D03*
X164500000Y-159598100D03*
X164500000Y-160248100D03*
X164500000Y-160898100D03*
X164500000Y-161548100D03*
X164500000Y-162198100D03*
X164500000Y-162848100D03*
X164500000Y-163498100D03*
X164500000Y-164148100D03*
X164500000Y-164798100D03*
X164500000Y-165448100D03*
X164500000Y-166098100D03*
X170376000Y-166098100D03*
X170376000Y-165448100D03*
X170376000Y-164798100D03*
X170376000Y-164148100D03*
X170376000Y-163498100D03*
X170376000Y-162848100D03*
X170376000Y-162198100D03*
X170376000Y-161548100D03*
X170376000Y-160898100D03*
X170376000Y-160248100D03*
X170376000Y-159598100D03*
X170376000Y-158948100D03*
X170376000Y-158298100D03*
X170376000Y-157648100D03*
D31*
X167438000Y-161873100D03*
D11*
X100850900Y-154500000D03*
X99149100Y-154500000D03*
X200000000Y-119558800D03*
X201701800Y-119558800D03*
D12*
X127426000Y-116730000D03*
X127426000Y-119270000D03*
X133726000Y-119270000D03*
X133726000Y-116730000D03*
D11*
X154076900Y-164500000D03*
X155778700Y-164500000D03*
D10*
X312656400Y-155500000D03*
X314512000Y-155500000D03*
D11*
X214850900Y-145500000D03*
X213149100Y-145500000D03*
D30*
X134500000Y-157275000D03*
X134500000Y-157925000D03*
X134500000Y-158575000D03*
X134500000Y-159225000D03*
X134500000Y-159875000D03*
X134500000Y-160525000D03*
X134500000Y-161175000D03*
X134500000Y-161825000D03*
X134500000Y-162475000D03*
X134500000Y-163125000D03*
X134500000Y-163775000D03*
X134500000Y-164425000D03*
X134500000Y-165075000D03*
X134500000Y-165725000D03*
X140376000Y-165725000D03*
X140376000Y-165075000D03*
X140376000Y-164425000D03*
X140376000Y-163775000D03*
X140376000Y-163125000D03*
X140376000Y-162475000D03*
X140376000Y-161825000D03*
X140376000Y-161175000D03*
X140376000Y-160525000D03*
X140376000Y-159875000D03*
X140376000Y-159225000D03*
X140376000Y-158575000D03*
X140376000Y-157925000D03*
X140376000Y-157275000D03*
D31*
X137438000Y-161500000D03*
D10*
X180644400Y-164425000D03*
X182500000Y-164425000D03*
X169072200Y-129000000D03*
X170927800Y-129000000D03*
X214644400Y-164050000D03*
X216500000Y-164050000D03*
D42*
X176818650Y-119145800D03*
X183181350Y-119145800D03*
X176818650Y-122854200D03*
X183181350Y-122854200D03*
D30*
X289562000Y-156275000D03*
X289562000Y-156925000D03*
X289562000Y-157575000D03*
X289562000Y-158225000D03*
X289562000Y-158875000D03*
X289562000Y-159525000D03*
X289562000Y-160175000D03*
X289562000Y-160825000D03*
X289562000Y-161475000D03*
X289562000Y-162125000D03*
X289562000Y-162775000D03*
X289562000Y-163425000D03*
X289562000Y-164075000D03*
X289562000Y-164725000D03*
X295438000Y-164725000D03*
X295438000Y-164075000D03*
X295438000Y-163425000D03*
X295438000Y-162775000D03*
X295438000Y-162125000D03*
X295438000Y-161475000D03*
X295438000Y-160825000D03*
X295438000Y-160175000D03*
X295438000Y-159525000D03*
X295438000Y-158875000D03*
X295438000Y-158225000D03*
X295438000Y-157575000D03*
X295438000Y-156925000D03*
X295438000Y-156275000D03*
D31*
X292500000Y-160500000D03*
D11*
X124576900Y-164225000D03*
X126278700Y-164225000D03*
D43*
X192598700Y-140750000D03*
X194351300Y-140750000D03*
D10*
X76644400Y-102000000D03*
X78500000Y-102000000D03*
D11*
X339349100Y-153200000D03*
X341050900Y-153200000D03*
X278721300Y-163275000D03*
X280423100Y-163275000D03*
D10*
X253486400Y-155425000D03*
X255342000Y-155425000D03*
X134072200Y-135500000D03*
X135927800Y-135500000D03*
D44*
X75700000Y-166772200D03*
X75700000Y-168627800D03*
D30*
X195062000Y-157275000D03*
X195062000Y-157925000D03*
X195062000Y-158575000D03*
X195062000Y-159225000D03*
X195062000Y-159875000D03*
X195062000Y-160525000D03*
X195062000Y-161175000D03*
X195062000Y-161825000D03*
X195062000Y-162475000D03*
X195062000Y-163125000D03*
X195062000Y-163775000D03*
X195062000Y-164425000D03*
X195062000Y-165075000D03*
X195062000Y-165725000D03*
X200938000Y-165725000D03*
X200938000Y-165075000D03*
X200938000Y-164425000D03*
X200938000Y-163775000D03*
X200938000Y-163125000D03*
X200938000Y-162475000D03*
X200938000Y-161825000D03*
X200938000Y-161175000D03*
X200938000Y-160525000D03*
X200938000Y-159875000D03*
X200938000Y-159225000D03*
X200938000Y-158575000D03*
X200938000Y-157925000D03*
X200938000Y-157275000D03*
D31*
X198000000Y-161500000D03*
D11*
X237732700Y-124500000D03*
X236030900Y-124500000D03*
D10*
X132072200Y-153725000D03*
X133927800Y-153725000D03*
D33*
X211649998Y-98940000D03*
X211649998Y-99580000D03*
X211649998Y-100220000D03*
X211649998Y-100860000D03*
X211649998Y-101500000D03*
X213349998Y-101500000D03*
X213349998Y-100220000D03*
X213349998Y-100860000D03*
X213349998Y-99580000D03*
X213349998Y-98940000D03*
D25*
X140070000Y-141750000D03*
X143430000Y-141750000D03*
D10*
X341072200Y-132000000D03*
X342927800Y-132000000D03*
X161644400Y-154000000D03*
X163500000Y-154000000D03*
D11*
X224693900Y-153550000D03*
X222992100Y-153550000D03*
X339349100Y-162300000D03*
X341050900Y-162300000D03*
D10*
X164322200Y-133000000D03*
X166177800Y-133000000D03*
D12*
X274645000Y-125730000D03*
X274645000Y-128270000D03*
X280945000Y-128270000D03*
X280945000Y-125730000D03*
D11*
X308576900Y-164000000D03*
X310278700Y-164000000D03*
D29*
X94650000Y-93700000D03*
X93507000Y-93700000D03*
D12*
X149138000Y-125730000D03*
X149138000Y-128270000D03*
X155438000Y-128270000D03*
X155438000Y-125730000D03*
D11*
X168927800Y-120000000D03*
X167226000Y-120000000D03*
D10*
X185072250Y-155925000D03*
X186927850Y-155925000D03*
D30*
X319146200Y-156775000D03*
X319146200Y-157425000D03*
X319146200Y-158075000D03*
X319146200Y-158725000D03*
X319146200Y-159375000D03*
X319146200Y-160025000D03*
X319146200Y-160675000D03*
X319146200Y-161325000D03*
X319146200Y-161975000D03*
X319146200Y-162625000D03*
X319146200Y-163275000D03*
X319146200Y-163925000D03*
X319146200Y-164575000D03*
X319146200Y-165225000D03*
X325022200Y-165225000D03*
X325022200Y-164575000D03*
X325022200Y-163925000D03*
X325022200Y-163275000D03*
X325022200Y-162625000D03*
X325022200Y-161975000D03*
X325022200Y-161325000D03*
X325022200Y-160675000D03*
X325022200Y-160025000D03*
X325022200Y-159375000D03*
X325022200Y-158725000D03*
X325022200Y-158075000D03*
X325022200Y-157425000D03*
X325022200Y-156775000D03*
D31*
X322084200Y-161000000D03*
D10*
X225927800Y-121000000D03*
X224072200Y-121000000D03*
D11*
X237732700Y-115500000D03*
X236030900Y-115500000D03*
X131350900Y-135500000D03*
X129649100Y-135500000D03*
D10*
X274644400Y-163275000D03*
X276500000Y-163275000D03*
D45*
X235137500Y-133725000D03*
X235137500Y-134375000D03*
X235137500Y-135025000D03*
X235137500Y-135675000D03*
X235137500Y-136325000D03*
X235137500Y-136975000D03*
X235137500Y-137625000D03*
X235137500Y-138275000D03*
X240862500Y-138275000D03*
X240862500Y-137625000D03*
X240862500Y-136975000D03*
X240862500Y-136325000D03*
X240862500Y-135675000D03*
X240862500Y-135025000D03*
X240862500Y-134375000D03*
X240862500Y-133725000D03*
M02*
