%TF.GenerationSoftware,KiCad,Pcbnew,4.0.7*%
%TF.CreationDate,2018-12-11T18:15:29-05:00*%
%TF.ProjectId,AOML_AB_2.2,414F4D4C5F41425F322E322E6B696361,rev?*%
%TF.FileFunction,Legend,Top*%
%FSLAX46Y46*%
G04 Gerber Fmt 4.6, Leading zero omitted, Abs format (unit mm)*
G04 Created by KiCad (PCBNEW 4.0.7) date 12/11/18 18:15:29*
%MOMM*%
%LPD*%
G01*
G04 APERTURE LIST*
%ADD10C,0.100000*%
%ADD11C,0.120000*%
%ADD12C,0.150000*%
G04 APERTURE END LIST*
D10*
D11*
X280694000Y-72838000D02*
X282494000Y-72838000D01*
X281594000Y-71938000D02*
X281594000Y-73738000D01*
X278884000Y-66278000D02*
X278884000Y-79398000D01*
X308004000Y-66278000D02*
X308004000Y-79398000D01*
X278884000Y-66278000D02*
X280684000Y-66278000D01*
X280684000Y-66278000D02*
X281584000Y-67178000D01*
X281584000Y-67178000D02*
X282484000Y-66278000D01*
X282484000Y-66278000D02*
X308004000Y-66278000D01*
X278884000Y-79398000D02*
X280684000Y-79398000D01*
X280684000Y-79398000D02*
X281584000Y-78498000D01*
X281584000Y-78498000D02*
X282484000Y-79398000D01*
X282484000Y-79398000D02*
X308004000Y-79398000D01*
X277324000Y-72838000D02*
X278884000Y-72838000D01*
X309564000Y-72838000D02*
X308004000Y-72838000D01*
X167614000Y-95028000D02*
G75*
G02X167614000Y-97028000I0J-1000000D01*
G01*
X167614000Y-97028000D02*
X167614000Y-98678000D01*
X167614000Y-98678000D02*
X172814000Y-98678000D01*
X172814000Y-98678000D02*
X172814000Y-93378000D01*
X172814000Y-93378000D02*
X167614000Y-93378000D01*
X167614000Y-93378000D02*
X167614000Y-95028000D01*
X41740000Y-85595000D02*
X41740000Y-88395000D01*
X41740000Y-88395000D02*
X67480000Y-88395000D01*
X67480000Y-88395000D02*
X67480000Y-85595000D01*
X67480000Y-85595000D02*
X41740000Y-85595000D01*
X44450000Y-85595000D02*
X44450000Y-88395000D01*
X297104000Y-61648000D02*
X289784000Y-61648000D01*
X297104000Y-58028000D02*
X289784000Y-58028000D01*
X297104000Y-61648000D02*
X297104000Y-58028000D01*
X289784000Y-61648000D02*
X289784000Y-58028000D01*
X221104000Y-109648000D02*
X213784000Y-109648000D01*
X221104000Y-106028000D02*
X213784000Y-106028000D01*
X221104000Y-109648000D02*
X221104000Y-106028000D01*
X213784000Y-109648000D02*
X213784000Y-106028000D01*
X162104000Y-30648000D02*
X154784000Y-30648000D01*
X162104000Y-27028000D02*
X154784000Y-27028000D01*
X162104000Y-30648000D02*
X162104000Y-27028000D01*
X154784000Y-30648000D02*
X154784000Y-27028000D01*
X253194000Y-72838000D02*
X251394000Y-72838000D01*
X252294000Y-73738000D02*
X252294000Y-71938000D01*
X255004000Y-79398000D02*
X255004000Y-66278000D01*
X225884000Y-79398000D02*
X225884000Y-66278000D01*
X255004000Y-79398000D02*
X253204000Y-79398000D01*
X253204000Y-79398000D02*
X252304000Y-78498000D01*
X252304000Y-78498000D02*
X251404000Y-79398000D01*
X251404000Y-79398000D02*
X225884000Y-79398000D01*
X255004000Y-66278000D02*
X253204000Y-66278000D01*
X253204000Y-66278000D02*
X252304000Y-67178000D01*
X252304000Y-67178000D02*
X251404000Y-66278000D01*
X251404000Y-66278000D02*
X225884000Y-66278000D01*
X256564000Y-72838000D02*
X255004000Y-72838000D01*
X224324000Y-72838000D02*
X225884000Y-72838000D01*
X72104000Y-110648000D02*
X64784000Y-110648000D01*
X72104000Y-107028000D02*
X64784000Y-107028000D01*
X72104000Y-110648000D02*
X72104000Y-107028000D01*
X64784000Y-110648000D02*
X64784000Y-107028000D01*
X143104000Y-110648000D02*
X135784000Y-110648000D01*
X143104000Y-107028000D02*
X135784000Y-107028000D01*
X143104000Y-110648000D02*
X143104000Y-107028000D01*
X135784000Y-110648000D02*
X135784000Y-107028000D01*
X292104000Y-110648000D02*
X284784000Y-110648000D01*
X292104000Y-107028000D02*
X284784000Y-107028000D01*
X292104000Y-110648000D02*
X292104000Y-107028000D01*
X284784000Y-110648000D02*
X284784000Y-107028000D01*
X245104000Y-61648000D02*
X237784000Y-61648000D01*
X245104000Y-58028000D02*
X237784000Y-58028000D01*
X245104000Y-61648000D02*
X245104000Y-58028000D01*
X237784000Y-61648000D02*
X237784000Y-58028000D01*
X109110000Y-60865000D02*
X101790000Y-60865000D01*
X109110000Y-57245000D02*
X101790000Y-57245000D01*
X109110000Y-60865000D02*
X109110000Y-57245000D01*
X101790000Y-60865000D02*
X101790000Y-57245000D01*
X83710000Y-60865000D02*
X76390000Y-60865000D01*
X83710000Y-57245000D02*
X76390000Y-57245000D01*
X83710000Y-60865000D02*
X83710000Y-57245000D01*
X76390000Y-60865000D02*
X76390000Y-57245000D01*
D12*
X177119000Y-69663000D02*
X176169000Y-69663000D01*
X177119000Y-82013000D02*
X176069000Y-82013000D01*
X164769000Y-82013000D02*
X165819000Y-82013000D01*
X164769000Y-69663000D02*
X165819000Y-69663000D01*
X177119000Y-69663000D02*
X177119000Y-70713000D01*
X164769000Y-69663000D02*
X164769000Y-70713000D01*
X164769000Y-82013000D02*
X164769000Y-80963000D01*
X177119000Y-82013000D02*
X177119000Y-80963000D01*
X176169000Y-69663000D02*
X176169000Y-68388000D01*
D11*
X135614000Y-34028000D02*
G75*
G02X135614000Y-36028000I0J-1000000D01*
G01*
X135614000Y-36028000D02*
X135614000Y-37678000D01*
X135614000Y-37678000D02*
X140814000Y-37678000D01*
X140814000Y-37678000D02*
X140814000Y-32378000D01*
X140814000Y-32378000D02*
X135614000Y-32378000D01*
X135614000Y-32378000D02*
X135614000Y-34028000D01*
X211614000Y-51028000D02*
G75*
G02X211614000Y-53028000I0J-1000000D01*
G01*
X211614000Y-53028000D02*
X211614000Y-54678000D01*
X211614000Y-54678000D02*
X216814000Y-54678000D01*
X216814000Y-54678000D02*
X216814000Y-49378000D01*
X216814000Y-49378000D02*
X211614000Y-49378000D01*
X211614000Y-49378000D02*
X211614000Y-51028000D01*
X211614000Y-34028000D02*
G75*
G02X211614000Y-36028000I0J-1000000D01*
G01*
X211614000Y-36028000D02*
X211614000Y-37678000D01*
X211614000Y-37678000D02*
X216814000Y-37678000D01*
X216814000Y-37678000D02*
X216814000Y-32378000D01*
X216814000Y-32378000D02*
X211614000Y-32378000D01*
X211614000Y-32378000D02*
X211614000Y-34028000D01*
X135614000Y-51028000D02*
G75*
G02X135614000Y-53028000I0J-1000000D01*
G01*
X135614000Y-53028000D02*
X135614000Y-54678000D01*
X135614000Y-54678000D02*
X140814000Y-54678000D01*
X140814000Y-54678000D02*
X140814000Y-49378000D01*
X140814000Y-49378000D02*
X135614000Y-49378000D01*
X135614000Y-49378000D02*
X135614000Y-51028000D01*
X227134000Y-62168000D02*
G75*
G02X229134000Y-62168000I1000000J0D01*
G01*
X229134000Y-62168000D02*
X230784000Y-62168000D01*
X230784000Y-62168000D02*
X230784000Y-56968000D01*
X230784000Y-56968000D02*
X225484000Y-56968000D01*
X225484000Y-56968000D02*
X225484000Y-62168000D01*
X225484000Y-62168000D02*
X227134000Y-62168000D01*
X118380000Y-61655000D02*
G75*
G02X120380000Y-61655000I1000000J0D01*
G01*
X120380000Y-61655000D02*
X122030000Y-61655000D01*
X122030000Y-61655000D02*
X122030000Y-56455000D01*
X122030000Y-56455000D02*
X116730000Y-56455000D01*
X116730000Y-56455000D02*
X116730000Y-61655000D01*
X116730000Y-61655000D02*
X118380000Y-61655000D01*
X91710000Y-61655000D02*
G75*
G02X93710000Y-61655000I1000000J0D01*
G01*
X93710000Y-61655000D02*
X95360000Y-61655000D01*
X95360000Y-61655000D02*
X95360000Y-56455000D01*
X95360000Y-56455000D02*
X90060000Y-56455000D01*
X90060000Y-56455000D02*
X90060000Y-61655000D01*
X90060000Y-61655000D02*
X91710000Y-61655000D01*
X305134000Y-62168000D02*
G75*
G02X307134000Y-62168000I1000000J0D01*
G01*
X307134000Y-62168000D02*
X308784000Y-62168000D01*
X308784000Y-62168000D02*
X308784000Y-56968000D01*
X308784000Y-56968000D02*
X303484000Y-56968000D01*
X303484000Y-56968000D02*
X303484000Y-62168000D01*
X303484000Y-62168000D02*
X305134000Y-62168000D01*
X279134000Y-62168000D02*
G75*
G02X281134000Y-62168000I1000000J0D01*
G01*
X281134000Y-62168000D02*
X282784000Y-62168000D01*
X282784000Y-62168000D02*
X282784000Y-56968000D01*
X282784000Y-56968000D02*
X277484000Y-56968000D01*
X277484000Y-56968000D02*
X277484000Y-62168000D01*
X277484000Y-62168000D02*
X279134000Y-62168000D01*
X253134000Y-62168000D02*
G75*
G02X255134000Y-62168000I1000000J0D01*
G01*
X255134000Y-62168000D02*
X256784000Y-62168000D01*
X256784000Y-62168000D02*
X256784000Y-56968000D01*
X256784000Y-56968000D02*
X251484000Y-56968000D01*
X251484000Y-56968000D02*
X251484000Y-62168000D01*
X251484000Y-62168000D02*
X253134000Y-62168000D01*
X217614000Y-95028000D02*
G75*
G02X217614000Y-97028000I0J-1000000D01*
G01*
X217614000Y-97028000D02*
X217614000Y-98678000D01*
X217614000Y-98678000D02*
X222814000Y-98678000D01*
X222814000Y-98678000D02*
X222814000Y-93378000D01*
X222814000Y-93378000D02*
X217614000Y-93378000D01*
X217614000Y-93378000D02*
X217614000Y-95028000D01*
X226614000Y-95028000D02*
G75*
G02X226614000Y-97028000I0J-1000000D01*
G01*
X226614000Y-97028000D02*
X226614000Y-98678000D01*
X226614000Y-98678000D02*
X231814000Y-98678000D01*
X231814000Y-98678000D02*
X231814000Y-93378000D01*
X231814000Y-93378000D02*
X226614000Y-93378000D01*
X226614000Y-93378000D02*
X226614000Y-95028000D01*
X235614000Y-95028000D02*
G75*
G02X235614000Y-97028000I0J-1000000D01*
G01*
X235614000Y-97028000D02*
X235614000Y-98678000D01*
X235614000Y-98678000D02*
X240814000Y-98678000D01*
X240814000Y-98678000D02*
X240814000Y-93378000D01*
X240814000Y-93378000D02*
X235614000Y-93378000D01*
X235614000Y-93378000D02*
X235614000Y-95028000D01*
X244614000Y-95028000D02*
G75*
G02X244614000Y-97028000I0J-1000000D01*
G01*
X244614000Y-97028000D02*
X244614000Y-98678000D01*
X244614000Y-98678000D02*
X249814000Y-98678000D01*
X249814000Y-98678000D02*
X249814000Y-93378000D01*
X249814000Y-93378000D02*
X244614000Y-93378000D01*
X244614000Y-93378000D02*
X244614000Y-95028000D01*
X181614000Y-95028000D02*
G75*
G02X181614000Y-97028000I0J-1000000D01*
G01*
X181614000Y-97028000D02*
X181614000Y-98678000D01*
X181614000Y-98678000D02*
X186814000Y-98678000D01*
X186814000Y-98678000D02*
X186814000Y-93378000D01*
X186814000Y-93378000D02*
X181614000Y-93378000D01*
X181614000Y-93378000D02*
X181614000Y-95028000D01*
X190614000Y-95028000D02*
G75*
G02X190614000Y-97028000I0J-1000000D01*
G01*
X190614000Y-97028000D02*
X190614000Y-98678000D01*
X190614000Y-98678000D02*
X195814000Y-98678000D01*
X195814000Y-98678000D02*
X195814000Y-93378000D01*
X195814000Y-93378000D02*
X190614000Y-93378000D01*
X190614000Y-93378000D02*
X190614000Y-95028000D01*
X199614000Y-95028000D02*
G75*
G02X199614000Y-97028000I0J-1000000D01*
G01*
X199614000Y-97028000D02*
X199614000Y-98678000D01*
X199614000Y-98678000D02*
X204814000Y-98678000D01*
X204814000Y-98678000D02*
X204814000Y-93378000D01*
X204814000Y-93378000D02*
X199614000Y-93378000D01*
X199614000Y-93378000D02*
X199614000Y-95028000D01*
X208614000Y-95028000D02*
G75*
G02X208614000Y-97028000I0J-1000000D01*
G01*
X208614000Y-97028000D02*
X208614000Y-98678000D01*
X208614000Y-98678000D02*
X213814000Y-98678000D01*
X213814000Y-98678000D02*
X213814000Y-93378000D01*
X213814000Y-93378000D02*
X208614000Y-93378000D01*
X208614000Y-93378000D02*
X208614000Y-95028000D01*
X140614000Y-95028000D02*
G75*
G02X140614000Y-97028000I0J-1000000D01*
G01*
X140614000Y-97028000D02*
X140614000Y-98678000D01*
X140614000Y-98678000D02*
X145814000Y-98678000D01*
X145814000Y-98678000D02*
X145814000Y-93378000D01*
X145814000Y-93378000D02*
X140614000Y-93378000D01*
X140614000Y-93378000D02*
X140614000Y-95028000D01*
X149614000Y-95028000D02*
G75*
G02X149614000Y-97028000I0J-1000000D01*
G01*
X149614000Y-97028000D02*
X149614000Y-98678000D01*
X149614000Y-98678000D02*
X154814000Y-98678000D01*
X154814000Y-98678000D02*
X154814000Y-93378000D01*
X154814000Y-93378000D02*
X149614000Y-93378000D01*
X149614000Y-93378000D02*
X149614000Y-95028000D01*
X158614000Y-95028000D02*
G75*
G02X158614000Y-97028000I0J-1000000D01*
G01*
X158614000Y-97028000D02*
X158614000Y-98678000D01*
X158614000Y-98678000D02*
X163814000Y-98678000D01*
X163814000Y-98678000D02*
X163814000Y-93378000D01*
X163814000Y-93378000D02*
X158614000Y-93378000D01*
X158614000Y-93378000D02*
X158614000Y-95028000D01*
X253614000Y-95028000D02*
G75*
G02X253614000Y-97028000I0J-1000000D01*
G01*
X253614000Y-97028000D02*
X253614000Y-98678000D01*
X253614000Y-98678000D02*
X258814000Y-98678000D01*
X258814000Y-98678000D02*
X258814000Y-93378000D01*
X258814000Y-93378000D02*
X253614000Y-93378000D01*
X253614000Y-93378000D02*
X253614000Y-95028000D01*
X262614000Y-95028000D02*
G75*
G02X262614000Y-97028000I0J-1000000D01*
G01*
X262614000Y-97028000D02*
X262614000Y-98678000D01*
X262614000Y-98678000D02*
X267814000Y-98678000D01*
X267814000Y-98678000D02*
X267814000Y-93378000D01*
X267814000Y-93378000D02*
X262614000Y-93378000D01*
X262614000Y-93378000D02*
X262614000Y-95028000D01*
X271614000Y-95028000D02*
G75*
G02X271614000Y-97028000I0J-1000000D01*
G01*
X271614000Y-97028000D02*
X271614000Y-98678000D01*
X271614000Y-98678000D02*
X276814000Y-98678000D01*
X276814000Y-98678000D02*
X276814000Y-93378000D01*
X276814000Y-93378000D02*
X271614000Y-93378000D01*
X271614000Y-93378000D02*
X271614000Y-95028000D01*
X280614000Y-95028000D02*
G75*
G02X280614000Y-97028000I0J-1000000D01*
G01*
X280614000Y-97028000D02*
X280614000Y-98678000D01*
X280614000Y-98678000D02*
X285814000Y-98678000D01*
X285814000Y-98678000D02*
X285814000Y-93378000D01*
X285814000Y-93378000D02*
X280614000Y-93378000D01*
X280614000Y-93378000D02*
X280614000Y-95028000D01*
X307614000Y-95028000D02*
G75*
G02X307614000Y-97028000I0J-1000000D01*
G01*
X307614000Y-97028000D02*
X307614000Y-98678000D01*
X307614000Y-98678000D02*
X312814000Y-98678000D01*
X312814000Y-98678000D02*
X312814000Y-93378000D01*
X312814000Y-93378000D02*
X307614000Y-93378000D01*
X307614000Y-93378000D02*
X307614000Y-95028000D01*
X316614000Y-95028000D02*
G75*
G02X316614000Y-97028000I0J-1000000D01*
G01*
X316614000Y-97028000D02*
X316614000Y-98678000D01*
X316614000Y-98678000D02*
X321814000Y-98678000D01*
X321814000Y-98678000D02*
X321814000Y-93378000D01*
X321814000Y-93378000D02*
X316614000Y-93378000D01*
X316614000Y-93378000D02*
X316614000Y-95028000D01*
X289614000Y-95028000D02*
G75*
G02X289614000Y-97028000I0J-1000000D01*
G01*
X289614000Y-97028000D02*
X289614000Y-98678000D01*
X289614000Y-98678000D02*
X294814000Y-98678000D01*
X294814000Y-98678000D02*
X294814000Y-93378000D01*
X294814000Y-93378000D02*
X289614000Y-93378000D01*
X289614000Y-93378000D02*
X289614000Y-95028000D01*
X298614000Y-95028000D02*
G75*
G02X298614000Y-97028000I0J-1000000D01*
G01*
X298614000Y-97028000D02*
X298614000Y-98678000D01*
X298614000Y-98678000D02*
X303814000Y-98678000D01*
X303814000Y-98678000D02*
X303814000Y-93378000D01*
X303814000Y-93378000D02*
X298614000Y-93378000D01*
X298614000Y-93378000D02*
X298614000Y-95028000D01*
X104614000Y-95028000D02*
G75*
G02X104614000Y-97028000I0J-1000000D01*
G01*
X104614000Y-97028000D02*
X104614000Y-98678000D01*
X104614000Y-98678000D02*
X109814000Y-98678000D01*
X109814000Y-98678000D02*
X109814000Y-93378000D01*
X109814000Y-93378000D02*
X104614000Y-93378000D01*
X104614000Y-93378000D02*
X104614000Y-95028000D01*
X113614000Y-95028000D02*
G75*
G02X113614000Y-97028000I0J-1000000D01*
G01*
X113614000Y-97028000D02*
X113614000Y-98678000D01*
X113614000Y-98678000D02*
X118814000Y-98678000D01*
X118814000Y-98678000D02*
X118814000Y-93378000D01*
X118814000Y-93378000D02*
X113614000Y-93378000D01*
X113614000Y-93378000D02*
X113614000Y-95028000D01*
X122614000Y-95028000D02*
G75*
G02X122614000Y-97028000I0J-1000000D01*
G01*
X122614000Y-97028000D02*
X122614000Y-98678000D01*
X122614000Y-98678000D02*
X127814000Y-98678000D01*
X127814000Y-98678000D02*
X127814000Y-93378000D01*
X127814000Y-93378000D02*
X122614000Y-93378000D01*
X122614000Y-93378000D02*
X122614000Y-95028000D01*
X131614000Y-95028000D02*
G75*
G02X131614000Y-97028000I0J-1000000D01*
G01*
X131614000Y-97028000D02*
X131614000Y-98678000D01*
X131614000Y-98678000D02*
X136814000Y-98678000D01*
X136814000Y-98678000D02*
X136814000Y-93378000D01*
X136814000Y-93378000D02*
X131614000Y-93378000D01*
X131614000Y-93378000D02*
X131614000Y-95028000D01*
X32614000Y-95028000D02*
G75*
G02X32614000Y-97028000I0J-1000000D01*
G01*
X32614000Y-97028000D02*
X32614000Y-98678000D01*
X32614000Y-98678000D02*
X37814000Y-98678000D01*
X37814000Y-98678000D02*
X37814000Y-93378000D01*
X37814000Y-93378000D02*
X32614000Y-93378000D01*
X32614000Y-93378000D02*
X32614000Y-95028000D01*
X41614000Y-95028000D02*
G75*
G02X41614000Y-97028000I0J-1000000D01*
G01*
X41614000Y-97028000D02*
X41614000Y-98678000D01*
X41614000Y-98678000D02*
X46814000Y-98678000D01*
X46814000Y-98678000D02*
X46814000Y-93378000D01*
X46814000Y-93378000D02*
X41614000Y-93378000D01*
X41614000Y-93378000D02*
X41614000Y-95028000D01*
X50614000Y-95028000D02*
G75*
G02X50614000Y-97028000I0J-1000000D01*
G01*
X50614000Y-97028000D02*
X50614000Y-98678000D01*
X50614000Y-98678000D02*
X55814000Y-98678000D01*
X55814000Y-98678000D02*
X55814000Y-93378000D01*
X55814000Y-93378000D02*
X50614000Y-93378000D01*
X50614000Y-93378000D02*
X50614000Y-95028000D01*
X59614000Y-95028000D02*
G75*
G02X59614000Y-97028000I0J-1000000D01*
G01*
X59614000Y-97028000D02*
X59614000Y-98678000D01*
X59614000Y-98678000D02*
X64814000Y-98678000D01*
X64814000Y-98678000D02*
X64814000Y-93378000D01*
X64814000Y-93378000D02*
X59614000Y-93378000D01*
X59614000Y-93378000D02*
X59614000Y-95028000D01*
X68614000Y-95028000D02*
G75*
G02X68614000Y-97028000I0J-1000000D01*
G01*
X68614000Y-97028000D02*
X68614000Y-98678000D01*
X68614000Y-98678000D02*
X73814000Y-98678000D01*
X73814000Y-98678000D02*
X73814000Y-93378000D01*
X73814000Y-93378000D02*
X68614000Y-93378000D01*
X68614000Y-93378000D02*
X68614000Y-95028000D01*
X77614000Y-95028000D02*
G75*
G02X77614000Y-97028000I0J-1000000D01*
G01*
X77614000Y-97028000D02*
X77614000Y-98678000D01*
X77614000Y-98678000D02*
X82814000Y-98678000D01*
X82814000Y-98678000D02*
X82814000Y-93378000D01*
X82814000Y-93378000D02*
X77614000Y-93378000D01*
X77614000Y-93378000D02*
X77614000Y-95028000D01*
X86614000Y-95028000D02*
G75*
G02X86614000Y-97028000I0J-1000000D01*
G01*
X86614000Y-97028000D02*
X86614000Y-98678000D01*
X86614000Y-98678000D02*
X91814000Y-98678000D01*
X91814000Y-98678000D02*
X91814000Y-93378000D01*
X91814000Y-93378000D02*
X86614000Y-93378000D01*
X86614000Y-93378000D02*
X86614000Y-95028000D01*
X95614000Y-95028000D02*
G75*
G02X95614000Y-97028000I0J-1000000D01*
G01*
X95614000Y-97028000D02*
X95614000Y-98678000D01*
X95614000Y-98678000D02*
X100814000Y-98678000D01*
X100814000Y-98678000D02*
X100814000Y-93378000D01*
X100814000Y-93378000D02*
X95614000Y-93378000D01*
X95614000Y-93378000D02*
X95614000Y-95028000D01*
X66310000Y-61655000D02*
G75*
G02X68310000Y-61655000I1000000J0D01*
G01*
X68310000Y-61655000D02*
X69960000Y-61655000D01*
X69960000Y-61655000D02*
X69960000Y-56455000D01*
X69960000Y-56455000D02*
X64660000Y-56455000D01*
X64660000Y-56455000D02*
X64660000Y-61655000D01*
X64660000Y-61655000D02*
X66310000Y-61655000D01*
X48530000Y-61655000D02*
G75*
G02X50530000Y-61655000I1000000J0D01*
G01*
X50530000Y-61655000D02*
X52180000Y-61655000D01*
X52180000Y-61655000D02*
X52180000Y-56455000D01*
X52180000Y-56455000D02*
X46880000Y-56455000D01*
X46880000Y-56455000D02*
X46880000Y-61655000D01*
X46880000Y-61655000D02*
X48530000Y-61655000D01*
X122590000Y-73700000D02*
X122590000Y-71080000D01*
X122590000Y-71080000D02*
X116170000Y-71080000D01*
X116170000Y-71080000D02*
X116170000Y-73700000D01*
X116170000Y-73700000D02*
X122590000Y-73700000D01*
X123480000Y-72390000D02*
X122590000Y-72390000D01*
X115280000Y-72390000D02*
X116170000Y-72390000D01*
X153074000Y-70148000D02*
X153074000Y-67528000D01*
X153074000Y-67528000D02*
X146654000Y-67528000D01*
X146654000Y-67528000D02*
X146654000Y-70148000D01*
X146654000Y-70148000D02*
X153074000Y-70148000D01*
X153964000Y-68838000D02*
X153074000Y-68838000D01*
X145764000Y-68838000D02*
X146654000Y-68838000D01*
X115814000Y-77528000D02*
X115814000Y-80148000D01*
X115814000Y-80148000D02*
X122234000Y-80148000D01*
X122234000Y-80148000D02*
X122234000Y-77528000D01*
X122234000Y-77528000D02*
X115814000Y-77528000D01*
X114924000Y-78838000D02*
X115814000Y-78838000D01*
X123124000Y-78838000D02*
X122234000Y-78838000D01*
X184814000Y-28528000D02*
X184814000Y-31148000D01*
X184814000Y-31148000D02*
X191234000Y-31148000D01*
X191234000Y-31148000D02*
X191234000Y-28528000D01*
X191234000Y-28528000D02*
X184814000Y-28528000D01*
X183924000Y-29838000D02*
X184814000Y-29838000D01*
X192124000Y-29838000D02*
X191234000Y-29838000D01*
X152814000Y-32528000D02*
X152814000Y-35148000D01*
X152814000Y-35148000D02*
X159234000Y-35148000D01*
X159234000Y-35148000D02*
X159234000Y-32528000D01*
X159234000Y-32528000D02*
X152814000Y-32528000D01*
X151924000Y-33838000D02*
X152814000Y-33838000D01*
X160124000Y-33838000D02*
X159234000Y-33838000D01*
X199814000Y-28528000D02*
X199814000Y-31148000D01*
X199814000Y-31148000D02*
X206234000Y-31148000D01*
X206234000Y-31148000D02*
X206234000Y-28528000D01*
X206234000Y-28528000D02*
X199814000Y-28528000D01*
X198924000Y-29838000D02*
X199814000Y-29838000D01*
X207124000Y-29838000D02*
X206234000Y-29838000D01*
X103634000Y-74968000D02*
X106254000Y-74968000D01*
X106254000Y-74968000D02*
X106254000Y-68548000D01*
X106254000Y-68548000D02*
X103634000Y-68548000D01*
X103634000Y-68548000D02*
X103634000Y-74968000D01*
X104944000Y-75858000D02*
X104944000Y-74968000D01*
X104944000Y-67658000D02*
X104944000Y-68548000D01*
X190504000Y-65438000D02*
X190504000Y-68238000D01*
X190504000Y-68238000D02*
X216244000Y-68238000D01*
X216244000Y-68238000D02*
X216244000Y-65438000D01*
X216244000Y-65438000D02*
X190504000Y-65438000D01*
X193214000Y-65438000D02*
X193214000Y-68238000D01*
X300504000Y-82438000D02*
X300504000Y-85238000D01*
X300504000Y-85238000D02*
X326244000Y-85238000D01*
X326244000Y-85238000D02*
X326244000Y-82438000D01*
X326244000Y-82438000D02*
X300504000Y-82438000D01*
X303214000Y-82438000D02*
X303214000Y-85238000D01*
X190504000Y-82438000D02*
X190504000Y-85238000D01*
X190504000Y-85238000D02*
X216244000Y-85238000D01*
X216244000Y-85238000D02*
X216244000Y-82438000D01*
X216244000Y-82438000D02*
X190504000Y-82438000D01*
X193214000Y-82438000D02*
X193214000Y-85238000D01*
X79840000Y-85595000D02*
X79840000Y-88395000D01*
X79840000Y-88395000D02*
X105580000Y-88395000D01*
X105580000Y-88395000D02*
X105580000Y-85595000D01*
X105580000Y-85595000D02*
X79840000Y-85595000D01*
X82550000Y-85595000D02*
X82550000Y-88395000D01*
X135620000Y-62805000D02*
G75*
G02X133620000Y-62805000I-1000000J0D01*
G01*
X133620000Y-62805000D02*
X131970000Y-62805000D01*
X131970000Y-62805000D02*
X131970000Y-88325000D01*
X131970000Y-88325000D02*
X137270000Y-88325000D01*
X137270000Y-88325000D02*
X137270000Y-62805000D01*
X137270000Y-62805000D02*
X135620000Y-62805000D01*
X129480000Y-62745000D02*
X129480000Y-88385000D01*
X129480000Y-88385000D02*
X139760000Y-88385000D01*
X139760000Y-88385000D02*
X139760000Y-62745000D01*
X139760000Y-62745000D02*
X129480000Y-62745000D01*
X261364000Y-75148000D02*
X271604000Y-75148000D01*
X261364000Y-59258000D02*
X271604000Y-59258000D01*
X261364000Y-59258000D02*
X261364000Y-75148000D01*
X271604000Y-59258000D02*
X271604000Y-75148000D01*
X263944000Y-75148000D02*
X263944000Y-77788000D01*
X266484000Y-75148000D02*
X266484000Y-77772000D01*
X269024000Y-75148000D02*
X269024000Y-77772000D01*
X100379000Y-29038000D02*
X100379000Y-25828000D01*
X100379000Y-25828000D02*
X87509000Y-25828000D01*
X87509000Y-25828000D02*
X87509000Y-29038000D01*
X99074000Y-30418000D02*
X98959000Y-30418000D01*
X98959000Y-30418000D02*
X98959000Y-29918000D01*
X98959000Y-29918000D02*
X88929000Y-29918000D01*
X88929000Y-29918000D02*
X88929000Y-30418000D01*
X88929000Y-30418000D02*
X88814000Y-30418000D01*
X126379000Y-29038000D02*
X126379000Y-25828000D01*
X126379000Y-25828000D02*
X113509000Y-25828000D01*
X113509000Y-25828000D02*
X113509000Y-29038000D01*
X125074000Y-30418000D02*
X124959000Y-30418000D01*
X124959000Y-30418000D02*
X124959000Y-29918000D01*
X124959000Y-29918000D02*
X114929000Y-29918000D01*
X114929000Y-29918000D02*
X114929000Y-30418000D01*
X114929000Y-30418000D02*
X114814000Y-30418000D01*
X238379000Y-29038000D02*
X238379000Y-25828000D01*
X238379000Y-25828000D02*
X225509000Y-25828000D01*
X225509000Y-25828000D02*
X225509000Y-29038000D01*
X237074000Y-30418000D02*
X236959000Y-30418000D01*
X236959000Y-30418000D02*
X236959000Y-29918000D01*
X236959000Y-29918000D02*
X226929000Y-29918000D01*
X226929000Y-29918000D02*
X226929000Y-30418000D01*
X226929000Y-30418000D02*
X226814000Y-30418000D01*
X315379000Y-29038000D02*
X315379000Y-25828000D01*
X315379000Y-25828000D02*
X302509000Y-25828000D01*
X302509000Y-25828000D02*
X302509000Y-29038000D01*
X314074000Y-30418000D02*
X313959000Y-30418000D01*
X313959000Y-30418000D02*
X313959000Y-29918000D01*
X313959000Y-29918000D02*
X303929000Y-29918000D01*
X303929000Y-29918000D02*
X303929000Y-30418000D01*
X303929000Y-30418000D02*
X303814000Y-30418000D01*
X289379000Y-29038000D02*
X289379000Y-25828000D01*
X289379000Y-25828000D02*
X276509000Y-25828000D01*
X276509000Y-25828000D02*
X276509000Y-29038000D01*
X288074000Y-30418000D02*
X287959000Y-30418000D01*
X287959000Y-30418000D02*
X287959000Y-29918000D01*
X287959000Y-29918000D02*
X277929000Y-29918000D01*
X277929000Y-29918000D02*
X277929000Y-30418000D01*
X277929000Y-30418000D02*
X277814000Y-30418000D01*
X264379000Y-29038000D02*
X264379000Y-25828000D01*
X264379000Y-25828000D02*
X251509000Y-25828000D01*
X251509000Y-25828000D02*
X251509000Y-29038000D01*
X263074000Y-30418000D02*
X262959000Y-30418000D01*
X262959000Y-30418000D02*
X262959000Y-29918000D01*
X262959000Y-29918000D02*
X252929000Y-29918000D01*
X252929000Y-29918000D02*
X252929000Y-30418000D01*
X252929000Y-30418000D02*
X252814000Y-30418000D01*
X76379000Y-29038000D02*
X76379000Y-25828000D01*
X76379000Y-25828000D02*
X63509000Y-25828000D01*
X63509000Y-25828000D02*
X63509000Y-29038000D01*
X75074000Y-30418000D02*
X74959000Y-30418000D01*
X74959000Y-30418000D02*
X74959000Y-29918000D01*
X74959000Y-29918000D02*
X64929000Y-29918000D01*
X64929000Y-29918000D02*
X64929000Y-30418000D01*
X64929000Y-30418000D02*
X64814000Y-30418000D01*
X51379000Y-29038000D02*
X51379000Y-25828000D01*
X51379000Y-25828000D02*
X38509000Y-25828000D01*
X38509000Y-25828000D02*
X38509000Y-29038000D01*
X50074000Y-30418000D02*
X49959000Y-30418000D01*
X49959000Y-30418000D02*
X49959000Y-29918000D01*
X49959000Y-29918000D02*
X39929000Y-29918000D01*
X39929000Y-29918000D02*
X39929000Y-30418000D01*
X39929000Y-30418000D02*
X39814000Y-30418000D01*
X68774000Y-82058000D02*
X84014000Y-82058000D01*
X84014000Y-64028000D02*
X84004000Y-73018000D01*
X84014000Y-64028000D02*
X68774000Y-64028000D01*
X68774000Y-64028000D02*
X68774000Y-73028000D01*
X84004000Y-75358000D02*
X84014000Y-82058000D01*
X68774000Y-75348000D02*
X68774000Y-82058000D01*
D10*
X30010000Y-79115000D02*
X30510000Y-79115000D01*
X30010000Y-79115000D02*
X30010000Y-78615000D01*
X30010000Y-65615000D02*
X30510000Y-65615000D01*
X30010000Y-65615000D02*
X30010000Y-66115000D01*
X43310000Y-65615000D02*
X42810000Y-65615000D01*
X43310000Y-65615000D02*
X43310000Y-66115000D01*
X43310000Y-79115000D02*
X43310000Y-78615000D01*
X43310000Y-79115000D02*
X42810000Y-79115000D01*
X55844000Y-116738000D02*
X55844000Y-116238000D01*
X55844000Y-116738000D02*
X55344000Y-116738000D01*
X42344000Y-116738000D02*
X42344000Y-116238000D01*
X42344000Y-116738000D02*
X42844000Y-116738000D01*
X42344000Y-103438000D02*
X42344000Y-103938000D01*
X42344000Y-103438000D02*
X42844000Y-103438000D01*
X55844000Y-103438000D02*
X55344000Y-103438000D01*
X55844000Y-103438000D02*
X55844000Y-103938000D01*
X92844000Y-116738000D02*
X92844000Y-116238000D01*
X92844000Y-116738000D02*
X92344000Y-116738000D01*
X79344000Y-116738000D02*
X79344000Y-116238000D01*
X79344000Y-116738000D02*
X79844000Y-116738000D01*
X79344000Y-103438000D02*
X79344000Y-103938000D01*
X79344000Y-103438000D02*
X79844000Y-103438000D01*
X92844000Y-103438000D02*
X92344000Y-103438000D01*
X92844000Y-103438000D02*
X92844000Y-103938000D01*
X163844000Y-116738000D02*
X163844000Y-116238000D01*
X163844000Y-116738000D02*
X163344000Y-116738000D01*
X150344000Y-116738000D02*
X150344000Y-116238000D01*
X150344000Y-116738000D02*
X150844000Y-116738000D01*
X150344000Y-103438000D02*
X150344000Y-103938000D01*
X150344000Y-103438000D02*
X150844000Y-103438000D01*
X163844000Y-103438000D02*
X163344000Y-103438000D01*
X163844000Y-103438000D02*
X163844000Y-103938000D01*
X127844000Y-116738000D02*
X127844000Y-116238000D01*
X127844000Y-116738000D02*
X127344000Y-116738000D01*
X114344000Y-116738000D02*
X114344000Y-116238000D01*
X114344000Y-116738000D02*
X114844000Y-116738000D01*
X114344000Y-103438000D02*
X114344000Y-103938000D01*
X114344000Y-103438000D02*
X114844000Y-103438000D01*
X127844000Y-103438000D02*
X127344000Y-103438000D01*
X127844000Y-103438000D02*
X127844000Y-103938000D01*
X312844000Y-116738000D02*
X312844000Y-116238000D01*
X312844000Y-116738000D02*
X312344000Y-116738000D01*
X299344000Y-116738000D02*
X299344000Y-116238000D01*
X299344000Y-116738000D02*
X299844000Y-116738000D01*
X299344000Y-103438000D02*
X299344000Y-103938000D01*
X299344000Y-103438000D02*
X299844000Y-103438000D01*
X312844000Y-103438000D02*
X312344000Y-103438000D01*
X312844000Y-103438000D02*
X312844000Y-103938000D01*
X276933000Y-116548000D02*
X276933000Y-116048000D01*
X276933000Y-116548000D02*
X276433000Y-116548000D01*
X263433000Y-116548000D02*
X263433000Y-116048000D01*
X263433000Y-116548000D02*
X263933000Y-116548000D01*
X263433000Y-103248000D02*
X263433000Y-103748000D01*
X263433000Y-103248000D02*
X263933000Y-103248000D01*
X276933000Y-103248000D02*
X276433000Y-103248000D01*
X276933000Y-103248000D02*
X276933000Y-103748000D01*
X241844000Y-116738000D02*
X241844000Y-116238000D01*
X241844000Y-116738000D02*
X241344000Y-116738000D01*
X228344000Y-116738000D02*
X228344000Y-116238000D01*
X228344000Y-116738000D02*
X228844000Y-116738000D01*
X228344000Y-103438000D02*
X228344000Y-103938000D01*
X228344000Y-103438000D02*
X228844000Y-103438000D01*
X241844000Y-103438000D02*
X241344000Y-103438000D01*
X241844000Y-103438000D02*
X241844000Y-103938000D01*
X204844000Y-116738000D02*
X204844000Y-116238000D01*
X204844000Y-116738000D02*
X204344000Y-116738000D01*
X191344000Y-116738000D02*
X191344000Y-116238000D01*
X191344000Y-116738000D02*
X191844000Y-116738000D01*
X191344000Y-103438000D02*
X191344000Y-103938000D01*
X191344000Y-103438000D02*
X191844000Y-103438000D01*
X204844000Y-103438000D02*
X204344000Y-103438000D01*
X204844000Y-103438000D02*
X204844000Y-103938000D01*
D11*
X149134000Y-59168000D02*
G75*
G02X151134000Y-59168000I1000000J0D01*
G01*
X151134000Y-59168000D02*
X152784000Y-59168000D01*
X152784000Y-59168000D02*
X152784000Y-38728000D01*
X152784000Y-38728000D02*
X147484000Y-38728000D01*
X147484000Y-38728000D02*
X147484000Y-59168000D01*
X147484000Y-59168000D02*
X149134000Y-59168000D01*
X155274000Y-59228000D02*
X155274000Y-38668000D01*
X155274000Y-38668000D02*
X144994000Y-38668000D01*
X144994000Y-38668000D02*
X144994000Y-59228000D01*
X144994000Y-59228000D02*
X155274000Y-59228000D01*
X162134000Y-59168000D02*
G75*
G02X164134000Y-59168000I1000000J0D01*
G01*
X164134000Y-59168000D02*
X165784000Y-59168000D01*
X165784000Y-59168000D02*
X165784000Y-38728000D01*
X165784000Y-38728000D02*
X160484000Y-38728000D01*
X160484000Y-38728000D02*
X160484000Y-59168000D01*
X160484000Y-59168000D02*
X162134000Y-59168000D01*
X168274000Y-59228000D02*
X168274000Y-38668000D01*
X168274000Y-38668000D02*
X157994000Y-38668000D01*
X157994000Y-38668000D02*
X157994000Y-59228000D01*
X157994000Y-59228000D02*
X168274000Y-59228000D01*
X175134000Y-59168000D02*
G75*
G02X177134000Y-59168000I1000000J0D01*
G01*
X177134000Y-59168000D02*
X178784000Y-59168000D01*
X178784000Y-59168000D02*
X178784000Y-38728000D01*
X178784000Y-38728000D02*
X173484000Y-38728000D01*
X173484000Y-38728000D02*
X173484000Y-59168000D01*
X173484000Y-59168000D02*
X175134000Y-59168000D01*
X181274000Y-59228000D02*
X181274000Y-38668000D01*
X181274000Y-38668000D02*
X170994000Y-38668000D01*
X170994000Y-38668000D02*
X170994000Y-59228000D01*
X170994000Y-59228000D02*
X181274000Y-59228000D01*
X188134000Y-59168000D02*
G75*
G02X190134000Y-59168000I1000000J0D01*
G01*
X190134000Y-59168000D02*
X191784000Y-59168000D01*
X191784000Y-59168000D02*
X191784000Y-38728000D01*
X191784000Y-38728000D02*
X186484000Y-38728000D01*
X186484000Y-38728000D02*
X186484000Y-59168000D01*
X186484000Y-59168000D02*
X188134000Y-59168000D01*
X194274000Y-59228000D02*
X194274000Y-38668000D01*
X194274000Y-38668000D02*
X183994000Y-38668000D01*
X183994000Y-38668000D02*
X183994000Y-59228000D01*
X183994000Y-59228000D02*
X194274000Y-59228000D01*
X201134000Y-59168000D02*
G75*
G02X203134000Y-59168000I1000000J0D01*
G01*
X203134000Y-59168000D02*
X204784000Y-59168000D01*
X204784000Y-59168000D02*
X204784000Y-38728000D01*
X204784000Y-38728000D02*
X199484000Y-38728000D01*
X199484000Y-38728000D02*
X199484000Y-59168000D01*
X199484000Y-59168000D02*
X201134000Y-59168000D01*
X207274000Y-59228000D02*
X207274000Y-38668000D01*
X207274000Y-38668000D02*
X196994000Y-38668000D01*
X196994000Y-38668000D02*
X196994000Y-59228000D01*
X196994000Y-59228000D02*
X207274000Y-59228000D01*
X225134000Y-54168000D02*
G75*
G02X227134000Y-54168000I1000000J0D01*
G01*
X227134000Y-54168000D02*
X228784000Y-54168000D01*
X228784000Y-54168000D02*
X228784000Y-33728000D01*
X228784000Y-33728000D02*
X223484000Y-33728000D01*
X223484000Y-33728000D02*
X223484000Y-54168000D01*
X223484000Y-54168000D02*
X225134000Y-54168000D01*
X231274000Y-54228000D02*
X231274000Y-33668000D01*
X231274000Y-33668000D02*
X220994000Y-33668000D01*
X220994000Y-33668000D02*
X220994000Y-54228000D01*
X220994000Y-54228000D02*
X231274000Y-54228000D01*
X238134000Y-54168000D02*
G75*
G02X240134000Y-54168000I1000000J0D01*
G01*
X240134000Y-54168000D02*
X241784000Y-54168000D01*
X241784000Y-54168000D02*
X241784000Y-33728000D01*
X241784000Y-33728000D02*
X236484000Y-33728000D01*
X236484000Y-33728000D02*
X236484000Y-54168000D01*
X236484000Y-54168000D02*
X238134000Y-54168000D01*
X244274000Y-54228000D02*
X244274000Y-33668000D01*
X244274000Y-33668000D02*
X233994000Y-33668000D01*
X233994000Y-33668000D02*
X233994000Y-54228000D01*
X233994000Y-54228000D02*
X244274000Y-54228000D01*
X126134000Y-54168000D02*
G75*
G02X128134000Y-54168000I1000000J0D01*
G01*
X128134000Y-54168000D02*
X129784000Y-54168000D01*
X129784000Y-54168000D02*
X129784000Y-33728000D01*
X129784000Y-33728000D02*
X124484000Y-33728000D01*
X124484000Y-33728000D02*
X124484000Y-54168000D01*
X124484000Y-54168000D02*
X126134000Y-54168000D01*
X132274000Y-54228000D02*
X132274000Y-33668000D01*
X132274000Y-33668000D02*
X121994000Y-33668000D01*
X121994000Y-33668000D02*
X121994000Y-54228000D01*
X121994000Y-54228000D02*
X132274000Y-54228000D01*
X113134000Y-54168000D02*
G75*
G02X115134000Y-54168000I1000000J0D01*
G01*
X115134000Y-54168000D02*
X116784000Y-54168000D01*
X116784000Y-54168000D02*
X116784000Y-33728000D01*
X116784000Y-33728000D02*
X111484000Y-33728000D01*
X111484000Y-33728000D02*
X111484000Y-54168000D01*
X111484000Y-54168000D02*
X113134000Y-54168000D01*
X119274000Y-54228000D02*
X119274000Y-33668000D01*
X119274000Y-33668000D02*
X108994000Y-33668000D01*
X108994000Y-33668000D02*
X108994000Y-54228000D01*
X108994000Y-54228000D02*
X119274000Y-54228000D01*
X87134000Y-54168000D02*
G75*
G02X89134000Y-54168000I1000000J0D01*
G01*
X89134000Y-54168000D02*
X90784000Y-54168000D01*
X90784000Y-54168000D02*
X90784000Y-33728000D01*
X90784000Y-33728000D02*
X85484000Y-33728000D01*
X85484000Y-33728000D02*
X85484000Y-54168000D01*
X85484000Y-54168000D02*
X87134000Y-54168000D01*
X93274000Y-54228000D02*
X93274000Y-33668000D01*
X93274000Y-33668000D02*
X82994000Y-33668000D01*
X82994000Y-33668000D02*
X82994000Y-54228000D01*
X82994000Y-54228000D02*
X93274000Y-54228000D01*
X100134000Y-54168000D02*
G75*
G02X102134000Y-54168000I1000000J0D01*
G01*
X102134000Y-54168000D02*
X103784000Y-54168000D01*
X103784000Y-54168000D02*
X103784000Y-33728000D01*
X103784000Y-33728000D02*
X98484000Y-33728000D01*
X98484000Y-33728000D02*
X98484000Y-54168000D01*
X98484000Y-54168000D02*
X100134000Y-54168000D01*
X106274000Y-54228000D02*
X106274000Y-33668000D01*
X106274000Y-33668000D02*
X95994000Y-33668000D01*
X95994000Y-33668000D02*
X95994000Y-54228000D01*
X95994000Y-54228000D02*
X106274000Y-54228000D01*
X302134000Y-54168000D02*
G75*
G02X304134000Y-54168000I1000000J0D01*
G01*
X304134000Y-54168000D02*
X305784000Y-54168000D01*
X305784000Y-54168000D02*
X305784000Y-33728000D01*
X305784000Y-33728000D02*
X300484000Y-33728000D01*
X300484000Y-33728000D02*
X300484000Y-54168000D01*
X300484000Y-54168000D02*
X302134000Y-54168000D01*
X308274000Y-54228000D02*
X308274000Y-33668000D01*
X308274000Y-33668000D02*
X297994000Y-33668000D01*
X297994000Y-33668000D02*
X297994000Y-54228000D01*
X297994000Y-54228000D02*
X308274000Y-54228000D01*
X315134000Y-54168000D02*
G75*
G02X317134000Y-54168000I1000000J0D01*
G01*
X317134000Y-54168000D02*
X318784000Y-54168000D01*
X318784000Y-54168000D02*
X318784000Y-33728000D01*
X318784000Y-33728000D02*
X313484000Y-33728000D01*
X313484000Y-33728000D02*
X313484000Y-54168000D01*
X313484000Y-54168000D02*
X315134000Y-54168000D01*
X321274000Y-54228000D02*
X321274000Y-33668000D01*
X321274000Y-33668000D02*
X310994000Y-33668000D01*
X310994000Y-33668000D02*
X310994000Y-54228000D01*
X310994000Y-54228000D02*
X321274000Y-54228000D01*
X276134000Y-54168000D02*
G75*
G02X278134000Y-54168000I1000000J0D01*
G01*
X278134000Y-54168000D02*
X279784000Y-54168000D01*
X279784000Y-54168000D02*
X279784000Y-33728000D01*
X279784000Y-33728000D02*
X274484000Y-33728000D01*
X274484000Y-33728000D02*
X274484000Y-54168000D01*
X274484000Y-54168000D02*
X276134000Y-54168000D01*
X282274000Y-54228000D02*
X282274000Y-33668000D01*
X282274000Y-33668000D02*
X271994000Y-33668000D01*
X271994000Y-33668000D02*
X271994000Y-54228000D01*
X271994000Y-54228000D02*
X282274000Y-54228000D01*
X289134000Y-54168000D02*
G75*
G02X291134000Y-54168000I1000000J0D01*
G01*
X291134000Y-54168000D02*
X292784000Y-54168000D01*
X292784000Y-54168000D02*
X292784000Y-33728000D01*
X292784000Y-33728000D02*
X287484000Y-33728000D01*
X287484000Y-33728000D02*
X287484000Y-54168000D01*
X287484000Y-54168000D02*
X289134000Y-54168000D01*
X295274000Y-54228000D02*
X295274000Y-33668000D01*
X295274000Y-33668000D02*
X284994000Y-33668000D01*
X284994000Y-33668000D02*
X284994000Y-54228000D01*
X284994000Y-54228000D02*
X295274000Y-54228000D01*
X251134000Y-54168000D02*
G75*
G02X253134000Y-54168000I1000000J0D01*
G01*
X253134000Y-54168000D02*
X254784000Y-54168000D01*
X254784000Y-54168000D02*
X254784000Y-33728000D01*
X254784000Y-33728000D02*
X249484000Y-33728000D01*
X249484000Y-33728000D02*
X249484000Y-54168000D01*
X249484000Y-54168000D02*
X251134000Y-54168000D01*
X257274000Y-54228000D02*
X257274000Y-33668000D01*
X257274000Y-33668000D02*
X246994000Y-33668000D01*
X246994000Y-33668000D02*
X246994000Y-54228000D01*
X246994000Y-54228000D02*
X257274000Y-54228000D01*
X264134000Y-54168000D02*
G75*
G02X266134000Y-54168000I1000000J0D01*
G01*
X266134000Y-54168000D02*
X267784000Y-54168000D01*
X267784000Y-54168000D02*
X267784000Y-33728000D01*
X267784000Y-33728000D02*
X262484000Y-33728000D01*
X262484000Y-33728000D02*
X262484000Y-54168000D01*
X262484000Y-54168000D02*
X264134000Y-54168000D01*
X270274000Y-54228000D02*
X270274000Y-33668000D01*
X270274000Y-33668000D02*
X259994000Y-33668000D01*
X259994000Y-33668000D02*
X259994000Y-54228000D01*
X259994000Y-54228000D02*
X270274000Y-54228000D01*
X61134000Y-54168000D02*
G75*
G02X63134000Y-54168000I1000000J0D01*
G01*
X63134000Y-54168000D02*
X64784000Y-54168000D01*
X64784000Y-54168000D02*
X64784000Y-33728000D01*
X64784000Y-33728000D02*
X59484000Y-33728000D01*
X59484000Y-33728000D02*
X59484000Y-54168000D01*
X59484000Y-54168000D02*
X61134000Y-54168000D01*
X67274000Y-54228000D02*
X67274000Y-33668000D01*
X67274000Y-33668000D02*
X56994000Y-33668000D01*
X56994000Y-33668000D02*
X56994000Y-54228000D01*
X56994000Y-54228000D02*
X67274000Y-54228000D01*
X74134000Y-54168000D02*
G75*
G02X76134000Y-54168000I1000000J0D01*
G01*
X76134000Y-54168000D02*
X77784000Y-54168000D01*
X77784000Y-54168000D02*
X77784000Y-33728000D01*
X77784000Y-33728000D02*
X72484000Y-33728000D01*
X72484000Y-33728000D02*
X72484000Y-54168000D01*
X72484000Y-54168000D02*
X74134000Y-54168000D01*
X80274000Y-54228000D02*
X80274000Y-33668000D01*
X80274000Y-33668000D02*
X69994000Y-33668000D01*
X69994000Y-33668000D02*
X69994000Y-54228000D01*
X69994000Y-54228000D02*
X80274000Y-54228000D01*
X35134000Y-54168000D02*
G75*
G02X37134000Y-54168000I1000000J0D01*
G01*
X37134000Y-54168000D02*
X38784000Y-54168000D01*
X38784000Y-54168000D02*
X38784000Y-33728000D01*
X38784000Y-33728000D02*
X33484000Y-33728000D01*
X33484000Y-33728000D02*
X33484000Y-54168000D01*
X33484000Y-54168000D02*
X35134000Y-54168000D01*
X41274000Y-54228000D02*
X41274000Y-33668000D01*
X41274000Y-33668000D02*
X30994000Y-33668000D01*
X30994000Y-33668000D02*
X30994000Y-54228000D01*
X30994000Y-54228000D02*
X41274000Y-54228000D01*
X48134000Y-54168000D02*
G75*
G02X50134000Y-54168000I1000000J0D01*
G01*
X50134000Y-54168000D02*
X51784000Y-54168000D01*
X51784000Y-54168000D02*
X51784000Y-33728000D01*
X51784000Y-33728000D02*
X46484000Y-33728000D01*
X46484000Y-33728000D02*
X46484000Y-54168000D01*
X46484000Y-54168000D02*
X48134000Y-54168000D01*
X54274000Y-54228000D02*
X54274000Y-33668000D01*
X54274000Y-33668000D02*
X43994000Y-33668000D01*
X43994000Y-33668000D02*
X43994000Y-54228000D01*
X43994000Y-54228000D02*
X54274000Y-54228000D01*
D12*
X55189524Y-85047381D02*
X54856190Y-84571190D01*
X54618095Y-85047381D02*
X54618095Y-84047381D01*
X54999048Y-84047381D01*
X55094286Y-84095000D01*
X55141905Y-84142619D01*
X55189524Y-84237857D01*
X55189524Y-84380714D01*
X55141905Y-84475952D01*
X55094286Y-84523571D01*
X54999048Y-84571190D01*
X54618095Y-84571190D01*
X55618095Y-85047381D02*
X55618095Y-84047381D01*
X56189524Y-85047381D01*
X56189524Y-84047381D01*
X57141905Y-84047381D02*
X56665714Y-84047381D01*
X56618095Y-84523571D01*
X56665714Y-84475952D01*
X56760952Y-84428333D01*
X56999048Y-84428333D01*
X57094286Y-84475952D01*
X57141905Y-84523571D01*
X57189524Y-84618810D01*
X57189524Y-84856905D01*
X57141905Y-84952143D01*
X57094286Y-84999762D01*
X56999048Y-85047381D01*
X56760952Y-85047381D01*
X56665714Y-84999762D01*
X56618095Y-84952143D01*
X174212381Y-113482381D02*
X173879047Y-113006190D01*
X173640952Y-113482381D02*
X173640952Y-112482381D01*
X174021905Y-112482381D01*
X174117143Y-112530000D01*
X174164762Y-112577619D01*
X174212381Y-112672857D01*
X174212381Y-112815714D01*
X174164762Y-112910952D01*
X174117143Y-112958571D01*
X174021905Y-113006190D01*
X173640952Y-113006190D01*
X174640952Y-112958571D02*
X174974286Y-112958571D01*
X175117143Y-113482381D02*
X174640952Y-113482381D01*
X174640952Y-112482381D01*
X175117143Y-112482381D01*
X175879048Y-112958571D02*
X175545714Y-112958571D01*
X175545714Y-113482381D02*
X175545714Y-112482381D01*
X176021905Y-112482381D01*
X176879048Y-112482381D02*
X176402857Y-112482381D01*
X176355238Y-112958571D01*
X176402857Y-112910952D01*
X176498095Y-112863333D01*
X176736191Y-112863333D01*
X176831429Y-112910952D01*
X176879048Y-112958571D01*
X176926667Y-113053810D01*
X176926667Y-113291905D01*
X176879048Y-113387143D01*
X176831429Y-113434762D01*
X176736191Y-113482381D01*
X176498095Y-113482381D01*
X176402857Y-113434762D01*
X176355238Y-113387143D01*
X175812381Y-27377381D02*
X175479047Y-26901190D01*
X175240952Y-27377381D02*
X175240952Y-26377381D01*
X175621905Y-26377381D01*
X175717143Y-26425000D01*
X175764762Y-26472619D01*
X175812381Y-26567857D01*
X175812381Y-26710714D01*
X175764762Y-26805952D01*
X175717143Y-26853571D01*
X175621905Y-26901190D01*
X175240952Y-26901190D01*
X176240952Y-26853571D02*
X176574286Y-26853571D01*
X176717143Y-27377381D02*
X176240952Y-27377381D01*
X176240952Y-26377381D01*
X176717143Y-26377381D01*
X177479048Y-26853571D02*
X177145714Y-26853571D01*
X177145714Y-27377381D02*
X177145714Y-26377381D01*
X177621905Y-26377381D01*
X177955238Y-26472619D02*
X178002857Y-26425000D01*
X178098095Y-26377381D01*
X178336191Y-26377381D01*
X178431429Y-26425000D01*
X178479048Y-26472619D01*
X178526667Y-26567857D01*
X178526667Y-26663095D01*
X178479048Y-26805952D01*
X177907619Y-27377381D01*
X178526667Y-27377381D01*
X26812381Y-113317381D02*
X26479047Y-112841190D01*
X26240952Y-113317381D02*
X26240952Y-112317381D01*
X26621905Y-112317381D01*
X26717143Y-112365000D01*
X26764762Y-112412619D01*
X26812381Y-112507857D01*
X26812381Y-112650714D01*
X26764762Y-112745952D01*
X26717143Y-112793571D01*
X26621905Y-112841190D01*
X26240952Y-112841190D01*
X27240952Y-112793571D02*
X27574286Y-112793571D01*
X27717143Y-113317381D02*
X27240952Y-113317381D01*
X27240952Y-112317381D01*
X27717143Y-112317381D01*
X28479048Y-112793571D02*
X28145714Y-112793571D01*
X28145714Y-113317381D02*
X28145714Y-112317381D01*
X28621905Y-112317381D01*
X29431429Y-112650714D02*
X29431429Y-113317381D01*
X29193333Y-112269762D02*
X28955238Y-112984048D01*
X29574286Y-112984048D01*
X325392381Y-27377381D02*
X325059047Y-26901190D01*
X324820952Y-27377381D02*
X324820952Y-26377381D01*
X325201905Y-26377381D01*
X325297143Y-26425000D01*
X325344762Y-26472619D01*
X325392381Y-26567857D01*
X325392381Y-26710714D01*
X325344762Y-26805952D01*
X325297143Y-26853571D01*
X325201905Y-26901190D01*
X324820952Y-26901190D01*
X325820952Y-26853571D02*
X326154286Y-26853571D01*
X326297143Y-27377381D02*
X325820952Y-27377381D01*
X325820952Y-26377381D01*
X326297143Y-26377381D01*
X327059048Y-26853571D02*
X326725714Y-26853571D01*
X326725714Y-27377381D02*
X326725714Y-26377381D01*
X327201905Y-26377381D01*
X327487619Y-26377381D02*
X328106667Y-26377381D01*
X327773333Y-26758333D01*
X327916191Y-26758333D01*
X328011429Y-26805952D01*
X328059048Y-26853571D01*
X328106667Y-26948810D01*
X328106667Y-27186905D01*
X328059048Y-27282143D01*
X328011429Y-27329762D01*
X327916191Y-27377381D01*
X327630476Y-27377381D01*
X327535238Y-27329762D01*
X327487619Y-27282143D01*
X325392381Y-113317381D02*
X325059047Y-112841190D01*
X324820952Y-113317381D02*
X324820952Y-112317381D01*
X325201905Y-112317381D01*
X325297143Y-112365000D01*
X325344762Y-112412619D01*
X325392381Y-112507857D01*
X325392381Y-112650714D01*
X325344762Y-112745952D01*
X325297143Y-112793571D01*
X325201905Y-112841190D01*
X324820952Y-112841190D01*
X325820952Y-112793571D02*
X326154286Y-112793571D01*
X326297143Y-113317381D02*
X325820952Y-113317381D01*
X325820952Y-112317381D01*
X326297143Y-112317381D01*
X327059048Y-112793571D02*
X326725714Y-112793571D01*
X326725714Y-113317381D02*
X326725714Y-112317381D01*
X327201905Y-112317381D01*
X328011429Y-112317381D02*
X327820952Y-112317381D01*
X327725714Y-112365000D01*
X327678095Y-112412619D01*
X327582857Y-112555476D01*
X327535238Y-112745952D01*
X327535238Y-113126905D01*
X327582857Y-113222143D01*
X327630476Y-113269762D01*
X327725714Y-113317381D01*
X327916191Y-113317381D01*
X328011429Y-113269762D01*
X328059048Y-113222143D01*
X328106667Y-113126905D01*
X328106667Y-112888810D01*
X328059048Y-112793571D01*
X328011429Y-112745952D01*
X327916191Y-112698333D01*
X327725714Y-112698333D01*
X327630476Y-112745952D01*
X327582857Y-112793571D01*
X327535238Y-112888810D01*
X26336191Y-27377381D02*
X26002857Y-26901190D01*
X25764762Y-27377381D02*
X25764762Y-26377381D01*
X26145715Y-26377381D01*
X26240953Y-26425000D01*
X26288572Y-26472619D01*
X26336191Y-26567857D01*
X26336191Y-26710714D01*
X26288572Y-26805952D01*
X26240953Y-26853571D01*
X26145715Y-26901190D01*
X25764762Y-26901190D01*
X26764762Y-26853571D02*
X27098096Y-26853571D01*
X27240953Y-27377381D02*
X26764762Y-27377381D01*
X26764762Y-26377381D01*
X27240953Y-26377381D01*
X28002858Y-26853571D02*
X27669524Y-26853571D01*
X27669524Y-27377381D02*
X27669524Y-26377381D01*
X28145715Y-26377381D01*
X28717143Y-26377381D02*
X28812382Y-26377381D01*
X28907620Y-26425000D01*
X28955239Y-26472619D01*
X29002858Y-26567857D01*
X29050477Y-26758333D01*
X29050477Y-26996429D01*
X29002858Y-27186905D01*
X28955239Y-27282143D01*
X28907620Y-27329762D01*
X28812382Y-27377381D01*
X28717143Y-27377381D01*
X28621905Y-27329762D01*
X28574286Y-27282143D01*
X28526667Y-27186905D01*
X28479048Y-26996429D01*
X28479048Y-26758333D01*
X28526667Y-26567857D01*
X28574286Y-26472619D01*
X28621905Y-26425000D01*
X28717143Y-26377381D01*
X30002858Y-27377381D02*
X29431429Y-27377381D01*
X29717143Y-27377381D02*
X29717143Y-26377381D01*
X29621905Y-26520238D01*
X29526667Y-26615476D01*
X29431429Y-26663095D01*
M02*
