%TF.GenerationSoftware,KiCad,Pcbnew,4.0.7*%
%TF.CreationDate,2018-12-11T18:15:29-05:00*%
%TF.ProjectId,AOML_AB_2.2,414F4D4C5F41425F322E322E6B696361,rev?*%
%TF.FileFunction,Soldermask,Bot*%
%FSLAX46Y46*%
G04 Gerber Fmt 4.6, Leading zero omitted, Abs format (unit mm)*
G04 Created by KiCad (PCBNEW 4.0.7) date 12/11/18 18:15:29*
%MOMM*%
%LPD*%
G01*
G04 APERTURE LIST*
%ADD10C,0.100000*%
%ADD11R,2.400000X2.400000*%
%ADD12O,2.400000X2.400000*%
%ADD13R,1.600000X1.600000*%
%ADD14O,1.600000X1.600000*%
%ADD15C,2.500000*%
%ADD16C,1.600000*%
%ADD17O,3.500000X3.500000*%
%ADD18R,1.800000X1.800000*%
%ADD19O,1.800000X1.800000*%
%ADD20C,1.000000*%
%ADD21R,1.500000X2.000000*%
%ADD22O,1.500000X2.000000*%
%ADD23R,1.500000X1.500000*%
%ADD24C,1.500000*%
%ADD25C,3.650000*%
%ADD26C,1.760000*%
%ADD27R,1.760000X1.760000*%
%ADD28C,3.250000*%
G04 APERTURE END LIST*
D10*
D11*
X275944000Y-72838000D03*
D12*
X310944000Y-72838000D03*
D13*
X168944000Y-99838000D03*
D14*
X171484000Y-92218000D03*
X171484000Y-99838000D03*
X168944000Y-92218000D03*
D13*
X43180000Y-86995000D03*
D14*
X45720000Y-86995000D03*
X48260000Y-86995000D03*
X50800000Y-86995000D03*
X53340000Y-86995000D03*
X55880000Y-86995000D03*
X58420000Y-86995000D03*
X60960000Y-86995000D03*
X63500000Y-86995000D03*
X66040000Y-86995000D03*
D15*
X176860000Y-116365000D03*
X176860000Y-30425000D03*
X27860000Y-116365000D03*
X326440000Y-30425000D03*
X326440000Y-116365000D03*
D16*
X295944000Y-59838000D03*
X290944000Y-59838000D03*
X219944000Y-107838000D03*
X214944000Y-107838000D03*
X160944000Y-28838000D03*
X155944000Y-28838000D03*
D11*
X257944000Y-72838000D03*
D12*
X222944000Y-72838000D03*
D16*
X70944000Y-108838000D03*
X65944000Y-108838000D03*
X141944000Y-108838000D03*
X136944000Y-108838000D03*
X290944000Y-108838000D03*
X285944000Y-108838000D03*
X243944000Y-59838000D03*
X238944000Y-59838000D03*
X107950000Y-59055000D03*
X102950000Y-59055000D03*
X82550000Y-59055000D03*
X77550000Y-59055000D03*
D13*
X136944000Y-38838000D03*
D14*
X139484000Y-31218000D03*
X139484000Y-38838000D03*
X136944000Y-31218000D03*
D13*
X212944000Y-55838000D03*
D14*
X215484000Y-48218000D03*
X215484000Y-55838000D03*
X212944000Y-48218000D03*
D13*
X212944000Y-38838000D03*
D14*
X215484000Y-31218000D03*
X215484000Y-38838000D03*
X212944000Y-31218000D03*
D13*
X136944000Y-55838000D03*
D14*
X139484000Y-48218000D03*
X139484000Y-55838000D03*
X136944000Y-48218000D03*
D13*
X231944000Y-60838000D03*
D14*
X224324000Y-58298000D03*
X231944000Y-58298000D03*
X224324000Y-60838000D03*
D13*
X123190000Y-60325000D03*
D14*
X115570000Y-57785000D03*
X123190000Y-57785000D03*
X115570000Y-60325000D03*
D13*
X96520000Y-60325000D03*
D14*
X88900000Y-57785000D03*
X96520000Y-57785000D03*
X88900000Y-60325000D03*
D13*
X309944000Y-60838000D03*
D14*
X302324000Y-58298000D03*
X309944000Y-58298000D03*
X302324000Y-60838000D03*
D13*
X283944000Y-60838000D03*
D14*
X276324000Y-58298000D03*
X283944000Y-58298000D03*
X276324000Y-60838000D03*
D13*
X257944000Y-60838000D03*
D14*
X250324000Y-58298000D03*
X257944000Y-58298000D03*
X250324000Y-60838000D03*
D13*
X218944000Y-99838000D03*
D14*
X221484000Y-92218000D03*
X221484000Y-99838000D03*
X218944000Y-92218000D03*
D13*
X227944000Y-99838000D03*
D14*
X230484000Y-92218000D03*
X230484000Y-99838000D03*
X227944000Y-92218000D03*
D13*
X236944000Y-99838000D03*
D14*
X239484000Y-92218000D03*
X239484000Y-99838000D03*
X236944000Y-92218000D03*
D13*
X245944000Y-99838000D03*
D14*
X248484000Y-92218000D03*
X248484000Y-99838000D03*
X245944000Y-92218000D03*
D13*
X182944000Y-99838000D03*
D14*
X185484000Y-92218000D03*
X185484000Y-99838000D03*
X182944000Y-92218000D03*
D13*
X191944000Y-99838000D03*
D14*
X194484000Y-92218000D03*
X194484000Y-99838000D03*
X191944000Y-92218000D03*
D13*
X200944000Y-99838000D03*
D14*
X203484000Y-92218000D03*
X203484000Y-99838000D03*
X200944000Y-92218000D03*
D13*
X209944000Y-99838000D03*
D14*
X212484000Y-92218000D03*
X212484000Y-99838000D03*
X209944000Y-92218000D03*
D13*
X141944000Y-99838000D03*
D14*
X144484000Y-92218000D03*
X144484000Y-99838000D03*
X141944000Y-92218000D03*
D13*
X150944000Y-99838000D03*
D14*
X153484000Y-92218000D03*
X153484000Y-99838000D03*
X150944000Y-92218000D03*
D13*
X159944000Y-99838000D03*
D14*
X162484000Y-92218000D03*
X162484000Y-99838000D03*
X159944000Y-92218000D03*
D13*
X254944000Y-99838000D03*
D14*
X257484000Y-92218000D03*
X257484000Y-99838000D03*
X254944000Y-92218000D03*
D13*
X263944000Y-99838000D03*
D14*
X266484000Y-92218000D03*
X266484000Y-99838000D03*
X263944000Y-92218000D03*
D13*
X272944000Y-99838000D03*
D14*
X275484000Y-92218000D03*
X275484000Y-99838000D03*
X272944000Y-92218000D03*
D13*
X281944000Y-99838000D03*
D14*
X284484000Y-92218000D03*
X284484000Y-99838000D03*
X281944000Y-92218000D03*
D13*
X308944000Y-99838000D03*
D14*
X311484000Y-92218000D03*
X311484000Y-99838000D03*
X308944000Y-92218000D03*
D13*
X317944000Y-99838000D03*
D14*
X320484000Y-92218000D03*
X320484000Y-99838000D03*
X317944000Y-92218000D03*
D13*
X290944000Y-99838000D03*
D14*
X293484000Y-92218000D03*
X293484000Y-99838000D03*
X290944000Y-92218000D03*
D13*
X299944000Y-99838000D03*
D14*
X302484000Y-92218000D03*
X302484000Y-99838000D03*
X299944000Y-92218000D03*
D13*
X105944000Y-99838000D03*
D14*
X108484000Y-92218000D03*
X108484000Y-99838000D03*
X105944000Y-92218000D03*
D13*
X114944000Y-99838000D03*
D14*
X117484000Y-92218000D03*
X117484000Y-99838000D03*
X114944000Y-92218000D03*
D13*
X123944000Y-99838000D03*
D14*
X126484000Y-92218000D03*
X126484000Y-99838000D03*
X123944000Y-92218000D03*
D13*
X132944000Y-99838000D03*
D14*
X135484000Y-92218000D03*
X135484000Y-99838000D03*
X132944000Y-92218000D03*
D13*
X33944000Y-99838000D03*
D14*
X36484000Y-92218000D03*
X36484000Y-99838000D03*
X33944000Y-92218000D03*
D13*
X42944000Y-99838000D03*
D14*
X45484000Y-92218000D03*
X45484000Y-99838000D03*
X42944000Y-92218000D03*
D13*
X51944000Y-99838000D03*
D14*
X54484000Y-92218000D03*
X54484000Y-99838000D03*
X51944000Y-92218000D03*
D13*
X60944000Y-99838000D03*
D14*
X63484000Y-92218000D03*
X63484000Y-99838000D03*
X60944000Y-92218000D03*
D13*
X69944000Y-99838000D03*
D14*
X72484000Y-92218000D03*
X72484000Y-99838000D03*
X69944000Y-92218000D03*
D13*
X78944000Y-99838000D03*
D14*
X81484000Y-92218000D03*
X81484000Y-99838000D03*
X78944000Y-92218000D03*
D13*
X87944000Y-99838000D03*
D14*
X90484000Y-92218000D03*
X90484000Y-99838000D03*
X87944000Y-92218000D03*
D13*
X96944000Y-99838000D03*
D14*
X99484000Y-92218000D03*
X99484000Y-99838000D03*
X96944000Y-92218000D03*
D13*
X71120000Y-60325000D03*
D14*
X63500000Y-57785000D03*
X71120000Y-57785000D03*
X63500000Y-60325000D03*
D13*
X53340000Y-60325000D03*
D14*
X45720000Y-57785000D03*
X53340000Y-57785000D03*
X45720000Y-60325000D03*
D16*
X124460000Y-72390000D03*
D14*
X114300000Y-72390000D03*
D16*
X154944000Y-68838000D03*
D14*
X144784000Y-68838000D03*
D16*
X113944000Y-78838000D03*
D14*
X124104000Y-78838000D03*
D16*
X182944000Y-29838000D03*
D14*
X193104000Y-29838000D03*
D16*
X150944000Y-33838000D03*
D14*
X161104000Y-33838000D03*
D16*
X197944000Y-29838000D03*
D14*
X208104000Y-29838000D03*
D16*
X104944000Y-76838000D03*
D14*
X104944000Y-66678000D03*
D13*
X191944000Y-66838000D03*
D14*
X194484000Y-66838000D03*
X197024000Y-66838000D03*
X199564000Y-66838000D03*
X202104000Y-66838000D03*
X204644000Y-66838000D03*
X207184000Y-66838000D03*
X209724000Y-66838000D03*
X212264000Y-66838000D03*
X214804000Y-66838000D03*
D13*
X301944000Y-83838000D03*
D14*
X304484000Y-83838000D03*
X307024000Y-83838000D03*
X309564000Y-83838000D03*
X312104000Y-83838000D03*
X314644000Y-83838000D03*
X317184000Y-83838000D03*
X319724000Y-83838000D03*
X322264000Y-83838000D03*
X324804000Y-83838000D03*
D13*
X191944000Y-83838000D03*
D14*
X194484000Y-83838000D03*
X197024000Y-83838000D03*
X199564000Y-83838000D03*
X202104000Y-83838000D03*
X204644000Y-83838000D03*
X207184000Y-83838000D03*
X209724000Y-83838000D03*
X212264000Y-83838000D03*
X214804000Y-83838000D03*
D13*
X81280000Y-86995000D03*
D14*
X83820000Y-86995000D03*
X86360000Y-86995000D03*
X88900000Y-86995000D03*
X91440000Y-86995000D03*
X93980000Y-86995000D03*
X96520000Y-86995000D03*
X99060000Y-86995000D03*
X101600000Y-86995000D03*
X104140000Y-86995000D03*
D13*
X130810000Y-64135000D03*
D14*
X138430000Y-86995000D03*
X130810000Y-66675000D03*
X138430000Y-84455000D03*
X130810000Y-69215000D03*
X138430000Y-81915000D03*
X130810000Y-71755000D03*
X138430000Y-79375000D03*
X130810000Y-74295000D03*
X138430000Y-76835000D03*
X130810000Y-76835000D03*
X138430000Y-74295000D03*
X130810000Y-79375000D03*
X138430000Y-71755000D03*
X130810000Y-81915000D03*
X138430000Y-69215000D03*
X130810000Y-84455000D03*
X138430000Y-66675000D03*
X130810000Y-86995000D03*
X138430000Y-64135000D03*
D17*
X266484000Y-62178000D03*
D18*
X263944000Y-78838000D03*
D19*
X266484000Y-78838000D03*
X269024000Y-78838000D03*
D20*
X99944000Y-29798000D03*
X87944000Y-29798000D03*
D21*
X96944000Y-27838000D03*
D22*
X93944000Y-27838000D03*
X90944000Y-27838000D03*
D20*
X125944000Y-29798000D03*
X113944000Y-29798000D03*
D21*
X122944000Y-27838000D03*
D22*
X119944000Y-27838000D03*
X116944000Y-27838000D03*
D20*
X237944000Y-29798000D03*
X225944000Y-29798000D03*
D21*
X234944000Y-27838000D03*
D22*
X231944000Y-27838000D03*
X228944000Y-27838000D03*
D20*
X314944000Y-29798000D03*
X302944000Y-29798000D03*
D21*
X311944000Y-27838000D03*
D22*
X308944000Y-27838000D03*
X305944000Y-27838000D03*
D20*
X288944000Y-29798000D03*
X276944000Y-29798000D03*
D21*
X285944000Y-27838000D03*
D22*
X282944000Y-27838000D03*
X279944000Y-27838000D03*
D20*
X263944000Y-29798000D03*
X251944000Y-29798000D03*
D21*
X260944000Y-27838000D03*
D22*
X257944000Y-27838000D03*
X254944000Y-27838000D03*
D20*
X75944000Y-29798000D03*
X63944000Y-29798000D03*
D21*
X72944000Y-27838000D03*
D22*
X69944000Y-27838000D03*
X66944000Y-27838000D03*
D20*
X50944000Y-29798000D03*
X38944000Y-29798000D03*
D21*
X47944000Y-27838000D03*
D22*
X44944000Y-27838000D03*
X41944000Y-27838000D03*
D15*
X27860000Y-30425000D03*
D23*
X73214000Y-65298000D03*
D24*
X71944000Y-67838000D03*
D25*
X82324000Y-74188000D03*
X70454000Y-74188000D03*
D24*
X74484000Y-67838000D03*
X75754000Y-65298000D03*
X77024000Y-67838000D03*
X78294000Y-65298000D03*
X79564000Y-67838000D03*
X80834000Y-65298000D03*
D26*
X41910000Y-69215000D03*
D27*
X41910000Y-74295000D03*
D26*
X39370000Y-70485000D03*
X39370000Y-73025000D03*
X41910000Y-71755000D03*
X39370000Y-75565000D03*
D28*
X33020000Y-77475000D03*
X33020000Y-67315000D03*
D26*
X45944000Y-104838000D03*
D27*
X51024000Y-104838000D03*
D26*
X47214000Y-107378000D03*
X49754000Y-107378000D03*
X48484000Y-104838000D03*
X52294000Y-107378000D03*
D28*
X54204000Y-113728000D03*
X44044000Y-113728000D03*
D26*
X82944000Y-104838000D03*
D27*
X88024000Y-104838000D03*
D26*
X84214000Y-107378000D03*
X86754000Y-107378000D03*
X85484000Y-104838000D03*
X89294000Y-107378000D03*
D28*
X91204000Y-113728000D03*
X81044000Y-113728000D03*
D26*
X153944000Y-104838000D03*
D27*
X159024000Y-104838000D03*
D26*
X155214000Y-107378000D03*
X157754000Y-107378000D03*
X156484000Y-104838000D03*
X160294000Y-107378000D03*
D28*
X162204000Y-113728000D03*
X152044000Y-113728000D03*
D26*
X117944000Y-104838000D03*
D27*
X123024000Y-104838000D03*
D26*
X119214000Y-107378000D03*
X121754000Y-107378000D03*
X120484000Y-104838000D03*
X124294000Y-107378000D03*
D28*
X126204000Y-113728000D03*
X116044000Y-113728000D03*
D26*
X302944000Y-104838000D03*
D27*
X308024000Y-104838000D03*
D26*
X304214000Y-107378000D03*
X306754000Y-107378000D03*
X305484000Y-104838000D03*
X309294000Y-107378000D03*
D28*
X311204000Y-113728000D03*
X301044000Y-113728000D03*
D26*
X267033000Y-104648000D03*
D27*
X272113000Y-104648000D03*
D26*
X268303000Y-107188000D03*
X270843000Y-107188000D03*
X269573000Y-104648000D03*
X273383000Y-107188000D03*
D28*
X275293000Y-113538000D03*
X265133000Y-113538000D03*
D26*
X231944000Y-104838000D03*
D27*
X237024000Y-104838000D03*
D26*
X233214000Y-107378000D03*
X235754000Y-107378000D03*
X234484000Y-104838000D03*
X238294000Y-107378000D03*
D28*
X240204000Y-113728000D03*
X230044000Y-113728000D03*
D26*
X194944000Y-104838000D03*
D27*
X200024000Y-104838000D03*
D26*
X196214000Y-107378000D03*
X198754000Y-107378000D03*
X197484000Y-104838000D03*
X201294000Y-107378000D03*
D28*
X203204000Y-113728000D03*
X193044000Y-113728000D03*
D13*
X153944000Y-57838000D03*
D14*
X146324000Y-40058000D03*
X153944000Y-55298000D03*
X146324000Y-45138000D03*
X153944000Y-50218000D03*
X146324000Y-50218000D03*
X153944000Y-45138000D03*
X146324000Y-55298000D03*
X153944000Y-40058000D03*
X146324000Y-57838000D03*
D13*
X166944000Y-57838000D03*
D14*
X159324000Y-40058000D03*
X166944000Y-55298000D03*
X159324000Y-45138000D03*
X166944000Y-50218000D03*
X159324000Y-50218000D03*
X166944000Y-45138000D03*
X159324000Y-55298000D03*
X166944000Y-40058000D03*
X159324000Y-57838000D03*
D13*
X179944000Y-57838000D03*
D14*
X172324000Y-40058000D03*
X179944000Y-55298000D03*
X172324000Y-45138000D03*
X179944000Y-50218000D03*
X172324000Y-50218000D03*
X179944000Y-45138000D03*
X172324000Y-55298000D03*
X179944000Y-40058000D03*
X172324000Y-57838000D03*
D13*
X192944000Y-57838000D03*
D14*
X185324000Y-40058000D03*
X192944000Y-55298000D03*
X185324000Y-45138000D03*
X192944000Y-50218000D03*
X185324000Y-50218000D03*
X192944000Y-45138000D03*
X185324000Y-55298000D03*
X192944000Y-40058000D03*
X185324000Y-57838000D03*
D13*
X205944000Y-57838000D03*
D14*
X198324000Y-40058000D03*
X205944000Y-55298000D03*
X198324000Y-45138000D03*
X205944000Y-50218000D03*
X198324000Y-50218000D03*
X205944000Y-45138000D03*
X198324000Y-55298000D03*
X205944000Y-40058000D03*
X198324000Y-57838000D03*
D13*
X229944000Y-52838000D03*
D14*
X222324000Y-35058000D03*
X229944000Y-50298000D03*
X222324000Y-40138000D03*
X229944000Y-45218000D03*
X222324000Y-45218000D03*
X229944000Y-40138000D03*
X222324000Y-50298000D03*
X229944000Y-35058000D03*
X222324000Y-52838000D03*
D13*
X242944000Y-52838000D03*
D14*
X235324000Y-35058000D03*
X242944000Y-50298000D03*
X235324000Y-40138000D03*
X242944000Y-45218000D03*
X235324000Y-45218000D03*
X242944000Y-40138000D03*
X235324000Y-50298000D03*
X242944000Y-35058000D03*
X235324000Y-52838000D03*
D13*
X130944000Y-52838000D03*
D14*
X123324000Y-35058000D03*
X130944000Y-50298000D03*
X123324000Y-40138000D03*
X130944000Y-45218000D03*
X123324000Y-45218000D03*
X130944000Y-40138000D03*
X123324000Y-50298000D03*
X130944000Y-35058000D03*
X123324000Y-52838000D03*
D13*
X117944000Y-52838000D03*
D14*
X110324000Y-35058000D03*
X117944000Y-50298000D03*
X110324000Y-40138000D03*
X117944000Y-45218000D03*
X110324000Y-45218000D03*
X117944000Y-40138000D03*
X110324000Y-50298000D03*
X117944000Y-35058000D03*
X110324000Y-52838000D03*
D13*
X91944000Y-52838000D03*
D14*
X84324000Y-35058000D03*
X91944000Y-50298000D03*
X84324000Y-40138000D03*
X91944000Y-45218000D03*
X84324000Y-45218000D03*
X91944000Y-40138000D03*
X84324000Y-50298000D03*
X91944000Y-35058000D03*
X84324000Y-52838000D03*
D13*
X104944000Y-52838000D03*
D14*
X97324000Y-35058000D03*
X104944000Y-50298000D03*
X97324000Y-40138000D03*
X104944000Y-45218000D03*
X97324000Y-45218000D03*
X104944000Y-40138000D03*
X97324000Y-50298000D03*
X104944000Y-35058000D03*
X97324000Y-52838000D03*
D13*
X306944000Y-52838000D03*
D14*
X299324000Y-35058000D03*
X306944000Y-50298000D03*
X299324000Y-40138000D03*
X306944000Y-45218000D03*
X299324000Y-45218000D03*
X306944000Y-40138000D03*
X299324000Y-50298000D03*
X306944000Y-35058000D03*
X299324000Y-52838000D03*
D13*
X319944000Y-52838000D03*
D14*
X312324000Y-35058000D03*
X319944000Y-50298000D03*
X312324000Y-40138000D03*
X319944000Y-45218000D03*
X312324000Y-45218000D03*
X319944000Y-40138000D03*
X312324000Y-50298000D03*
X319944000Y-35058000D03*
X312324000Y-52838000D03*
D13*
X280944000Y-52838000D03*
D14*
X273324000Y-35058000D03*
X280944000Y-50298000D03*
X273324000Y-40138000D03*
X280944000Y-45218000D03*
X273324000Y-45218000D03*
X280944000Y-40138000D03*
X273324000Y-50298000D03*
X280944000Y-35058000D03*
X273324000Y-52838000D03*
D13*
X293944000Y-52838000D03*
D14*
X286324000Y-35058000D03*
X293944000Y-50298000D03*
X286324000Y-40138000D03*
X293944000Y-45218000D03*
X286324000Y-45218000D03*
X293944000Y-40138000D03*
X286324000Y-50298000D03*
X293944000Y-35058000D03*
X286324000Y-52838000D03*
D13*
X255944000Y-52838000D03*
D14*
X248324000Y-35058000D03*
X255944000Y-50298000D03*
X248324000Y-40138000D03*
X255944000Y-45218000D03*
X248324000Y-45218000D03*
X255944000Y-40138000D03*
X248324000Y-50298000D03*
X255944000Y-35058000D03*
X248324000Y-52838000D03*
D13*
X268944000Y-52838000D03*
D14*
X261324000Y-35058000D03*
X268944000Y-50298000D03*
X261324000Y-40138000D03*
X268944000Y-45218000D03*
X261324000Y-45218000D03*
X268944000Y-40138000D03*
X261324000Y-50298000D03*
X268944000Y-35058000D03*
X261324000Y-52838000D03*
D13*
X65944000Y-52838000D03*
D14*
X58324000Y-35058000D03*
X65944000Y-50298000D03*
X58324000Y-40138000D03*
X65944000Y-45218000D03*
X58324000Y-45218000D03*
X65944000Y-40138000D03*
X58324000Y-50298000D03*
X65944000Y-35058000D03*
X58324000Y-52838000D03*
D13*
X78944000Y-52838000D03*
D14*
X71324000Y-35058000D03*
X78944000Y-50298000D03*
X71324000Y-40138000D03*
X78944000Y-45218000D03*
X71324000Y-45218000D03*
X78944000Y-40138000D03*
X71324000Y-50298000D03*
X78944000Y-35058000D03*
X71324000Y-52838000D03*
D13*
X39944000Y-52838000D03*
D14*
X32324000Y-35058000D03*
X39944000Y-50298000D03*
X32324000Y-40138000D03*
X39944000Y-45218000D03*
X32324000Y-45218000D03*
X39944000Y-40138000D03*
X32324000Y-50298000D03*
X39944000Y-35058000D03*
X32324000Y-52838000D03*
D13*
X52944000Y-52838000D03*
D14*
X45324000Y-35058000D03*
X52944000Y-50298000D03*
X45324000Y-40138000D03*
X52944000Y-45218000D03*
X45324000Y-45218000D03*
X52944000Y-40138000D03*
X45324000Y-50298000D03*
X52944000Y-35058000D03*
X45324000Y-52838000D03*
M02*
