%TF.GenerationSoftware,KiCad,Pcbnew,4.0.7*%
%TF.CreationDate,2018-12-11T18:31:46-05:00*%
%TF.ProjectId,AOML_AB_2.2,414F4D4C5F41425F322E322E6B696361,rev?*%
%TF.FileFunction,Other,Fab,Top*%
%FSLAX46Y46*%
G04 Gerber Fmt 4.6, Leading zero omitted, Abs format (unit mm)*
G04 Created by KiCad (PCBNEW 4.0.7) date 12/11/18 18:31:46*
%MOMM*%
%LPD*%
G01*
G04 APERTURE LIST*
%ADD10C,0.100000*%
%ADD11C,0.150000*%
G04 APERTURE END LIST*
D10*
X22860000Y-121925000D02*
X22860000Y-22225000D01*
X332760000Y-121925000D02*
X22860000Y-121925000D01*
X332760000Y-22225000D02*
X332760000Y-121925000D01*
X22860000Y-22225000D02*
X332760000Y-22225000D01*
X278944000Y-66338000D02*
X278944000Y-79338000D01*
X307944000Y-66338000D02*
X307944000Y-79338000D01*
X278944000Y-66338000D02*
X280684000Y-66338000D01*
X280684000Y-66338000D02*
X281584000Y-67238000D01*
X281584000Y-67238000D02*
X282484000Y-66338000D01*
X282484000Y-66338000D02*
X307944000Y-66338000D01*
X278944000Y-79338000D02*
X280684000Y-79338000D01*
X280684000Y-79338000D02*
X281584000Y-78438000D01*
X281584000Y-78438000D02*
X282484000Y-79338000D01*
X282484000Y-79338000D02*
X307944000Y-79338000D01*
X275944000Y-72838000D02*
X278944000Y-72838000D01*
X310944000Y-72838000D02*
X307944000Y-72838000D01*
X280694000Y-72838000D02*
X282494000Y-72838000D01*
X281594000Y-71938000D02*
X281594000Y-73738000D01*
X167674000Y-98203000D02*
X167674000Y-92853000D01*
X167674000Y-92853000D02*
X172754000Y-92853000D01*
X172754000Y-92853000D02*
X172754000Y-99203000D01*
X172754000Y-99203000D02*
X168674000Y-99203000D01*
X168674000Y-99203000D02*
X167674000Y-98203000D01*
X41890000Y-85745000D02*
X41890000Y-88245000D01*
X41890000Y-88245000D02*
X67330000Y-88245000D01*
X67330000Y-88245000D02*
X67330000Y-85745000D01*
X67330000Y-85745000D02*
X41890000Y-85745000D01*
X44450000Y-85745000D02*
X44450000Y-88245000D01*
X297044000Y-61588000D02*
X297044000Y-58088000D01*
X297044000Y-58088000D02*
X289844000Y-58088000D01*
X289844000Y-58088000D02*
X289844000Y-61588000D01*
X289844000Y-61588000D02*
X297044000Y-61588000D01*
X221044000Y-109588000D02*
X221044000Y-106088000D01*
X221044000Y-106088000D02*
X213844000Y-106088000D01*
X213844000Y-106088000D02*
X213844000Y-109588000D01*
X213844000Y-109588000D02*
X221044000Y-109588000D01*
X162044000Y-30588000D02*
X162044000Y-27088000D01*
X162044000Y-27088000D02*
X154844000Y-27088000D01*
X154844000Y-27088000D02*
X154844000Y-30588000D01*
X154844000Y-30588000D02*
X162044000Y-30588000D01*
X254944000Y-79338000D02*
X254944000Y-66338000D01*
X225944000Y-79338000D02*
X225944000Y-66338000D01*
X254944000Y-79338000D02*
X253204000Y-79338000D01*
X253204000Y-79338000D02*
X252304000Y-78438000D01*
X252304000Y-78438000D02*
X251404000Y-79338000D01*
X251404000Y-79338000D02*
X225944000Y-79338000D01*
X254944000Y-66338000D02*
X253204000Y-66338000D01*
X253204000Y-66338000D02*
X252304000Y-67238000D01*
X252304000Y-67238000D02*
X251404000Y-66338000D01*
X251404000Y-66338000D02*
X225944000Y-66338000D01*
X257944000Y-72838000D02*
X254944000Y-72838000D01*
X222944000Y-72838000D02*
X225944000Y-72838000D01*
X253194000Y-72838000D02*
X251394000Y-72838000D01*
X252294000Y-73738000D02*
X252294000Y-71938000D01*
X72044000Y-110588000D02*
X72044000Y-107088000D01*
X72044000Y-107088000D02*
X64844000Y-107088000D01*
X64844000Y-107088000D02*
X64844000Y-110588000D01*
X64844000Y-110588000D02*
X72044000Y-110588000D01*
X143044000Y-110588000D02*
X143044000Y-107088000D01*
X143044000Y-107088000D02*
X135844000Y-107088000D01*
X135844000Y-107088000D02*
X135844000Y-110588000D01*
X135844000Y-110588000D02*
X143044000Y-110588000D01*
X292044000Y-110588000D02*
X292044000Y-107088000D01*
X292044000Y-107088000D02*
X284844000Y-107088000D01*
X284844000Y-107088000D02*
X284844000Y-110588000D01*
X284844000Y-110588000D02*
X292044000Y-110588000D01*
X245044000Y-61588000D02*
X245044000Y-58088000D01*
X245044000Y-58088000D02*
X237844000Y-58088000D01*
X237844000Y-58088000D02*
X237844000Y-61588000D01*
X237844000Y-61588000D02*
X245044000Y-61588000D01*
X109050000Y-60805000D02*
X109050000Y-57305000D01*
X109050000Y-57305000D02*
X101850000Y-57305000D01*
X101850000Y-57305000D02*
X101850000Y-60805000D01*
X101850000Y-60805000D02*
X109050000Y-60805000D01*
X83650000Y-60805000D02*
X83650000Y-57305000D01*
X83650000Y-57305000D02*
X76450000Y-57305000D01*
X76450000Y-57305000D02*
X76450000Y-60805000D01*
X76450000Y-60805000D02*
X83650000Y-60805000D01*
D11*
X176944000Y-70838000D02*
X176944000Y-81838000D01*
X176944000Y-81838000D02*
X164944000Y-81838000D01*
X164944000Y-81838000D02*
X164944000Y-69838000D01*
X164944000Y-69838000D02*
X175944000Y-69838000D01*
X175944000Y-69838000D02*
X176944000Y-70838000D01*
D10*
X135674000Y-37203000D02*
X135674000Y-31853000D01*
X135674000Y-31853000D02*
X140754000Y-31853000D01*
X140754000Y-31853000D02*
X140754000Y-38203000D01*
X140754000Y-38203000D02*
X136674000Y-38203000D01*
X136674000Y-38203000D02*
X135674000Y-37203000D01*
X211674000Y-54203000D02*
X211674000Y-48853000D01*
X211674000Y-48853000D02*
X216754000Y-48853000D01*
X216754000Y-48853000D02*
X216754000Y-55203000D01*
X216754000Y-55203000D02*
X212674000Y-55203000D01*
X212674000Y-55203000D02*
X211674000Y-54203000D01*
X211674000Y-37203000D02*
X211674000Y-31853000D01*
X211674000Y-31853000D02*
X216754000Y-31853000D01*
X216754000Y-31853000D02*
X216754000Y-38203000D01*
X216754000Y-38203000D02*
X212674000Y-38203000D01*
X212674000Y-38203000D02*
X211674000Y-37203000D01*
X135674000Y-54203000D02*
X135674000Y-48853000D01*
X135674000Y-48853000D02*
X140754000Y-48853000D01*
X140754000Y-48853000D02*
X140754000Y-55203000D01*
X140754000Y-55203000D02*
X136674000Y-55203000D01*
X136674000Y-55203000D02*
X135674000Y-54203000D01*
X230309000Y-62108000D02*
X224959000Y-62108000D01*
X224959000Y-62108000D02*
X224959000Y-57028000D01*
X224959000Y-57028000D02*
X231309000Y-57028000D01*
X231309000Y-57028000D02*
X231309000Y-61108000D01*
X231309000Y-61108000D02*
X230309000Y-62108000D01*
X121555000Y-61595000D02*
X116205000Y-61595000D01*
X116205000Y-61595000D02*
X116205000Y-56515000D01*
X116205000Y-56515000D02*
X122555000Y-56515000D01*
X122555000Y-56515000D02*
X122555000Y-60595000D01*
X122555000Y-60595000D02*
X121555000Y-61595000D01*
X94885000Y-61595000D02*
X89535000Y-61595000D01*
X89535000Y-61595000D02*
X89535000Y-56515000D01*
X89535000Y-56515000D02*
X95885000Y-56515000D01*
X95885000Y-56515000D02*
X95885000Y-60595000D01*
X95885000Y-60595000D02*
X94885000Y-61595000D01*
X308309000Y-62108000D02*
X302959000Y-62108000D01*
X302959000Y-62108000D02*
X302959000Y-57028000D01*
X302959000Y-57028000D02*
X309309000Y-57028000D01*
X309309000Y-57028000D02*
X309309000Y-61108000D01*
X309309000Y-61108000D02*
X308309000Y-62108000D01*
X282309000Y-62108000D02*
X276959000Y-62108000D01*
X276959000Y-62108000D02*
X276959000Y-57028000D01*
X276959000Y-57028000D02*
X283309000Y-57028000D01*
X283309000Y-57028000D02*
X283309000Y-61108000D01*
X283309000Y-61108000D02*
X282309000Y-62108000D01*
X256309000Y-62108000D02*
X250959000Y-62108000D01*
X250959000Y-62108000D02*
X250959000Y-57028000D01*
X250959000Y-57028000D02*
X257309000Y-57028000D01*
X257309000Y-57028000D02*
X257309000Y-61108000D01*
X257309000Y-61108000D02*
X256309000Y-62108000D01*
X217674000Y-98203000D02*
X217674000Y-92853000D01*
X217674000Y-92853000D02*
X222754000Y-92853000D01*
X222754000Y-92853000D02*
X222754000Y-99203000D01*
X222754000Y-99203000D02*
X218674000Y-99203000D01*
X218674000Y-99203000D02*
X217674000Y-98203000D01*
X226674000Y-98203000D02*
X226674000Y-92853000D01*
X226674000Y-92853000D02*
X231754000Y-92853000D01*
X231754000Y-92853000D02*
X231754000Y-99203000D01*
X231754000Y-99203000D02*
X227674000Y-99203000D01*
X227674000Y-99203000D02*
X226674000Y-98203000D01*
X235674000Y-98203000D02*
X235674000Y-92853000D01*
X235674000Y-92853000D02*
X240754000Y-92853000D01*
X240754000Y-92853000D02*
X240754000Y-99203000D01*
X240754000Y-99203000D02*
X236674000Y-99203000D01*
X236674000Y-99203000D02*
X235674000Y-98203000D01*
X244674000Y-98203000D02*
X244674000Y-92853000D01*
X244674000Y-92853000D02*
X249754000Y-92853000D01*
X249754000Y-92853000D02*
X249754000Y-99203000D01*
X249754000Y-99203000D02*
X245674000Y-99203000D01*
X245674000Y-99203000D02*
X244674000Y-98203000D01*
X181674000Y-98203000D02*
X181674000Y-92853000D01*
X181674000Y-92853000D02*
X186754000Y-92853000D01*
X186754000Y-92853000D02*
X186754000Y-99203000D01*
X186754000Y-99203000D02*
X182674000Y-99203000D01*
X182674000Y-99203000D02*
X181674000Y-98203000D01*
X190674000Y-98203000D02*
X190674000Y-92853000D01*
X190674000Y-92853000D02*
X195754000Y-92853000D01*
X195754000Y-92853000D02*
X195754000Y-99203000D01*
X195754000Y-99203000D02*
X191674000Y-99203000D01*
X191674000Y-99203000D02*
X190674000Y-98203000D01*
X199674000Y-98203000D02*
X199674000Y-92853000D01*
X199674000Y-92853000D02*
X204754000Y-92853000D01*
X204754000Y-92853000D02*
X204754000Y-99203000D01*
X204754000Y-99203000D02*
X200674000Y-99203000D01*
X200674000Y-99203000D02*
X199674000Y-98203000D01*
X208674000Y-98203000D02*
X208674000Y-92853000D01*
X208674000Y-92853000D02*
X213754000Y-92853000D01*
X213754000Y-92853000D02*
X213754000Y-99203000D01*
X213754000Y-99203000D02*
X209674000Y-99203000D01*
X209674000Y-99203000D02*
X208674000Y-98203000D01*
X140674000Y-98203000D02*
X140674000Y-92853000D01*
X140674000Y-92853000D02*
X145754000Y-92853000D01*
X145754000Y-92853000D02*
X145754000Y-99203000D01*
X145754000Y-99203000D02*
X141674000Y-99203000D01*
X141674000Y-99203000D02*
X140674000Y-98203000D01*
X149674000Y-98203000D02*
X149674000Y-92853000D01*
X149674000Y-92853000D02*
X154754000Y-92853000D01*
X154754000Y-92853000D02*
X154754000Y-99203000D01*
X154754000Y-99203000D02*
X150674000Y-99203000D01*
X150674000Y-99203000D02*
X149674000Y-98203000D01*
X158674000Y-98203000D02*
X158674000Y-92853000D01*
X158674000Y-92853000D02*
X163754000Y-92853000D01*
X163754000Y-92853000D02*
X163754000Y-99203000D01*
X163754000Y-99203000D02*
X159674000Y-99203000D01*
X159674000Y-99203000D02*
X158674000Y-98203000D01*
X253674000Y-98203000D02*
X253674000Y-92853000D01*
X253674000Y-92853000D02*
X258754000Y-92853000D01*
X258754000Y-92853000D02*
X258754000Y-99203000D01*
X258754000Y-99203000D02*
X254674000Y-99203000D01*
X254674000Y-99203000D02*
X253674000Y-98203000D01*
X262674000Y-98203000D02*
X262674000Y-92853000D01*
X262674000Y-92853000D02*
X267754000Y-92853000D01*
X267754000Y-92853000D02*
X267754000Y-99203000D01*
X267754000Y-99203000D02*
X263674000Y-99203000D01*
X263674000Y-99203000D02*
X262674000Y-98203000D01*
X271674000Y-98203000D02*
X271674000Y-92853000D01*
X271674000Y-92853000D02*
X276754000Y-92853000D01*
X276754000Y-92853000D02*
X276754000Y-99203000D01*
X276754000Y-99203000D02*
X272674000Y-99203000D01*
X272674000Y-99203000D02*
X271674000Y-98203000D01*
X280674000Y-98203000D02*
X280674000Y-92853000D01*
X280674000Y-92853000D02*
X285754000Y-92853000D01*
X285754000Y-92853000D02*
X285754000Y-99203000D01*
X285754000Y-99203000D02*
X281674000Y-99203000D01*
X281674000Y-99203000D02*
X280674000Y-98203000D01*
X307674000Y-98203000D02*
X307674000Y-92853000D01*
X307674000Y-92853000D02*
X312754000Y-92853000D01*
X312754000Y-92853000D02*
X312754000Y-99203000D01*
X312754000Y-99203000D02*
X308674000Y-99203000D01*
X308674000Y-99203000D02*
X307674000Y-98203000D01*
X316674000Y-98203000D02*
X316674000Y-92853000D01*
X316674000Y-92853000D02*
X321754000Y-92853000D01*
X321754000Y-92853000D02*
X321754000Y-99203000D01*
X321754000Y-99203000D02*
X317674000Y-99203000D01*
X317674000Y-99203000D02*
X316674000Y-98203000D01*
X289674000Y-98203000D02*
X289674000Y-92853000D01*
X289674000Y-92853000D02*
X294754000Y-92853000D01*
X294754000Y-92853000D02*
X294754000Y-99203000D01*
X294754000Y-99203000D02*
X290674000Y-99203000D01*
X290674000Y-99203000D02*
X289674000Y-98203000D01*
X298674000Y-98203000D02*
X298674000Y-92853000D01*
X298674000Y-92853000D02*
X303754000Y-92853000D01*
X303754000Y-92853000D02*
X303754000Y-99203000D01*
X303754000Y-99203000D02*
X299674000Y-99203000D01*
X299674000Y-99203000D02*
X298674000Y-98203000D01*
X104674000Y-98203000D02*
X104674000Y-92853000D01*
X104674000Y-92853000D02*
X109754000Y-92853000D01*
X109754000Y-92853000D02*
X109754000Y-99203000D01*
X109754000Y-99203000D02*
X105674000Y-99203000D01*
X105674000Y-99203000D02*
X104674000Y-98203000D01*
X113674000Y-98203000D02*
X113674000Y-92853000D01*
X113674000Y-92853000D02*
X118754000Y-92853000D01*
X118754000Y-92853000D02*
X118754000Y-99203000D01*
X118754000Y-99203000D02*
X114674000Y-99203000D01*
X114674000Y-99203000D02*
X113674000Y-98203000D01*
X122674000Y-98203000D02*
X122674000Y-92853000D01*
X122674000Y-92853000D02*
X127754000Y-92853000D01*
X127754000Y-92853000D02*
X127754000Y-99203000D01*
X127754000Y-99203000D02*
X123674000Y-99203000D01*
X123674000Y-99203000D02*
X122674000Y-98203000D01*
X131674000Y-98203000D02*
X131674000Y-92853000D01*
X131674000Y-92853000D02*
X136754000Y-92853000D01*
X136754000Y-92853000D02*
X136754000Y-99203000D01*
X136754000Y-99203000D02*
X132674000Y-99203000D01*
X132674000Y-99203000D02*
X131674000Y-98203000D01*
X32674000Y-98203000D02*
X32674000Y-92853000D01*
X32674000Y-92853000D02*
X37754000Y-92853000D01*
X37754000Y-92853000D02*
X37754000Y-99203000D01*
X37754000Y-99203000D02*
X33674000Y-99203000D01*
X33674000Y-99203000D02*
X32674000Y-98203000D01*
X41674000Y-98203000D02*
X41674000Y-92853000D01*
X41674000Y-92853000D02*
X46754000Y-92853000D01*
X46754000Y-92853000D02*
X46754000Y-99203000D01*
X46754000Y-99203000D02*
X42674000Y-99203000D01*
X42674000Y-99203000D02*
X41674000Y-98203000D01*
X50674000Y-98203000D02*
X50674000Y-92853000D01*
X50674000Y-92853000D02*
X55754000Y-92853000D01*
X55754000Y-92853000D02*
X55754000Y-99203000D01*
X55754000Y-99203000D02*
X51674000Y-99203000D01*
X51674000Y-99203000D02*
X50674000Y-98203000D01*
X59674000Y-98203000D02*
X59674000Y-92853000D01*
X59674000Y-92853000D02*
X64754000Y-92853000D01*
X64754000Y-92853000D02*
X64754000Y-99203000D01*
X64754000Y-99203000D02*
X60674000Y-99203000D01*
X60674000Y-99203000D02*
X59674000Y-98203000D01*
X68674000Y-98203000D02*
X68674000Y-92853000D01*
X68674000Y-92853000D02*
X73754000Y-92853000D01*
X73754000Y-92853000D02*
X73754000Y-99203000D01*
X73754000Y-99203000D02*
X69674000Y-99203000D01*
X69674000Y-99203000D02*
X68674000Y-98203000D01*
X77674000Y-98203000D02*
X77674000Y-92853000D01*
X77674000Y-92853000D02*
X82754000Y-92853000D01*
X82754000Y-92853000D02*
X82754000Y-99203000D01*
X82754000Y-99203000D02*
X78674000Y-99203000D01*
X78674000Y-99203000D02*
X77674000Y-98203000D01*
X86674000Y-98203000D02*
X86674000Y-92853000D01*
X86674000Y-92853000D02*
X91754000Y-92853000D01*
X91754000Y-92853000D02*
X91754000Y-99203000D01*
X91754000Y-99203000D02*
X87674000Y-99203000D01*
X87674000Y-99203000D02*
X86674000Y-98203000D01*
X95674000Y-98203000D02*
X95674000Y-92853000D01*
X95674000Y-92853000D02*
X100754000Y-92853000D01*
X100754000Y-92853000D02*
X100754000Y-99203000D01*
X100754000Y-99203000D02*
X96674000Y-99203000D01*
X96674000Y-99203000D02*
X95674000Y-98203000D01*
X69485000Y-61595000D02*
X64135000Y-61595000D01*
X64135000Y-61595000D02*
X64135000Y-56515000D01*
X64135000Y-56515000D02*
X70485000Y-56515000D01*
X70485000Y-56515000D02*
X70485000Y-60595000D01*
X70485000Y-60595000D02*
X69485000Y-61595000D01*
X51705000Y-61595000D02*
X46355000Y-61595000D01*
X46355000Y-61595000D02*
X46355000Y-56515000D01*
X46355000Y-56515000D02*
X52705000Y-56515000D01*
X52705000Y-56515000D02*
X52705000Y-60595000D01*
X52705000Y-60595000D02*
X51705000Y-61595000D01*
X122530000Y-73640000D02*
X122530000Y-71140000D01*
X122530000Y-71140000D02*
X116230000Y-71140000D01*
X116230000Y-71140000D02*
X116230000Y-73640000D01*
X116230000Y-73640000D02*
X122530000Y-73640000D01*
X124460000Y-72390000D02*
X122530000Y-72390000D01*
X114300000Y-72390000D02*
X116230000Y-72390000D01*
X153014000Y-70088000D02*
X153014000Y-67588000D01*
X153014000Y-67588000D02*
X146714000Y-67588000D01*
X146714000Y-67588000D02*
X146714000Y-70088000D01*
X146714000Y-70088000D02*
X153014000Y-70088000D01*
X154944000Y-68838000D02*
X153014000Y-68838000D01*
X144784000Y-68838000D02*
X146714000Y-68838000D01*
X115874000Y-77588000D02*
X115874000Y-80088000D01*
X115874000Y-80088000D02*
X122174000Y-80088000D01*
X122174000Y-80088000D02*
X122174000Y-77588000D01*
X122174000Y-77588000D02*
X115874000Y-77588000D01*
X113944000Y-78838000D02*
X115874000Y-78838000D01*
X124104000Y-78838000D02*
X122174000Y-78838000D01*
X184874000Y-28588000D02*
X184874000Y-31088000D01*
X184874000Y-31088000D02*
X191174000Y-31088000D01*
X191174000Y-31088000D02*
X191174000Y-28588000D01*
X191174000Y-28588000D02*
X184874000Y-28588000D01*
X182944000Y-29838000D02*
X184874000Y-29838000D01*
X193104000Y-29838000D02*
X191174000Y-29838000D01*
X152874000Y-32588000D02*
X152874000Y-35088000D01*
X152874000Y-35088000D02*
X159174000Y-35088000D01*
X159174000Y-35088000D02*
X159174000Y-32588000D01*
X159174000Y-32588000D02*
X152874000Y-32588000D01*
X150944000Y-33838000D02*
X152874000Y-33838000D01*
X161104000Y-33838000D02*
X159174000Y-33838000D01*
X199874000Y-28588000D02*
X199874000Y-31088000D01*
X199874000Y-31088000D02*
X206174000Y-31088000D01*
X206174000Y-31088000D02*
X206174000Y-28588000D01*
X206174000Y-28588000D02*
X199874000Y-28588000D01*
X197944000Y-29838000D02*
X199874000Y-29838000D01*
X208104000Y-29838000D02*
X206174000Y-29838000D01*
X103694000Y-74908000D02*
X106194000Y-74908000D01*
X106194000Y-74908000D02*
X106194000Y-68608000D01*
X106194000Y-68608000D02*
X103694000Y-68608000D01*
X103694000Y-68608000D02*
X103694000Y-74908000D01*
X104944000Y-76838000D02*
X104944000Y-74908000D01*
X104944000Y-66678000D02*
X104944000Y-68608000D01*
X190654000Y-65588000D02*
X190654000Y-68088000D01*
X190654000Y-68088000D02*
X216094000Y-68088000D01*
X216094000Y-68088000D02*
X216094000Y-65588000D01*
X216094000Y-65588000D02*
X190654000Y-65588000D01*
X193214000Y-65588000D02*
X193214000Y-68088000D01*
X300654000Y-82588000D02*
X300654000Y-85088000D01*
X300654000Y-85088000D02*
X326094000Y-85088000D01*
X326094000Y-85088000D02*
X326094000Y-82588000D01*
X326094000Y-82588000D02*
X300654000Y-82588000D01*
X303214000Y-82588000D02*
X303214000Y-85088000D01*
X190654000Y-82588000D02*
X190654000Y-85088000D01*
X190654000Y-85088000D02*
X216094000Y-85088000D01*
X216094000Y-85088000D02*
X216094000Y-82588000D01*
X216094000Y-82588000D02*
X190654000Y-82588000D01*
X193214000Y-82588000D02*
X193214000Y-85088000D01*
X79990000Y-85745000D02*
X79990000Y-88245000D01*
X79990000Y-88245000D02*
X105430000Y-88245000D01*
X105430000Y-88245000D02*
X105430000Y-85745000D01*
X105430000Y-85745000D02*
X79990000Y-85745000D01*
X82550000Y-85745000D02*
X82550000Y-88245000D01*
X132445000Y-62865000D02*
X137795000Y-62865000D01*
X137795000Y-62865000D02*
X137795000Y-88265000D01*
X137795000Y-88265000D02*
X131445000Y-88265000D01*
X131445000Y-88265000D02*
X131445000Y-63865000D01*
X131445000Y-63865000D02*
X132445000Y-62865000D01*
X129540000Y-62805000D02*
X129540000Y-88325000D01*
X129540000Y-88325000D02*
X139700000Y-88325000D01*
X139700000Y-88325000D02*
X139700000Y-62805000D01*
X139700000Y-62805000D02*
X129540000Y-62805000D01*
X261484000Y-65778000D02*
X261484000Y-59378000D01*
X261484000Y-59378000D02*
X271484000Y-59378000D01*
X271484000Y-59378000D02*
X271484000Y-65778000D01*
X271484000Y-65778000D02*
X261484000Y-65778000D01*
X261484000Y-75028000D02*
X261484000Y-65778000D01*
X261484000Y-65778000D02*
X271484000Y-65778000D01*
X271484000Y-65778000D02*
X271484000Y-75028000D01*
X271484000Y-75028000D02*
X261484000Y-75028000D01*
X263944000Y-75028000D02*
X263944000Y-78838000D01*
X266484000Y-75028000D02*
X266484000Y-78838000D01*
X269024000Y-75028000D02*
X269024000Y-78838000D01*
X268334000Y-62178000D02*
G75*
G03X268334000Y-62178000I-1850000J0D01*
G01*
X99069000Y-29808000D02*
X99069000Y-30308000D01*
X99069000Y-30308000D02*
X100269000Y-30308000D01*
X100269000Y-30308000D02*
X100269000Y-25938000D01*
X100269000Y-25938000D02*
X87619000Y-25938000D01*
X87619000Y-25938000D02*
X87619000Y-30308000D01*
X87619000Y-30308000D02*
X88819000Y-30308000D01*
X88819000Y-30308000D02*
X88819000Y-29808000D01*
X88819000Y-29808000D02*
X99069000Y-29808000D01*
X100269000Y-29178000D02*
X99069000Y-29808000D01*
X87619000Y-29178000D02*
X88819000Y-29808000D01*
X94644000Y-25938000D02*
X94644000Y-24538000D01*
X94644000Y-24538000D02*
X93244000Y-24538000D01*
X93244000Y-24538000D02*
X93244000Y-25938000D01*
X97444000Y-29808000D02*
X96944000Y-29100893D01*
X96944000Y-29100893D02*
X96444000Y-29808000D01*
X125069000Y-29808000D02*
X125069000Y-30308000D01*
X125069000Y-30308000D02*
X126269000Y-30308000D01*
X126269000Y-30308000D02*
X126269000Y-25938000D01*
X126269000Y-25938000D02*
X113619000Y-25938000D01*
X113619000Y-25938000D02*
X113619000Y-30308000D01*
X113619000Y-30308000D02*
X114819000Y-30308000D01*
X114819000Y-30308000D02*
X114819000Y-29808000D01*
X114819000Y-29808000D02*
X125069000Y-29808000D01*
X126269000Y-29178000D02*
X125069000Y-29808000D01*
X113619000Y-29178000D02*
X114819000Y-29808000D01*
X120644000Y-25938000D02*
X120644000Y-24538000D01*
X120644000Y-24538000D02*
X119244000Y-24538000D01*
X119244000Y-24538000D02*
X119244000Y-25938000D01*
X123444000Y-29808000D02*
X122944000Y-29100893D01*
X122944000Y-29100893D02*
X122444000Y-29808000D01*
X237069000Y-29808000D02*
X237069000Y-30308000D01*
X237069000Y-30308000D02*
X238269000Y-30308000D01*
X238269000Y-30308000D02*
X238269000Y-25938000D01*
X238269000Y-25938000D02*
X225619000Y-25938000D01*
X225619000Y-25938000D02*
X225619000Y-30308000D01*
X225619000Y-30308000D02*
X226819000Y-30308000D01*
X226819000Y-30308000D02*
X226819000Y-29808000D01*
X226819000Y-29808000D02*
X237069000Y-29808000D01*
X238269000Y-29178000D02*
X237069000Y-29808000D01*
X225619000Y-29178000D02*
X226819000Y-29808000D01*
X232644000Y-25938000D02*
X232644000Y-24538000D01*
X232644000Y-24538000D02*
X231244000Y-24538000D01*
X231244000Y-24538000D02*
X231244000Y-25938000D01*
X235444000Y-29808000D02*
X234944000Y-29100893D01*
X234944000Y-29100893D02*
X234444000Y-29808000D01*
X314069000Y-29808000D02*
X314069000Y-30308000D01*
X314069000Y-30308000D02*
X315269000Y-30308000D01*
X315269000Y-30308000D02*
X315269000Y-25938000D01*
X315269000Y-25938000D02*
X302619000Y-25938000D01*
X302619000Y-25938000D02*
X302619000Y-30308000D01*
X302619000Y-30308000D02*
X303819000Y-30308000D01*
X303819000Y-30308000D02*
X303819000Y-29808000D01*
X303819000Y-29808000D02*
X314069000Y-29808000D01*
X315269000Y-29178000D02*
X314069000Y-29808000D01*
X302619000Y-29178000D02*
X303819000Y-29808000D01*
X309644000Y-25938000D02*
X309644000Y-24538000D01*
X309644000Y-24538000D02*
X308244000Y-24538000D01*
X308244000Y-24538000D02*
X308244000Y-25938000D01*
X312444000Y-29808000D02*
X311944000Y-29100893D01*
X311944000Y-29100893D02*
X311444000Y-29808000D01*
X288069000Y-29808000D02*
X288069000Y-30308000D01*
X288069000Y-30308000D02*
X289269000Y-30308000D01*
X289269000Y-30308000D02*
X289269000Y-25938000D01*
X289269000Y-25938000D02*
X276619000Y-25938000D01*
X276619000Y-25938000D02*
X276619000Y-30308000D01*
X276619000Y-30308000D02*
X277819000Y-30308000D01*
X277819000Y-30308000D02*
X277819000Y-29808000D01*
X277819000Y-29808000D02*
X288069000Y-29808000D01*
X289269000Y-29178000D02*
X288069000Y-29808000D01*
X276619000Y-29178000D02*
X277819000Y-29808000D01*
X283644000Y-25938000D02*
X283644000Y-24538000D01*
X283644000Y-24538000D02*
X282244000Y-24538000D01*
X282244000Y-24538000D02*
X282244000Y-25938000D01*
X286444000Y-29808000D02*
X285944000Y-29100893D01*
X285944000Y-29100893D02*
X285444000Y-29808000D01*
X263069000Y-29808000D02*
X263069000Y-30308000D01*
X263069000Y-30308000D02*
X264269000Y-30308000D01*
X264269000Y-30308000D02*
X264269000Y-25938000D01*
X264269000Y-25938000D02*
X251619000Y-25938000D01*
X251619000Y-25938000D02*
X251619000Y-30308000D01*
X251619000Y-30308000D02*
X252819000Y-30308000D01*
X252819000Y-30308000D02*
X252819000Y-29808000D01*
X252819000Y-29808000D02*
X263069000Y-29808000D01*
X264269000Y-29178000D02*
X263069000Y-29808000D01*
X251619000Y-29178000D02*
X252819000Y-29808000D01*
X258644000Y-25938000D02*
X258644000Y-24538000D01*
X258644000Y-24538000D02*
X257244000Y-24538000D01*
X257244000Y-24538000D02*
X257244000Y-25938000D01*
X261444000Y-29808000D02*
X260944000Y-29100893D01*
X260944000Y-29100893D02*
X260444000Y-29808000D01*
X75069000Y-29808000D02*
X75069000Y-30308000D01*
X75069000Y-30308000D02*
X76269000Y-30308000D01*
X76269000Y-30308000D02*
X76269000Y-25938000D01*
X76269000Y-25938000D02*
X63619000Y-25938000D01*
X63619000Y-25938000D02*
X63619000Y-30308000D01*
X63619000Y-30308000D02*
X64819000Y-30308000D01*
X64819000Y-30308000D02*
X64819000Y-29808000D01*
X64819000Y-29808000D02*
X75069000Y-29808000D01*
X76269000Y-29178000D02*
X75069000Y-29808000D01*
X63619000Y-29178000D02*
X64819000Y-29808000D01*
X70644000Y-25938000D02*
X70644000Y-24538000D01*
X70644000Y-24538000D02*
X69244000Y-24538000D01*
X69244000Y-24538000D02*
X69244000Y-25938000D01*
X73444000Y-29808000D02*
X72944000Y-29100893D01*
X72944000Y-29100893D02*
X72444000Y-29808000D01*
X50069000Y-29808000D02*
X50069000Y-30308000D01*
X50069000Y-30308000D02*
X51269000Y-30308000D01*
X51269000Y-30308000D02*
X51269000Y-25938000D01*
X51269000Y-25938000D02*
X38619000Y-25938000D01*
X38619000Y-25938000D02*
X38619000Y-30308000D01*
X38619000Y-30308000D02*
X39819000Y-30308000D01*
X39819000Y-30308000D02*
X39819000Y-29808000D01*
X39819000Y-29808000D02*
X50069000Y-29808000D01*
X51269000Y-29178000D02*
X50069000Y-29808000D01*
X38619000Y-29178000D02*
X39819000Y-29808000D01*
X45644000Y-25938000D02*
X45644000Y-24538000D01*
X45644000Y-24538000D02*
X44244000Y-24538000D01*
X44244000Y-24538000D02*
X44244000Y-25938000D01*
X48444000Y-29808000D02*
X47944000Y-29100893D01*
X47944000Y-29100893D02*
X47444000Y-29808000D01*
X30140000Y-78995000D02*
X43140000Y-78995000D01*
X43140000Y-65795000D02*
X30150000Y-65795000D01*
X43140000Y-65795000D02*
X43140000Y-78995000D01*
X30140000Y-65795000D02*
X30140000Y-78995000D01*
X55724000Y-116608000D02*
X55724000Y-103608000D01*
X42524000Y-103608000D02*
X42524000Y-116598000D01*
X42524000Y-103608000D02*
X55724000Y-103608000D01*
X42524000Y-116608000D02*
X55724000Y-116608000D01*
X92724000Y-116608000D02*
X92724000Y-103608000D01*
X79524000Y-103608000D02*
X79524000Y-116598000D01*
X79524000Y-103608000D02*
X92724000Y-103608000D01*
X79524000Y-116608000D02*
X92724000Y-116608000D01*
X163724000Y-116608000D02*
X163724000Y-103608000D01*
X150524000Y-103608000D02*
X150524000Y-116598000D01*
X150524000Y-103608000D02*
X163724000Y-103608000D01*
X150524000Y-116608000D02*
X163724000Y-116608000D01*
X127724000Y-116608000D02*
X127724000Y-103608000D01*
X114524000Y-103608000D02*
X114524000Y-116598000D01*
X114524000Y-103608000D02*
X127724000Y-103608000D01*
X114524000Y-116608000D02*
X127724000Y-116608000D01*
X312724000Y-116608000D02*
X312724000Y-103608000D01*
X299524000Y-103608000D02*
X299524000Y-116598000D01*
X299524000Y-103608000D02*
X312724000Y-103608000D01*
X299524000Y-116608000D02*
X312724000Y-116608000D01*
X276813000Y-116418000D02*
X276813000Y-103418000D01*
X263613000Y-103418000D02*
X263613000Y-116408000D01*
X263613000Y-103418000D02*
X276813000Y-103418000D01*
X263613000Y-116418000D02*
X276813000Y-116418000D01*
X241724000Y-116608000D02*
X241724000Y-103608000D01*
X228524000Y-103608000D02*
X228524000Y-116598000D01*
X228524000Y-103608000D02*
X241724000Y-103608000D01*
X228524000Y-116608000D02*
X241724000Y-116608000D01*
X204724000Y-116608000D02*
X204724000Y-103608000D01*
X191524000Y-103608000D02*
X191524000Y-116598000D01*
X191524000Y-103608000D02*
X204724000Y-103608000D01*
X191524000Y-116608000D02*
X204724000Y-116608000D01*
X152309000Y-59108000D02*
X146959000Y-59108000D01*
X146959000Y-59108000D02*
X146959000Y-38788000D01*
X146959000Y-38788000D02*
X153309000Y-38788000D01*
X153309000Y-38788000D02*
X153309000Y-58108000D01*
X153309000Y-58108000D02*
X152309000Y-59108000D01*
X155214000Y-59168000D02*
X155214000Y-38728000D01*
X155214000Y-38728000D02*
X145054000Y-38728000D01*
X145054000Y-38728000D02*
X145054000Y-59168000D01*
X145054000Y-59168000D02*
X155214000Y-59168000D01*
X165309000Y-59108000D02*
X159959000Y-59108000D01*
X159959000Y-59108000D02*
X159959000Y-38788000D01*
X159959000Y-38788000D02*
X166309000Y-38788000D01*
X166309000Y-38788000D02*
X166309000Y-58108000D01*
X166309000Y-58108000D02*
X165309000Y-59108000D01*
X168214000Y-59168000D02*
X168214000Y-38728000D01*
X168214000Y-38728000D02*
X158054000Y-38728000D01*
X158054000Y-38728000D02*
X158054000Y-59168000D01*
X158054000Y-59168000D02*
X168214000Y-59168000D01*
X178309000Y-59108000D02*
X172959000Y-59108000D01*
X172959000Y-59108000D02*
X172959000Y-38788000D01*
X172959000Y-38788000D02*
X179309000Y-38788000D01*
X179309000Y-38788000D02*
X179309000Y-58108000D01*
X179309000Y-58108000D02*
X178309000Y-59108000D01*
X181214000Y-59168000D02*
X181214000Y-38728000D01*
X181214000Y-38728000D02*
X171054000Y-38728000D01*
X171054000Y-38728000D02*
X171054000Y-59168000D01*
X171054000Y-59168000D02*
X181214000Y-59168000D01*
X191309000Y-59108000D02*
X185959000Y-59108000D01*
X185959000Y-59108000D02*
X185959000Y-38788000D01*
X185959000Y-38788000D02*
X192309000Y-38788000D01*
X192309000Y-38788000D02*
X192309000Y-58108000D01*
X192309000Y-58108000D02*
X191309000Y-59108000D01*
X194214000Y-59168000D02*
X194214000Y-38728000D01*
X194214000Y-38728000D02*
X184054000Y-38728000D01*
X184054000Y-38728000D02*
X184054000Y-59168000D01*
X184054000Y-59168000D02*
X194214000Y-59168000D01*
X204309000Y-59108000D02*
X198959000Y-59108000D01*
X198959000Y-59108000D02*
X198959000Y-38788000D01*
X198959000Y-38788000D02*
X205309000Y-38788000D01*
X205309000Y-38788000D02*
X205309000Y-58108000D01*
X205309000Y-58108000D02*
X204309000Y-59108000D01*
X207214000Y-59168000D02*
X207214000Y-38728000D01*
X207214000Y-38728000D02*
X197054000Y-38728000D01*
X197054000Y-38728000D02*
X197054000Y-59168000D01*
X197054000Y-59168000D02*
X207214000Y-59168000D01*
X228309000Y-54108000D02*
X222959000Y-54108000D01*
X222959000Y-54108000D02*
X222959000Y-33788000D01*
X222959000Y-33788000D02*
X229309000Y-33788000D01*
X229309000Y-33788000D02*
X229309000Y-53108000D01*
X229309000Y-53108000D02*
X228309000Y-54108000D01*
X231214000Y-54168000D02*
X231214000Y-33728000D01*
X231214000Y-33728000D02*
X221054000Y-33728000D01*
X221054000Y-33728000D02*
X221054000Y-54168000D01*
X221054000Y-54168000D02*
X231214000Y-54168000D01*
X241309000Y-54108000D02*
X235959000Y-54108000D01*
X235959000Y-54108000D02*
X235959000Y-33788000D01*
X235959000Y-33788000D02*
X242309000Y-33788000D01*
X242309000Y-33788000D02*
X242309000Y-53108000D01*
X242309000Y-53108000D02*
X241309000Y-54108000D01*
X244214000Y-54168000D02*
X244214000Y-33728000D01*
X244214000Y-33728000D02*
X234054000Y-33728000D01*
X234054000Y-33728000D02*
X234054000Y-54168000D01*
X234054000Y-54168000D02*
X244214000Y-54168000D01*
X129309000Y-54108000D02*
X123959000Y-54108000D01*
X123959000Y-54108000D02*
X123959000Y-33788000D01*
X123959000Y-33788000D02*
X130309000Y-33788000D01*
X130309000Y-33788000D02*
X130309000Y-53108000D01*
X130309000Y-53108000D02*
X129309000Y-54108000D01*
X132214000Y-54168000D02*
X132214000Y-33728000D01*
X132214000Y-33728000D02*
X122054000Y-33728000D01*
X122054000Y-33728000D02*
X122054000Y-54168000D01*
X122054000Y-54168000D02*
X132214000Y-54168000D01*
X116309000Y-54108000D02*
X110959000Y-54108000D01*
X110959000Y-54108000D02*
X110959000Y-33788000D01*
X110959000Y-33788000D02*
X117309000Y-33788000D01*
X117309000Y-33788000D02*
X117309000Y-53108000D01*
X117309000Y-53108000D02*
X116309000Y-54108000D01*
X119214000Y-54168000D02*
X119214000Y-33728000D01*
X119214000Y-33728000D02*
X109054000Y-33728000D01*
X109054000Y-33728000D02*
X109054000Y-54168000D01*
X109054000Y-54168000D02*
X119214000Y-54168000D01*
X90309000Y-54108000D02*
X84959000Y-54108000D01*
X84959000Y-54108000D02*
X84959000Y-33788000D01*
X84959000Y-33788000D02*
X91309000Y-33788000D01*
X91309000Y-33788000D02*
X91309000Y-53108000D01*
X91309000Y-53108000D02*
X90309000Y-54108000D01*
X93214000Y-54168000D02*
X93214000Y-33728000D01*
X93214000Y-33728000D02*
X83054000Y-33728000D01*
X83054000Y-33728000D02*
X83054000Y-54168000D01*
X83054000Y-54168000D02*
X93214000Y-54168000D01*
X103309000Y-54108000D02*
X97959000Y-54108000D01*
X97959000Y-54108000D02*
X97959000Y-33788000D01*
X97959000Y-33788000D02*
X104309000Y-33788000D01*
X104309000Y-33788000D02*
X104309000Y-53108000D01*
X104309000Y-53108000D02*
X103309000Y-54108000D01*
X106214000Y-54168000D02*
X106214000Y-33728000D01*
X106214000Y-33728000D02*
X96054000Y-33728000D01*
X96054000Y-33728000D02*
X96054000Y-54168000D01*
X96054000Y-54168000D02*
X106214000Y-54168000D01*
X305309000Y-54108000D02*
X299959000Y-54108000D01*
X299959000Y-54108000D02*
X299959000Y-33788000D01*
X299959000Y-33788000D02*
X306309000Y-33788000D01*
X306309000Y-33788000D02*
X306309000Y-53108000D01*
X306309000Y-53108000D02*
X305309000Y-54108000D01*
X308214000Y-54168000D02*
X308214000Y-33728000D01*
X308214000Y-33728000D02*
X298054000Y-33728000D01*
X298054000Y-33728000D02*
X298054000Y-54168000D01*
X298054000Y-54168000D02*
X308214000Y-54168000D01*
X318309000Y-54108000D02*
X312959000Y-54108000D01*
X312959000Y-54108000D02*
X312959000Y-33788000D01*
X312959000Y-33788000D02*
X319309000Y-33788000D01*
X319309000Y-33788000D02*
X319309000Y-53108000D01*
X319309000Y-53108000D02*
X318309000Y-54108000D01*
X321214000Y-54168000D02*
X321214000Y-33728000D01*
X321214000Y-33728000D02*
X311054000Y-33728000D01*
X311054000Y-33728000D02*
X311054000Y-54168000D01*
X311054000Y-54168000D02*
X321214000Y-54168000D01*
X279309000Y-54108000D02*
X273959000Y-54108000D01*
X273959000Y-54108000D02*
X273959000Y-33788000D01*
X273959000Y-33788000D02*
X280309000Y-33788000D01*
X280309000Y-33788000D02*
X280309000Y-53108000D01*
X280309000Y-53108000D02*
X279309000Y-54108000D01*
X282214000Y-54168000D02*
X282214000Y-33728000D01*
X282214000Y-33728000D02*
X272054000Y-33728000D01*
X272054000Y-33728000D02*
X272054000Y-54168000D01*
X272054000Y-54168000D02*
X282214000Y-54168000D01*
X292309000Y-54108000D02*
X286959000Y-54108000D01*
X286959000Y-54108000D02*
X286959000Y-33788000D01*
X286959000Y-33788000D02*
X293309000Y-33788000D01*
X293309000Y-33788000D02*
X293309000Y-53108000D01*
X293309000Y-53108000D02*
X292309000Y-54108000D01*
X295214000Y-54168000D02*
X295214000Y-33728000D01*
X295214000Y-33728000D02*
X285054000Y-33728000D01*
X285054000Y-33728000D02*
X285054000Y-54168000D01*
X285054000Y-54168000D02*
X295214000Y-54168000D01*
X254309000Y-54108000D02*
X248959000Y-54108000D01*
X248959000Y-54108000D02*
X248959000Y-33788000D01*
X248959000Y-33788000D02*
X255309000Y-33788000D01*
X255309000Y-33788000D02*
X255309000Y-53108000D01*
X255309000Y-53108000D02*
X254309000Y-54108000D01*
X257214000Y-54168000D02*
X257214000Y-33728000D01*
X257214000Y-33728000D02*
X247054000Y-33728000D01*
X247054000Y-33728000D02*
X247054000Y-54168000D01*
X247054000Y-54168000D02*
X257214000Y-54168000D01*
X267309000Y-54108000D02*
X261959000Y-54108000D01*
X261959000Y-54108000D02*
X261959000Y-33788000D01*
X261959000Y-33788000D02*
X268309000Y-33788000D01*
X268309000Y-33788000D02*
X268309000Y-53108000D01*
X268309000Y-53108000D02*
X267309000Y-54108000D01*
X270214000Y-54168000D02*
X270214000Y-33728000D01*
X270214000Y-33728000D02*
X260054000Y-33728000D01*
X260054000Y-33728000D02*
X260054000Y-54168000D01*
X260054000Y-54168000D02*
X270214000Y-54168000D01*
X64309000Y-54108000D02*
X58959000Y-54108000D01*
X58959000Y-54108000D02*
X58959000Y-33788000D01*
X58959000Y-33788000D02*
X65309000Y-33788000D01*
X65309000Y-33788000D02*
X65309000Y-53108000D01*
X65309000Y-53108000D02*
X64309000Y-54108000D01*
X67214000Y-54168000D02*
X67214000Y-33728000D01*
X67214000Y-33728000D02*
X57054000Y-33728000D01*
X57054000Y-33728000D02*
X57054000Y-54168000D01*
X57054000Y-54168000D02*
X67214000Y-54168000D01*
X77309000Y-54108000D02*
X71959000Y-54108000D01*
X71959000Y-54108000D02*
X71959000Y-33788000D01*
X71959000Y-33788000D02*
X78309000Y-33788000D01*
X78309000Y-33788000D02*
X78309000Y-53108000D01*
X78309000Y-53108000D02*
X77309000Y-54108000D01*
X80214000Y-54168000D02*
X80214000Y-33728000D01*
X80214000Y-33728000D02*
X70054000Y-33728000D01*
X70054000Y-33728000D02*
X70054000Y-54168000D01*
X70054000Y-54168000D02*
X80214000Y-54168000D01*
X38309000Y-54108000D02*
X32959000Y-54108000D01*
X32959000Y-54108000D02*
X32959000Y-33788000D01*
X32959000Y-33788000D02*
X39309000Y-33788000D01*
X39309000Y-33788000D02*
X39309000Y-53108000D01*
X39309000Y-53108000D02*
X38309000Y-54108000D01*
X41214000Y-54168000D02*
X41214000Y-33728000D01*
X41214000Y-33728000D02*
X31054000Y-33728000D01*
X31054000Y-33728000D02*
X31054000Y-54168000D01*
X31054000Y-54168000D02*
X41214000Y-54168000D01*
X51309000Y-54108000D02*
X45959000Y-54108000D01*
X45959000Y-54108000D02*
X45959000Y-33788000D01*
X45959000Y-33788000D02*
X52309000Y-33788000D01*
X52309000Y-33788000D02*
X52309000Y-53108000D01*
X52309000Y-53108000D02*
X51309000Y-54108000D01*
X54214000Y-54168000D02*
X54214000Y-33728000D01*
X54214000Y-33728000D02*
X44054000Y-33728000D01*
X44054000Y-33728000D02*
X44054000Y-54168000D01*
X44054000Y-54168000D02*
X54214000Y-54168000D01*
D11*
X293277334Y-73195143D02*
X293229715Y-73242762D01*
X293086858Y-73290381D01*
X292991620Y-73290381D01*
X292848762Y-73242762D01*
X292753524Y-73147524D01*
X292705905Y-73052286D01*
X292658286Y-72861810D01*
X292658286Y-72718952D01*
X292705905Y-72528476D01*
X292753524Y-72433238D01*
X292848762Y-72338000D01*
X292991620Y-72290381D01*
X293086858Y-72290381D01*
X293229715Y-72338000D01*
X293277334Y-72385619D01*
X294134477Y-72623714D02*
X294134477Y-73290381D01*
X293896381Y-72242762D02*
X293658286Y-72957048D01*
X294277334Y-72957048D01*
X170761619Y-96599428D02*
X170714000Y-96694666D01*
X170618762Y-96789904D01*
X170475905Y-96932761D01*
X170428286Y-97028000D01*
X170428286Y-97123238D01*
X170666381Y-97075619D02*
X170618762Y-97170857D01*
X170523524Y-97266095D01*
X170333048Y-97313714D01*
X169999714Y-97313714D01*
X169809238Y-97266095D01*
X169714000Y-97170857D01*
X169666381Y-97075619D01*
X169666381Y-96885142D01*
X169714000Y-96789904D01*
X169809238Y-96694666D01*
X169999714Y-96647047D01*
X170333048Y-96647047D01*
X170523524Y-96694666D01*
X170618762Y-96789904D01*
X170666381Y-96885142D01*
X170666381Y-97075619D01*
X169761619Y-96266095D02*
X169714000Y-96218476D01*
X169666381Y-96123238D01*
X169666381Y-95885142D01*
X169714000Y-95789904D01*
X169761619Y-95742285D01*
X169856857Y-95694666D01*
X169952095Y-95694666D01*
X170094952Y-95742285D01*
X170666381Y-96313714D01*
X170666381Y-95694666D01*
X169666381Y-95361333D02*
X169666381Y-94742285D01*
X170047333Y-95075619D01*
X170047333Y-94932761D01*
X170094952Y-94837523D01*
X170142571Y-94789904D01*
X170237810Y-94742285D01*
X170475905Y-94742285D01*
X170571143Y-94789904D01*
X170618762Y-94837523D01*
X170666381Y-94932761D01*
X170666381Y-95218476D01*
X170618762Y-95313714D01*
X170571143Y-95361333D01*
X55284762Y-89847381D02*
X54713333Y-89847381D01*
X54999047Y-89847381D02*
X54999047Y-88847381D01*
X54903809Y-88990238D01*
X54808571Y-89085476D01*
X54713333Y-89133095D01*
X55903809Y-88847381D02*
X55999048Y-88847381D01*
X56094286Y-88895000D01*
X56141905Y-88942619D01*
X56189524Y-89037857D01*
X56237143Y-89228333D01*
X56237143Y-89466429D01*
X56189524Y-89656905D01*
X56141905Y-89752143D01*
X56094286Y-89799762D01*
X55999048Y-89847381D01*
X55903809Y-89847381D01*
X55808571Y-89799762D01*
X55760952Y-89752143D01*
X55713333Y-89656905D01*
X55665714Y-89466429D01*
X55665714Y-89228333D01*
X55713333Y-89037857D01*
X55760952Y-88942619D01*
X55808571Y-88895000D01*
X55903809Y-88847381D01*
X56665714Y-89847381D02*
X56665714Y-88847381D01*
X56760952Y-89466429D02*
X57046667Y-89847381D01*
X57046667Y-89180714D02*
X56665714Y-89561667D01*
X169169524Y-120317381D02*
X169169524Y-119317381D01*
X169502858Y-120031667D01*
X169836191Y-119317381D01*
X169836191Y-120317381D01*
X170455238Y-120317381D02*
X170360000Y-120269762D01*
X170312381Y-120222143D01*
X170264762Y-120126905D01*
X170264762Y-119841190D01*
X170312381Y-119745952D01*
X170360000Y-119698333D01*
X170455238Y-119650714D01*
X170598096Y-119650714D01*
X170693334Y-119698333D01*
X170740953Y-119745952D01*
X170788572Y-119841190D01*
X170788572Y-120126905D01*
X170740953Y-120222143D01*
X170693334Y-120269762D01*
X170598096Y-120317381D01*
X170455238Y-120317381D01*
X171645715Y-119650714D02*
X171645715Y-120317381D01*
X171217143Y-119650714D02*
X171217143Y-120174524D01*
X171264762Y-120269762D01*
X171360000Y-120317381D01*
X171502858Y-120317381D01*
X171598096Y-120269762D01*
X171645715Y-120222143D01*
X172121905Y-119650714D02*
X172121905Y-120317381D01*
X172121905Y-119745952D02*
X172169524Y-119698333D01*
X172264762Y-119650714D01*
X172407620Y-119650714D01*
X172502858Y-119698333D01*
X172550477Y-119793571D01*
X172550477Y-120317381D01*
X172883810Y-119650714D02*
X173264762Y-119650714D01*
X173026667Y-119317381D02*
X173026667Y-120174524D01*
X173074286Y-120269762D01*
X173169524Y-120317381D01*
X173264762Y-120317381D01*
X173598096Y-120317381D02*
X173598096Y-119650714D01*
X173598096Y-119317381D02*
X173550477Y-119365000D01*
X173598096Y-119412619D01*
X173645715Y-119365000D01*
X173598096Y-119317381D01*
X173598096Y-119412619D01*
X174074286Y-119650714D02*
X174074286Y-120317381D01*
X174074286Y-119745952D02*
X174121905Y-119698333D01*
X174217143Y-119650714D01*
X174360001Y-119650714D01*
X174455239Y-119698333D01*
X174502858Y-119793571D01*
X174502858Y-120317381D01*
X175407620Y-119650714D02*
X175407620Y-120460238D01*
X175360001Y-120555476D01*
X175312382Y-120603095D01*
X175217143Y-120650714D01*
X175074286Y-120650714D01*
X174979048Y-120603095D01*
X175407620Y-120269762D02*
X175312382Y-120317381D01*
X175121905Y-120317381D01*
X175026667Y-120269762D01*
X174979048Y-120222143D01*
X174931429Y-120126905D01*
X174931429Y-119841190D01*
X174979048Y-119745952D01*
X175026667Y-119698333D01*
X175121905Y-119650714D01*
X175312382Y-119650714D01*
X175407620Y-119698333D01*
X175883810Y-120317381D02*
X175883810Y-119317381D01*
X175883810Y-119793571D02*
X176455239Y-119793571D01*
X176455239Y-120317381D02*
X176455239Y-119317381D01*
X177074286Y-120317381D02*
X176979048Y-120269762D01*
X176931429Y-120222143D01*
X176883810Y-120126905D01*
X176883810Y-119841190D01*
X176931429Y-119745952D01*
X176979048Y-119698333D01*
X177074286Y-119650714D01*
X177217144Y-119650714D01*
X177312382Y-119698333D01*
X177360001Y-119745952D01*
X177407620Y-119841190D01*
X177407620Y-120126905D01*
X177360001Y-120222143D01*
X177312382Y-120269762D01*
X177217144Y-120317381D01*
X177074286Y-120317381D01*
X177979048Y-120317381D02*
X177883810Y-120269762D01*
X177836191Y-120174524D01*
X177836191Y-119317381D01*
X178740954Y-120269762D02*
X178645716Y-120317381D01*
X178455239Y-120317381D01*
X178360001Y-120269762D01*
X178312382Y-120174524D01*
X178312382Y-119793571D01*
X178360001Y-119698333D01*
X178455239Y-119650714D01*
X178645716Y-119650714D01*
X178740954Y-119698333D01*
X178788573Y-119793571D01*
X178788573Y-119888810D01*
X178312382Y-119984048D01*
X178979049Y-120412619D02*
X179740954Y-120412619D01*
X179931430Y-119412619D02*
X179979049Y-119365000D01*
X180074287Y-119317381D01*
X180312383Y-119317381D01*
X180407621Y-119365000D01*
X180455240Y-119412619D01*
X180502859Y-119507857D01*
X180502859Y-119603095D01*
X180455240Y-119745952D01*
X179883811Y-120317381D01*
X180502859Y-120317381D01*
X180931430Y-120222143D02*
X180979049Y-120269762D01*
X180931430Y-120317381D01*
X180883811Y-120269762D01*
X180931430Y-120222143D01*
X180931430Y-120317381D01*
X181883811Y-119317381D02*
X181407620Y-119317381D01*
X181360001Y-119793571D01*
X181407620Y-119745952D01*
X181502858Y-119698333D01*
X181740954Y-119698333D01*
X181836192Y-119745952D01*
X181883811Y-119793571D01*
X181931430Y-119888810D01*
X181931430Y-120126905D01*
X181883811Y-120222143D01*
X181836192Y-120269762D01*
X181740954Y-120317381D01*
X181502858Y-120317381D01*
X181407620Y-120269762D01*
X181360001Y-120222143D01*
X182360001Y-120317381D02*
X182360001Y-119650714D01*
X182360001Y-119745952D02*
X182407620Y-119698333D01*
X182502858Y-119650714D01*
X182645716Y-119650714D01*
X182740954Y-119698333D01*
X182788573Y-119793571D01*
X182788573Y-120317381D01*
X182788573Y-119793571D02*
X182836192Y-119698333D01*
X182931430Y-119650714D01*
X183074287Y-119650714D01*
X183169525Y-119698333D01*
X183217144Y-119793571D01*
X183217144Y-120317381D01*
X183693334Y-120317381D02*
X183693334Y-119650714D01*
X183693334Y-119745952D02*
X183740953Y-119698333D01*
X183836191Y-119650714D01*
X183979049Y-119650714D01*
X184074287Y-119698333D01*
X184121906Y-119793571D01*
X184121906Y-120317381D01*
X184121906Y-119793571D02*
X184169525Y-119698333D01*
X184264763Y-119650714D01*
X184407620Y-119650714D01*
X184502858Y-119698333D01*
X184550477Y-119793571D01*
X184550477Y-120317381D01*
X176112381Y-116817381D02*
X175779047Y-116341190D01*
X175540952Y-116817381D02*
X175540952Y-115817381D01*
X175921905Y-115817381D01*
X176017143Y-115865000D01*
X176064762Y-115912619D01*
X176112381Y-116007857D01*
X176112381Y-116150714D01*
X176064762Y-116245952D01*
X176017143Y-116293571D01*
X175921905Y-116341190D01*
X175540952Y-116341190D01*
X176540952Y-116293571D02*
X176874286Y-116293571D01*
X177017143Y-116817381D02*
X176540952Y-116817381D01*
X176540952Y-115817381D01*
X177017143Y-115817381D01*
X177779048Y-116293571D02*
X177445714Y-116293571D01*
X177445714Y-116817381D02*
X177445714Y-115817381D01*
X177921905Y-115817381D01*
X178779048Y-115817381D02*
X178302857Y-115817381D01*
X178255238Y-116293571D01*
X178302857Y-116245952D01*
X178398095Y-116198333D01*
X178636191Y-116198333D01*
X178731429Y-116245952D01*
X178779048Y-116293571D01*
X178826667Y-116388810D01*
X178826667Y-116626905D01*
X178779048Y-116722143D01*
X178731429Y-116769762D01*
X178636191Y-116817381D01*
X178398095Y-116817381D01*
X178302857Y-116769762D01*
X178255238Y-116722143D01*
X169169524Y-34377381D02*
X169169524Y-33377381D01*
X169502858Y-34091667D01*
X169836191Y-33377381D01*
X169836191Y-34377381D01*
X170455238Y-34377381D02*
X170360000Y-34329762D01*
X170312381Y-34282143D01*
X170264762Y-34186905D01*
X170264762Y-33901190D01*
X170312381Y-33805952D01*
X170360000Y-33758333D01*
X170455238Y-33710714D01*
X170598096Y-33710714D01*
X170693334Y-33758333D01*
X170740953Y-33805952D01*
X170788572Y-33901190D01*
X170788572Y-34186905D01*
X170740953Y-34282143D01*
X170693334Y-34329762D01*
X170598096Y-34377381D01*
X170455238Y-34377381D01*
X171645715Y-33710714D02*
X171645715Y-34377381D01*
X171217143Y-33710714D02*
X171217143Y-34234524D01*
X171264762Y-34329762D01*
X171360000Y-34377381D01*
X171502858Y-34377381D01*
X171598096Y-34329762D01*
X171645715Y-34282143D01*
X172121905Y-33710714D02*
X172121905Y-34377381D01*
X172121905Y-33805952D02*
X172169524Y-33758333D01*
X172264762Y-33710714D01*
X172407620Y-33710714D01*
X172502858Y-33758333D01*
X172550477Y-33853571D01*
X172550477Y-34377381D01*
X172883810Y-33710714D02*
X173264762Y-33710714D01*
X173026667Y-33377381D02*
X173026667Y-34234524D01*
X173074286Y-34329762D01*
X173169524Y-34377381D01*
X173264762Y-34377381D01*
X173598096Y-34377381D02*
X173598096Y-33710714D01*
X173598096Y-33377381D02*
X173550477Y-33425000D01*
X173598096Y-33472619D01*
X173645715Y-33425000D01*
X173598096Y-33377381D01*
X173598096Y-33472619D01*
X174074286Y-33710714D02*
X174074286Y-34377381D01*
X174074286Y-33805952D02*
X174121905Y-33758333D01*
X174217143Y-33710714D01*
X174360001Y-33710714D01*
X174455239Y-33758333D01*
X174502858Y-33853571D01*
X174502858Y-34377381D01*
X175407620Y-33710714D02*
X175407620Y-34520238D01*
X175360001Y-34615476D01*
X175312382Y-34663095D01*
X175217143Y-34710714D01*
X175074286Y-34710714D01*
X174979048Y-34663095D01*
X175407620Y-34329762D02*
X175312382Y-34377381D01*
X175121905Y-34377381D01*
X175026667Y-34329762D01*
X174979048Y-34282143D01*
X174931429Y-34186905D01*
X174931429Y-33901190D01*
X174979048Y-33805952D01*
X175026667Y-33758333D01*
X175121905Y-33710714D01*
X175312382Y-33710714D01*
X175407620Y-33758333D01*
X175883810Y-34377381D02*
X175883810Y-33377381D01*
X175883810Y-33853571D02*
X176455239Y-33853571D01*
X176455239Y-34377381D02*
X176455239Y-33377381D01*
X177074286Y-34377381D02*
X176979048Y-34329762D01*
X176931429Y-34282143D01*
X176883810Y-34186905D01*
X176883810Y-33901190D01*
X176931429Y-33805952D01*
X176979048Y-33758333D01*
X177074286Y-33710714D01*
X177217144Y-33710714D01*
X177312382Y-33758333D01*
X177360001Y-33805952D01*
X177407620Y-33901190D01*
X177407620Y-34186905D01*
X177360001Y-34282143D01*
X177312382Y-34329762D01*
X177217144Y-34377381D01*
X177074286Y-34377381D01*
X177979048Y-34377381D02*
X177883810Y-34329762D01*
X177836191Y-34234524D01*
X177836191Y-33377381D01*
X178740954Y-34329762D02*
X178645716Y-34377381D01*
X178455239Y-34377381D01*
X178360001Y-34329762D01*
X178312382Y-34234524D01*
X178312382Y-33853571D01*
X178360001Y-33758333D01*
X178455239Y-33710714D01*
X178645716Y-33710714D01*
X178740954Y-33758333D01*
X178788573Y-33853571D01*
X178788573Y-33948810D01*
X178312382Y-34044048D01*
X178979049Y-34472619D02*
X179740954Y-34472619D01*
X179931430Y-33472619D02*
X179979049Y-33425000D01*
X180074287Y-33377381D01*
X180312383Y-33377381D01*
X180407621Y-33425000D01*
X180455240Y-33472619D01*
X180502859Y-33567857D01*
X180502859Y-33663095D01*
X180455240Y-33805952D01*
X179883811Y-34377381D01*
X180502859Y-34377381D01*
X180931430Y-34282143D02*
X180979049Y-34329762D01*
X180931430Y-34377381D01*
X180883811Y-34329762D01*
X180931430Y-34282143D01*
X180931430Y-34377381D01*
X181883811Y-33377381D02*
X181407620Y-33377381D01*
X181360001Y-33853571D01*
X181407620Y-33805952D01*
X181502858Y-33758333D01*
X181740954Y-33758333D01*
X181836192Y-33805952D01*
X181883811Y-33853571D01*
X181931430Y-33948810D01*
X181931430Y-34186905D01*
X181883811Y-34282143D01*
X181836192Y-34329762D01*
X181740954Y-34377381D01*
X181502858Y-34377381D01*
X181407620Y-34329762D01*
X181360001Y-34282143D01*
X182360001Y-34377381D02*
X182360001Y-33710714D01*
X182360001Y-33805952D02*
X182407620Y-33758333D01*
X182502858Y-33710714D01*
X182645716Y-33710714D01*
X182740954Y-33758333D01*
X182788573Y-33853571D01*
X182788573Y-34377381D01*
X182788573Y-33853571D02*
X182836192Y-33758333D01*
X182931430Y-33710714D01*
X183074287Y-33710714D01*
X183169525Y-33758333D01*
X183217144Y-33853571D01*
X183217144Y-34377381D01*
X183693334Y-34377381D02*
X183693334Y-33710714D01*
X183693334Y-33805952D02*
X183740953Y-33758333D01*
X183836191Y-33710714D01*
X183979049Y-33710714D01*
X184074287Y-33758333D01*
X184121906Y-33853571D01*
X184121906Y-34377381D01*
X184121906Y-33853571D02*
X184169525Y-33758333D01*
X184264763Y-33710714D01*
X184407620Y-33710714D01*
X184502858Y-33758333D01*
X184550477Y-33853571D01*
X184550477Y-34377381D01*
X176112381Y-30877381D02*
X175779047Y-30401190D01*
X175540952Y-30877381D02*
X175540952Y-29877381D01*
X175921905Y-29877381D01*
X176017143Y-29925000D01*
X176064762Y-29972619D01*
X176112381Y-30067857D01*
X176112381Y-30210714D01*
X176064762Y-30305952D01*
X176017143Y-30353571D01*
X175921905Y-30401190D01*
X175540952Y-30401190D01*
X176540952Y-30353571D02*
X176874286Y-30353571D01*
X177017143Y-30877381D02*
X176540952Y-30877381D01*
X176540952Y-29877381D01*
X177017143Y-29877381D01*
X177779048Y-30353571D02*
X177445714Y-30353571D01*
X177445714Y-30877381D02*
X177445714Y-29877381D01*
X177921905Y-29877381D01*
X178255238Y-29972619D02*
X178302857Y-29925000D01*
X178398095Y-29877381D01*
X178636191Y-29877381D01*
X178731429Y-29925000D01*
X178779048Y-29972619D01*
X178826667Y-30067857D01*
X178826667Y-30163095D01*
X178779048Y-30305952D01*
X178207619Y-30877381D01*
X178826667Y-30877381D01*
X20169524Y-120317381D02*
X20169524Y-119317381D01*
X20502858Y-120031667D01*
X20836191Y-119317381D01*
X20836191Y-120317381D01*
X21455238Y-120317381D02*
X21360000Y-120269762D01*
X21312381Y-120222143D01*
X21264762Y-120126905D01*
X21264762Y-119841190D01*
X21312381Y-119745952D01*
X21360000Y-119698333D01*
X21455238Y-119650714D01*
X21598096Y-119650714D01*
X21693334Y-119698333D01*
X21740953Y-119745952D01*
X21788572Y-119841190D01*
X21788572Y-120126905D01*
X21740953Y-120222143D01*
X21693334Y-120269762D01*
X21598096Y-120317381D01*
X21455238Y-120317381D01*
X22645715Y-119650714D02*
X22645715Y-120317381D01*
X22217143Y-119650714D02*
X22217143Y-120174524D01*
X22264762Y-120269762D01*
X22360000Y-120317381D01*
X22502858Y-120317381D01*
X22598096Y-120269762D01*
X22645715Y-120222143D01*
X23121905Y-119650714D02*
X23121905Y-120317381D01*
X23121905Y-119745952D02*
X23169524Y-119698333D01*
X23264762Y-119650714D01*
X23407620Y-119650714D01*
X23502858Y-119698333D01*
X23550477Y-119793571D01*
X23550477Y-120317381D01*
X23883810Y-119650714D02*
X24264762Y-119650714D01*
X24026667Y-119317381D02*
X24026667Y-120174524D01*
X24074286Y-120269762D01*
X24169524Y-120317381D01*
X24264762Y-120317381D01*
X24598096Y-120317381D02*
X24598096Y-119650714D01*
X24598096Y-119317381D02*
X24550477Y-119365000D01*
X24598096Y-119412619D01*
X24645715Y-119365000D01*
X24598096Y-119317381D01*
X24598096Y-119412619D01*
X25074286Y-119650714D02*
X25074286Y-120317381D01*
X25074286Y-119745952D02*
X25121905Y-119698333D01*
X25217143Y-119650714D01*
X25360001Y-119650714D01*
X25455239Y-119698333D01*
X25502858Y-119793571D01*
X25502858Y-120317381D01*
X26407620Y-119650714D02*
X26407620Y-120460238D01*
X26360001Y-120555476D01*
X26312382Y-120603095D01*
X26217143Y-120650714D01*
X26074286Y-120650714D01*
X25979048Y-120603095D01*
X26407620Y-120269762D02*
X26312382Y-120317381D01*
X26121905Y-120317381D01*
X26026667Y-120269762D01*
X25979048Y-120222143D01*
X25931429Y-120126905D01*
X25931429Y-119841190D01*
X25979048Y-119745952D01*
X26026667Y-119698333D01*
X26121905Y-119650714D01*
X26312382Y-119650714D01*
X26407620Y-119698333D01*
X26883810Y-120317381D02*
X26883810Y-119317381D01*
X26883810Y-119793571D02*
X27455239Y-119793571D01*
X27455239Y-120317381D02*
X27455239Y-119317381D01*
X28074286Y-120317381D02*
X27979048Y-120269762D01*
X27931429Y-120222143D01*
X27883810Y-120126905D01*
X27883810Y-119841190D01*
X27931429Y-119745952D01*
X27979048Y-119698333D01*
X28074286Y-119650714D01*
X28217144Y-119650714D01*
X28312382Y-119698333D01*
X28360001Y-119745952D01*
X28407620Y-119841190D01*
X28407620Y-120126905D01*
X28360001Y-120222143D01*
X28312382Y-120269762D01*
X28217144Y-120317381D01*
X28074286Y-120317381D01*
X28979048Y-120317381D02*
X28883810Y-120269762D01*
X28836191Y-120174524D01*
X28836191Y-119317381D01*
X29740954Y-120269762D02*
X29645716Y-120317381D01*
X29455239Y-120317381D01*
X29360001Y-120269762D01*
X29312382Y-120174524D01*
X29312382Y-119793571D01*
X29360001Y-119698333D01*
X29455239Y-119650714D01*
X29645716Y-119650714D01*
X29740954Y-119698333D01*
X29788573Y-119793571D01*
X29788573Y-119888810D01*
X29312382Y-119984048D01*
X29979049Y-120412619D02*
X30740954Y-120412619D01*
X30931430Y-119412619D02*
X30979049Y-119365000D01*
X31074287Y-119317381D01*
X31312383Y-119317381D01*
X31407621Y-119365000D01*
X31455240Y-119412619D01*
X31502859Y-119507857D01*
X31502859Y-119603095D01*
X31455240Y-119745952D01*
X30883811Y-120317381D01*
X31502859Y-120317381D01*
X31931430Y-120222143D02*
X31979049Y-120269762D01*
X31931430Y-120317381D01*
X31883811Y-120269762D01*
X31931430Y-120222143D01*
X31931430Y-120317381D01*
X32883811Y-119317381D02*
X32407620Y-119317381D01*
X32360001Y-119793571D01*
X32407620Y-119745952D01*
X32502858Y-119698333D01*
X32740954Y-119698333D01*
X32836192Y-119745952D01*
X32883811Y-119793571D01*
X32931430Y-119888810D01*
X32931430Y-120126905D01*
X32883811Y-120222143D01*
X32836192Y-120269762D01*
X32740954Y-120317381D01*
X32502858Y-120317381D01*
X32407620Y-120269762D01*
X32360001Y-120222143D01*
X33360001Y-120317381D02*
X33360001Y-119650714D01*
X33360001Y-119745952D02*
X33407620Y-119698333D01*
X33502858Y-119650714D01*
X33645716Y-119650714D01*
X33740954Y-119698333D01*
X33788573Y-119793571D01*
X33788573Y-120317381D01*
X33788573Y-119793571D02*
X33836192Y-119698333D01*
X33931430Y-119650714D01*
X34074287Y-119650714D01*
X34169525Y-119698333D01*
X34217144Y-119793571D01*
X34217144Y-120317381D01*
X34693334Y-120317381D02*
X34693334Y-119650714D01*
X34693334Y-119745952D02*
X34740953Y-119698333D01*
X34836191Y-119650714D01*
X34979049Y-119650714D01*
X35074287Y-119698333D01*
X35121906Y-119793571D01*
X35121906Y-120317381D01*
X35121906Y-119793571D02*
X35169525Y-119698333D01*
X35264763Y-119650714D01*
X35407620Y-119650714D01*
X35502858Y-119698333D01*
X35550477Y-119793571D01*
X35550477Y-120317381D01*
X27112381Y-116817381D02*
X26779047Y-116341190D01*
X26540952Y-116817381D02*
X26540952Y-115817381D01*
X26921905Y-115817381D01*
X27017143Y-115865000D01*
X27064762Y-115912619D01*
X27112381Y-116007857D01*
X27112381Y-116150714D01*
X27064762Y-116245952D01*
X27017143Y-116293571D01*
X26921905Y-116341190D01*
X26540952Y-116341190D01*
X27540952Y-116293571D02*
X27874286Y-116293571D01*
X28017143Y-116817381D02*
X27540952Y-116817381D01*
X27540952Y-115817381D01*
X28017143Y-115817381D01*
X28779048Y-116293571D02*
X28445714Y-116293571D01*
X28445714Y-116817381D02*
X28445714Y-115817381D01*
X28921905Y-115817381D01*
X29731429Y-116150714D02*
X29731429Y-116817381D01*
X29493333Y-115769762D02*
X29255238Y-116484048D01*
X29874286Y-116484048D01*
X318749524Y-34377381D02*
X318749524Y-33377381D01*
X319082858Y-34091667D01*
X319416191Y-33377381D01*
X319416191Y-34377381D01*
X320035238Y-34377381D02*
X319940000Y-34329762D01*
X319892381Y-34282143D01*
X319844762Y-34186905D01*
X319844762Y-33901190D01*
X319892381Y-33805952D01*
X319940000Y-33758333D01*
X320035238Y-33710714D01*
X320178096Y-33710714D01*
X320273334Y-33758333D01*
X320320953Y-33805952D01*
X320368572Y-33901190D01*
X320368572Y-34186905D01*
X320320953Y-34282143D01*
X320273334Y-34329762D01*
X320178096Y-34377381D01*
X320035238Y-34377381D01*
X321225715Y-33710714D02*
X321225715Y-34377381D01*
X320797143Y-33710714D02*
X320797143Y-34234524D01*
X320844762Y-34329762D01*
X320940000Y-34377381D01*
X321082858Y-34377381D01*
X321178096Y-34329762D01*
X321225715Y-34282143D01*
X321701905Y-33710714D02*
X321701905Y-34377381D01*
X321701905Y-33805952D02*
X321749524Y-33758333D01*
X321844762Y-33710714D01*
X321987620Y-33710714D01*
X322082858Y-33758333D01*
X322130477Y-33853571D01*
X322130477Y-34377381D01*
X322463810Y-33710714D02*
X322844762Y-33710714D01*
X322606667Y-33377381D02*
X322606667Y-34234524D01*
X322654286Y-34329762D01*
X322749524Y-34377381D01*
X322844762Y-34377381D01*
X323178096Y-34377381D02*
X323178096Y-33710714D01*
X323178096Y-33377381D02*
X323130477Y-33425000D01*
X323178096Y-33472619D01*
X323225715Y-33425000D01*
X323178096Y-33377381D01*
X323178096Y-33472619D01*
X323654286Y-33710714D02*
X323654286Y-34377381D01*
X323654286Y-33805952D02*
X323701905Y-33758333D01*
X323797143Y-33710714D01*
X323940001Y-33710714D01*
X324035239Y-33758333D01*
X324082858Y-33853571D01*
X324082858Y-34377381D01*
X324987620Y-33710714D02*
X324987620Y-34520238D01*
X324940001Y-34615476D01*
X324892382Y-34663095D01*
X324797143Y-34710714D01*
X324654286Y-34710714D01*
X324559048Y-34663095D01*
X324987620Y-34329762D02*
X324892382Y-34377381D01*
X324701905Y-34377381D01*
X324606667Y-34329762D01*
X324559048Y-34282143D01*
X324511429Y-34186905D01*
X324511429Y-33901190D01*
X324559048Y-33805952D01*
X324606667Y-33758333D01*
X324701905Y-33710714D01*
X324892382Y-33710714D01*
X324987620Y-33758333D01*
X325463810Y-34377381D02*
X325463810Y-33377381D01*
X325463810Y-33853571D02*
X326035239Y-33853571D01*
X326035239Y-34377381D02*
X326035239Y-33377381D01*
X326654286Y-34377381D02*
X326559048Y-34329762D01*
X326511429Y-34282143D01*
X326463810Y-34186905D01*
X326463810Y-33901190D01*
X326511429Y-33805952D01*
X326559048Y-33758333D01*
X326654286Y-33710714D01*
X326797144Y-33710714D01*
X326892382Y-33758333D01*
X326940001Y-33805952D01*
X326987620Y-33901190D01*
X326987620Y-34186905D01*
X326940001Y-34282143D01*
X326892382Y-34329762D01*
X326797144Y-34377381D01*
X326654286Y-34377381D01*
X327559048Y-34377381D02*
X327463810Y-34329762D01*
X327416191Y-34234524D01*
X327416191Y-33377381D01*
X328320954Y-34329762D02*
X328225716Y-34377381D01*
X328035239Y-34377381D01*
X327940001Y-34329762D01*
X327892382Y-34234524D01*
X327892382Y-33853571D01*
X327940001Y-33758333D01*
X328035239Y-33710714D01*
X328225716Y-33710714D01*
X328320954Y-33758333D01*
X328368573Y-33853571D01*
X328368573Y-33948810D01*
X327892382Y-34044048D01*
X328559049Y-34472619D02*
X329320954Y-34472619D01*
X329511430Y-33472619D02*
X329559049Y-33425000D01*
X329654287Y-33377381D01*
X329892383Y-33377381D01*
X329987621Y-33425000D01*
X330035240Y-33472619D01*
X330082859Y-33567857D01*
X330082859Y-33663095D01*
X330035240Y-33805952D01*
X329463811Y-34377381D01*
X330082859Y-34377381D01*
X330511430Y-34282143D02*
X330559049Y-34329762D01*
X330511430Y-34377381D01*
X330463811Y-34329762D01*
X330511430Y-34282143D01*
X330511430Y-34377381D01*
X331463811Y-33377381D02*
X330987620Y-33377381D01*
X330940001Y-33853571D01*
X330987620Y-33805952D01*
X331082858Y-33758333D01*
X331320954Y-33758333D01*
X331416192Y-33805952D01*
X331463811Y-33853571D01*
X331511430Y-33948810D01*
X331511430Y-34186905D01*
X331463811Y-34282143D01*
X331416192Y-34329762D01*
X331320954Y-34377381D01*
X331082858Y-34377381D01*
X330987620Y-34329762D01*
X330940001Y-34282143D01*
X331940001Y-34377381D02*
X331940001Y-33710714D01*
X331940001Y-33805952D02*
X331987620Y-33758333D01*
X332082858Y-33710714D01*
X332225716Y-33710714D01*
X332320954Y-33758333D01*
X332368573Y-33853571D01*
X332368573Y-34377381D01*
X332368573Y-33853571D02*
X332416192Y-33758333D01*
X332511430Y-33710714D01*
X332654287Y-33710714D01*
X332749525Y-33758333D01*
X332797144Y-33853571D01*
X332797144Y-34377381D01*
X333273334Y-34377381D02*
X333273334Y-33710714D01*
X333273334Y-33805952D02*
X333320953Y-33758333D01*
X333416191Y-33710714D01*
X333559049Y-33710714D01*
X333654287Y-33758333D01*
X333701906Y-33853571D01*
X333701906Y-34377381D01*
X333701906Y-33853571D02*
X333749525Y-33758333D01*
X333844763Y-33710714D01*
X333987620Y-33710714D01*
X334082858Y-33758333D01*
X334130477Y-33853571D01*
X334130477Y-34377381D01*
X325692381Y-30877381D02*
X325359047Y-30401190D01*
X325120952Y-30877381D02*
X325120952Y-29877381D01*
X325501905Y-29877381D01*
X325597143Y-29925000D01*
X325644762Y-29972619D01*
X325692381Y-30067857D01*
X325692381Y-30210714D01*
X325644762Y-30305952D01*
X325597143Y-30353571D01*
X325501905Y-30401190D01*
X325120952Y-30401190D01*
X326120952Y-30353571D02*
X326454286Y-30353571D01*
X326597143Y-30877381D02*
X326120952Y-30877381D01*
X326120952Y-29877381D01*
X326597143Y-29877381D01*
X327359048Y-30353571D02*
X327025714Y-30353571D01*
X327025714Y-30877381D02*
X327025714Y-29877381D01*
X327501905Y-29877381D01*
X327787619Y-29877381D02*
X328406667Y-29877381D01*
X328073333Y-30258333D01*
X328216191Y-30258333D01*
X328311429Y-30305952D01*
X328359048Y-30353571D01*
X328406667Y-30448810D01*
X328406667Y-30686905D01*
X328359048Y-30782143D01*
X328311429Y-30829762D01*
X328216191Y-30877381D01*
X327930476Y-30877381D01*
X327835238Y-30829762D01*
X327787619Y-30782143D01*
X318749524Y-120317381D02*
X318749524Y-119317381D01*
X319082858Y-120031667D01*
X319416191Y-119317381D01*
X319416191Y-120317381D01*
X320035238Y-120317381D02*
X319940000Y-120269762D01*
X319892381Y-120222143D01*
X319844762Y-120126905D01*
X319844762Y-119841190D01*
X319892381Y-119745952D01*
X319940000Y-119698333D01*
X320035238Y-119650714D01*
X320178096Y-119650714D01*
X320273334Y-119698333D01*
X320320953Y-119745952D01*
X320368572Y-119841190D01*
X320368572Y-120126905D01*
X320320953Y-120222143D01*
X320273334Y-120269762D01*
X320178096Y-120317381D01*
X320035238Y-120317381D01*
X321225715Y-119650714D02*
X321225715Y-120317381D01*
X320797143Y-119650714D02*
X320797143Y-120174524D01*
X320844762Y-120269762D01*
X320940000Y-120317381D01*
X321082858Y-120317381D01*
X321178096Y-120269762D01*
X321225715Y-120222143D01*
X321701905Y-119650714D02*
X321701905Y-120317381D01*
X321701905Y-119745952D02*
X321749524Y-119698333D01*
X321844762Y-119650714D01*
X321987620Y-119650714D01*
X322082858Y-119698333D01*
X322130477Y-119793571D01*
X322130477Y-120317381D01*
X322463810Y-119650714D02*
X322844762Y-119650714D01*
X322606667Y-119317381D02*
X322606667Y-120174524D01*
X322654286Y-120269762D01*
X322749524Y-120317381D01*
X322844762Y-120317381D01*
X323178096Y-120317381D02*
X323178096Y-119650714D01*
X323178096Y-119317381D02*
X323130477Y-119365000D01*
X323178096Y-119412619D01*
X323225715Y-119365000D01*
X323178096Y-119317381D01*
X323178096Y-119412619D01*
X323654286Y-119650714D02*
X323654286Y-120317381D01*
X323654286Y-119745952D02*
X323701905Y-119698333D01*
X323797143Y-119650714D01*
X323940001Y-119650714D01*
X324035239Y-119698333D01*
X324082858Y-119793571D01*
X324082858Y-120317381D01*
X324987620Y-119650714D02*
X324987620Y-120460238D01*
X324940001Y-120555476D01*
X324892382Y-120603095D01*
X324797143Y-120650714D01*
X324654286Y-120650714D01*
X324559048Y-120603095D01*
X324987620Y-120269762D02*
X324892382Y-120317381D01*
X324701905Y-120317381D01*
X324606667Y-120269762D01*
X324559048Y-120222143D01*
X324511429Y-120126905D01*
X324511429Y-119841190D01*
X324559048Y-119745952D01*
X324606667Y-119698333D01*
X324701905Y-119650714D01*
X324892382Y-119650714D01*
X324987620Y-119698333D01*
X325463810Y-120317381D02*
X325463810Y-119317381D01*
X325463810Y-119793571D02*
X326035239Y-119793571D01*
X326035239Y-120317381D02*
X326035239Y-119317381D01*
X326654286Y-120317381D02*
X326559048Y-120269762D01*
X326511429Y-120222143D01*
X326463810Y-120126905D01*
X326463810Y-119841190D01*
X326511429Y-119745952D01*
X326559048Y-119698333D01*
X326654286Y-119650714D01*
X326797144Y-119650714D01*
X326892382Y-119698333D01*
X326940001Y-119745952D01*
X326987620Y-119841190D01*
X326987620Y-120126905D01*
X326940001Y-120222143D01*
X326892382Y-120269762D01*
X326797144Y-120317381D01*
X326654286Y-120317381D01*
X327559048Y-120317381D02*
X327463810Y-120269762D01*
X327416191Y-120174524D01*
X327416191Y-119317381D01*
X328320954Y-120269762D02*
X328225716Y-120317381D01*
X328035239Y-120317381D01*
X327940001Y-120269762D01*
X327892382Y-120174524D01*
X327892382Y-119793571D01*
X327940001Y-119698333D01*
X328035239Y-119650714D01*
X328225716Y-119650714D01*
X328320954Y-119698333D01*
X328368573Y-119793571D01*
X328368573Y-119888810D01*
X327892382Y-119984048D01*
X328559049Y-120412619D02*
X329320954Y-120412619D01*
X329511430Y-119412619D02*
X329559049Y-119365000D01*
X329654287Y-119317381D01*
X329892383Y-119317381D01*
X329987621Y-119365000D01*
X330035240Y-119412619D01*
X330082859Y-119507857D01*
X330082859Y-119603095D01*
X330035240Y-119745952D01*
X329463811Y-120317381D01*
X330082859Y-120317381D01*
X330511430Y-120222143D02*
X330559049Y-120269762D01*
X330511430Y-120317381D01*
X330463811Y-120269762D01*
X330511430Y-120222143D01*
X330511430Y-120317381D01*
X331463811Y-119317381D02*
X330987620Y-119317381D01*
X330940001Y-119793571D01*
X330987620Y-119745952D01*
X331082858Y-119698333D01*
X331320954Y-119698333D01*
X331416192Y-119745952D01*
X331463811Y-119793571D01*
X331511430Y-119888810D01*
X331511430Y-120126905D01*
X331463811Y-120222143D01*
X331416192Y-120269762D01*
X331320954Y-120317381D01*
X331082858Y-120317381D01*
X330987620Y-120269762D01*
X330940001Y-120222143D01*
X331940001Y-120317381D02*
X331940001Y-119650714D01*
X331940001Y-119745952D02*
X331987620Y-119698333D01*
X332082858Y-119650714D01*
X332225716Y-119650714D01*
X332320954Y-119698333D01*
X332368573Y-119793571D01*
X332368573Y-120317381D01*
X332368573Y-119793571D02*
X332416192Y-119698333D01*
X332511430Y-119650714D01*
X332654287Y-119650714D01*
X332749525Y-119698333D01*
X332797144Y-119793571D01*
X332797144Y-120317381D01*
X333273334Y-120317381D02*
X333273334Y-119650714D01*
X333273334Y-119745952D02*
X333320953Y-119698333D01*
X333416191Y-119650714D01*
X333559049Y-119650714D01*
X333654287Y-119698333D01*
X333701906Y-119793571D01*
X333701906Y-120317381D01*
X333701906Y-119793571D02*
X333749525Y-119698333D01*
X333844763Y-119650714D01*
X333987620Y-119650714D01*
X334082858Y-119698333D01*
X334130477Y-119793571D01*
X334130477Y-120317381D01*
X325692381Y-116817381D02*
X325359047Y-116341190D01*
X325120952Y-116817381D02*
X325120952Y-115817381D01*
X325501905Y-115817381D01*
X325597143Y-115865000D01*
X325644762Y-115912619D01*
X325692381Y-116007857D01*
X325692381Y-116150714D01*
X325644762Y-116245952D01*
X325597143Y-116293571D01*
X325501905Y-116341190D01*
X325120952Y-116341190D01*
X326120952Y-116293571D02*
X326454286Y-116293571D01*
X326597143Y-116817381D02*
X326120952Y-116817381D01*
X326120952Y-115817381D01*
X326597143Y-115817381D01*
X327359048Y-116293571D02*
X327025714Y-116293571D01*
X327025714Y-116817381D02*
X327025714Y-115817381D01*
X327501905Y-115817381D01*
X328311429Y-115817381D02*
X328120952Y-115817381D01*
X328025714Y-115865000D01*
X327978095Y-115912619D01*
X327882857Y-116055476D01*
X327835238Y-116245952D01*
X327835238Y-116626905D01*
X327882857Y-116722143D01*
X327930476Y-116769762D01*
X328025714Y-116817381D01*
X328216191Y-116817381D01*
X328311429Y-116769762D01*
X328359048Y-116722143D01*
X328406667Y-116626905D01*
X328406667Y-116388810D01*
X328359048Y-116293571D01*
X328311429Y-116245952D01*
X328216191Y-116198333D01*
X328025714Y-116198333D01*
X327930476Y-116245952D01*
X327882857Y-116293571D01*
X327835238Y-116388810D01*
X293277334Y-60195143D02*
X293229715Y-60242762D01*
X293086858Y-60290381D01*
X292991620Y-60290381D01*
X292848762Y-60242762D01*
X292753524Y-60147524D01*
X292705905Y-60052286D01*
X292658286Y-59861810D01*
X292658286Y-59718952D01*
X292705905Y-59528476D01*
X292753524Y-59433238D01*
X292848762Y-59338000D01*
X292991620Y-59290381D01*
X293086858Y-59290381D01*
X293229715Y-59338000D01*
X293277334Y-59385619D01*
X294229715Y-60290381D02*
X293658286Y-60290381D01*
X293944000Y-60290381D02*
X293944000Y-59290381D01*
X293848762Y-59433238D01*
X293753524Y-59528476D01*
X293658286Y-59576095D01*
X217277334Y-108195143D02*
X217229715Y-108242762D01*
X217086858Y-108290381D01*
X216991620Y-108290381D01*
X216848762Y-108242762D01*
X216753524Y-108147524D01*
X216705905Y-108052286D01*
X216658286Y-107861810D01*
X216658286Y-107718952D01*
X216705905Y-107528476D01*
X216753524Y-107433238D01*
X216848762Y-107338000D01*
X216991620Y-107290381D01*
X217086858Y-107290381D01*
X217229715Y-107338000D01*
X217277334Y-107385619D01*
X217658286Y-107385619D02*
X217705905Y-107338000D01*
X217801143Y-107290381D01*
X218039239Y-107290381D01*
X218134477Y-107338000D01*
X218182096Y-107385619D01*
X218229715Y-107480857D01*
X218229715Y-107576095D01*
X218182096Y-107718952D01*
X217610667Y-108290381D01*
X218229715Y-108290381D01*
X158277334Y-29195143D02*
X158229715Y-29242762D01*
X158086858Y-29290381D01*
X157991620Y-29290381D01*
X157848762Y-29242762D01*
X157753524Y-29147524D01*
X157705905Y-29052286D01*
X157658286Y-28861810D01*
X157658286Y-28718952D01*
X157705905Y-28528476D01*
X157753524Y-28433238D01*
X157848762Y-28338000D01*
X157991620Y-28290381D01*
X158086858Y-28290381D01*
X158229715Y-28338000D01*
X158277334Y-28385619D01*
X158610667Y-28290381D02*
X159229715Y-28290381D01*
X158896381Y-28671333D01*
X159039239Y-28671333D01*
X159134477Y-28718952D01*
X159182096Y-28766571D01*
X159229715Y-28861810D01*
X159229715Y-29099905D01*
X159182096Y-29195143D01*
X159134477Y-29242762D01*
X159039239Y-29290381D01*
X158753524Y-29290381D01*
X158658286Y-29242762D01*
X158610667Y-29195143D01*
X240277334Y-73195143D02*
X240229715Y-73242762D01*
X240086858Y-73290381D01*
X239991620Y-73290381D01*
X239848762Y-73242762D01*
X239753524Y-73147524D01*
X239705905Y-73052286D01*
X239658286Y-72861810D01*
X239658286Y-72718952D01*
X239705905Y-72528476D01*
X239753524Y-72433238D01*
X239848762Y-72338000D01*
X239991620Y-72290381D01*
X240086858Y-72290381D01*
X240229715Y-72338000D01*
X240277334Y-72385619D01*
X241182096Y-72290381D02*
X240705905Y-72290381D01*
X240658286Y-72766571D01*
X240705905Y-72718952D01*
X240801143Y-72671333D01*
X241039239Y-72671333D01*
X241134477Y-72718952D01*
X241182096Y-72766571D01*
X241229715Y-72861810D01*
X241229715Y-73099905D01*
X241182096Y-73195143D01*
X241134477Y-73242762D01*
X241039239Y-73290381D01*
X240801143Y-73290381D01*
X240705905Y-73242762D01*
X240658286Y-73195143D01*
X68277334Y-109195143D02*
X68229715Y-109242762D01*
X68086858Y-109290381D01*
X67991620Y-109290381D01*
X67848762Y-109242762D01*
X67753524Y-109147524D01*
X67705905Y-109052286D01*
X67658286Y-108861810D01*
X67658286Y-108718952D01*
X67705905Y-108528476D01*
X67753524Y-108433238D01*
X67848762Y-108338000D01*
X67991620Y-108290381D01*
X68086858Y-108290381D01*
X68229715Y-108338000D01*
X68277334Y-108385619D01*
X69134477Y-108290381D02*
X68944000Y-108290381D01*
X68848762Y-108338000D01*
X68801143Y-108385619D01*
X68705905Y-108528476D01*
X68658286Y-108718952D01*
X68658286Y-109099905D01*
X68705905Y-109195143D01*
X68753524Y-109242762D01*
X68848762Y-109290381D01*
X69039239Y-109290381D01*
X69134477Y-109242762D01*
X69182096Y-109195143D01*
X69229715Y-109099905D01*
X69229715Y-108861810D01*
X69182096Y-108766571D01*
X69134477Y-108718952D01*
X69039239Y-108671333D01*
X68848762Y-108671333D01*
X68753524Y-108718952D01*
X68705905Y-108766571D01*
X68658286Y-108861810D01*
X139277334Y-109195143D02*
X139229715Y-109242762D01*
X139086858Y-109290381D01*
X138991620Y-109290381D01*
X138848762Y-109242762D01*
X138753524Y-109147524D01*
X138705905Y-109052286D01*
X138658286Y-108861810D01*
X138658286Y-108718952D01*
X138705905Y-108528476D01*
X138753524Y-108433238D01*
X138848762Y-108338000D01*
X138991620Y-108290381D01*
X139086858Y-108290381D01*
X139229715Y-108338000D01*
X139277334Y-108385619D01*
X139610667Y-108290381D02*
X140277334Y-108290381D01*
X139848762Y-109290381D01*
X288277334Y-109195143D02*
X288229715Y-109242762D01*
X288086858Y-109290381D01*
X287991620Y-109290381D01*
X287848762Y-109242762D01*
X287753524Y-109147524D01*
X287705905Y-109052286D01*
X287658286Y-108861810D01*
X287658286Y-108718952D01*
X287705905Y-108528476D01*
X287753524Y-108433238D01*
X287848762Y-108338000D01*
X287991620Y-108290381D01*
X288086858Y-108290381D01*
X288229715Y-108338000D01*
X288277334Y-108385619D01*
X288848762Y-108718952D02*
X288753524Y-108671333D01*
X288705905Y-108623714D01*
X288658286Y-108528476D01*
X288658286Y-108480857D01*
X288705905Y-108385619D01*
X288753524Y-108338000D01*
X288848762Y-108290381D01*
X289039239Y-108290381D01*
X289134477Y-108338000D01*
X289182096Y-108385619D01*
X289229715Y-108480857D01*
X289229715Y-108528476D01*
X289182096Y-108623714D01*
X289134477Y-108671333D01*
X289039239Y-108718952D01*
X288848762Y-108718952D01*
X288753524Y-108766571D01*
X288705905Y-108814190D01*
X288658286Y-108909429D01*
X288658286Y-109099905D01*
X288705905Y-109195143D01*
X288753524Y-109242762D01*
X288848762Y-109290381D01*
X289039239Y-109290381D01*
X289134477Y-109242762D01*
X289182096Y-109195143D01*
X289229715Y-109099905D01*
X289229715Y-108909429D01*
X289182096Y-108814190D01*
X289134477Y-108766571D01*
X289039239Y-108718952D01*
X241277334Y-60195143D02*
X241229715Y-60242762D01*
X241086858Y-60290381D01*
X240991620Y-60290381D01*
X240848762Y-60242762D01*
X240753524Y-60147524D01*
X240705905Y-60052286D01*
X240658286Y-59861810D01*
X240658286Y-59718952D01*
X240705905Y-59528476D01*
X240753524Y-59433238D01*
X240848762Y-59338000D01*
X240991620Y-59290381D01*
X241086858Y-59290381D01*
X241229715Y-59338000D01*
X241277334Y-59385619D01*
X241753524Y-60290381D02*
X241944000Y-60290381D01*
X242039239Y-60242762D01*
X242086858Y-60195143D01*
X242182096Y-60052286D01*
X242229715Y-59861810D01*
X242229715Y-59480857D01*
X242182096Y-59385619D01*
X242134477Y-59338000D01*
X242039239Y-59290381D01*
X241848762Y-59290381D01*
X241753524Y-59338000D01*
X241705905Y-59385619D01*
X241658286Y-59480857D01*
X241658286Y-59718952D01*
X241705905Y-59814190D01*
X241753524Y-59861810D01*
X241848762Y-59909429D01*
X242039239Y-59909429D01*
X242134477Y-59861810D01*
X242182096Y-59814190D01*
X242229715Y-59718952D01*
X104807143Y-59412143D02*
X104759524Y-59459762D01*
X104616667Y-59507381D01*
X104521429Y-59507381D01*
X104378571Y-59459762D01*
X104283333Y-59364524D01*
X104235714Y-59269286D01*
X104188095Y-59078810D01*
X104188095Y-58935952D01*
X104235714Y-58745476D01*
X104283333Y-58650238D01*
X104378571Y-58555000D01*
X104521429Y-58507381D01*
X104616667Y-58507381D01*
X104759524Y-58555000D01*
X104807143Y-58602619D01*
X105759524Y-59507381D02*
X105188095Y-59507381D01*
X105473809Y-59507381D02*
X105473809Y-58507381D01*
X105378571Y-58650238D01*
X105283333Y-58745476D01*
X105188095Y-58793095D01*
X106378571Y-58507381D02*
X106473810Y-58507381D01*
X106569048Y-58555000D01*
X106616667Y-58602619D01*
X106664286Y-58697857D01*
X106711905Y-58888333D01*
X106711905Y-59126429D01*
X106664286Y-59316905D01*
X106616667Y-59412143D01*
X106569048Y-59459762D01*
X106473810Y-59507381D01*
X106378571Y-59507381D01*
X106283333Y-59459762D01*
X106235714Y-59412143D01*
X106188095Y-59316905D01*
X106140476Y-59126429D01*
X106140476Y-58888333D01*
X106188095Y-58697857D01*
X106235714Y-58602619D01*
X106283333Y-58555000D01*
X106378571Y-58507381D01*
X79407143Y-59412143D02*
X79359524Y-59459762D01*
X79216667Y-59507381D01*
X79121429Y-59507381D01*
X78978571Y-59459762D01*
X78883333Y-59364524D01*
X78835714Y-59269286D01*
X78788095Y-59078810D01*
X78788095Y-58935952D01*
X78835714Y-58745476D01*
X78883333Y-58650238D01*
X78978571Y-58555000D01*
X79121429Y-58507381D01*
X79216667Y-58507381D01*
X79359524Y-58555000D01*
X79407143Y-58602619D01*
X80359524Y-59507381D02*
X79788095Y-59507381D01*
X80073809Y-59507381D02*
X80073809Y-58507381D01*
X79978571Y-58650238D01*
X79883333Y-58745476D01*
X79788095Y-58793095D01*
X81311905Y-59507381D02*
X80740476Y-59507381D01*
X81026190Y-59507381D02*
X81026190Y-58507381D01*
X80930952Y-58650238D01*
X80835714Y-58745476D01*
X80740476Y-58793095D01*
X171491619Y-75933238D02*
X171444000Y-76028476D01*
X171348762Y-76123714D01*
X171205905Y-76266571D01*
X171158286Y-76361810D01*
X171158286Y-76457048D01*
X171396381Y-76409429D02*
X171348762Y-76504667D01*
X171253524Y-76599905D01*
X171063048Y-76647524D01*
X170729714Y-76647524D01*
X170539238Y-76599905D01*
X170444000Y-76504667D01*
X170396381Y-76409429D01*
X170396381Y-76218952D01*
X170444000Y-76123714D01*
X170539238Y-76028476D01*
X170729714Y-75980857D01*
X171063048Y-75980857D01*
X171253524Y-76028476D01*
X171348762Y-76123714D01*
X171396381Y-76218952D01*
X171396381Y-76409429D01*
X171396381Y-75028476D02*
X171396381Y-75599905D01*
X171396381Y-75314191D02*
X170396381Y-75314191D01*
X170539238Y-75409429D01*
X170634476Y-75504667D01*
X170682095Y-75599905D01*
X138761619Y-35123238D02*
X138714000Y-35218476D01*
X138618762Y-35313714D01*
X138475905Y-35456571D01*
X138428286Y-35551810D01*
X138428286Y-35647048D01*
X138666381Y-35599429D02*
X138618762Y-35694667D01*
X138523524Y-35789905D01*
X138333048Y-35837524D01*
X137999714Y-35837524D01*
X137809238Y-35789905D01*
X137714000Y-35694667D01*
X137666381Y-35599429D01*
X137666381Y-35408952D01*
X137714000Y-35313714D01*
X137809238Y-35218476D01*
X137999714Y-35170857D01*
X138333048Y-35170857D01*
X138523524Y-35218476D01*
X138618762Y-35313714D01*
X138666381Y-35408952D01*
X138666381Y-35599429D01*
X137761619Y-34789905D02*
X137714000Y-34742286D01*
X137666381Y-34647048D01*
X137666381Y-34408952D01*
X137714000Y-34313714D01*
X137761619Y-34266095D01*
X137856857Y-34218476D01*
X137952095Y-34218476D01*
X138094952Y-34266095D01*
X138666381Y-34837524D01*
X138666381Y-34218476D01*
X214761619Y-52123238D02*
X214714000Y-52218476D01*
X214618762Y-52313714D01*
X214475905Y-52456571D01*
X214428286Y-52551810D01*
X214428286Y-52647048D01*
X214666381Y-52599429D02*
X214618762Y-52694667D01*
X214523524Y-52789905D01*
X214333048Y-52837524D01*
X213999714Y-52837524D01*
X213809238Y-52789905D01*
X213714000Y-52694667D01*
X213666381Y-52599429D01*
X213666381Y-52408952D01*
X213714000Y-52313714D01*
X213809238Y-52218476D01*
X213999714Y-52170857D01*
X214333048Y-52170857D01*
X214523524Y-52218476D01*
X214618762Y-52313714D01*
X214666381Y-52408952D01*
X214666381Y-52599429D01*
X213666381Y-51837524D02*
X213666381Y-51218476D01*
X214047333Y-51551810D01*
X214047333Y-51408952D01*
X214094952Y-51313714D01*
X214142571Y-51266095D01*
X214237810Y-51218476D01*
X214475905Y-51218476D01*
X214571143Y-51266095D01*
X214618762Y-51313714D01*
X214666381Y-51408952D01*
X214666381Y-51694667D01*
X214618762Y-51789905D01*
X214571143Y-51837524D01*
X214761619Y-35123238D02*
X214714000Y-35218476D01*
X214618762Y-35313714D01*
X214475905Y-35456571D01*
X214428286Y-35551810D01*
X214428286Y-35647048D01*
X214666381Y-35599429D02*
X214618762Y-35694667D01*
X214523524Y-35789905D01*
X214333048Y-35837524D01*
X213999714Y-35837524D01*
X213809238Y-35789905D01*
X213714000Y-35694667D01*
X213666381Y-35599429D01*
X213666381Y-35408952D01*
X213714000Y-35313714D01*
X213809238Y-35218476D01*
X213999714Y-35170857D01*
X214333048Y-35170857D01*
X214523524Y-35218476D01*
X214618762Y-35313714D01*
X214666381Y-35408952D01*
X214666381Y-35599429D01*
X213999714Y-34313714D02*
X214666381Y-34313714D01*
X213618762Y-34551810D02*
X214333048Y-34789905D01*
X214333048Y-34170857D01*
X138761619Y-52123238D02*
X138714000Y-52218476D01*
X138618762Y-52313714D01*
X138475905Y-52456571D01*
X138428286Y-52551810D01*
X138428286Y-52647048D01*
X138666381Y-52599429D02*
X138618762Y-52694667D01*
X138523524Y-52789905D01*
X138333048Y-52837524D01*
X137999714Y-52837524D01*
X137809238Y-52789905D01*
X137714000Y-52694667D01*
X137666381Y-52599429D01*
X137666381Y-52408952D01*
X137714000Y-52313714D01*
X137809238Y-52218476D01*
X137999714Y-52170857D01*
X138333048Y-52170857D01*
X138523524Y-52218476D01*
X138618762Y-52313714D01*
X138666381Y-52408952D01*
X138666381Y-52599429D01*
X137666381Y-51266095D02*
X137666381Y-51742286D01*
X138142571Y-51789905D01*
X138094952Y-51742286D01*
X138047333Y-51647048D01*
X138047333Y-51408952D01*
X138094952Y-51313714D01*
X138142571Y-51266095D01*
X138237810Y-51218476D01*
X138475905Y-51218476D01*
X138571143Y-51266095D01*
X138618762Y-51313714D01*
X138666381Y-51408952D01*
X138666381Y-51647048D01*
X138618762Y-51742286D01*
X138571143Y-51789905D01*
X228038762Y-60115619D02*
X227943524Y-60068000D01*
X227848286Y-59972762D01*
X227705429Y-59829905D01*
X227610190Y-59782286D01*
X227514952Y-59782286D01*
X227562571Y-60020381D02*
X227467333Y-59972762D01*
X227372095Y-59877524D01*
X227324476Y-59687048D01*
X227324476Y-59353714D01*
X227372095Y-59163238D01*
X227467333Y-59068000D01*
X227562571Y-59020381D01*
X227753048Y-59020381D01*
X227848286Y-59068000D01*
X227943524Y-59163238D01*
X227991143Y-59353714D01*
X227991143Y-59687048D01*
X227943524Y-59877524D01*
X227848286Y-59972762D01*
X227753048Y-60020381D01*
X227562571Y-60020381D01*
X228848286Y-59020381D02*
X228657809Y-59020381D01*
X228562571Y-59068000D01*
X228514952Y-59115619D01*
X228419714Y-59258476D01*
X228372095Y-59448952D01*
X228372095Y-59829905D01*
X228419714Y-59925143D01*
X228467333Y-59972762D01*
X228562571Y-60020381D01*
X228753048Y-60020381D01*
X228848286Y-59972762D01*
X228895905Y-59925143D01*
X228943524Y-59829905D01*
X228943524Y-59591810D01*
X228895905Y-59496571D01*
X228848286Y-59448952D01*
X228753048Y-59401333D01*
X228562571Y-59401333D01*
X228467333Y-59448952D01*
X228419714Y-59496571D01*
X228372095Y-59591810D01*
X119284762Y-59602619D02*
X119189524Y-59555000D01*
X119094286Y-59459762D01*
X118951429Y-59316905D01*
X118856190Y-59269286D01*
X118760952Y-59269286D01*
X118808571Y-59507381D02*
X118713333Y-59459762D01*
X118618095Y-59364524D01*
X118570476Y-59174048D01*
X118570476Y-58840714D01*
X118618095Y-58650238D01*
X118713333Y-58555000D01*
X118808571Y-58507381D01*
X118999048Y-58507381D01*
X119094286Y-58555000D01*
X119189524Y-58650238D01*
X119237143Y-58840714D01*
X119237143Y-59174048D01*
X119189524Y-59364524D01*
X119094286Y-59459762D01*
X118999048Y-59507381D01*
X118808571Y-59507381D01*
X119570476Y-58507381D02*
X120237143Y-58507381D01*
X119808571Y-59507381D01*
X92614762Y-59602619D02*
X92519524Y-59555000D01*
X92424286Y-59459762D01*
X92281429Y-59316905D01*
X92186190Y-59269286D01*
X92090952Y-59269286D01*
X92138571Y-59507381D02*
X92043333Y-59459762D01*
X91948095Y-59364524D01*
X91900476Y-59174048D01*
X91900476Y-58840714D01*
X91948095Y-58650238D01*
X92043333Y-58555000D01*
X92138571Y-58507381D01*
X92329048Y-58507381D01*
X92424286Y-58555000D01*
X92519524Y-58650238D01*
X92567143Y-58840714D01*
X92567143Y-59174048D01*
X92519524Y-59364524D01*
X92424286Y-59459762D01*
X92329048Y-59507381D01*
X92138571Y-59507381D01*
X93138571Y-58935952D02*
X93043333Y-58888333D01*
X92995714Y-58840714D01*
X92948095Y-58745476D01*
X92948095Y-58697857D01*
X92995714Y-58602619D01*
X93043333Y-58555000D01*
X93138571Y-58507381D01*
X93329048Y-58507381D01*
X93424286Y-58555000D01*
X93471905Y-58602619D01*
X93519524Y-58697857D01*
X93519524Y-58745476D01*
X93471905Y-58840714D01*
X93424286Y-58888333D01*
X93329048Y-58935952D01*
X93138571Y-58935952D01*
X93043333Y-58983571D01*
X92995714Y-59031190D01*
X92948095Y-59126429D01*
X92948095Y-59316905D01*
X92995714Y-59412143D01*
X93043333Y-59459762D01*
X93138571Y-59507381D01*
X93329048Y-59507381D01*
X93424286Y-59459762D01*
X93471905Y-59412143D01*
X93519524Y-59316905D01*
X93519524Y-59126429D01*
X93471905Y-59031190D01*
X93424286Y-58983571D01*
X93329048Y-58935952D01*
X306038762Y-60115619D02*
X305943524Y-60068000D01*
X305848286Y-59972762D01*
X305705429Y-59829905D01*
X305610190Y-59782286D01*
X305514952Y-59782286D01*
X305562571Y-60020381D02*
X305467333Y-59972762D01*
X305372095Y-59877524D01*
X305324476Y-59687048D01*
X305324476Y-59353714D01*
X305372095Y-59163238D01*
X305467333Y-59068000D01*
X305562571Y-59020381D01*
X305753048Y-59020381D01*
X305848286Y-59068000D01*
X305943524Y-59163238D01*
X305991143Y-59353714D01*
X305991143Y-59687048D01*
X305943524Y-59877524D01*
X305848286Y-59972762D01*
X305753048Y-60020381D01*
X305562571Y-60020381D01*
X306467333Y-60020381D02*
X306657809Y-60020381D01*
X306753048Y-59972762D01*
X306800667Y-59925143D01*
X306895905Y-59782286D01*
X306943524Y-59591810D01*
X306943524Y-59210857D01*
X306895905Y-59115619D01*
X306848286Y-59068000D01*
X306753048Y-59020381D01*
X306562571Y-59020381D01*
X306467333Y-59068000D01*
X306419714Y-59115619D01*
X306372095Y-59210857D01*
X306372095Y-59448952D01*
X306419714Y-59544190D01*
X306467333Y-59591810D01*
X306562571Y-59639429D01*
X306753048Y-59639429D01*
X306848286Y-59591810D01*
X306895905Y-59544190D01*
X306943524Y-59448952D01*
X279562572Y-60115619D02*
X279467334Y-60068000D01*
X279372096Y-59972762D01*
X279229239Y-59829905D01*
X279134000Y-59782286D01*
X279038762Y-59782286D01*
X279086381Y-60020381D02*
X278991143Y-59972762D01*
X278895905Y-59877524D01*
X278848286Y-59687048D01*
X278848286Y-59353714D01*
X278895905Y-59163238D01*
X278991143Y-59068000D01*
X279086381Y-59020381D01*
X279276858Y-59020381D01*
X279372096Y-59068000D01*
X279467334Y-59163238D01*
X279514953Y-59353714D01*
X279514953Y-59687048D01*
X279467334Y-59877524D01*
X279372096Y-59972762D01*
X279276858Y-60020381D01*
X279086381Y-60020381D01*
X280467334Y-60020381D02*
X279895905Y-60020381D01*
X280181619Y-60020381D02*
X280181619Y-59020381D01*
X280086381Y-59163238D01*
X279991143Y-59258476D01*
X279895905Y-59306095D01*
X281086381Y-59020381D02*
X281181620Y-59020381D01*
X281276858Y-59068000D01*
X281324477Y-59115619D01*
X281372096Y-59210857D01*
X281419715Y-59401333D01*
X281419715Y-59639429D01*
X281372096Y-59829905D01*
X281324477Y-59925143D01*
X281276858Y-59972762D01*
X281181620Y-60020381D01*
X281086381Y-60020381D01*
X280991143Y-59972762D01*
X280943524Y-59925143D01*
X280895905Y-59829905D01*
X280848286Y-59639429D01*
X280848286Y-59401333D01*
X280895905Y-59210857D01*
X280943524Y-59115619D01*
X280991143Y-59068000D01*
X281086381Y-59020381D01*
X253562572Y-60115619D02*
X253467334Y-60068000D01*
X253372096Y-59972762D01*
X253229239Y-59829905D01*
X253134000Y-59782286D01*
X253038762Y-59782286D01*
X253086381Y-60020381D02*
X252991143Y-59972762D01*
X252895905Y-59877524D01*
X252848286Y-59687048D01*
X252848286Y-59353714D01*
X252895905Y-59163238D01*
X252991143Y-59068000D01*
X253086381Y-59020381D01*
X253276858Y-59020381D01*
X253372096Y-59068000D01*
X253467334Y-59163238D01*
X253514953Y-59353714D01*
X253514953Y-59687048D01*
X253467334Y-59877524D01*
X253372096Y-59972762D01*
X253276858Y-60020381D01*
X253086381Y-60020381D01*
X254467334Y-60020381D02*
X253895905Y-60020381D01*
X254181619Y-60020381D02*
X254181619Y-59020381D01*
X254086381Y-59163238D01*
X253991143Y-59258476D01*
X253895905Y-59306095D01*
X255419715Y-60020381D02*
X254848286Y-60020381D01*
X255134000Y-60020381D02*
X255134000Y-59020381D01*
X255038762Y-59163238D01*
X254943524Y-59258476D01*
X254848286Y-59306095D01*
X220761619Y-96599428D02*
X220714000Y-96694666D01*
X220618762Y-96789904D01*
X220475905Y-96932761D01*
X220428286Y-97028000D01*
X220428286Y-97123238D01*
X220666381Y-97075619D02*
X220618762Y-97170857D01*
X220523524Y-97266095D01*
X220333048Y-97313714D01*
X219999714Y-97313714D01*
X219809238Y-97266095D01*
X219714000Y-97170857D01*
X219666381Y-97075619D01*
X219666381Y-96885142D01*
X219714000Y-96789904D01*
X219809238Y-96694666D01*
X219999714Y-96647047D01*
X220333048Y-96647047D01*
X220523524Y-96694666D01*
X220618762Y-96789904D01*
X220666381Y-96885142D01*
X220666381Y-97075619D01*
X220666381Y-95694666D02*
X220666381Y-96266095D01*
X220666381Y-95980381D02*
X219666381Y-95980381D01*
X219809238Y-96075619D01*
X219904476Y-96170857D01*
X219952095Y-96266095D01*
X219761619Y-95313714D02*
X219714000Y-95266095D01*
X219666381Y-95170857D01*
X219666381Y-94932761D01*
X219714000Y-94837523D01*
X219761619Y-94789904D01*
X219856857Y-94742285D01*
X219952095Y-94742285D01*
X220094952Y-94789904D01*
X220666381Y-95361333D01*
X220666381Y-94742285D01*
X229761619Y-96599428D02*
X229714000Y-96694666D01*
X229618762Y-96789904D01*
X229475905Y-96932761D01*
X229428286Y-97028000D01*
X229428286Y-97123238D01*
X229666381Y-97075619D02*
X229618762Y-97170857D01*
X229523524Y-97266095D01*
X229333048Y-97313714D01*
X228999714Y-97313714D01*
X228809238Y-97266095D01*
X228714000Y-97170857D01*
X228666381Y-97075619D01*
X228666381Y-96885142D01*
X228714000Y-96789904D01*
X228809238Y-96694666D01*
X228999714Y-96647047D01*
X229333048Y-96647047D01*
X229523524Y-96694666D01*
X229618762Y-96789904D01*
X229666381Y-96885142D01*
X229666381Y-97075619D01*
X229666381Y-95694666D02*
X229666381Y-96266095D01*
X229666381Y-95980381D02*
X228666381Y-95980381D01*
X228809238Y-96075619D01*
X228904476Y-96170857D01*
X228952095Y-96266095D01*
X228666381Y-95361333D02*
X228666381Y-94742285D01*
X229047333Y-95075619D01*
X229047333Y-94932761D01*
X229094952Y-94837523D01*
X229142571Y-94789904D01*
X229237810Y-94742285D01*
X229475905Y-94742285D01*
X229571143Y-94789904D01*
X229618762Y-94837523D01*
X229666381Y-94932761D01*
X229666381Y-95218476D01*
X229618762Y-95313714D01*
X229571143Y-95361333D01*
X238761619Y-96599428D02*
X238714000Y-96694666D01*
X238618762Y-96789904D01*
X238475905Y-96932761D01*
X238428286Y-97028000D01*
X238428286Y-97123238D01*
X238666381Y-97075619D02*
X238618762Y-97170857D01*
X238523524Y-97266095D01*
X238333048Y-97313714D01*
X237999714Y-97313714D01*
X237809238Y-97266095D01*
X237714000Y-97170857D01*
X237666381Y-97075619D01*
X237666381Y-96885142D01*
X237714000Y-96789904D01*
X237809238Y-96694666D01*
X237999714Y-96647047D01*
X238333048Y-96647047D01*
X238523524Y-96694666D01*
X238618762Y-96789904D01*
X238666381Y-96885142D01*
X238666381Y-97075619D01*
X238666381Y-95694666D02*
X238666381Y-96266095D01*
X238666381Y-95980381D02*
X237666381Y-95980381D01*
X237809238Y-96075619D01*
X237904476Y-96170857D01*
X237952095Y-96266095D01*
X237999714Y-94837523D02*
X238666381Y-94837523D01*
X237618762Y-95075619D02*
X238333048Y-95313714D01*
X238333048Y-94694666D01*
X247761619Y-96599428D02*
X247714000Y-96694666D01*
X247618762Y-96789904D01*
X247475905Y-96932761D01*
X247428286Y-97028000D01*
X247428286Y-97123238D01*
X247666381Y-97075619D02*
X247618762Y-97170857D01*
X247523524Y-97266095D01*
X247333048Y-97313714D01*
X246999714Y-97313714D01*
X246809238Y-97266095D01*
X246714000Y-97170857D01*
X246666381Y-97075619D01*
X246666381Y-96885142D01*
X246714000Y-96789904D01*
X246809238Y-96694666D01*
X246999714Y-96647047D01*
X247333048Y-96647047D01*
X247523524Y-96694666D01*
X247618762Y-96789904D01*
X247666381Y-96885142D01*
X247666381Y-97075619D01*
X247666381Y-95694666D02*
X247666381Y-96266095D01*
X247666381Y-95980381D02*
X246666381Y-95980381D01*
X246809238Y-96075619D01*
X246904476Y-96170857D01*
X246952095Y-96266095D01*
X246666381Y-94789904D02*
X246666381Y-95266095D01*
X247142571Y-95313714D01*
X247094952Y-95266095D01*
X247047333Y-95170857D01*
X247047333Y-94932761D01*
X247094952Y-94837523D01*
X247142571Y-94789904D01*
X247237810Y-94742285D01*
X247475905Y-94742285D01*
X247571143Y-94789904D01*
X247618762Y-94837523D01*
X247666381Y-94932761D01*
X247666381Y-95170857D01*
X247618762Y-95266095D01*
X247571143Y-95313714D01*
X184761619Y-96599428D02*
X184714000Y-96694666D01*
X184618762Y-96789904D01*
X184475905Y-96932761D01*
X184428286Y-97028000D01*
X184428286Y-97123238D01*
X184666381Y-97075619D02*
X184618762Y-97170857D01*
X184523524Y-97266095D01*
X184333048Y-97313714D01*
X183999714Y-97313714D01*
X183809238Y-97266095D01*
X183714000Y-97170857D01*
X183666381Y-97075619D01*
X183666381Y-96885142D01*
X183714000Y-96789904D01*
X183809238Y-96694666D01*
X183999714Y-96647047D01*
X184333048Y-96647047D01*
X184523524Y-96694666D01*
X184618762Y-96789904D01*
X184666381Y-96885142D01*
X184666381Y-97075619D01*
X184666381Y-95694666D02*
X184666381Y-96266095D01*
X184666381Y-95980381D02*
X183666381Y-95980381D01*
X183809238Y-96075619D01*
X183904476Y-96170857D01*
X183952095Y-96266095D01*
X183666381Y-94837523D02*
X183666381Y-95028000D01*
X183714000Y-95123238D01*
X183761619Y-95170857D01*
X183904476Y-95266095D01*
X184094952Y-95313714D01*
X184475905Y-95313714D01*
X184571143Y-95266095D01*
X184618762Y-95218476D01*
X184666381Y-95123238D01*
X184666381Y-94932761D01*
X184618762Y-94837523D01*
X184571143Y-94789904D01*
X184475905Y-94742285D01*
X184237810Y-94742285D01*
X184142571Y-94789904D01*
X184094952Y-94837523D01*
X184047333Y-94932761D01*
X184047333Y-95123238D01*
X184094952Y-95218476D01*
X184142571Y-95266095D01*
X184237810Y-95313714D01*
X193761619Y-96599428D02*
X193714000Y-96694666D01*
X193618762Y-96789904D01*
X193475905Y-96932761D01*
X193428286Y-97028000D01*
X193428286Y-97123238D01*
X193666381Y-97075619D02*
X193618762Y-97170857D01*
X193523524Y-97266095D01*
X193333048Y-97313714D01*
X192999714Y-97313714D01*
X192809238Y-97266095D01*
X192714000Y-97170857D01*
X192666381Y-97075619D01*
X192666381Y-96885142D01*
X192714000Y-96789904D01*
X192809238Y-96694666D01*
X192999714Y-96647047D01*
X193333048Y-96647047D01*
X193523524Y-96694666D01*
X193618762Y-96789904D01*
X193666381Y-96885142D01*
X193666381Y-97075619D01*
X193666381Y-95694666D02*
X193666381Y-96266095D01*
X193666381Y-95980381D02*
X192666381Y-95980381D01*
X192809238Y-96075619D01*
X192904476Y-96170857D01*
X192952095Y-96266095D01*
X192666381Y-95361333D02*
X192666381Y-94694666D01*
X193666381Y-95123238D01*
X202761619Y-96599428D02*
X202714000Y-96694666D01*
X202618762Y-96789904D01*
X202475905Y-96932761D01*
X202428286Y-97028000D01*
X202428286Y-97123238D01*
X202666381Y-97075619D02*
X202618762Y-97170857D01*
X202523524Y-97266095D01*
X202333048Y-97313714D01*
X201999714Y-97313714D01*
X201809238Y-97266095D01*
X201714000Y-97170857D01*
X201666381Y-97075619D01*
X201666381Y-96885142D01*
X201714000Y-96789904D01*
X201809238Y-96694666D01*
X201999714Y-96647047D01*
X202333048Y-96647047D01*
X202523524Y-96694666D01*
X202618762Y-96789904D01*
X202666381Y-96885142D01*
X202666381Y-97075619D01*
X202666381Y-95694666D02*
X202666381Y-96266095D01*
X202666381Y-95980381D02*
X201666381Y-95980381D01*
X201809238Y-96075619D01*
X201904476Y-96170857D01*
X201952095Y-96266095D01*
X202094952Y-95123238D02*
X202047333Y-95218476D01*
X201999714Y-95266095D01*
X201904476Y-95313714D01*
X201856857Y-95313714D01*
X201761619Y-95266095D01*
X201714000Y-95218476D01*
X201666381Y-95123238D01*
X201666381Y-94932761D01*
X201714000Y-94837523D01*
X201761619Y-94789904D01*
X201856857Y-94742285D01*
X201904476Y-94742285D01*
X201999714Y-94789904D01*
X202047333Y-94837523D01*
X202094952Y-94932761D01*
X202094952Y-95123238D01*
X202142571Y-95218476D01*
X202190190Y-95266095D01*
X202285429Y-95313714D01*
X202475905Y-95313714D01*
X202571143Y-95266095D01*
X202618762Y-95218476D01*
X202666381Y-95123238D01*
X202666381Y-94932761D01*
X202618762Y-94837523D01*
X202571143Y-94789904D01*
X202475905Y-94742285D01*
X202285429Y-94742285D01*
X202190190Y-94789904D01*
X202142571Y-94837523D01*
X202094952Y-94932761D01*
X211761619Y-96599428D02*
X211714000Y-96694666D01*
X211618762Y-96789904D01*
X211475905Y-96932761D01*
X211428286Y-97028000D01*
X211428286Y-97123238D01*
X211666381Y-97075619D02*
X211618762Y-97170857D01*
X211523524Y-97266095D01*
X211333048Y-97313714D01*
X210999714Y-97313714D01*
X210809238Y-97266095D01*
X210714000Y-97170857D01*
X210666381Y-97075619D01*
X210666381Y-96885142D01*
X210714000Y-96789904D01*
X210809238Y-96694666D01*
X210999714Y-96647047D01*
X211333048Y-96647047D01*
X211523524Y-96694666D01*
X211618762Y-96789904D01*
X211666381Y-96885142D01*
X211666381Y-97075619D01*
X211666381Y-95694666D02*
X211666381Y-96266095D01*
X211666381Y-95980381D02*
X210666381Y-95980381D01*
X210809238Y-96075619D01*
X210904476Y-96170857D01*
X210952095Y-96266095D01*
X211666381Y-95218476D02*
X211666381Y-95028000D01*
X211618762Y-94932761D01*
X211571143Y-94885142D01*
X211428286Y-94789904D01*
X211237810Y-94742285D01*
X210856857Y-94742285D01*
X210761619Y-94789904D01*
X210714000Y-94837523D01*
X210666381Y-94932761D01*
X210666381Y-95123238D01*
X210714000Y-95218476D01*
X210761619Y-95266095D01*
X210856857Y-95313714D01*
X211094952Y-95313714D01*
X211190190Y-95266095D01*
X211237810Y-95218476D01*
X211285429Y-95123238D01*
X211285429Y-94932761D01*
X211237810Y-94837523D01*
X211190190Y-94789904D01*
X211094952Y-94742285D01*
X143761619Y-96599428D02*
X143714000Y-96694666D01*
X143618762Y-96789904D01*
X143475905Y-96932761D01*
X143428286Y-97028000D01*
X143428286Y-97123238D01*
X143666381Y-97075619D02*
X143618762Y-97170857D01*
X143523524Y-97266095D01*
X143333048Y-97313714D01*
X142999714Y-97313714D01*
X142809238Y-97266095D01*
X142714000Y-97170857D01*
X142666381Y-97075619D01*
X142666381Y-96885142D01*
X142714000Y-96789904D01*
X142809238Y-96694666D01*
X142999714Y-96647047D01*
X143333048Y-96647047D01*
X143523524Y-96694666D01*
X143618762Y-96789904D01*
X143666381Y-96885142D01*
X143666381Y-97075619D01*
X142761619Y-96266095D02*
X142714000Y-96218476D01*
X142666381Y-96123238D01*
X142666381Y-95885142D01*
X142714000Y-95789904D01*
X142761619Y-95742285D01*
X142856857Y-95694666D01*
X142952095Y-95694666D01*
X143094952Y-95742285D01*
X143666381Y-96313714D01*
X143666381Y-95694666D01*
X142666381Y-95075619D02*
X142666381Y-94980380D01*
X142714000Y-94885142D01*
X142761619Y-94837523D01*
X142856857Y-94789904D01*
X143047333Y-94742285D01*
X143285429Y-94742285D01*
X143475905Y-94789904D01*
X143571143Y-94837523D01*
X143618762Y-94885142D01*
X143666381Y-94980380D01*
X143666381Y-95075619D01*
X143618762Y-95170857D01*
X143571143Y-95218476D01*
X143475905Y-95266095D01*
X143285429Y-95313714D01*
X143047333Y-95313714D01*
X142856857Y-95266095D01*
X142761619Y-95218476D01*
X142714000Y-95170857D01*
X142666381Y-95075619D01*
X152761619Y-96599428D02*
X152714000Y-96694666D01*
X152618762Y-96789904D01*
X152475905Y-96932761D01*
X152428286Y-97028000D01*
X152428286Y-97123238D01*
X152666381Y-97075619D02*
X152618762Y-97170857D01*
X152523524Y-97266095D01*
X152333048Y-97313714D01*
X151999714Y-97313714D01*
X151809238Y-97266095D01*
X151714000Y-97170857D01*
X151666381Y-97075619D01*
X151666381Y-96885142D01*
X151714000Y-96789904D01*
X151809238Y-96694666D01*
X151999714Y-96647047D01*
X152333048Y-96647047D01*
X152523524Y-96694666D01*
X152618762Y-96789904D01*
X152666381Y-96885142D01*
X152666381Y-97075619D01*
X151761619Y-96266095D02*
X151714000Y-96218476D01*
X151666381Y-96123238D01*
X151666381Y-95885142D01*
X151714000Y-95789904D01*
X151761619Y-95742285D01*
X151856857Y-95694666D01*
X151952095Y-95694666D01*
X152094952Y-95742285D01*
X152666381Y-96313714D01*
X152666381Y-95694666D01*
X152666381Y-94742285D02*
X152666381Y-95313714D01*
X152666381Y-95028000D02*
X151666381Y-95028000D01*
X151809238Y-95123238D01*
X151904476Y-95218476D01*
X151952095Y-95313714D01*
X161761619Y-96599428D02*
X161714000Y-96694666D01*
X161618762Y-96789904D01*
X161475905Y-96932761D01*
X161428286Y-97028000D01*
X161428286Y-97123238D01*
X161666381Y-97075619D02*
X161618762Y-97170857D01*
X161523524Y-97266095D01*
X161333048Y-97313714D01*
X160999714Y-97313714D01*
X160809238Y-97266095D01*
X160714000Y-97170857D01*
X160666381Y-97075619D01*
X160666381Y-96885142D01*
X160714000Y-96789904D01*
X160809238Y-96694666D01*
X160999714Y-96647047D01*
X161333048Y-96647047D01*
X161523524Y-96694666D01*
X161618762Y-96789904D01*
X161666381Y-96885142D01*
X161666381Y-97075619D01*
X160761619Y-96266095D02*
X160714000Y-96218476D01*
X160666381Y-96123238D01*
X160666381Y-95885142D01*
X160714000Y-95789904D01*
X160761619Y-95742285D01*
X160856857Y-95694666D01*
X160952095Y-95694666D01*
X161094952Y-95742285D01*
X161666381Y-96313714D01*
X161666381Y-95694666D01*
X160761619Y-95313714D02*
X160714000Y-95266095D01*
X160666381Y-95170857D01*
X160666381Y-94932761D01*
X160714000Y-94837523D01*
X160761619Y-94789904D01*
X160856857Y-94742285D01*
X160952095Y-94742285D01*
X161094952Y-94789904D01*
X161666381Y-95361333D01*
X161666381Y-94742285D01*
X256761619Y-96599428D02*
X256714000Y-96694666D01*
X256618762Y-96789904D01*
X256475905Y-96932761D01*
X256428286Y-97028000D01*
X256428286Y-97123238D01*
X256666381Y-97075619D02*
X256618762Y-97170857D01*
X256523524Y-97266095D01*
X256333048Y-97313714D01*
X255999714Y-97313714D01*
X255809238Y-97266095D01*
X255714000Y-97170857D01*
X255666381Y-97075619D01*
X255666381Y-96885142D01*
X255714000Y-96789904D01*
X255809238Y-96694666D01*
X255999714Y-96647047D01*
X256333048Y-96647047D01*
X256523524Y-96694666D01*
X256618762Y-96789904D01*
X256666381Y-96885142D01*
X256666381Y-97075619D01*
X255761619Y-96266095D02*
X255714000Y-96218476D01*
X255666381Y-96123238D01*
X255666381Y-95885142D01*
X255714000Y-95789904D01*
X255761619Y-95742285D01*
X255856857Y-95694666D01*
X255952095Y-95694666D01*
X256094952Y-95742285D01*
X256666381Y-96313714D01*
X256666381Y-95694666D01*
X255999714Y-94837523D02*
X256666381Y-94837523D01*
X255618762Y-95075619D02*
X256333048Y-95313714D01*
X256333048Y-94694666D01*
X265761619Y-96599428D02*
X265714000Y-96694666D01*
X265618762Y-96789904D01*
X265475905Y-96932761D01*
X265428286Y-97028000D01*
X265428286Y-97123238D01*
X265666381Y-97075619D02*
X265618762Y-97170857D01*
X265523524Y-97266095D01*
X265333048Y-97313714D01*
X264999714Y-97313714D01*
X264809238Y-97266095D01*
X264714000Y-97170857D01*
X264666381Y-97075619D01*
X264666381Y-96885142D01*
X264714000Y-96789904D01*
X264809238Y-96694666D01*
X264999714Y-96647047D01*
X265333048Y-96647047D01*
X265523524Y-96694666D01*
X265618762Y-96789904D01*
X265666381Y-96885142D01*
X265666381Y-97075619D01*
X264761619Y-96266095D02*
X264714000Y-96218476D01*
X264666381Y-96123238D01*
X264666381Y-95885142D01*
X264714000Y-95789904D01*
X264761619Y-95742285D01*
X264856857Y-95694666D01*
X264952095Y-95694666D01*
X265094952Y-95742285D01*
X265666381Y-96313714D01*
X265666381Y-95694666D01*
X264666381Y-94789904D02*
X264666381Y-95266095D01*
X265142571Y-95313714D01*
X265094952Y-95266095D01*
X265047333Y-95170857D01*
X265047333Y-94932761D01*
X265094952Y-94837523D01*
X265142571Y-94789904D01*
X265237810Y-94742285D01*
X265475905Y-94742285D01*
X265571143Y-94789904D01*
X265618762Y-94837523D01*
X265666381Y-94932761D01*
X265666381Y-95170857D01*
X265618762Y-95266095D01*
X265571143Y-95313714D01*
X274761619Y-96599428D02*
X274714000Y-96694666D01*
X274618762Y-96789904D01*
X274475905Y-96932761D01*
X274428286Y-97028000D01*
X274428286Y-97123238D01*
X274666381Y-97075619D02*
X274618762Y-97170857D01*
X274523524Y-97266095D01*
X274333048Y-97313714D01*
X273999714Y-97313714D01*
X273809238Y-97266095D01*
X273714000Y-97170857D01*
X273666381Y-97075619D01*
X273666381Y-96885142D01*
X273714000Y-96789904D01*
X273809238Y-96694666D01*
X273999714Y-96647047D01*
X274333048Y-96647047D01*
X274523524Y-96694666D01*
X274618762Y-96789904D01*
X274666381Y-96885142D01*
X274666381Y-97075619D01*
X273761619Y-96266095D02*
X273714000Y-96218476D01*
X273666381Y-96123238D01*
X273666381Y-95885142D01*
X273714000Y-95789904D01*
X273761619Y-95742285D01*
X273856857Y-95694666D01*
X273952095Y-95694666D01*
X274094952Y-95742285D01*
X274666381Y-96313714D01*
X274666381Y-95694666D01*
X273666381Y-94837523D02*
X273666381Y-95028000D01*
X273714000Y-95123238D01*
X273761619Y-95170857D01*
X273904476Y-95266095D01*
X274094952Y-95313714D01*
X274475905Y-95313714D01*
X274571143Y-95266095D01*
X274618762Y-95218476D01*
X274666381Y-95123238D01*
X274666381Y-94932761D01*
X274618762Y-94837523D01*
X274571143Y-94789904D01*
X274475905Y-94742285D01*
X274237810Y-94742285D01*
X274142571Y-94789904D01*
X274094952Y-94837523D01*
X274047333Y-94932761D01*
X274047333Y-95123238D01*
X274094952Y-95218476D01*
X274142571Y-95266095D01*
X274237810Y-95313714D01*
X283761619Y-96599428D02*
X283714000Y-96694666D01*
X283618762Y-96789904D01*
X283475905Y-96932761D01*
X283428286Y-97028000D01*
X283428286Y-97123238D01*
X283666381Y-97075619D02*
X283618762Y-97170857D01*
X283523524Y-97266095D01*
X283333048Y-97313714D01*
X282999714Y-97313714D01*
X282809238Y-97266095D01*
X282714000Y-97170857D01*
X282666381Y-97075619D01*
X282666381Y-96885142D01*
X282714000Y-96789904D01*
X282809238Y-96694666D01*
X282999714Y-96647047D01*
X283333048Y-96647047D01*
X283523524Y-96694666D01*
X283618762Y-96789904D01*
X283666381Y-96885142D01*
X283666381Y-97075619D01*
X282761619Y-96266095D02*
X282714000Y-96218476D01*
X282666381Y-96123238D01*
X282666381Y-95885142D01*
X282714000Y-95789904D01*
X282761619Y-95742285D01*
X282856857Y-95694666D01*
X282952095Y-95694666D01*
X283094952Y-95742285D01*
X283666381Y-96313714D01*
X283666381Y-95694666D01*
X282666381Y-95361333D02*
X282666381Y-94694666D01*
X283666381Y-95123238D01*
X310761619Y-96599428D02*
X310714000Y-96694666D01*
X310618762Y-96789904D01*
X310475905Y-96932761D01*
X310428286Y-97028000D01*
X310428286Y-97123238D01*
X310666381Y-97075619D02*
X310618762Y-97170857D01*
X310523524Y-97266095D01*
X310333048Y-97313714D01*
X309999714Y-97313714D01*
X309809238Y-97266095D01*
X309714000Y-97170857D01*
X309666381Y-97075619D01*
X309666381Y-96885142D01*
X309714000Y-96789904D01*
X309809238Y-96694666D01*
X309999714Y-96647047D01*
X310333048Y-96647047D01*
X310523524Y-96694666D01*
X310618762Y-96789904D01*
X310666381Y-96885142D01*
X310666381Y-97075619D01*
X309761619Y-96266095D02*
X309714000Y-96218476D01*
X309666381Y-96123238D01*
X309666381Y-95885142D01*
X309714000Y-95789904D01*
X309761619Y-95742285D01*
X309856857Y-95694666D01*
X309952095Y-95694666D01*
X310094952Y-95742285D01*
X310666381Y-96313714D01*
X310666381Y-95694666D01*
X310094952Y-95123238D02*
X310047333Y-95218476D01*
X309999714Y-95266095D01*
X309904476Y-95313714D01*
X309856857Y-95313714D01*
X309761619Y-95266095D01*
X309714000Y-95218476D01*
X309666381Y-95123238D01*
X309666381Y-94932761D01*
X309714000Y-94837523D01*
X309761619Y-94789904D01*
X309856857Y-94742285D01*
X309904476Y-94742285D01*
X309999714Y-94789904D01*
X310047333Y-94837523D01*
X310094952Y-94932761D01*
X310094952Y-95123238D01*
X310142571Y-95218476D01*
X310190190Y-95266095D01*
X310285429Y-95313714D01*
X310475905Y-95313714D01*
X310571143Y-95266095D01*
X310618762Y-95218476D01*
X310666381Y-95123238D01*
X310666381Y-94932761D01*
X310618762Y-94837523D01*
X310571143Y-94789904D01*
X310475905Y-94742285D01*
X310285429Y-94742285D01*
X310190190Y-94789904D01*
X310142571Y-94837523D01*
X310094952Y-94932761D01*
X319761619Y-96599428D02*
X319714000Y-96694666D01*
X319618762Y-96789904D01*
X319475905Y-96932761D01*
X319428286Y-97028000D01*
X319428286Y-97123238D01*
X319666381Y-97075619D02*
X319618762Y-97170857D01*
X319523524Y-97266095D01*
X319333048Y-97313714D01*
X318999714Y-97313714D01*
X318809238Y-97266095D01*
X318714000Y-97170857D01*
X318666381Y-97075619D01*
X318666381Y-96885142D01*
X318714000Y-96789904D01*
X318809238Y-96694666D01*
X318999714Y-96647047D01*
X319333048Y-96647047D01*
X319523524Y-96694666D01*
X319618762Y-96789904D01*
X319666381Y-96885142D01*
X319666381Y-97075619D01*
X318761619Y-96266095D02*
X318714000Y-96218476D01*
X318666381Y-96123238D01*
X318666381Y-95885142D01*
X318714000Y-95789904D01*
X318761619Y-95742285D01*
X318856857Y-95694666D01*
X318952095Y-95694666D01*
X319094952Y-95742285D01*
X319666381Y-96313714D01*
X319666381Y-95694666D01*
X319666381Y-95218476D02*
X319666381Y-95028000D01*
X319618762Y-94932761D01*
X319571143Y-94885142D01*
X319428286Y-94789904D01*
X319237810Y-94742285D01*
X318856857Y-94742285D01*
X318761619Y-94789904D01*
X318714000Y-94837523D01*
X318666381Y-94932761D01*
X318666381Y-95123238D01*
X318714000Y-95218476D01*
X318761619Y-95266095D01*
X318856857Y-95313714D01*
X319094952Y-95313714D01*
X319190190Y-95266095D01*
X319237810Y-95218476D01*
X319285429Y-95123238D01*
X319285429Y-94932761D01*
X319237810Y-94837523D01*
X319190190Y-94789904D01*
X319094952Y-94742285D01*
X292761619Y-96599428D02*
X292714000Y-96694666D01*
X292618762Y-96789904D01*
X292475905Y-96932761D01*
X292428286Y-97028000D01*
X292428286Y-97123238D01*
X292666381Y-97075619D02*
X292618762Y-97170857D01*
X292523524Y-97266095D01*
X292333048Y-97313714D01*
X291999714Y-97313714D01*
X291809238Y-97266095D01*
X291714000Y-97170857D01*
X291666381Y-97075619D01*
X291666381Y-96885142D01*
X291714000Y-96789904D01*
X291809238Y-96694666D01*
X291999714Y-96647047D01*
X292333048Y-96647047D01*
X292523524Y-96694666D01*
X292618762Y-96789904D01*
X292666381Y-96885142D01*
X292666381Y-97075619D01*
X291666381Y-96313714D02*
X291666381Y-95694666D01*
X292047333Y-96028000D01*
X292047333Y-95885142D01*
X292094952Y-95789904D01*
X292142571Y-95742285D01*
X292237810Y-95694666D01*
X292475905Y-95694666D01*
X292571143Y-95742285D01*
X292618762Y-95789904D01*
X292666381Y-95885142D01*
X292666381Y-96170857D01*
X292618762Y-96266095D01*
X292571143Y-96313714D01*
X291666381Y-95075619D02*
X291666381Y-94980380D01*
X291714000Y-94885142D01*
X291761619Y-94837523D01*
X291856857Y-94789904D01*
X292047333Y-94742285D01*
X292285429Y-94742285D01*
X292475905Y-94789904D01*
X292571143Y-94837523D01*
X292618762Y-94885142D01*
X292666381Y-94980380D01*
X292666381Y-95075619D01*
X292618762Y-95170857D01*
X292571143Y-95218476D01*
X292475905Y-95266095D01*
X292285429Y-95313714D01*
X292047333Y-95313714D01*
X291856857Y-95266095D01*
X291761619Y-95218476D01*
X291714000Y-95170857D01*
X291666381Y-95075619D01*
X301761619Y-96599428D02*
X301714000Y-96694666D01*
X301618762Y-96789904D01*
X301475905Y-96932761D01*
X301428286Y-97028000D01*
X301428286Y-97123238D01*
X301666381Y-97075619D02*
X301618762Y-97170857D01*
X301523524Y-97266095D01*
X301333048Y-97313714D01*
X300999714Y-97313714D01*
X300809238Y-97266095D01*
X300714000Y-97170857D01*
X300666381Y-97075619D01*
X300666381Y-96885142D01*
X300714000Y-96789904D01*
X300809238Y-96694666D01*
X300999714Y-96647047D01*
X301333048Y-96647047D01*
X301523524Y-96694666D01*
X301618762Y-96789904D01*
X301666381Y-96885142D01*
X301666381Y-97075619D01*
X300666381Y-96313714D02*
X300666381Y-95694666D01*
X301047333Y-96028000D01*
X301047333Y-95885142D01*
X301094952Y-95789904D01*
X301142571Y-95742285D01*
X301237810Y-95694666D01*
X301475905Y-95694666D01*
X301571143Y-95742285D01*
X301618762Y-95789904D01*
X301666381Y-95885142D01*
X301666381Y-96170857D01*
X301618762Y-96266095D01*
X301571143Y-96313714D01*
X301666381Y-94742285D02*
X301666381Y-95313714D01*
X301666381Y-95028000D02*
X300666381Y-95028000D01*
X300809238Y-95123238D01*
X300904476Y-95218476D01*
X300952095Y-95313714D01*
X107761619Y-96599428D02*
X107714000Y-96694666D01*
X107618762Y-96789904D01*
X107475905Y-96932761D01*
X107428286Y-97028000D01*
X107428286Y-97123238D01*
X107666381Y-97075619D02*
X107618762Y-97170857D01*
X107523524Y-97266095D01*
X107333048Y-97313714D01*
X106999714Y-97313714D01*
X106809238Y-97266095D01*
X106714000Y-97170857D01*
X106666381Y-97075619D01*
X106666381Y-96885142D01*
X106714000Y-96789904D01*
X106809238Y-96694666D01*
X106999714Y-96647047D01*
X107333048Y-96647047D01*
X107523524Y-96694666D01*
X107618762Y-96789904D01*
X107666381Y-96885142D01*
X107666381Y-97075619D01*
X106666381Y-96313714D02*
X106666381Y-95694666D01*
X107047333Y-96028000D01*
X107047333Y-95885142D01*
X107094952Y-95789904D01*
X107142571Y-95742285D01*
X107237810Y-95694666D01*
X107475905Y-95694666D01*
X107571143Y-95742285D01*
X107618762Y-95789904D01*
X107666381Y-95885142D01*
X107666381Y-96170857D01*
X107618762Y-96266095D01*
X107571143Y-96313714D01*
X106761619Y-95313714D02*
X106714000Y-95266095D01*
X106666381Y-95170857D01*
X106666381Y-94932761D01*
X106714000Y-94837523D01*
X106761619Y-94789904D01*
X106856857Y-94742285D01*
X106952095Y-94742285D01*
X107094952Y-94789904D01*
X107666381Y-95361333D01*
X107666381Y-94742285D01*
X116761619Y-96599428D02*
X116714000Y-96694666D01*
X116618762Y-96789904D01*
X116475905Y-96932761D01*
X116428286Y-97028000D01*
X116428286Y-97123238D01*
X116666381Y-97075619D02*
X116618762Y-97170857D01*
X116523524Y-97266095D01*
X116333048Y-97313714D01*
X115999714Y-97313714D01*
X115809238Y-97266095D01*
X115714000Y-97170857D01*
X115666381Y-97075619D01*
X115666381Y-96885142D01*
X115714000Y-96789904D01*
X115809238Y-96694666D01*
X115999714Y-96647047D01*
X116333048Y-96647047D01*
X116523524Y-96694666D01*
X116618762Y-96789904D01*
X116666381Y-96885142D01*
X116666381Y-97075619D01*
X115666381Y-96313714D02*
X115666381Y-95694666D01*
X116047333Y-96028000D01*
X116047333Y-95885142D01*
X116094952Y-95789904D01*
X116142571Y-95742285D01*
X116237810Y-95694666D01*
X116475905Y-95694666D01*
X116571143Y-95742285D01*
X116618762Y-95789904D01*
X116666381Y-95885142D01*
X116666381Y-96170857D01*
X116618762Y-96266095D01*
X116571143Y-96313714D01*
X115666381Y-95361333D02*
X115666381Y-94742285D01*
X116047333Y-95075619D01*
X116047333Y-94932761D01*
X116094952Y-94837523D01*
X116142571Y-94789904D01*
X116237810Y-94742285D01*
X116475905Y-94742285D01*
X116571143Y-94789904D01*
X116618762Y-94837523D01*
X116666381Y-94932761D01*
X116666381Y-95218476D01*
X116618762Y-95313714D01*
X116571143Y-95361333D01*
X125761619Y-96599428D02*
X125714000Y-96694666D01*
X125618762Y-96789904D01*
X125475905Y-96932761D01*
X125428286Y-97028000D01*
X125428286Y-97123238D01*
X125666381Y-97075619D02*
X125618762Y-97170857D01*
X125523524Y-97266095D01*
X125333048Y-97313714D01*
X124999714Y-97313714D01*
X124809238Y-97266095D01*
X124714000Y-97170857D01*
X124666381Y-97075619D01*
X124666381Y-96885142D01*
X124714000Y-96789904D01*
X124809238Y-96694666D01*
X124999714Y-96647047D01*
X125333048Y-96647047D01*
X125523524Y-96694666D01*
X125618762Y-96789904D01*
X125666381Y-96885142D01*
X125666381Y-97075619D01*
X124666381Y-96313714D02*
X124666381Y-95694666D01*
X125047333Y-96028000D01*
X125047333Y-95885142D01*
X125094952Y-95789904D01*
X125142571Y-95742285D01*
X125237810Y-95694666D01*
X125475905Y-95694666D01*
X125571143Y-95742285D01*
X125618762Y-95789904D01*
X125666381Y-95885142D01*
X125666381Y-96170857D01*
X125618762Y-96266095D01*
X125571143Y-96313714D01*
X124999714Y-94837523D02*
X125666381Y-94837523D01*
X124618762Y-95075619D02*
X125333048Y-95313714D01*
X125333048Y-94694666D01*
X134761619Y-96599428D02*
X134714000Y-96694666D01*
X134618762Y-96789904D01*
X134475905Y-96932761D01*
X134428286Y-97028000D01*
X134428286Y-97123238D01*
X134666381Y-97075619D02*
X134618762Y-97170857D01*
X134523524Y-97266095D01*
X134333048Y-97313714D01*
X133999714Y-97313714D01*
X133809238Y-97266095D01*
X133714000Y-97170857D01*
X133666381Y-97075619D01*
X133666381Y-96885142D01*
X133714000Y-96789904D01*
X133809238Y-96694666D01*
X133999714Y-96647047D01*
X134333048Y-96647047D01*
X134523524Y-96694666D01*
X134618762Y-96789904D01*
X134666381Y-96885142D01*
X134666381Y-97075619D01*
X133666381Y-96313714D02*
X133666381Y-95694666D01*
X134047333Y-96028000D01*
X134047333Y-95885142D01*
X134094952Y-95789904D01*
X134142571Y-95742285D01*
X134237810Y-95694666D01*
X134475905Y-95694666D01*
X134571143Y-95742285D01*
X134618762Y-95789904D01*
X134666381Y-95885142D01*
X134666381Y-96170857D01*
X134618762Y-96266095D01*
X134571143Y-96313714D01*
X133666381Y-94789904D02*
X133666381Y-95266095D01*
X134142571Y-95313714D01*
X134094952Y-95266095D01*
X134047333Y-95170857D01*
X134047333Y-94932761D01*
X134094952Y-94837523D01*
X134142571Y-94789904D01*
X134237810Y-94742285D01*
X134475905Y-94742285D01*
X134571143Y-94789904D01*
X134618762Y-94837523D01*
X134666381Y-94932761D01*
X134666381Y-95170857D01*
X134618762Y-95266095D01*
X134571143Y-95313714D01*
X35761619Y-96599428D02*
X35714000Y-96694666D01*
X35618762Y-96789904D01*
X35475905Y-96932761D01*
X35428286Y-97028000D01*
X35428286Y-97123238D01*
X35666381Y-97075619D02*
X35618762Y-97170857D01*
X35523524Y-97266095D01*
X35333048Y-97313714D01*
X34999714Y-97313714D01*
X34809238Y-97266095D01*
X34714000Y-97170857D01*
X34666381Y-97075619D01*
X34666381Y-96885142D01*
X34714000Y-96789904D01*
X34809238Y-96694666D01*
X34999714Y-96647047D01*
X35333048Y-96647047D01*
X35523524Y-96694666D01*
X35618762Y-96789904D01*
X35666381Y-96885142D01*
X35666381Y-97075619D01*
X34666381Y-96313714D02*
X34666381Y-95694666D01*
X35047333Y-96028000D01*
X35047333Y-95885142D01*
X35094952Y-95789904D01*
X35142571Y-95742285D01*
X35237810Y-95694666D01*
X35475905Y-95694666D01*
X35571143Y-95742285D01*
X35618762Y-95789904D01*
X35666381Y-95885142D01*
X35666381Y-96170857D01*
X35618762Y-96266095D01*
X35571143Y-96313714D01*
X34666381Y-94837523D02*
X34666381Y-95028000D01*
X34714000Y-95123238D01*
X34761619Y-95170857D01*
X34904476Y-95266095D01*
X35094952Y-95313714D01*
X35475905Y-95313714D01*
X35571143Y-95266095D01*
X35618762Y-95218476D01*
X35666381Y-95123238D01*
X35666381Y-94932761D01*
X35618762Y-94837523D01*
X35571143Y-94789904D01*
X35475905Y-94742285D01*
X35237810Y-94742285D01*
X35142571Y-94789904D01*
X35094952Y-94837523D01*
X35047333Y-94932761D01*
X35047333Y-95123238D01*
X35094952Y-95218476D01*
X35142571Y-95266095D01*
X35237810Y-95313714D01*
X44761619Y-96599428D02*
X44714000Y-96694666D01*
X44618762Y-96789904D01*
X44475905Y-96932761D01*
X44428286Y-97028000D01*
X44428286Y-97123238D01*
X44666381Y-97075619D02*
X44618762Y-97170857D01*
X44523524Y-97266095D01*
X44333048Y-97313714D01*
X43999714Y-97313714D01*
X43809238Y-97266095D01*
X43714000Y-97170857D01*
X43666381Y-97075619D01*
X43666381Y-96885142D01*
X43714000Y-96789904D01*
X43809238Y-96694666D01*
X43999714Y-96647047D01*
X44333048Y-96647047D01*
X44523524Y-96694666D01*
X44618762Y-96789904D01*
X44666381Y-96885142D01*
X44666381Y-97075619D01*
X43666381Y-96313714D02*
X43666381Y-95694666D01*
X44047333Y-96028000D01*
X44047333Y-95885142D01*
X44094952Y-95789904D01*
X44142571Y-95742285D01*
X44237810Y-95694666D01*
X44475905Y-95694666D01*
X44571143Y-95742285D01*
X44618762Y-95789904D01*
X44666381Y-95885142D01*
X44666381Y-96170857D01*
X44618762Y-96266095D01*
X44571143Y-96313714D01*
X43666381Y-95361333D02*
X43666381Y-94694666D01*
X44666381Y-95123238D01*
X53761619Y-96599428D02*
X53714000Y-96694666D01*
X53618762Y-96789904D01*
X53475905Y-96932761D01*
X53428286Y-97028000D01*
X53428286Y-97123238D01*
X53666381Y-97075619D02*
X53618762Y-97170857D01*
X53523524Y-97266095D01*
X53333048Y-97313714D01*
X52999714Y-97313714D01*
X52809238Y-97266095D01*
X52714000Y-97170857D01*
X52666381Y-97075619D01*
X52666381Y-96885142D01*
X52714000Y-96789904D01*
X52809238Y-96694666D01*
X52999714Y-96647047D01*
X53333048Y-96647047D01*
X53523524Y-96694666D01*
X53618762Y-96789904D01*
X53666381Y-96885142D01*
X53666381Y-97075619D01*
X52666381Y-96313714D02*
X52666381Y-95694666D01*
X53047333Y-96028000D01*
X53047333Y-95885142D01*
X53094952Y-95789904D01*
X53142571Y-95742285D01*
X53237810Y-95694666D01*
X53475905Y-95694666D01*
X53571143Y-95742285D01*
X53618762Y-95789904D01*
X53666381Y-95885142D01*
X53666381Y-96170857D01*
X53618762Y-96266095D01*
X53571143Y-96313714D01*
X53094952Y-95123238D02*
X53047333Y-95218476D01*
X52999714Y-95266095D01*
X52904476Y-95313714D01*
X52856857Y-95313714D01*
X52761619Y-95266095D01*
X52714000Y-95218476D01*
X52666381Y-95123238D01*
X52666381Y-94932761D01*
X52714000Y-94837523D01*
X52761619Y-94789904D01*
X52856857Y-94742285D01*
X52904476Y-94742285D01*
X52999714Y-94789904D01*
X53047333Y-94837523D01*
X53094952Y-94932761D01*
X53094952Y-95123238D01*
X53142571Y-95218476D01*
X53190190Y-95266095D01*
X53285429Y-95313714D01*
X53475905Y-95313714D01*
X53571143Y-95266095D01*
X53618762Y-95218476D01*
X53666381Y-95123238D01*
X53666381Y-94932761D01*
X53618762Y-94837523D01*
X53571143Y-94789904D01*
X53475905Y-94742285D01*
X53285429Y-94742285D01*
X53190190Y-94789904D01*
X53142571Y-94837523D01*
X53094952Y-94932761D01*
X62761619Y-96599428D02*
X62714000Y-96694666D01*
X62618762Y-96789904D01*
X62475905Y-96932761D01*
X62428286Y-97028000D01*
X62428286Y-97123238D01*
X62666381Y-97075619D02*
X62618762Y-97170857D01*
X62523524Y-97266095D01*
X62333048Y-97313714D01*
X61999714Y-97313714D01*
X61809238Y-97266095D01*
X61714000Y-97170857D01*
X61666381Y-97075619D01*
X61666381Y-96885142D01*
X61714000Y-96789904D01*
X61809238Y-96694666D01*
X61999714Y-96647047D01*
X62333048Y-96647047D01*
X62523524Y-96694666D01*
X62618762Y-96789904D01*
X62666381Y-96885142D01*
X62666381Y-97075619D01*
X61666381Y-96313714D02*
X61666381Y-95694666D01*
X62047333Y-96028000D01*
X62047333Y-95885142D01*
X62094952Y-95789904D01*
X62142571Y-95742285D01*
X62237810Y-95694666D01*
X62475905Y-95694666D01*
X62571143Y-95742285D01*
X62618762Y-95789904D01*
X62666381Y-95885142D01*
X62666381Y-96170857D01*
X62618762Y-96266095D01*
X62571143Y-96313714D01*
X62666381Y-95218476D02*
X62666381Y-95028000D01*
X62618762Y-94932761D01*
X62571143Y-94885142D01*
X62428286Y-94789904D01*
X62237810Y-94742285D01*
X61856857Y-94742285D01*
X61761619Y-94789904D01*
X61714000Y-94837523D01*
X61666381Y-94932761D01*
X61666381Y-95123238D01*
X61714000Y-95218476D01*
X61761619Y-95266095D01*
X61856857Y-95313714D01*
X62094952Y-95313714D01*
X62190190Y-95266095D01*
X62237810Y-95218476D01*
X62285429Y-95123238D01*
X62285429Y-94932761D01*
X62237810Y-94837523D01*
X62190190Y-94789904D01*
X62094952Y-94742285D01*
X71761619Y-96599428D02*
X71714000Y-96694666D01*
X71618762Y-96789904D01*
X71475905Y-96932761D01*
X71428286Y-97028000D01*
X71428286Y-97123238D01*
X71666381Y-97075619D02*
X71618762Y-97170857D01*
X71523524Y-97266095D01*
X71333048Y-97313714D01*
X70999714Y-97313714D01*
X70809238Y-97266095D01*
X70714000Y-97170857D01*
X70666381Y-97075619D01*
X70666381Y-96885142D01*
X70714000Y-96789904D01*
X70809238Y-96694666D01*
X70999714Y-96647047D01*
X71333048Y-96647047D01*
X71523524Y-96694666D01*
X71618762Y-96789904D01*
X71666381Y-96885142D01*
X71666381Y-97075619D01*
X70999714Y-95789904D02*
X71666381Y-95789904D01*
X70618762Y-96028000D02*
X71333048Y-96266095D01*
X71333048Y-95647047D01*
X70666381Y-95075619D02*
X70666381Y-94980380D01*
X70714000Y-94885142D01*
X70761619Y-94837523D01*
X70856857Y-94789904D01*
X71047333Y-94742285D01*
X71285429Y-94742285D01*
X71475905Y-94789904D01*
X71571143Y-94837523D01*
X71618762Y-94885142D01*
X71666381Y-94980380D01*
X71666381Y-95075619D01*
X71618762Y-95170857D01*
X71571143Y-95218476D01*
X71475905Y-95266095D01*
X71285429Y-95313714D01*
X71047333Y-95313714D01*
X70856857Y-95266095D01*
X70761619Y-95218476D01*
X70714000Y-95170857D01*
X70666381Y-95075619D01*
X80761619Y-96599428D02*
X80714000Y-96694666D01*
X80618762Y-96789904D01*
X80475905Y-96932761D01*
X80428286Y-97028000D01*
X80428286Y-97123238D01*
X80666381Y-97075619D02*
X80618762Y-97170857D01*
X80523524Y-97266095D01*
X80333048Y-97313714D01*
X79999714Y-97313714D01*
X79809238Y-97266095D01*
X79714000Y-97170857D01*
X79666381Y-97075619D01*
X79666381Y-96885142D01*
X79714000Y-96789904D01*
X79809238Y-96694666D01*
X79999714Y-96647047D01*
X80333048Y-96647047D01*
X80523524Y-96694666D01*
X80618762Y-96789904D01*
X80666381Y-96885142D01*
X80666381Y-97075619D01*
X79999714Y-95789904D02*
X80666381Y-95789904D01*
X79618762Y-96028000D02*
X80333048Y-96266095D01*
X80333048Y-95647047D01*
X80666381Y-94742285D02*
X80666381Y-95313714D01*
X80666381Y-95028000D02*
X79666381Y-95028000D01*
X79809238Y-95123238D01*
X79904476Y-95218476D01*
X79952095Y-95313714D01*
X89761619Y-96599428D02*
X89714000Y-96694666D01*
X89618762Y-96789904D01*
X89475905Y-96932761D01*
X89428286Y-97028000D01*
X89428286Y-97123238D01*
X89666381Y-97075619D02*
X89618762Y-97170857D01*
X89523524Y-97266095D01*
X89333048Y-97313714D01*
X88999714Y-97313714D01*
X88809238Y-97266095D01*
X88714000Y-97170857D01*
X88666381Y-97075619D01*
X88666381Y-96885142D01*
X88714000Y-96789904D01*
X88809238Y-96694666D01*
X88999714Y-96647047D01*
X89333048Y-96647047D01*
X89523524Y-96694666D01*
X89618762Y-96789904D01*
X89666381Y-96885142D01*
X89666381Y-97075619D01*
X88999714Y-95789904D02*
X89666381Y-95789904D01*
X88618762Y-96028000D02*
X89333048Y-96266095D01*
X89333048Y-95647047D01*
X88761619Y-95313714D02*
X88714000Y-95266095D01*
X88666381Y-95170857D01*
X88666381Y-94932761D01*
X88714000Y-94837523D01*
X88761619Y-94789904D01*
X88856857Y-94742285D01*
X88952095Y-94742285D01*
X89094952Y-94789904D01*
X89666381Y-95361333D01*
X89666381Y-94742285D01*
X98761619Y-96599428D02*
X98714000Y-96694666D01*
X98618762Y-96789904D01*
X98475905Y-96932761D01*
X98428286Y-97028000D01*
X98428286Y-97123238D01*
X98666381Y-97075619D02*
X98618762Y-97170857D01*
X98523524Y-97266095D01*
X98333048Y-97313714D01*
X97999714Y-97313714D01*
X97809238Y-97266095D01*
X97714000Y-97170857D01*
X97666381Y-97075619D01*
X97666381Y-96885142D01*
X97714000Y-96789904D01*
X97809238Y-96694666D01*
X97999714Y-96647047D01*
X98333048Y-96647047D01*
X98523524Y-96694666D01*
X98618762Y-96789904D01*
X98666381Y-96885142D01*
X98666381Y-97075619D01*
X97999714Y-95789904D02*
X98666381Y-95789904D01*
X97618762Y-96028000D02*
X98333048Y-96266095D01*
X98333048Y-95647047D01*
X97666381Y-95361333D02*
X97666381Y-94742285D01*
X98047333Y-95075619D01*
X98047333Y-94932761D01*
X98094952Y-94837523D01*
X98142571Y-94789904D01*
X98237810Y-94742285D01*
X98475905Y-94742285D01*
X98571143Y-94789904D01*
X98618762Y-94837523D01*
X98666381Y-94932761D01*
X98666381Y-95218476D01*
X98618762Y-95313714D01*
X98571143Y-95361333D01*
X66738572Y-59602619D02*
X66643334Y-59555000D01*
X66548096Y-59459762D01*
X66405239Y-59316905D01*
X66310000Y-59269286D01*
X66214762Y-59269286D01*
X66262381Y-59507381D02*
X66167143Y-59459762D01*
X66071905Y-59364524D01*
X66024286Y-59174048D01*
X66024286Y-58840714D01*
X66071905Y-58650238D01*
X66167143Y-58555000D01*
X66262381Y-58507381D01*
X66452858Y-58507381D01*
X66548096Y-58555000D01*
X66643334Y-58650238D01*
X66690953Y-58840714D01*
X66690953Y-59174048D01*
X66643334Y-59364524D01*
X66548096Y-59459762D01*
X66452858Y-59507381D01*
X66262381Y-59507381D01*
X67548096Y-58840714D02*
X67548096Y-59507381D01*
X67310000Y-58459762D02*
X67071905Y-59174048D01*
X67690953Y-59174048D01*
X68500477Y-58840714D02*
X68500477Y-59507381D01*
X68262381Y-58459762D02*
X68024286Y-59174048D01*
X68643334Y-59174048D01*
X48958572Y-59602619D02*
X48863334Y-59555000D01*
X48768096Y-59459762D01*
X48625239Y-59316905D01*
X48530000Y-59269286D01*
X48434762Y-59269286D01*
X48482381Y-59507381D02*
X48387143Y-59459762D01*
X48291905Y-59364524D01*
X48244286Y-59174048D01*
X48244286Y-58840714D01*
X48291905Y-58650238D01*
X48387143Y-58555000D01*
X48482381Y-58507381D01*
X48672858Y-58507381D01*
X48768096Y-58555000D01*
X48863334Y-58650238D01*
X48910953Y-58840714D01*
X48910953Y-59174048D01*
X48863334Y-59364524D01*
X48768096Y-59459762D01*
X48672858Y-59507381D01*
X48482381Y-59507381D01*
X49768096Y-58840714D02*
X49768096Y-59507381D01*
X49530000Y-58459762D02*
X49291905Y-59174048D01*
X49910953Y-59174048D01*
X50720477Y-58507381D02*
X50530000Y-58507381D01*
X50434762Y-58555000D01*
X50387143Y-58602619D01*
X50291905Y-58745476D01*
X50244286Y-58935952D01*
X50244286Y-59316905D01*
X50291905Y-59412143D01*
X50339524Y-59459762D01*
X50434762Y-59507381D01*
X50625239Y-59507381D01*
X50720477Y-59459762D01*
X50768096Y-59412143D01*
X50815715Y-59316905D01*
X50815715Y-59078810D01*
X50768096Y-58983571D01*
X50720477Y-58935952D01*
X50625239Y-58888333D01*
X50434762Y-58888333D01*
X50339524Y-58935952D01*
X50291905Y-58983571D01*
X50244286Y-59078810D01*
X121118334Y-72842381D02*
X120785000Y-72366190D01*
X120546905Y-72842381D02*
X120546905Y-71842381D01*
X120927858Y-71842381D01*
X121023096Y-71890000D01*
X121070715Y-71937619D01*
X121118334Y-72032857D01*
X121118334Y-72175714D01*
X121070715Y-72270952D01*
X121023096Y-72318571D01*
X120927858Y-72366190D01*
X120546905Y-72366190D01*
X122070715Y-72842381D02*
X121499286Y-72842381D01*
X121785000Y-72842381D02*
X121785000Y-71842381D01*
X121689762Y-71985238D01*
X121594524Y-72080476D01*
X121499286Y-72128095D01*
X117443334Y-72842381D02*
X116871905Y-72842381D01*
X117157619Y-72842381D02*
X117157619Y-71842381D01*
X117062381Y-71985238D01*
X116967143Y-72080476D01*
X116871905Y-72128095D01*
X118062381Y-71842381D02*
X118157620Y-71842381D01*
X118252858Y-71890000D01*
X118300477Y-71937619D01*
X118348096Y-72032857D01*
X118395715Y-72223333D01*
X118395715Y-72461429D01*
X118348096Y-72651905D01*
X118300477Y-72747143D01*
X118252858Y-72794762D01*
X118157620Y-72842381D01*
X118062381Y-72842381D01*
X117967143Y-72794762D01*
X117919524Y-72747143D01*
X117871905Y-72651905D01*
X117824286Y-72461429D01*
X117824286Y-72223333D01*
X117871905Y-72032857D01*
X117919524Y-71937619D01*
X117967143Y-71890000D01*
X118062381Y-71842381D01*
X119014762Y-71842381D02*
X119110001Y-71842381D01*
X119205239Y-71890000D01*
X119252858Y-71937619D01*
X119300477Y-72032857D01*
X119348096Y-72223333D01*
X119348096Y-72461429D01*
X119300477Y-72651905D01*
X119252858Y-72747143D01*
X119205239Y-72794762D01*
X119110001Y-72842381D01*
X119014762Y-72842381D01*
X118919524Y-72794762D01*
X118871905Y-72747143D01*
X118824286Y-72651905D01*
X118776667Y-72461429D01*
X118776667Y-72223333D01*
X118824286Y-72032857D01*
X118871905Y-71937619D01*
X118919524Y-71890000D01*
X119014762Y-71842381D01*
X151602334Y-69290381D02*
X151269000Y-68814190D01*
X151030905Y-69290381D02*
X151030905Y-68290381D01*
X151411858Y-68290381D01*
X151507096Y-68338000D01*
X151554715Y-68385619D01*
X151602334Y-68480857D01*
X151602334Y-68623714D01*
X151554715Y-68718952D01*
X151507096Y-68766571D01*
X151411858Y-68814190D01*
X151030905Y-68814190D01*
X151983286Y-68385619D02*
X152030905Y-68338000D01*
X152126143Y-68290381D01*
X152364239Y-68290381D01*
X152459477Y-68338000D01*
X152507096Y-68385619D01*
X152554715Y-68480857D01*
X152554715Y-68576095D01*
X152507096Y-68718952D01*
X151935667Y-69290381D01*
X152554715Y-69290381D01*
X147832096Y-68623714D02*
X147832096Y-69290381D01*
X147594000Y-68242762D02*
X147355905Y-68957048D01*
X147974953Y-68957048D01*
X148260667Y-68290381D02*
X148927334Y-68290381D01*
X148498762Y-69290381D01*
X149498762Y-68290381D02*
X149594001Y-68290381D01*
X149689239Y-68338000D01*
X149736858Y-68385619D01*
X149784477Y-68480857D01*
X149832096Y-68671333D01*
X149832096Y-68909429D01*
X149784477Y-69099905D01*
X149736858Y-69195143D01*
X149689239Y-69242762D01*
X149594001Y-69290381D01*
X149498762Y-69290381D01*
X149403524Y-69242762D01*
X149355905Y-69195143D01*
X149308286Y-69099905D01*
X149260667Y-68909429D01*
X149260667Y-68671333D01*
X149308286Y-68480857D01*
X149355905Y-68385619D01*
X149403524Y-68338000D01*
X149498762Y-68290381D01*
X116952334Y-79290381D02*
X116619000Y-78814190D01*
X116380905Y-79290381D02*
X116380905Y-78290381D01*
X116761858Y-78290381D01*
X116857096Y-78338000D01*
X116904715Y-78385619D01*
X116952334Y-78480857D01*
X116952334Y-78623714D01*
X116904715Y-78718952D01*
X116857096Y-78766571D01*
X116761858Y-78814190D01*
X116380905Y-78814190D01*
X117285667Y-78290381D02*
X117904715Y-78290381D01*
X117571381Y-78671333D01*
X117714239Y-78671333D01*
X117809477Y-78718952D01*
X117857096Y-78766571D01*
X117904715Y-78861810D01*
X117904715Y-79099905D01*
X117857096Y-79195143D01*
X117809477Y-79242762D01*
X117714239Y-79290381D01*
X117428524Y-79290381D01*
X117333286Y-79242762D01*
X117285667Y-79195143D01*
X119603524Y-78623714D02*
X119603524Y-79290381D01*
X119365428Y-78242762D02*
X119127333Y-78957048D01*
X119746381Y-78957048D01*
X120032095Y-78290381D02*
X120698762Y-78290381D01*
X120270190Y-79290381D01*
X121079714Y-79290381D02*
X121079714Y-78290381D01*
X121174952Y-78909429D02*
X121460667Y-79290381D01*
X121460667Y-78623714D02*
X121079714Y-79004667D01*
X186587334Y-30290381D02*
X186254000Y-29814190D01*
X186015905Y-30290381D02*
X186015905Y-29290381D01*
X186396858Y-29290381D01*
X186492096Y-29338000D01*
X186539715Y-29385619D01*
X186587334Y-29480857D01*
X186587334Y-29623714D01*
X186539715Y-29718952D01*
X186492096Y-29766571D01*
X186396858Y-29814190D01*
X186015905Y-29814190D01*
X187444477Y-29623714D02*
X187444477Y-30290381D01*
X187206381Y-29242762D02*
X186968286Y-29957048D01*
X187587334Y-29957048D01*
X188698762Y-30290381D02*
X188127333Y-30290381D01*
X188413047Y-30290381D02*
X188413047Y-29290381D01*
X188317809Y-29433238D01*
X188222571Y-29528476D01*
X188127333Y-29576095D01*
X189603524Y-29290381D02*
X189127333Y-29290381D01*
X189079714Y-29766571D01*
X189127333Y-29718952D01*
X189222571Y-29671333D01*
X189460667Y-29671333D01*
X189555905Y-29718952D01*
X189603524Y-29766571D01*
X189651143Y-29861810D01*
X189651143Y-30099905D01*
X189603524Y-30195143D01*
X189555905Y-30242762D01*
X189460667Y-30290381D01*
X189222571Y-30290381D01*
X189127333Y-30242762D01*
X189079714Y-30195143D01*
X190079714Y-30290381D02*
X190079714Y-29290381D01*
X190174952Y-29909429D02*
X190460667Y-30290381D01*
X190460667Y-29623714D02*
X190079714Y-30004667D01*
X154587334Y-34290381D02*
X154254000Y-33814190D01*
X154015905Y-34290381D02*
X154015905Y-33290381D01*
X154396858Y-33290381D01*
X154492096Y-33338000D01*
X154539715Y-33385619D01*
X154587334Y-33480857D01*
X154587334Y-33623714D01*
X154539715Y-33718952D01*
X154492096Y-33766571D01*
X154396858Y-33814190D01*
X154015905Y-33814190D01*
X155492096Y-33290381D02*
X155015905Y-33290381D01*
X154968286Y-33766571D01*
X155015905Y-33718952D01*
X155111143Y-33671333D01*
X155349239Y-33671333D01*
X155444477Y-33718952D01*
X155492096Y-33766571D01*
X155539715Y-33861810D01*
X155539715Y-34099905D01*
X155492096Y-34195143D01*
X155444477Y-34242762D01*
X155349239Y-34290381D01*
X155111143Y-34290381D01*
X155015905Y-34242762D01*
X154968286Y-34195143D01*
X157246381Y-33290381D02*
X157341620Y-33290381D01*
X157436858Y-33338000D01*
X157484477Y-33385619D01*
X157532096Y-33480857D01*
X157579715Y-33671333D01*
X157579715Y-33909429D01*
X157532096Y-34099905D01*
X157484477Y-34195143D01*
X157436858Y-34242762D01*
X157341620Y-34290381D01*
X157246381Y-34290381D01*
X157151143Y-34242762D01*
X157103524Y-34195143D01*
X157055905Y-34099905D01*
X157008286Y-33909429D01*
X157008286Y-33671333D01*
X157055905Y-33480857D01*
X157103524Y-33385619D01*
X157151143Y-33338000D01*
X157246381Y-33290381D01*
X201587334Y-30290381D02*
X201254000Y-29814190D01*
X201015905Y-30290381D02*
X201015905Y-29290381D01*
X201396858Y-29290381D01*
X201492096Y-29338000D01*
X201539715Y-29385619D01*
X201587334Y-29480857D01*
X201587334Y-29623714D01*
X201539715Y-29718952D01*
X201492096Y-29766571D01*
X201396858Y-29814190D01*
X201015905Y-29814190D01*
X202444477Y-29290381D02*
X202254000Y-29290381D01*
X202158762Y-29338000D01*
X202111143Y-29385619D01*
X202015905Y-29528476D01*
X201968286Y-29718952D01*
X201968286Y-30099905D01*
X202015905Y-30195143D01*
X202063524Y-30242762D01*
X202158762Y-30290381D01*
X202349239Y-30290381D01*
X202444477Y-30242762D01*
X202492096Y-30195143D01*
X202539715Y-30099905D01*
X202539715Y-29861810D01*
X202492096Y-29766571D01*
X202444477Y-29718952D01*
X202349239Y-29671333D01*
X202158762Y-29671333D01*
X202063524Y-29718952D01*
X202015905Y-29766571D01*
X201968286Y-29861810D01*
X203079714Y-29290381D02*
X203746381Y-29290381D01*
X203317809Y-30290381D01*
X204603524Y-29290381D02*
X204127333Y-29290381D01*
X204079714Y-29766571D01*
X204127333Y-29718952D01*
X204222571Y-29671333D01*
X204460667Y-29671333D01*
X204555905Y-29718952D01*
X204603524Y-29766571D01*
X204651143Y-29861810D01*
X204651143Y-30099905D01*
X204603524Y-30195143D01*
X204555905Y-30242762D01*
X204460667Y-30290381D01*
X204222571Y-30290381D01*
X204127333Y-30242762D01*
X204079714Y-30195143D01*
X205079714Y-30290381D02*
X205079714Y-29290381D01*
X205174952Y-29909429D02*
X205460667Y-30290381D01*
X205460667Y-29623714D02*
X205079714Y-30004667D01*
X105396381Y-73829666D02*
X104920190Y-74163000D01*
X105396381Y-74401095D02*
X104396381Y-74401095D01*
X104396381Y-74020142D01*
X104444000Y-73924904D01*
X104491619Y-73877285D01*
X104586857Y-73829666D01*
X104729714Y-73829666D01*
X104824952Y-73877285D01*
X104872571Y-73924904D01*
X104920190Y-74020142D01*
X104920190Y-74401095D01*
X104396381Y-73496333D02*
X104396381Y-72829666D01*
X105396381Y-73258238D01*
X104729714Y-71416571D02*
X105396381Y-71416571D01*
X104348762Y-71654667D02*
X105063048Y-71892762D01*
X105063048Y-71273714D01*
X105301143Y-70892762D02*
X105348762Y-70845143D01*
X105396381Y-70892762D01*
X105348762Y-70940381D01*
X105301143Y-70892762D01*
X105396381Y-70892762D01*
X104396381Y-70511810D02*
X104396381Y-69845143D01*
X105396381Y-70273715D01*
X105396381Y-69464191D02*
X104396381Y-69464191D01*
X105015429Y-69368953D02*
X105396381Y-69083238D01*
X104729714Y-69083238D02*
X105110667Y-69464191D01*
X203953524Y-64890381D02*
X203620190Y-64414190D01*
X203382095Y-64890381D02*
X203382095Y-63890381D01*
X203763048Y-63890381D01*
X203858286Y-63938000D01*
X203905905Y-63985619D01*
X203953524Y-64080857D01*
X203953524Y-64223714D01*
X203905905Y-64318952D01*
X203858286Y-64366571D01*
X203763048Y-64414190D01*
X203382095Y-64414190D01*
X204382095Y-64890381D02*
X204382095Y-63890381D01*
X204953524Y-64890381D01*
X204953524Y-63890381D01*
X205953524Y-64890381D02*
X205382095Y-64890381D01*
X205667809Y-64890381D02*
X205667809Y-63890381D01*
X205572571Y-64033238D01*
X205477333Y-64128476D01*
X205382095Y-64176095D01*
X313953524Y-81890381D02*
X313620190Y-81414190D01*
X313382095Y-81890381D02*
X313382095Y-80890381D01*
X313763048Y-80890381D01*
X313858286Y-80938000D01*
X313905905Y-80985619D01*
X313953524Y-81080857D01*
X313953524Y-81223714D01*
X313905905Y-81318952D01*
X313858286Y-81366571D01*
X313763048Y-81414190D01*
X313382095Y-81414190D01*
X314382095Y-81890381D02*
X314382095Y-80890381D01*
X314953524Y-81890381D01*
X314953524Y-80890381D01*
X315382095Y-80985619D02*
X315429714Y-80938000D01*
X315524952Y-80890381D01*
X315763048Y-80890381D01*
X315858286Y-80938000D01*
X315905905Y-80985619D01*
X315953524Y-81080857D01*
X315953524Y-81176095D01*
X315905905Y-81318952D01*
X315334476Y-81890381D01*
X315953524Y-81890381D01*
X203953524Y-81890381D02*
X203620190Y-81414190D01*
X203382095Y-81890381D02*
X203382095Y-80890381D01*
X203763048Y-80890381D01*
X203858286Y-80938000D01*
X203905905Y-80985619D01*
X203953524Y-81080857D01*
X203953524Y-81223714D01*
X203905905Y-81318952D01*
X203858286Y-81366571D01*
X203763048Y-81414190D01*
X203382095Y-81414190D01*
X204382095Y-81890381D02*
X204382095Y-80890381D01*
X204953524Y-81890381D01*
X204953524Y-80890381D01*
X205334476Y-80890381D02*
X205953524Y-80890381D01*
X205620190Y-81271333D01*
X205763048Y-81271333D01*
X205858286Y-81318952D01*
X205905905Y-81366571D01*
X205953524Y-81461810D01*
X205953524Y-81699905D01*
X205905905Y-81795143D01*
X205858286Y-81842762D01*
X205763048Y-81890381D01*
X205477333Y-81890381D01*
X205382095Y-81842762D01*
X205334476Y-81795143D01*
X93289524Y-85047381D02*
X92956190Y-84571190D01*
X92718095Y-85047381D02*
X92718095Y-84047381D01*
X93099048Y-84047381D01*
X93194286Y-84095000D01*
X93241905Y-84142619D01*
X93289524Y-84237857D01*
X93289524Y-84380714D01*
X93241905Y-84475952D01*
X93194286Y-84523571D01*
X93099048Y-84571190D01*
X92718095Y-84571190D01*
X93718095Y-85047381D02*
X93718095Y-84047381D01*
X94289524Y-85047381D01*
X94289524Y-84047381D01*
X95194286Y-84380714D02*
X95194286Y-85047381D01*
X94956190Y-83999762D02*
X94718095Y-84714048D01*
X95337143Y-84714048D01*
X133858095Y-75017381D02*
X133858095Y-75826905D01*
X133905714Y-75922143D01*
X133953333Y-75969762D01*
X134048571Y-76017381D01*
X134239048Y-76017381D01*
X134334286Y-75969762D01*
X134381905Y-75922143D01*
X134429524Y-75826905D01*
X134429524Y-75017381D01*
X135381905Y-75017381D02*
X134905714Y-75017381D01*
X134858095Y-75493571D01*
X134905714Y-75445952D01*
X135000952Y-75398333D01*
X135239048Y-75398333D01*
X135334286Y-75445952D01*
X135381905Y-75493571D01*
X135429524Y-75588810D01*
X135429524Y-75826905D01*
X135381905Y-75922143D01*
X135334286Y-75969762D01*
X135239048Y-76017381D01*
X135000952Y-76017381D01*
X134905714Y-75969762D01*
X134858095Y-75922143D01*
X265174476Y-57970381D02*
X265507809Y-58970381D01*
X265841143Y-57970381D01*
X266745905Y-58970381D02*
X266412571Y-58494190D01*
X266174476Y-58970381D02*
X266174476Y-57970381D01*
X266555429Y-57970381D01*
X266650667Y-58018000D01*
X266698286Y-58065619D01*
X266745905Y-58160857D01*
X266745905Y-58303714D01*
X266698286Y-58398952D01*
X266650667Y-58446571D01*
X266555429Y-58494190D01*
X266174476Y-58494190D01*
X267698286Y-58970381D02*
X267126857Y-58970381D01*
X267412571Y-58970381D02*
X267412571Y-57970381D01*
X267317333Y-58113238D01*
X267222095Y-58208476D01*
X267126857Y-58256095D01*
X92205905Y-26995143D02*
X92158286Y-27042762D01*
X92015429Y-27090381D01*
X91920191Y-27090381D01*
X91777333Y-27042762D01*
X91682095Y-26947524D01*
X91634476Y-26852286D01*
X91586857Y-26661810D01*
X91586857Y-26518952D01*
X91634476Y-26328476D01*
X91682095Y-26233238D01*
X91777333Y-26138000D01*
X91920191Y-26090381D01*
X92015429Y-26090381D01*
X92158286Y-26138000D01*
X92205905Y-26185619D01*
X92824952Y-26090381D02*
X93015429Y-26090381D01*
X93110667Y-26138000D01*
X93205905Y-26233238D01*
X93253524Y-26423714D01*
X93253524Y-26757048D01*
X93205905Y-26947524D01*
X93110667Y-27042762D01*
X93015429Y-27090381D01*
X92824952Y-27090381D01*
X92729714Y-27042762D01*
X92634476Y-26947524D01*
X92586857Y-26757048D01*
X92586857Y-26423714D01*
X92634476Y-26233238D01*
X92729714Y-26138000D01*
X92824952Y-26090381D01*
X93682095Y-27090381D02*
X93682095Y-26090381D01*
X94253524Y-27090381D01*
X94253524Y-26090381D01*
X94729714Y-27090381D02*
X94729714Y-26090381D01*
X95301143Y-27090381D01*
X95301143Y-26090381D01*
X96205905Y-26423714D02*
X96205905Y-27090381D01*
X95967809Y-26042762D02*
X95729714Y-26757048D01*
X96348762Y-26757048D01*
X118205905Y-26995143D02*
X118158286Y-27042762D01*
X118015429Y-27090381D01*
X117920191Y-27090381D01*
X117777333Y-27042762D01*
X117682095Y-26947524D01*
X117634476Y-26852286D01*
X117586857Y-26661810D01*
X117586857Y-26518952D01*
X117634476Y-26328476D01*
X117682095Y-26233238D01*
X117777333Y-26138000D01*
X117920191Y-26090381D01*
X118015429Y-26090381D01*
X118158286Y-26138000D01*
X118205905Y-26185619D01*
X118824952Y-26090381D02*
X119015429Y-26090381D01*
X119110667Y-26138000D01*
X119205905Y-26233238D01*
X119253524Y-26423714D01*
X119253524Y-26757048D01*
X119205905Y-26947524D01*
X119110667Y-27042762D01*
X119015429Y-27090381D01*
X118824952Y-27090381D01*
X118729714Y-27042762D01*
X118634476Y-26947524D01*
X118586857Y-26757048D01*
X118586857Y-26423714D01*
X118634476Y-26233238D01*
X118729714Y-26138000D01*
X118824952Y-26090381D01*
X119682095Y-27090381D02*
X119682095Y-26090381D01*
X120253524Y-27090381D01*
X120253524Y-26090381D01*
X120729714Y-27090381D02*
X120729714Y-26090381D01*
X121301143Y-27090381D01*
X121301143Y-26090381D01*
X122253524Y-26090381D02*
X121777333Y-26090381D01*
X121729714Y-26566571D01*
X121777333Y-26518952D01*
X121872571Y-26471333D01*
X122110667Y-26471333D01*
X122205905Y-26518952D01*
X122253524Y-26566571D01*
X122301143Y-26661810D01*
X122301143Y-26899905D01*
X122253524Y-26995143D01*
X122205905Y-27042762D01*
X122110667Y-27090381D01*
X121872571Y-27090381D01*
X121777333Y-27042762D01*
X121729714Y-26995143D01*
X230205905Y-26995143D02*
X230158286Y-27042762D01*
X230015429Y-27090381D01*
X229920191Y-27090381D01*
X229777333Y-27042762D01*
X229682095Y-26947524D01*
X229634476Y-26852286D01*
X229586857Y-26661810D01*
X229586857Y-26518952D01*
X229634476Y-26328476D01*
X229682095Y-26233238D01*
X229777333Y-26138000D01*
X229920191Y-26090381D01*
X230015429Y-26090381D01*
X230158286Y-26138000D01*
X230205905Y-26185619D01*
X230824952Y-26090381D02*
X231015429Y-26090381D01*
X231110667Y-26138000D01*
X231205905Y-26233238D01*
X231253524Y-26423714D01*
X231253524Y-26757048D01*
X231205905Y-26947524D01*
X231110667Y-27042762D01*
X231015429Y-27090381D01*
X230824952Y-27090381D01*
X230729714Y-27042762D01*
X230634476Y-26947524D01*
X230586857Y-26757048D01*
X230586857Y-26423714D01*
X230634476Y-26233238D01*
X230729714Y-26138000D01*
X230824952Y-26090381D01*
X231682095Y-27090381D02*
X231682095Y-26090381D01*
X232253524Y-27090381D01*
X232253524Y-26090381D01*
X232729714Y-27090381D02*
X232729714Y-26090381D01*
X233301143Y-27090381D01*
X233301143Y-26090381D01*
X234205905Y-26090381D02*
X234015428Y-26090381D01*
X233920190Y-26138000D01*
X233872571Y-26185619D01*
X233777333Y-26328476D01*
X233729714Y-26518952D01*
X233729714Y-26899905D01*
X233777333Y-26995143D01*
X233824952Y-27042762D01*
X233920190Y-27090381D01*
X234110667Y-27090381D01*
X234205905Y-27042762D01*
X234253524Y-26995143D01*
X234301143Y-26899905D01*
X234301143Y-26661810D01*
X234253524Y-26566571D01*
X234205905Y-26518952D01*
X234110667Y-26471333D01*
X233920190Y-26471333D01*
X233824952Y-26518952D01*
X233777333Y-26566571D01*
X233729714Y-26661810D01*
X307205905Y-26995143D02*
X307158286Y-27042762D01*
X307015429Y-27090381D01*
X306920191Y-27090381D01*
X306777333Y-27042762D01*
X306682095Y-26947524D01*
X306634476Y-26852286D01*
X306586857Y-26661810D01*
X306586857Y-26518952D01*
X306634476Y-26328476D01*
X306682095Y-26233238D01*
X306777333Y-26138000D01*
X306920191Y-26090381D01*
X307015429Y-26090381D01*
X307158286Y-26138000D01*
X307205905Y-26185619D01*
X307824952Y-26090381D02*
X308015429Y-26090381D01*
X308110667Y-26138000D01*
X308205905Y-26233238D01*
X308253524Y-26423714D01*
X308253524Y-26757048D01*
X308205905Y-26947524D01*
X308110667Y-27042762D01*
X308015429Y-27090381D01*
X307824952Y-27090381D01*
X307729714Y-27042762D01*
X307634476Y-26947524D01*
X307586857Y-26757048D01*
X307586857Y-26423714D01*
X307634476Y-26233238D01*
X307729714Y-26138000D01*
X307824952Y-26090381D01*
X308682095Y-27090381D02*
X308682095Y-26090381D01*
X309253524Y-27090381D01*
X309253524Y-26090381D01*
X309729714Y-27090381D02*
X309729714Y-26090381D01*
X310301143Y-27090381D01*
X310301143Y-26090381D01*
X310682095Y-26090381D02*
X311348762Y-26090381D01*
X310920190Y-27090381D01*
X281205905Y-26995143D02*
X281158286Y-27042762D01*
X281015429Y-27090381D01*
X280920191Y-27090381D01*
X280777333Y-27042762D01*
X280682095Y-26947524D01*
X280634476Y-26852286D01*
X280586857Y-26661810D01*
X280586857Y-26518952D01*
X280634476Y-26328476D01*
X280682095Y-26233238D01*
X280777333Y-26138000D01*
X280920191Y-26090381D01*
X281015429Y-26090381D01*
X281158286Y-26138000D01*
X281205905Y-26185619D01*
X281824952Y-26090381D02*
X282015429Y-26090381D01*
X282110667Y-26138000D01*
X282205905Y-26233238D01*
X282253524Y-26423714D01*
X282253524Y-26757048D01*
X282205905Y-26947524D01*
X282110667Y-27042762D01*
X282015429Y-27090381D01*
X281824952Y-27090381D01*
X281729714Y-27042762D01*
X281634476Y-26947524D01*
X281586857Y-26757048D01*
X281586857Y-26423714D01*
X281634476Y-26233238D01*
X281729714Y-26138000D01*
X281824952Y-26090381D01*
X282682095Y-27090381D02*
X282682095Y-26090381D01*
X283253524Y-27090381D01*
X283253524Y-26090381D01*
X283729714Y-27090381D02*
X283729714Y-26090381D01*
X284301143Y-27090381D01*
X284301143Y-26090381D01*
X284920190Y-26518952D02*
X284824952Y-26471333D01*
X284777333Y-26423714D01*
X284729714Y-26328476D01*
X284729714Y-26280857D01*
X284777333Y-26185619D01*
X284824952Y-26138000D01*
X284920190Y-26090381D01*
X285110667Y-26090381D01*
X285205905Y-26138000D01*
X285253524Y-26185619D01*
X285301143Y-26280857D01*
X285301143Y-26328476D01*
X285253524Y-26423714D01*
X285205905Y-26471333D01*
X285110667Y-26518952D01*
X284920190Y-26518952D01*
X284824952Y-26566571D01*
X284777333Y-26614190D01*
X284729714Y-26709429D01*
X284729714Y-26899905D01*
X284777333Y-26995143D01*
X284824952Y-27042762D01*
X284920190Y-27090381D01*
X285110667Y-27090381D01*
X285205905Y-27042762D01*
X285253524Y-26995143D01*
X285301143Y-26899905D01*
X285301143Y-26709429D01*
X285253524Y-26614190D01*
X285205905Y-26566571D01*
X285110667Y-26518952D01*
X256205905Y-26995143D02*
X256158286Y-27042762D01*
X256015429Y-27090381D01*
X255920191Y-27090381D01*
X255777333Y-27042762D01*
X255682095Y-26947524D01*
X255634476Y-26852286D01*
X255586857Y-26661810D01*
X255586857Y-26518952D01*
X255634476Y-26328476D01*
X255682095Y-26233238D01*
X255777333Y-26138000D01*
X255920191Y-26090381D01*
X256015429Y-26090381D01*
X256158286Y-26138000D01*
X256205905Y-26185619D01*
X256824952Y-26090381D02*
X257015429Y-26090381D01*
X257110667Y-26138000D01*
X257205905Y-26233238D01*
X257253524Y-26423714D01*
X257253524Y-26757048D01*
X257205905Y-26947524D01*
X257110667Y-27042762D01*
X257015429Y-27090381D01*
X256824952Y-27090381D01*
X256729714Y-27042762D01*
X256634476Y-26947524D01*
X256586857Y-26757048D01*
X256586857Y-26423714D01*
X256634476Y-26233238D01*
X256729714Y-26138000D01*
X256824952Y-26090381D01*
X257682095Y-27090381D02*
X257682095Y-26090381D01*
X258253524Y-27090381D01*
X258253524Y-26090381D01*
X258729714Y-27090381D02*
X258729714Y-26090381D01*
X259301143Y-27090381D01*
X259301143Y-26090381D01*
X259824952Y-27090381D02*
X260015428Y-27090381D01*
X260110667Y-27042762D01*
X260158286Y-26995143D01*
X260253524Y-26852286D01*
X260301143Y-26661810D01*
X260301143Y-26280857D01*
X260253524Y-26185619D01*
X260205905Y-26138000D01*
X260110667Y-26090381D01*
X259920190Y-26090381D01*
X259824952Y-26138000D01*
X259777333Y-26185619D01*
X259729714Y-26280857D01*
X259729714Y-26518952D01*
X259777333Y-26614190D01*
X259824952Y-26661810D01*
X259920190Y-26709429D01*
X260110667Y-26709429D01*
X260205905Y-26661810D01*
X260253524Y-26614190D01*
X260301143Y-26518952D01*
X67729715Y-26995143D02*
X67682096Y-27042762D01*
X67539239Y-27090381D01*
X67444001Y-27090381D01*
X67301143Y-27042762D01*
X67205905Y-26947524D01*
X67158286Y-26852286D01*
X67110667Y-26661810D01*
X67110667Y-26518952D01*
X67158286Y-26328476D01*
X67205905Y-26233238D01*
X67301143Y-26138000D01*
X67444001Y-26090381D01*
X67539239Y-26090381D01*
X67682096Y-26138000D01*
X67729715Y-26185619D01*
X68348762Y-26090381D02*
X68539239Y-26090381D01*
X68634477Y-26138000D01*
X68729715Y-26233238D01*
X68777334Y-26423714D01*
X68777334Y-26757048D01*
X68729715Y-26947524D01*
X68634477Y-27042762D01*
X68539239Y-27090381D01*
X68348762Y-27090381D01*
X68253524Y-27042762D01*
X68158286Y-26947524D01*
X68110667Y-26757048D01*
X68110667Y-26423714D01*
X68158286Y-26233238D01*
X68253524Y-26138000D01*
X68348762Y-26090381D01*
X69205905Y-27090381D02*
X69205905Y-26090381D01*
X69777334Y-27090381D01*
X69777334Y-26090381D01*
X70253524Y-27090381D02*
X70253524Y-26090381D01*
X70824953Y-27090381D01*
X70824953Y-26090381D01*
X71824953Y-27090381D02*
X71253524Y-27090381D01*
X71539238Y-27090381D02*
X71539238Y-26090381D01*
X71444000Y-26233238D01*
X71348762Y-26328476D01*
X71253524Y-26376095D01*
X72396381Y-26518952D02*
X72301143Y-26471333D01*
X72253524Y-26423714D01*
X72205905Y-26328476D01*
X72205905Y-26280857D01*
X72253524Y-26185619D01*
X72301143Y-26138000D01*
X72396381Y-26090381D01*
X72586858Y-26090381D01*
X72682096Y-26138000D01*
X72729715Y-26185619D01*
X72777334Y-26280857D01*
X72777334Y-26328476D01*
X72729715Y-26423714D01*
X72682096Y-26471333D01*
X72586858Y-26518952D01*
X72396381Y-26518952D01*
X72301143Y-26566571D01*
X72253524Y-26614190D01*
X72205905Y-26709429D01*
X72205905Y-26899905D01*
X72253524Y-26995143D01*
X72301143Y-27042762D01*
X72396381Y-27090381D01*
X72586858Y-27090381D01*
X72682096Y-27042762D01*
X72729715Y-26995143D01*
X72777334Y-26899905D01*
X72777334Y-26709429D01*
X72729715Y-26614190D01*
X72682096Y-26566571D01*
X72586858Y-26518952D01*
X42729715Y-26995143D02*
X42682096Y-27042762D01*
X42539239Y-27090381D01*
X42444001Y-27090381D01*
X42301143Y-27042762D01*
X42205905Y-26947524D01*
X42158286Y-26852286D01*
X42110667Y-26661810D01*
X42110667Y-26518952D01*
X42158286Y-26328476D01*
X42205905Y-26233238D01*
X42301143Y-26138000D01*
X42444001Y-26090381D01*
X42539239Y-26090381D01*
X42682096Y-26138000D01*
X42729715Y-26185619D01*
X43348762Y-26090381D02*
X43539239Y-26090381D01*
X43634477Y-26138000D01*
X43729715Y-26233238D01*
X43777334Y-26423714D01*
X43777334Y-26757048D01*
X43729715Y-26947524D01*
X43634477Y-27042762D01*
X43539239Y-27090381D01*
X43348762Y-27090381D01*
X43253524Y-27042762D01*
X43158286Y-26947524D01*
X43110667Y-26757048D01*
X43110667Y-26423714D01*
X43158286Y-26233238D01*
X43253524Y-26138000D01*
X43348762Y-26090381D01*
X44205905Y-27090381D02*
X44205905Y-26090381D01*
X44777334Y-27090381D01*
X44777334Y-26090381D01*
X45253524Y-27090381D02*
X45253524Y-26090381D01*
X45824953Y-27090381D01*
X45824953Y-26090381D01*
X46824953Y-27090381D02*
X46253524Y-27090381D01*
X46539238Y-27090381D02*
X46539238Y-26090381D01*
X46444000Y-26233238D01*
X46348762Y-26328476D01*
X46253524Y-26376095D01*
X47301143Y-27090381D02*
X47491619Y-27090381D01*
X47586858Y-27042762D01*
X47634477Y-26995143D01*
X47729715Y-26852286D01*
X47777334Y-26661810D01*
X47777334Y-26280857D01*
X47729715Y-26185619D01*
X47682096Y-26138000D01*
X47586858Y-26090381D01*
X47396381Y-26090381D01*
X47301143Y-26138000D01*
X47253524Y-26185619D01*
X47205905Y-26280857D01*
X47205905Y-26518952D01*
X47253524Y-26614190D01*
X47301143Y-26661810D01*
X47396381Y-26709429D01*
X47586858Y-26709429D01*
X47682096Y-26661810D01*
X47729715Y-26614190D01*
X47777334Y-26518952D01*
X20169524Y-34377381D02*
X20169524Y-33377381D01*
X20502858Y-34091667D01*
X20836191Y-33377381D01*
X20836191Y-34377381D01*
X21455238Y-34377381D02*
X21360000Y-34329762D01*
X21312381Y-34282143D01*
X21264762Y-34186905D01*
X21264762Y-33901190D01*
X21312381Y-33805952D01*
X21360000Y-33758333D01*
X21455238Y-33710714D01*
X21598096Y-33710714D01*
X21693334Y-33758333D01*
X21740953Y-33805952D01*
X21788572Y-33901190D01*
X21788572Y-34186905D01*
X21740953Y-34282143D01*
X21693334Y-34329762D01*
X21598096Y-34377381D01*
X21455238Y-34377381D01*
X22645715Y-33710714D02*
X22645715Y-34377381D01*
X22217143Y-33710714D02*
X22217143Y-34234524D01*
X22264762Y-34329762D01*
X22360000Y-34377381D01*
X22502858Y-34377381D01*
X22598096Y-34329762D01*
X22645715Y-34282143D01*
X23121905Y-33710714D02*
X23121905Y-34377381D01*
X23121905Y-33805952D02*
X23169524Y-33758333D01*
X23264762Y-33710714D01*
X23407620Y-33710714D01*
X23502858Y-33758333D01*
X23550477Y-33853571D01*
X23550477Y-34377381D01*
X23883810Y-33710714D02*
X24264762Y-33710714D01*
X24026667Y-33377381D02*
X24026667Y-34234524D01*
X24074286Y-34329762D01*
X24169524Y-34377381D01*
X24264762Y-34377381D01*
X24598096Y-34377381D02*
X24598096Y-33710714D01*
X24598096Y-33377381D02*
X24550477Y-33425000D01*
X24598096Y-33472619D01*
X24645715Y-33425000D01*
X24598096Y-33377381D01*
X24598096Y-33472619D01*
X25074286Y-33710714D02*
X25074286Y-34377381D01*
X25074286Y-33805952D02*
X25121905Y-33758333D01*
X25217143Y-33710714D01*
X25360001Y-33710714D01*
X25455239Y-33758333D01*
X25502858Y-33853571D01*
X25502858Y-34377381D01*
X26407620Y-33710714D02*
X26407620Y-34520238D01*
X26360001Y-34615476D01*
X26312382Y-34663095D01*
X26217143Y-34710714D01*
X26074286Y-34710714D01*
X25979048Y-34663095D01*
X26407620Y-34329762D02*
X26312382Y-34377381D01*
X26121905Y-34377381D01*
X26026667Y-34329762D01*
X25979048Y-34282143D01*
X25931429Y-34186905D01*
X25931429Y-33901190D01*
X25979048Y-33805952D01*
X26026667Y-33758333D01*
X26121905Y-33710714D01*
X26312382Y-33710714D01*
X26407620Y-33758333D01*
X26883810Y-34377381D02*
X26883810Y-33377381D01*
X26883810Y-33853571D02*
X27455239Y-33853571D01*
X27455239Y-34377381D02*
X27455239Y-33377381D01*
X28074286Y-34377381D02*
X27979048Y-34329762D01*
X27931429Y-34282143D01*
X27883810Y-34186905D01*
X27883810Y-33901190D01*
X27931429Y-33805952D01*
X27979048Y-33758333D01*
X28074286Y-33710714D01*
X28217144Y-33710714D01*
X28312382Y-33758333D01*
X28360001Y-33805952D01*
X28407620Y-33901190D01*
X28407620Y-34186905D01*
X28360001Y-34282143D01*
X28312382Y-34329762D01*
X28217144Y-34377381D01*
X28074286Y-34377381D01*
X28979048Y-34377381D02*
X28883810Y-34329762D01*
X28836191Y-34234524D01*
X28836191Y-33377381D01*
X29740954Y-34329762D02*
X29645716Y-34377381D01*
X29455239Y-34377381D01*
X29360001Y-34329762D01*
X29312382Y-34234524D01*
X29312382Y-33853571D01*
X29360001Y-33758333D01*
X29455239Y-33710714D01*
X29645716Y-33710714D01*
X29740954Y-33758333D01*
X29788573Y-33853571D01*
X29788573Y-33948810D01*
X29312382Y-34044048D01*
X29979049Y-34472619D02*
X30740954Y-34472619D01*
X30931430Y-33472619D02*
X30979049Y-33425000D01*
X31074287Y-33377381D01*
X31312383Y-33377381D01*
X31407621Y-33425000D01*
X31455240Y-33472619D01*
X31502859Y-33567857D01*
X31502859Y-33663095D01*
X31455240Y-33805952D01*
X30883811Y-34377381D01*
X31502859Y-34377381D01*
X31931430Y-34282143D02*
X31979049Y-34329762D01*
X31931430Y-34377381D01*
X31883811Y-34329762D01*
X31931430Y-34282143D01*
X31931430Y-34377381D01*
X32883811Y-33377381D02*
X32407620Y-33377381D01*
X32360001Y-33853571D01*
X32407620Y-33805952D01*
X32502858Y-33758333D01*
X32740954Y-33758333D01*
X32836192Y-33805952D01*
X32883811Y-33853571D01*
X32931430Y-33948810D01*
X32931430Y-34186905D01*
X32883811Y-34282143D01*
X32836192Y-34329762D01*
X32740954Y-34377381D01*
X32502858Y-34377381D01*
X32407620Y-34329762D01*
X32360001Y-34282143D01*
X33360001Y-34377381D02*
X33360001Y-33710714D01*
X33360001Y-33805952D02*
X33407620Y-33758333D01*
X33502858Y-33710714D01*
X33645716Y-33710714D01*
X33740954Y-33758333D01*
X33788573Y-33853571D01*
X33788573Y-34377381D01*
X33788573Y-33853571D02*
X33836192Y-33758333D01*
X33931430Y-33710714D01*
X34074287Y-33710714D01*
X34169525Y-33758333D01*
X34217144Y-33853571D01*
X34217144Y-34377381D01*
X34693334Y-34377381D02*
X34693334Y-33710714D01*
X34693334Y-33805952D02*
X34740953Y-33758333D01*
X34836191Y-33710714D01*
X34979049Y-33710714D01*
X35074287Y-33758333D01*
X35121906Y-33853571D01*
X35121906Y-34377381D01*
X35121906Y-33853571D02*
X35169525Y-33758333D01*
X35264763Y-33710714D01*
X35407620Y-33710714D01*
X35502858Y-33758333D01*
X35550477Y-33853571D01*
X35550477Y-34377381D01*
X26636191Y-30877381D02*
X26302857Y-30401190D01*
X26064762Y-30877381D02*
X26064762Y-29877381D01*
X26445715Y-29877381D01*
X26540953Y-29925000D01*
X26588572Y-29972619D01*
X26636191Y-30067857D01*
X26636191Y-30210714D01*
X26588572Y-30305952D01*
X26540953Y-30353571D01*
X26445715Y-30401190D01*
X26064762Y-30401190D01*
X27064762Y-30353571D02*
X27398096Y-30353571D01*
X27540953Y-30877381D02*
X27064762Y-30877381D01*
X27064762Y-29877381D01*
X27540953Y-29877381D01*
X28302858Y-30353571D02*
X27969524Y-30353571D01*
X27969524Y-30877381D02*
X27969524Y-29877381D01*
X28445715Y-29877381D01*
X29017143Y-29877381D02*
X29112382Y-29877381D01*
X29207620Y-29925000D01*
X29255239Y-29972619D01*
X29302858Y-30067857D01*
X29350477Y-30258333D01*
X29350477Y-30496429D01*
X29302858Y-30686905D01*
X29255239Y-30782143D01*
X29207620Y-30829762D01*
X29112382Y-30877381D01*
X29017143Y-30877381D01*
X28921905Y-30829762D01*
X28874286Y-30782143D01*
X28826667Y-30686905D01*
X28779048Y-30496429D01*
X28779048Y-30258333D01*
X28826667Y-30067857D01*
X28874286Y-29972619D01*
X28921905Y-29925000D01*
X29017143Y-29877381D01*
X30302858Y-30877381D02*
X29731429Y-30877381D01*
X30017143Y-30877381D02*
X30017143Y-29877381D01*
X29921905Y-30020238D01*
X29826667Y-30115476D01*
X29731429Y-30163095D01*
X74429715Y-79375143D02*
X74382096Y-79422762D01*
X74239239Y-79470381D01*
X74144001Y-79470381D01*
X74001143Y-79422762D01*
X73905905Y-79327524D01*
X73858286Y-79232286D01*
X73810667Y-79041810D01*
X73810667Y-78898952D01*
X73858286Y-78708476D01*
X73905905Y-78613238D01*
X74001143Y-78518000D01*
X74144001Y-78470381D01*
X74239239Y-78470381D01*
X74382096Y-78518000D01*
X74429715Y-78565619D01*
X75048762Y-78470381D02*
X75239239Y-78470381D01*
X75334477Y-78518000D01*
X75429715Y-78613238D01*
X75477334Y-78803714D01*
X75477334Y-79137048D01*
X75429715Y-79327524D01*
X75334477Y-79422762D01*
X75239239Y-79470381D01*
X75048762Y-79470381D01*
X74953524Y-79422762D01*
X74858286Y-79327524D01*
X74810667Y-79137048D01*
X74810667Y-78803714D01*
X74858286Y-78613238D01*
X74953524Y-78518000D01*
X75048762Y-78470381D01*
X75905905Y-79470381D02*
X75905905Y-78470381D01*
X76477334Y-79470381D01*
X76477334Y-78470381D01*
X76953524Y-79470381D02*
X76953524Y-78470381D01*
X77524953Y-79470381D01*
X77524953Y-78470381D01*
X77953524Y-78565619D02*
X78001143Y-78518000D01*
X78096381Y-78470381D01*
X78334477Y-78470381D01*
X78429715Y-78518000D01*
X78477334Y-78565619D01*
X78524953Y-78660857D01*
X78524953Y-78756095D01*
X78477334Y-78898952D01*
X77905905Y-79470381D01*
X78524953Y-79470381D01*
X79144000Y-78470381D02*
X79239239Y-78470381D01*
X79334477Y-78518000D01*
X79382096Y-78565619D01*
X79429715Y-78660857D01*
X79477334Y-78851333D01*
X79477334Y-79089429D01*
X79429715Y-79279905D01*
X79382096Y-79375143D01*
X79334477Y-79422762D01*
X79239239Y-79470381D01*
X79144000Y-79470381D01*
X79048762Y-79422762D01*
X79001143Y-79375143D01*
X78953524Y-79279905D01*
X78905905Y-79089429D01*
X78905905Y-78851333D01*
X78953524Y-78660857D01*
X79001143Y-78565619D01*
X79048762Y-78518000D01*
X79144000Y-78470381D01*
X35367143Y-74023095D02*
X35414762Y-74070714D01*
X35462381Y-74213571D01*
X35462381Y-74308809D01*
X35414762Y-74451667D01*
X35319524Y-74546905D01*
X35224286Y-74594524D01*
X35033810Y-74642143D01*
X34890952Y-74642143D01*
X34700476Y-74594524D01*
X34605238Y-74546905D01*
X34510000Y-74451667D01*
X34462381Y-74308809D01*
X34462381Y-74213571D01*
X34510000Y-74070714D01*
X34557619Y-74023095D01*
X34462381Y-73404048D02*
X34462381Y-73213571D01*
X34510000Y-73118333D01*
X34605238Y-73023095D01*
X34795714Y-72975476D01*
X35129048Y-72975476D01*
X35319524Y-73023095D01*
X35414762Y-73118333D01*
X35462381Y-73213571D01*
X35462381Y-73404048D01*
X35414762Y-73499286D01*
X35319524Y-73594524D01*
X35129048Y-73642143D01*
X34795714Y-73642143D01*
X34605238Y-73594524D01*
X34510000Y-73499286D01*
X34462381Y-73404048D01*
X35462381Y-72546905D02*
X34462381Y-72546905D01*
X35462381Y-71975476D01*
X34462381Y-71975476D01*
X35462381Y-71499286D02*
X34462381Y-71499286D01*
X35462381Y-70927857D01*
X34462381Y-70927857D01*
X35462381Y-69927857D02*
X35462381Y-70499286D01*
X35462381Y-70213572D02*
X34462381Y-70213572D01*
X34605238Y-70308810D01*
X34700476Y-70404048D01*
X34748095Y-70499286D01*
X46799715Y-112095143D02*
X46752096Y-112142762D01*
X46609239Y-112190381D01*
X46514001Y-112190381D01*
X46371143Y-112142762D01*
X46275905Y-112047524D01*
X46228286Y-111952286D01*
X46180667Y-111761810D01*
X46180667Y-111618952D01*
X46228286Y-111428476D01*
X46275905Y-111333238D01*
X46371143Y-111238000D01*
X46514001Y-111190381D01*
X46609239Y-111190381D01*
X46752096Y-111238000D01*
X46799715Y-111285619D01*
X47418762Y-111190381D02*
X47609239Y-111190381D01*
X47704477Y-111238000D01*
X47799715Y-111333238D01*
X47847334Y-111523714D01*
X47847334Y-111857048D01*
X47799715Y-112047524D01*
X47704477Y-112142762D01*
X47609239Y-112190381D01*
X47418762Y-112190381D01*
X47323524Y-112142762D01*
X47228286Y-112047524D01*
X47180667Y-111857048D01*
X47180667Y-111523714D01*
X47228286Y-111333238D01*
X47323524Y-111238000D01*
X47418762Y-111190381D01*
X48275905Y-112190381D02*
X48275905Y-111190381D01*
X48847334Y-112190381D01*
X48847334Y-111190381D01*
X49323524Y-112190381D02*
X49323524Y-111190381D01*
X49894953Y-112190381D01*
X49894953Y-111190381D01*
X50894953Y-112190381D02*
X50323524Y-112190381D01*
X50609238Y-112190381D02*
X50609238Y-111190381D01*
X50514000Y-111333238D01*
X50418762Y-111428476D01*
X50323524Y-111476095D01*
X51847334Y-112190381D02*
X51275905Y-112190381D01*
X51561619Y-112190381D02*
X51561619Y-111190381D01*
X51466381Y-111333238D01*
X51371143Y-111428476D01*
X51275905Y-111476095D01*
X83799715Y-112095143D02*
X83752096Y-112142762D01*
X83609239Y-112190381D01*
X83514001Y-112190381D01*
X83371143Y-112142762D01*
X83275905Y-112047524D01*
X83228286Y-111952286D01*
X83180667Y-111761810D01*
X83180667Y-111618952D01*
X83228286Y-111428476D01*
X83275905Y-111333238D01*
X83371143Y-111238000D01*
X83514001Y-111190381D01*
X83609239Y-111190381D01*
X83752096Y-111238000D01*
X83799715Y-111285619D01*
X84418762Y-111190381D02*
X84609239Y-111190381D01*
X84704477Y-111238000D01*
X84799715Y-111333238D01*
X84847334Y-111523714D01*
X84847334Y-111857048D01*
X84799715Y-112047524D01*
X84704477Y-112142762D01*
X84609239Y-112190381D01*
X84418762Y-112190381D01*
X84323524Y-112142762D01*
X84228286Y-112047524D01*
X84180667Y-111857048D01*
X84180667Y-111523714D01*
X84228286Y-111333238D01*
X84323524Y-111238000D01*
X84418762Y-111190381D01*
X85275905Y-112190381D02*
X85275905Y-111190381D01*
X85847334Y-112190381D01*
X85847334Y-111190381D01*
X86323524Y-112190381D02*
X86323524Y-111190381D01*
X86894953Y-112190381D01*
X86894953Y-111190381D01*
X87894953Y-112190381D02*
X87323524Y-112190381D01*
X87609238Y-112190381D02*
X87609238Y-111190381D01*
X87514000Y-111333238D01*
X87418762Y-111428476D01*
X87323524Y-111476095D01*
X88275905Y-111285619D02*
X88323524Y-111238000D01*
X88418762Y-111190381D01*
X88656858Y-111190381D01*
X88752096Y-111238000D01*
X88799715Y-111285619D01*
X88847334Y-111380857D01*
X88847334Y-111476095D01*
X88799715Y-111618952D01*
X88228286Y-112190381D01*
X88847334Y-112190381D01*
X154799715Y-112095143D02*
X154752096Y-112142762D01*
X154609239Y-112190381D01*
X154514001Y-112190381D01*
X154371143Y-112142762D01*
X154275905Y-112047524D01*
X154228286Y-111952286D01*
X154180667Y-111761810D01*
X154180667Y-111618952D01*
X154228286Y-111428476D01*
X154275905Y-111333238D01*
X154371143Y-111238000D01*
X154514001Y-111190381D01*
X154609239Y-111190381D01*
X154752096Y-111238000D01*
X154799715Y-111285619D01*
X155418762Y-111190381D02*
X155609239Y-111190381D01*
X155704477Y-111238000D01*
X155799715Y-111333238D01*
X155847334Y-111523714D01*
X155847334Y-111857048D01*
X155799715Y-112047524D01*
X155704477Y-112142762D01*
X155609239Y-112190381D01*
X155418762Y-112190381D01*
X155323524Y-112142762D01*
X155228286Y-112047524D01*
X155180667Y-111857048D01*
X155180667Y-111523714D01*
X155228286Y-111333238D01*
X155323524Y-111238000D01*
X155418762Y-111190381D01*
X156275905Y-112190381D02*
X156275905Y-111190381D01*
X156847334Y-112190381D01*
X156847334Y-111190381D01*
X157323524Y-112190381D02*
X157323524Y-111190381D01*
X157894953Y-112190381D01*
X157894953Y-111190381D01*
X158323524Y-111285619D02*
X158371143Y-111238000D01*
X158466381Y-111190381D01*
X158704477Y-111190381D01*
X158799715Y-111238000D01*
X158847334Y-111285619D01*
X158894953Y-111380857D01*
X158894953Y-111476095D01*
X158847334Y-111618952D01*
X158275905Y-112190381D01*
X158894953Y-112190381D01*
X159228286Y-111190381D02*
X159847334Y-111190381D01*
X159514000Y-111571333D01*
X159656858Y-111571333D01*
X159752096Y-111618952D01*
X159799715Y-111666571D01*
X159847334Y-111761810D01*
X159847334Y-111999905D01*
X159799715Y-112095143D01*
X159752096Y-112142762D01*
X159656858Y-112190381D01*
X159371143Y-112190381D01*
X159275905Y-112142762D01*
X159228286Y-112095143D01*
X118799715Y-112095143D02*
X118752096Y-112142762D01*
X118609239Y-112190381D01*
X118514001Y-112190381D01*
X118371143Y-112142762D01*
X118275905Y-112047524D01*
X118228286Y-111952286D01*
X118180667Y-111761810D01*
X118180667Y-111618952D01*
X118228286Y-111428476D01*
X118275905Y-111333238D01*
X118371143Y-111238000D01*
X118514001Y-111190381D01*
X118609239Y-111190381D01*
X118752096Y-111238000D01*
X118799715Y-111285619D01*
X119418762Y-111190381D02*
X119609239Y-111190381D01*
X119704477Y-111238000D01*
X119799715Y-111333238D01*
X119847334Y-111523714D01*
X119847334Y-111857048D01*
X119799715Y-112047524D01*
X119704477Y-112142762D01*
X119609239Y-112190381D01*
X119418762Y-112190381D01*
X119323524Y-112142762D01*
X119228286Y-112047524D01*
X119180667Y-111857048D01*
X119180667Y-111523714D01*
X119228286Y-111333238D01*
X119323524Y-111238000D01*
X119418762Y-111190381D01*
X120275905Y-112190381D02*
X120275905Y-111190381D01*
X120847334Y-112190381D01*
X120847334Y-111190381D01*
X121323524Y-112190381D02*
X121323524Y-111190381D01*
X121894953Y-112190381D01*
X121894953Y-111190381D01*
X122323524Y-111285619D02*
X122371143Y-111238000D01*
X122466381Y-111190381D01*
X122704477Y-111190381D01*
X122799715Y-111238000D01*
X122847334Y-111285619D01*
X122894953Y-111380857D01*
X122894953Y-111476095D01*
X122847334Y-111618952D01*
X122275905Y-112190381D01*
X122894953Y-112190381D01*
X123752096Y-111523714D02*
X123752096Y-112190381D01*
X123514000Y-111142762D02*
X123275905Y-111857048D01*
X123894953Y-111857048D01*
X304275905Y-112095143D02*
X304228286Y-112142762D01*
X304085429Y-112190381D01*
X303990191Y-112190381D01*
X303847333Y-112142762D01*
X303752095Y-112047524D01*
X303704476Y-111952286D01*
X303656857Y-111761810D01*
X303656857Y-111618952D01*
X303704476Y-111428476D01*
X303752095Y-111333238D01*
X303847333Y-111238000D01*
X303990191Y-111190381D01*
X304085429Y-111190381D01*
X304228286Y-111238000D01*
X304275905Y-111285619D01*
X304894952Y-111190381D02*
X305085429Y-111190381D01*
X305180667Y-111238000D01*
X305275905Y-111333238D01*
X305323524Y-111523714D01*
X305323524Y-111857048D01*
X305275905Y-112047524D01*
X305180667Y-112142762D01*
X305085429Y-112190381D01*
X304894952Y-112190381D01*
X304799714Y-112142762D01*
X304704476Y-112047524D01*
X304656857Y-111857048D01*
X304656857Y-111523714D01*
X304704476Y-111333238D01*
X304799714Y-111238000D01*
X304894952Y-111190381D01*
X305752095Y-112190381D02*
X305752095Y-111190381D01*
X306323524Y-112190381D01*
X306323524Y-111190381D01*
X306799714Y-112190381D02*
X306799714Y-111190381D01*
X307371143Y-112190381D01*
X307371143Y-111190381D01*
X307752095Y-111190381D02*
X308371143Y-111190381D01*
X308037809Y-111571333D01*
X308180667Y-111571333D01*
X308275905Y-111618952D01*
X308323524Y-111666571D01*
X308371143Y-111761810D01*
X308371143Y-111999905D01*
X308323524Y-112095143D01*
X308275905Y-112142762D01*
X308180667Y-112190381D01*
X307894952Y-112190381D01*
X307799714Y-112142762D01*
X307752095Y-112095143D01*
X267888715Y-111905143D02*
X267841096Y-111952762D01*
X267698239Y-112000381D01*
X267603001Y-112000381D01*
X267460143Y-111952762D01*
X267364905Y-111857524D01*
X267317286Y-111762286D01*
X267269667Y-111571810D01*
X267269667Y-111428952D01*
X267317286Y-111238476D01*
X267364905Y-111143238D01*
X267460143Y-111048000D01*
X267603001Y-111000381D01*
X267698239Y-111000381D01*
X267841096Y-111048000D01*
X267888715Y-111095619D01*
X268507762Y-111000381D02*
X268698239Y-111000381D01*
X268793477Y-111048000D01*
X268888715Y-111143238D01*
X268936334Y-111333714D01*
X268936334Y-111667048D01*
X268888715Y-111857524D01*
X268793477Y-111952762D01*
X268698239Y-112000381D01*
X268507762Y-112000381D01*
X268412524Y-111952762D01*
X268317286Y-111857524D01*
X268269667Y-111667048D01*
X268269667Y-111333714D01*
X268317286Y-111143238D01*
X268412524Y-111048000D01*
X268507762Y-111000381D01*
X269364905Y-112000381D02*
X269364905Y-111000381D01*
X269936334Y-112000381D01*
X269936334Y-111000381D01*
X270412524Y-112000381D02*
X270412524Y-111000381D01*
X270983953Y-112000381D01*
X270983953Y-111000381D01*
X271983953Y-112000381D02*
X271412524Y-112000381D01*
X271698238Y-112000381D02*
X271698238Y-111000381D01*
X271603000Y-111143238D01*
X271507762Y-111238476D01*
X271412524Y-111286095D01*
X272603000Y-111000381D02*
X272698239Y-111000381D01*
X272793477Y-111048000D01*
X272841096Y-111095619D01*
X272888715Y-111190857D01*
X272936334Y-111381333D01*
X272936334Y-111619429D01*
X272888715Y-111809905D01*
X272841096Y-111905143D01*
X272793477Y-111952762D01*
X272698239Y-112000381D01*
X272603000Y-112000381D01*
X272507762Y-111952762D01*
X272460143Y-111905143D01*
X272412524Y-111809905D01*
X272364905Y-111619429D01*
X272364905Y-111381333D01*
X272412524Y-111190857D01*
X272460143Y-111095619D01*
X272507762Y-111048000D01*
X272603000Y-111000381D01*
X232799715Y-112095143D02*
X232752096Y-112142762D01*
X232609239Y-112190381D01*
X232514001Y-112190381D01*
X232371143Y-112142762D01*
X232275905Y-112047524D01*
X232228286Y-111952286D01*
X232180667Y-111761810D01*
X232180667Y-111618952D01*
X232228286Y-111428476D01*
X232275905Y-111333238D01*
X232371143Y-111238000D01*
X232514001Y-111190381D01*
X232609239Y-111190381D01*
X232752096Y-111238000D01*
X232799715Y-111285619D01*
X233418762Y-111190381D02*
X233609239Y-111190381D01*
X233704477Y-111238000D01*
X233799715Y-111333238D01*
X233847334Y-111523714D01*
X233847334Y-111857048D01*
X233799715Y-112047524D01*
X233704477Y-112142762D01*
X233609239Y-112190381D01*
X233418762Y-112190381D01*
X233323524Y-112142762D01*
X233228286Y-112047524D01*
X233180667Y-111857048D01*
X233180667Y-111523714D01*
X233228286Y-111333238D01*
X233323524Y-111238000D01*
X233418762Y-111190381D01*
X234275905Y-112190381D02*
X234275905Y-111190381D01*
X234847334Y-112190381D01*
X234847334Y-111190381D01*
X235323524Y-112190381D02*
X235323524Y-111190381D01*
X235894953Y-112190381D01*
X235894953Y-111190381D01*
X236323524Y-111285619D02*
X236371143Y-111238000D01*
X236466381Y-111190381D01*
X236704477Y-111190381D01*
X236799715Y-111238000D01*
X236847334Y-111285619D01*
X236894953Y-111380857D01*
X236894953Y-111476095D01*
X236847334Y-111618952D01*
X236275905Y-112190381D01*
X236894953Y-112190381D01*
X237847334Y-112190381D02*
X237275905Y-112190381D01*
X237561619Y-112190381D02*
X237561619Y-111190381D01*
X237466381Y-111333238D01*
X237371143Y-111428476D01*
X237275905Y-111476095D01*
X195799715Y-112095143D02*
X195752096Y-112142762D01*
X195609239Y-112190381D01*
X195514001Y-112190381D01*
X195371143Y-112142762D01*
X195275905Y-112047524D01*
X195228286Y-111952286D01*
X195180667Y-111761810D01*
X195180667Y-111618952D01*
X195228286Y-111428476D01*
X195275905Y-111333238D01*
X195371143Y-111238000D01*
X195514001Y-111190381D01*
X195609239Y-111190381D01*
X195752096Y-111238000D01*
X195799715Y-111285619D01*
X196418762Y-111190381D02*
X196609239Y-111190381D01*
X196704477Y-111238000D01*
X196799715Y-111333238D01*
X196847334Y-111523714D01*
X196847334Y-111857048D01*
X196799715Y-112047524D01*
X196704477Y-112142762D01*
X196609239Y-112190381D01*
X196418762Y-112190381D01*
X196323524Y-112142762D01*
X196228286Y-112047524D01*
X196180667Y-111857048D01*
X196180667Y-111523714D01*
X196228286Y-111333238D01*
X196323524Y-111238000D01*
X196418762Y-111190381D01*
X197275905Y-112190381D02*
X197275905Y-111190381D01*
X197847334Y-112190381D01*
X197847334Y-111190381D01*
X198323524Y-112190381D02*
X198323524Y-111190381D01*
X198894953Y-112190381D01*
X198894953Y-111190381D01*
X199323524Y-111285619D02*
X199371143Y-111238000D01*
X199466381Y-111190381D01*
X199704477Y-111190381D01*
X199799715Y-111238000D01*
X199847334Y-111285619D01*
X199894953Y-111380857D01*
X199894953Y-111476095D01*
X199847334Y-111618952D01*
X199275905Y-112190381D01*
X199894953Y-112190381D01*
X200275905Y-111285619D02*
X200323524Y-111238000D01*
X200418762Y-111190381D01*
X200656858Y-111190381D01*
X200752096Y-111238000D01*
X200799715Y-111285619D01*
X200847334Y-111380857D01*
X200847334Y-111476095D01*
X200799715Y-111618952D01*
X200228286Y-112190381D01*
X200847334Y-112190381D01*
X149134000Y-49400381D02*
X148800666Y-48924190D01*
X148562571Y-49400381D02*
X148562571Y-48400381D01*
X148943524Y-48400381D01*
X149038762Y-48448000D01*
X149086381Y-48495619D01*
X149134000Y-48590857D01*
X149134000Y-48733714D01*
X149086381Y-48828952D01*
X149038762Y-48876571D01*
X148943524Y-48924190D01*
X148562571Y-48924190D01*
X150038762Y-49400381D02*
X149562571Y-49400381D01*
X149562571Y-48400381D01*
X150562571Y-48924190D02*
X150562571Y-49400381D01*
X150229238Y-48400381D02*
X150562571Y-48924190D01*
X150895905Y-48400381D01*
X151753048Y-49400381D02*
X151181619Y-49400381D01*
X151467333Y-49400381D02*
X151467333Y-48400381D01*
X151372095Y-48543238D01*
X151276857Y-48638476D01*
X151181619Y-48686095D01*
X162134000Y-49400381D02*
X161800666Y-48924190D01*
X161562571Y-49400381D02*
X161562571Y-48400381D01*
X161943524Y-48400381D01*
X162038762Y-48448000D01*
X162086381Y-48495619D01*
X162134000Y-48590857D01*
X162134000Y-48733714D01*
X162086381Y-48828952D01*
X162038762Y-48876571D01*
X161943524Y-48924190D01*
X161562571Y-48924190D01*
X163038762Y-49400381D02*
X162562571Y-49400381D01*
X162562571Y-48400381D01*
X163562571Y-48924190D02*
X163562571Y-49400381D01*
X163229238Y-48400381D02*
X163562571Y-48924190D01*
X163895905Y-48400381D01*
X164181619Y-48495619D02*
X164229238Y-48448000D01*
X164324476Y-48400381D01*
X164562572Y-48400381D01*
X164657810Y-48448000D01*
X164705429Y-48495619D01*
X164753048Y-48590857D01*
X164753048Y-48686095D01*
X164705429Y-48828952D01*
X164134000Y-49400381D01*
X164753048Y-49400381D01*
X175134000Y-49400381D02*
X174800666Y-48924190D01*
X174562571Y-49400381D02*
X174562571Y-48400381D01*
X174943524Y-48400381D01*
X175038762Y-48448000D01*
X175086381Y-48495619D01*
X175134000Y-48590857D01*
X175134000Y-48733714D01*
X175086381Y-48828952D01*
X175038762Y-48876571D01*
X174943524Y-48924190D01*
X174562571Y-48924190D01*
X176038762Y-49400381D02*
X175562571Y-49400381D01*
X175562571Y-48400381D01*
X176562571Y-48924190D02*
X176562571Y-49400381D01*
X176229238Y-48400381D02*
X176562571Y-48924190D01*
X176895905Y-48400381D01*
X177134000Y-48400381D02*
X177753048Y-48400381D01*
X177419714Y-48781333D01*
X177562572Y-48781333D01*
X177657810Y-48828952D01*
X177705429Y-48876571D01*
X177753048Y-48971810D01*
X177753048Y-49209905D01*
X177705429Y-49305143D01*
X177657810Y-49352762D01*
X177562572Y-49400381D01*
X177276857Y-49400381D01*
X177181619Y-49352762D01*
X177134000Y-49305143D01*
X188134000Y-49400381D02*
X187800666Y-48924190D01*
X187562571Y-49400381D02*
X187562571Y-48400381D01*
X187943524Y-48400381D01*
X188038762Y-48448000D01*
X188086381Y-48495619D01*
X188134000Y-48590857D01*
X188134000Y-48733714D01*
X188086381Y-48828952D01*
X188038762Y-48876571D01*
X187943524Y-48924190D01*
X187562571Y-48924190D01*
X189038762Y-49400381D02*
X188562571Y-49400381D01*
X188562571Y-48400381D01*
X189562571Y-48924190D02*
X189562571Y-49400381D01*
X189229238Y-48400381D02*
X189562571Y-48924190D01*
X189895905Y-48400381D01*
X190657810Y-48733714D02*
X190657810Y-49400381D01*
X190419714Y-48352762D02*
X190181619Y-49067048D01*
X190800667Y-49067048D01*
X201134000Y-49400381D02*
X200800666Y-48924190D01*
X200562571Y-49400381D02*
X200562571Y-48400381D01*
X200943524Y-48400381D01*
X201038762Y-48448000D01*
X201086381Y-48495619D01*
X201134000Y-48590857D01*
X201134000Y-48733714D01*
X201086381Y-48828952D01*
X201038762Y-48876571D01*
X200943524Y-48924190D01*
X200562571Y-48924190D01*
X202038762Y-49400381D02*
X201562571Y-49400381D01*
X201562571Y-48400381D01*
X202562571Y-48924190D02*
X202562571Y-49400381D01*
X202229238Y-48400381D02*
X202562571Y-48924190D01*
X202895905Y-48400381D01*
X203705429Y-48400381D02*
X203229238Y-48400381D01*
X203181619Y-48876571D01*
X203229238Y-48828952D01*
X203324476Y-48781333D01*
X203562572Y-48781333D01*
X203657810Y-48828952D01*
X203705429Y-48876571D01*
X203753048Y-48971810D01*
X203753048Y-49209905D01*
X203705429Y-49305143D01*
X203657810Y-49352762D01*
X203562572Y-49400381D01*
X203324476Y-49400381D01*
X203229238Y-49352762D01*
X203181619Y-49305143D01*
X225134000Y-44400381D02*
X224800666Y-43924190D01*
X224562571Y-44400381D02*
X224562571Y-43400381D01*
X224943524Y-43400381D01*
X225038762Y-43448000D01*
X225086381Y-43495619D01*
X225134000Y-43590857D01*
X225134000Y-43733714D01*
X225086381Y-43828952D01*
X225038762Y-43876571D01*
X224943524Y-43924190D01*
X224562571Y-43924190D01*
X226038762Y-44400381D02*
X225562571Y-44400381D01*
X225562571Y-43400381D01*
X226562571Y-43924190D02*
X226562571Y-44400381D01*
X226229238Y-43400381D02*
X226562571Y-43924190D01*
X226895905Y-43400381D01*
X227657810Y-43400381D02*
X227467333Y-43400381D01*
X227372095Y-43448000D01*
X227324476Y-43495619D01*
X227229238Y-43638476D01*
X227181619Y-43828952D01*
X227181619Y-44209905D01*
X227229238Y-44305143D01*
X227276857Y-44352762D01*
X227372095Y-44400381D01*
X227562572Y-44400381D01*
X227657810Y-44352762D01*
X227705429Y-44305143D01*
X227753048Y-44209905D01*
X227753048Y-43971810D01*
X227705429Y-43876571D01*
X227657810Y-43828952D01*
X227562572Y-43781333D01*
X227372095Y-43781333D01*
X227276857Y-43828952D01*
X227229238Y-43876571D01*
X227181619Y-43971810D01*
X238134000Y-44400381D02*
X237800666Y-43924190D01*
X237562571Y-44400381D02*
X237562571Y-43400381D01*
X237943524Y-43400381D01*
X238038762Y-43448000D01*
X238086381Y-43495619D01*
X238134000Y-43590857D01*
X238134000Y-43733714D01*
X238086381Y-43828952D01*
X238038762Y-43876571D01*
X237943524Y-43924190D01*
X237562571Y-43924190D01*
X239038762Y-44400381D02*
X238562571Y-44400381D01*
X238562571Y-43400381D01*
X239562571Y-43924190D02*
X239562571Y-44400381D01*
X239229238Y-43400381D02*
X239562571Y-43924190D01*
X239895905Y-43400381D01*
X240134000Y-43400381D02*
X240800667Y-43400381D01*
X240372095Y-44400381D01*
X126134000Y-44400381D02*
X125800666Y-43924190D01*
X125562571Y-44400381D02*
X125562571Y-43400381D01*
X125943524Y-43400381D01*
X126038762Y-43448000D01*
X126086381Y-43495619D01*
X126134000Y-43590857D01*
X126134000Y-43733714D01*
X126086381Y-43828952D01*
X126038762Y-43876571D01*
X125943524Y-43924190D01*
X125562571Y-43924190D01*
X127038762Y-44400381D02*
X126562571Y-44400381D01*
X126562571Y-43400381D01*
X127562571Y-43924190D02*
X127562571Y-44400381D01*
X127229238Y-43400381D02*
X127562571Y-43924190D01*
X127895905Y-43400381D01*
X128372095Y-43828952D02*
X128276857Y-43781333D01*
X128229238Y-43733714D01*
X128181619Y-43638476D01*
X128181619Y-43590857D01*
X128229238Y-43495619D01*
X128276857Y-43448000D01*
X128372095Y-43400381D01*
X128562572Y-43400381D01*
X128657810Y-43448000D01*
X128705429Y-43495619D01*
X128753048Y-43590857D01*
X128753048Y-43638476D01*
X128705429Y-43733714D01*
X128657810Y-43781333D01*
X128562572Y-43828952D01*
X128372095Y-43828952D01*
X128276857Y-43876571D01*
X128229238Y-43924190D01*
X128181619Y-44019429D01*
X128181619Y-44209905D01*
X128229238Y-44305143D01*
X128276857Y-44352762D01*
X128372095Y-44400381D01*
X128562572Y-44400381D01*
X128657810Y-44352762D01*
X128705429Y-44305143D01*
X128753048Y-44209905D01*
X128753048Y-44019429D01*
X128705429Y-43924190D01*
X128657810Y-43876571D01*
X128562572Y-43828952D01*
X113134000Y-44400381D02*
X112800666Y-43924190D01*
X112562571Y-44400381D02*
X112562571Y-43400381D01*
X112943524Y-43400381D01*
X113038762Y-43448000D01*
X113086381Y-43495619D01*
X113134000Y-43590857D01*
X113134000Y-43733714D01*
X113086381Y-43828952D01*
X113038762Y-43876571D01*
X112943524Y-43924190D01*
X112562571Y-43924190D01*
X114038762Y-44400381D02*
X113562571Y-44400381D01*
X113562571Y-43400381D01*
X114562571Y-43924190D02*
X114562571Y-44400381D01*
X114229238Y-43400381D02*
X114562571Y-43924190D01*
X114895905Y-43400381D01*
X115276857Y-44400381D02*
X115467333Y-44400381D01*
X115562572Y-44352762D01*
X115610191Y-44305143D01*
X115705429Y-44162286D01*
X115753048Y-43971810D01*
X115753048Y-43590857D01*
X115705429Y-43495619D01*
X115657810Y-43448000D01*
X115562572Y-43400381D01*
X115372095Y-43400381D01*
X115276857Y-43448000D01*
X115229238Y-43495619D01*
X115181619Y-43590857D01*
X115181619Y-43828952D01*
X115229238Y-43924190D01*
X115276857Y-43971810D01*
X115372095Y-44019429D01*
X115562572Y-44019429D01*
X115657810Y-43971810D01*
X115705429Y-43924190D01*
X115753048Y-43828952D01*
X86657810Y-44400381D02*
X86324476Y-43924190D01*
X86086381Y-44400381D02*
X86086381Y-43400381D01*
X86467334Y-43400381D01*
X86562572Y-43448000D01*
X86610191Y-43495619D01*
X86657810Y-43590857D01*
X86657810Y-43733714D01*
X86610191Y-43828952D01*
X86562572Y-43876571D01*
X86467334Y-43924190D01*
X86086381Y-43924190D01*
X87562572Y-44400381D02*
X87086381Y-44400381D01*
X87086381Y-43400381D01*
X88086381Y-43924190D02*
X88086381Y-44400381D01*
X87753048Y-43400381D02*
X88086381Y-43924190D01*
X88419715Y-43400381D01*
X89276858Y-44400381D02*
X88705429Y-44400381D01*
X88991143Y-44400381D02*
X88991143Y-43400381D01*
X88895905Y-43543238D01*
X88800667Y-43638476D01*
X88705429Y-43686095D01*
X89895905Y-43400381D02*
X89991144Y-43400381D01*
X90086382Y-43448000D01*
X90134001Y-43495619D01*
X90181620Y-43590857D01*
X90229239Y-43781333D01*
X90229239Y-44019429D01*
X90181620Y-44209905D01*
X90134001Y-44305143D01*
X90086382Y-44352762D01*
X89991144Y-44400381D01*
X89895905Y-44400381D01*
X89800667Y-44352762D01*
X89753048Y-44305143D01*
X89705429Y-44209905D01*
X89657810Y-44019429D01*
X89657810Y-43781333D01*
X89705429Y-43590857D01*
X89753048Y-43495619D01*
X89800667Y-43448000D01*
X89895905Y-43400381D01*
X99657810Y-44400381D02*
X99324476Y-43924190D01*
X99086381Y-44400381D02*
X99086381Y-43400381D01*
X99467334Y-43400381D01*
X99562572Y-43448000D01*
X99610191Y-43495619D01*
X99657810Y-43590857D01*
X99657810Y-43733714D01*
X99610191Y-43828952D01*
X99562572Y-43876571D01*
X99467334Y-43924190D01*
X99086381Y-43924190D01*
X100562572Y-44400381D02*
X100086381Y-44400381D01*
X100086381Y-43400381D01*
X101086381Y-43924190D02*
X101086381Y-44400381D01*
X100753048Y-43400381D02*
X101086381Y-43924190D01*
X101419715Y-43400381D01*
X102276858Y-44400381D02*
X101705429Y-44400381D01*
X101991143Y-44400381D02*
X101991143Y-43400381D01*
X101895905Y-43543238D01*
X101800667Y-43638476D01*
X101705429Y-43686095D01*
X103229239Y-44400381D02*
X102657810Y-44400381D01*
X102943524Y-44400381D02*
X102943524Y-43400381D01*
X102848286Y-43543238D01*
X102753048Y-43638476D01*
X102657810Y-43686095D01*
X301657810Y-44400381D02*
X301324476Y-43924190D01*
X301086381Y-44400381D02*
X301086381Y-43400381D01*
X301467334Y-43400381D01*
X301562572Y-43448000D01*
X301610191Y-43495619D01*
X301657810Y-43590857D01*
X301657810Y-43733714D01*
X301610191Y-43828952D01*
X301562572Y-43876571D01*
X301467334Y-43924190D01*
X301086381Y-43924190D01*
X302562572Y-44400381D02*
X302086381Y-44400381D01*
X302086381Y-43400381D01*
X303086381Y-43924190D02*
X303086381Y-44400381D01*
X302753048Y-43400381D02*
X303086381Y-43924190D01*
X303419715Y-43400381D01*
X304276858Y-44400381D02*
X303705429Y-44400381D01*
X303991143Y-44400381D02*
X303991143Y-43400381D01*
X303895905Y-43543238D01*
X303800667Y-43638476D01*
X303705429Y-43686095D01*
X304657810Y-43495619D02*
X304705429Y-43448000D01*
X304800667Y-43400381D01*
X305038763Y-43400381D01*
X305134001Y-43448000D01*
X305181620Y-43495619D01*
X305229239Y-43590857D01*
X305229239Y-43686095D01*
X305181620Y-43828952D01*
X304610191Y-44400381D01*
X305229239Y-44400381D01*
X314657810Y-44400381D02*
X314324476Y-43924190D01*
X314086381Y-44400381D02*
X314086381Y-43400381D01*
X314467334Y-43400381D01*
X314562572Y-43448000D01*
X314610191Y-43495619D01*
X314657810Y-43590857D01*
X314657810Y-43733714D01*
X314610191Y-43828952D01*
X314562572Y-43876571D01*
X314467334Y-43924190D01*
X314086381Y-43924190D01*
X315562572Y-44400381D02*
X315086381Y-44400381D01*
X315086381Y-43400381D01*
X316086381Y-43924190D02*
X316086381Y-44400381D01*
X315753048Y-43400381D02*
X316086381Y-43924190D01*
X316419715Y-43400381D01*
X317276858Y-44400381D02*
X316705429Y-44400381D01*
X316991143Y-44400381D02*
X316991143Y-43400381D01*
X316895905Y-43543238D01*
X316800667Y-43638476D01*
X316705429Y-43686095D01*
X317610191Y-43400381D02*
X318229239Y-43400381D01*
X317895905Y-43781333D01*
X318038763Y-43781333D01*
X318134001Y-43828952D01*
X318181620Y-43876571D01*
X318229239Y-43971810D01*
X318229239Y-44209905D01*
X318181620Y-44305143D01*
X318134001Y-44352762D01*
X318038763Y-44400381D01*
X317753048Y-44400381D01*
X317657810Y-44352762D01*
X317610191Y-44305143D01*
X275657810Y-44400381D02*
X275324476Y-43924190D01*
X275086381Y-44400381D02*
X275086381Y-43400381D01*
X275467334Y-43400381D01*
X275562572Y-43448000D01*
X275610191Y-43495619D01*
X275657810Y-43590857D01*
X275657810Y-43733714D01*
X275610191Y-43828952D01*
X275562572Y-43876571D01*
X275467334Y-43924190D01*
X275086381Y-43924190D01*
X276562572Y-44400381D02*
X276086381Y-44400381D01*
X276086381Y-43400381D01*
X277086381Y-43924190D02*
X277086381Y-44400381D01*
X276753048Y-43400381D02*
X277086381Y-43924190D01*
X277419715Y-43400381D01*
X278276858Y-44400381D02*
X277705429Y-44400381D01*
X277991143Y-44400381D02*
X277991143Y-43400381D01*
X277895905Y-43543238D01*
X277800667Y-43638476D01*
X277705429Y-43686095D01*
X279134001Y-43733714D02*
X279134001Y-44400381D01*
X278895905Y-43352762D02*
X278657810Y-44067048D01*
X279276858Y-44067048D01*
X288657810Y-44400381D02*
X288324476Y-43924190D01*
X288086381Y-44400381D02*
X288086381Y-43400381D01*
X288467334Y-43400381D01*
X288562572Y-43448000D01*
X288610191Y-43495619D01*
X288657810Y-43590857D01*
X288657810Y-43733714D01*
X288610191Y-43828952D01*
X288562572Y-43876571D01*
X288467334Y-43924190D01*
X288086381Y-43924190D01*
X289562572Y-44400381D02*
X289086381Y-44400381D01*
X289086381Y-43400381D01*
X290086381Y-43924190D02*
X290086381Y-44400381D01*
X289753048Y-43400381D02*
X290086381Y-43924190D01*
X290419715Y-43400381D01*
X291276858Y-44400381D02*
X290705429Y-44400381D01*
X290991143Y-44400381D02*
X290991143Y-43400381D01*
X290895905Y-43543238D01*
X290800667Y-43638476D01*
X290705429Y-43686095D01*
X292181620Y-43400381D02*
X291705429Y-43400381D01*
X291657810Y-43876571D01*
X291705429Y-43828952D01*
X291800667Y-43781333D01*
X292038763Y-43781333D01*
X292134001Y-43828952D01*
X292181620Y-43876571D01*
X292229239Y-43971810D01*
X292229239Y-44209905D01*
X292181620Y-44305143D01*
X292134001Y-44352762D01*
X292038763Y-44400381D01*
X291800667Y-44400381D01*
X291705429Y-44352762D01*
X291657810Y-44305143D01*
X250657810Y-44400381D02*
X250324476Y-43924190D01*
X250086381Y-44400381D02*
X250086381Y-43400381D01*
X250467334Y-43400381D01*
X250562572Y-43448000D01*
X250610191Y-43495619D01*
X250657810Y-43590857D01*
X250657810Y-43733714D01*
X250610191Y-43828952D01*
X250562572Y-43876571D01*
X250467334Y-43924190D01*
X250086381Y-43924190D01*
X251562572Y-44400381D02*
X251086381Y-44400381D01*
X251086381Y-43400381D01*
X252086381Y-43924190D02*
X252086381Y-44400381D01*
X251753048Y-43400381D02*
X252086381Y-43924190D01*
X252419715Y-43400381D01*
X253276858Y-44400381D02*
X252705429Y-44400381D01*
X252991143Y-44400381D02*
X252991143Y-43400381D01*
X252895905Y-43543238D01*
X252800667Y-43638476D01*
X252705429Y-43686095D01*
X254134001Y-43400381D02*
X253943524Y-43400381D01*
X253848286Y-43448000D01*
X253800667Y-43495619D01*
X253705429Y-43638476D01*
X253657810Y-43828952D01*
X253657810Y-44209905D01*
X253705429Y-44305143D01*
X253753048Y-44352762D01*
X253848286Y-44400381D01*
X254038763Y-44400381D01*
X254134001Y-44352762D01*
X254181620Y-44305143D01*
X254229239Y-44209905D01*
X254229239Y-43971810D01*
X254181620Y-43876571D01*
X254134001Y-43828952D01*
X254038763Y-43781333D01*
X253848286Y-43781333D01*
X253753048Y-43828952D01*
X253705429Y-43876571D01*
X253657810Y-43971810D01*
X263657810Y-44400381D02*
X263324476Y-43924190D01*
X263086381Y-44400381D02*
X263086381Y-43400381D01*
X263467334Y-43400381D01*
X263562572Y-43448000D01*
X263610191Y-43495619D01*
X263657810Y-43590857D01*
X263657810Y-43733714D01*
X263610191Y-43828952D01*
X263562572Y-43876571D01*
X263467334Y-43924190D01*
X263086381Y-43924190D01*
X264562572Y-44400381D02*
X264086381Y-44400381D01*
X264086381Y-43400381D01*
X265086381Y-43924190D02*
X265086381Y-44400381D01*
X264753048Y-43400381D02*
X265086381Y-43924190D01*
X265419715Y-43400381D01*
X266276858Y-44400381D02*
X265705429Y-44400381D01*
X265991143Y-44400381D02*
X265991143Y-43400381D01*
X265895905Y-43543238D01*
X265800667Y-43638476D01*
X265705429Y-43686095D01*
X266610191Y-43400381D02*
X267276858Y-43400381D01*
X266848286Y-44400381D01*
X60657810Y-44400381D02*
X60324476Y-43924190D01*
X60086381Y-44400381D02*
X60086381Y-43400381D01*
X60467334Y-43400381D01*
X60562572Y-43448000D01*
X60610191Y-43495619D01*
X60657810Y-43590857D01*
X60657810Y-43733714D01*
X60610191Y-43828952D01*
X60562572Y-43876571D01*
X60467334Y-43924190D01*
X60086381Y-43924190D01*
X61562572Y-44400381D02*
X61086381Y-44400381D01*
X61086381Y-43400381D01*
X62086381Y-43924190D02*
X62086381Y-44400381D01*
X61753048Y-43400381D02*
X62086381Y-43924190D01*
X62419715Y-43400381D01*
X63276858Y-44400381D02*
X62705429Y-44400381D01*
X62991143Y-44400381D02*
X62991143Y-43400381D01*
X62895905Y-43543238D01*
X62800667Y-43638476D01*
X62705429Y-43686095D01*
X63848286Y-43828952D02*
X63753048Y-43781333D01*
X63705429Y-43733714D01*
X63657810Y-43638476D01*
X63657810Y-43590857D01*
X63705429Y-43495619D01*
X63753048Y-43448000D01*
X63848286Y-43400381D01*
X64038763Y-43400381D01*
X64134001Y-43448000D01*
X64181620Y-43495619D01*
X64229239Y-43590857D01*
X64229239Y-43638476D01*
X64181620Y-43733714D01*
X64134001Y-43781333D01*
X64038763Y-43828952D01*
X63848286Y-43828952D01*
X63753048Y-43876571D01*
X63705429Y-43924190D01*
X63657810Y-44019429D01*
X63657810Y-44209905D01*
X63705429Y-44305143D01*
X63753048Y-44352762D01*
X63848286Y-44400381D01*
X64038763Y-44400381D01*
X64134001Y-44352762D01*
X64181620Y-44305143D01*
X64229239Y-44209905D01*
X64229239Y-44019429D01*
X64181620Y-43924190D01*
X64134001Y-43876571D01*
X64038763Y-43828952D01*
X73657810Y-44400381D02*
X73324476Y-43924190D01*
X73086381Y-44400381D02*
X73086381Y-43400381D01*
X73467334Y-43400381D01*
X73562572Y-43448000D01*
X73610191Y-43495619D01*
X73657810Y-43590857D01*
X73657810Y-43733714D01*
X73610191Y-43828952D01*
X73562572Y-43876571D01*
X73467334Y-43924190D01*
X73086381Y-43924190D01*
X74562572Y-44400381D02*
X74086381Y-44400381D01*
X74086381Y-43400381D01*
X75086381Y-43924190D02*
X75086381Y-44400381D01*
X74753048Y-43400381D02*
X75086381Y-43924190D01*
X75419715Y-43400381D01*
X76276858Y-44400381D02*
X75705429Y-44400381D01*
X75991143Y-44400381D02*
X75991143Y-43400381D01*
X75895905Y-43543238D01*
X75800667Y-43638476D01*
X75705429Y-43686095D01*
X76753048Y-44400381D02*
X76943524Y-44400381D01*
X77038763Y-44352762D01*
X77086382Y-44305143D01*
X77181620Y-44162286D01*
X77229239Y-43971810D01*
X77229239Y-43590857D01*
X77181620Y-43495619D01*
X77134001Y-43448000D01*
X77038763Y-43400381D01*
X76848286Y-43400381D01*
X76753048Y-43448000D01*
X76705429Y-43495619D01*
X76657810Y-43590857D01*
X76657810Y-43828952D01*
X76705429Y-43924190D01*
X76753048Y-43971810D01*
X76848286Y-44019429D01*
X77038763Y-44019429D01*
X77134001Y-43971810D01*
X77181620Y-43924190D01*
X77229239Y-43828952D01*
X34657810Y-44400381D02*
X34324476Y-43924190D01*
X34086381Y-44400381D02*
X34086381Y-43400381D01*
X34467334Y-43400381D01*
X34562572Y-43448000D01*
X34610191Y-43495619D01*
X34657810Y-43590857D01*
X34657810Y-43733714D01*
X34610191Y-43828952D01*
X34562572Y-43876571D01*
X34467334Y-43924190D01*
X34086381Y-43924190D01*
X35562572Y-44400381D02*
X35086381Y-44400381D01*
X35086381Y-43400381D01*
X36086381Y-43924190D02*
X36086381Y-44400381D01*
X35753048Y-43400381D02*
X36086381Y-43924190D01*
X36419715Y-43400381D01*
X36705429Y-43495619D02*
X36753048Y-43448000D01*
X36848286Y-43400381D01*
X37086382Y-43400381D01*
X37181620Y-43448000D01*
X37229239Y-43495619D01*
X37276858Y-43590857D01*
X37276858Y-43686095D01*
X37229239Y-43828952D01*
X36657810Y-44400381D01*
X37276858Y-44400381D01*
X37895905Y-43400381D02*
X37991144Y-43400381D01*
X38086382Y-43448000D01*
X38134001Y-43495619D01*
X38181620Y-43590857D01*
X38229239Y-43781333D01*
X38229239Y-44019429D01*
X38181620Y-44209905D01*
X38134001Y-44305143D01*
X38086382Y-44352762D01*
X37991144Y-44400381D01*
X37895905Y-44400381D01*
X37800667Y-44352762D01*
X37753048Y-44305143D01*
X37705429Y-44209905D01*
X37657810Y-44019429D01*
X37657810Y-43781333D01*
X37705429Y-43590857D01*
X37753048Y-43495619D01*
X37800667Y-43448000D01*
X37895905Y-43400381D01*
X47657810Y-44400381D02*
X47324476Y-43924190D01*
X47086381Y-44400381D02*
X47086381Y-43400381D01*
X47467334Y-43400381D01*
X47562572Y-43448000D01*
X47610191Y-43495619D01*
X47657810Y-43590857D01*
X47657810Y-43733714D01*
X47610191Y-43828952D01*
X47562572Y-43876571D01*
X47467334Y-43924190D01*
X47086381Y-43924190D01*
X48562572Y-44400381D02*
X48086381Y-44400381D01*
X48086381Y-43400381D01*
X49086381Y-43924190D02*
X49086381Y-44400381D01*
X48753048Y-43400381D02*
X49086381Y-43924190D01*
X49419715Y-43400381D01*
X49705429Y-43495619D02*
X49753048Y-43448000D01*
X49848286Y-43400381D01*
X50086382Y-43400381D01*
X50181620Y-43448000D01*
X50229239Y-43495619D01*
X50276858Y-43590857D01*
X50276858Y-43686095D01*
X50229239Y-43828952D01*
X49657810Y-44400381D01*
X50276858Y-44400381D01*
X51229239Y-44400381D02*
X50657810Y-44400381D01*
X50943524Y-44400381D02*
X50943524Y-43400381D01*
X50848286Y-43543238D01*
X50753048Y-43638476D01*
X50657810Y-43686095D01*
M02*
