M48
; DRILL file {KiCad 7.0.7} date Fri Apr 19 12:39:19 2024
; FORMAT={2:4/ absolute / inch / suppress trailing zeros}
; #@! TF.CreationDate,2024-04-19T12:39:19-04:00
; #@! TF.GenerationSoftware,Kicad,Pcbnew,7.0.7
; #@! TF.FileFunction,MixedPlating,1,2
FMAT,2
INCH,LZ
; #@! TA.AperFunction,Plated,PTH,ViaDrill
T1C0.0118
; #@! TA.AperFunction,Plated,PTH,ViaDrill
T2C0.0157
; #@! TA.AperFunction,Plated,PTH,ViaDrill
T3C0.0177
; #@! TA.AperFunction,Plated,PTH,ComponentDrill
T4C0.0315
; #@! TA.AperFunction,Plated,PTH,ComponentDrill
T5C0.0320
; #@! TA.AperFunction,Plated,PTH,ComponentDrill
T6C0.0350
; #@! TA.AperFunction,Plated,PTH,ComponentDrill
T7C0.0380
; #@! TA.AperFunction,Plated,PTH,ComponentDrill
T8C0.0394
; #@! TA.AperFunction,Plated,PTH,ComponentDrill
T9C0.0400
; #@! TA.AperFunction,Plated,PTH,ComponentDrill
T10C0.0450
; #@! TA.AperFunction,Plated,PTH,ViaDrill
T11C0.0472
; #@! TA.AperFunction,Plated,PTH,ComponentDrill
T12C0.0512
; #@! TA.AperFunction,Plated,PTH,ComponentDrill
T13C0.0551
; #@! TA.AperFunction,Plated,PTH,ComponentDrill
T14C0.0984
; #@! TA.AperFunction,Plated,PTH,ComponentDrill
T15C0.1320
; #@! TA.AperFunction,NonPlated,NPTH,ComponentDrill
T16C0.1310
%
G90
G05
T1
X023622Y-051024
X023624Y-050392
X025197Y-042835
X025197Y-04626
X025354Y-044567
X025591Y-052126
X027559Y-05748
X029528Y-054528
X029528Y-055315
X029528Y-066339
X029843Y-04378
X029921Y-054921
X029921Y-057874
X030512Y-066339
X030722Y-065959
X03189Y-06752
X032283Y-065945
X032677Y-068307
X032874Y-041929
X034646Y-040748
X034843Y-057874
X03563Y-037402
X03563Y-057283
X036024Y-064173
X037008Y-050984
X037165Y-04315
X037402Y-062795
X037402Y-064173
X037559Y-043504
X037598Y-044094
X037992Y-061024
X038189Y-064173
X038583Y-062992
X039764Y-063976
X040157Y-062992
X041504Y-04311
X042421Y-038386
X043307Y-04311
X043926Y-038386
X044488Y-053288
X044685Y-062008
X044685Y-065896
X044882Y-062402
X044951Y-063907
X045128Y-062795
X045276Y-064567
X045472Y-064173
X045669Y-05748
X04626Y-068307
X046654Y-063583
X047057Y-05748
X047244Y-055118
X047244Y-068504
X047835Y-063976
X048425Y-063386
X048622Y-061811
X048819Y-063976
X049213Y-03937
X049213Y-052756
X049803Y-063976
X050197Y-062795
X050394Y-040748
X050591Y-03937
X051575Y-040748
X051575Y-046654
X051575Y-063976
X05169Y-04311
X051772Y-062795
X052362Y-048031
X052362Y-051772
X052559Y-050984
X052756Y-046457
X052756Y-048425
X052854Y-038386
X05315Y-04311
X053543Y-040748
X05374Y-046654
X05374Y-049803
X05374Y-050591
X053839Y-038386
X053937Y-047638
X054921Y-046063
X055118Y-049606
X055254Y-050569
X055315Y-05
X055906Y-049409
X055906Y-062992
X055906Y-068504
X056299Y-062598
X056299Y-068898
X056693Y-062205
X057087Y-045472
X057087Y-046457
X057283Y-065748
X05748Y-046457
X05748Y-048622
X05748Y-05
X05748Y-055709
X05748Y-063976
X057874Y-045866
X057874Y-047244
X057874Y-048425
X058071Y-049606
X058268Y-054528
X058661Y-040748
X058661Y-049069
X058858Y-068504
X059055Y-064173
X059449Y-03937
X060236Y-063386
X060433Y-040748
X060433Y-041339
X060433Y-044488
X06063Y-03937
X06063Y-062008
X06063Y-064173
X060827Y-048031
X060827Y-051575
X061417Y-047441
X061417Y-064173
X061811Y-04311
X061811Y-062992
X062008Y-050394
X062402Y-047441
X062598Y-040748
X062598Y-041339
X062795Y-051181
X062894Y-038386
X063189Y-04311
X063189Y-047441
X063189Y-049016
X063189Y-064115
X063386Y-062992
X063661Y-052244
X06378Y-040748
X06378Y-041339
X064173Y-038386
X064764Y-050984
X065157Y-052165
X066535Y-055118
X067126Y-047047
X067323Y-050197
X067323Y-051378
X067717Y-063189
X067717Y-068504
X067913Y-05689
X06811Y-040748
X06811Y-041142
X06811Y-041535
X06811Y-068898
X068268Y-062834
X068884Y-062397
X069094Y-065945
X069291Y-057274
X069291Y-058268
X06939Y-064075
X069685Y-03937
X069882Y-057274
X069882Y-058268
X070079Y-045472
X070669Y-046908
X070669Y-053937
X070866Y-068504
X071063Y-064173
X07126Y-057874
X07126Y-060039
X07185Y-055118
X07185Y-063386
X072047Y-04311
X072244Y-052756
X072441Y-061417
X072638Y-064173
X073031Y-038386
X073425Y-04311
X073425Y-062795
X073622Y-03937
X073622Y-063976
X074016Y-040748
X074016Y-041142
X074016Y-041535
X074409Y-038386
X075Y-040748
X075Y-041142
X075Y-041535
X075044Y-049848
X075197Y-053543
X075197Y-054331
X075197Y-063976
X075394Y-062795
X075787Y-050787
X075787Y-052165
X076673Y-03937
X076969Y-053543
X077067Y-038878
X077559Y-038484
X077559Y-04252
X077559Y-04311
X077559Y-043504
X077559Y-044094
X077559Y-044488
X077559Y-050787
X077559Y-052264
X077657Y-039469
X077953Y-038602
X077953Y-050591
X077953Y-056102
X078051Y-05315
X078134Y-047063
X07815Y-045866
X078248Y-039272
X078248Y-039764
X078248Y-040157
X078346Y-050394
X07874Y-042618
X078937Y-055118
X079134Y-043012
X079134Y-046063
X079331Y-052067
X079331Y-053051
X079331Y-053839
X079528Y-042815
X079528Y-046063
X079626Y-041732
X079724Y-036811
X079724Y-040945
X079724Y-041339
X079724Y-049349
X079746Y-042126
X079823Y-054134
X079823Y-048819
X079872Y-062943
X079921Y-046063
X079921Y-056693
X079921Y-06811
X080118Y-039173
X080226Y-062687
X080315Y-046063
X080315Y-056299
X080512Y-062392
X080561Y-06811
X080709Y-046063
X080709Y-05604
X080709Y-057874
X08076Y-044004
X080906Y-055709
X081102Y-043701
X081102Y-046063
X081102Y-057874
X081299Y-03937
X081299Y-042913
X081299Y-065748
X081496Y-046063
X081496Y-063976
X08189Y-044587
X081988Y-046063
X082087Y-040748
X082185Y-04124
X082205Y-041732
X082283Y-054134
X082776Y-03878
X082874Y-051378
X082874Y-051772
X083071Y-042717
X083268Y-041142
X083268Y-041929
X083427Y-043467
X083563Y-044291
X083661Y-041142
X084055Y-055906
X084154Y-040453
X084154Y-04439
X084252Y-068504
X084449Y-050394
X084449Y-063976
X085039Y-052461
X085236Y-04065
X085236Y-043467
X085236Y-057283
X085236Y-063189
X085433Y-049213
X08563Y-040846
X08563Y-052559
X08563Y-06122
X085827Y-051181
X086024Y-063976
X086417Y-03937
X086417Y-052559
X086614Y-040551
X086614Y-041142
X086811Y-047047
X086811Y-062598
X087008Y-052559
X087008Y-06378
X087598Y-052559
X087795Y-047835
X088189Y-052559
X088386Y-048425
X088583Y-03937
X088583Y-047047
X088583Y-052756
X088583Y-06378
X08878Y-062598
X088976Y-05315
X08937Y-054724
X090453Y-04311
X091043Y-038386
X091535Y-04311
X091535Y-049409
X091732Y-038386
X091732Y-04685
X091732Y-052165
X091929Y-040748
X091929Y-048031
X092126Y-041535
X092126Y-047244
X092323Y-040748
X09311Y-062795
X093307Y-068504
X093504Y-051575
X093504Y-068898
X093563Y-062539
X094094Y-053543
X094094Y-062283
X094291Y-045472
X094488Y-039173
X094488Y-046457
X094488Y-055512
X094488Y-058858
X094488Y-065551
X094685Y-063819
X094843Y-058031
X095276Y-052165
X095472Y-052904
X095669Y-046654
X095866Y-040748
X096063Y-045472
X096063Y-046457
X096063Y-047244
X096063Y-068504
X096161Y-056496
X09626Y-041142
X096358Y-05315
X096654Y-053415
X096654Y-056693
X096654Y-063976
X09685Y-054921
X097244Y-055285
X097343Y-056496
X097638Y-06122
X097638Y-063189
X097835Y-042717
X098031Y-049213
X098031Y-063976
X098425Y-039173
X098425Y-048819
X098524Y-055217
X098563Y-054764
X099016Y-062598
X099016Y-063976
X099606Y-048425
X100197Y-04311
X100394Y-046063
X100394Y-052756
X100591Y-044094
X100591Y-044488
X100787Y-062598
X100787Y-063976
X100886Y-055315
X101181Y-046654
X101181Y-048622
X101181Y-052165
X10128Y-038386
X101378Y-044882
X101378Y-045276
X101378Y-052756
X101575Y-04311
X102165Y-041142
X102165Y-041535
X102559Y-038386
X102559Y-044094
X102559Y-044488
X102559Y-044882
X102559Y-045276
X102756Y-046457
X102756Y-048819
X102756Y-050394
X102756Y-054331
X102914Y-049409
X102953Y-047244
X10374Y-044882
X103937Y-051181
X103937Y-052756
X104331Y-046165
X104724Y-048031
X104724Y-049409
X105118Y-039272
X105118Y-041142
X105118Y-041535
X105266Y-062746
X105315Y-068504
X105512Y-068898
X10562Y-06249
X106102Y-062205
X106299Y-045079
X106496Y-065551
X106693Y-048069
X106693Y-06378
X107018Y-050069
X107087Y-045472
X107283Y-050984
X107283Y-057677
X107283Y-058465
X10748Y-068504
X107874Y-053445
X108071Y-05
X10811Y-064803
X108268Y-05374
X108465Y-055512
X108661Y-039272
X109252Y-062992
X109528Y-063622
X109626Y-044015
X109646Y-060827
X109843Y-044488
X109843Y-048622
X109843Y-052165
X110236Y-044882
X110433Y-04311
X11063Y-062402
X11063Y-06378
X110827Y-047441
X111122Y-038386
X111614Y-04311
X111811Y-050394
X112008Y-04685
X112205Y-041535
X112402Y-062402
X112402Y-06378
X112441Y-056299
X112441Y-056772
X1125Y-038386
X112992Y-044488
X112992Y-044882
X112992Y-045276
X112992Y-056299
X113386Y-048228
X113386Y-054331
X113386Y-054724
X11437Y-04685
X114764Y-041535
X115157Y-039272
X115157Y-047638
X116142Y-046063
X117077Y-062549
X117126Y-068504
X117323Y-068898
X117628Y-062293
X118307Y-050984
X118307Y-062008
X118307Y-065354
X118504Y-063583
X118996Y-039272
X119488Y-057776
X119488Y-058465
X119685Y-063976
X119685Y-068504
X120866Y-063228
X12106Y-051015
X121063Y-046063
X121063Y-06122
X12126Y-063976
X121358Y-038386
X121457Y-044882
X12185Y-050394
X122047Y-046063
X122244Y-054331
X122244Y-054724
X122441Y-06252
X122441Y-063976
X122638Y-038386
X122638Y-040945
X122638Y-041339
X123425Y-051181
X123425Y-051772
X123661Y-057441
X123819Y-062795
X124016Y-063976
X124882Y-041339
X124961Y-042126
X126083Y-04065
X126083Y-041496
X126929Y-039291
X127756Y-050591
X127756Y-050984
X128543Y-050197
X128691Y-062746
X128898Y-040709
X129045Y-06249
X129528Y-066732
X129685Y-040472
X129724Y-062195
X129921Y-058366
X129921Y-065551
X130108Y-06377
X13061Y-057795
X130709Y-063386
X131693Y-056201
X132835Y-041102
X132937Y-040524
X133661Y-050787
X13563Y-041732
X13563Y-051969
T2
X129921Y-054882
T3
X02874Y-062402
X029331Y-060827
X03878Y-064764
X039173Y-064961
X039567Y-064961
X039961Y-064764
X04252Y-062205
X04252Y-065354
X050394Y-064567
X050787Y-064764
X051181Y-064764
X051575Y-064567
X054134Y-062008
X054134Y-065157
X062015Y-064567
X062473Y-064764
X062883Y-064764
X063425Y-064528
X065945Y-062205
X065945Y-065354
X074016Y-064567
X074409Y-064764
X074803Y-064764
X075197Y-064567
X077953Y-062008
X077953Y-065157
X087402Y-06437
X087795Y-064567
X088189Y-064567
X088583Y-06437
X091339Y-061811
X091339Y-064961
X099606Y-064567
X1Y-064764
X100394Y-064764
X100787Y-064567
X103346Y-061811
X103346Y-064961
X11122Y-06437
X111614Y-064567
X112008Y-064567
X112402Y-06437
X115157Y-061614
X115157Y-064764
X122835Y-064567
X123228Y-064764
X123622Y-064764
X124016Y-064567
X126772Y-061811
X126772Y-064961
T4
X117417Y-045433
X120417Y-045433
T5
X074016Y-047244
X074803Y-047244
T6
X125623Y-045433
X127173Y-045433
T7
X026862Y-049472
X026862Y-050472
X026862Y-051472
X026862Y-052472
X027862Y-049972
X027862Y-050972
X027862Y-051972
X027862Y-052972
X028012Y-038976
X029392Y-038976
X032468Y-060037
X032468Y-061417
X042887Y-059439
X044267Y-059439
X054297Y-059163
X055677Y-059163
X066108Y-059252
X067488Y-059252
X078313Y-059222
X079693Y-059222
X091637Y-059075
X093017Y-059075
X103869Y-059026
X105249Y-059026
X115739Y-058829
X117119Y-058829
X127Y-059222
X12838Y-059222
T8
X022992Y-039291
X023016Y-041102
X023992Y-039291
X024016Y-041102
X024992Y-039291
X039945Y-050862
X039945Y-053862
X040945Y-050862
X040945Y-053862
X041945Y-050862
X041945Y-053862
X077165Y-046063
X077165Y-047063
X077165Y-048063
X129291Y-036801
X130291Y-036801
X131291Y-036801
X132291Y-036801
X133291Y-036801
X134291Y-036801
X135291Y-036801
T9
X03837Y-067071
X03887Y-068071
X03937Y-067071
X039488Y-040126
X039488Y-042126
X03987Y-068071
X04037Y-067071
X04087Y-068071
X041488Y-040126
X041488Y-042126
X042488Y-040126
X042488Y-042126
X043488Y-040126
X043488Y-042126
X044488Y-040126
X044488Y-042126
X049675Y-040126
X049675Y-042126
X049984Y-067071
X050484Y-068071
X050984Y-067071
X051484Y-068071
X051675Y-040126
X051675Y-042126
X051984Y-067071
X052484Y-068071
X052675Y-040126
X052675Y-042126
X053675Y-040126
X053675Y-042126
X054675Y-040126
X054675Y-042126
X059861Y-040126
X059861Y-042126
X061697Y-067071
X061861Y-040126
X061861Y-042126
X062197Y-068071
X062697Y-067071
X062861Y-040126
X062861Y-042126
X063197Y-068071
X063697Y-067071
X063861Y-040126
X063861Y-042126
X064197Y-068071
X064861Y-040126
X064861Y-042126
X070047Y-040126
X070047Y-042126
X072047Y-040126
X072047Y-042126
X073047Y-040126
X073047Y-042126
X073606Y-067071
X074047Y-040126
X074047Y-042126
X074106Y-068071
X074606Y-067071
X075047Y-040126
X075047Y-042126
X075106Y-068071
X075606Y-067071
X076106Y-068071
X086992Y-067071
X087492Y-068071
X087992Y-067071
X088159Y-040126
X088159Y-042126
X088492Y-068071
X088992Y-067071
X089492Y-068071
X090159Y-040126
X090159Y-042126
X091159Y-040126
X091159Y-042126
X092159Y-040126
X092159Y-042126
X093159Y-040126
X093159Y-042126
X098264Y-040126
X098264Y-042126
X099197Y-067071
X099697Y-068071
X100197Y-067071
X100264Y-040126
X100264Y-042126
X100697Y-068071
X101197Y-067071
X101264Y-040126
X101264Y-042126
X101697Y-068071
X102264Y-040126
X102264Y-042126
X103264Y-040126
X103264Y-042126
X108369Y-040126
X108369Y-042126
X110369Y-040126
X110369Y-042126
X110811Y-067071
X111311Y-068071
X111369Y-040126
X111369Y-042126
X111811Y-067071
X112311Y-068071
X112369Y-040126
X112369Y-042126
X112811Y-067071
X113311Y-068071
X113369Y-040126
X113369Y-042126
X116161Y-04737
X116161Y-04937
X116161Y-053701
X116161Y-055701
X118161Y-04737
X118161Y-04937
X118161Y-053701
X118161Y-055701
X118474Y-040126
X118474Y-042126
X119161Y-04737
X119161Y-04937
X119161Y-053701
X119161Y-055701
X120161Y-04737
X120161Y-04937
X120161Y-053701
X120161Y-055701
X120474Y-040126
X120474Y-042126
X121161Y-04737
X121161Y-04937
X121161Y-053701
X121161Y-055701
X121474Y-040126
X121474Y-042126
X122425Y-067071
X122474Y-040126
X122474Y-042126
X122925Y-068071
X123425Y-067071
X123474Y-040126
X123474Y-042126
X123819Y-047402
X123819Y-049402
X123819Y-053701
X123819Y-055701
X123925Y-068071
X124425Y-067071
X124925Y-068071
X125819Y-047402
X125819Y-049402
X125819Y-053701
X125819Y-055701
X126819Y-047402
X126819Y-049402
X126819Y-053701
X126819Y-055701
X127819Y-047402
X127819Y-049402
X127819Y-053701
X127819Y-055701
X128819Y-047402
X128819Y-049402
X128819Y-053701
X128819Y-055701
T10
X085976Y-046063
X086976Y-046063
X087976Y-046063
X088976Y-046063
T11
X027323Y-04189
X029035Y-051673
X033858Y-044291
X035039Y-043701
T12
X138189Y-044882
X138189Y-04685
X138189Y-048819
X138189Y-050787
X138189Y-052756
X138189Y-054724
X138189Y-056693
T13
X040483Y-036909
X041983Y-036909
X043483Y-036909
X05067Y-036909
X05217Y-036909
X05367Y-036909
X060856Y-036909
X062356Y-036909
X063856Y-036909
X071042Y-036909
X072542Y-036909
X074042Y-036909
X089154Y-036909
X090654Y-036909
X092154Y-036909
X099259Y-036909
X100759Y-036909
X102259Y-036909
X109364Y-036909
X110864Y-036909
X112364Y-036909
X119469Y-036909
X120969Y-036909
X122469Y-036909
X138287Y-061394
X138287Y-062894
X138287Y-064394
T14
X022835Y-03622
X022835Y-070079
X081496Y-03622
X081496Y-070079
X140157Y-03622
X140157Y-070079
T15
X03762Y-070571
X04162Y-070571
X049234Y-070571
X053234Y-070571
X060947Y-070571
X064947Y-070571
X072856Y-070571
X076856Y-070571
X086242Y-070571
X090242Y-070571
X098447Y-070571
X102447Y-070571
X110061Y-070571
X114061Y-070571
X121675Y-070571
X125675Y-070571
T16
X024358Y-048972
X024358Y-053472
T0
M30
