M48
; DRILL file {KiCad 7.0.7} date Thu Jan 25 11:55:58 2024
; FORMAT={-:-/ absolute / metric / decimal}
; #@! TF.CreationDate,2024-01-25T11:55:58-05:00
; #@! TF.GenerationSoftware,Kicad,Pcbnew,7.0.7
; #@! TF.FileFunction,Plated,1,2,PTH
FMAT,2
METRIC
; #@! TA.AperFunction,Plated,PTH,ViaDrill
T1C0.300
; #@! TA.AperFunction,Plated,PTH,ViaDrill
T2C0.450
; #@! TA.AperFunction,Plated,PTH,ComponentDrill
T3C0.800
; #@! TA.AperFunction,Plated,PTH,ComponentDrill
T4C0.813
; #@! TA.AperFunction,Plated,PTH,ComponentDrill
T5C0.889
; #@! TA.AperFunction,Plated,PTH,ComponentDrill
T6C0.965
; #@! TA.AperFunction,Plated,PTH,ComponentDrill
T7C1.000
; #@! TA.AperFunction,Plated,PTH,ComponentDrill
T8C1.016
; #@! TA.AperFunction,Plated,PTH,ComponentDrill
T9C1.020
; #@! TA.AperFunction,Plated,PTH,ComponentDrill
T10C1.143
; #@! TA.AperFunction,Plated,PTH,ViaDrill
T11C1.200
; #@! TA.AperFunction,Plated,PTH,ComponentDrill
T12C1.300
; #@! TA.AperFunction,Plated,PTH,ComponentDrill
T13C2.500
; #@! TA.AperFunction,Plated,PTH,ComponentDrill
T14C3.353
%
G90
G05
T1
X67.5Y-111.0
X70.0Y-146.0
X75.0Y-138.5
X75.0Y-140.5
X75.0Y-168.5
X76.0Y-139.5
X76.0Y-147.0
X77.5Y-168.5
X78.035Y-167.535
X81.0Y-171.5
X82.0Y-167.5
X83.0Y-173.5
X83.5Y-106.5
X88.0Y-103.5
X88.5Y-147.0
X90.5Y-95.0
X90.5Y-145.5
X91.5Y-163.0
X94.0Y-129.5
X94.5Y-109.5
X95.0Y-110.5
X95.0Y-159.5
X95.0Y-163.0
X95.5Y-112.0
X96.5Y-155.0
X97.0Y-163.0
X98.0Y-160.0
X101.0Y-162.5
X102.0Y-160.0
X105.42Y-109.5
X110.0Y-109.5
X110.46Y-97.599
X111.572Y-97.599
X113.0Y-135.35
X113.5Y-157.5
X113.5Y-167.375
X114.0Y-158.5
X114.175Y-162.325
X114.625Y-159.5
X115.0Y-164.0
X115.5Y-163.0
X116.0Y-146.0
X117.5Y-173.5
X118.5Y-161.5
X119.524Y-146.0
X120.0Y-140.0
X120.0Y-174.0
X121.5Y-162.5
X123.0Y-161.0
X123.5Y-157.0
X124.0Y-162.5
X125.0Y-100.0
X125.0Y-134.0
X126.5Y-162.5
X127.5Y-159.5
X128.0Y-103.5
X128.5Y-100.0
X131.0Y-103.5
X131.0Y-162.5
X131.293Y-109.5
X131.5Y-159.5
X132.0Y-118.5
X133.0Y-122.0
X133.0Y-131.5
X133.5Y-129.5
X134.0Y-118.0
X134.0Y-123.0
X135.0Y-109.5
X136.0Y-103.5
X136.333Y-97.5
X136.5Y-118.5
X136.5Y-126.5
X136.5Y-128.5
X137.0Y-121.0
X137.445Y-97.555
X139.5Y-117.0
X140.0Y-126.0
X140.345Y-128.445
X140.5Y-127.0
X142.0Y-125.5
X142.0Y-160.0
X142.0Y-174.0
X143.0Y-159.0
X143.0Y-175.0
X144.0Y-158.0
X145.0Y-115.5
X145.0Y-118.0
X145.5Y-167.0
X146.0Y-118.0
X146.0Y-123.5
X146.0Y-127.0
X146.0Y-141.5
X146.0Y-162.5
X147.0Y-116.5
X147.0Y-120.0
X147.0Y-123.0
X147.5Y-126.0
X148.0Y-138.5
X149.0Y-103.5
X149.0Y-124.635
X149.5Y-174.0
X150.0Y-163.0
X151.0Y-100.0
X153.0Y-161.0
X153.5Y-103.5
X153.5Y-105.0
X153.5Y-113.0
X154.0Y-100.0
X154.0Y-157.5
X154.0Y-163.0
X154.5Y-122.0
X154.5Y-131.0
X156.0Y-120.5
X156.0Y-163.0
X157.0Y-109.5
X157.0Y-160.0
X157.5Y-128.0
X158.5Y-120.5
X159.0Y-103.5
X159.0Y-105.0
X159.5Y-130.0
X160.5Y-109.5
X160.5Y-120.5
X160.5Y-124.5
X160.5Y-162.852
X161.0Y-160.0
X161.7Y-132.7
X162.0Y-103.5
X162.0Y-105.0
X162.207Y-97.5
X163.5Y-97.5
X164.5Y-129.5
X165.5Y-132.5
X169.0Y-140.0
X170.5Y-119.5
X171.0Y-127.5
X171.0Y-130.5
X172.0Y-160.5
X172.0Y-174.0
X172.5Y-144.5
X173.0Y-103.5
X173.0Y-104.5
X173.0Y-105.5
X173.0Y-175.0
X173.402Y-159.598
X174.965Y-158.489
X175.5Y-167.5
X176.0Y-145.475
X176.0Y-148.0
X176.25Y-162.75
X177.0Y-100.0
X177.5Y-145.475
X177.5Y-148.0
X178.0Y-115.5
X179.5Y-119.146
X179.5Y-137.0
X180.0Y-174.0
X180.5Y-163.0
X181.0Y-147.0
X181.0Y-152.5
X182.5Y-140.0
X182.5Y-161.0
X183.0Y-109.5
X183.5Y-134.0
X184.0Y-156.0
X184.5Y-163.0
X186.5Y-109.5
X186.5Y-159.5
X187.0Y-100.0
X187.0Y-162.5
X188.0Y-103.5
X188.0Y-104.5
X188.0Y-105.5
X188.08Y-97.5
X189.192Y-97.5
X190.5Y-103.5
X190.5Y-104.5
X190.5Y-105.5
X190.613Y-126.613
X191.0Y-136.0
X191.0Y-138.0
X191.0Y-162.5
X191.5Y-159.5
X192.5Y-129.0
X192.5Y-132.5
X194.75Y-100.0
X195.5Y-136.0
X195.75Y-98.75
X197.0Y-97.75
X197.0Y-108.0
X197.0Y-109.5
X197.0Y-110.5
X197.0Y-112.0
X197.0Y-113.0
X197.0Y-129.0
X197.0Y-132.75
X197.25Y-100.25
X198.0Y-98.049
X198.0Y-128.5
X198.0Y-142.5
X198.25Y-135.0
X198.46Y-119.54
X198.5Y-116.5
X198.75Y-99.75
X198.75Y-101.0
X198.75Y-102.0
X199.0Y-128.0
X200.0Y-108.25
X200.5Y-140.0
X201.0Y-109.25
X201.0Y-117.0
X201.5Y-132.25
X201.5Y-134.75
X201.5Y-136.75
X202.0Y-108.75
X202.0Y-117.0
X202.25Y-106.0
X202.5Y-93.5
X202.5Y-104.0
X202.5Y-105.0
X202.5Y-125.347
X202.555Y-107.0
X202.75Y-137.5
X202.75Y-124.0
X202.875Y-159.875
X202.939Y-136.568
X203.0Y-117.0
X203.0Y-144.0
X203.0Y-174.0
X203.5Y-99.5
X203.775Y-159.225
X204.0Y-117.0
X204.0Y-143.0
X204.0Y-175.0
X204.5Y-158.475
X205.0Y-117.0
X205.0Y-142.343
X205.0Y-147.0
X205.13Y-111.77
X205.5Y-141.5
X206.0Y-111.0
X206.0Y-117.0
X206.0Y-147.0
X206.5Y-100.0
X206.5Y-109.0
X206.5Y-167.0
X207.0Y-117.0
X207.0Y-162.5
X208.0Y-113.25
X208.25Y-117.0
X208.5Y-103.5
X208.75Y-104.75
X208.799Y-106.0
X209.0Y-137.5
X210.25Y-98.5
X210.5Y-130.5
X210.5Y-131.5
X211.0Y-108.5
X211.5Y-104.5
X211.5Y-106.5
X211.905Y-110.405
X212.25Y-112.5
X212.5Y-104.5
X213.5Y-142.0
X213.75Y-102.75
X213.75Y-112.75
X214.0Y-174.0
X214.5Y-128.0
X214.5Y-162.5
X216.0Y-133.25
X216.5Y-103.25
X216.5Y-110.405
X216.5Y-145.5
X216.5Y-160.5
X217.0Y-125.0
X217.5Y-103.75
X217.5Y-133.5
X217.5Y-155.5
X218.0Y-130.0
X218.5Y-162.5
X219.5Y-100.0
X219.5Y-133.5
X220.0Y-103.0
X220.0Y-104.5
X220.5Y-119.5
X220.5Y-159.0
X221.0Y-133.5
X221.0Y-162.0
X222.5Y-133.5
X223.0Y-121.5
X223.5Y-142.5
X224.0Y-133.5
X224.5Y-123.0
X225.0Y-100.0
X225.0Y-119.5
X225.0Y-134.0
X225.0Y-162.0
X225.5Y-159.0
X226.0Y-135.0
X227.0Y-143.275
X227.5Y-135.5
X229.75Y-109.5
X231.5Y-97.5
X231.5Y-141.5
X232.5Y-109.5
X232.5Y-125.5
X233.0Y-97.5
X233.0Y-119.0
X233.0Y-132.5
X233.5Y-103.5
X233.5Y-122.0
X234.0Y-105.5
X234.0Y-120.0
X234.5Y-103.5
X236.5Y-159.5
X237.0Y-174.0
X237.5Y-131.0
X237.5Y-175.0
X237.65Y-158.85
X238.0Y-137.0
X238.5Y-138.0
X239.0Y-136.0
X239.0Y-158.2
X239.5Y-115.5
X240.0Y-99.5
X240.0Y-118.0
X240.0Y-141.0
X240.0Y-149.5
X240.0Y-166.5
X240.5Y-162.1
X240.9Y-147.4
X241.0Y-139.5
X242.0Y-132.5
X242.5Y-134.375
X243.0Y-118.5
X243.5Y-103.5
X244.0Y-115.5
X244.0Y-118.0
X244.0Y-120.0
X244.0Y-174.0
X244.5Y-104.5
X245.0Y-135.0
X245.5Y-135.675
X245.5Y-141.0
X245.5Y-142.0
X245.5Y-143.0
X245.5Y-144.0
X245.5Y-162.5
X246.0Y-139.0
X246.0Y-140.0
X248.0Y-155.5
X248.0Y-160.5
X248.5Y-108.5
X249.0Y-125.0
X249.0Y-162.5
X250.0Y-99.5
X250.0Y-124.0
X251.5Y-159.0
X251.5Y-162.5
X253.0Y-123.0
X254.5Y-109.5
X255.0Y-117.0
X255.0Y-134.0
X255.5Y-112.0
X255.5Y-113.0
X256.0Y-159.0
X256.0Y-162.5
X257.0Y-118.5
X257.0Y-123.5
X257.0Y-132.5
X257.5Y-114.0
X257.5Y-115.0
X257.5Y-134.0
X258.0Y-109.5
X258.5Y-97.5
X259.5Y-97.5
X259.5Y-104.5
X259.5Y-105.5
X260.5Y-112.0
X260.5Y-113.0
X260.5Y-114.0
X260.5Y-115.0
X261.0Y-118.0
X261.0Y-124.0
X261.0Y-128.0
X261.4Y-125.5
X261.5Y-120.0
X263.5Y-114.0
X264.0Y-130.0
X264.0Y-134.0
X265.0Y-117.26
X266.0Y-122.0
X266.0Y-125.5
X267.0Y-99.75
X267.0Y-104.5
X267.0Y-105.5
X267.375Y-159.375
X267.5Y-174.0
X268.0Y-175.0
X268.275Y-158.725
X269.5Y-158.0
X270.0Y-114.5
X270.5Y-166.5
X271.0Y-122.095
X271.0Y-145.0
X271.0Y-162.0
X271.825Y-127.175
X272.0Y-115.5
X272.5Y-129.5
X272.5Y-148.5
X273.0Y-174.0
X274.5Y-127.0
X274.5Y-164.5
X275.0Y-136.5
X275.0Y-137.5
X276.0Y-99.75
X277.5Y-160.0
X278.451Y-111.799
X278.5Y-154.5
X278.5Y-162.0
X279.0Y-113.0
X279.0Y-123.5
X279.0Y-132.5
X280.0Y-114.0
X280.5Y-109.5
X281.0Y-158.5
X281.0Y-162.0
X281.5Y-120.5
X283.5Y-97.599
X283.5Y-109.5
X284.0Y-128.0
X284.5Y-119.0
X284.75Y-97.599
X285.0Y-105.5
X285.5Y-158.5
X285.5Y-162.0
X287.0Y-113.0
X287.0Y-114.0
X287.0Y-115.0
X287.0Y-143.0
X288.0Y-122.5
X288.0Y-138.0
X288.0Y-139.0
X290.5Y-119.0
X291.5Y-105.5
X292.5Y-99.75
X292.5Y-121.0
X297.375Y-158.875
X297.5Y-174.0
X298.0Y-175.0
X298.775Y-158.225
X300.5Y-129.5
X300.5Y-157.5
X300.5Y-166.0
X301.0Y-161.5
X302.25Y-99.75
X303.5Y-145.75
X303.5Y-148.5
X304.0Y-162.5
X304.0Y-174.0
X307.0Y-161.0
X307.493Y-129.577
X307.5Y-117.0
X307.5Y-155.5
X308.0Y-162.5
X308.5Y-114.0
X309.0Y-96.5
X309.5Y-128.0
X310.0Y-117.0
X310.5Y-138.0
X310.5Y-139.0
X310.5Y-159.5
X311.0Y-96.5
X311.0Y-144.5
X311.0Y-162.5
X311.5Y-104.0
X311.5Y-105.0
X313.0Y-145.0
X313.5Y-130.0
X313.5Y-131.5
X314.5Y-145.5
X314.5Y-159.5
X315.0Y-162.5
X316.0Y-104.0
X318.0Y-105.0
X322.25Y-133.75
X324.5Y-128.5
X324.5Y-129.5
X326.5Y-127.5
X326.875Y-159.375
X327.775Y-158.725
X329.0Y-169.5
X329.5Y-157.975
X329.75Y-139.75
X330.0Y-166.5
X330.475Y-161.975
X331.5Y-147.0
X332.0Y-161.0
X332.476Y-103.25
X334.5Y-142.0
X335.0Y-160.0
X335.0Y-161.5
X335.5Y-155.5
X339.5Y-129.0
X344.5Y-106.0
X344.5Y-132.0
T2
X73.0Y-158.5
X74.5Y-154.5
X98.5Y-164.5
X99.5Y-165.0
X100.5Y-165.0
X101.5Y-164.5
X108.0Y-158.0
X108.0Y-166.0
X128.0Y-164.0
X129.0Y-164.5
X130.0Y-164.5
X131.0Y-164.0
X137.5Y-157.5
X137.5Y-165.5
X157.518Y-164.0
X158.682Y-164.5
X159.722Y-164.5
X161.0Y-164.0
X167.5Y-158.0
X167.5Y-166.0
X188.0Y-164.0
X189.0Y-164.5
X190.0Y-164.5
X191.0Y-164.0
X198.0Y-157.5
X198.0Y-165.5
X222.0Y-163.5
X223.0Y-164.0
X224.0Y-164.0
X225.0Y-163.5
X232.0Y-157.0
X232.0Y-165.0
X253.0Y-164.0
X254.0Y-164.5
X255.0Y-164.5
X256.0Y-164.0
X262.5Y-157.0
X262.5Y-165.0
X282.5Y-163.5
X283.5Y-164.0
X284.5Y-164.0
X285.5Y-163.5
X292.5Y-156.5
X292.5Y-164.5
X312.0Y-164.0
X313.0Y-164.5
X314.0Y-164.5
X315.0Y-164.0
X322.0Y-157.0
X322.0Y-165.0
T3
X298.24Y-115.4
X305.86Y-115.4
T4
X188.0Y-120.0
X190.0Y-120.0
T5
X319.082Y-115.4
X323.018Y-115.4
T6
X68.229Y-125.66
X68.229Y-128.2
X68.229Y-130.74
X68.229Y-133.28
X70.769Y-126.93
X70.769Y-129.47
X70.769Y-132.01
X70.769Y-134.55
X71.15Y-99.0
X74.655Y-99.0
X82.469Y-152.495
X82.469Y-156.0
X108.933Y-150.975
X112.438Y-150.975
X137.914Y-150.275
X141.419Y-150.275
X167.914Y-150.5
X171.419Y-150.5
X198.914Y-150.425
X202.419Y-150.425
X232.757Y-150.05
X236.262Y-150.05
X263.828Y-149.925
X267.334Y-149.925
X293.976Y-149.425
X297.481Y-149.425
X322.579Y-150.425
X326.084Y-150.425
T7
X101.46Y-129.19
X101.46Y-136.81
X104.0Y-129.19
X104.0Y-136.81
X106.54Y-129.19
X106.54Y-136.81
X196.0Y-117.0
X196.0Y-119.54
X196.0Y-122.08
T8
X97.46Y-170.36
X98.73Y-172.9
X100.0Y-170.36
X100.3Y-101.92
X100.3Y-107.0
X101.27Y-172.9
X102.54Y-170.36
X103.81Y-172.9
X105.38Y-101.92
X105.38Y-107.0
X107.92Y-101.92
X107.92Y-107.0
X110.46Y-101.92
X110.46Y-107.0
X113.0Y-101.92
X113.0Y-107.0
X126.173Y-101.92
X126.173Y-107.0
X126.96Y-170.36
X128.23Y-172.9
X129.5Y-170.36
X130.77Y-172.9
X131.253Y-101.92
X131.253Y-107.0
X132.04Y-170.36
X133.31Y-172.9
X133.793Y-101.92
X133.793Y-107.0
X136.333Y-101.92
X136.333Y-107.0
X138.873Y-101.92
X138.873Y-107.0
X152.047Y-101.92
X152.047Y-107.0
X156.71Y-170.36
X157.127Y-101.92
X157.127Y-107.0
X157.98Y-172.9
X159.25Y-170.36
X159.667Y-101.92
X159.667Y-107.0
X160.52Y-172.9
X161.79Y-170.36
X162.207Y-101.92
X162.207Y-107.0
X163.06Y-172.9
X164.747Y-101.92
X164.747Y-107.0
X177.92Y-101.92
X177.92Y-107.0
X183.0Y-101.92
X183.0Y-107.0
X185.54Y-101.92
X185.54Y-107.0
X186.96Y-170.36
X188.08Y-101.92
X188.08Y-107.0
X188.23Y-172.9
X189.5Y-170.36
X190.62Y-101.92
X190.62Y-107.0
X190.77Y-172.9
X192.04Y-170.36
X193.31Y-172.9
X220.96Y-170.36
X222.23Y-172.9
X223.5Y-170.36
X223.923Y-101.92
X223.923Y-107.0
X224.77Y-172.9
X226.04Y-170.36
X227.31Y-172.9
X229.003Y-101.92
X229.003Y-107.0
X231.543Y-101.92
X231.543Y-107.0
X234.083Y-101.92
X234.083Y-107.0
X236.623Y-101.92
X236.623Y-107.0
X249.59Y-101.92
X249.59Y-107.0
X251.96Y-170.36
X253.23Y-172.9
X254.5Y-170.36
X254.67Y-101.92
X254.67Y-107.0
X255.77Y-172.9
X257.04Y-170.36
X257.21Y-101.92
X257.21Y-107.0
X258.31Y-172.9
X259.75Y-101.92
X259.75Y-107.0
X262.29Y-101.92
X262.29Y-107.0
X275.256Y-101.92
X275.256Y-107.0
X280.336Y-101.92
X280.336Y-107.0
X281.46Y-170.36
X282.73Y-172.9
X282.876Y-101.92
X282.876Y-107.0
X284.0Y-170.36
X285.27Y-172.9
X285.416Y-101.92
X285.416Y-107.0
X286.54Y-170.36
X287.81Y-172.9
X287.956Y-101.92
X287.956Y-107.0
X295.05Y-120.32
X295.05Y-125.4
X295.05Y-136.4
X295.05Y-141.48
X300.13Y-120.32
X300.13Y-125.4
X300.13Y-136.4
X300.13Y-141.48
X300.923Y-101.92
X300.923Y-107.0
X302.67Y-120.32
X302.67Y-125.4
X302.67Y-136.4
X302.67Y-141.48
X305.21Y-120.32
X305.21Y-125.4
X305.21Y-136.4
X305.21Y-141.48
X306.003Y-101.92
X306.003Y-107.0
X307.75Y-120.32
X307.75Y-125.4
X307.75Y-136.4
X307.75Y-141.48
X308.543Y-101.92
X308.543Y-107.0
X310.96Y-170.36
X311.083Y-101.92
X311.083Y-107.0
X312.23Y-172.9
X313.5Y-170.36
X313.623Y-101.92
X313.623Y-107.0
X314.501Y-120.4
X314.501Y-125.48
X314.501Y-136.4
X314.501Y-141.48
X314.77Y-172.9
X316.04Y-170.36
X317.31Y-172.9
X319.581Y-120.4
X319.581Y-125.48
X319.581Y-136.4
X319.581Y-141.48
X322.121Y-120.4
X322.121Y-125.48
X322.121Y-136.4
X322.121Y-141.48
X324.661Y-120.4
X324.661Y-125.48
X324.661Y-136.4
X324.661Y-141.48
X327.201Y-120.4
X327.201Y-125.48
X327.201Y-136.4
X327.201Y-141.48
T9
X103.74Y-93.315
X106.74Y-93.315
X109.74Y-93.315
X129.493Y-93.315
X132.493Y-93.315
X135.493Y-93.315
X155.247Y-93.37
X158.247Y-93.37
X161.247Y-93.37
X181.0Y-93.37
X184.0Y-93.37
X187.0Y-93.37
X227.0Y-93.315
X230.0Y-93.315
X233.0Y-93.315
X252.74Y-93.315
X255.74Y-93.315
X258.74Y-93.315
X278.0Y-93.315
X281.0Y-93.315
X284.0Y-93.315
X304.0Y-93.315
X307.0Y-93.315
X310.0Y-93.315
T10
X218.38Y-117.0
X220.92Y-117.0
X223.46Y-117.0
X226.0Y-117.0
T11
X73.75Y-131.25
X86.0Y-112.5
X89.0Y-111.0
T12
X329.0Y-97.0
X334.0Y-97.0
X339.0Y-97.0
X344.0Y-97.0
X351.0Y-114.0
X351.0Y-119.0
X351.0Y-124.0
X351.0Y-129.0
X351.0Y-134.0
X351.0Y-139.0
X351.0Y-144.0
X351.0Y-152.0
X351.0Y-157.0
X351.0Y-162.0
X351.0Y-167.0
T13
X58.0Y-92.0
X58.0Y-180.0
X207.0Y-92.0
X207.0Y-180.0
X356.0Y-92.0
X356.0Y-180.0
T14
X95.555Y-179.25
X105.715Y-179.25
X125.055Y-179.25
X135.215Y-179.25
X154.805Y-179.25
X164.965Y-179.25
X185.055Y-179.25
X195.215Y-179.25
X219.055Y-179.25
X229.215Y-179.25
X250.055Y-179.25
X260.215Y-179.25
X279.555Y-179.25
X289.715Y-179.25
X309.055Y-179.25
X319.215Y-179.25
T0
M30
