%TF.GenerationSoftware,KiCad,Pcbnew,7.0.7*%
%TF.CreationDate,2024-01-25T11:56:01-05:00*%
%TF.ProjectId,AOML_AB_3.0_reorganized-v1,414f4d4c-5f41-4425-9f33-2e305f72656f,1*%
%TF.SameCoordinates,Original*%
%TF.FileFunction,Drillmap*%
%TF.FilePolarity,Positive*%
%FSLAX45Y45*%
G04 Gerber Fmt 4.5, Leading zero omitted, Abs format (unit mm)*
G04 Created by KiCad (PCBNEW 7.0.7) date 2024-01-25 11:56:01*
%MOMM*%
%LPD*%
G01*
G04 APERTURE LIST*
%ADD10C,0.100000*%
%ADD11C,0.200000*%
%ADD12C,0.127000*%
%ADD13C,0.332740*%
G04 APERTURE END LIST*
D10*
X5800000Y-8600000D02*
X35600000Y-8600000D01*
X36200000Y-9200000D02*
G75*
G03*
X35600000Y-8600000I-600000J0D01*
G01*
X36200000Y-9200000D02*
X36200000Y-18000000D01*
X5200000Y-18000000D02*
X5200000Y-9200000D01*
X5800000Y-8600000D02*
G75*
G03*
X5200000Y-9200000I0J-600000D01*
G01*
X35600000Y-18600000D02*
X5800000Y-18600000D01*
X35600000Y-18600000D02*
G75*
G03*
X36200000Y-18000000I0J600000D01*
G01*
X5200000Y-18000000D02*
G75*
G03*
X5800000Y-18600000I600000J0D01*
G01*
D11*
D12*
X10010467Y-9464000D02*
X10137467Y-9591000D01*
X10137467Y-9464000D02*
X10010467Y-9591000D01*
X11210465Y-9464000D02*
X11337465Y-9591000D01*
X11337465Y-9464000D02*
X11210465Y-9591000D01*
X12585812Y-9464000D02*
X12712812Y-9591000D01*
X12712812Y-9464000D02*
X12585812Y-9591000D01*
X13785810Y-9464000D02*
X13912810Y-9591000D01*
X13912810Y-9464000D02*
X13785810Y-9591000D01*
X15161157Y-9469500D02*
X15288157Y-9596500D01*
X15288157Y-9469500D02*
X15161157Y-9596500D01*
X16361155Y-9469500D02*
X16488155Y-9596500D01*
X16488155Y-9469500D02*
X16361155Y-9596500D01*
X17736502Y-9469500D02*
X17863502Y-9596500D01*
X17863502Y-9469500D02*
X17736502Y-9596500D01*
X18936500Y-9469500D02*
X19063500Y-9596500D01*
X19063500Y-9469500D02*
X18936500Y-9596500D01*
X22336502Y-9464000D02*
X22463502Y-9591000D01*
X22463502Y-9464000D02*
X22336502Y-9591000D01*
X23536500Y-9464000D02*
X23663500Y-9591000D01*
X23663500Y-9464000D02*
X23536500Y-9591000D01*
X24910467Y-9464000D02*
X25037467Y-9591000D01*
X25037467Y-9464000D02*
X24910467Y-9591000D01*
X26110465Y-9464000D02*
X26237465Y-9591000D01*
X26237465Y-9464000D02*
X26110465Y-9591000D01*
X27436502Y-9464000D02*
X27563502Y-9591000D01*
X27563502Y-9464000D02*
X27436502Y-9591000D01*
X28636500Y-9464000D02*
X28763500Y-9591000D01*
X28763500Y-9464000D02*
X28636500Y-9591000D01*
X30036502Y-9464000D02*
X30163502Y-9591000D01*
X30163502Y-9464000D02*
X30036502Y-9591000D01*
X31236500Y-9464000D02*
X31363500Y-9591000D01*
X31363500Y-9464000D02*
X31236500Y-9591000D01*
D13*
X6353270Y-12438990D02*
G75*
G03*
X6353270Y-12438990I-166370J0D01*
G01*
X6353270Y-13581990D02*
G75*
G03*
X6353270Y-13581990I-166370J0D01*
G01*
D11*
X5455777Y-18916484D02*
X5455777Y-18716484D01*
X5455777Y-18716484D02*
X5503396Y-18716484D01*
X5503396Y-18716484D02*
X5531967Y-18726008D01*
X5531967Y-18726008D02*
X5551015Y-18745055D01*
X5551015Y-18745055D02*
X5560539Y-18764103D01*
X5560539Y-18764103D02*
X5570063Y-18802198D01*
X5570063Y-18802198D02*
X5570063Y-18830770D01*
X5570063Y-18830770D02*
X5560539Y-18868865D01*
X5560539Y-18868865D02*
X5551015Y-18887912D01*
X5551015Y-18887912D02*
X5531967Y-18906960D01*
X5531967Y-18906960D02*
X5503396Y-18916484D01*
X5503396Y-18916484D02*
X5455777Y-18916484D01*
X5655777Y-18916484D02*
X5655777Y-18783150D01*
X5655777Y-18821246D02*
X5665301Y-18802198D01*
X5665301Y-18802198D02*
X5674824Y-18792674D01*
X5674824Y-18792674D02*
X5693872Y-18783150D01*
X5693872Y-18783150D02*
X5712920Y-18783150D01*
X5779586Y-18916484D02*
X5779586Y-18783150D01*
X5779586Y-18716484D02*
X5770062Y-18726008D01*
X5770062Y-18726008D02*
X5779586Y-18735531D01*
X5779586Y-18735531D02*
X5789110Y-18726008D01*
X5789110Y-18726008D02*
X5779586Y-18716484D01*
X5779586Y-18716484D02*
X5779586Y-18735531D01*
X5903396Y-18916484D02*
X5884348Y-18906960D01*
X5884348Y-18906960D02*
X5874824Y-18887912D01*
X5874824Y-18887912D02*
X5874824Y-18716484D01*
X6008158Y-18916484D02*
X5989110Y-18906960D01*
X5989110Y-18906960D02*
X5979586Y-18887912D01*
X5979586Y-18887912D02*
X5979586Y-18716484D01*
X6236729Y-18916484D02*
X6236729Y-18716484D01*
X6236729Y-18716484D02*
X6303396Y-18859341D01*
X6303396Y-18859341D02*
X6370062Y-18716484D01*
X6370062Y-18716484D02*
X6370062Y-18916484D01*
X6551015Y-18916484D02*
X6551015Y-18811722D01*
X6551015Y-18811722D02*
X6541491Y-18792674D01*
X6541491Y-18792674D02*
X6522443Y-18783150D01*
X6522443Y-18783150D02*
X6484348Y-18783150D01*
X6484348Y-18783150D02*
X6465301Y-18792674D01*
X6551015Y-18906960D02*
X6531967Y-18916484D01*
X6531967Y-18916484D02*
X6484348Y-18916484D01*
X6484348Y-18916484D02*
X6465301Y-18906960D01*
X6465301Y-18906960D02*
X6455777Y-18887912D01*
X6455777Y-18887912D02*
X6455777Y-18868865D01*
X6455777Y-18868865D02*
X6465301Y-18849817D01*
X6465301Y-18849817D02*
X6484348Y-18840293D01*
X6484348Y-18840293D02*
X6531967Y-18840293D01*
X6531967Y-18840293D02*
X6551015Y-18830770D01*
X6646253Y-18783150D02*
X6646253Y-18983150D01*
X6646253Y-18792674D02*
X6665301Y-18783150D01*
X6665301Y-18783150D02*
X6703396Y-18783150D01*
X6703396Y-18783150D02*
X6722443Y-18792674D01*
X6722443Y-18792674D02*
X6731967Y-18802198D01*
X6731967Y-18802198D02*
X6741491Y-18821246D01*
X6741491Y-18821246D02*
X6741491Y-18878389D01*
X6741491Y-18878389D02*
X6731967Y-18897436D01*
X6731967Y-18897436D02*
X6722443Y-18906960D01*
X6722443Y-18906960D02*
X6703396Y-18916484D01*
X6703396Y-18916484D02*
X6665301Y-18916484D01*
X6665301Y-18916484D02*
X6646253Y-18906960D01*
X6827205Y-18897436D02*
X6836729Y-18906960D01*
X6836729Y-18906960D02*
X6827205Y-18916484D01*
X6827205Y-18916484D02*
X6817682Y-18906960D01*
X6817682Y-18906960D02*
X6827205Y-18897436D01*
X6827205Y-18897436D02*
X6827205Y-18916484D01*
X6827205Y-18792674D02*
X6836729Y-18802198D01*
X6836729Y-18802198D02*
X6827205Y-18811722D01*
X6827205Y-18811722D02*
X6817682Y-18802198D01*
X6817682Y-18802198D02*
X6827205Y-18792674D01*
X6827205Y-18792674D02*
X6827205Y-18811722D01*
D12*
X5068000Y-19181500D02*
X5195000Y-19308500D01*
X5195000Y-19181500D02*
X5068000Y-19308500D01*
D11*
X5560539Y-19336484D02*
X5446253Y-19336484D01*
X5503396Y-19336484D02*
X5503396Y-19136484D01*
X5503396Y-19136484D02*
X5484348Y-19165055D01*
X5484348Y-19165055D02*
X5465301Y-19184103D01*
X5465301Y-19184103D02*
X5446253Y-19193627D01*
X5646253Y-19317436D02*
X5655777Y-19326960D01*
X5655777Y-19326960D02*
X5646253Y-19336484D01*
X5646253Y-19336484D02*
X5636729Y-19326960D01*
X5636729Y-19326960D02*
X5646253Y-19317436D01*
X5646253Y-19317436D02*
X5646253Y-19336484D01*
X5731967Y-19155531D02*
X5741491Y-19146008D01*
X5741491Y-19146008D02*
X5760539Y-19136484D01*
X5760539Y-19136484D02*
X5808158Y-19136484D01*
X5808158Y-19136484D02*
X5827205Y-19146008D01*
X5827205Y-19146008D02*
X5836729Y-19155531D01*
X5836729Y-19155531D02*
X5846253Y-19174579D01*
X5846253Y-19174579D02*
X5846253Y-19193627D01*
X5846253Y-19193627D02*
X5836729Y-19222198D01*
X5836729Y-19222198D02*
X5722443Y-19336484D01*
X5722443Y-19336484D02*
X5846253Y-19336484D01*
X5912920Y-19136484D02*
X6046253Y-19136484D01*
X6046253Y-19136484D02*
X5960539Y-19336484D01*
X6160539Y-19136484D02*
X6179586Y-19136484D01*
X6179586Y-19136484D02*
X6198634Y-19146008D01*
X6198634Y-19146008D02*
X6208158Y-19155531D01*
X6208158Y-19155531D02*
X6217682Y-19174579D01*
X6217682Y-19174579D02*
X6227205Y-19212674D01*
X6227205Y-19212674D02*
X6227205Y-19260293D01*
X6227205Y-19260293D02*
X6217682Y-19298389D01*
X6217682Y-19298389D02*
X6208158Y-19317436D01*
X6208158Y-19317436D02*
X6198634Y-19326960D01*
X6198634Y-19326960D02*
X6179586Y-19336484D01*
X6179586Y-19336484D02*
X6160539Y-19336484D01*
X6160539Y-19336484D02*
X6141491Y-19326960D01*
X6141491Y-19326960D02*
X6131967Y-19317436D01*
X6131967Y-19317436D02*
X6122443Y-19298389D01*
X6122443Y-19298389D02*
X6112920Y-19260293D01*
X6112920Y-19260293D02*
X6112920Y-19212674D01*
X6112920Y-19212674D02*
X6122443Y-19174579D01*
X6122443Y-19174579D02*
X6131967Y-19155531D01*
X6131967Y-19155531D02*
X6141491Y-19146008D01*
X6141491Y-19146008D02*
X6160539Y-19136484D01*
X6312920Y-19336484D02*
X6312920Y-19203150D01*
X6312920Y-19222198D02*
X6322443Y-19212674D01*
X6322443Y-19212674D02*
X6341491Y-19203150D01*
X6341491Y-19203150D02*
X6370063Y-19203150D01*
X6370063Y-19203150D02*
X6389110Y-19212674D01*
X6389110Y-19212674D02*
X6398634Y-19231722D01*
X6398634Y-19231722D02*
X6398634Y-19336484D01*
X6398634Y-19231722D02*
X6408158Y-19212674D01*
X6408158Y-19212674D02*
X6427205Y-19203150D01*
X6427205Y-19203150D02*
X6455777Y-19203150D01*
X6455777Y-19203150D02*
X6474824Y-19212674D01*
X6474824Y-19212674D02*
X6484348Y-19231722D01*
X6484348Y-19231722D02*
X6484348Y-19336484D01*
X6579586Y-19336484D02*
X6579586Y-19203150D01*
X6579586Y-19222198D02*
X6589110Y-19212674D01*
X6589110Y-19212674D02*
X6608158Y-19203150D01*
X6608158Y-19203150D02*
X6636729Y-19203150D01*
X6636729Y-19203150D02*
X6655777Y-19212674D01*
X6655777Y-19212674D02*
X6665301Y-19231722D01*
X6665301Y-19231722D02*
X6665301Y-19336484D01*
X6665301Y-19231722D02*
X6674824Y-19212674D01*
X6674824Y-19212674D02*
X6693872Y-19203150D01*
X6693872Y-19203150D02*
X6722443Y-19203150D01*
X6722443Y-19203150D02*
X6741491Y-19212674D01*
X6741491Y-19212674D02*
X6751015Y-19231722D01*
X6751015Y-19231722D02*
X6751015Y-19336484D01*
X7141491Y-19126960D02*
X6970063Y-19384103D01*
X7398634Y-19136484D02*
X7417682Y-19136484D01*
X7417682Y-19136484D02*
X7436729Y-19146008D01*
X7436729Y-19146008D02*
X7446253Y-19155531D01*
X7446253Y-19155531D02*
X7455777Y-19174579D01*
X7455777Y-19174579D02*
X7465301Y-19212674D01*
X7465301Y-19212674D02*
X7465301Y-19260293D01*
X7465301Y-19260293D02*
X7455777Y-19298389D01*
X7455777Y-19298389D02*
X7446253Y-19317436D01*
X7446253Y-19317436D02*
X7436729Y-19326960D01*
X7436729Y-19326960D02*
X7417682Y-19336484D01*
X7417682Y-19336484D02*
X7398634Y-19336484D01*
X7398634Y-19336484D02*
X7379586Y-19326960D01*
X7379586Y-19326960D02*
X7370063Y-19317436D01*
X7370063Y-19317436D02*
X7360539Y-19298389D01*
X7360539Y-19298389D02*
X7351015Y-19260293D01*
X7351015Y-19260293D02*
X7351015Y-19212674D01*
X7351015Y-19212674D02*
X7360539Y-19174579D01*
X7360539Y-19174579D02*
X7370063Y-19155531D01*
X7370063Y-19155531D02*
X7379586Y-19146008D01*
X7379586Y-19146008D02*
X7398634Y-19136484D01*
X7551015Y-19317436D02*
X7560539Y-19326960D01*
X7560539Y-19326960D02*
X7551015Y-19336484D01*
X7551015Y-19336484D02*
X7541491Y-19326960D01*
X7541491Y-19326960D02*
X7551015Y-19317436D01*
X7551015Y-19317436D02*
X7551015Y-19336484D01*
X7684348Y-19136484D02*
X7703396Y-19136484D01*
X7703396Y-19136484D02*
X7722444Y-19146008D01*
X7722444Y-19146008D02*
X7731967Y-19155531D01*
X7731967Y-19155531D02*
X7741491Y-19174579D01*
X7741491Y-19174579D02*
X7751015Y-19212674D01*
X7751015Y-19212674D02*
X7751015Y-19260293D01*
X7751015Y-19260293D02*
X7741491Y-19298389D01*
X7741491Y-19298389D02*
X7731967Y-19317436D01*
X7731967Y-19317436D02*
X7722444Y-19326960D01*
X7722444Y-19326960D02*
X7703396Y-19336484D01*
X7703396Y-19336484D02*
X7684348Y-19336484D01*
X7684348Y-19336484D02*
X7665301Y-19326960D01*
X7665301Y-19326960D02*
X7655777Y-19317436D01*
X7655777Y-19317436D02*
X7646253Y-19298389D01*
X7646253Y-19298389D02*
X7636729Y-19260293D01*
X7636729Y-19260293D02*
X7636729Y-19212674D01*
X7636729Y-19212674D02*
X7646253Y-19174579D01*
X7646253Y-19174579D02*
X7655777Y-19155531D01*
X7655777Y-19155531D02*
X7665301Y-19146008D01*
X7665301Y-19146008D02*
X7684348Y-19136484D01*
X7931967Y-19136484D02*
X7836729Y-19136484D01*
X7836729Y-19136484D02*
X7827206Y-19231722D01*
X7827206Y-19231722D02*
X7836729Y-19222198D01*
X7836729Y-19222198D02*
X7855777Y-19212674D01*
X7855777Y-19212674D02*
X7903396Y-19212674D01*
X7903396Y-19212674D02*
X7922444Y-19222198D01*
X7922444Y-19222198D02*
X7931967Y-19231722D01*
X7931967Y-19231722D02*
X7941491Y-19250770D01*
X7941491Y-19250770D02*
X7941491Y-19298389D01*
X7941491Y-19298389D02*
X7931967Y-19317436D01*
X7931967Y-19317436D02*
X7922444Y-19326960D01*
X7922444Y-19326960D02*
X7903396Y-19336484D01*
X7903396Y-19336484D02*
X7855777Y-19336484D01*
X7855777Y-19336484D02*
X7836729Y-19326960D01*
X7836729Y-19326960D02*
X7827206Y-19317436D01*
X8065301Y-19136484D02*
X8084348Y-19136484D01*
X8084348Y-19136484D02*
X8103396Y-19146008D01*
X8103396Y-19146008D02*
X8112920Y-19155531D01*
X8112920Y-19155531D02*
X8122444Y-19174579D01*
X8122444Y-19174579D02*
X8131967Y-19212674D01*
X8131967Y-19212674D02*
X8131967Y-19260293D01*
X8131967Y-19260293D02*
X8122444Y-19298389D01*
X8122444Y-19298389D02*
X8112920Y-19317436D01*
X8112920Y-19317436D02*
X8103396Y-19326960D01*
X8103396Y-19326960D02*
X8084348Y-19336484D01*
X8084348Y-19336484D02*
X8065301Y-19336484D01*
X8065301Y-19336484D02*
X8046253Y-19326960D01*
X8046253Y-19326960D02*
X8036729Y-19317436D01*
X8036729Y-19317436D02*
X8027206Y-19298389D01*
X8027206Y-19298389D02*
X8017682Y-19260293D01*
X8017682Y-19260293D02*
X8017682Y-19212674D01*
X8017682Y-19212674D02*
X8027206Y-19174579D01*
X8027206Y-19174579D02*
X8036729Y-19155531D01*
X8036729Y-19155531D02*
X8046253Y-19146008D01*
X8046253Y-19146008D02*
X8065301Y-19136484D01*
X8255777Y-19136484D02*
X8274825Y-19136484D01*
X8274825Y-19136484D02*
X8293872Y-19146008D01*
X8293872Y-19146008D02*
X8303396Y-19155531D01*
X8303396Y-19155531D02*
X8312920Y-19174579D01*
X8312920Y-19174579D02*
X8322444Y-19212674D01*
X8322444Y-19212674D02*
X8322444Y-19260293D01*
X8322444Y-19260293D02*
X8312920Y-19298389D01*
X8312920Y-19298389D02*
X8303396Y-19317436D01*
X8303396Y-19317436D02*
X8293872Y-19326960D01*
X8293872Y-19326960D02*
X8274825Y-19336484D01*
X8274825Y-19336484D02*
X8255777Y-19336484D01*
X8255777Y-19336484D02*
X8236729Y-19326960D01*
X8236729Y-19326960D02*
X8227206Y-19317436D01*
X8227206Y-19317436D02*
X8217682Y-19298389D01*
X8217682Y-19298389D02*
X8208158Y-19260293D01*
X8208158Y-19260293D02*
X8208158Y-19212674D01*
X8208158Y-19212674D02*
X8217682Y-19174579D01*
X8217682Y-19174579D02*
X8227206Y-19155531D01*
X8227206Y-19155531D02*
X8236729Y-19146008D01*
X8236729Y-19146008D02*
X8255777Y-19136484D01*
X8398634Y-19136484D02*
X8398634Y-19174579D01*
X8474825Y-19136484D02*
X8474825Y-19174579D01*
X8770063Y-19412674D02*
X8760539Y-19403150D01*
X8760539Y-19403150D02*
X8741491Y-19374579D01*
X8741491Y-19374579D02*
X8731968Y-19355531D01*
X8731968Y-19355531D02*
X8722444Y-19326960D01*
X8722444Y-19326960D02*
X8712920Y-19279341D01*
X8712920Y-19279341D02*
X8712920Y-19241246D01*
X8712920Y-19241246D02*
X8722444Y-19193627D01*
X8722444Y-19193627D02*
X8731968Y-19165055D01*
X8731968Y-19165055D02*
X8741491Y-19146008D01*
X8741491Y-19146008D02*
X8760539Y-19117436D01*
X8760539Y-19117436D02*
X8770063Y-19107912D01*
X8951015Y-19336484D02*
X8836730Y-19336484D01*
X8893872Y-19336484D02*
X8893872Y-19136484D01*
X8893872Y-19136484D02*
X8874825Y-19165055D01*
X8874825Y-19165055D02*
X8855777Y-19184103D01*
X8855777Y-19184103D02*
X8836730Y-19193627D01*
X9122444Y-19136484D02*
X9084349Y-19136484D01*
X9084349Y-19136484D02*
X9065301Y-19146008D01*
X9065301Y-19146008D02*
X9055777Y-19155531D01*
X9055777Y-19155531D02*
X9036730Y-19184103D01*
X9036730Y-19184103D02*
X9027206Y-19222198D01*
X9027206Y-19222198D02*
X9027206Y-19298389D01*
X9027206Y-19298389D02*
X9036730Y-19317436D01*
X9036730Y-19317436D02*
X9046253Y-19326960D01*
X9046253Y-19326960D02*
X9065301Y-19336484D01*
X9065301Y-19336484D02*
X9103396Y-19336484D01*
X9103396Y-19336484D02*
X9122444Y-19326960D01*
X9122444Y-19326960D02*
X9131968Y-19317436D01*
X9131968Y-19317436D02*
X9141491Y-19298389D01*
X9141491Y-19298389D02*
X9141491Y-19250770D01*
X9141491Y-19250770D02*
X9131968Y-19231722D01*
X9131968Y-19231722D02*
X9122444Y-19222198D01*
X9122444Y-19222198D02*
X9103396Y-19212674D01*
X9103396Y-19212674D02*
X9065301Y-19212674D01*
X9065301Y-19212674D02*
X9046253Y-19222198D01*
X9046253Y-19222198D02*
X9036730Y-19231722D01*
X9036730Y-19231722D02*
X9027206Y-19250770D01*
X9379587Y-19336484D02*
X9379587Y-19136484D01*
X9465301Y-19336484D02*
X9465301Y-19231722D01*
X9465301Y-19231722D02*
X9455777Y-19212674D01*
X9455777Y-19212674D02*
X9436730Y-19203150D01*
X9436730Y-19203150D02*
X9408158Y-19203150D01*
X9408158Y-19203150D02*
X9389111Y-19212674D01*
X9389111Y-19212674D02*
X9379587Y-19222198D01*
X9589111Y-19336484D02*
X9570063Y-19326960D01*
X9570063Y-19326960D02*
X9560539Y-19317436D01*
X9560539Y-19317436D02*
X9551015Y-19298389D01*
X9551015Y-19298389D02*
X9551015Y-19241246D01*
X9551015Y-19241246D02*
X9560539Y-19222198D01*
X9560539Y-19222198D02*
X9570063Y-19212674D01*
X9570063Y-19212674D02*
X9589111Y-19203150D01*
X9589111Y-19203150D02*
X9617682Y-19203150D01*
X9617682Y-19203150D02*
X9636730Y-19212674D01*
X9636730Y-19212674D02*
X9646253Y-19222198D01*
X9646253Y-19222198D02*
X9655777Y-19241246D01*
X9655777Y-19241246D02*
X9655777Y-19298389D01*
X9655777Y-19298389D02*
X9646253Y-19317436D01*
X9646253Y-19317436D02*
X9636730Y-19326960D01*
X9636730Y-19326960D02*
X9617682Y-19336484D01*
X9617682Y-19336484D02*
X9589111Y-19336484D01*
X9770063Y-19336484D02*
X9751015Y-19326960D01*
X9751015Y-19326960D02*
X9741492Y-19307912D01*
X9741492Y-19307912D02*
X9741492Y-19136484D01*
X9922444Y-19326960D02*
X9903396Y-19336484D01*
X9903396Y-19336484D02*
X9865301Y-19336484D01*
X9865301Y-19336484D02*
X9846253Y-19326960D01*
X9846253Y-19326960D02*
X9836730Y-19307912D01*
X9836730Y-19307912D02*
X9836730Y-19231722D01*
X9836730Y-19231722D02*
X9846253Y-19212674D01*
X9846253Y-19212674D02*
X9865301Y-19203150D01*
X9865301Y-19203150D02*
X9903396Y-19203150D01*
X9903396Y-19203150D02*
X9922444Y-19212674D01*
X9922444Y-19212674D02*
X9931968Y-19231722D01*
X9931968Y-19231722D02*
X9931968Y-19250770D01*
X9931968Y-19250770D02*
X9836730Y-19269817D01*
X10008158Y-19326960D02*
X10027206Y-19336484D01*
X10027206Y-19336484D02*
X10065301Y-19336484D01*
X10065301Y-19336484D02*
X10084349Y-19326960D01*
X10084349Y-19326960D02*
X10093873Y-19307912D01*
X10093873Y-19307912D02*
X10093873Y-19298389D01*
X10093873Y-19298389D02*
X10084349Y-19279341D01*
X10084349Y-19279341D02*
X10065301Y-19269817D01*
X10065301Y-19269817D02*
X10036730Y-19269817D01*
X10036730Y-19269817D02*
X10017682Y-19260293D01*
X10017682Y-19260293D02*
X10008158Y-19241246D01*
X10008158Y-19241246D02*
X10008158Y-19231722D01*
X10008158Y-19231722D02*
X10017682Y-19212674D01*
X10017682Y-19212674D02*
X10036730Y-19203150D01*
X10036730Y-19203150D02*
X10065301Y-19203150D01*
X10065301Y-19203150D02*
X10084349Y-19212674D01*
X10160539Y-19412674D02*
X10170063Y-19403150D01*
X10170063Y-19403150D02*
X10189111Y-19374579D01*
X10189111Y-19374579D02*
X10198634Y-19355531D01*
X10198634Y-19355531D02*
X10208158Y-19326960D01*
X10208158Y-19326960D02*
X10217682Y-19279341D01*
X10217682Y-19279341D02*
X10217682Y-19241246D01*
X10217682Y-19241246D02*
X10208158Y-19193627D01*
X10208158Y-19193627D02*
X10198634Y-19165055D01*
X10198634Y-19165055D02*
X10189111Y-19146008D01*
X10189111Y-19146008D02*
X10170063Y-19117436D01*
X10170063Y-19117436D02*
X10160539Y-19107912D01*
X10522444Y-19412674D02*
X10512920Y-19403150D01*
X10512920Y-19403150D02*
X10493873Y-19374579D01*
X10493873Y-19374579D02*
X10484349Y-19355531D01*
X10484349Y-19355531D02*
X10474825Y-19326960D01*
X10474825Y-19326960D02*
X10465301Y-19279341D01*
X10465301Y-19279341D02*
X10465301Y-19241246D01*
X10465301Y-19241246D02*
X10474825Y-19193627D01*
X10474825Y-19193627D02*
X10484349Y-19165055D01*
X10484349Y-19165055D02*
X10493873Y-19146008D01*
X10493873Y-19146008D02*
X10512920Y-19117436D01*
X10512920Y-19117436D02*
X10522444Y-19107912D01*
X10598634Y-19203150D02*
X10598634Y-19336484D01*
X10598634Y-19222198D02*
X10608158Y-19212674D01*
X10608158Y-19212674D02*
X10627206Y-19203150D01*
X10627206Y-19203150D02*
X10655777Y-19203150D01*
X10655777Y-19203150D02*
X10674825Y-19212674D01*
X10674825Y-19212674D02*
X10684349Y-19231722D01*
X10684349Y-19231722D02*
X10684349Y-19336484D01*
X10808158Y-19336484D02*
X10789111Y-19326960D01*
X10789111Y-19326960D02*
X10779587Y-19317436D01*
X10779587Y-19317436D02*
X10770063Y-19298389D01*
X10770063Y-19298389D02*
X10770063Y-19241246D01*
X10770063Y-19241246D02*
X10779587Y-19222198D01*
X10779587Y-19222198D02*
X10789111Y-19212674D01*
X10789111Y-19212674D02*
X10808158Y-19203150D01*
X10808158Y-19203150D02*
X10836730Y-19203150D01*
X10836730Y-19203150D02*
X10855777Y-19212674D01*
X10855777Y-19212674D02*
X10865301Y-19222198D01*
X10865301Y-19222198D02*
X10874825Y-19241246D01*
X10874825Y-19241246D02*
X10874825Y-19298389D01*
X10874825Y-19298389D02*
X10865301Y-19317436D01*
X10865301Y-19317436D02*
X10855777Y-19326960D01*
X10855777Y-19326960D02*
X10836730Y-19336484D01*
X10836730Y-19336484D02*
X10808158Y-19336484D01*
X10931968Y-19203150D02*
X11008158Y-19203150D01*
X10960539Y-19136484D02*
X10960539Y-19307912D01*
X10960539Y-19307912D02*
X10970063Y-19326960D01*
X10970063Y-19326960D02*
X10989111Y-19336484D01*
X10989111Y-19336484D02*
X11008158Y-19336484D01*
X11227206Y-19203150D02*
X11227206Y-19403150D01*
X11227206Y-19212674D02*
X11246253Y-19203150D01*
X11246253Y-19203150D02*
X11284349Y-19203150D01*
X11284349Y-19203150D02*
X11303396Y-19212674D01*
X11303396Y-19212674D02*
X11312920Y-19222198D01*
X11312920Y-19222198D02*
X11322444Y-19241246D01*
X11322444Y-19241246D02*
X11322444Y-19298389D01*
X11322444Y-19298389D02*
X11312920Y-19317436D01*
X11312920Y-19317436D02*
X11303396Y-19326960D01*
X11303396Y-19326960D02*
X11284349Y-19336484D01*
X11284349Y-19336484D02*
X11246253Y-19336484D01*
X11246253Y-19336484D02*
X11227206Y-19326960D01*
X11436730Y-19336484D02*
X11417682Y-19326960D01*
X11417682Y-19326960D02*
X11408158Y-19307912D01*
X11408158Y-19307912D02*
X11408158Y-19136484D01*
X11598634Y-19336484D02*
X11598634Y-19231722D01*
X11598634Y-19231722D02*
X11589111Y-19212674D01*
X11589111Y-19212674D02*
X11570063Y-19203150D01*
X11570063Y-19203150D02*
X11531968Y-19203150D01*
X11531968Y-19203150D02*
X11512920Y-19212674D01*
X11598634Y-19326960D02*
X11579587Y-19336484D01*
X11579587Y-19336484D02*
X11531968Y-19336484D01*
X11531968Y-19336484D02*
X11512920Y-19326960D01*
X11512920Y-19326960D02*
X11503396Y-19307912D01*
X11503396Y-19307912D02*
X11503396Y-19288865D01*
X11503396Y-19288865D02*
X11512920Y-19269817D01*
X11512920Y-19269817D02*
X11531968Y-19260293D01*
X11531968Y-19260293D02*
X11579587Y-19260293D01*
X11579587Y-19260293D02*
X11598634Y-19250770D01*
X11665301Y-19203150D02*
X11741492Y-19203150D01*
X11693873Y-19136484D02*
X11693873Y-19307912D01*
X11693873Y-19307912D02*
X11703396Y-19326960D01*
X11703396Y-19326960D02*
X11722444Y-19336484D01*
X11722444Y-19336484D02*
X11741492Y-19336484D01*
X11884349Y-19326960D02*
X11865301Y-19336484D01*
X11865301Y-19336484D02*
X11827206Y-19336484D01*
X11827206Y-19336484D02*
X11808158Y-19326960D01*
X11808158Y-19326960D02*
X11798634Y-19307912D01*
X11798634Y-19307912D02*
X11798634Y-19231722D01*
X11798634Y-19231722D02*
X11808158Y-19212674D01*
X11808158Y-19212674D02*
X11827206Y-19203150D01*
X11827206Y-19203150D02*
X11865301Y-19203150D01*
X11865301Y-19203150D02*
X11884349Y-19212674D01*
X11884349Y-19212674D02*
X11893873Y-19231722D01*
X11893873Y-19231722D02*
X11893873Y-19250770D01*
X11893873Y-19250770D02*
X11798634Y-19269817D01*
X12065301Y-19336484D02*
X12065301Y-19136484D01*
X12065301Y-19326960D02*
X12046254Y-19336484D01*
X12046254Y-19336484D02*
X12008158Y-19336484D01*
X12008158Y-19336484D02*
X11989111Y-19326960D01*
X11989111Y-19326960D02*
X11979587Y-19317436D01*
X11979587Y-19317436D02*
X11970063Y-19298389D01*
X11970063Y-19298389D02*
X11970063Y-19241246D01*
X11970063Y-19241246D02*
X11979587Y-19222198D01*
X11979587Y-19222198D02*
X11989111Y-19212674D01*
X11989111Y-19212674D02*
X12008158Y-19203150D01*
X12008158Y-19203150D02*
X12046254Y-19203150D01*
X12046254Y-19203150D02*
X12065301Y-19212674D01*
X12141492Y-19412674D02*
X12151015Y-19403150D01*
X12151015Y-19403150D02*
X12170063Y-19374579D01*
X12170063Y-19374579D02*
X12179587Y-19355531D01*
X12179587Y-19355531D02*
X12189111Y-19326960D01*
X12189111Y-19326960D02*
X12198634Y-19279341D01*
X12198634Y-19279341D02*
X12198634Y-19241246D01*
X12198634Y-19241246D02*
X12189111Y-19193627D01*
X12189111Y-19193627D02*
X12179587Y-19165055D01*
X12179587Y-19165055D02*
X12170063Y-19146008D01*
X12170063Y-19146008D02*
X12151015Y-19117436D01*
X12151015Y-19117436D02*
X12141492Y-19107912D01*
X5195000Y-19509000D02*
G75*
G03*
X5195000Y-19509000I-100000J0D01*
G01*
X5436729Y-19400484D02*
X5560539Y-19400484D01*
X5560539Y-19400484D02*
X5493872Y-19476674D01*
X5493872Y-19476674D02*
X5522444Y-19476674D01*
X5522444Y-19476674D02*
X5541491Y-19486198D01*
X5541491Y-19486198D02*
X5551015Y-19495722D01*
X5551015Y-19495722D02*
X5560539Y-19514770D01*
X5560539Y-19514770D02*
X5560539Y-19562389D01*
X5560539Y-19562389D02*
X5551015Y-19581436D01*
X5551015Y-19581436D02*
X5541491Y-19590960D01*
X5541491Y-19590960D02*
X5522444Y-19600484D01*
X5522444Y-19600484D02*
X5465301Y-19600484D01*
X5465301Y-19600484D02*
X5446253Y-19590960D01*
X5446253Y-19590960D02*
X5436729Y-19581436D01*
X5646253Y-19581436D02*
X5655777Y-19590960D01*
X5655777Y-19590960D02*
X5646253Y-19600484D01*
X5646253Y-19600484D02*
X5636729Y-19590960D01*
X5636729Y-19590960D02*
X5646253Y-19581436D01*
X5646253Y-19581436D02*
X5646253Y-19600484D01*
X5722443Y-19400484D02*
X5846253Y-19400484D01*
X5846253Y-19400484D02*
X5779586Y-19476674D01*
X5779586Y-19476674D02*
X5808158Y-19476674D01*
X5808158Y-19476674D02*
X5827205Y-19486198D01*
X5827205Y-19486198D02*
X5836729Y-19495722D01*
X5836729Y-19495722D02*
X5846253Y-19514770D01*
X5846253Y-19514770D02*
X5846253Y-19562389D01*
X5846253Y-19562389D02*
X5836729Y-19581436D01*
X5836729Y-19581436D02*
X5827205Y-19590960D01*
X5827205Y-19590960D02*
X5808158Y-19600484D01*
X5808158Y-19600484D02*
X5751015Y-19600484D01*
X5751015Y-19600484D02*
X5731967Y-19590960D01*
X5731967Y-19590960D02*
X5722443Y-19581436D01*
X5922443Y-19419531D02*
X5931967Y-19410008D01*
X5931967Y-19410008D02*
X5951015Y-19400484D01*
X5951015Y-19400484D02*
X5998634Y-19400484D01*
X5998634Y-19400484D02*
X6017682Y-19410008D01*
X6017682Y-19410008D02*
X6027205Y-19419531D01*
X6027205Y-19419531D02*
X6036729Y-19438579D01*
X6036729Y-19438579D02*
X6036729Y-19457627D01*
X6036729Y-19457627D02*
X6027205Y-19486198D01*
X6027205Y-19486198D02*
X5912920Y-19600484D01*
X5912920Y-19600484D02*
X6036729Y-19600484D01*
X6103396Y-19400484D02*
X6236729Y-19400484D01*
X6236729Y-19400484D02*
X6151015Y-19600484D01*
X6312920Y-19600484D02*
X6312920Y-19467150D01*
X6312920Y-19486198D02*
X6322443Y-19476674D01*
X6322443Y-19476674D02*
X6341491Y-19467150D01*
X6341491Y-19467150D02*
X6370063Y-19467150D01*
X6370063Y-19467150D02*
X6389110Y-19476674D01*
X6389110Y-19476674D02*
X6398634Y-19495722D01*
X6398634Y-19495722D02*
X6398634Y-19600484D01*
X6398634Y-19495722D02*
X6408158Y-19476674D01*
X6408158Y-19476674D02*
X6427205Y-19467150D01*
X6427205Y-19467150D02*
X6455777Y-19467150D01*
X6455777Y-19467150D02*
X6474824Y-19476674D01*
X6474824Y-19476674D02*
X6484348Y-19495722D01*
X6484348Y-19495722D02*
X6484348Y-19600484D01*
X6579586Y-19600484D02*
X6579586Y-19467150D01*
X6579586Y-19486198D02*
X6589110Y-19476674D01*
X6589110Y-19476674D02*
X6608158Y-19467150D01*
X6608158Y-19467150D02*
X6636729Y-19467150D01*
X6636729Y-19467150D02*
X6655777Y-19476674D01*
X6655777Y-19476674D02*
X6665301Y-19495722D01*
X6665301Y-19495722D02*
X6665301Y-19600484D01*
X6665301Y-19495722D02*
X6674824Y-19476674D01*
X6674824Y-19476674D02*
X6693872Y-19467150D01*
X6693872Y-19467150D02*
X6722443Y-19467150D01*
X6722443Y-19467150D02*
X6741491Y-19476674D01*
X6741491Y-19476674D02*
X6751015Y-19495722D01*
X6751015Y-19495722D02*
X6751015Y-19600484D01*
X7141491Y-19390960D02*
X6970063Y-19648103D01*
X7398634Y-19400484D02*
X7417682Y-19400484D01*
X7417682Y-19400484D02*
X7436729Y-19410008D01*
X7436729Y-19410008D02*
X7446253Y-19419531D01*
X7446253Y-19419531D02*
X7455777Y-19438579D01*
X7455777Y-19438579D02*
X7465301Y-19476674D01*
X7465301Y-19476674D02*
X7465301Y-19524293D01*
X7465301Y-19524293D02*
X7455777Y-19562389D01*
X7455777Y-19562389D02*
X7446253Y-19581436D01*
X7446253Y-19581436D02*
X7436729Y-19590960D01*
X7436729Y-19590960D02*
X7417682Y-19600484D01*
X7417682Y-19600484D02*
X7398634Y-19600484D01*
X7398634Y-19600484D02*
X7379586Y-19590960D01*
X7379586Y-19590960D02*
X7370063Y-19581436D01*
X7370063Y-19581436D02*
X7360539Y-19562389D01*
X7360539Y-19562389D02*
X7351015Y-19524293D01*
X7351015Y-19524293D02*
X7351015Y-19476674D01*
X7351015Y-19476674D02*
X7360539Y-19438579D01*
X7360539Y-19438579D02*
X7370063Y-19419531D01*
X7370063Y-19419531D02*
X7379586Y-19410008D01*
X7379586Y-19410008D02*
X7398634Y-19400484D01*
X7551015Y-19581436D02*
X7560539Y-19590960D01*
X7560539Y-19590960D02*
X7551015Y-19600484D01*
X7551015Y-19600484D02*
X7541491Y-19590960D01*
X7541491Y-19590960D02*
X7551015Y-19581436D01*
X7551015Y-19581436D02*
X7551015Y-19600484D01*
X7751015Y-19600484D02*
X7636729Y-19600484D01*
X7693872Y-19600484D02*
X7693872Y-19400484D01*
X7693872Y-19400484D02*
X7674825Y-19429055D01*
X7674825Y-19429055D02*
X7655777Y-19448103D01*
X7655777Y-19448103D02*
X7636729Y-19457627D01*
X7817682Y-19400484D02*
X7941491Y-19400484D01*
X7941491Y-19400484D02*
X7874825Y-19476674D01*
X7874825Y-19476674D02*
X7903396Y-19476674D01*
X7903396Y-19476674D02*
X7922444Y-19486198D01*
X7922444Y-19486198D02*
X7931967Y-19495722D01*
X7931967Y-19495722D02*
X7941491Y-19514770D01*
X7941491Y-19514770D02*
X7941491Y-19562389D01*
X7941491Y-19562389D02*
X7931967Y-19581436D01*
X7931967Y-19581436D02*
X7922444Y-19590960D01*
X7922444Y-19590960D02*
X7903396Y-19600484D01*
X7903396Y-19600484D02*
X7846253Y-19600484D01*
X7846253Y-19600484D02*
X7827206Y-19590960D01*
X7827206Y-19590960D02*
X7817682Y-19581436D01*
X8131967Y-19600484D02*
X8017682Y-19600484D01*
X8074825Y-19600484D02*
X8074825Y-19400484D01*
X8074825Y-19400484D02*
X8055777Y-19429055D01*
X8055777Y-19429055D02*
X8036729Y-19448103D01*
X8036729Y-19448103D02*
X8017682Y-19457627D01*
X8255777Y-19400484D02*
X8274825Y-19400484D01*
X8274825Y-19400484D02*
X8293872Y-19410008D01*
X8293872Y-19410008D02*
X8303396Y-19419531D01*
X8303396Y-19419531D02*
X8312920Y-19438579D01*
X8312920Y-19438579D02*
X8322444Y-19476674D01*
X8322444Y-19476674D02*
X8322444Y-19524293D01*
X8322444Y-19524293D02*
X8312920Y-19562389D01*
X8312920Y-19562389D02*
X8303396Y-19581436D01*
X8303396Y-19581436D02*
X8293872Y-19590960D01*
X8293872Y-19590960D02*
X8274825Y-19600484D01*
X8274825Y-19600484D02*
X8255777Y-19600484D01*
X8255777Y-19600484D02*
X8236729Y-19590960D01*
X8236729Y-19590960D02*
X8227206Y-19581436D01*
X8227206Y-19581436D02*
X8217682Y-19562389D01*
X8217682Y-19562389D02*
X8208158Y-19524293D01*
X8208158Y-19524293D02*
X8208158Y-19476674D01*
X8208158Y-19476674D02*
X8217682Y-19438579D01*
X8217682Y-19438579D02*
X8227206Y-19419531D01*
X8227206Y-19419531D02*
X8236729Y-19410008D01*
X8236729Y-19410008D02*
X8255777Y-19400484D01*
X8398634Y-19400484D02*
X8398634Y-19438579D01*
X8474825Y-19400484D02*
X8474825Y-19438579D01*
X8770063Y-19676674D02*
X8760539Y-19667150D01*
X8760539Y-19667150D02*
X8741491Y-19638579D01*
X8741491Y-19638579D02*
X8731968Y-19619531D01*
X8731968Y-19619531D02*
X8722444Y-19590960D01*
X8722444Y-19590960D02*
X8712920Y-19543341D01*
X8712920Y-19543341D02*
X8712920Y-19505246D01*
X8712920Y-19505246D02*
X8722444Y-19457627D01*
X8722444Y-19457627D02*
X8731968Y-19429055D01*
X8731968Y-19429055D02*
X8741491Y-19410008D01*
X8741491Y-19410008D02*
X8760539Y-19381436D01*
X8760539Y-19381436D02*
X8770063Y-19371912D01*
X8836730Y-19419531D02*
X8846253Y-19410008D01*
X8846253Y-19410008D02*
X8865301Y-19400484D01*
X8865301Y-19400484D02*
X8912920Y-19400484D01*
X8912920Y-19400484D02*
X8931968Y-19410008D01*
X8931968Y-19410008D02*
X8941491Y-19419531D01*
X8941491Y-19419531D02*
X8951015Y-19438579D01*
X8951015Y-19438579D02*
X8951015Y-19457627D01*
X8951015Y-19457627D02*
X8941491Y-19486198D01*
X8941491Y-19486198D02*
X8827206Y-19600484D01*
X8827206Y-19600484D02*
X8951015Y-19600484D01*
X9189111Y-19600484D02*
X9189111Y-19400484D01*
X9274825Y-19600484D02*
X9274825Y-19495722D01*
X9274825Y-19495722D02*
X9265301Y-19476674D01*
X9265301Y-19476674D02*
X9246253Y-19467150D01*
X9246253Y-19467150D02*
X9217682Y-19467150D01*
X9217682Y-19467150D02*
X9198634Y-19476674D01*
X9198634Y-19476674D02*
X9189111Y-19486198D01*
X9398634Y-19600484D02*
X9379587Y-19590960D01*
X9379587Y-19590960D02*
X9370063Y-19581436D01*
X9370063Y-19581436D02*
X9360539Y-19562389D01*
X9360539Y-19562389D02*
X9360539Y-19505246D01*
X9360539Y-19505246D02*
X9370063Y-19486198D01*
X9370063Y-19486198D02*
X9379587Y-19476674D01*
X9379587Y-19476674D02*
X9398634Y-19467150D01*
X9398634Y-19467150D02*
X9427206Y-19467150D01*
X9427206Y-19467150D02*
X9446253Y-19476674D01*
X9446253Y-19476674D02*
X9455777Y-19486198D01*
X9455777Y-19486198D02*
X9465301Y-19505246D01*
X9465301Y-19505246D02*
X9465301Y-19562389D01*
X9465301Y-19562389D02*
X9455777Y-19581436D01*
X9455777Y-19581436D02*
X9446253Y-19590960D01*
X9446253Y-19590960D02*
X9427206Y-19600484D01*
X9427206Y-19600484D02*
X9398634Y-19600484D01*
X9579587Y-19600484D02*
X9560539Y-19590960D01*
X9560539Y-19590960D02*
X9551015Y-19571912D01*
X9551015Y-19571912D02*
X9551015Y-19400484D01*
X9731968Y-19590960D02*
X9712920Y-19600484D01*
X9712920Y-19600484D02*
X9674825Y-19600484D01*
X9674825Y-19600484D02*
X9655777Y-19590960D01*
X9655777Y-19590960D02*
X9646253Y-19571912D01*
X9646253Y-19571912D02*
X9646253Y-19495722D01*
X9646253Y-19495722D02*
X9655777Y-19476674D01*
X9655777Y-19476674D02*
X9674825Y-19467150D01*
X9674825Y-19467150D02*
X9712920Y-19467150D01*
X9712920Y-19467150D02*
X9731968Y-19476674D01*
X9731968Y-19476674D02*
X9741492Y-19495722D01*
X9741492Y-19495722D02*
X9741492Y-19514770D01*
X9741492Y-19514770D02*
X9646253Y-19533817D01*
X9817682Y-19590960D02*
X9836730Y-19600484D01*
X9836730Y-19600484D02*
X9874825Y-19600484D01*
X9874825Y-19600484D02*
X9893873Y-19590960D01*
X9893873Y-19590960D02*
X9903396Y-19571912D01*
X9903396Y-19571912D02*
X9903396Y-19562389D01*
X9903396Y-19562389D02*
X9893873Y-19543341D01*
X9893873Y-19543341D02*
X9874825Y-19533817D01*
X9874825Y-19533817D02*
X9846253Y-19533817D01*
X9846253Y-19533817D02*
X9827206Y-19524293D01*
X9827206Y-19524293D02*
X9817682Y-19505246D01*
X9817682Y-19505246D02*
X9817682Y-19495722D01*
X9817682Y-19495722D02*
X9827206Y-19476674D01*
X9827206Y-19476674D02*
X9846253Y-19467150D01*
X9846253Y-19467150D02*
X9874825Y-19467150D01*
X9874825Y-19467150D02*
X9893873Y-19476674D01*
X9970063Y-19676674D02*
X9979587Y-19667150D01*
X9979587Y-19667150D02*
X9998634Y-19638579D01*
X9998634Y-19638579D02*
X10008158Y-19619531D01*
X10008158Y-19619531D02*
X10017682Y-19590960D01*
X10017682Y-19590960D02*
X10027206Y-19543341D01*
X10027206Y-19543341D02*
X10027206Y-19505246D01*
X10027206Y-19505246D02*
X10017682Y-19457627D01*
X10017682Y-19457627D02*
X10008158Y-19429055D01*
X10008158Y-19429055D02*
X9998634Y-19410008D01*
X9998634Y-19410008D02*
X9979587Y-19381436D01*
X9979587Y-19381436D02*
X9970063Y-19371912D01*
X10331968Y-19676674D02*
X10322444Y-19667150D01*
X10322444Y-19667150D02*
X10303396Y-19638579D01*
X10303396Y-19638579D02*
X10293873Y-19619531D01*
X10293873Y-19619531D02*
X10284349Y-19590960D01*
X10284349Y-19590960D02*
X10274825Y-19543341D01*
X10274825Y-19543341D02*
X10274825Y-19505246D01*
X10274825Y-19505246D02*
X10284349Y-19457627D01*
X10284349Y-19457627D02*
X10293873Y-19429055D01*
X10293873Y-19429055D02*
X10303396Y-19410008D01*
X10303396Y-19410008D02*
X10322444Y-19381436D01*
X10322444Y-19381436D02*
X10331968Y-19371912D01*
X10408158Y-19467150D02*
X10408158Y-19600484D01*
X10408158Y-19486198D02*
X10417682Y-19476674D01*
X10417682Y-19476674D02*
X10436730Y-19467150D01*
X10436730Y-19467150D02*
X10465301Y-19467150D01*
X10465301Y-19467150D02*
X10484349Y-19476674D01*
X10484349Y-19476674D02*
X10493873Y-19495722D01*
X10493873Y-19495722D02*
X10493873Y-19600484D01*
X10617682Y-19600484D02*
X10598634Y-19590960D01*
X10598634Y-19590960D02*
X10589111Y-19581436D01*
X10589111Y-19581436D02*
X10579587Y-19562389D01*
X10579587Y-19562389D02*
X10579587Y-19505246D01*
X10579587Y-19505246D02*
X10589111Y-19486198D01*
X10589111Y-19486198D02*
X10598634Y-19476674D01*
X10598634Y-19476674D02*
X10617682Y-19467150D01*
X10617682Y-19467150D02*
X10646254Y-19467150D01*
X10646254Y-19467150D02*
X10665301Y-19476674D01*
X10665301Y-19476674D02*
X10674825Y-19486198D01*
X10674825Y-19486198D02*
X10684349Y-19505246D01*
X10684349Y-19505246D02*
X10684349Y-19562389D01*
X10684349Y-19562389D02*
X10674825Y-19581436D01*
X10674825Y-19581436D02*
X10665301Y-19590960D01*
X10665301Y-19590960D02*
X10646254Y-19600484D01*
X10646254Y-19600484D02*
X10617682Y-19600484D01*
X10741492Y-19467150D02*
X10817682Y-19467150D01*
X10770063Y-19400484D02*
X10770063Y-19571912D01*
X10770063Y-19571912D02*
X10779587Y-19590960D01*
X10779587Y-19590960D02*
X10798634Y-19600484D01*
X10798634Y-19600484D02*
X10817682Y-19600484D01*
X11036730Y-19467150D02*
X11036730Y-19667150D01*
X11036730Y-19476674D02*
X11055777Y-19467150D01*
X11055777Y-19467150D02*
X11093873Y-19467150D01*
X11093873Y-19467150D02*
X11112920Y-19476674D01*
X11112920Y-19476674D02*
X11122444Y-19486198D01*
X11122444Y-19486198D02*
X11131968Y-19505246D01*
X11131968Y-19505246D02*
X11131968Y-19562389D01*
X11131968Y-19562389D02*
X11122444Y-19581436D01*
X11122444Y-19581436D02*
X11112920Y-19590960D01*
X11112920Y-19590960D02*
X11093873Y-19600484D01*
X11093873Y-19600484D02*
X11055777Y-19600484D01*
X11055777Y-19600484D02*
X11036730Y-19590960D01*
X11246253Y-19600484D02*
X11227206Y-19590960D01*
X11227206Y-19590960D02*
X11217682Y-19571912D01*
X11217682Y-19571912D02*
X11217682Y-19400484D01*
X11408158Y-19600484D02*
X11408158Y-19495722D01*
X11408158Y-19495722D02*
X11398634Y-19476674D01*
X11398634Y-19476674D02*
X11379587Y-19467150D01*
X11379587Y-19467150D02*
X11341492Y-19467150D01*
X11341492Y-19467150D02*
X11322444Y-19476674D01*
X11408158Y-19590960D02*
X11389111Y-19600484D01*
X11389111Y-19600484D02*
X11341492Y-19600484D01*
X11341492Y-19600484D02*
X11322444Y-19590960D01*
X11322444Y-19590960D02*
X11312920Y-19571912D01*
X11312920Y-19571912D02*
X11312920Y-19552865D01*
X11312920Y-19552865D02*
X11322444Y-19533817D01*
X11322444Y-19533817D02*
X11341492Y-19524293D01*
X11341492Y-19524293D02*
X11389111Y-19524293D01*
X11389111Y-19524293D02*
X11408158Y-19514770D01*
X11474825Y-19467150D02*
X11551015Y-19467150D01*
X11503396Y-19400484D02*
X11503396Y-19571912D01*
X11503396Y-19571912D02*
X11512920Y-19590960D01*
X11512920Y-19590960D02*
X11531968Y-19600484D01*
X11531968Y-19600484D02*
X11551015Y-19600484D01*
X11693873Y-19590960D02*
X11674825Y-19600484D01*
X11674825Y-19600484D02*
X11636730Y-19600484D01*
X11636730Y-19600484D02*
X11617682Y-19590960D01*
X11617682Y-19590960D02*
X11608158Y-19571912D01*
X11608158Y-19571912D02*
X11608158Y-19495722D01*
X11608158Y-19495722D02*
X11617682Y-19476674D01*
X11617682Y-19476674D02*
X11636730Y-19467150D01*
X11636730Y-19467150D02*
X11674825Y-19467150D01*
X11674825Y-19467150D02*
X11693873Y-19476674D01*
X11693873Y-19476674D02*
X11703396Y-19495722D01*
X11703396Y-19495722D02*
X11703396Y-19514770D01*
X11703396Y-19514770D02*
X11608158Y-19533817D01*
X11874825Y-19600484D02*
X11874825Y-19400484D01*
X11874825Y-19590960D02*
X11855777Y-19600484D01*
X11855777Y-19600484D02*
X11817682Y-19600484D01*
X11817682Y-19600484D02*
X11798634Y-19590960D01*
X11798634Y-19590960D02*
X11789111Y-19581436D01*
X11789111Y-19581436D02*
X11779587Y-19562389D01*
X11779587Y-19562389D02*
X11779587Y-19505246D01*
X11779587Y-19505246D02*
X11789111Y-19486198D01*
X11789111Y-19486198D02*
X11798634Y-19476674D01*
X11798634Y-19476674D02*
X11817682Y-19467150D01*
X11817682Y-19467150D02*
X11855777Y-19467150D01*
X11855777Y-19467150D02*
X11874825Y-19476674D01*
X11951015Y-19676674D02*
X11960539Y-19667150D01*
X11960539Y-19667150D02*
X11979587Y-19638579D01*
X11979587Y-19638579D02*
X11989111Y-19619531D01*
X11989111Y-19619531D02*
X11998634Y-19590960D01*
X11998634Y-19590960D02*
X12008158Y-19543341D01*
X12008158Y-19543341D02*
X12008158Y-19505246D01*
X12008158Y-19505246D02*
X11998634Y-19457627D01*
X11998634Y-19457627D02*
X11989111Y-19429055D01*
X11989111Y-19429055D02*
X11979587Y-19410008D01*
X11979587Y-19410008D02*
X11960539Y-19381436D01*
X11960539Y-19381436D02*
X11951015Y-19371912D01*
M02*
