G04 #@! TF.GenerationSoftware,KiCad,Pcbnew,7.0.7*
G04 #@! TF.CreationDate,2024-01-25T11:55:39-05:00*
G04 #@! TF.ProjectId,AOML_AB_3.0_reorganized-v1,414f4d4c-5f41-4425-9f33-2e305f72656f,1*
G04 #@! TF.SameCoordinates,Original*
G04 #@! TF.FileFunction,Legend,Bot*
G04 #@! TF.FilePolarity,Positive*
%FSLAX46Y46*%
G04 Gerber Fmt 4.6, Leading zero omitted, Abs format (unit mm)*
G04 Created by KiCad (PCBNEW 7.0.7) date 2024-01-25 11:55:39*
%MOMM*%
%LPD*%
G01*
G04 APERTURE LIST*
G04 Aperture macros list*
%AMRoundRect*
0 Rectangle with rounded corners*
0 $1 Rounding radius*
0 $2 $3 $4 $5 $6 $7 $8 $9 X,Y pos of 4 corners*
0 Add a 4 corners polygon primitive as box body*
4,1,4,$2,$3,$4,$5,$6,$7,$8,$9,$2,$3,0*
0 Add four circle primitives for the rounded corners*
1,1,$1+$1,$2,$3*
1,1,$1+$1,$4,$5*
1,1,$1+$1,$6,$7*
1,1,$1+$1,$8,$9*
0 Add four rect primitives between the rounded corners*
20,1,$1+$1,$2,$3,$4,$5,0*
20,1,$1+$1,$4,$5,$6,$7,0*
20,1,$1+$1,$6,$7,$8,$9,0*
20,1,$1+$1,$8,$9,$2,$3,0*%
G04 Aperture macros list end*
%ADD10C,0.200000*%
%ADD11C,0.150000*%
%ADD12C,0.508000*%
%ADD13C,0.152400*%
%ADD14C,1.270000*%
%ADD15R,1.520000X1.520000*%
%ADD16C,1.520000*%
%ADD17C,1.524000*%
%ADD18RoundRect,0.102000X-0.975000X0.975000X-0.975000X-0.975000X0.975000X-0.975000X0.975000X0.975000X0*%
%ADD19C,2.154000*%
%ADD20C,5.000000*%
%ADD21R,1.524000X1.524000*%
%ADD22C,3.327400*%
%ADD23R,1.651000X1.651000*%
%ADD24C,1.651000*%
%ADD25C,1.600000*%
%ADD26O,1.600000X1.600000*%
%ADD27RoundRect,0.102000X-0.975000X-0.975000X0.975000X-0.975000X0.975000X0.975000X-0.975000X0.975000X0*%
%ADD28C,1.784000*%
%ADD29RoundRect,0.102000X0.790000X0.790000X-0.790000X0.790000X-0.790000X-0.790000X0.790000X-0.790000X0*%
%ADD30R,1.700000X1.700000*%
%ADD31O,1.700000X1.700000*%
%ADD32R,1.397000X1.397000*%
%ADD33C,1.397000*%
%ADD34R,1.320800X1.320800*%
%ADD35C,1.320800*%
%ADD36C,3.860800*%
G04 APERTURE END LIST*
D10*
X346427945Y-168443600D02*
X346285088Y-168500742D01*
X346285088Y-168500742D02*
X346046993Y-168500742D01*
X346046993Y-168500742D02*
X345951755Y-168443600D01*
X345951755Y-168443600D02*
X345904136Y-168386457D01*
X345904136Y-168386457D02*
X345856517Y-168272171D01*
X345856517Y-168272171D02*
X345856517Y-168157885D01*
X345856517Y-168157885D02*
X345904136Y-168043600D01*
X345904136Y-168043600D02*
X345951755Y-167986457D01*
X345951755Y-167986457D02*
X346046993Y-167929314D01*
X346046993Y-167929314D02*
X346237469Y-167872171D01*
X346237469Y-167872171D02*
X346332707Y-167815028D01*
X346332707Y-167815028D02*
X346380326Y-167757885D01*
X346380326Y-167757885D02*
X346427945Y-167643600D01*
X346427945Y-167643600D02*
X346427945Y-167529314D01*
X346427945Y-167529314D02*
X346380326Y-167415028D01*
X346380326Y-167415028D02*
X346332707Y-167357885D01*
X346332707Y-167357885D02*
X346237469Y-167300742D01*
X346237469Y-167300742D02*
X345999374Y-167300742D01*
X345999374Y-167300742D02*
X345856517Y-167357885D01*
X345570802Y-167700742D02*
X345189850Y-167700742D01*
X345427945Y-167300742D02*
X345427945Y-168329314D01*
X345427945Y-168329314D02*
X345380326Y-168443600D01*
X345380326Y-168443600D02*
X345285088Y-168500742D01*
X345285088Y-168500742D02*
X345189850Y-168500742D01*
X344475564Y-168443600D02*
X344570802Y-168500742D01*
X344570802Y-168500742D02*
X344761278Y-168500742D01*
X344761278Y-168500742D02*
X344856516Y-168443600D01*
X344856516Y-168443600D02*
X344904135Y-168329314D01*
X344904135Y-168329314D02*
X344904135Y-167872171D01*
X344904135Y-167872171D02*
X344856516Y-167757885D01*
X344856516Y-167757885D02*
X344761278Y-167700742D01*
X344761278Y-167700742D02*
X344570802Y-167700742D01*
X344570802Y-167700742D02*
X344475564Y-167757885D01*
X344475564Y-167757885D02*
X344427945Y-167872171D01*
X344427945Y-167872171D02*
X344427945Y-167986457D01*
X344427945Y-167986457D02*
X344904135Y-168100742D01*
X343999373Y-167700742D02*
X343999373Y-168900742D01*
X343999373Y-167757885D02*
X343904135Y-167700742D01*
X343904135Y-167700742D02*
X343713659Y-167700742D01*
X343713659Y-167700742D02*
X343618421Y-167757885D01*
X343618421Y-167757885D02*
X343570802Y-167815028D01*
X343570802Y-167815028D02*
X343523183Y-167929314D01*
X343523183Y-167929314D02*
X343523183Y-168272171D01*
X343523183Y-168272171D02*
X343570802Y-168386457D01*
X343570802Y-168386457D02*
X343618421Y-168443600D01*
X343618421Y-168443600D02*
X343713659Y-168500742D01*
X343713659Y-168500742D02*
X343904135Y-168500742D01*
X343904135Y-168500742D02*
X343999373Y-168443600D01*
X343094611Y-167700742D02*
X343094611Y-168900742D01*
X343094611Y-167757885D02*
X342999373Y-167700742D01*
X342999373Y-167700742D02*
X342808897Y-167700742D01*
X342808897Y-167700742D02*
X342713659Y-167757885D01*
X342713659Y-167757885D02*
X342666040Y-167815028D01*
X342666040Y-167815028D02*
X342618421Y-167929314D01*
X342618421Y-167929314D02*
X342618421Y-168272171D01*
X342618421Y-168272171D02*
X342666040Y-168386457D01*
X342666040Y-168386457D02*
X342713659Y-168443600D01*
X342713659Y-168443600D02*
X342808897Y-168500742D01*
X342808897Y-168500742D02*
X342999373Y-168500742D01*
X342999373Y-168500742D02*
X343094611Y-168443600D01*
X341808897Y-168443600D02*
X341904135Y-168500742D01*
X341904135Y-168500742D02*
X342094611Y-168500742D01*
X342094611Y-168500742D02*
X342189849Y-168443600D01*
X342189849Y-168443600D02*
X342237468Y-168329314D01*
X342237468Y-168329314D02*
X342237468Y-167872171D01*
X342237468Y-167872171D02*
X342189849Y-167757885D01*
X342189849Y-167757885D02*
X342094611Y-167700742D01*
X342094611Y-167700742D02*
X341904135Y-167700742D01*
X341904135Y-167700742D02*
X341808897Y-167757885D01*
X341808897Y-167757885D02*
X341761278Y-167872171D01*
X341761278Y-167872171D02*
X341761278Y-167986457D01*
X341761278Y-167986457D02*
X342237468Y-168100742D01*
X341332706Y-168500742D02*
X341332706Y-167700742D01*
X341332706Y-167929314D02*
X341285087Y-167815028D01*
X341285087Y-167815028D02*
X341237468Y-167757885D01*
X341237468Y-167757885D02*
X341142230Y-167700742D01*
X341142230Y-167700742D02*
X341046992Y-167700742D01*
X339523182Y-168443600D02*
X339618420Y-168500742D01*
X339618420Y-168500742D02*
X339808896Y-168500742D01*
X339808896Y-168500742D02*
X339904134Y-168443600D01*
X339904134Y-168443600D02*
X339951753Y-168386457D01*
X339951753Y-168386457D02*
X339999372Y-168272171D01*
X339999372Y-168272171D02*
X339999372Y-167929314D01*
X339999372Y-167929314D02*
X339951753Y-167815028D01*
X339951753Y-167815028D02*
X339904134Y-167757885D01*
X339904134Y-167757885D02*
X339808896Y-167700742D01*
X339808896Y-167700742D02*
X339618420Y-167700742D01*
X339618420Y-167700742D02*
X339523182Y-167757885D01*
X338951753Y-168500742D02*
X339046991Y-168443600D01*
X339046991Y-168443600D02*
X339094610Y-168386457D01*
X339094610Y-168386457D02*
X339142229Y-168272171D01*
X339142229Y-168272171D02*
X339142229Y-167929314D01*
X339142229Y-167929314D02*
X339094610Y-167815028D01*
X339094610Y-167815028D02*
X339046991Y-167757885D01*
X339046991Y-167757885D02*
X338951753Y-167700742D01*
X338951753Y-167700742D02*
X338808896Y-167700742D01*
X338808896Y-167700742D02*
X338713658Y-167757885D01*
X338713658Y-167757885D02*
X338666039Y-167815028D01*
X338666039Y-167815028D02*
X338618420Y-167929314D01*
X338618420Y-167929314D02*
X338618420Y-168272171D01*
X338618420Y-168272171D02*
X338666039Y-168386457D01*
X338666039Y-168386457D02*
X338713658Y-168443600D01*
X338713658Y-168443600D02*
X338808896Y-168500742D01*
X338808896Y-168500742D02*
X338951753Y-168500742D01*
X338189848Y-167700742D02*
X338189848Y-168500742D01*
X338189848Y-167815028D02*
X338142229Y-167757885D01*
X338142229Y-167757885D02*
X338046991Y-167700742D01*
X338046991Y-167700742D02*
X337904134Y-167700742D01*
X337904134Y-167700742D02*
X337808896Y-167757885D01*
X337808896Y-167757885D02*
X337761277Y-167872171D01*
X337761277Y-167872171D02*
X337761277Y-168500742D01*
X337285086Y-167700742D02*
X337285086Y-168500742D01*
X337285086Y-167815028D02*
X337237467Y-167757885D01*
X337237467Y-167757885D02*
X337142229Y-167700742D01*
X337142229Y-167700742D02*
X336999372Y-167700742D01*
X336999372Y-167700742D02*
X336904134Y-167757885D01*
X336904134Y-167757885D02*
X336856515Y-167872171D01*
X336856515Y-167872171D02*
X336856515Y-168500742D01*
X335999372Y-168443600D02*
X336094610Y-168500742D01*
X336094610Y-168500742D02*
X336285086Y-168500742D01*
X336285086Y-168500742D02*
X336380324Y-168443600D01*
X336380324Y-168443600D02*
X336427943Y-168329314D01*
X336427943Y-168329314D02*
X336427943Y-167872171D01*
X336427943Y-167872171D02*
X336380324Y-167757885D01*
X336380324Y-167757885D02*
X336285086Y-167700742D01*
X336285086Y-167700742D02*
X336094610Y-167700742D01*
X336094610Y-167700742D02*
X335999372Y-167757885D01*
X335999372Y-167757885D02*
X335951753Y-167872171D01*
X335951753Y-167872171D02*
X335951753Y-167986457D01*
X335951753Y-167986457D02*
X336427943Y-168100742D01*
X335094610Y-168443600D02*
X335189848Y-168500742D01*
X335189848Y-168500742D02*
X335380324Y-168500742D01*
X335380324Y-168500742D02*
X335475562Y-168443600D01*
X335475562Y-168443600D02*
X335523181Y-168386457D01*
X335523181Y-168386457D02*
X335570800Y-168272171D01*
X335570800Y-168272171D02*
X335570800Y-167929314D01*
X335570800Y-167929314D02*
X335523181Y-167815028D01*
X335523181Y-167815028D02*
X335475562Y-167757885D01*
X335475562Y-167757885D02*
X335380324Y-167700742D01*
X335380324Y-167700742D02*
X335189848Y-167700742D01*
X335189848Y-167700742D02*
X335094610Y-167757885D01*
X334808895Y-167700742D02*
X334427943Y-167700742D01*
X334666038Y-167300742D02*
X334666038Y-168329314D01*
X334666038Y-168329314D02*
X334618419Y-168443600D01*
X334618419Y-168443600D02*
X334523181Y-168500742D01*
X334523181Y-168500742D02*
X334427943Y-168500742D01*
X334094609Y-168500742D02*
X334094609Y-167700742D01*
X334094609Y-167300742D02*
X334142228Y-167357885D01*
X334142228Y-167357885D02*
X334094609Y-167415028D01*
X334094609Y-167415028D02*
X334046990Y-167357885D01*
X334046990Y-167357885D02*
X334094609Y-167300742D01*
X334094609Y-167300742D02*
X334094609Y-167415028D01*
X333475562Y-168500742D02*
X333570800Y-168443600D01*
X333570800Y-168443600D02*
X333618419Y-168386457D01*
X333618419Y-168386457D02*
X333666038Y-168272171D01*
X333666038Y-168272171D02*
X333666038Y-167929314D01*
X333666038Y-167929314D02*
X333618419Y-167815028D01*
X333618419Y-167815028D02*
X333570800Y-167757885D01*
X333570800Y-167757885D02*
X333475562Y-167700742D01*
X333475562Y-167700742D02*
X333332705Y-167700742D01*
X333332705Y-167700742D02*
X333237467Y-167757885D01*
X333237467Y-167757885D02*
X333189848Y-167815028D01*
X333189848Y-167815028D02*
X333142229Y-167929314D01*
X333142229Y-167929314D02*
X333142229Y-168272171D01*
X333142229Y-168272171D02*
X333189848Y-168386457D01*
X333189848Y-168386457D02*
X333237467Y-168443600D01*
X333237467Y-168443600D02*
X333332705Y-168500742D01*
X333332705Y-168500742D02*
X333475562Y-168500742D01*
X332713657Y-167700742D02*
X332713657Y-168500742D01*
X332713657Y-167815028D02*
X332666038Y-167757885D01*
X332666038Y-167757885D02*
X332570800Y-167700742D01*
X332570800Y-167700742D02*
X332427943Y-167700742D01*
X332427943Y-167700742D02*
X332332705Y-167757885D01*
X332332705Y-167757885D02*
X332285086Y-167872171D01*
X332285086Y-167872171D02*
X332285086Y-168500742D01*
X345856517Y-170432742D02*
X346427945Y-170432742D01*
X346142231Y-170432742D02*
X346142231Y-169232742D01*
X346142231Y-169232742D02*
X346237469Y-169404171D01*
X346237469Y-169404171D02*
X346332707Y-169518457D01*
X346332707Y-169518457D02*
X346427945Y-169575600D01*
X345427945Y-169975600D02*
X344666041Y-169975600D01*
X342856517Y-170432742D02*
X343189850Y-169861314D01*
X343427945Y-170432742D02*
X343427945Y-169232742D01*
X343427945Y-169232742D02*
X343046993Y-169232742D01*
X343046993Y-169232742D02*
X342951755Y-169289885D01*
X342951755Y-169289885D02*
X342904136Y-169347028D01*
X342904136Y-169347028D02*
X342856517Y-169461314D01*
X342856517Y-169461314D02*
X342856517Y-169632742D01*
X342856517Y-169632742D02*
X342904136Y-169747028D01*
X342904136Y-169747028D02*
X342951755Y-169804171D01*
X342951755Y-169804171D02*
X343046993Y-169861314D01*
X343046993Y-169861314D02*
X343427945Y-169861314D01*
X342427945Y-169804171D02*
X342094612Y-169804171D01*
X341951755Y-170432742D02*
X342427945Y-170432742D01*
X342427945Y-170432742D02*
X342427945Y-169232742D01*
X342427945Y-169232742D02*
X341951755Y-169232742D01*
X341523183Y-170432742D02*
X341523183Y-169232742D01*
X341523183Y-169232742D02*
X341285088Y-169232742D01*
X341285088Y-169232742D02*
X341142231Y-169289885D01*
X341142231Y-169289885D02*
X341046993Y-169404171D01*
X341046993Y-169404171D02*
X340999374Y-169518457D01*
X340999374Y-169518457D02*
X340951755Y-169747028D01*
X340951755Y-169747028D02*
X340951755Y-169918457D01*
X340951755Y-169918457D02*
X340999374Y-170147028D01*
X340999374Y-170147028D02*
X341046993Y-170261314D01*
X341046993Y-170261314D02*
X341142231Y-170375600D01*
X341142231Y-170375600D02*
X341285088Y-170432742D01*
X341285088Y-170432742D02*
X341523183Y-170432742D01*
X339618421Y-169232742D02*
X339618421Y-169518457D01*
X339856516Y-169404171D02*
X339618421Y-169518457D01*
X339618421Y-169518457D02*
X339380326Y-169404171D01*
X339761278Y-169747028D02*
X339618421Y-169518457D01*
X339618421Y-169518457D02*
X339475564Y-169747028D01*
X337951754Y-170889885D02*
X337999373Y-170832742D01*
X337999373Y-170832742D02*
X338094611Y-170661314D01*
X338094611Y-170661314D02*
X338142230Y-170547028D01*
X338142230Y-170547028D02*
X338189849Y-170375600D01*
X338189849Y-170375600D02*
X338237468Y-170089885D01*
X338237468Y-170089885D02*
X338237468Y-169861314D01*
X338237468Y-169861314D02*
X338189849Y-169575600D01*
X338189849Y-169575600D02*
X338142230Y-169404171D01*
X338142230Y-169404171D02*
X338094611Y-169289885D01*
X338094611Y-169289885D02*
X337999373Y-169118457D01*
X337999373Y-169118457D02*
X337951754Y-169061314D01*
X337618420Y-170089885D02*
X337142230Y-170089885D01*
X337713658Y-170432742D02*
X337380325Y-169232742D01*
X337380325Y-169232742D02*
X337046992Y-170432742D01*
X336808896Y-170889885D02*
X336761277Y-170832742D01*
X336761277Y-170832742D02*
X336666039Y-170661314D01*
X336666039Y-170661314D02*
X336618420Y-170547028D01*
X336618420Y-170547028D02*
X336570801Y-170375600D01*
X336570801Y-170375600D02*
X336523182Y-170089885D01*
X336523182Y-170089885D02*
X336523182Y-169861314D01*
X336523182Y-169861314D02*
X336570801Y-169575600D01*
X336570801Y-169575600D02*
X336618420Y-169404171D01*
X336618420Y-169404171D02*
X336666039Y-169289885D01*
X336666039Y-169289885D02*
X336761277Y-169118457D01*
X336761277Y-169118457D02*
X336808896Y-169061314D01*
X346427945Y-171279028D02*
X346380326Y-171221885D01*
X346380326Y-171221885D02*
X346285088Y-171164742D01*
X346285088Y-171164742D02*
X346046993Y-171164742D01*
X346046993Y-171164742D02*
X345951755Y-171221885D01*
X345951755Y-171221885D02*
X345904136Y-171279028D01*
X345904136Y-171279028D02*
X345856517Y-171393314D01*
X345856517Y-171393314D02*
X345856517Y-171507600D01*
X345856517Y-171507600D02*
X345904136Y-171679028D01*
X345904136Y-171679028D02*
X346475564Y-172364742D01*
X346475564Y-172364742D02*
X345856517Y-172364742D01*
X345427945Y-171907600D02*
X344666041Y-171907600D01*
X343523183Y-171164742D02*
X343285088Y-172364742D01*
X343285088Y-172364742D02*
X343094612Y-171507600D01*
X343094612Y-171507600D02*
X342904136Y-172364742D01*
X342904136Y-172364742D02*
X342666041Y-171164742D01*
X342285088Y-172364742D02*
X342285088Y-171164742D01*
X341856517Y-172364742D02*
X341856517Y-171736171D01*
X341856517Y-171736171D02*
X341904136Y-171621885D01*
X341904136Y-171621885D02*
X341999374Y-171564742D01*
X341999374Y-171564742D02*
X342142231Y-171564742D01*
X342142231Y-171564742D02*
X342237469Y-171621885D01*
X342237469Y-171621885D02*
X342285088Y-171679028D01*
X341380326Y-172364742D02*
X341380326Y-171564742D01*
X341380326Y-171164742D02*
X341427945Y-171221885D01*
X341427945Y-171221885D02*
X341380326Y-171279028D01*
X341380326Y-171279028D02*
X341332707Y-171221885D01*
X341332707Y-171221885D02*
X341380326Y-171164742D01*
X341380326Y-171164742D02*
X341380326Y-171279028D01*
X341046993Y-171564742D02*
X340666041Y-171564742D01*
X340904136Y-171164742D02*
X340904136Y-172193314D01*
X340904136Y-172193314D02*
X340856517Y-172307600D01*
X340856517Y-172307600D02*
X340761279Y-172364742D01*
X340761279Y-172364742D02*
X340666041Y-172364742D01*
X339951755Y-172307600D02*
X340046993Y-172364742D01*
X340046993Y-172364742D02*
X340237469Y-172364742D01*
X340237469Y-172364742D02*
X340332707Y-172307600D01*
X340332707Y-172307600D02*
X340380326Y-172193314D01*
X340380326Y-172193314D02*
X340380326Y-171736171D01*
X340380326Y-171736171D02*
X340332707Y-171621885D01*
X340332707Y-171621885D02*
X340237469Y-171564742D01*
X340237469Y-171564742D02*
X340046993Y-171564742D01*
X340046993Y-171564742D02*
X339951755Y-171621885D01*
X339951755Y-171621885D02*
X339904136Y-171736171D01*
X339904136Y-171736171D02*
X339904136Y-171850457D01*
X339904136Y-171850457D02*
X340380326Y-171964742D01*
X346475564Y-173096742D02*
X345856517Y-173096742D01*
X345856517Y-173096742D02*
X346189850Y-173553885D01*
X346189850Y-173553885D02*
X346046993Y-173553885D01*
X346046993Y-173553885D02*
X345951755Y-173611028D01*
X345951755Y-173611028D02*
X345904136Y-173668171D01*
X345904136Y-173668171D02*
X345856517Y-173782457D01*
X345856517Y-173782457D02*
X345856517Y-174068171D01*
X345856517Y-174068171D02*
X345904136Y-174182457D01*
X345904136Y-174182457D02*
X345951755Y-174239600D01*
X345951755Y-174239600D02*
X346046993Y-174296742D01*
X346046993Y-174296742D02*
X346332707Y-174296742D01*
X346332707Y-174296742D02*
X346427945Y-174239600D01*
X346427945Y-174239600D02*
X346475564Y-174182457D01*
X345427945Y-173839600D02*
X344666041Y-173839600D01*
X343094612Y-173668171D02*
X342951755Y-173725314D01*
X342951755Y-173725314D02*
X342904136Y-173782457D01*
X342904136Y-173782457D02*
X342856517Y-173896742D01*
X342856517Y-173896742D02*
X342856517Y-174068171D01*
X342856517Y-174068171D02*
X342904136Y-174182457D01*
X342904136Y-174182457D02*
X342951755Y-174239600D01*
X342951755Y-174239600D02*
X343046993Y-174296742D01*
X343046993Y-174296742D02*
X343427945Y-174296742D01*
X343427945Y-174296742D02*
X343427945Y-173096742D01*
X343427945Y-173096742D02*
X343094612Y-173096742D01*
X343094612Y-173096742D02*
X342999374Y-173153885D01*
X342999374Y-173153885D02*
X342951755Y-173211028D01*
X342951755Y-173211028D02*
X342904136Y-173325314D01*
X342904136Y-173325314D02*
X342904136Y-173439600D01*
X342904136Y-173439600D02*
X342951755Y-173553885D01*
X342951755Y-173553885D02*
X342999374Y-173611028D01*
X342999374Y-173611028D02*
X343094612Y-173668171D01*
X343094612Y-173668171D02*
X343427945Y-173668171D01*
X342285088Y-174296742D02*
X342380326Y-174239600D01*
X342380326Y-174239600D02*
X342427945Y-174125314D01*
X342427945Y-174125314D02*
X342427945Y-173096742D01*
X341475564Y-174296742D02*
X341475564Y-173668171D01*
X341475564Y-173668171D02*
X341523183Y-173553885D01*
X341523183Y-173553885D02*
X341618421Y-173496742D01*
X341618421Y-173496742D02*
X341808897Y-173496742D01*
X341808897Y-173496742D02*
X341904135Y-173553885D01*
X341475564Y-174239600D02*
X341570802Y-174296742D01*
X341570802Y-174296742D02*
X341808897Y-174296742D01*
X341808897Y-174296742D02*
X341904135Y-174239600D01*
X341904135Y-174239600D02*
X341951754Y-174125314D01*
X341951754Y-174125314D02*
X341951754Y-174011028D01*
X341951754Y-174011028D02*
X341904135Y-173896742D01*
X341904135Y-173896742D02*
X341808897Y-173839600D01*
X341808897Y-173839600D02*
X341570802Y-173839600D01*
X341570802Y-173839600D02*
X341475564Y-173782457D01*
X340570802Y-174239600D02*
X340666040Y-174296742D01*
X340666040Y-174296742D02*
X340856516Y-174296742D01*
X340856516Y-174296742D02*
X340951754Y-174239600D01*
X340951754Y-174239600D02*
X340999373Y-174182457D01*
X340999373Y-174182457D02*
X341046992Y-174068171D01*
X341046992Y-174068171D02*
X341046992Y-173725314D01*
X341046992Y-173725314D02*
X340999373Y-173611028D01*
X340999373Y-173611028D02*
X340951754Y-173553885D01*
X340951754Y-173553885D02*
X340856516Y-173496742D01*
X340856516Y-173496742D02*
X340666040Y-173496742D01*
X340666040Y-173496742D02*
X340570802Y-173553885D01*
X340142230Y-174296742D02*
X340142230Y-173096742D01*
X340046992Y-173839600D02*
X339761278Y-174296742D01*
X339761278Y-173496742D02*
X340142230Y-173953885D01*
X338285087Y-174753885D02*
X338332706Y-174696742D01*
X338332706Y-174696742D02*
X338427944Y-174525314D01*
X338427944Y-174525314D02*
X338475563Y-174411028D01*
X338475563Y-174411028D02*
X338523182Y-174239600D01*
X338523182Y-174239600D02*
X338570801Y-173953885D01*
X338570801Y-173953885D02*
X338570801Y-173725314D01*
X338570801Y-173725314D02*
X338523182Y-173439600D01*
X338523182Y-173439600D02*
X338475563Y-173268171D01*
X338475563Y-173268171D02*
X338427944Y-173153885D01*
X338427944Y-173153885D02*
X338332706Y-172982457D01*
X338332706Y-172982457D02*
X338285087Y-172925314D01*
X337951753Y-173953885D02*
X337475563Y-173953885D01*
X338046991Y-174296742D02*
X337713658Y-173096742D01*
X337713658Y-173096742D02*
X337380325Y-174296742D01*
X337142229Y-174753885D02*
X337094610Y-174696742D01*
X337094610Y-174696742D02*
X336999372Y-174525314D01*
X336999372Y-174525314D02*
X336951753Y-174411028D01*
X336951753Y-174411028D02*
X336904134Y-174239600D01*
X336904134Y-174239600D02*
X336856515Y-173953885D01*
X336856515Y-173953885D02*
X336856515Y-173725314D01*
X336856515Y-173725314D02*
X336904134Y-173439600D01*
X336904134Y-173439600D02*
X336951753Y-173268171D01*
X336951753Y-173268171D02*
X336999372Y-173153885D01*
X336999372Y-173153885D02*
X337094610Y-172982457D01*
X337094610Y-172982457D02*
X337142229Y-172925314D01*
X345951755Y-175428742D02*
X345951755Y-176228742D01*
X346189850Y-174971600D02*
X346427945Y-175828742D01*
X346427945Y-175828742D02*
X345808898Y-175828742D01*
X345427945Y-175771600D02*
X344666041Y-175771600D01*
X343523183Y-175028742D02*
X343285088Y-176228742D01*
X343285088Y-176228742D02*
X343094612Y-175371600D01*
X343094612Y-175371600D02*
X342904136Y-176228742D01*
X342904136Y-176228742D02*
X342666041Y-175028742D01*
X342285088Y-176228742D02*
X342285088Y-175028742D01*
X341856517Y-176228742D02*
X341856517Y-175600171D01*
X341856517Y-175600171D02*
X341904136Y-175485885D01*
X341904136Y-175485885D02*
X341999374Y-175428742D01*
X341999374Y-175428742D02*
X342142231Y-175428742D01*
X342142231Y-175428742D02*
X342237469Y-175485885D01*
X342237469Y-175485885D02*
X342285088Y-175543028D01*
X341380326Y-176228742D02*
X341380326Y-175428742D01*
X341380326Y-175028742D02*
X341427945Y-175085885D01*
X341427945Y-175085885D02*
X341380326Y-175143028D01*
X341380326Y-175143028D02*
X341332707Y-175085885D01*
X341332707Y-175085885D02*
X341380326Y-175028742D01*
X341380326Y-175028742D02*
X341380326Y-175143028D01*
X341046993Y-175428742D02*
X340666041Y-175428742D01*
X340904136Y-175028742D02*
X340904136Y-176057314D01*
X340904136Y-176057314D02*
X340856517Y-176171600D01*
X340856517Y-176171600D02*
X340761279Y-176228742D01*
X340761279Y-176228742D02*
X340666041Y-176228742D01*
X339951755Y-176171600D02*
X340046993Y-176228742D01*
X340046993Y-176228742D02*
X340237469Y-176228742D01*
X340237469Y-176228742D02*
X340332707Y-176171600D01*
X340332707Y-176171600D02*
X340380326Y-176057314D01*
X340380326Y-176057314D02*
X340380326Y-175600171D01*
X340380326Y-175600171D02*
X340332707Y-175485885D01*
X340332707Y-175485885D02*
X340237469Y-175428742D01*
X340237469Y-175428742D02*
X340046993Y-175428742D01*
X340046993Y-175428742D02*
X339951755Y-175485885D01*
X339951755Y-175485885D02*
X339904136Y-175600171D01*
X339904136Y-175600171D02*
X339904136Y-175714457D01*
X339904136Y-175714457D02*
X340380326Y-175828742D01*
X345904136Y-176960742D02*
X346380326Y-176960742D01*
X346380326Y-176960742D02*
X346427945Y-177532171D01*
X346427945Y-177532171D02*
X346380326Y-177475028D01*
X346380326Y-177475028D02*
X346285088Y-177417885D01*
X346285088Y-177417885D02*
X346046993Y-177417885D01*
X346046993Y-177417885D02*
X345951755Y-177475028D01*
X345951755Y-177475028D02*
X345904136Y-177532171D01*
X345904136Y-177532171D02*
X345856517Y-177646457D01*
X345856517Y-177646457D02*
X345856517Y-177932171D01*
X345856517Y-177932171D02*
X345904136Y-178046457D01*
X345904136Y-178046457D02*
X345951755Y-178103600D01*
X345951755Y-178103600D02*
X346046993Y-178160742D01*
X346046993Y-178160742D02*
X346285088Y-178160742D01*
X346285088Y-178160742D02*
X346380326Y-178103600D01*
X346380326Y-178103600D02*
X346427945Y-178046457D01*
X345427945Y-177703600D02*
X344666041Y-177703600D01*
X342904136Y-177017885D02*
X342999374Y-176960742D01*
X342999374Y-176960742D02*
X343142231Y-176960742D01*
X343142231Y-176960742D02*
X343285088Y-177017885D01*
X343285088Y-177017885D02*
X343380326Y-177132171D01*
X343380326Y-177132171D02*
X343427945Y-177246457D01*
X343427945Y-177246457D02*
X343475564Y-177475028D01*
X343475564Y-177475028D02*
X343475564Y-177646457D01*
X343475564Y-177646457D02*
X343427945Y-177875028D01*
X343427945Y-177875028D02*
X343380326Y-177989314D01*
X343380326Y-177989314D02*
X343285088Y-178103600D01*
X343285088Y-178103600D02*
X343142231Y-178160742D01*
X343142231Y-178160742D02*
X343046993Y-178160742D01*
X343046993Y-178160742D02*
X342904136Y-178103600D01*
X342904136Y-178103600D02*
X342856517Y-178046457D01*
X342856517Y-178046457D02*
X342856517Y-177646457D01*
X342856517Y-177646457D02*
X343046993Y-177646457D01*
X342427945Y-178160742D02*
X342427945Y-177360742D01*
X342427945Y-177589314D02*
X342380326Y-177475028D01*
X342380326Y-177475028D02*
X342332707Y-177417885D01*
X342332707Y-177417885D02*
X342237469Y-177360742D01*
X342237469Y-177360742D02*
X342142231Y-177360742D01*
X341427945Y-178103600D02*
X341523183Y-178160742D01*
X341523183Y-178160742D02*
X341713659Y-178160742D01*
X341713659Y-178160742D02*
X341808897Y-178103600D01*
X341808897Y-178103600D02*
X341856516Y-177989314D01*
X341856516Y-177989314D02*
X341856516Y-177532171D01*
X341856516Y-177532171D02*
X341808897Y-177417885D01*
X341808897Y-177417885D02*
X341713659Y-177360742D01*
X341713659Y-177360742D02*
X341523183Y-177360742D01*
X341523183Y-177360742D02*
X341427945Y-177417885D01*
X341427945Y-177417885D02*
X341380326Y-177532171D01*
X341380326Y-177532171D02*
X341380326Y-177646457D01*
X341380326Y-177646457D02*
X341856516Y-177760742D01*
X340570802Y-178103600D02*
X340666040Y-178160742D01*
X340666040Y-178160742D02*
X340856516Y-178160742D01*
X340856516Y-178160742D02*
X340951754Y-178103600D01*
X340951754Y-178103600D02*
X340999373Y-177989314D01*
X340999373Y-177989314D02*
X340999373Y-177532171D01*
X340999373Y-177532171D02*
X340951754Y-177417885D01*
X340951754Y-177417885D02*
X340856516Y-177360742D01*
X340856516Y-177360742D02*
X340666040Y-177360742D01*
X340666040Y-177360742D02*
X340570802Y-177417885D01*
X340570802Y-177417885D02*
X340523183Y-177532171D01*
X340523183Y-177532171D02*
X340523183Y-177646457D01*
X340523183Y-177646457D02*
X340999373Y-177760742D01*
X340094611Y-177360742D02*
X340094611Y-178160742D01*
X340094611Y-177475028D02*
X340046992Y-177417885D01*
X340046992Y-177417885D02*
X339951754Y-177360742D01*
X339951754Y-177360742D02*
X339808897Y-177360742D01*
X339808897Y-177360742D02*
X339713659Y-177417885D01*
X339713659Y-177417885D02*
X339666040Y-177532171D01*
X339666040Y-177532171D02*
X339666040Y-178160742D01*
X338142230Y-178617885D02*
X338189849Y-178560742D01*
X338189849Y-178560742D02*
X338285087Y-178389314D01*
X338285087Y-178389314D02*
X338332706Y-178275028D01*
X338332706Y-178275028D02*
X338380325Y-178103600D01*
X338380325Y-178103600D02*
X338427944Y-177817885D01*
X338427944Y-177817885D02*
X338427944Y-177589314D01*
X338427944Y-177589314D02*
X338380325Y-177303600D01*
X338380325Y-177303600D02*
X338332706Y-177132171D01*
X338332706Y-177132171D02*
X338285087Y-177017885D01*
X338285087Y-177017885D02*
X338189849Y-176846457D01*
X338189849Y-176846457D02*
X338142230Y-176789314D01*
X337427944Y-177532171D02*
X337285087Y-177589314D01*
X337285087Y-177589314D02*
X337237468Y-177646457D01*
X337237468Y-177646457D02*
X337189849Y-177760742D01*
X337189849Y-177760742D02*
X337189849Y-177932171D01*
X337189849Y-177932171D02*
X337237468Y-178046457D01*
X337237468Y-178046457D02*
X337285087Y-178103600D01*
X337285087Y-178103600D02*
X337380325Y-178160742D01*
X337380325Y-178160742D02*
X337761277Y-178160742D01*
X337761277Y-178160742D02*
X337761277Y-176960742D01*
X337761277Y-176960742D02*
X337427944Y-176960742D01*
X337427944Y-176960742D02*
X337332706Y-177017885D01*
X337332706Y-177017885D02*
X337285087Y-177075028D01*
X337285087Y-177075028D02*
X337237468Y-177189314D01*
X337237468Y-177189314D02*
X337237468Y-177303600D01*
X337237468Y-177303600D02*
X337285087Y-177417885D01*
X337285087Y-177417885D02*
X337332706Y-177475028D01*
X337332706Y-177475028D02*
X337427944Y-177532171D01*
X337427944Y-177532171D02*
X337761277Y-177532171D01*
X336856515Y-178617885D02*
X336808896Y-178560742D01*
X336808896Y-178560742D02*
X336713658Y-178389314D01*
X336713658Y-178389314D02*
X336666039Y-178275028D01*
X336666039Y-178275028D02*
X336618420Y-178103600D01*
X336618420Y-178103600D02*
X336570801Y-177817885D01*
X336570801Y-177817885D02*
X336570801Y-177589314D01*
X336570801Y-177589314D02*
X336618420Y-177303600D01*
X336618420Y-177303600D02*
X336666039Y-177132171D01*
X336666039Y-177132171D02*
X336713658Y-177017885D01*
X336713658Y-177017885D02*
X336808896Y-176846457D01*
X336808896Y-176846457D02*
X336856515Y-176789314D01*
X345951755Y-178892742D02*
X346142231Y-178892742D01*
X346142231Y-178892742D02*
X346237469Y-178949885D01*
X346237469Y-178949885D02*
X346285088Y-179007028D01*
X346285088Y-179007028D02*
X346380326Y-179178457D01*
X346380326Y-179178457D02*
X346427945Y-179407028D01*
X346427945Y-179407028D02*
X346427945Y-179864171D01*
X346427945Y-179864171D02*
X346380326Y-179978457D01*
X346380326Y-179978457D02*
X346332707Y-180035600D01*
X346332707Y-180035600D02*
X346237469Y-180092742D01*
X346237469Y-180092742D02*
X346046993Y-180092742D01*
X346046993Y-180092742D02*
X345951755Y-180035600D01*
X345951755Y-180035600D02*
X345904136Y-179978457D01*
X345904136Y-179978457D02*
X345856517Y-179864171D01*
X345856517Y-179864171D02*
X345856517Y-179578457D01*
X345856517Y-179578457D02*
X345904136Y-179464171D01*
X345904136Y-179464171D02*
X345951755Y-179407028D01*
X345951755Y-179407028D02*
X346046993Y-179349885D01*
X346046993Y-179349885D02*
X346237469Y-179349885D01*
X346237469Y-179349885D02*
X346332707Y-179407028D01*
X346332707Y-179407028D02*
X346380326Y-179464171D01*
X346380326Y-179464171D02*
X346427945Y-179578457D01*
X345427945Y-179635600D02*
X344666041Y-179635600D01*
X343094612Y-179464171D02*
X342951755Y-179521314D01*
X342951755Y-179521314D02*
X342904136Y-179578457D01*
X342904136Y-179578457D02*
X342856517Y-179692742D01*
X342856517Y-179692742D02*
X342856517Y-179864171D01*
X342856517Y-179864171D02*
X342904136Y-179978457D01*
X342904136Y-179978457D02*
X342951755Y-180035600D01*
X342951755Y-180035600D02*
X343046993Y-180092742D01*
X343046993Y-180092742D02*
X343427945Y-180092742D01*
X343427945Y-180092742D02*
X343427945Y-178892742D01*
X343427945Y-178892742D02*
X343094612Y-178892742D01*
X343094612Y-178892742D02*
X342999374Y-178949885D01*
X342999374Y-178949885D02*
X342951755Y-179007028D01*
X342951755Y-179007028D02*
X342904136Y-179121314D01*
X342904136Y-179121314D02*
X342904136Y-179235600D01*
X342904136Y-179235600D02*
X342951755Y-179349885D01*
X342951755Y-179349885D02*
X342999374Y-179407028D01*
X342999374Y-179407028D02*
X343094612Y-179464171D01*
X343094612Y-179464171D02*
X343427945Y-179464171D01*
X342285088Y-180092742D02*
X342380326Y-180035600D01*
X342380326Y-180035600D02*
X342427945Y-179921314D01*
X342427945Y-179921314D02*
X342427945Y-178892742D01*
X341475564Y-179292742D02*
X341475564Y-180092742D01*
X341904135Y-179292742D02*
X341904135Y-179921314D01*
X341904135Y-179921314D02*
X341856516Y-180035600D01*
X341856516Y-180035600D02*
X341761278Y-180092742D01*
X341761278Y-180092742D02*
X341618421Y-180092742D01*
X341618421Y-180092742D02*
X341523183Y-180035600D01*
X341523183Y-180035600D02*
X341475564Y-179978457D01*
X340618421Y-180035600D02*
X340713659Y-180092742D01*
X340713659Y-180092742D02*
X340904135Y-180092742D01*
X340904135Y-180092742D02*
X340999373Y-180035600D01*
X340999373Y-180035600D02*
X341046992Y-179921314D01*
X341046992Y-179921314D02*
X341046992Y-179464171D01*
X341046992Y-179464171D02*
X340999373Y-179349885D01*
X340999373Y-179349885D02*
X340904135Y-179292742D01*
X340904135Y-179292742D02*
X340713659Y-179292742D01*
X340713659Y-179292742D02*
X340618421Y-179349885D01*
X340618421Y-179349885D02*
X340570802Y-179464171D01*
X340570802Y-179464171D02*
X340570802Y-179578457D01*
X340570802Y-179578457D02*
X341046992Y-179692742D01*
X339237468Y-178892742D02*
X339237468Y-179178457D01*
X339475563Y-179064171D02*
X339237468Y-179178457D01*
X339237468Y-179178457D02*
X338999373Y-179064171D01*
X339380325Y-179407028D02*
X339237468Y-179178457D01*
X339237468Y-179178457D02*
X339094611Y-179407028D01*
X337570801Y-180549885D02*
X337618420Y-180492742D01*
X337618420Y-180492742D02*
X337713658Y-180321314D01*
X337713658Y-180321314D02*
X337761277Y-180207028D01*
X337761277Y-180207028D02*
X337808896Y-180035600D01*
X337808896Y-180035600D02*
X337856515Y-179749885D01*
X337856515Y-179749885D02*
X337856515Y-179521314D01*
X337856515Y-179521314D02*
X337808896Y-179235600D01*
X337808896Y-179235600D02*
X337761277Y-179064171D01*
X337761277Y-179064171D02*
X337713658Y-178949885D01*
X337713658Y-178949885D02*
X337618420Y-178778457D01*
X337618420Y-178778457D02*
X337570801Y-178721314D01*
X336856515Y-179464171D02*
X336713658Y-179521314D01*
X336713658Y-179521314D02*
X336666039Y-179578457D01*
X336666039Y-179578457D02*
X336618420Y-179692742D01*
X336618420Y-179692742D02*
X336618420Y-179864171D01*
X336618420Y-179864171D02*
X336666039Y-179978457D01*
X336666039Y-179978457D02*
X336713658Y-180035600D01*
X336713658Y-180035600D02*
X336808896Y-180092742D01*
X336808896Y-180092742D02*
X337189848Y-180092742D01*
X337189848Y-180092742D02*
X337189848Y-178892742D01*
X337189848Y-178892742D02*
X336856515Y-178892742D01*
X336856515Y-178892742D02*
X336761277Y-178949885D01*
X336761277Y-178949885D02*
X336713658Y-179007028D01*
X336713658Y-179007028D02*
X336666039Y-179121314D01*
X336666039Y-179121314D02*
X336666039Y-179235600D01*
X336666039Y-179235600D02*
X336713658Y-179349885D01*
X336713658Y-179349885D02*
X336761277Y-179407028D01*
X336761277Y-179407028D02*
X336856515Y-179464171D01*
X336856515Y-179464171D02*
X337189848Y-179464171D01*
X336285086Y-180549885D02*
X336237467Y-180492742D01*
X336237467Y-180492742D02*
X336142229Y-180321314D01*
X336142229Y-180321314D02*
X336094610Y-180207028D01*
X336094610Y-180207028D02*
X336046991Y-180035600D01*
X336046991Y-180035600D02*
X335999372Y-179749885D01*
X335999372Y-179749885D02*
X335999372Y-179521314D01*
X335999372Y-179521314D02*
X336046991Y-179235600D01*
X336046991Y-179235600D02*
X336094610Y-179064171D01*
X336094610Y-179064171D02*
X336142229Y-178949885D01*
X336142229Y-178949885D02*
X336237467Y-178778457D01*
X336237467Y-178778457D02*
X336285086Y-178721314D01*
D11*
X185745714Y-170905180D02*
X185174286Y-170905180D01*
X185460000Y-170905180D02*
X185460000Y-171905180D01*
X185460000Y-171905180D02*
X185364762Y-171762323D01*
X185364762Y-171762323D02*
X185269524Y-171667085D01*
X185269524Y-171667085D02*
X185174286Y-171619466D01*
X195150476Y-173905180D02*
X194960000Y-173905180D01*
X194960000Y-173905180D02*
X194864762Y-173857561D01*
X194864762Y-173857561D02*
X194817143Y-173809942D01*
X194817143Y-173809942D02*
X194721905Y-173667085D01*
X194721905Y-173667085D02*
X194674286Y-173476609D01*
X194674286Y-173476609D02*
X194674286Y-173095657D01*
X194674286Y-173095657D02*
X194721905Y-173000419D01*
X194721905Y-173000419D02*
X194769524Y-172952800D01*
X194769524Y-172952800D02*
X194864762Y-172905180D01*
X194864762Y-172905180D02*
X195055238Y-172905180D01*
X195055238Y-172905180D02*
X195150476Y-172952800D01*
X195150476Y-172952800D02*
X195198095Y-173000419D01*
X195198095Y-173000419D02*
X195245714Y-173095657D01*
X195245714Y-173095657D02*
X195245714Y-173333752D01*
X195245714Y-173333752D02*
X195198095Y-173428990D01*
X195198095Y-173428990D02*
X195150476Y-173476609D01*
X195150476Y-173476609D02*
X195055238Y-173524228D01*
X195055238Y-173524228D02*
X194864762Y-173524228D01*
X194864762Y-173524228D02*
X194769524Y-173476609D01*
X194769524Y-173476609D02*
X194721905Y-173428990D01*
X194721905Y-173428990D02*
X194674286Y-173333752D01*
X195150476Y-173905180D02*
X194960000Y-173905180D01*
X194960000Y-173905180D02*
X194864762Y-173857561D01*
X194864762Y-173857561D02*
X194817143Y-173809942D01*
X194817143Y-173809942D02*
X194721905Y-173667085D01*
X194721905Y-173667085D02*
X194674286Y-173476609D01*
X194674286Y-173476609D02*
X194674286Y-173095657D01*
X194674286Y-173095657D02*
X194721905Y-173000419D01*
X194721905Y-173000419D02*
X194769524Y-172952800D01*
X194769524Y-172952800D02*
X194864762Y-172905180D01*
X194864762Y-172905180D02*
X195055238Y-172905180D01*
X195055238Y-172905180D02*
X195150476Y-172952800D01*
X195150476Y-172952800D02*
X195198095Y-173000419D01*
X195198095Y-173000419D02*
X195245714Y-173095657D01*
X195245714Y-173095657D02*
X195245714Y-173333752D01*
X195245714Y-173333752D02*
X195198095Y-173428990D01*
X195198095Y-173428990D02*
X195150476Y-173476609D01*
X195150476Y-173476609D02*
X195055238Y-173524228D01*
X195055238Y-173524228D02*
X194864762Y-173524228D01*
X194864762Y-173524228D02*
X194769524Y-173476609D01*
X194769524Y-173476609D02*
X194721905Y-173428990D01*
X194721905Y-173428990D02*
X194674286Y-173333752D01*
X185745714Y-170905180D02*
X185174286Y-170905180D01*
X185460000Y-170905180D02*
X185460000Y-171905180D01*
X185460000Y-171905180D02*
X185364762Y-171762323D01*
X185364762Y-171762323D02*
X185269524Y-171667085D01*
X185269524Y-171667085D02*
X185174286Y-171619466D01*
X96245714Y-170905180D02*
X95674286Y-170905180D01*
X95960000Y-170905180D02*
X95960000Y-171905180D01*
X95960000Y-171905180D02*
X95864762Y-171762323D01*
X95864762Y-171762323D02*
X95769524Y-171667085D01*
X95769524Y-171667085D02*
X95674286Y-171619466D01*
X105650476Y-173905180D02*
X105460000Y-173905180D01*
X105460000Y-173905180D02*
X105364762Y-173857561D01*
X105364762Y-173857561D02*
X105317143Y-173809942D01*
X105317143Y-173809942D02*
X105221905Y-173667085D01*
X105221905Y-173667085D02*
X105174286Y-173476609D01*
X105174286Y-173476609D02*
X105174286Y-173095657D01*
X105174286Y-173095657D02*
X105221905Y-173000419D01*
X105221905Y-173000419D02*
X105269524Y-172952800D01*
X105269524Y-172952800D02*
X105364762Y-172905180D01*
X105364762Y-172905180D02*
X105555238Y-172905180D01*
X105555238Y-172905180D02*
X105650476Y-172952800D01*
X105650476Y-172952800D02*
X105698095Y-173000419D01*
X105698095Y-173000419D02*
X105745714Y-173095657D01*
X105745714Y-173095657D02*
X105745714Y-173333752D01*
X105745714Y-173333752D02*
X105698095Y-173428990D01*
X105698095Y-173428990D02*
X105650476Y-173476609D01*
X105650476Y-173476609D02*
X105555238Y-173524228D01*
X105555238Y-173524228D02*
X105364762Y-173524228D01*
X105364762Y-173524228D02*
X105269524Y-173476609D01*
X105269524Y-173476609D02*
X105221905Y-173428990D01*
X105221905Y-173428990D02*
X105174286Y-173333752D01*
D10*
X96170714Y-170857157D02*
X95599286Y-170857157D01*
X95885000Y-170857157D02*
X95885000Y-172057157D01*
X95885000Y-172057157D02*
X95789762Y-171885728D01*
X95789762Y-171885728D02*
X95694524Y-171771442D01*
X95694524Y-171771442D02*
X95599286Y-171714300D01*
X105575476Y-173807157D02*
X105385000Y-173807157D01*
X105385000Y-173807157D02*
X105289762Y-173750014D01*
X105289762Y-173750014D02*
X105242143Y-173692871D01*
X105242143Y-173692871D02*
X105146905Y-173521442D01*
X105146905Y-173521442D02*
X105099286Y-173292871D01*
X105099286Y-173292871D02*
X105099286Y-172835728D01*
X105099286Y-172835728D02*
X105146905Y-172721442D01*
X105146905Y-172721442D02*
X105194524Y-172664300D01*
X105194524Y-172664300D02*
X105289762Y-172607157D01*
X105289762Y-172607157D02*
X105480238Y-172607157D01*
X105480238Y-172607157D02*
X105575476Y-172664300D01*
X105575476Y-172664300D02*
X105623095Y-172721442D01*
X105623095Y-172721442D02*
X105670714Y-172835728D01*
X105670714Y-172835728D02*
X105670714Y-173121442D01*
X105670714Y-173121442D02*
X105623095Y-173235728D01*
X105623095Y-173235728D02*
X105575476Y-173292871D01*
X105575476Y-173292871D02*
X105480238Y-173350014D01*
X105480238Y-173350014D02*
X105289762Y-173350014D01*
X105289762Y-173350014D02*
X105194524Y-173292871D01*
X105194524Y-173292871D02*
X105146905Y-173235728D01*
X105146905Y-173235728D02*
X105099286Y-173121442D01*
D11*
X155495714Y-170905180D02*
X154924286Y-170905180D01*
X155210000Y-170905180D02*
X155210000Y-171905180D01*
X155210000Y-171905180D02*
X155114762Y-171762323D01*
X155114762Y-171762323D02*
X155019524Y-171667085D01*
X155019524Y-171667085D02*
X154924286Y-171619466D01*
X164900476Y-173905180D02*
X164710000Y-173905180D01*
X164710000Y-173905180D02*
X164614762Y-173857561D01*
X164614762Y-173857561D02*
X164567143Y-173809942D01*
X164567143Y-173809942D02*
X164471905Y-173667085D01*
X164471905Y-173667085D02*
X164424286Y-173476609D01*
X164424286Y-173476609D02*
X164424286Y-173095657D01*
X164424286Y-173095657D02*
X164471905Y-173000419D01*
X164471905Y-173000419D02*
X164519524Y-172952800D01*
X164519524Y-172952800D02*
X164614762Y-172905180D01*
X164614762Y-172905180D02*
X164805238Y-172905180D01*
X164805238Y-172905180D02*
X164900476Y-172952800D01*
X164900476Y-172952800D02*
X164948095Y-173000419D01*
X164948095Y-173000419D02*
X164995714Y-173095657D01*
X164995714Y-173095657D02*
X164995714Y-173333752D01*
X164995714Y-173333752D02*
X164948095Y-173428990D01*
X164948095Y-173428990D02*
X164900476Y-173476609D01*
X164900476Y-173476609D02*
X164805238Y-173524228D01*
X164805238Y-173524228D02*
X164614762Y-173524228D01*
X164614762Y-173524228D02*
X164519524Y-173476609D01*
X164519524Y-173476609D02*
X164471905Y-173428990D01*
X164471905Y-173428990D02*
X164424286Y-173333752D01*
X164900476Y-173905180D02*
X164710000Y-173905180D01*
X164710000Y-173905180D02*
X164614762Y-173857561D01*
X164614762Y-173857561D02*
X164567143Y-173809942D01*
X164567143Y-173809942D02*
X164471905Y-173667085D01*
X164471905Y-173667085D02*
X164424286Y-173476609D01*
X164424286Y-173476609D02*
X164424286Y-173095657D01*
X164424286Y-173095657D02*
X164471905Y-173000419D01*
X164471905Y-173000419D02*
X164519524Y-172952800D01*
X164519524Y-172952800D02*
X164614762Y-172905180D01*
X164614762Y-172905180D02*
X164805238Y-172905180D01*
X164805238Y-172905180D02*
X164900476Y-172952800D01*
X164900476Y-172952800D02*
X164948095Y-173000419D01*
X164948095Y-173000419D02*
X164995714Y-173095657D01*
X164995714Y-173095657D02*
X164995714Y-173333752D01*
X164995714Y-173333752D02*
X164948095Y-173428990D01*
X164948095Y-173428990D02*
X164900476Y-173476609D01*
X164900476Y-173476609D02*
X164805238Y-173524228D01*
X164805238Y-173524228D02*
X164614762Y-173524228D01*
X164614762Y-173524228D02*
X164519524Y-173476609D01*
X164519524Y-173476609D02*
X164471905Y-173428990D01*
X164471905Y-173428990D02*
X164424286Y-173333752D01*
X155495714Y-170905180D02*
X154924286Y-170905180D01*
X155210000Y-170905180D02*
X155210000Y-171905180D01*
X155210000Y-171905180D02*
X155114762Y-171762323D01*
X155114762Y-171762323D02*
X155019524Y-171667085D01*
X155019524Y-171667085D02*
X154924286Y-171619466D01*
X125745714Y-170905180D02*
X125174286Y-170905180D01*
X125460000Y-170905180D02*
X125460000Y-171905180D01*
X125460000Y-171905180D02*
X125364762Y-171762323D01*
X125364762Y-171762323D02*
X125269524Y-171667085D01*
X125269524Y-171667085D02*
X125174286Y-171619466D01*
X125745714Y-170905180D02*
X125174286Y-170905180D01*
X125460000Y-170905180D02*
X125460000Y-171905180D01*
X125460000Y-171905180D02*
X125364762Y-171762323D01*
X125364762Y-171762323D02*
X125269524Y-171667085D01*
X125269524Y-171667085D02*
X125174286Y-171619466D01*
X135150476Y-173905180D02*
X134960000Y-173905180D01*
X134960000Y-173905180D02*
X134864762Y-173857561D01*
X134864762Y-173857561D02*
X134817143Y-173809942D01*
X134817143Y-173809942D02*
X134721905Y-173667085D01*
X134721905Y-173667085D02*
X134674286Y-173476609D01*
X134674286Y-173476609D02*
X134674286Y-173095657D01*
X134674286Y-173095657D02*
X134721905Y-173000419D01*
X134721905Y-173000419D02*
X134769524Y-172952800D01*
X134769524Y-172952800D02*
X134864762Y-172905180D01*
X134864762Y-172905180D02*
X135055238Y-172905180D01*
X135055238Y-172905180D02*
X135150476Y-172952800D01*
X135150476Y-172952800D02*
X135198095Y-173000419D01*
X135198095Y-173000419D02*
X135245714Y-173095657D01*
X135245714Y-173095657D02*
X135245714Y-173333752D01*
X135245714Y-173333752D02*
X135198095Y-173428990D01*
X135198095Y-173428990D02*
X135150476Y-173476609D01*
X135150476Y-173476609D02*
X135055238Y-173524228D01*
X135055238Y-173524228D02*
X134864762Y-173524228D01*
X134864762Y-173524228D02*
X134769524Y-173476609D01*
X134769524Y-173476609D02*
X134721905Y-173428990D01*
X134721905Y-173428990D02*
X134674286Y-173333752D01*
X135150476Y-173905180D02*
X134960000Y-173905180D01*
X134960000Y-173905180D02*
X134864762Y-173857561D01*
X134864762Y-173857561D02*
X134817143Y-173809942D01*
X134817143Y-173809942D02*
X134721905Y-173667085D01*
X134721905Y-173667085D02*
X134674286Y-173476609D01*
X134674286Y-173476609D02*
X134674286Y-173095657D01*
X134674286Y-173095657D02*
X134721905Y-173000419D01*
X134721905Y-173000419D02*
X134769524Y-172952800D01*
X134769524Y-172952800D02*
X134864762Y-172905180D01*
X134864762Y-172905180D02*
X135055238Y-172905180D01*
X135055238Y-172905180D02*
X135150476Y-172952800D01*
X135150476Y-172952800D02*
X135198095Y-173000419D01*
X135198095Y-173000419D02*
X135245714Y-173095657D01*
X135245714Y-173095657D02*
X135245714Y-173333752D01*
X135245714Y-173333752D02*
X135198095Y-173428990D01*
X135198095Y-173428990D02*
X135150476Y-173476609D01*
X135150476Y-173476609D02*
X135055238Y-173524228D01*
X135055238Y-173524228D02*
X134864762Y-173524228D01*
X134864762Y-173524228D02*
X134769524Y-173476609D01*
X134769524Y-173476609D02*
X134721905Y-173428990D01*
X134721905Y-173428990D02*
X134674286Y-173333752D01*
X229150476Y-173905180D02*
X228960000Y-173905180D01*
X228960000Y-173905180D02*
X228864762Y-173857561D01*
X228864762Y-173857561D02*
X228817143Y-173809942D01*
X228817143Y-173809942D02*
X228721905Y-173667085D01*
X228721905Y-173667085D02*
X228674286Y-173476609D01*
X228674286Y-173476609D02*
X228674286Y-173095657D01*
X228674286Y-173095657D02*
X228721905Y-173000419D01*
X228721905Y-173000419D02*
X228769524Y-172952800D01*
X228769524Y-172952800D02*
X228864762Y-172905180D01*
X228864762Y-172905180D02*
X229055238Y-172905180D01*
X229055238Y-172905180D02*
X229150476Y-172952800D01*
X229150476Y-172952800D02*
X229198095Y-173000419D01*
X229198095Y-173000419D02*
X229245714Y-173095657D01*
X229245714Y-173095657D02*
X229245714Y-173333752D01*
X229245714Y-173333752D02*
X229198095Y-173428990D01*
X229198095Y-173428990D02*
X229150476Y-173476609D01*
X229150476Y-173476609D02*
X229055238Y-173524228D01*
X229055238Y-173524228D02*
X228864762Y-173524228D01*
X228864762Y-173524228D02*
X228769524Y-173476609D01*
X228769524Y-173476609D02*
X228721905Y-173428990D01*
X228721905Y-173428990D02*
X228674286Y-173333752D01*
X229150476Y-173905180D02*
X228960000Y-173905180D01*
X228960000Y-173905180D02*
X228864762Y-173857561D01*
X228864762Y-173857561D02*
X228817143Y-173809942D01*
X228817143Y-173809942D02*
X228721905Y-173667085D01*
X228721905Y-173667085D02*
X228674286Y-173476609D01*
X228674286Y-173476609D02*
X228674286Y-173095657D01*
X228674286Y-173095657D02*
X228721905Y-173000419D01*
X228721905Y-173000419D02*
X228769524Y-172952800D01*
X228769524Y-172952800D02*
X228864762Y-172905180D01*
X228864762Y-172905180D02*
X229055238Y-172905180D01*
X229055238Y-172905180D02*
X229150476Y-172952800D01*
X229150476Y-172952800D02*
X229198095Y-173000419D01*
X229198095Y-173000419D02*
X229245714Y-173095657D01*
X229245714Y-173095657D02*
X229245714Y-173333752D01*
X229245714Y-173333752D02*
X229198095Y-173428990D01*
X229198095Y-173428990D02*
X229150476Y-173476609D01*
X229150476Y-173476609D02*
X229055238Y-173524228D01*
X229055238Y-173524228D02*
X228864762Y-173524228D01*
X228864762Y-173524228D02*
X228769524Y-173476609D01*
X228769524Y-173476609D02*
X228721905Y-173428990D01*
X228721905Y-173428990D02*
X228674286Y-173333752D01*
X219745714Y-170905180D02*
X219174286Y-170905180D01*
X219460000Y-170905180D02*
X219460000Y-171905180D01*
X219460000Y-171905180D02*
X219364762Y-171762323D01*
X219364762Y-171762323D02*
X219269524Y-171667085D01*
X219269524Y-171667085D02*
X219174286Y-171619466D01*
X219745714Y-170905180D02*
X219174286Y-170905180D01*
X219460000Y-170905180D02*
X219460000Y-171905180D01*
X219460000Y-171905180D02*
X219364762Y-171762323D01*
X219364762Y-171762323D02*
X219269524Y-171667085D01*
X219269524Y-171667085D02*
X219174286Y-171619466D01*
X289650476Y-173905180D02*
X289460000Y-173905180D01*
X289460000Y-173905180D02*
X289364762Y-173857561D01*
X289364762Y-173857561D02*
X289317143Y-173809942D01*
X289317143Y-173809942D02*
X289221905Y-173667085D01*
X289221905Y-173667085D02*
X289174286Y-173476609D01*
X289174286Y-173476609D02*
X289174286Y-173095657D01*
X289174286Y-173095657D02*
X289221905Y-173000419D01*
X289221905Y-173000419D02*
X289269524Y-172952800D01*
X289269524Y-172952800D02*
X289364762Y-172905180D01*
X289364762Y-172905180D02*
X289555238Y-172905180D01*
X289555238Y-172905180D02*
X289650476Y-172952800D01*
X289650476Y-172952800D02*
X289698095Y-173000419D01*
X289698095Y-173000419D02*
X289745714Y-173095657D01*
X289745714Y-173095657D02*
X289745714Y-173333752D01*
X289745714Y-173333752D02*
X289698095Y-173428990D01*
X289698095Y-173428990D02*
X289650476Y-173476609D01*
X289650476Y-173476609D02*
X289555238Y-173524228D01*
X289555238Y-173524228D02*
X289364762Y-173524228D01*
X289364762Y-173524228D02*
X289269524Y-173476609D01*
X289269524Y-173476609D02*
X289221905Y-173428990D01*
X289221905Y-173428990D02*
X289174286Y-173333752D01*
X280245714Y-170905180D02*
X279674286Y-170905180D01*
X279960000Y-170905180D02*
X279960000Y-171905180D01*
X279960000Y-171905180D02*
X279864762Y-171762323D01*
X279864762Y-171762323D02*
X279769524Y-171667085D01*
X279769524Y-171667085D02*
X279674286Y-171619466D01*
X280245714Y-170905180D02*
X279674286Y-170905180D01*
X279960000Y-170905180D02*
X279960000Y-171905180D01*
X279960000Y-171905180D02*
X279864762Y-171762323D01*
X279864762Y-171762323D02*
X279769524Y-171667085D01*
X279769524Y-171667085D02*
X279674286Y-171619466D01*
X289650476Y-173905180D02*
X289460000Y-173905180D01*
X289460000Y-173905180D02*
X289364762Y-173857561D01*
X289364762Y-173857561D02*
X289317143Y-173809942D01*
X289317143Y-173809942D02*
X289221905Y-173667085D01*
X289221905Y-173667085D02*
X289174286Y-173476609D01*
X289174286Y-173476609D02*
X289174286Y-173095657D01*
X289174286Y-173095657D02*
X289221905Y-173000419D01*
X289221905Y-173000419D02*
X289269524Y-172952800D01*
X289269524Y-172952800D02*
X289364762Y-172905180D01*
X289364762Y-172905180D02*
X289555238Y-172905180D01*
X289555238Y-172905180D02*
X289650476Y-172952800D01*
X289650476Y-172952800D02*
X289698095Y-173000419D01*
X289698095Y-173000419D02*
X289745714Y-173095657D01*
X289745714Y-173095657D02*
X289745714Y-173333752D01*
X289745714Y-173333752D02*
X289698095Y-173428990D01*
X289698095Y-173428990D02*
X289650476Y-173476609D01*
X289650476Y-173476609D02*
X289555238Y-173524228D01*
X289555238Y-173524228D02*
X289364762Y-173524228D01*
X289364762Y-173524228D02*
X289269524Y-173476609D01*
X289269524Y-173476609D02*
X289221905Y-173428990D01*
X289221905Y-173428990D02*
X289174286Y-173333752D01*
X250745714Y-170905180D02*
X250174286Y-170905180D01*
X250460000Y-170905180D02*
X250460000Y-171905180D01*
X250460000Y-171905180D02*
X250364762Y-171762323D01*
X250364762Y-171762323D02*
X250269524Y-171667085D01*
X250269524Y-171667085D02*
X250174286Y-171619466D01*
X260150476Y-173905180D02*
X259960000Y-173905180D01*
X259960000Y-173905180D02*
X259864762Y-173857561D01*
X259864762Y-173857561D02*
X259817143Y-173809942D01*
X259817143Y-173809942D02*
X259721905Y-173667085D01*
X259721905Y-173667085D02*
X259674286Y-173476609D01*
X259674286Y-173476609D02*
X259674286Y-173095657D01*
X259674286Y-173095657D02*
X259721905Y-173000419D01*
X259721905Y-173000419D02*
X259769524Y-172952800D01*
X259769524Y-172952800D02*
X259864762Y-172905180D01*
X259864762Y-172905180D02*
X260055238Y-172905180D01*
X260055238Y-172905180D02*
X260150476Y-172952800D01*
X260150476Y-172952800D02*
X260198095Y-173000419D01*
X260198095Y-173000419D02*
X260245714Y-173095657D01*
X260245714Y-173095657D02*
X260245714Y-173333752D01*
X260245714Y-173333752D02*
X260198095Y-173428990D01*
X260198095Y-173428990D02*
X260150476Y-173476609D01*
X260150476Y-173476609D02*
X260055238Y-173524228D01*
X260055238Y-173524228D02*
X259864762Y-173524228D01*
X259864762Y-173524228D02*
X259769524Y-173476609D01*
X259769524Y-173476609D02*
X259721905Y-173428990D01*
X259721905Y-173428990D02*
X259674286Y-173333752D01*
X260150476Y-173905180D02*
X259960000Y-173905180D01*
X259960000Y-173905180D02*
X259864762Y-173857561D01*
X259864762Y-173857561D02*
X259817143Y-173809942D01*
X259817143Y-173809942D02*
X259721905Y-173667085D01*
X259721905Y-173667085D02*
X259674286Y-173476609D01*
X259674286Y-173476609D02*
X259674286Y-173095657D01*
X259674286Y-173095657D02*
X259721905Y-173000419D01*
X259721905Y-173000419D02*
X259769524Y-172952800D01*
X259769524Y-172952800D02*
X259864762Y-172905180D01*
X259864762Y-172905180D02*
X260055238Y-172905180D01*
X260055238Y-172905180D02*
X260150476Y-172952800D01*
X260150476Y-172952800D02*
X260198095Y-173000419D01*
X260198095Y-173000419D02*
X260245714Y-173095657D01*
X260245714Y-173095657D02*
X260245714Y-173333752D01*
X260245714Y-173333752D02*
X260198095Y-173428990D01*
X260198095Y-173428990D02*
X260150476Y-173476609D01*
X260150476Y-173476609D02*
X260055238Y-173524228D01*
X260055238Y-173524228D02*
X259864762Y-173524228D01*
X259864762Y-173524228D02*
X259769524Y-173476609D01*
X259769524Y-173476609D02*
X259721905Y-173428990D01*
X259721905Y-173428990D02*
X259674286Y-173333752D01*
X250745714Y-170905180D02*
X250174286Y-170905180D01*
X250460000Y-170905180D02*
X250460000Y-171905180D01*
X250460000Y-171905180D02*
X250364762Y-171762323D01*
X250364762Y-171762323D02*
X250269524Y-171667085D01*
X250269524Y-171667085D02*
X250174286Y-171619466D01*
X309745714Y-170905180D02*
X309174286Y-170905180D01*
X309460000Y-170905180D02*
X309460000Y-171905180D01*
X309460000Y-171905180D02*
X309364762Y-171762323D01*
X309364762Y-171762323D02*
X309269524Y-171667085D01*
X309269524Y-171667085D02*
X309174286Y-171619466D01*
X319150476Y-173905180D02*
X318960000Y-173905180D01*
X318960000Y-173905180D02*
X318864762Y-173857561D01*
X318864762Y-173857561D02*
X318817143Y-173809942D01*
X318817143Y-173809942D02*
X318721905Y-173667085D01*
X318721905Y-173667085D02*
X318674286Y-173476609D01*
X318674286Y-173476609D02*
X318674286Y-173095657D01*
X318674286Y-173095657D02*
X318721905Y-173000419D01*
X318721905Y-173000419D02*
X318769524Y-172952800D01*
X318769524Y-172952800D02*
X318864762Y-172905180D01*
X318864762Y-172905180D02*
X319055238Y-172905180D01*
X319055238Y-172905180D02*
X319150476Y-172952800D01*
X319150476Y-172952800D02*
X319198095Y-173000419D01*
X319198095Y-173000419D02*
X319245714Y-173095657D01*
X319245714Y-173095657D02*
X319245714Y-173333752D01*
X319245714Y-173333752D02*
X319198095Y-173428990D01*
X319198095Y-173428990D02*
X319150476Y-173476609D01*
X319150476Y-173476609D02*
X319055238Y-173524228D01*
X319055238Y-173524228D02*
X318864762Y-173524228D01*
X318864762Y-173524228D02*
X318769524Y-173476609D01*
X318769524Y-173476609D02*
X318721905Y-173428990D01*
X318721905Y-173428990D02*
X318674286Y-173333752D01*
X319150476Y-173905180D02*
X318960000Y-173905180D01*
X318960000Y-173905180D02*
X318864762Y-173857561D01*
X318864762Y-173857561D02*
X318817143Y-173809942D01*
X318817143Y-173809942D02*
X318721905Y-173667085D01*
X318721905Y-173667085D02*
X318674286Y-173476609D01*
X318674286Y-173476609D02*
X318674286Y-173095657D01*
X318674286Y-173095657D02*
X318721905Y-173000419D01*
X318721905Y-173000419D02*
X318769524Y-172952800D01*
X318769524Y-172952800D02*
X318864762Y-172905180D01*
X318864762Y-172905180D02*
X319055238Y-172905180D01*
X319055238Y-172905180D02*
X319150476Y-172952800D01*
X319150476Y-172952800D02*
X319198095Y-173000419D01*
X319198095Y-173000419D02*
X319245714Y-173095657D01*
X319245714Y-173095657D02*
X319245714Y-173333752D01*
X319245714Y-173333752D02*
X319198095Y-173428990D01*
X319198095Y-173428990D02*
X319150476Y-173476609D01*
X319150476Y-173476609D02*
X319055238Y-173524228D01*
X319055238Y-173524228D02*
X318864762Y-173524228D01*
X318864762Y-173524228D02*
X318769524Y-173476609D01*
X318769524Y-173476609D02*
X318721905Y-173428990D01*
X318721905Y-173428990D02*
X318674286Y-173333752D01*
X309745714Y-170905180D02*
X309174286Y-170905180D01*
X309460000Y-170905180D02*
X309460000Y-171905180D01*
X309460000Y-171905180D02*
X309364762Y-171762323D01*
X309364762Y-171762323D02*
X309269524Y-171667085D01*
X309269524Y-171667085D02*
X309174286Y-171619466D01*
D12*
X68610001Y-119195600D02*
G75*
G03*
X68610001Y-119195600I-381000J0D01*
G01*
D13*
X187916002Y-169826600D02*
X188543998Y-169826600D01*
X190456002Y-169826600D02*
X191083998Y-169826600D01*
D12*
X187341000Y-168455000D02*
G75*
G03*
X187341000Y-168455000I-381000J0D01*
G01*
D13*
X98416002Y-169826600D02*
X99043998Y-169826600D01*
X100956002Y-169826600D02*
X101583998Y-169826600D01*
D12*
X97841000Y-168455000D02*
G75*
G03*
X97841000Y-168455000I-381000J0D01*
G01*
G36*
X77586145Y-162885663D02*
G01*
X77586145Y-163375302D01*
X77509639Y-163375302D01*
X77433133Y-163375302D01*
X77433133Y-162885663D01*
X77433133Y-162396025D01*
X77509639Y-162396025D01*
X77586145Y-162396025D01*
X77586145Y-162885663D01*
G37*
G36*
X71564785Y-164661492D02*
G01*
X71588072Y-164691205D01*
X71587183Y-164698520D01*
X71557470Y-164721808D01*
X71550155Y-164720918D01*
X71526868Y-164691205D01*
X71527757Y-164683891D01*
X71557470Y-164660603D01*
X71564785Y-164661492D01*
G37*
G36*
X69654598Y-181637290D02*
G01*
X69664377Y-181706145D01*
X68680843Y-181706145D01*
X67697310Y-181706145D01*
X67707089Y-181637290D01*
X67716868Y-181568434D01*
X68680843Y-181568434D01*
X69644819Y-181568434D01*
X69654598Y-181637290D01*
G37*
G36*
X69366951Y-164358283D02*
G01*
X69413601Y-164433612D01*
X69451240Y-164534380D01*
X69474469Y-164640977D01*
X69477890Y-164733792D01*
X69456105Y-164793213D01*
X69444169Y-164803894D01*
X69417579Y-164808334D01*
X69403098Y-164765368D01*
X69397558Y-164668232D01*
X69395623Y-164632800D01*
X69375573Y-164516563D01*
X69341461Y-164420036D01*
X69322460Y-164381529D01*
X69308804Y-164336016D01*
X69328602Y-164330051D01*
X69366951Y-164358283D01*
G37*
G36*
X75811205Y-162885663D02*
G01*
X75811205Y-163375302D01*
X75535783Y-163375302D01*
X75427188Y-163374709D01*
X75336728Y-163370893D01*
X75286536Y-163361245D01*
X75264964Y-163343176D01*
X75260362Y-163314097D01*
X75265701Y-163282544D01*
X75291610Y-163263296D01*
X75351627Y-163254800D01*
X75459277Y-163252892D01*
X75658193Y-163252892D01*
X75658193Y-162824458D01*
X75658193Y-162396025D01*
X75734699Y-162396025D01*
X75811205Y-162396025D01*
X75811205Y-162885663D01*
G37*
G36*
X83421282Y-168297814D02*
G01*
X83522534Y-168385138D01*
X83563747Y-168459790D01*
X83581954Y-168582127D01*
X83555682Y-168705762D01*
X83489688Y-168812906D01*
X83388725Y-168885770D01*
X83385100Y-168887284D01*
X83263485Y-168907339D01*
X83144053Y-168877412D01*
X83041075Y-168807132D01*
X82968822Y-168706131D01*
X82941566Y-168584038D01*
X82947505Y-168519018D01*
X82994869Y-168401809D01*
X83078847Y-168316662D01*
X83186520Y-168267999D01*
X83304972Y-168260242D01*
X83421282Y-168297814D01*
G37*
G36*
X70616532Y-164293835D02*
G01*
X70644164Y-164320221D01*
X70691097Y-164385999D01*
X70748746Y-164476672D01*
X70808527Y-164577742D01*
X70861856Y-164674711D01*
X70900148Y-164753082D01*
X70914819Y-164798357D01*
X70913246Y-164804151D01*
X70883096Y-164808141D01*
X70868553Y-164796968D01*
X70829306Y-164745006D01*
X70779337Y-164663712D01*
X70725714Y-164566701D01*
X70675508Y-164467589D01*
X70635786Y-164379992D01*
X70613618Y-164317525D01*
X70616071Y-164293803D01*
X70616532Y-164293835D01*
G37*
G36*
X69790267Y-165364919D02*
G01*
X69817899Y-165391305D01*
X69864832Y-165457084D01*
X69922481Y-165547757D01*
X69982262Y-165648826D01*
X70035590Y-165745796D01*
X70073883Y-165824166D01*
X70088554Y-165869441D01*
X70086981Y-165875235D01*
X70056831Y-165879225D01*
X70042288Y-165868052D01*
X70003041Y-165816090D01*
X69953071Y-165734796D01*
X69899449Y-165637785D01*
X69849243Y-165538673D01*
X69809521Y-165451076D01*
X69787353Y-165388609D01*
X69789806Y-165364888D01*
X69790267Y-165364919D01*
G37*
G36*
X77694912Y-170771562D02*
G01*
X77807529Y-170839779D01*
X77871094Y-170906106D01*
X77900541Y-170973809D01*
X77907470Y-171071808D01*
X77900796Y-171168552D01*
X77871813Y-171236503D01*
X77807529Y-171303836D01*
X77744995Y-171349777D01*
X77618852Y-171393701D01*
X77493442Y-171382494D01*
X77380694Y-171318470D01*
X77292539Y-171203943D01*
X77268114Y-171143464D01*
X77258474Y-171024643D01*
X77294781Y-170918914D01*
X77366807Y-170833508D01*
X77464323Y-170775659D01*
X77577101Y-170752599D01*
X77694912Y-170771562D01*
G37*
G36*
X70341355Y-164421248D02*
G01*
X70351405Y-164436593D01*
X70370633Y-164508273D01*
X70377219Y-164604414D01*
X70368596Y-164698856D01*
X70344418Y-164719105D01*
X70295781Y-164717009D01*
X70256868Y-164691205D01*
X70252086Y-164679351D01*
X70270363Y-164660603D01*
X70291682Y-164641598D01*
X70302771Y-164584097D01*
X70293787Y-164534194D01*
X70256868Y-164507591D01*
X70235912Y-164505650D01*
X70210964Y-164490104D01*
X70219703Y-164471131D01*
X70256868Y-164426713D01*
X70260765Y-164422867D01*
X70302678Y-164397139D01*
X70341355Y-164421248D01*
G37*
G36*
X68290993Y-164421248D02*
G01*
X68301043Y-164436593D01*
X68320272Y-164508273D01*
X68326857Y-164604414D01*
X68318234Y-164698856D01*
X68294057Y-164719105D01*
X68245419Y-164717009D01*
X68206506Y-164691205D01*
X68201724Y-164679351D01*
X68220001Y-164660603D01*
X68241321Y-164641598D01*
X68252410Y-164584097D01*
X68243425Y-164534194D01*
X68206506Y-164507591D01*
X68185550Y-164505650D01*
X68160603Y-164490104D01*
X68169342Y-164471131D01*
X68206506Y-164426713D01*
X68210403Y-164422867D01*
X68252316Y-164397139D01*
X68290993Y-164421248D01*
G37*
G36*
X67249552Y-164327275D02*
G01*
X67266396Y-164370353D01*
X67273133Y-164447369D01*
X67273259Y-164456833D01*
X67287769Y-164572538D01*
X67319036Y-164680624D01*
X67327794Y-164701797D01*
X67354278Y-164769144D01*
X67364940Y-164802051D01*
X67364665Y-164803695D01*
X67337824Y-164813615D01*
X67332610Y-164812157D01*
X67299825Y-164776973D01*
X67261318Y-164709532D01*
X67254613Y-164694107D01*
X67230237Y-164608957D01*
X67215962Y-164511332D01*
X67212667Y-164419270D01*
X67221230Y-164350806D01*
X67242530Y-164323976D01*
X67249552Y-164327275D01*
G37*
G36*
X84444941Y-163873463D02*
G01*
X84458236Y-163906903D01*
X84466417Y-163974346D01*
X84470546Y-164084850D01*
X84471687Y-164247470D01*
X84471687Y-164630000D01*
X84272771Y-164630000D01*
X84239425Y-164629814D01*
X84140287Y-164624705D01*
X84088675Y-164610820D01*
X84073856Y-164585774D01*
X84077772Y-164571071D01*
X84121567Y-164545595D01*
X84219217Y-164532219D01*
X84364578Y-164522892D01*
X84373264Y-164193916D01*
X84375432Y-164121977D01*
X84381879Y-163995457D01*
X84391575Y-163916696D01*
X84406046Y-163876316D01*
X84426819Y-163864940D01*
X84444941Y-163873463D01*
G37*
G36*
X82099622Y-181558411D02*
G01*
X82371875Y-181560353D01*
X83324096Y-181568434D01*
X83333876Y-181637290D01*
X83343655Y-181706145D01*
X82364055Y-181706145D01*
X82152150Y-181705713D01*
X81875732Y-181703381D01*
X81658210Y-181699046D01*
X81500153Y-181692726D01*
X81402131Y-181684439D01*
X81364714Y-181674202D01*
X81360035Y-181649392D01*
X81382313Y-181597266D01*
X81382625Y-181596896D01*
X81401405Y-181584187D01*
X81437658Y-181574271D01*
X81497629Y-181566913D01*
X81587566Y-181561881D01*
X81713713Y-181558942D01*
X81882316Y-181557863D01*
X82099622Y-181558411D01*
G37*
G36*
X75019399Y-171891294D02*
G01*
X75032694Y-171924735D01*
X75040875Y-171992178D01*
X75045004Y-172102681D01*
X75046145Y-172265302D01*
X75046145Y-172647832D01*
X74847229Y-172647832D01*
X74813882Y-172647646D01*
X74714745Y-172642536D01*
X74663133Y-172628651D01*
X74648313Y-172603605D01*
X74652230Y-172588902D01*
X74696024Y-172563427D01*
X74793675Y-172550051D01*
X74939036Y-172540723D01*
X74947722Y-172211747D01*
X74949890Y-172139809D01*
X74956337Y-172013289D01*
X74966033Y-171934528D01*
X74980504Y-171894148D01*
X75001276Y-171882772D01*
X75019399Y-171891294D01*
G37*
G36*
X86212171Y-162670738D02*
G01*
X86250045Y-162740302D01*
X86291491Y-162839759D01*
X86307312Y-162750477D01*
X86329004Y-162684942D01*
X86361138Y-162648551D01*
X86378531Y-162650171D01*
X86387786Y-162687935D01*
X86379989Y-162775660D01*
X86374844Y-162887257D01*
X86399285Y-162961743D01*
X86403765Y-162967224D01*
X86420452Y-163000206D01*
X86387411Y-163008073D01*
X86377614Y-163005751D01*
X86330903Y-162968649D01*
X86272707Y-162899922D01*
X86215588Y-162817248D01*
X86172105Y-162738300D01*
X86154819Y-162680756D01*
X86157221Y-162657859D01*
X86177999Y-162641237D01*
X86212171Y-162670738D01*
G37*
G36*
X82530111Y-162560446D02*
G01*
X82570813Y-162613208D01*
X82618230Y-162694398D01*
X82693897Y-162839759D01*
X82695791Y-162732651D01*
X82699903Y-162678706D01*
X82718269Y-162601632D01*
X82745227Y-162555359D01*
X82774113Y-162554997D01*
X82780233Y-162578274D01*
X82780739Y-162648607D01*
X82772251Y-162745376D01*
X82755205Y-162839224D01*
X82724173Y-162906302D01*
X82682473Y-162913333D01*
X82629691Y-162860323D01*
X82565411Y-162747274D01*
X82540432Y-162696142D01*
X82502128Y-162614254D01*
X82486789Y-162570232D01*
X82491301Y-162552388D01*
X82512546Y-162549037D01*
X82530111Y-162560446D01*
G37*
G36*
X71768524Y-164355359D02*
G01*
X71836345Y-164366018D01*
X71863494Y-164385181D01*
X71842642Y-164405729D01*
X71783468Y-164415784D01*
X71731459Y-164418627D01*
X71721719Y-164438500D01*
X71752866Y-164492290D01*
X71795239Y-164557882D01*
X71851712Y-164645302D01*
X71876417Y-164685902D01*
X71883134Y-164715429D01*
X71854337Y-164721808D01*
X71838299Y-164715040D01*
X71791454Y-164669905D01*
X71733986Y-164597023D01*
X71677979Y-164513677D01*
X71635515Y-164437149D01*
X71618675Y-164384721D01*
X71621795Y-164377966D01*
X71664430Y-164361264D01*
X71741084Y-164354579D01*
X71768524Y-164355359D01*
G37*
G36*
X85397953Y-162648060D02*
G01*
X85451037Y-162661083D01*
X85480814Y-162700518D01*
X85503867Y-162783361D01*
X85509721Y-162812321D01*
X85513928Y-162890527D01*
X85497163Y-162920536D01*
X85467832Y-162898063D01*
X85434341Y-162818818D01*
X85432817Y-162813907D01*
X85400012Y-162744171D01*
X85362664Y-162707779D01*
X85343972Y-162705918D01*
X85331987Y-162732234D01*
X85341099Y-162805226D01*
X85343941Y-162821926D01*
X85347328Y-162889720D01*
X85333215Y-162916266D01*
X85304223Y-162899575D01*
X85277346Y-162834043D01*
X85267349Y-162731080D01*
X85272222Y-162675245D01*
X85300321Y-162649359D01*
X85370402Y-162646582D01*
X85397953Y-162648060D01*
G37*
G36*
X70572915Y-164489975D02*
G01*
X70596075Y-164514872D01*
X70606745Y-164547436D01*
X70570542Y-164581690D01*
X70524032Y-164627583D01*
X70526568Y-164654137D01*
X70578193Y-164651736D01*
X70608481Y-164647022D01*
X70639235Y-164661812D01*
X70618996Y-164701406D01*
X70583341Y-164719466D01*
X70514144Y-164713444D01*
X70453035Y-164672593D01*
X70446902Y-164665000D01*
X70429684Y-164622980D01*
X70464589Y-164585062D01*
X70467267Y-164583081D01*
X70509492Y-164540487D01*
X70511200Y-164514552D01*
X70471084Y-164518657D01*
X70447574Y-164523332D01*
X70425181Y-164505670D01*
X70426769Y-164493462D01*
X70459778Y-164461206D01*
X70516785Y-164459163D01*
X70572915Y-164489975D01*
G37*
G36*
X68828578Y-165561060D02*
G01*
X68851738Y-165585957D01*
X68862407Y-165618520D01*
X68826205Y-165652775D01*
X68779694Y-165698667D01*
X68782231Y-165725221D01*
X68833856Y-165722820D01*
X68864143Y-165718107D01*
X68894897Y-165732896D01*
X68874659Y-165772490D01*
X68839003Y-165790550D01*
X68769807Y-165784528D01*
X68708698Y-165743677D01*
X68702565Y-165736084D01*
X68685347Y-165694064D01*
X68720252Y-165656147D01*
X68722930Y-165654165D01*
X68765154Y-165611571D01*
X68766863Y-165585636D01*
X68726747Y-165589742D01*
X68703237Y-165594416D01*
X68680843Y-165576754D01*
X68682432Y-165564546D01*
X68715441Y-165532290D01*
X68772447Y-165530247D01*
X68828578Y-165561060D01*
G37*
G36*
X68522554Y-164489975D02*
G01*
X68545713Y-164514872D01*
X68556383Y-164547436D01*
X68520181Y-164581690D01*
X68473670Y-164627583D01*
X68476207Y-164654137D01*
X68527831Y-164651736D01*
X68558119Y-164647022D01*
X68588873Y-164661812D01*
X68568635Y-164701406D01*
X68532979Y-164719466D01*
X68463783Y-164713444D01*
X68402673Y-164672593D01*
X68396541Y-164665000D01*
X68379323Y-164622980D01*
X68414228Y-164585062D01*
X68416906Y-164583081D01*
X68459130Y-164540487D01*
X68460839Y-164514552D01*
X68420723Y-164518657D01*
X68397213Y-164523332D01*
X68374819Y-164505670D01*
X68376408Y-164493462D01*
X68409417Y-164461206D01*
X68466423Y-164459163D01*
X68522554Y-164489975D01*
G37*
G36*
X67512674Y-164489975D02*
G01*
X67535834Y-164514872D01*
X67546504Y-164547436D01*
X67510301Y-164581690D01*
X67463791Y-164627583D01*
X67466327Y-164654137D01*
X67517952Y-164651736D01*
X67548240Y-164647022D01*
X67578994Y-164661812D01*
X67558755Y-164701406D01*
X67523100Y-164719466D01*
X67453903Y-164713444D01*
X67392794Y-164672593D01*
X67386661Y-164665000D01*
X67369443Y-164622980D01*
X67404348Y-164585062D01*
X67407026Y-164583081D01*
X67449251Y-164540487D01*
X67450959Y-164514552D01*
X67410843Y-164518657D01*
X67387333Y-164523332D01*
X67364940Y-164505670D01*
X67366528Y-164493462D01*
X67399537Y-164461206D01*
X67456544Y-164459163D01*
X67512674Y-164489975D01*
G37*
G36*
X85805486Y-162874637D02*
G01*
X85805292Y-162875134D01*
X85764372Y-162910977D01*
X85698932Y-162910037D01*
X85629007Y-162877265D01*
X85574630Y-162817609D01*
X85551032Y-162770591D01*
X85640101Y-162770591D01*
X85657178Y-162814417D01*
X85703434Y-162849341D01*
X85733732Y-162850589D01*
X85755768Y-162822204D01*
X85738413Y-162750455D01*
X85729033Y-162731562D01*
X85688547Y-162701708D01*
X85650997Y-162716337D01*
X85640101Y-162770591D01*
X85551032Y-162770591D01*
X85549741Y-162768019D01*
X85547012Y-162724561D01*
X85580834Y-162681473D01*
X85588759Y-162674070D01*
X85659722Y-162643037D01*
X85730037Y-162658894D01*
X85786543Y-162710323D01*
X85816079Y-162786010D01*
X85811753Y-162822204D01*
X85805486Y-162874637D01*
G37*
G36*
X82516828Y-181890478D02*
G01*
X82677987Y-181893139D01*
X82793140Y-181898300D01*
X82870076Y-181906515D01*
X82916584Y-181918338D01*
X82940454Y-181934323D01*
X82957334Y-181963629D01*
X82957696Y-182010829D01*
X82940800Y-182018622D01*
X82865840Y-182028970D01*
X82734474Y-182036541D01*
X82549625Y-182041190D01*
X82314217Y-182042772D01*
X82227388Y-182042672D01*
X82020854Y-182040991D01*
X81867427Y-182036434D01*
X81761139Y-182027967D01*
X81696019Y-182014556D01*
X81666099Y-181995168D01*
X81665409Y-181968768D01*
X81687980Y-181934323D01*
X81710157Y-181919045D01*
X81755327Y-181907024D01*
X81830529Y-181898639D01*
X81943552Y-181893337D01*
X82102185Y-181890561D01*
X82314217Y-181889759D01*
X82516828Y-181890478D01*
G37*
G36*
X83767831Y-162564338D02*
G01*
X83779800Y-162568451D01*
X83825106Y-162597243D01*
X83814638Y-162618478D01*
X83752530Y-162617731D01*
X83749361Y-162617147D01*
X83690314Y-162620155D01*
X83677304Y-162653129D01*
X83708765Y-162707944D01*
X83783133Y-162776480D01*
X83811690Y-162799316D01*
X83867901Y-162852479D01*
X83890241Y-162887220D01*
X83871083Y-162903875D01*
X83812300Y-162914216D01*
X83736788Y-162914534D01*
X83668183Y-162904969D01*
X83630121Y-162885663D01*
X83638698Y-162864430D01*
X83692756Y-162855061D01*
X83774304Y-162855061D01*
X83679261Y-162766277D01*
X83657654Y-162744863D01*
X83605202Y-162679520D01*
X83584217Y-162630628D01*
X83584980Y-162622097D01*
X83618871Y-162578465D01*
X83687149Y-162556567D01*
X83767831Y-162564338D01*
G37*
G36*
X83294299Y-162559732D02*
G01*
X83356500Y-162597438D01*
X83379867Y-162616994D01*
X83394787Y-162635938D01*
X83362349Y-162629001D01*
X83337616Y-162622626D01*
X83314551Y-162630004D01*
X83312444Y-162671343D01*
X83327922Y-162759428D01*
X83328872Y-162763948D01*
X83354753Y-162828450D01*
X83389127Y-162855061D01*
X83406706Y-162857876D01*
X83431205Y-162885663D01*
X83430280Y-162889679D01*
X83394892Y-162908579D01*
X83324096Y-162916266D01*
X83310040Y-162916001D01*
X83243890Y-162905890D01*
X83216988Y-162885663D01*
X83218288Y-162877131D01*
X83249653Y-162855061D01*
X83265298Y-162845884D01*
X83267239Y-162801506D01*
X83254474Y-162754531D01*
X83229619Y-162637456D01*
X83229738Y-162570414D01*
X83254611Y-162549037D01*
X83294299Y-162559732D01*
G37*
G36*
X83033374Y-162564338D02*
G01*
X83045343Y-162568451D01*
X83090648Y-162597243D01*
X83080180Y-162618478D01*
X83018072Y-162617731D01*
X83014904Y-162617147D01*
X82955856Y-162620155D01*
X82942846Y-162653129D01*
X82974307Y-162707944D01*
X83048675Y-162776480D01*
X83077232Y-162799316D01*
X83133444Y-162852479D01*
X83155783Y-162887220D01*
X83136625Y-162903875D01*
X83077842Y-162914216D01*
X83002330Y-162914534D01*
X82933725Y-162904969D01*
X82895663Y-162885663D01*
X82904241Y-162864430D01*
X82958298Y-162855061D01*
X83039846Y-162855061D01*
X82944803Y-162766277D01*
X82923196Y-162744863D01*
X82870744Y-162679520D01*
X82849759Y-162630628D01*
X82850522Y-162622097D01*
X82884413Y-162578465D01*
X82952691Y-162556567D01*
X83033374Y-162564338D01*
G37*
G36*
X71757190Y-165436358D02*
G01*
X71819392Y-165474065D01*
X71842758Y-165493621D01*
X71857679Y-165512564D01*
X71825241Y-165505628D01*
X71800508Y-165499252D01*
X71777442Y-165506630D01*
X71775336Y-165547969D01*
X71790813Y-165636055D01*
X71791764Y-165640574D01*
X71817644Y-165705076D01*
X71852018Y-165731687D01*
X71869598Y-165734503D01*
X71894096Y-165762290D01*
X71893171Y-165766306D01*
X71857784Y-165785206D01*
X71786988Y-165792892D01*
X71772932Y-165792628D01*
X71706782Y-165782517D01*
X71679880Y-165762290D01*
X71681179Y-165753758D01*
X71712544Y-165731687D01*
X71728189Y-165722510D01*
X71730130Y-165678133D01*
X71717365Y-165631158D01*
X71692511Y-165514083D01*
X71692629Y-165447040D01*
X71717503Y-165425663D01*
X71757190Y-165436358D01*
G37*
G36*
X71324599Y-164363173D02*
G01*
X71384395Y-164401794D01*
X71403989Y-164484639D01*
X71394048Y-164517490D01*
X71341009Y-164538193D01*
X71301787Y-164549865D01*
X71286385Y-164586935D01*
X71306719Y-164627786D01*
X71359101Y-164649699D01*
X71370933Y-164650569D01*
X71437225Y-164657520D01*
X71458819Y-164668845D01*
X71450362Y-164691205D01*
X71445272Y-164697968D01*
X71391008Y-164720341D01*
X71316155Y-164710571D01*
X71246205Y-164671161D01*
X71239664Y-164665035D01*
X71194557Y-164593282D01*
X71206663Y-164529113D01*
X71274398Y-164483101D01*
X71310279Y-164469406D01*
X71333251Y-164451116D01*
X71305000Y-164434648D01*
X71219529Y-164403188D01*
X71179815Y-164382384D01*
X71190718Y-164370192D01*
X71248237Y-164361453D01*
X71324599Y-164363173D01*
G37*
G36*
X84976229Y-162561504D02*
G01*
X85010713Y-162572577D01*
X85049538Y-162599576D01*
X85038208Y-162619198D01*
X84976627Y-162617731D01*
X84929412Y-162614888D01*
X84901661Y-162634149D01*
X84920308Y-162669520D01*
X84984277Y-162708269D01*
X85038778Y-162732713D01*
X85043725Y-162745671D01*
X84997815Y-162755775D01*
X84957152Y-162769498D01*
X84940108Y-162798945D01*
X84967914Y-162825591D01*
X85033523Y-162833998D01*
X85078905Y-162834892D01*
X85113796Y-162855469D01*
X85093936Y-162895864D01*
X85044892Y-162918913D01*
X84972968Y-162913371D01*
X84903270Y-162882341D01*
X84855443Y-162835059D01*
X84849135Y-162780763D01*
X84855267Y-162743247D01*
X84839449Y-162672443D01*
X84830041Y-162647575D01*
X84841607Y-162592006D01*
X84894917Y-162559601D01*
X84976229Y-162561504D01*
G37*
G36*
X84820824Y-174669028D02*
G01*
X84859809Y-174701792D01*
X84900121Y-174767711D01*
X84948090Y-174838560D01*
X85014880Y-174876286D01*
X85062818Y-174891729D01*
X85084657Y-174925694D01*
X85059668Y-174958753D01*
X84991928Y-174973615D01*
X84900121Y-174973615D01*
X84900121Y-175294940D01*
X84900090Y-175335194D01*
X84898802Y-175465236D01*
X84894102Y-175547543D01*
X84883929Y-175592936D01*
X84866220Y-175612237D01*
X84838916Y-175616266D01*
X84825958Y-175615668D01*
X84806406Y-175607713D01*
X84792997Y-175583285D01*
X84784578Y-175533439D01*
X84779993Y-175449229D01*
X84778089Y-175321707D01*
X84777711Y-175141928D01*
X84778712Y-174967949D01*
X84782498Y-174826697D01*
X84789613Y-174734066D01*
X84800590Y-174683452D01*
X84815964Y-174668253D01*
X84820824Y-174669028D01*
G37*
G36*
X84364181Y-162561504D02*
G01*
X84398665Y-162572577D01*
X84437490Y-162599576D01*
X84426160Y-162619198D01*
X84364578Y-162617731D01*
X84317364Y-162614888D01*
X84289613Y-162634149D01*
X84308260Y-162669520D01*
X84372229Y-162708269D01*
X84426730Y-162732713D01*
X84431676Y-162745671D01*
X84385767Y-162755775D01*
X84345104Y-162769498D01*
X84328060Y-162798945D01*
X84355866Y-162825591D01*
X84421475Y-162833998D01*
X84466857Y-162834892D01*
X84501748Y-162855469D01*
X84481888Y-162895864D01*
X84432844Y-162918913D01*
X84360920Y-162913371D01*
X84291222Y-162882341D01*
X84243395Y-162835059D01*
X84237087Y-162780763D01*
X84243219Y-162743247D01*
X84227401Y-162672443D01*
X84217993Y-162647575D01*
X84229558Y-162592006D01*
X84282868Y-162559601D01*
X84364181Y-162561504D01*
G37*
G36*
X69908687Y-164666563D02*
G01*
X69925648Y-164744759D01*
X69923922Y-164799696D01*
X69893574Y-164811465D01*
X69852906Y-164771123D01*
X69829941Y-164746329D01*
X69767462Y-164717194D01*
X69736960Y-164704384D01*
X69681923Y-164646448D01*
X69649834Y-164574049D01*
X69726848Y-164574049D01*
X69740702Y-164618057D01*
X69778523Y-164653991D01*
X69821619Y-164641916D01*
X69827540Y-164629581D01*
X69818124Y-164581134D01*
X69786607Y-164530808D01*
X69748723Y-164507591D01*
X69731214Y-164522008D01*
X69726848Y-164574049D01*
X69649834Y-164574049D01*
X69647180Y-164568060D01*
X69647485Y-164496377D01*
X69680987Y-164464053D01*
X69767611Y-164452291D01*
X69833779Y-164460562D01*
X69869596Y-164492224D01*
X69889235Y-164566010D01*
X69890166Y-164571132D01*
X69901510Y-164629581D01*
X69908687Y-164666563D01*
G37*
G36*
X69786277Y-165737647D02*
G01*
X69803238Y-165815844D01*
X69801513Y-165870781D01*
X69771164Y-165882550D01*
X69730497Y-165842207D01*
X69707531Y-165817414D01*
X69645052Y-165788278D01*
X69614551Y-165775469D01*
X69559514Y-165717532D01*
X69527425Y-165645134D01*
X69604438Y-165645134D01*
X69618292Y-165689141D01*
X69656113Y-165725075D01*
X69699210Y-165713000D01*
X69705131Y-165700665D01*
X69695714Y-165652218D01*
X69664198Y-165601892D01*
X69626313Y-165578675D01*
X69608804Y-165593092D01*
X69604438Y-165645134D01*
X69527425Y-165645134D01*
X69524771Y-165639145D01*
X69525076Y-165567462D01*
X69558577Y-165535137D01*
X69645201Y-165523375D01*
X69711369Y-165531646D01*
X69747186Y-165563309D01*
X69766825Y-165637094D01*
X69767756Y-165642216D01*
X69779100Y-165700665D01*
X69786277Y-165737647D01*
G37*
G36*
X69395676Y-165397683D02*
G01*
X69410702Y-165414238D01*
X69425952Y-165456280D01*
X69445396Y-165535312D01*
X69473006Y-165662832D01*
X69477335Y-165685549D01*
X69480936Y-165765688D01*
X69463045Y-165796675D01*
X69432634Y-165774573D01*
X69398678Y-165695445D01*
X69391774Y-165674246D01*
X69357011Y-165604549D01*
X69324903Y-165581717D01*
X69305689Y-165607231D01*
X69309609Y-165682570D01*
X69311506Y-165693234D01*
X69316022Y-165765962D01*
X69299572Y-165792892D01*
X69269646Y-165776938D01*
X69241819Y-165710783D01*
X69231687Y-165603207D01*
X69233935Y-165556289D01*
X69252830Y-165522683D01*
X69302946Y-165523957D01*
X69326370Y-165527664D01*
X69361966Y-165518054D01*
X69360583Y-165466320D01*
X69359662Y-165420245D01*
X69380548Y-165395061D01*
X69395676Y-165397683D01*
G37*
G36*
X68779639Y-181920405D02*
G01*
X68969859Y-181921073D01*
X69109811Y-181923073D01*
X69207151Y-181927076D01*
X69269534Y-181933748D01*
X69304616Y-181943758D01*
X69320050Y-181957775D01*
X69323494Y-181976466D01*
X69321601Y-182007723D01*
X69310774Y-182045322D01*
X69310763Y-182045332D01*
X69277851Y-182048428D01*
X69192416Y-182050534D01*
X69063106Y-182051664D01*
X68898571Y-182051833D01*
X68707459Y-182051055D01*
X68498418Y-182049346D01*
X68280097Y-182046721D01*
X68061145Y-182043193D01*
X68047841Y-182031542D01*
X68038193Y-181981567D01*
X68039080Y-181967114D01*
X68047221Y-181950312D01*
X68070379Y-181938106D01*
X68116251Y-181929763D01*
X68192535Y-181924550D01*
X68306930Y-181921735D01*
X68467134Y-181920583D01*
X68680843Y-181920362D01*
X68779639Y-181920405D01*
G37*
G36*
X67858326Y-164666563D02*
G01*
X67875287Y-164744759D01*
X67873561Y-164799696D01*
X67843212Y-164811465D01*
X67802545Y-164771123D01*
X67779579Y-164746329D01*
X67717101Y-164717194D01*
X67686599Y-164704384D01*
X67631562Y-164646448D01*
X67599473Y-164574049D01*
X67676486Y-164574049D01*
X67690340Y-164618057D01*
X67728161Y-164653991D01*
X67771258Y-164641916D01*
X67777179Y-164629581D01*
X67767762Y-164581134D01*
X67736246Y-164530808D01*
X67698361Y-164507591D01*
X67680853Y-164522008D01*
X67676486Y-164574049D01*
X67599473Y-164574049D01*
X67596819Y-164568060D01*
X67597124Y-164496377D01*
X67630625Y-164464053D01*
X67717249Y-164452291D01*
X67783417Y-164460562D01*
X67819235Y-164492224D01*
X67838873Y-164566010D01*
X67839804Y-164571132D01*
X67851148Y-164629581D01*
X67858326Y-164666563D01*
G37*
G36*
X86704765Y-162842338D02*
G01*
X86687392Y-162893733D01*
X86651624Y-162905508D01*
X86582448Y-162909539D01*
X86570440Y-162908985D01*
X86507036Y-162888490D01*
X86476856Y-162827513D01*
X86461705Y-162766445D01*
X86451743Y-162729558D01*
X86524570Y-162729558D01*
X86540618Y-162785852D01*
X86562499Y-162813860D01*
X86608391Y-162848139D01*
X86608964Y-162848325D01*
X86637462Y-162837234D01*
X86643670Y-162794681D01*
X86629592Y-162745020D01*
X86597234Y-162712609D01*
X86555433Y-162704991D01*
X86524570Y-162729558D01*
X86451743Y-162729558D01*
X86443510Y-162699072D01*
X86440725Y-162683821D01*
X86460021Y-162656703D01*
X86528219Y-162647372D01*
X86528505Y-162647364D01*
X86609867Y-162654955D01*
X86666509Y-162677048D01*
X86682393Y-162698575D01*
X86702062Y-162766539D01*
X86703066Y-162794681D01*
X86704765Y-162842338D01*
G37*
G36*
X71280671Y-165718332D02*
G01*
X71261647Y-165772490D01*
X71233891Y-165788050D01*
X71161740Y-165787288D01*
X71084316Y-165751638D01*
X71082609Y-165750363D01*
X71040340Y-165686601D01*
X71024913Y-165575674D01*
X71024495Y-165547517D01*
X71084865Y-165547517D01*
X71093781Y-165625312D01*
X71126012Y-165691632D01*
X71173935Y-165727137D01*
X71204357Y-165728655D01*
X71218607Y-165704293D01*
X71209414Y-165636286D01*
X71208420Y-165631408D01*
X71178451Y-165536506D01*
X71140613Y-165492456D01*
X71099231Y-165504433D01*
X71084865Y-165547517D01*
X71024495Y-165547517D01*
X71024422Y-165542568D01*
X71029677Y-165474183D01*
X71052678Y-165443142D01*
X71103125Y-165431567D01*
X71167084Y-165437107D01*
X71233186Y-165491930D01*
X71259202Y-165545952D01*
X71278963Y-165634019D01*
X71280387Y-165704293D01*
X71280671Y-165718332D01*
G37*
G36*
X69318049Y-164632478D02*
G01*
X69300709Y-164655148D01*
X69246988Y-164660603D01*
X69196671Y-164668201D01*
X69170482Y-164691205D01*
X69169381Y-164703882D01*
X69146754Y-164719323D01*
X69099441Y-164683555D01*
X69088472Y-164665831D01*
X69067398Y-164594551D01*
X69060271Y-164538193D01*
X69139880Y-164538193D01*
X69148287Y-164573826D01*
X69186860Y-164599398D01*
X69193686Y-164599237D01*
X69218152Y-164585258D01*
X69201084Y-164538193D01*
X69177813Y-164500415D01*
X69154104Y-164476988D01*
X69145862Y-164488385D01*
X69139880Y-164538193D01*
X69060271Y-164538193D01*
X69055434Y-164499940D01*
X69054250Y-164455929D01*
X69065375Y-164377530D01*
X69097789Y-164355953D01*
X69152132Y-164391136D01*
X69229039Y-164483017D01*
X69239757Y-164497654D01*
X69298050Y-164583133D01*
X69298911Y-164585258D01*
X69318049Y-164632478D01*
G37*
G36*
X69169584Y-165718965D02*
G01*
X69152212Y-165770359D01*
X69116443Y-165782134D01*
X69047267Y-165786165D01*
X69035259Y-165785612D01*
X68971855Y-165765117D01*
X68941675Y-165704140D01*
X68926524Y-165643072D01*
X68916562Y-165606185D01*
X68989390Y-165606185D01*
X69005437Y-165662478D01*
X69027318Y-165690486D01*
X69073211Y-165724765D01*
X69073783Y-165724951D01*
X69102281Y-165713861D01*
X69108489Y-165671307D01*
X69094412Y-165621647D01*
X69062054Y-165589235D01*
X69020252Y-165581618D01*
X68989390Y-165606185D01*
X68916562Y-165606185D01*
X68908329Y-165575698D01*
X68905545Y-165560447D01*
X68924841Y-165533329D01*
X68993039Y-165523999D01*
X68993324Y-165523991D01*
X69074686Y-165531582D01*
X69131328Y-165553675D01*
X69147212Y-165575202D01*
X69166882Y-165643166D01*
X69167885Y-165671307D01*
X69169584Y-165718965D01*
G37*
G36*
X70845226Y-165659608D02*
G01*
X70851197Y-165689228D01*
X70855317Y-165767284D01*
X70838552Y-165797214D01*
X70809257Y-165774704D01*
X70775786Y-165695445D01*
X70768882Y-165674246D01*
X70734119Y-165604549D01*
X70702011Y-165581717D01*
X70682798Y-165607231D01*
X70686718Y-165682570D01*
X70692262Y-165758753D01*
X70675759Y-165792936D01*
X70646515Y-165772551D01*
X70615915Y-165695516D01*
X70609195Y-165672191D01*
X70576578Y-165603080D01*
X70544586Y-165580518D01*
X70524023Y-165606165D01*
X70525695Y-165681677D01*
X70531228Y-165722911D01*
X70527595Y-165777533D01*
X70499763Y-165792892D01*
X70469923Y-165775413D01*
X70450683Y-165716386D01*
X70446450Y-165654354D01*
X70446547Y-165580458D01*
X70467934Y-165544358D01*
X70523867Y-165532054D01*
X70627604Y-165529547D01*
X70814726Y-165526323D01*
X70845226Y-165659608D01*
G37*
G36*
X70176766Y-164571729D02*
G01*
X70178544Y-164648816D01*
X70159960Y-164701406D01*
X70135920Y-164714402D01*
X70078017Y-164721533D01*
X70021919Y-164713194D01*
X69996747Y-164691205D01*
X70008224Y-164673418D01*
X70057952Y-164660603D01*
X70093526Y-164654864D01*
X70119157Y-164630000D01*
X70109355Y-164612957D01*
X70061699Y-164599398D01*
X70050120Y-164598698D01*
X69989512Y-164573430D01*
X69950290Y-164526996D01*
X70032763Y-164526996D01*
X70057952Y-164538193D01*
X70074153Y-164535985D01*
X70078354Y-164517792D01*
X70073868Y-164514129D01*
X70037550Y-164517792D01*
X70032763Y-164526996D01*
X69950290Y-164526996D01*
X69949941Y-164526583D01*
X69950015Y-164478329D01*
X69956667Y-164470194D01*
X70011864Y-164448764D01*
X70084477Y-164453323D01*
X70143639Y-164483109D01*
X70157042Y-164502454D01*
X70161409Y-164517792D01*
X70176766Y-164571729D01*
G37*
G36*
X68646646Y-165642813D02*
G01*
X68648424Y-165719901D01*
X68629839Y-165772490D01*
X68605799Y-165785486D01*
X68547897Y-165792617D01*
X68491798Y-165784278D01*
X68466627Y-165762290D01*
X68478104Y-165744503D01*
X68527831Y-165731687D01*
X68563405Y-165725949D01*
X68589036Y-165701085D01*
X68579235Y-165684042D01*
X68531579Y-165670482D01*
X68519999Y-165669783D01*
X68459392Y-165644515D01*
X68420170Y-165598081D01*
X68502642Y-165598081D01*
X68527831Y-165609278D01*
X68544032Y-165607069D01*
X68548233Y-165588876D01*
X68543748Y-165585213D01*
X68507430Y-165588876D01*
X68502642Y-165598081D01*
X68420170Y-165598081D01*
X68419820Y-165597667D01*
X68419894Y-165549413D01*
X68426547Y-165541279D01*
X68481743Y-165519848D01*
X68554357Y-165524407D01*
X68613518Y-165554193D01*
X68626921Y-165573538D01*
X68631288Y-165588876D01*
X68646646Y-165642813D01*
G37*
G36*
X68126405Y-164571729D02*
G01*
X68128183Y-164648816D01*
X68109598Y-164701406D01*
X68085558Y-164714402D01*
X68027656Y-164721533D01*
X67971557Y-164713194D01*
X67946386Y-164691205D01*
X67957863Y-164673418D01*
X68007590Y-164660603D01*
X68043164Y-164654864D01*
X68068795Y-164630000D01*
X68058994Y-164612957D01*
X68011338Y-164599398D01*
X67999758Y-164598698D01*
X67939151Y-164573430D01*
X67899928Y-164526996D01*
X67982401Y-164526996D01*
X68007590Y-164538193D01*
X68023791Y-164535985D01*
X68027992Y-164517792D01*
X68023507Y-164514129D01*
X67987189Y-164517792D01*
X67982401Y-164526996D01*
X67899928Y-164526996D01*
X67899579Y-164526583D01*
X67899654Y-164478329D01*
X67906306Y-164470194D01*
X67961502Y-164448764D01*
X68034116Y-164453323D01*
X68093277Y-164483109D01*
X68106680Y-164502454D01*
X68111047Y-164517792D01*
X68126405Y-164571729D01*
G37*
G36*
X86990578Y-162552593D02*
G01*
X87016020Y-162583097D01*
X87037380Y-162653599D01*
X87058603Y-162774642D01*
X87062492Y-162806321D01*
X87062069Y-162882543D01*
X87047237Y-162918044D01*
X87024189Y-162906043D01*
X86999120Y-162839759D01*
X86976282Y-162790667D01*
X86919297Y-162763253D01*
X86873124Y-162779657D01*
X86858675Y-162839759D01*
X86857975Y-162863583D01*
X86845964Y-162911409D01*
X86823409Y-162907067D01*
X86795995Y-162855525D01*
X86769403Y-162761747D01*
X86766377Y-162747594D01*
X86745265Y-162641957D01*
X86738335Y-162581993D01*
X86745402Y-162555190D01*
X86766285Y-162549037D01*
X86790932Y-162568227D01*
X86815506Y-162625543D01*
X86841862Y-162679273D01*
X86903652Y-162702049D01*
X86924172Y-162701239D01*
X86959495Y-162682557D01*
X86957972Y-162625543D01*
X86956159Y-162574419D01*
X86974243Y-162549037D01*
X86990578Y-162552593D01*
G37*
G36*
X82823325Y-172531022D02*
G01*
X82843752Y-172572366D01*
X82849759Y-172663133D01*
X82849759Y-172800844D01*
X82987470Y-172800844D01*
X83045879Y-172802710D01*
X83107159Y-172816492D01*
X83125181Y-172846747D01*
X83119581Y-172866217D01*
X83078237Y-172886644D01*
X82987470Y-172892651D01*
X82849759Y-172892651D01*
X82849759Y-173030362D01*
X82847893Y-173088771D01*
X82834111Y-173150050D01*
X82803856Y-173168073D01*
X82784386Y-173162473D01*
X82763959Y-173121129D01*
X82757952Y-173030362D01*
X82757952Y-172892651D01*
X82620241Y-172892651D01*
X82561832Y-172890785D01*
X82500553Y-172877003D01*
X82482530Y-172846747D01*
X82488130Y-172827278D01*
X82529474Y-172806851D01*
X82620241Y-172800844D01*
X82757952Y-172800844D01*
X82757952Y-172663133D01*
X82759818Y-172604724D01*
X82773600Y-172543444D01*
X82803856Y-172525422D01*
X82823325Y-172531022D01*
G37*
G36*
X81442048Y-168654217D02*
G01*
X81442048Y-169036747D01*
X81243133Y-169036747D01*
X81197989Y-169036411D01*
X81104948Y-169030903D01*
X81057497Y-169016592D01*
X81044217Y-168990844D01*
X81049816Y-168971374D01*
X81091161Y-168950948D01*
X81181928Y-168944940D01*
X81319639Y-168944940D01*
X81319639Y-168822531D01*
X81319639Y-168700121D01*
X81197229Y-168700121D01*
X81162037Y-168699288D01*
X81095033Y-168686136D01*
X81074819Y-168654217D01*
X81077041Y-168641020D01*
X81112114Y-168615894D01*
X81197229Y-168608314D01*
X81319639Y-168608314D01*
X81319639Y-168485904D01*
X81319639Y-168363494D01*
X81181928Y-168363494D01*
X81123519Y-168361628D01*
X81062239Y-168347846D01*
X81044217Y-168317591D01*
X81045674Y-168307173D01*
X81069544Y-168285702D01*
X81131558Y-168274752D01*
X81243133Y-168271687D01*
X81442048Y-168271687D01*
X81442048Y-168654217D01*
G37*
G36*
X73944458Y-172265302D02*
G01*
X73944458Y-172647832D01*
X73745542Y-172647832D01*
X73700398Y-172647496D01*
X73607358Y-172641987D01*
X73559906Y-172627676D01*
X73546627Y-172601928D01*
X73552226Y-172582459D01*
X73593570Y-172562032D01*
X73684337Y-172556025D01*
X73822048Y-172556025D01*
X73822048Y-172433615D01*
X73822048Y-172311205D01*
X73699639Y-172311205D01*
X73664447Y-172310372D01*
X73597442Y-172297220D01*
X73577229Y-172265302D01*
X73579451Y-172252105D01*
X73614523Y-172226978D01*
X73699639Y-172219398D01*
X73822048Y-172219398D01*
X73822048Y-172096988D01*
X73822048Y-171974579D01*
X73684337Y-171974579D01*
X73625929Y-171972712D01*
X73564649Y-171958931D01*
X73546627Y-171928675D01*
X73548083Y-171918257D01*
X73571954Y-171896786D01*
X73633967Y-171885836D01*
X73745542Y-171882772D01*
X73944458Y-171882772D01*
X73944458Y-172265302D01*
G37*
G36*
X71569181Y-165569429D02*
G01*
X71545590Y-165620484D01*
X71473943Y-165639880D01*
X71445734Y-165640627D01*
X71416259Y-165652140D01*
X71435060Y-165685784D01*
X71462999Y-165709461D01*
X71530615Y-165731687D01*
X71562614Y-165736907D01*
X71588072Y-165762290D01*
X71571270Y-165788834D01*
X71520300Y-165790825D01*
X71453018Y-165765780D01*
X71387766Y-165717777D01*
X71329609Y-165635671D01*
X71309732Y-165549457D01*
X71314803Y-165532772D01*
X71402841Y-165532772D01*
X71409155Y-165549806D01*
X71452270Y-165573947D01*
X71480730Y-165573821D01*
X71489589Y-165543345D01*
X71463428Y-165510932D01*
X71424151Y-165504332D01*
X71402841Y-165532772D01*
X71314803Y-165532772D01*
X71331422Y-165478090D01*
X71394320Y-165436934D01*
X71397555Y-165436139D01*
X71471327Y-165435403D01*
X71530496Y-165483750D01*
X71540842Y-165497413D01*
X71558917Y-165543345D01*
X71569181Y-165569429D01*
G37*
G36*
X70973071Y-164350849D02*
G01*
X70991109Y-164369179D01*
X71039008Y-164368780D01*
X71063633Y-164361089D01*
X71058691Y-164395462D01*
X71052863Y-164423601D01*
X71068792Y-164446386D01*
X71077672Y-164447948D01*
X71098434Y-164480263D01*
X71091205Y-164495399D01*
X71050941Y-164495914D01*
X71027070Y-164490551D01*
X71022144Y-164507941D01*
X71026814Y-164519493D01*
X71008433Y-164538193D01*
X70999576Y-164537061D01*
X70976024Y-164508551D01*
X70969526Y-164495888D01*
X70930121Y-164496524D01*
X70906477Y-164500725D01*
X70884217Y-164480263D01*
X70886864Y-164467744D01*
X70922470Y-164443970D01*
X70945021Y-164439945D01*
X70922470Y-164426119D01*
X70908165Y-164418168D01*
X70884217Y-164380825D01*
X70886556Y-164370852D01*
X70914819Y-164369880D01*
X70928392Y-164374088D01*
X70945890Y-164348734D01*
X70950984Y-164325626D01*
X70973071Y-164350849D01*
G37*
G36*
X70374367Y-165667845D02*
G01*
X70411081Y-165738972D01*
X70425181Y-165773665D01*
X70409521Y-165793711D01*
X70373854Y-165782917D01*
X70344440Y-165746988D01*
X70337114Y-165733257D01*
X70286840Y-165704193D01*
X70220449Y-165711659D01*
X70163286Y-165754591D01*
X70133793Y-165787146D01*
X70107333Y-165784869D01*
X70099869Y-165724651D01*
X70111456Y-165606653D01*
X70113572Y-165595782D01*
X70180362Y-165595782D01*
X70186883Y-165617659D01*
X70229539Y-165639880D01*
X70257301Y-165632388D01*
X70260142Y-165591473D01*
X70251151Y-165566207D01*
X70241566Y-165528463D01*
X70239590Y-165524533D01*
X70210964Y-165532772D01*
X70199012Y-165543680D01*
X70180362Y-165595782D01*
X70113572Y-165595782D01*
X70128866Y-165517229D01*
X70160981Y-165445947D01*
X70204122Y-165434144D01*
X70259967Y-165481682D01*
X70330194Y-165588419D01*
X70331892Y-165591473D01*
X70374367Y-165667845D01*
G37*
G36*
X70333374Y-169419278D02*
G01*
X70333374Y-169801808D01*
X70134458Y-169801808D01*
X70089314Y-169801472D01*
X69996273Y-169795963D01*
X69948822Y-169781652D01*
X69935542Y-169755904D01*
X69941142Y-169736435D01*
X69982486Y-169716008D01*
X70073253Y-169710000D01*
X70210964Y-169710000D01*
X70210964Y-169587591D01*
X70210964Y-169465181D01*
X70088554Y-169465181D01*
X70053362Y-169464348D01*
X69986358Y-169451196D01*
X69966145Y-169419278D01*
X69968366Y-169406081D01*
X70003439Y-169380954D01*
X70088554Y-169373374D01*
X70210964Y-169373374D01*
X70210964Y-169250964D01*
X70210964Y-169128555D01*
X70073253Y-169128555D01*
X70014844Y-169126688D01*
X69953565Y-169112907D01*
X69935542Y-169082651D01*
X69936999Y-169072233D01*
X69960869Y-169050762D01*
X70022883Y-169039812D01*
X70134458Y-169036747D01*
X70333374Y-169036747D01*
X70333374Y-169419278D01*
G37*
G36*
X69782530Y-169419278D02*
G01*
X69782530Y-169801808D01*
X69583615Y-169801808D01*
X69538471Y-169801472D01*
X69445430Y-169795963D01*
X69397979Y-169781652D01*
X69384699Y-169755904D01*
X69390298Y-169736435D01*
X69431643Y-169716008D01*
X69522410Y-169710000D01*
X69660121Y-169710000D01*
X69660121Y-169587591D01*
X69660121Y-169465181D01*
X69537711Y-169465181D01*
X69502519Y-169464348D01*
X69435514Y-169451196D01*
X69415301Y-169419278D01*
X69417523Y-169406081D01*
X69452596Y-169380954D01*
X69537711Y-169373374D01*
X69660121Y-169373374D01*
X69660121Y-169250964D01*
X69660121Y-169128555D01*
X69522410Y-169128555D01*
X69464001Y-169126688D01*
X69402721Y-169112907D01*
X69384699Y-169082651D01*
X69386155Y-169072233D01*
X69410026Y-169050762D01*
X69472040Y-169039812D01*
X69583615Y-169036747D01*
X69782530Y-169036747D01*
X69782530Y-169419278D01*
G37*
G36*
X69327662Y-172408612D02*
G01*
X69348089Y-172449956D01*
X69354096Y-172540723D01*
X69354096Y-172678434D01*
X69491807Y-172678434D01*
X69550216Y-172680301D01*
X69611496Y-172694082D01*
X69629518Y-172724338D01*
X69623919Y-172743807D01*
X69582574Y-172764234D01*
X69491807Y-172770241D01*
X69354096Y-172770241D01*
X69354096Y-172907952D01*
X69352230Y-172966361D01*
X69338449Y-173027641D01*
X69308193Y-173045663D01*
X69288723Y-173040064D01*
X69268297Y-172998719D01*
X69262289Y-172907952D01*
X69262289Y-172770241D01*
X69124578Y-172770241D01*
X69066170Y-172768375D01*
X69004890Y-172754593D01*
X68986868Y-172724338D01*
X68992467Y-172704868D01*
X69033811Y-172684442D01*
X69124578Y-172678434D01*
X69262289Y-172678434D01*
X69262289Y-172540723D01*
X69264156Y-172482315D01*
X69277937Y-172421035D01*
X69308193Y-172403013D01*
X69327662Y-172408612D01*
G37*
G36*
X86123042Y-162842795D02*
G01*
X86105947Y-162893733D01*
X86068464Y-162905637D01*
X85998248Y-162909460D01*
X85926768Y-162893309D01*
X85894356Y-162842736D01*
X85885233Y-162802125D01*
X85869473Y-162729558D01*
X85943125Y-162729558D01*
X85959172Y-162785852D01*
X85981053Y-162813860D01*
X86026945Y-162848139D01*
X86027518Y-162848325D01*
X86056016Y-162837234D01*
X86062224Y-162794681D01*
X86048147Y-162745020D01*
X86015789Y-162712609D01*
X85973987Y-162704991D01*
X85943125Y-162729558D01*
X85869473Y-162729558D01*
X85857097Y-162672569D01*
X85842098Y-162589707D01*
X85839378Y-162543254D01*
X85848080Y-162522925D01*
X85867349Y-162518434D01*
X85892231Y-162530007D01*
X85910000Y-162579639D01*
X85923609Y-162623821D01*
X85980386Y-162640844D01*
X86028873Y-162647920D01*
X86087494Y-162677567D01*
X86101352Y-162698115D01*
X86120598Y-162766904D01*
X86121493Y-162794681D01*
X86123042Y-162842795D01*
G37*
G36*
X84778113Y-162837393D02*
G01*
X84757309Y-162895864D01*
X84729908Y-162911267D01*
X84658107Y-162910953D01*
X84581738Y-162876298D01*
X84550198Y-162840897D01*
X84537593Y-162783075D01*
X84599319Y-162783075D01*
X84613390Y-162814107D01*
X84666082Y-162849838D01*
X84704730Y-162847074D01*
X84711283Y-162804637D01*
X84697212Y-162773604D01*
X84644520Y-162737874D01*
X84605872Y-162740638D01*
X84599319Y-162783075D01*
X84537593Y-162783075D01*
X84535328Y-162772684D01*
X84559187Y-162710083D01*
X84617502Y-162676909D01*
X84650980Y-162668213D01*
X84669778Y-162644441D01*
X84642551Y-162620900D01*
X84576989Y-162610241D01*
X84528422Y-162602843D01*
X84502289Y-162579639D01*
X84509269Y-162566279D01*
X84554207Y-162551481D01*
X84617992Y-162553164D01*
X84673672Y-162572457D01*
X84693750Y-162589477D01*
X84740356Y-162661086D01*
X84770470Y-162751429D01*
X84775201Y-162804637D01*
X84778113Y-162837393D01*
G37*
G36*
X84166065Y-162837393D02*
G01*
X84145261Y-162895864D01*
X84117860Y-162911267D01*
X84046058Y-162910953D01*
X83969690Y-162876298D01*
X83938150Y-162840897D01*
X83925545Y-162783075D01*
X83987271Y-162783075D01*
X84001342Y-162814107D01*
X84054034Y-162849838D01*
X84092682Y-162847074D01*
X84099235Y-162804637D01*
X84085164Y-162773604D01*
X84032472Y-162737874D01*
X83993824Y-162740638D01*
X83987271Y-162783075D01*
X83925545Y-162783075D01*
X83923280Y-162772684D01*
X83947138Y-162710083D01*
X84005454Y-162676909D01*
X84038932Y-162668213D01*
X84057729Y-162644441D01*
X84030503Y-162620900D01*
X83964941Y-162610241D01*
X83916374Y-162602843D01*
X83890241Y-162579639D01*
X83897221Y-162566279D01*
X83942159Y-162551481D01*
X84005944Y-162553164D01*
X84061624Y-162572457D01*
X84081702Y-162589477D01*
X84128308Y-162661086D01*
X84158422Y-162751429D01*
X84163153Y-162804637D01*
X84166065Y-162837393D01*
G37*
G36*
X71170062Y-178891117D02*
G01*
X71263784Y-178894579D01*
X71315912Y-178903991D01*
X71338412Y-178922169D01*
X71343253Y-178951928D01*
X71339576Y-178979850D01*
X71316693Y-179001391D01*
X71260503Y-179010960D01*
X71157088Y-179013133D01*
X71071272Y-179015813D01*
X71003390Y-179024116D01*
X70981300Y-179036085D01*
X70992591Y-179058853D01*
X71026280Y-179124218D01*
X71072244Y-179212049D01*
X71102814Y-179274403D01*
X71157979Y-179407002D01*
X71205522Y-179544633D01*
X71238869Y-179667367D01*
X71251446Y-179755274D01*
X71238258Y-179796094D01*
X71185128Y-179803273D01*
X71160981Y-179796720D01*
X71129302Y-179767751D01*
X71104130Y-179704845D01*
X71078614Y-179594579D01*
X71044448Y-179467109D01*
X70991009Y-179315856D01*
X70930715Y-179177178D01*
X70918123Y-179151401D01*
X70869748Y-179047492D01*
X70835812Y-178966695D01*
X70823012Y-178924708D01*
X70851747Y-178906235D01*
X70939162Y-178894648D01*
X71083133Y-178890723D01*
X71170062Y-178891117D01*
G37*
G36*
X80891205Y-168654217D02*
G01*
X80891205Y-169036747D01*
X80736802Y-169036747D01*
X80650108Y-169032607D01*
X80571206Y-169010450D01*
X80507284Y-168961632D01*
X80502760Y-168957064D01*
X80465394Y-168911147D01*
X80444055Y-168857157D01*
X80434420Y-168777409D01*
X80432169Y-168654217D01*
X80523976Y-168654217D01*
X80524517Y-168680972D01*
X80534736Y-168785126D01*
X80553821Y-168866442D01*
X80558336Y-168877597D01*
X80600651Y-168930577D01*
X80676231Y-168944940D01*
X80768795Y-168944940D01*
X80768795Y-168654217D01*
X80768795Y-168363494D01*
X80676231Y-168363494D01*
X80625217Y-168371088D01*
X80566972Y-168416995D01*
X80534225Y-168509462D01*
X80523976Y-168654217D01*
X80432169Y-168654217D01*
X80432183Y-168640212D01*
X80434948Y-168521891D01*
X80445506Y-168445339D01*
X80468177Y-168392871D01*
X80507284Y-168346802D01*
X80555956Y-168306641D01*
X80629106Y-168279036D01*
X80736802Y-168271687D01*
X80891205Y-168271687D01*
X80891205Y-168363494D01*
X80891205Y-168654217D01*
G37*
G36*
X77280121Y-162885663D02*
G01*
X77280121Y-163375302D01*
X77203615Y-163375302D01*
X77193495Y-163375231D01*
X77156227Y-163369444D01*
X77136395Y-163344356D01*
X77128517Y-163286001D01*
X77127109Y-163180415D01*
X77127109Y-162985529D01*
X77003533Y-162968954D01*
X77002165Y-162968769D01*
X76855522Y-162929366D01*
X76759567Y-162857158D01*
X76712489Y-162750787D01*
X76712309Y-162749823D01*
X76712798Y-162723442D01*
X76856292Y-162723442D01*
X76899776Y-162806971D01*
X76955094Y-162839141D01*
X77037487Y-162855061D01*
X77088672Y-162852073D01*
X77115372Y-162833065D01*
X77125511Y-162782977D01*
X77127109Y-162686747D01*
X77127109Y-162518434D01*
X77021077Y-162518434D01*
X76937168Y-162530895D01*
X76883366Y-162577627D01*
X76864550Y-162621456D01*
X76856292Y-162723442D01*
X76712798Y-162723442D01*
X76714663Y-162622800D01*
X76763840Y-162511914D01*
X76851687Y-162435624D01*
X76894248Y-162420829D01*
X76992146Y-162403441D01*
X77104157Y-162396476D01*
X77280121Y-162396025D01*
X77280121Y-162518434D01*
X77280121Y-162885663D01*
G37*
G36*
X68944476Y-164494174D02*
G01*
X68942516Y-164531644D01*
X68972711Y-164589613D01*
X68996426Y-164625272D01*
X69001871Y-164633459D01*
X68984177Y-164679146D01*
X68934968Y-164713567D01*
X68863890Y-164719572D01*
X68797699Y-164694089D01*
X68755015Y-164645106D01*
X68754751Y-164614699D01*
X68832239Y-164614699D01*
X68838552Y-164631734D01*
X68881667Y-164655875D01*
X68910127Y-164655748D01*
X68918986Y-164625272D01*
X68892825Y-164592859D01*
X68853548Y-164586260D01*
X68832239Y-164614699D01*
X68754751Y-164614699D01*
X68754454Y-164580608D01*
X68759426Y-164550718D01*
X68739153Y-164488801D01*
X68738839Y-164488421D01*
X68719079Y-164432062D01*
X68779785Y-164432062D01*
X68786694Y-164474952D01*
X68790302Y-164480363D01*
X68835865Y-164506314D01*
X68879893Y-164476772D01*
X68882414Y-164457374D01*
X68849777Y-164427088D01*
X68817557Y-164419013D01*
X68779785Y-164432062D01*
X68719079Y-164432062D01*
X68717160Y-164426589D01*
X68745648Y-164375712D01*
X68813847Y-164354579D01*
X68816563Y-164354601D01*
X68894170Y-164376670D01*
X68942035Y-164428780D01*
X68943102Y-164457374D01*
X68944476Y-164494174D01*
G37*
G36*
X83282453Y-163923441D02*
G01*
X83304632Y-163942906D01*
X83331526Y-163979496D01*
X83346617Y-164032508D01*
X83353233Y-164116860D01*
X83354699Y-164247470D01*
X83354289Y-164329317D01*
X83350259Y-164431424D01*
X83339160Y-164495878D01*
X83317667Y-164537597D01*
X83282453Y-164571499D01*
X83259893Y-164587919D01*
X83156954Y-164624467D01*
X83057055Y-164608210D01*
X82974665Y-164544512D01*
X82924253Y-164438735D01*
X82917629Y-164405775D01*
X82923502Y-164364478D01*
X82965026Y-164354579D01*
X83015144Y-164375375D01*
X83044084Y-164446386D01*
X83050487Y-164473534D01*
X83080753Y-164524918D01*
X83140474Y-164538193D01*
X83167468Y-164535310D01*
X83229588Y-164492596D01*
X83266193Y-164397289D01*
X83278193Y-164247470D01*
X83274790Y-164157157D01*
X83251433Y-164040441D01*
X83204616Y-163976508D01*
X83132817Y-163962367D01*
X83068264Y-163983850D01*
X83038896Y-164040904D01*
X83023095Y-164083957D01*
X82970040Y-164109759D01*
X82943881Y-164106252D01*
X82914005Y-164073476D01*
X82928396Y-164014633D01*
X82986079Y-163940055D01*
X83074763Y-163880328D01*
X83178700Y-163871671D01*
X83282453Y-163923441D01*
G37*
G36*
X74522698Y-171885315D02*
G01*
X74539606Y-171907851D01*
X74549936Y-171961907D01*
X74555099Y-172057362D01*
X74556506Y-172204097D01*
X74555740Y-172322787D01*
X74551361Y-172432651D01*
X74541225Y-172504517D01*
X74523237Y-172551478D01*
X74495301Y-172586627D01*
X74408641Y-172636536D01*
X74300451Y-172642357D01*
X74196086Y-172600193D01*
X74186462Y-172593211D01*
X74159611Y-172566714D01*
X74142533Y-172528207D01*
X74133042Y-172465394D01*
X74128950Y-172365978D01*
X74128072Y-172217663D01*
X74128584Y-172114793D01*
X74132020Y-171998702D01*
X74139842Y-171927816D01*
X74153383Y-171892412D01*
X74173976Y-171882772D01*
X74180122Y-171883308D01*
X74199975Y-171899540D01*
X74212126Y-171946037D01*
X74218214Y-172033090D01*
X74219880Y-172170992D01*
X74220080Y-172235718D01*
X74223557Y-172376660D01*
X74233478Y-172469550D01*
X74252570Y-172524000D01*
X74283563Y-172549620D01*
X74329185Y-172556025D01*
X74371903Y-172549761D01*
X74416582Y-172515581D01*
X74445128Y-172444559D01*
X74460260Y-172328750D01*
X74464699Y-172160205D01*
X74464731Y-172137238D01*
X74467068Y-172010260D01*
X74474341Y-171932478D01*
X74488278Y-171893459D01*
X74510603Y-171882772D01*
X74522698Y-171885315D01*
G37*
G36*
X82717265Y-163866743D02*
G01*
X82736035Y-163880014D01*
X82747943Y-163914801D01*
X82754534Y-163981025D01*
X82757355Y-164088608D01*
X82757952Y-164247470D01*
X82757641Y-164377190D01*
X82755502Y-164494715D01*
X82749934Y-164568816D01*
X82739346Y-164609436D01*
X82722147Y-164626516D01*
X82696747Y-164630000D01*
X82658669Y-164621166D01*
X82639923Y-164583085D01*
X82635074Y-164499940D01*
X82629671Y-164422900D01*
X82612636Y-164344695D01*
X82589104Y-164296667D01*
X82564382Y-164294260D01*
X82550633Y-164316425D01*
X82515901Y-164380646D01*
X82470395Y-164469338D01*
X82428486Y-164545422D01*
X82376091Y-164610251D01*
X82326237Y-164630000D01*
X82305849Y-164628674D01*
X82289516Y-164616458D01*
X82295330Y-164582630D01*
X82326043Y-164516689D01*
X82384409Y-164408133D01*
X82506037Y-164186266D01*
X82431194Y-164079157D01*
X82396118Y-164028539D01*
X82340413Y-163943210D01*
X82316660Y-163893699D01*
X82321454Y-163870906D01*
X82351393Y-163865729D01*
X82385291Y-163880919D01*
X82445963Y-163937871D01*
X82513133Y-164024727D01*
X82620241Y-164182936D01*
X82629491Y-164023938D01*
X82631503Y-163992949D01*
X82642073Y-163912218D01*
X82662273Y-163874356D01*
X82698346Y-163864940D01*
X82717265Y-163866743D01*
G37*
G36*
X82295199Y-172250046D02*
G01*
X82345746Y-172262476D01*
X82349356Y-172303555D01*
X82338233Y-172347867D01*
X82316141Y-172440411D01*
X82286855Y-172565505D01*
X82253703Y-172709037D01*
X82222988Y-172841871D01*
X82193133Y-172968913D01*
X82170139Y-173064500D01*
X82157359Y-173114519D01*
X82132163Y-173149076D01*
X82058538Y-173168073D01*
X82044724Y-173167898D01*
X82014743Y-173162876D01*
X81990656Y-173143997D01*
X81968426Y-173102130D01*
X81944016Y-173028144D01*
X81913388Y-172912908D01*
X81872506Y-172747290D01*
X81859822Y-172695511D01*
X81822815Y-172546145D01*
X81791091Y-172420539D01*
X81767681Y-172330606D01*
X81755620Y-172288253D01*
X81761852Y-172262425D01*
X81816587Y-172250000D01*
X81833714Y-172250612D01*
X81862597Y-172259619D01*
X81885481Y-172287572D01*
X81906809Y-172344750D01*
X81931021Y-172441434D01*
X81962557Y-172587902D01*
X81989144Y-172708700D01*
X82017466Y-172824554D01*
X82040600Y-172905612D01*
X82055218Y-172939248D01*
X82068916Y-172917266D01*
X82090687Y-172846194D01*
X82117391Y-172737151D01*
X82146018Y-172601346D01*
X82165256Y-172504534D01*
X82190779Y-172385911D01*
X82211842Y-172311268D01*
X82232584Y-172270483D01*
X82257142Y-172253434D01*
X82289655Y-172250000D01*
X82295199Y-172250046D01*
G37*
G36*
X68799536Y-172127636D02*
G01*
X68850083Y-172140066D01*
X68853693Y-172181145D01*
X68842570Y-172225458D01*
X68820479Y-172318002D01*
X68791192Y-172443095D01*
X68758040Y-172586627D01*
X68727326Y-172719462D01*
X68697470Y-172846503D01*
X68674476Y-172942090D01*
X68661697Y-172992109D01*
X68636500Y-173026667D01*
X68562875Y-173045663D01*
X68549061Y-173045488D01*
X68519081Y-173040466D01*
X68494994Y-173021587D01*
X68472763Y-172979721D01*
X68448353Y-172905735D01*
X68417725Y-172790498D01*
X68376843Y-172624880D01*
X68364159Y-172573102D01*
X68327152Y-172423735D01*
X68295428Y-172298130D01*
X68272019Y-172208196D01*
X68259957Y-172165844D01*
X68266190Y-172140015D01*
X68320924Y-172127591D01*
X68338052Y-172128202D01*
X68366934Y-172137209D01*
X68389819Y-172165162D01*
X68411147Y-172222341D01*
X68435358Y-172319024D01*
X68466894Y-172465492D01*
X68493482Y-172586290D01*
X68521803Y-172702144D01*
X68544937Y-172783202D01*
X68559555Y-172816838D01*
X68573253Y-172794857D01*
X68595024Y-172723784D01*
X68621729Y-172614742D01*
X68650355Y-172478937D01*
X68669593Y-172382124D01*
X68695116Y-172263501D01*
X68716180Y-172188858D01*
X68736921Y-172148073D01*
X68761480Y-172131024D01*
X68793992Y-172127591D01*
X68799536Y-172127636D01*
G37*
G36*
X79231788Y-174683280D02*
G01*
X79327271Y-174725000D01*
X79395947Y-174799552D01*
X79422289Y-174900499D01*
X79422190Y-174906550D01*
X79403899Y-174963707D01*
X79364533Y-174975459D01*
X79319262Y-174944675D01*
X79283256Y-174874221D01*
X79251155Y-174810031D01*
X79191352Y-174767940D01*
X79127185Y-174770832D01*
X79075979Y-174816533D01*
X79055060Y-174902868D01*
X79059495Y-174954971D01*
X79089052Y-175039138D01*
X79152876Y-175133539D01*
X79258535Y-175251125D01*
X79271788Y-175265048D01*
X79368750Y-175390407D01*
X79412013Y-175503595D01*
X79430297Y-175616266D01*
X79181474Y-175616266D01*
X79110993Y-175616000D01*
X79014640Y-175612821D01*
X78960944Y-175603609D01*
X78937688Y-175585357D01*
X78932651Y-175555061D01*
X78934446Y-175533588D01*
X78953025Y-175507998D01*
X79003696Y-175496512D01*
X79100964Y-175493856D01*
X79165854Y-175491658D01*
X79241093Y-175480230D01*
X79269277Y-175461422D01*
X79268837Y-175458530D01*
X79243784Y-175416830D01*
X79187879Y-175346986D01*
X79111767Y-175262443D01*
X79038858Y-175181998D01*
X78983228Y-175105469D01*
X78953849Y-175033950D01*
X78940032Y-174947862D01*
X78936509Y-174906851D01*
X78937623Y-174829839D01*
X78960482Y-174779378D01*
X79013376Y-174730944D01*
X79022503Y-174724088D01*
X79125023Y-174680830D01*
X79231788Y-174683280D01*
G37*
G36*
X76560873Y-162897231D02*
G01*
X76551245Y-163080397D01*
X76522070Y-163213948D01*
X76470240Y-163306786D01*
X76392651Y-163367814D01*
X76374937Y-163375951D01*
X76264781Y-163394697D01*
X76146859Y-163376686D01*
X76051964Y-163325724D01*
X76033404Y-163306675D01*
X75972858Y-163193598D01*
X75940960Y-163028940D01*
X75939192Y-162890904D01*
X76084066Y-162890904D01*
X76089771Y-163026339D01*
X76106492Y-163141121D01*
X76134266Y-163215480D01*
X76140111Y-163223302D01*
X76211703Y-163273522D01*
X76294795Y-163277323D01*
X76365952Y-163232941D01*
X76375573Y-163216908D01*
X76397207Y-163138765D01*
X76411569Y-163024879D01*
X76418113Y-162893636D01*
X76416292Y-162763424D01*
X76405560Y-162652629D01*
X76385371Y-162579639D01*
X76358053Y-162540830D01*
X76284725Y-162496658D01*
X76203904Y-162500403D01*
X76135489Y-162554099D01*
X76132678Y-162558384D01*
X76105556Y-162637157D01*
X76089340Y-162754587D01*
X76084066Y-162890904D01*
X75939192Y-162890904D01*
X75938220Y-162814992D01*
X75938758Y-162804702D01*
X75951763Y-162664641D01*
X75975376Y-162567672D01*
X76013569Y-162497035D01*
X76036232Y-162470206D01*
X76139635Y-162399629D01*
X76261055Y-162374313D01*
X76379570Y-162399815D01*
X76399945Y-162410406D01*
X76475644Y-162473403D01*
X76525355Y-162567321D01*
X76552599Y-162701595D01*
X76560898Y-162885663D01*
X76560881Y-162893636D01*
X76560873Y-162897231D01*
G37*
G36*
X69163166Y-169036751D02*
G01*
X69192024Y-169039111D01*
X69211371Y-169052703D01*
X69223111Y-169087521D01*
X69229143Y-169153559D01*
X69231368Y-169260813D01*
X69231687Y-169419278D01*
X69231376Y-169548997D01*
X69229237Y-169666523D01*
X69223669Y-169740624D01*
X69213081Y-169781243D01*
X69195882Y-169798324D01*
X69170482Y-169801808D01*
X69145005Y-169798608D01*
X69125511Y-169780220D01*
X69114445Y-169735107D01*
X69109241Y-169651775D01*
X69107337Y-169518735D01*
X69107265Y-169508840D01*
X69104786Y-169382139D01*
X69099256Y-169310781D01*
X69089836Y-169289285D01*
X69075686Y-169312169D01*
X69050245Y-169378405D01*
X69011416Y-169480322D01*
X68967842Y-169595241D01*
X68954490Y-169629826D01*
X68908950Y-169731666D01*
X68869929Y-169785846D01*
X68831180Y-169801808D01*
X68813521Y-169800116D01*
X68794767Y-169786928D01*
X68782818Y-169752153D01*
X68776159Y-169685889D01*
X68773275Y-169578232D01*
X68772651Y-169419278D01*
X68773636Y-169265912D01*
X68777544Y-169152093D01*
X68785437Y-169081986D01*
X68798372Y-169046551D01*
X68817406Y-169036747D01*
X68817962Y-169036752D01*
X68840023Y-169049911D01*
X68854979Y-169094967D01*
X68864676Y-169181682D01*
X68870960Y-169319820D01*
X68879759Y-169602892D01*
X68982970Y-169319820D01*
X69019216Y-169222435D01*
X69059440Y-169125589D01*
X69091822Y-169069296D01*
X69122830Y-169043150D01*
X69158933Y-169036747D01*
X69163166Y-169036751D01*
G37*
G36*
X85083735Y-164251148D02*
G01*
X85083735Y-164400482D01*
X85083735Y-164637357D01*
X84896008Y-164623778D01*
X84801573Y-164613642D01*
X84714887Y-164590495D01*
X84666490Y-164553046D01*
X84656024Y-164537133D01*
X84626744Y-164444444D01*
X84632655Y-164393780D01*
X84731899Y-164393780D01*
X84748295Y-164479205D01*
X84783938Y-164516723D01*
X84870595Y-164538193D01*
X84904285Y-164537425D01*
X84943266Y-164525287D01*
X84958634Y-164485173D01*
X84961325Y-164400482D01*
X84958973Y-164344495D01*
X84938258Y-164276947D01*
X84890747Y-164261176D01*
X84809902Y-164292524D01*
X84771662Y-164319866D01*
X84731899Y-164393780D01*
X84632655Y-164393780D01*
X84637537Y-164351933D01*
X84686572Y-164284110D01*
X84710609Y-164266242D01*
X84730160Y-164235519D01*
X84701873Y-164202121D01*
X84700661Y-164201081D01*
X84668584Y-164143762D01*
X84655426Y-164062617D01*
X84750816Y-164062617D01*
X84765653Y-164132711D01*
X84806447Y-164169506D01*
X84880255Y-164195949D01*
X84899943Y-164198010D01*
X84941353Y-164193214D01*
X84958160Y-164158861D01*
X84961325Y-164079157D01*
X84961140Y-164048466D01*
X84954895Y-163984608D01*
X84931588Y-163961173D01*
X84880255Y-163962365D01*
X84862834Y-163965192D01*
X84786627Y-164001696D01*
X84750816Y-164062617D01*
X84655426Y-164062617D01*
X84655301Y-164061844D01*
X84659297Y-164016534D01*
X84702687Y-163931648D01*
X84794954Y-163881450D01*
X84937532Y-163864940D01*
X85083735Y-163864940D01*
X85083735Y-164079157D01*
X85083735Y-164251148D01*
G37*
G36*
X75658193Y-172268980D02*
G01*
X75658193Y-172418314D01*
X75658193Y-172655188D01*
X75470466Y-172641609D01*
X75376031Y-172631474D01*
X75289345Y-172608326D01*
X75240948Y-172570877D01*
X75230481Y-172554964D01*
X75201202Y-172462275D01*
X75207113Y-172411611D01*
X75306357Y-172411611D01*
X75322753Y-172497037D01*
X75358396Y-172534554D01*
X75445053Y-172556025D01*
X75478743Y-172555257D01*
X75517724Y-172543118D01*
X75533092Y-172503005D01*
X75535783Y-172418314D01*
X75533431Y-172362327D01*
X75512716Y-172294778D01*
X75465204Y-172279008D01*
X75384360Y-172310355D01*
X75346119Y-172337697D01*
X75306357Y-172411611D01*
X75207113Y-172411611D01*
X75211995Y-172369765D01*
X75261030Y-172301941D01*
X75285067Y-172284074D01*
X75304618Y-172253350D01*
X75276331Y-172219952D01*
X75275119Y-172218913D01*
X75243042Y-172161593D01*
X75229884Y-172080448D01*
X75325274Y-172080448D01*
X75340111Y-172150543D01*
X75380905Y-172187338D01*
X75454713Y-172213780D01*
X75474400Y-172215842D01*
X75515811Y-172211045D01*
X75532618Y-172176692D01*
X75535783Y-172096988D01*
X75535597Y-172066297D01*
X75529352Y-172002439D01*
X75506046Y-171979004D01*
X75454713Y-171980197D01*
X75437291Y-171983023D01*
X75361085Y-172019528D01*
X75325274Y-172080448D01*
X75229884Y-172080448D01*
X75229759Y-172079675D01*
X75233754Y-172034365D01*
X75277145Y-171949479D01*
X75369412Y-171899282D01*
X75511990Y-171882772D01*
X75658193Y-171882772D01*
X75658193Y-172096988D01*
X75658193Y-172268980D01*
G37*
G36*
X74403494Y-162885663D02*
G01*
X74403494Y-163375302D01*
X74326988Y-163375302D01*
X74306588Y-163374912D01*
X74274897Y-163366578D01*
X74258158Y-163337054D01*
X74251607Y-163273001D01*
X74250482Y-163161085D01*
X74250482Y-162946868D01*
X74149494Y-162946868D01*
X74108897Y-162948633D01*
X74029017Y-162974275D01*
X73987168Y-163037989D01*
X73975060Y-163149401D01*
X73973686Y-163212470D01*
X73959759Y-163309375D01*
X73927216Y-163360431D01*
X73871633Y-163375302D01*
X73861690Y-163375179D01*
X73830929Y-163368475D01*
X73816322Y-163341637D01*
X73814556Y-163281079D01*
X73822314Y-163173216D01*
X73834460Y-163069881D01*
X73858386Y-162979539D01*
X73894335Y-162930868D01*
X73926956Y-162903217D01*
X73927787Y-162874169D01*
X73885724Y-162826929D01*
X73843897Y-162764968D01*
X73822048Y-162643065D01*
X73822226Y-162637676D01*
X73980396Y-162637676D01*
X73984666Y-162720910D01*
X74007322Y-162780554D01*
X74009033Y-162782495D01*
X74065475Y-162812198D01*
X74147121Y-162824458D01*
X74250482Y-162824458D01*
X74250482Y-162669687D01*
X74250482Y-162514915D01*
X74120422Y-162524325D01*
X74085313Y-162527155D01*
X74020335Y-162539864D01*
X73991585Y-162571002D01*
X73980623Y-162635192D01*
X73980396Y-162637676D01*
X73822226Y-162637676D01*
X73823023Y-162613548D01*
X73849535Y-162512841D01*
X73916401Y-162445481D01*
X74029173Y-162407773D01*
X74193404Y-162396025D01*
X74403494Y-162396025D01*
X74403494Y-162514915D01*
X74403494Y-162885663D01*
G37*
G36*
X83951537Y-164399624D02*
G01*
X83983073Y-164513648D01*
X84004372Y-164591718D01*
X84012276Y-164622350D01*
X84002795Y-164626591D01*
X83955271Y-164630000D01*
X83910008Y-164610670D01*
X83879530Y-164538193D01*
X83878541Y-164533317D01*
X83859446Y-164475828D01*
X83820767Y-164451448D01*
X83741819Y-164446386D01*
X83735478Y-164446397D01*
X83659574Y-164452241D01*
X83622679Y-164478243D01*
X83604109Y-164538193D01*
X83577253Y-164606631D01*
X83526237Y-164630000D01*
X83504771Y-164627750D01*
X83490867Y-164614127D01*
X83489035Y-164579583D01*
X83500288Y-164514588D01*
X83525640Y-164409610D01*
X83548361Y-164322865D01*
X83653141Y-164322865D01*
X83672317Y-164348083D01*
X83738736Y-164354579D01*
X83793432Y-164351846D01*
X83822866Y-164333244D01*
X83817288Y-164285723D01*
X83815752Y-164279987D01*
X83797348Y-164198762D01*
X83779294Y-164102665D01*
X83762449Y-164033162D01*
X83739719Y-164006819D01*
X83715919Y-164040132D01*
X83693163Y-164132373D01*
X83690779Y-164145603D01*
X83672786Y-164235641D01*
X83657029Y-164301025D01*
X83653141Y-164322865D01*
X83548361Y-164322865D01*
X83566105Y-164255121D01*
X83592288Y-164157345D01*
X83627872Y-164032226D01*
X83655718Y-163951467D01*
X83680131Y-163905557D01*
X83705421Y-163884985D01*
X83735893Y-163880241D01*
X83752239Y-163881291D01*
X83780034Y-163893249D01*
X83805118Y-163926304D01*
X83831990Y-163989998D01*
X83865152Y-164093873D01*
X83909103Y-164247470D01*
X83912925Y-164261130D01*
X83933030Y-164333244D01*
X83951537Y-164399624D01*
G37*
G36*
X82054096Y-168654217D02*
G01*
X82053785Y-168783937D01*
X82051646Y-168901462D01*
X82046078Y-168975563D01*
X82035490Y-169016183D01*
X82018292Y-169033263D01*
X81992892Y-169036747D01*
X81977692Y-169035975D01*
X81948192Y-169020684D01*
X81934827Y-168974282D01*
X81931687Y-168881796D01*
X81931687Y-168726845D01*
X81832229Y-168736435D01*
X81800919Y-168740072D01*
X81753668Y-168756432D01*
X81730481Y-168798297D01*
X81717470Y-168883462D01*
X81709884Y-168936044D01*
X81686090Y-169004979D01*
X81646337Y-169031506D01*
X81629478Y-169033781D01*
X81606162Y-169024048D01*
X81601305Y-168982139D01*
X81611345Y-168894068D01*
X81620031Y-168846309D01*
X81646290Y-168760460D01*
X81676658Y-168710709D01*
X81700922Y-168683806D01*
X81686811Y-168654182D01*
X81685980Y-168653663D01*
X81635966Y-168590435D01*
X81617399Y-168509595D01*
X81722986Y-168509595D01*
X81739002Y-168574797D01*
X81778150Y-168608701D01*
X81850617Y-168633298D01*
X81880712Y-168636041D01*
X81915364Y-168627554D01*
X81929189Y-168588365D01*
X81931687Y-168503238D01*
X81931114Y-168448482D01*
X81922896Y-168390273D01*
X81896267Y-168367440D01*
X81840463Y-168363494D01*
X81814848Y-168364347D01*
X81757280Y-168384730D01*
X81728848Y-168444737D01*
X81722986Y-168509595D01*
X81617399Y-168509595D01*
X81614655Y-168497650D01*
X81628335Y-168402370D01*
X81658256Y-168339285D01*
X81703308Y-168296867D01*
X81776198Y-168277193D01*
X81893434Y-168272156D01*
X82054096Y-168271687D01*
X82054096Y-168503238D01*
X82054096Y-168654217D01*
G37*
G36*
X78351205Y-162885663D02*
G01*
X78351205Y-162916266D01*
X78351205Y-163375302D01*
X78166071Y-163375302D01*
X78113945Y-163374062D01*
X77949781Y-163348215D01*
X77833240Y-163289845D01*
X77767181Y-163200206D01*
X77765516Y-163195695D01*
X77750441Y-163086379D01*
X77892665Y-163086379D01*
X77923848Y-163193699D01*
X77931104Y-163205500D01*
X77983078Y-163242089D01*
X78076860Y-163252892D01*
X78198193Y-163252892D01*
X78198193Y-163084579D01*
X78198193Y-162916266D01*
X78093270Y-162916266D01*
X77986773Y-162937195D01*
X77915776Y-162997380D01*
X77892665Y-163086379D01*
X77750441Y-163086379D01*
X77750292Y-163085302D01*
X77775786Y-162979849D01*
X77836314Y-162903722D01*
X77854111Y-162891067D01*
X77880348Y-162863354D01*
X77872385Y-162829208D01*
X77829093Y-162767267D01*
X77797041Y-162719391D01*
X77775920Y-162652913D01*
X77780266Y-162626479D01*
X77925275Y-162626479D01*
X77936680Y-162709010D01*
X77990785Y-162776819D01*
X78049519Y-162806913D01*
X78128496Y-162824458D01*
X78152191Y-162823278D01*
X78182450Y-162807981D01*
X78195433Y-162762532D01*
X78198193Y-162671446D01*
X78197037Y-162590106D01*
X78186771Y-162539753D01*
X78156971Y-162521130D01*
X78097205Y-162518434D01*
X78094941Y-162518443D01*
X78014081Y-162529494D01*
X77959494Y-162555157D01*
X77925275Y-162626479D01*
X77780266Y-162626479D01*
X77788947Y-162573671D01*
X77821278Y-162502030D01*
X77890691Y-162440869D01*
X78000633Y-162407091D01*
X78159940Y-162396476D01*
X78351205Y-162396025D01*
X78351205Y-162671446D01*
X78351205Y-162885663D01*
G37*
G36*
X75605190Y-166336449D02*
G01*
X75708641Y-166391483D01*
X75777325Y-166477815D01*
X75802430Y-166584907D01*
X75775144Y-166702224D01*
X75763003Y-166723059D01*
X75683295Y-166800300D01*
X75551084Y-166879278D01*
X75492368Y-166909650D01*
X75413653Y-166958937D01*
X75372975Y-167004186D01*
X75357608Y-167057092D01*
X75363255Y-167141564D01*
X75412057Y-167207963D01*
X75502807Y-167231205D01*
X75559878Y-167224262D01*
X75632073Y-167180383D01*
X75658193Y-167102675D01*
X75673284Y-167063273D01*
X75734699Y-167047591D01*
X75742801Y-167047697D01*
X75796546Y-167063567D01*
X75810232Y-167116446D01*
X75804979Y-167158865D01*
X75753589Y-167254019D01*
X75655417Y-167321643D01*
X75588465Y-167337561D01*
X75475744Y-167336787D01*
X75364908Y-167313453D01*
X75284711Y-167271450D01*
X75261035Y-167243999D01*
X75219585Y-167148304D01*
X75206232Y-167036045D01*
X75226074Y-166936349D01*
X75235771Y-166919480D01*
X75302986Y-166855120D01*
X75405883Y-166797209D01*
X75472933Y-166766418D01*
X75581033Y-166703106D01*
X75640197Y-166640694D01*
X75658193Y-166572258D01*
X75642298Y-166504793D01*
X75581564Y-166451635D01*
X75484080Y-166440982D01*
X75416946Y-166463239D01*
X75388293Y-166519699D01*
X75386269Y-166529643D01*
X75352676Y-166575969D01*
X75299892Y-166592673D01*
X75251168Y-166578137D01*
X75229759Y-166530740D01*
X75230306Y-166517825D01*
X75265637Y-166428854D01*
X75346539Y-166360538D01*
X75459590Y-166324899D01*
X75475785Y-166323252D01*
X75605190Y-166336449D01*
G37*
G36*
X70945422Y-169419278D02*
G01*
X70945111Y-169548997D01*
X70942972Y-169666523D01*
X70937404Y-169740624D01*
X70926816Y-169781243D01*
X70909617Y-169798324D01*
X70884217Y-169801808D01*
X70869018Y-169801036D01*
X70839517Y-169785745D01*
X70826153Y-169739342D01*
X70823012Y-169646857D01*
X70823012Y-169491906D01*
X70723554Y-169501495D01*
X70692244Y-169505132D01*
X70644993Y-169521492D01*
X70621806Y-169563358D01*
X70608795Y-169648522D01*
X70601209Y-169701104D01*
X70577415Y-169770039D01*
X70537663Y-169796566D01*
X70520803Y-169798842D01*
X70497487Y-169789108D01*
X70492630Y-169747199D01*
X70502670Y-169659129D01*
X70511357Y-169611369D01*
X70537616Y-169525521D01*
X70567983Y-169475770D01*
X70592247Y-169448866D01*
X70578136Y-169419243D01*
X70577306Y-169418723D01*
X70527291Y-169355496D01*
X70508724Y-169274655D01*
X70614311Y-169274655D01*
X70630327Y-169339857D01*
X70669475Y-169373761D01*
X70741942Y-169398358D01*
X70772037Y-169401102D01*
X70806689Y-169392614D01*
X70820514Y-169353426D01*
X70823012Y-169268298D01*
X70822439Y-169213542D01*
X70814221Y-169155333D01*
X70787593Y-169132501D01*
X70731788Y-169128555D01*
X70706173Y-169129407D01*
X70648606Y-169149790D01*
X70620173Y-169209797D01*
X70614311Y-169274655D01*
X70508724Y-169274655D01*
X70505981Y-169262710D01*
X70519660Y-169167431D01*
X70549581Y-169104345D01*
X70594633Y-169061927D01*
X70667523Y-169042254D01*
X70784759Y-169037216D01*
X70945422Y-169036747D01*
X70945422Y-169268298D01*
X70945422Y-169419278D01*
G37*
G36*
X71395238Y-169052162D02*
G01*
X71469560Y-169094954D01*
X71475433Y-169099811D01*
X71510355Y-169137931D01*
X71531996Y-169190047D01*
X71544651Y-169271894D01*
X71552616Y-169399210D01*
X71555643Y-169473221D01*
X71556061Y-169571646D01*
X71546833Y-169634958D01*
X71524477Y-169679980D01*
X71485515Y-169723533D01*
X71406657Y-169782287D01*
X71317961Y-169797584D01*
X71238331Y-169753718D01*
X71219549Y-169735466D01*
X71195042Y-169721845D01*
X71190241Y-169753718D01*
X71184389Y-169777142D01*
X71144337Y-169801808D01*
X71133920Y-169800351D01*
X71112449Y-169776481D01*
X71101498Y-169714467D01*
X71098434Y-169602892D01*
X71098434Y-169403976D01*
X71220843Y-169403976D01*
X71256035Y-169404809D01*
X71323040Y-169417962D01*
X71343253Y-169449880D01*
X71329239Y-169479110D01*
X71270612Y-169495784D01*
X71226677Y-169500336D01*
X71209136Y-169527439D01*
X71218146Y-169595241D01*
X71226124Y-169628115D01*
X71258682Y-169683626D01*
X71321375Y-169704381D01*
X71338408Y-169705910D01*
X71398395Y-169692680D01*
X71435045Y-169633533D01*
X71446623Y-169593420D01*
X71460708Y-169474381D01*
X71458067Y-169339969D01*
X71438450Y-169220362D01*
X71434640Y-169208866D01*
X71390741Y-169153373D01*
X71327782Y-169129064D01*
X71267166Y-169139315D01*
X71230299Y-169187507D01*
X71221675Y-169210660D01*
X71184921Y-169246717D01*
X71146685Y-169240618D01*
X71129036Y-169191495D01*
X71131491Y-169172557D01*
X71171931Y-169107980D01*
X71245665Y-169057274D01*
X71331371Y-169036747D01*
X71395238Y-169052162D01*
G37*
G36*
X65693302Y-175478280D02*
G01*
X65634580Y-175574468D01*
X65545145Y-175631151D01*
X65432385Y-175643187D01*
X65323730Y-175600869D01*
X65272729Y-175550174D01*
X65220820Y-175441908D01*
X65206070Y-175340844D01*
X65345181Y-175340844D01*
X65346612Y-175381127D01*
X65359661Y-175467143D01*
X65381904Y-175518338D01*
X65399583Y-175533379D01*
X65465740Y-175551964D01*
X65527151Y-175521826D01*
X65572382Y-175452106D01*
X65590000Y-175351947D01*
X65589986Y-175347898D01*
X65574545Y-175231780D01*
X65533654Y-175154618D01*
X65472634Y-175126627D01*
X65471848Y-175126629D01*
X65399852Y-175149321D01*
X65358442Y-175219360D01*
X65345181Y-175340844D01*
X65206070Y-175340844D01*
X65202318Y-175315140D01*
X65219284Y-175190940D01*
X65273781Y-175090382D01*
X65308434Y-175064276D01*
X65393832Y-175038476D01*
X65485185Y-175040242D01*
X65553277Y-175071543D01*
X65569720Y-175080773D01*
X65587187Y-175059120D01*
X65591961Y-175004790D01*
X65584966Y-174934746D01*
X65567123Y-174865949D01*
X65539353Y-174815362D01*
X65489305Y-174773503D01*
X65425209Y-174766705D01*
X65368681Y-174820603D01*
X65344923Y-174848586D01*
X65291653Y-174877650D01*
X65243640Y-174876430D01*
X65222771Y-174841753D01*
X65239744Y-174780461D01*
X65305628Y-174715868D01*
X65408785Y-174679058D01*
X65440909Y-174674831D01*
X65523891Y-174683110D01*
X65600158Y-174733311D01*
X65633811Y-174770729D01*
X65690412Y-174884359D01*
X65725375Y-175029358D01*
X65737986Y-175188297D01*
X65727533Y-175343747D01*
X65725447Y-175351947D01*
X65693302Y-175478280D01*
G37*
G36*
X79473040Y-179487535D02*
G01*
X79477321Y-179545896D01*
X79452534Y-179578067D01*
X79398536Y-179591732D01*
X79315181Y-179594579D01*
X79312607Y-179594579D01*
X79217499Y-179596215D01*
X79168216Y-179606583D01*
X79149694Y-179633901D01*
X79146868Y-179686386D01*
X79146236Y-179710085D01*
X79130463Y-179763766D01*
X79085663Y-179778193D01*
X79069863Y-179777246D01*
X79034076Y-179753586D01*
X79024458Y-179686386D01*
X79014997Y-179621950D01*
X78978554Y-179594579D01*
X78951786Y-179583219D01*
X78932651Y-179533374D01*
X78941171Y-179497682D01*
X78978554Y-179472169D01*
X79146868Y-179472169D01*
X79253976Y-179472169D01*
X79267919Y-179472032D01*
X79334146Y-179466692D01*
X79361084Y-179455995D01*
X79360574Y-179452413D01*
X79343176Y-179408124D01*
X79307574Y-179333550D01*
X79262699Y-179245789D01*
X79217479Y-179161936D01*
X79180846Y-179099087D01*
X79161728Y-179074338D01*
X79154411Y-179100295D01*
X79148953Y-179171941D01*
X79146868Y-179273253D01*
X79146868Y-179472169D01*
X78978554Y-179472169D01*
X78990649Y-179469626D01*
X79007558Y-179447089D01*
X79017888Y-179393034D01*
X79023051Y-179297579D01*
X79024458Y-179150844D01*
X79024539Y-179075434D01*
X79026086Y-178957851D01*
X79031448Y-178885363D01*
X79042980Y-178847075D01*
X79063041Y-178832092D01*
X79093987Y-178829519D01*
X79121079Y-178834495D01*
X79156351Y-178860223D01*
X79197698Y-178915771D01*
X79251342Y-179009861D01*
X79323505Y-179151212D01*
X79377853Y-179261490D01*
X79439836Y-179395295D01*
X79461686Y-179455995D01*
X79473040Y-179487535D01*
G37*
G36*
X84833513Y-178870852D02*
G01*
X84847077Y-178873352D01*
X84951277Y-178916796D01*
X85025100Y-178989761D01*
X85053133Y-179077728D01*
X85043448Y-179113600D01*
X84991928Y-179135543D01*
X84956254Y-179127984D01*
X84930723Y-179095488D01*
X84930710Y-179093688D01*
X84907199Y-179020209D01*
X84852323Y-178971141D01*
X84786072Y-178964576D01*
X84756618Y-178979873D01*
X84714216Y-179039405D01*
X84699392Y-179119387D01*
X84710863Y-179200470D01*
X84747345Y-179263309D01*
X84807556Y-179288555D01*
X84847648Y-179295150D01*
X84867875Y-179324112D01*
X84842719Y-179364228D01*
X84775856Y-179402297D01*
X84757058Y-179409622D01*
X84707767Y-179438293D01*
X84689768Y-179483211D01*
X84691699Y-179566552D01*
X84699801Y-179624469D01*
X84735467Y-179709977D01*
X84791593Y-179746831D01*
X84861868Y-179729008D01*
X84893547Y-179698858D01*
X84925201Y-179629706D01*
X84940556Y-179589947D01*
X84994056Y-179563976D01*
X84999587Y-179564153D01*
X85044220Y-179588957D01*
X85053432Y-179643850D01*
X85028949Y-179711849D01*
X84972500Y-179775972D01*
X84865410Y-179829588D01*
X84748271Y-179828535D01*
X84637534Y-179768533D01*
X84630655Y-179762343D01*
X84571133Y-179671894D01*
X84549909Y-179562584D01*
X84567665Y-179456042D01*
X84625083Y-179373897D01*
X84663496Y-179340202D01*
X84675137Y-179310294D01*
X84643858Y-179279859D01*
X84638107Y-179275051D01*
X84599845Y-179214833D01*
X84574457Y-179130040D01*
X84568256Y-179071251D01*
X84583360Y-179003135D01*
X84638609Y-178935236D01*
X84683176Y-178895161D01*
X84747539Y-178866426D01*
X84833513Y-178870852D01*
G37*
G36*
X77402530Y-166833374D02*
G01*
X77402414Y-166955872D01*
X77401267Y-167104751D01*
X77397974Y-167206811D01*
X77391434Y-167270860D01*
X77380547Y-167305705D01*
X77364211Y-167320154D01*
X77341325Y-167323013D01*
X77322177Y-167321467D01*
X77302638Y-167309143D01*
X77290313Y-167275861D01*
X77283551Y-167211562D01*
X77280703Y-167106183D01*
X77280121Y-166949663D01*
X77280117Y-166943605D01*
X77277981Y-166800915D01*
X77272389Y-166690572D01*
X77264077Y-166622190D01*
X77253781Y-166605386D01*
X77233523Y-166643197D01*
X77197011Y-166726356D01*
X77149604Y-166842328D01*
X77096515Y-166978735D01*
X77055235Y-167086413D01*
X77010380Y-167197041D01*
X76976290Y-167266471D01*
X76946907Y-167304246D01*
X76916174Y-167319912D01*
X76878035Y-167323013D01*
X76790482Y-167323013D01*
X76790482Y-166833374D01*
X76790598Y-166710876D01*
X76791745Y-166561997D01*
X76795038Y-166459936D01*
X76801578Y-166395887D01*
X76812465Y-166361043D01*
X76828801Y-166346594D01*
X76851687Y-166343735D01*
X76867914Y-166344719D01*
X76888787Y-166355339D01*
X76901965Y-166386088D01*
X76909206Y-166447232D01*
X76912263Y-166549042D01*
X76912892Y-166701784D01*
X76914907Y-166838641D01*
X76920455Y-166946491D01*
X76928713Y-167014007D01*
X76938857Y-167030759D01*
X76957154Y-166997794D01*
X76993460Y-166918264D01*
X77041324Y-166805696D01*
X77095236Y-166672711D01*
X77129816Y-166586035D01*
X77177162Y-166472968D01*
X77212817Y-166401894D01*
X77243225Y-166363124D01*
X77274834Y-166346968D01*
X77314089Y-166343735D01*
X77402530Y-166343735D01*
X77402530Y-166833374D01*
G37*
G36*
X71311545Y-174763040D02*
G01*
X71362689Y-174781359D01*
X71390211Y-174825890D01*
X71403921Y-174908205D01*
X71413626Y-175039877D01*
X71418965Y-175139700D01*
X71416128Y-175208586D01*
X71401144Y-175243459D01*
X71371249Y-175258585D01*
X71335961Y-175259854D01*
X71279426Y-175230576D01*
X71250227Y-175205650D01*
X71175411Y-175190219D01*
X71104554Y-175224555D01*
X71096913Y-175233614D01*
X71071096Y-175307399D01*
X71068548Y-175405404D01*
X71087577Y-175501125D01*
X71126491Y-175568058D01*
X71132152Y-175573085D01*
X71188443Y-175603938D01*
X71248900Y-175587026D01*
X71288312Y-175556277D01*
X71312651Y-175508080D01*
X71324244Y-175481908D01*
X71373856Y-175463253D01*
X71398152Y-175466218D01*
X71434599Y-175498143D01*
X71432830Y-175553058D01*
X71396173Y-175615875D01*
X71327952Y-175671505D01*
X71285882Y-175691429D01*
X71184827Y-175703249D01*
X71070020Y-175663301D01*
X71012802Y-175627384D01*
X70970635Y-175573978D01*
X70950542Y-175493422D01*
X70945422Y-175368943D01*
X70954756Y-175262690D01*
X70997836Y-175161962D01*
X71077093Y-175109801D01*
X71193794Y-175104861D01*
X71207066Y-175106604D01*
X71277161Y-175111137D01*
X71306638Y-175094826D01*
X71312651Y-175049712D01*
X71309823Y-174988257D01*
X71286858Y-174921346D01*
X71229830Y-174889749D01*
X71125762Y-174881808D01*
X71095653Y-174881613D01*
X71019089Y-174875896D01*
X70984265Y-174857624D01*
X70976024Y-174820603D01*
X70981498Y-174788803D01*
X71007634Y-174769712D01*
X71067936Y-174761288D01*
X71175900Y-174759398D01*
X71226972Y-174759361D01*
X71311545Y-174763040D01*
G37*
G36*
X85879380Y-175148289D02*
G01*
X85864049Y-175313406D01*
X85821431Y-175457796D01*
X85753024Y-175563732D01*
X85689106Y-175619558D01*
X85627829Y-175641567D01*
X85543276Y-175635197D01*
X85530656Y-175633330D01*
X85447127Y-175630745D01*
X85404103Y-175648417D01*
X85403270Y-175649734D01*
X85365973Y-175672135D01*
X85332054Y-175650252D01*
X85323179Y-175597671D01*
X85327645Y-175563847D01*
X85330392Y-175493856D01*
X85329761Y-175483378D01*
X85325653Y-175416943D01*
X85319135Y-175312593D01*
X85311299Y-175187832D01*
X85310421Y-175169447D01*
X85420830Y-175169447D01*
X85424157Y-175281188D01*
X85437857Y-175363959D01*
X85465882Y-175405783D01*
X85512169Y-175417350D01*
X85540241Y-175429433D01*
X85550783Y-175486205D01*
X85553683Y-175528945D01*
X85583298Y-175553861D01*
X85632019Y-175534538D01*
X85687427Y-175472244D01*
X85699993Y-175450789D01*
X85724573Y-175380418D01*
X85737068Y-175280195D01*
X85739879Y-175134661D01*
X85739828Y-175127935D01*
X85736394Y-174998218D01*
X85726506Y-174913425D01*
X85706977Y-174858014D01*
X85674621Y-174816442D01*
X85641954Y-174788676D01*
X85570634Y-174764854D01*
X85509614Y-174795535D01*
X85462143Y-174876205D01*
X85431466Y-175002348D01*
X85420830Y-175169447D01*
X85310421Y-175169447D01*
X85305686Y-175070363D01*
X85307900Y-174965632D01*
X85322028Y-174888660D01*
X85349989Y-174821281D01*
X85361634Y-174800926D01*
X85442410Y-174719069D01*
X85544491Y-174679140D01*
X85651660Y-174681406D01*
X85747702Y-174726134D01*
X85816402Y-174813592D01*
X85822194Y-174826772D01*
X85865928Y-174980170D01*
X85878290Y-175134661D01*
X85879380Y-175148289D01*
G37*
G36*
X85818175Y-179340819D02*
G01*
X85802844Y-179505937D01*
X85760226Y-179650326D01*
X85691820Y-179756263D01*
X85627901Y-179812088D01*
X85566624Y-179834097D01*
X85482071Y-179827727D01*
X85469451Y-179825860D01*
X85385923Y-179823275D01*
X85342898Y-179840947D01*
X85342065Y-179842264D01*
X85304768Y-179864665D01*
X85270850Y-179842782D01*
X85261975Y-179790201D01*
X85266440Y-179756377D01*
X85269188Y-179686386D01*
X85268556Y-179675908D01*
X85264448Y-179609473D01*
X85257930Y-179505123D01*
X85250094Y-179380362D01*
X85249216Y-179361977D01*
X85359625Y-179361977D01*
X85362952Y-179473718D01*
X85376652Y-179556489D01*
X85404677Y-179598313D01*
X85450964Y-179609880D01*
X85479036Y-179621963D01*
X85489578Y-179678735D01*
X85492478Y-179721475D01*
X85522093Y-179746391D01*
X85570814Y-179727068D01*
X85626222Y-179664775D01*
X85638788Y-179643319D01*
X85663368Y-179572948D01*
X85675863Y-179472725D01*
X85678675Y-179327191D01*
X85678624Y-179320465D01*
X85675189Y-179190748D01*
X85665301Y-179105955D01*
X85645773Y-179050544D01*
X85613416Y-179008972D01*
X85580749Y-178981206D01*
X85509429Y-178957384D01*
X85448410Y-178988065D01*
X85400938Y-179068735D01*
X85370261Y-179194878D01*
X85359625Y-179361977D01*
X85249216Y-179361977D01*
X85244481Y-179262893D01*
X85246695Y-179158163D01*
X85260824Y-179081191D01*
X85288785Y-179013811D01*
X85300429Y-178993456D01*
X85381205Y-178911599D01*
X85483286Y-178871670D01*
X85590455Y-178873936D01*
X85686497Y-178918664D01*
X85755197Y-179006122D01*
X85760989Y-179019302D01*
X85804723Y-179172700D01*
X85817085Y-179327191D01*
X85818175Y-179340819D01*
G37*
G36*
X80248537Y-179310217D02*
G01*
X80233205Y-179475334D01*
X80190588Y-179619724D01*
X80122181Y-179725660D01*
X80058263Y-179781486D01*
X79996986Y-179803495D01*
X79912432Y-179797125D01*
X79899812Y-179795258D01*
X79816284Y-179792672D01*
X79773260Y-179810345D01*
X79772427Y-179811661D01*
X79735129Y-179834063D01*
X79701211Y-179812180D01*
X79692336Y-179759598D01*
X79696801Y-179725775D01*
X79699549Y-179655784D01*
X79698917Y-179645306D01*
X79694810Y-179578871D01*
X79688292Y-179474521D01*
X79680455Y-179349759D01*
X79679577Y-179331374D01*
X79789987Y-179331374D01*
X79793314Y-179443115D01*
X79807013Y-179525886D01*
X79835038Y-179567711D01*
X79881325Y-179579278D01*
X79909398Y-179591361D01*
X79919939Y-179648133D01*
X79922840Y-179690872D01*
X79952455Y-179715788D01*
X80001175Y-179696465D01*
X80056584Y-179634172D01*
X80069150Y-179612717D01*
X80093730Y-179542346D01*
X80106225Y-179442123D01*
X80109036Y-179296588D01*
X80108985Y-179289863D01*
X80105551Y-179160146D01*
X80095663Y-179075353D01*
X80076134Y-179019942D01*
X80043777Y-178978369D01*
X80011111Y-178950604D01*
X79939790Y-178926781D01*
X79878771Y-178957463D01*
X79831300Y-179038133D01*
X79800623Y-179164275D01*
X79789987Y-179331374D01*
X79679577Y-179331374D01*
X79674843Y-179232290D01*
X79677056Y-179127560D01*
X79691185Y-179050588D01*
X79719146Y-178983208D01*
X79730790Y-178962853D01*
X79811567Y-178880997D01*
X79913647Y-178841067D01*
X80020816Y-178843333D01*
X80116859Y-178888062D01*
X80185558Y-178975519D01*
X80191350Y-178988700D01*
X80235084Y-179142097D01*
X80247446Y-179296588D01*
X80248537Y-179310217D01*
G37*
G36*
X80217934Y-175148289D02*
G01*
X80202603Y-175313406D01*
X80159985Y-175457796D01*
X80091579Y-175563732D01*
X80027660Y-175619558D01*
X79966383Y-175641567D01*
X79881830Y-175635197D01*
X79869210Y-175633330D01*
X79785682Y-175630745D01*
X79742657Y-175648417D01*
X79741824Y-175649734D01*
X79704527Y-175672135D01*
X79670609Y-175650252D01*
X79661734Y-175597671D01*
X79666199Y-175563847D01*
X79668947Y-175493856D01*
X79668315Y-175483378D01*
X79664207Y-175416943D01*
X79657689Y-175312593D01*
X79649853Y-175187832D01*
X79648975Y-175169447D01*
X79759384Y-175169447D01*
X79762711Y-175281188D01*
X79776411Y-175363959D01*
X79804436Y-175405783D01*
X79850723Y-175417350D01*
X79878795Y-175429433D01*
X79889337Y-175486205D01*
X79892237Y-175528945D01*
X79921852Y-175553861D01*
X79970573Y-175534538D01*
X80025981Y-175472244D01*
X80038547Y-175450789D01*
X80063127Y-175380418D01*
X80075622Y-175280195D01*
X80078434Y-175134661D01*
X80078383Y-175127935D01*
X80074948Y-174998218D01*
X80065060Y-174913425D01*
X80045532Y-174858014D01*
X80013175Y-174816442D01*
X79980508Y-174788676D01*
X79909188Y-174764854D01*
X79848169Y-174795535D01*
X79800697Y-174876205D01*
X79770020Y-175002348D01*
X79759384Y-175169447D01*
X79648975Y-175169447D01*
X79644240Y-175070363D01*
X79646454Y-174965632D01*
X79660583Y-174888660D01*
X79688544Y-174821281D01*
X79700188Y-174800926D01*
X79780964Y-174719069D01*
X79883045Y-174679140D01*
X79990214Y-174681406D01*
X80086256Y-174726134D01*
X80154956Y-174813592D01*
X80160748Y-174826772D01*
X80204482Y-174980170D01*
X80216844Y-175134661D01*
X80217934Y-175148289D01*
G37*
G36*
X75134350Y-163040464D02*
G01*
X75169750Y-163162971D01*
X75197262Y-163257146D01*
X75213350Y-163310605D01*
X75219240Y-163332303D01*
X75211237Y-163367095D01*
X75156495Y-163375302D01*
X75110248Y-163368446D01*
X75074288Y-163333063D01*
X75046145Y-163252892D01*
X75027629Y-163189994D01*
X75001395Y-163148291D01*
X74952843Y-163132774D01*
X74862530Y-163130482D01*
X74784775Y-163131765D01*
X74730166Y-163143957D01*
X74701361Y-163180012D01*
X74678916Y-163252892D01*
X74657910Y-163317517D01*
X74624480Y-163363438D01*
X74573192Y-163375302D01*
X74500430Y-163375302D01*
X74602972Y-162987332D01*
X74750317Y-162987332D01*
X74782685Y-163003964D01*
X74862530Y-163008073D01*
X74939570Y-163004462D01*
X74973750Y-162988770D01*
X74973085Y-162954519D01*
X74965829Y-162928430D01*
X74945104Y-162847491D01*
X74920958Y-162747952D01*
X74901794Y-162671994D01*
X74875367Y-162596217D01*
X74852359Y-162580045D01*
X74829681Y-162622844D01*
X74804246Y-162723978D01*
X74787275Y-162801715D01*
X74765713Y-162896143D01*
X74751181Y-162954519D01*
X74750317Y-162987332D01*
X74602972Y-162987332D01*
X74619281Y-162925626D01*
X74661231Y-162766577D01*
X74700405Y-162620299D01*
X74729964Y-162518459D01*
X74753568Y-162453064D01*
X74774873Y-162416117D01*
X74797536Y-162399625D01*
X74825216Y-162395592D01*
X74861570Y-162396025D01*
X74863316Y-162396026D01*
X74927661Y-162398334D01*
X74954337Y-162403723D01*
X74954349Y-162403879D01*
X74962809Y-162436341D01*
X74984600Y-162514768D01*
X75016187Y-162626776D01*
X75054032Y-162759984D01*
X75094598Y-162902007D01*
X75119508Y-162988770D01*
X75134350Y-163040464D01*
G37*
G36*
X72200103Y-175209494D02*
G01*
X72184772Y-175374611D01*
X72142154Y-175519001D01*
X72073747Y-175624937D01*
X72009829Y-175680763D01*
X71948552Y-175702772D01*
X71863999Y-175696402D01*
X71851378Y-175694535D01*
X71767850Y-175691950D01*
X71724826Y-175709622D01*
X71723993Y-175710938D01*
X71686695Y-175733340D01*
X71652777Y-175711457D01*
X71643902Y-175658875D01*
X71648368Y-175625052D01*
X71651115Y-175555061D01*
X71650483Y-175544583D01*
X71646376Y-175478148D01*
X71639858Y-175373798D01*
X71632022Y-175249037D01*
X71631143Y-175230651D01*
X71741553Y-175230651D01*
X71744880Y-175342392D01*
X71758580Y-175425163D01*
X71786604Y-175466988D01*
X71832892Y-175478555D01*
X71860964Y-175490638D01*
X71871505Y-175547410D01*
X71874406Y-175590149D01*
X71904021Y-175615066D01*
X71952742Y-175595743D01*
X72008150Y-175533449D01*
X72020716Y-175511994D01*
X72045296Y-175441623D01*
X72057791Y-175341400D01*
X72060602Y-175195865D01*
X72060551Y-175189140D01*
X72057117Y-175059423D01*
X72047229Y-174974630D01*
X72027700Y-174919219D01*
X71995344Y-174877647D01*
X71962677Y-174849881D01*
X71891357Y-174826058D01*
X71830337Y-174856740D01*
X71782866Y-174937410D01*
X71752189Y-175063552D01*
X71741553Y-175230651D01*
X71631143Y-175230651D01*
X71626409Y-175131567D01*
X71628623Y-175026837D01*
X71642751Y-174949865D01*
X71670712Y-174882486D01*
X71682357Y-174862131D01*
X71763133Y-174780274D01*
X71865213Y-174740345D01*
X71972383Y-174742610D01*
X72068425Y-174787339D01*
X72137125Y-174874796D01*
X72142917Y-174887977D01*
X72186651Y-175041374D01*
X72199012Y-175195865D01*
X72200103Y-175209494D01*
G37*
G36*
X72108296Y-179340819D02*
G01*
X72092964Y-179505937D01*
X72050347Y-179650326D01*
X71981940Y-179756263D01*
X71918022Y-179812088D01*
X71856745Y-179834097D01*
X71772191Y-179827727D01*
X71759571Y-179825860D01*
X71676043Y-179823275D01*
X71633019Y-179840947D01*
X71632186Y-179842264D01*
X71594888Y-179864665D01*
X71560970Y-179842782D01*
X71552095Y-179790201D01*
X71556560Y-179756377D01*
X71559308Y-179686386D01*
X71558676Y-179675908D01*
X71554569Y-179609473D01*
X71548051Y-179505123D01*
X71540214Y-179380362D01*
X71539336Y-179361977D01*
X71649746Y-179361977D01*
X71653073Y-179473718D01*
X71666773Y-179556489D01*
X71694797Y-179598313D01*
X71741084Y-179609880D01*
X71769157Y-179621963D01*
X71779698Y-179678735D01*
X71782599Y-179721475D01*
X71812214Y-179746391D01*
X71860934Y-179727068D01*
X71916343Y-179664775D01*
X71928909Y-179643319D01*
X71953489Y-179572948D01*
X71965984Y-179472725D01*
X71968795Y-179327191D01*
X71968744Y-179320465D01*
X71965310Y-179190748D01*
X71955422Y-179105955D01*
X71935893Y-179050544D01*
X71903536Y-179008972D01*
X71870870Y-178981206D01*
X71799549Y-178957384D01*
X71738530Y-178988065D01*
X71691059Y-179068735D01*
X71660382Y-179194878D01*
X71649746Y-179361977D01*
X71539336Y-179361977D01*
X71534602Y-179262893D01*
X71536815Y-179158163D01*
X71550944Y-179081191D01*
X71578905Y-179013811D01*
X71590549Y-178993456D01*
X71671326Y-178911599D01*
X71773406Y-178871670D01*
X71880575Y-178873936D01*
X71976618Y-178918664D01*
X72045317Y-179006122D01*
X72051110Y-179019302D01*
X72094843Y-179172700D01*
X72107205Y-179327191D01*
X72108296Y-179340819D01*
G37*
G36*
X66538657Y-179310217D02*
G01*
X66523326Y-179475334D01*
X66480708Y-179619724D01*
X66412301Y-179725660D01*
X66348383Y-179781486D01*
X66287106Y-179803495D01*
X66202553Y-179797125D01*
X66189933Y-179795258D01*
X66106404Y-179792672D01*
X66063380Y-179810345D01*
X66062547Y-179811661D01*
X66025250Y-179834063D01*
X65991332Y-179812180D01*
X65982457Y-179759598D01*
X65986922Y-179725775D01*
X65989670Y-179655784D01*
X65989038Y-179645306D01*
X65984930Y-179578871D01*
X65978412Y-179474521D01*
X65970576Y-179349759D01*
X65969698Y-179331374D01*
X66080107Y-179331374D01*
X66083434Y-179443115D01*
X66097134Y-179525886D01*
X66125159Y-179567711D01*
X66171446Y-179579278D01*
X66199518Y-179591361D01*
X66210060Y-179648133D01*
X66212960Y-179690872D01*
X66242575Y-179715788D01*
X66291296Y-179696465D01*
X66346704Y-179634172D01*
X66359270Y-179612717D01*
X66383850Y-179542346D01*
X66396345Y-179442123D01*
X66399157Y-179296588D01*
X66399106Y-179289863D01*
X66395671Y-179160146D01*
X66385783Y-179075353D01*
X66366255Y-179019942D01*
X66333898Y-178978369D01*
X66301231Y-178950604D01*
X66229911Y-178926781D01*
X66168892Y-178957463D01*
X66121420Y-179038133D01*
X66090743Y-179164275D01*
X66080107Y-179331374D01*
X65969698Y-179331374D01*
X65964963Y-179232290D01*
X65967177Y-179127560D01*
X65981305Y-179050588D01*
X66009266Y-178983208D01*
X66020911Y-178962853D01*
X66101687Y-178880997D01*
X66203768Y-178841067D01*
X66310937Y-178843333D01*
X66406979Y-178888062D01*
X66475679Y-178975519D01*
X66481471Y-178988700D01*
X66525205Y-179142097D01*
X66537566Y-179296588D01*
X66538657Y-179310217D01*
G37*
G36*
X66477452Y-175148289D02*
G01*
X66462121Y-175313406D01*
X66419503Y-175457796D01*
X66351097Y-175563732D01*
X66287178Y-175619558D01*
X66225901Y-175641567D01*
X66141348Y-175635197D01*
X66128728Y-175633330D01*
X66045200Y-175630745D01*
X66002175Y-175648417D01*
X66001342Y-175649734D01*
X65964045Y-175672135D01*
X65930127Y-175650252D01*
X65921252Y-175597671D01*
X65925717Y-175563847D01*
X65928465Y-175493856D01*
X65927833Y-175483378D01*
X65923725Y-175416943D01*
X65917208Y-175312593D01*
X65909371Y-175187832D01*
X65908493Y-175169447D01*
X66018902Y-175169447D01*
X66022229Y-175281188D01*
X66035929Y-175363959D01*
X66063954Y-175405783D01*
X66110241Y-175417350D01*
X66138313Y-175429433D01*
X66148855Y-175486205D01*
X66151756Y-175528945D01*
X66181370Y-175553861D01*
X66230091Y-175534538D01*
X66285499Y-175472244D01*
X66298065Y-175450789D01*
X66322646Y-175380418D01*
X66335140Y-175280195D01*
X66337952Y-175134661D01*
X66337901Y-175127935D01*
X66334466Y-174998218D01*
X66324578Y-174913425D01*
X66305050Y-174858014D01*
X66272693Y-174816442D01*
X66240026Y-174788676D01*
X66168706Y-174764854D01*
X66107687Y-174795535D01*
X66060215Y-174876205D01*
X66029538Y-175002348D01*
X66018902Y-175169447D01*
X65908493Y-175169447D01*
X65903758Y-175070363D01*
X65905972Y-174965632D01*
X65920101Y-174888660D01*
X65948062Y-174821281D01*
X65959706Y-174800926D01*
X66040482Y-174719069D01*
X66142563Y-174679140D01*
X66249732Y-174681406D01*
X66345774Y-174726134D01*
X66414474Y-174813592D01*
X66420266Y-174826772D01*
X66464000Y-174980170D01*
X66476362Y-175134661D01*
X66477452Y-175148289D01*
G37*
G36*
X65744743Y-179168409D02*
G01*
X65705290Y-179248912D01*
X65679711Y-179279030D01*
X65671907Y-179310767D01*
X65709641Y-179340928D01*
X65715153Y-179344606D01*
X65765688Y-179413485D01*
X65785116Y-179511429D01*
X65783281Y-179531001D01*
X65775160Y-179617625D01*
X65737543Y-179711260D01*
X65673989Y-179771520D01*
X65551530Y-179805790D01*
X65434262Y-179791233D01*
X65339864Y-179730314D01*
X65281338Y-179627791D01*
X65270955Y-179581080D01*
X65271224Y-179529135D01*
X65410949Y-179529135D01*
X65418372Y-179617071D01*
X65438865Y-179673346D01*
X65461049Y-179695740D01*
X65527144Y-179721847D01*
X65588467Y-179697998D01*
X65633621Y-179631835D01*
X65651205Y-179531001D01*
X65633617Y-179427074D01*
X65579868Y-179366127D01*
X65492227Y-179355061D01*
X65447842Y-179370166D01*
X65423521Y-179411923D01*
X65412166Y-179497383D01*
X65410949Y-179529135D01*
X65271224Y-179529135D01*
X65271518Y-179472208D01*
X65303388Y-179382000D01*
X65361344Y-179329893D01*
X65381766Y-179320441D01*
X65389906Y-179297289D01*
X65354848Y-179251727D01*
X65318395Y-179185284D01*
X65305418Y-179106657D01*
X65410364Y-179106657D01*
X65436178Y-179195234D01*
X65468724Y-179233278D01*
X65528795Y-179257952D01*
X65533357Y-179257835D01*
X65594363Y-179228963D01*
X65633103Y-179162905D01*
X65646240Y-179079487D01*
X65630434Y-178998534D01*
X65582349Y-178939870D01*
X65579821Y-178938325D01*
X65512589Y-178924489D01*
X65456589Y-178957273D01*
X65419841Y-179022666D01*
X65410364Y-179106657D01*
X65305418Y-179106657D01*
X65301277Y-179081564D01*
X65313096Y-178977210D01*
X65353924Y-178899467D01*
X65420738Y-178862093D01*
X65528795Y-178846211D01*
X65627034Y-178859103D01*
X65703666Y-178899467D01*
X65739585Y-178962273D01*
X65756132Y-179063640D01*
X65754409Y-179079487D01*
X65744743Y-179168409D01*
G37*
G36*
X77989034Y-167224042D02*
G01*
X77923528Y-167495271D01*
X77813555Y-167751420D01*
X77778418Y-167815116D01*
X77589045Y-168083803D01*
X77356236Y-168315173D01*
X77087730Y-168503575D01*
X76791269Y-168643359D01*
X76474594Y-168728873D01*
X76227683Y-168750143D01*
X75928617Y-168727456D01*
X75623257Y-168657084D01*
X75325477Y-168541292D01*
X75201437Y-168475487D01*
X74948983Y-168293570D01*
X74732489Y-168068472D01*
X74556311Y-167807344D01*
X74424802Y-167517336D01*
X74342318Y-167205597D01*
X74319811Y-166953240D01*
X74441308Y-166953240D01*
X74480135Y-167246506D01*
X74483316Y-167261350D01*
X74580568Y-167568753D01*
X74728885Y-167846269D01*
X74923583Y-168089011D01*
X75159977Y-168292095D01*
X75433383Y-168450631D01*
X75739116Y-168559735D01*
X75829363Y-168580966D01*
X75934679Y-168600698D01*
X76006887Y-168608314D01*
X76086627Y-168608314D01*
X76086627Y-166883910D01*
X76086627Y-165159507D01*
X76239639Y-165159507D01*
X76239639Y-166877402D01*
X76239639Y-168608314D01*
X76369699Y-168606668D01*
X76487593Y-168596125D01*
X76699489Y-168542297D01*
X76920509Y-168449250D01*
X77134955Y-168324078D01*
X77327132Y-168173877D01*
X77400008Y-168103514D01*
X77601195Y-167856469D01*
X77751120Y-167582931D01*
X77848570Y-167289973D01*
X77892329Y-166984664D01*
X77881183Y-166674076D01*
X77813918Y-166365281D01*
X77689318Y-166065348D01*
X77651441Y-165997349D01*
X77471306Y-165750130D01*
X77246808Y-165538195D01*
X76985734Y-165366903D01*
X76695869Y-165241611D01*
X76385000Y-165167680D01*
X76239639Y-165146491D01*
X76239639Y-165159507D01*
X76086627Y-165159507D01*
X75910663Y-165186394D01*
X75812293Y-165204086D01*
X75504020Y-165297100D01*
X75225744Y-165440315D01*
X74982390Y-165630108D01*
X74778886Y-165862860D01*
X74620160Y-166134947D01*
X74518598Y-166391687D01*
X74453578Y-166672674D01*
X74441308Y-166953240D01*
X74319811Y-166953240D01*
X74313214Y-166879278D01*
X74314557Y-166804920D01*
X74356101Y-166485343D01*
X74452149Y-166181608D01*
X74597893Y-165900334D01*
X74788526Y-165648144D01*
X75019241Y-165431657D01*
X75285230Y-165257495D01*
X75581687Y-165132278D01*
X75651339Y-165111331D01*
X75990502Y-165043946D01*
X76319161Y-165036313D01*
X76634830Y-165087832D01*
X76935024Y-165197900D01*
X77217254Y-165365916D01*
X77479036Y-165591279D01*
X77628349Y-165756131D01*
X77803244Y-166007283D01*
X77923304Y-166271892D01*
X77992330Y-166559102D01*
X78014126Y-166878056D01*
X78013722Y-166921841D01*
X78008590Y-166984664D01*
X77989034Y-167224042D01*
G37*
G36*
X78296233Y-173009400D02*
G01*
X78304217Y-173025425D01*
X78316653Y-173076168D01*
X78288586Y-173108390D01*
X78286225Y-173109173D01*
X78238180Y-173113139D01*
X78132190Y-173116875D01*
X77970995Y-173120359D01*
X77757332Y-173123571D01*
X77493937Y-173126491D01*
X77183549Y-173129097D01*
X76828904Y-173131369D01*
X76432741Y-173133287D01*
X75997797Y-173134830D01*
X75526809Y-173135977D01*
X75022514Y-173136708D01*
X74487651Y-173137002D01*
X70731205Y-173137470D01*
X70731205Y-173596506D01*
X70731205Y-174055543D01*
X71106084Y-174055588D01*
X71480964Y-174055633D01*
X72015343Y-174407515D01*
X72063911Y-174439432D01*
X72220395Y-174541340D01*
X72357534Y-174629270D01*
X72467423Y-174698244D01*
X72542158Y-174743279D01*
X72573837Y-174759398D01*
X72583758Y-174744407D01*
X72593986Y-174683271D01*
X72597952Y-174591085D01*
X72599205Y-174507026D01*
X72607826Y-174450233D01*
X72630641Y-174427141D01*
X72674458Y-174422772D01*
X72750964Y-174422772D01*
X72750964Y-174773811D01*
X72750964Y-175124850D01*
X73156446Y-175133389D01*
X73311382Y-175137109D01*
X73427307Y-175141962D01*
X73500676Y-175149331D01*
X73541137Y-175160877D01*
X73558338Y-175178257D01*
X73561928Y-175203133D01*
X73558901Y-175226583D01*
X73542923Y-175244418D01*
X73504336Y-175256305D01*
X73433493Y-175263904D01*
X73320746Y-175268875D01*
X73156446Y-175272877D01*
X72750964Y-175281415D01*
X72750964Y-175479901D01*
X72750964Y-175632455D01*
X72750964Y-175983494D01*
X72674458Y-175983494D01*
X72636249Y-175980737D01*
X72610434Y-175961771D01*
X72599938Y-175911578D01*
X72597952Y-175815181D01*
X72596755Y-175745970D01*
X72591867Y-175674555D01*
X72584496Y-175646868D01*
X72583356Y-175647205D01*
X72547962Y-175667304D01*
X72470325Y-175714855D01*
X72358475Y-175784840D01*
X72220441Y-175872239D01*
X72064255Y-175972033D01*
X71557470Y-176297198D01*
X71557470Y-176624317D01*
X71557470Y-176951436D01*
X71666270Y-177003319D01*
X71742339Y-177052934D01*
X71818781Y-177152612D01*
X71850140Y-177269879D01*
X71836266Y-177390303D01*
X71777012Y-177499447D01*
X71672229Y-177582878D01*
X71557470Y-177642025D01*
X71557470Y-177954914D01*
X71557470Y-178267802D01*
X72070060Y-178594574D01*
X72582651Y-178921345D01*
X72591828Y-178753022D01*
X72597157Y-178675970D01*
X72608881Y-178615331D01*
X72632674Y-178589874D01*
X72675985Y-178584699D01*
X72750964Y-178584699D01*
X72750964Y-178935739D01*
X72750964Y-179080686D01*
X72750964Y-179286778D01*
X73156446Y-179295317D01*
X73311382Y-179299037D01*
X73427307Y-179303890D01*
X73500676Y-179311259D01*
X73541137Y-179322804D01*
X73558338Y-179340185D01*
X73561928Y-179365061D01*
X73558901Y-179388511D01*
X73542923Y-179406346D01*
X73504336Y-179418233D01*
X73433493Y-179425832D01*
X73320746Y-179430803D01*
X73156446Y-179434804D01*
X72750964Y-179443343D01*
X72750964Y-179794383D01*
X72750964Y-180145422D01*
X72674458Y-180145422D01*
X72636249Y-180142665D01*
X72610434Y-180123698D01*
X72599938Y-180073505D01*
X72597952Y-179977109D01*
X72596316Y-179907886D01*
X72589642Y-179836479D01*
X72579576Y-179808796D01*
X72575656Y-179810270D01*
X72532089Y-179835480D01*
X72447661Y-179888102D01*
X72330174Y-179963165D01*
X72187432Y-180055696D01*
X72027238Y-180160723D01*
X71493275Y-180512651D01*
X70117662Y-180512651D01*
X68742048Y-180512651D01*
X68742048Y-180864579D01*
X68742048Y-181216506D01*
X69438253Y-181216975D01*
X69541989Y-181217344D01*
X69735595Y-181219706D01*
X69905222Y-181223948D01*
X70041564Y-181229724D01*
X70135316Y-181236686D01*
X70177170Y-181244489D01*
X70196232Y-181265045D01*
X70201083Y-181320526D01*
X70194441Y-181329843D01*
X70175889Y-181339558D01*
X70141169Y-181347566D01*
X70085275Y-181354028D01*
X70003205Y-181359105D01*
X69889953Y-181362959D01*
X69740516Y-181365751D01*
X69549891Y-181367641D01*
X69313073Y-181368792D01*
X69025058Y-181369364D01*
X68680843Y-181369519D01*
X68395293Y-181369418D01*
X68097364Y-181368935D01*
X67851548Y-181367902D01*
X67652840Y-181366159D01*
X67496238Y-181363545D01*
X67376736Y-181359898D01*
X67289331Y-181355056D01*
X67229019Y-181348860D01*
X67190797Y-181341147D01*
X67169660Y-181331756D01*
X67160604Y-181320526D01*
X67157013Y-181291888D01*
X67184517Y-181244489D01*
X67196099Y-181240916D01*
X67262147Y-181233367D01*
X67375801Y-181226840D01*
X67527635Y-181221693D01*
X67708221Y-181218285D01*
X67908133Y-181216975D01*
X68589036Y-181216506D01*
X68589036Y-180864579D01*
X68589036Y-180512651D01*
X67211928Y-180512651D01*
X67026085Y-180512427D01*
X66742385Y-180511149D01*
X66487538Y-180508829D01*
X66266937Y-180505577D01*
X66085973Y-180501498D01*
X65950038Y-180496699D01*
X65864523Y-180491288D01*
X65834819Y-180485370D01*
X65820930Y-180470256D01*
X65763548Y-180426623D01*
X65670450Y-180361781D01*
X65551125Y-180281807D01*
X65415059Y-180192779D01*
X65271743Y-180100773D01*
X65130665Y-180011868D01*
X65001312Y-179932140D01*
X64893174Y-179867667D01*
X64815740Y-179824526D01*
X64778497Y-179808796D01*
X64772331Y-179824472D01*
X64766135Y-179886378D01*
X64763735Y-179979237D01*
X64762566Y-180062443D01*
X64754684Y-180119526D01*
X64734107Y-180140712D01*
X64694880Y-180139900D01*
X64676630Y-180136575D01*
X64652539Y-180123972D01*
X64636946Y-180093523D01*
X64627475Y-180034391D01*
X64621745Y-179935737D01*
X64617380Y-179786725D01*
X64608735Y-179443329D01*
X64204247Y-179434797D01*
X64050678Y-179431109D01*
X63934588Y-179426260D01*
X63861111Y-179418897D01*
X63820587Y-179407352D01*
X63803356Y-179389962D01*
X63799759Y-179365061D01*
X63802786Y-179341610D01*
X63818764Y-179323776D01*
X63857351Y-179311889D01*
X63928194Y-179304289D01*
X64040941Y-179299319D01*
X64205241Y-179295317D01*
X64610723Y-179286778D01*
X64610723Y-179084153D01*
X64763735Y-179084153D01*
X64764556Y-179362318D01*
X64765377Y-179640482D01*
X65328617Y-180000061D01*
X65891858Y-180359639D01*
X68701712Y-180359592D01*
X71511566Y-180359544D01*
X72053348Y-180000013D01*
X72595130Y-179640482D01*
X72596541Y-179360584D01*
X72597952Y-179080686D01*
X72070060Y-178745629D01*
X72040058Y-178726598D01*
X71877638Y-178623977D01*
X71730732Y-178531805D01*
X71608361Y-178455699D01*
X71519548Y-178401275D01*
X71473313Y-178374149D01*
X71452500Y-178361869D01*
X71430048Y-178338630D01*
X71415951Y-178299339D01*
X71408277Y-178232709D01*
X71405090Y-178127451D01*
X71404458Y-177972280D01*
X71404179Y-177851577D01*
X71401878Y-177734476D01*
X71395480Y-177658277D01*
X71382919Y-177611344D01*
X71362130Y-177582041D01*
X71331047Y-177558732D01*
X71271758Y-177502740D01*
X71220668Y-177421385D01*
X71213678Y-177404752D01*
X71194185Y-177369288D01*
X71164737Y-177347201D01*
X71112527Y-177334712D01*
X71024749Y-177328044D01*
X70888598Y-177323419D01*
X70593494Y-177314699D01*
X70592947Y-177207591D01*
X70700603Y-177207591D01*
X70937771Y-177205528D01*
X71174940Y-177203466D01*
X71289699Y-177077960D01*
X71404458Y-176952454D01*
X71404458Y-176596579D01*
X71404458Y-176240703D01*
X72001205Y-175860302D01*
X72597952Y-175479901D01*
X72597952Y-175199025D01*
X72597952Y-174918148D01*
X72034417Y-174563351D01*
X71470881Y-174208555D01*
X71105969Y-174208555D01*
X70741058Y-174208555D01*
X70720830Y-175085702D01*
X70716787Y-175273609D01*
X70711569Y-175556814D01*
X70707113Y-175846492D01*
X70703648Y-176125727D01*
X70701402Y-176377608D01*
X70700603Y-176585220D01*
X70700603Y-177207591D01*
X70592947Y-177207591D01*
X70585563Y-175761627D01*
X70577632Y-174208555D01*
X69805021Y-174208555D01*
X69032411Y-174208555D01*
X68993849Y-174295673D01*
X68983589Y-174316036D01*
X68907673Y-174396545D01*
X68803135Y-174440713D01*
X68686061Y-174449289D01*
X68572535Y-174423023D01*
X68478643Y-174362664D01*
X68420470Y-174268961D01*
X68416498Y-174258295D01*
X68404704Y-174242447D01*
X68380918Y-174230377D01*
X68338110Y-174221571D01*
X68269250Y-174215517D01*
X68167306Y-174211702D01*
X68025249Y-174209611D01*
X67836048Y-174208733D01*
X67592674Y-174208555D01*
X66784050Y-174208555D01*
X66776121Y-175776198D01*
X66768882Y-177207591D01*
X66768193Y-177343842D01*
X66523374Y-177336287D01*
X66278554Y-177328733D01*
X66217214Y-177428824D01*
X66154517Y-177502116D01*
X66056552Y-177558196D01*
X65957229Y-177587477D01*
X65957229Y-177957207D01*
X65957229Y-178326938D01*
X65360482Y-178705546D01*
X64763735Y-179084153D01*
X64610723Y-179084153D01*
X64610723Y-178935739D01*
X64610723Y-178584699D01*
X64687229Y-178584699D01*
X64726501Y-178587710D01*
X64751626Y-178607264D01*
X64761818Y-178658257D01*
X64763735Y-178755563D01*
X64766115Y-178827352D01*
X64775135Y-178894389D01*
X64788574Y-178916225D01*
X64789279Y-178915906D01*
X64825022Y-178894721D01*
X64903224Y-178846025D01*
X65015508Y-178775107D01*
X65153498Y-178687257D01*
X65308815Y-178587763D01*
X65804217Y-178269501D01*
X65804217Y-177921729D01*
X65803954Y-177797189D01*
X65801415Y-177686368D01*
X65793876Y-177613295D01*
X65778613Y-177564938D01*
X65752902Y-177528261D01*
X65714019Y-177490232D01*
X65641721Y-177394086D01*
X65610884Y-177270319D01*
X65634430Y-177143972D01*
X65712410Y-177028684D01*
X65735084Y-177005644D01*
X65768354Y-176965347D01*
X65788759Y-176920363D01*
X65799442Y-176856564D01*
X65803547Y-176759819D01*
X65804217Y-176616000D01*
X65804217Y-176295123D01*
X65301495Y-175970996D01*
X65281689Y-175958235D01*
X65127717Y-175859644D01*
X64992561Y-175774149D01*
X64884348Y-175706813D01*
X64811203Y-175662698D01*
X64781254Y-175646868D01*
X64773935Y-175662548D01*
X64766582Y-175724453D01*
X64763735Y-175817310D01*
X64762566Y-175900516D01*
X64754684Y-175957598D01*
X64734107Y-175978784D01*
X64694880Y-175977972D01*
X64676630Y-175974647D01*
X64652539Y-175962044D01*
X64636946Y-175931595D01*
X64627475Y-175872463D01*
X64621745Y-175773810D01*
X64617380Y-175624797D01*
X64613698Y-175478555D01*
X64762941Y-175478555D01*
X65327995Y-175838133D01*
X65398025Y-175882541D01*
X65558853Y-175983294D01*
X65699893Y-176069953D01*
X65813231Y-176137753D01*
X65890951Y-176181927D01*
X65925139Y-176197711D01*
X65934276Y-176207476D01*
X65946811Y-176270490D01*
X65954570Y-176388816D01*
X65957229Y-176558793D01*
X65957229Y-176919874D01*
X66066077Y-176959234D01*
X66146897Y-177003192D01*
X66224757Y-177103092D01*
X66233395Y-177121031D01*
X66262520Y-177170382D01*
X66299432Y-177196157D01*
X66361936Y-177206008D01*
X66467837Y-177207591D01*
X66661084Y-177207591D01*
X66661084Y-176585220D01*
X66660676Y-176443092D01*
X66658825Y-176202302D01*
X66655690Y-175929255D01*
X66651498Y-175640864D01*
X66646478Y-175354042D01*
X66640857Y-175085702D01*
X66620629Y-174208555D01*
X66257253Y-174208555D01*
X65893877Y-174208555D01*
X65336457Y-174557564D01*
X64779036Y-174906573D01*
X64770988Y-175192564D01*
X64762941Y-175478555D01*
X64613698Y-175478555D01*
X64608735Y-175281402D01*
X64204247Y-175272870D01*
X64050678Y-175269181D01*
X63934588Y-175264333D01*
X63861111Y-175256969D01*
X63820587Y-175245425D01*
X63803356Y-175228035D01*
X63799759Y-175203133D01*
X63802786Y-175179683D01*
X63818764Y-175161848D01*
X63857351Y-175149961D01*
X63928194Y-175142362D01*
X64040941Y-175137391D01*
X64205241Y-175133389D01*
X64610723Y-175124850D01*
X64610723Y-174773811D01*
X64610723Y-174422772D01*
X64687229Y-174422772D01*
X64689193Y-174422774D01*
X64730860Y-174427073D01*
X64753148Y-174449336D01*
X64762094Y-174503973D01*
X64763735Y-174605393D01*
X64763735Y-174788014D01*
X65260706Y-174465789D01*
X65268680Y-174460617D01*
X65425777Y-174358073D01*
X65566989Y-174264720D01*
X65683415Y-174186532D01*
X65766156Y-174129485D01*
X65806308Y-174099553D01*
X65815368Y-174092701D01*
X65862263Y-174075073D01*
X65943076Y-174063613D01*
X66066871Y-174057408D01*
X66242711Y-174055543D01*
X66630482Y-174055543D01*
X66783494Y-174055543D01*
X67586807Y-174055349D01*
X68390121Y-174055156D01*
X68443935Y-173960609D01*
X68448001Y-173953711D01*
X68503144Y-173886384D01*
X68560366Y-173849687D01*
X68562412Y-173849143D01*
X68590256Y-173836865D01*
X68607579Y-173810496D01*
X68616471Y-173758267D01*
X68619026Y-173668409D01*
X68617333Y-173529153D01*
X68616627Y-173442673D01*
X68622378Y-173299925D01*
X68638927Y-173211611D01*
X68667364Y-173173592D01*
X68708779Y-173181726D01*
X68714632Y-173188799D01*
X68729261Y-173247535D01*
X68738701Y-173355670D01*
X68742048Y-173504443D01*
X68742058Y-173528480D01*
X68743218Y-173658977D01*
X68748117Y-173742090D01*
X68759321Y-173789854D01*
X68779394Y-173814305D01*
X68810904Y-173827480D01*
X68855642Y-173846399D01*
X68932491Y-173898672D01*
X68992961Y-173960789D01*
X69017470Y-174014973D01*
X69024715Y-174025742D01*
X69056351Y-174036166D01*
X69118761Y-174043985D01*
X69218029Y-174049516D01*
X69360241Y-174053075D01*
X69551480Y-174054978D01*
X69797831Y-174055543D01*
X70578193Y-174055543D01*
X70578193Y-173520000D01*
X70578193Y-172984458D01*
X74358395Y-172984458D01*
X78138596Y-172984458D01*
X78130142Y-171416085D01*
X78128278Y-171082812D01*
X78126338Y-170785645D01*
X78124213Y-170539559D01*
X78121681Y-170339356D01*
X78118524Y-170179836D01*
X78114522Y-170055801D01*
X78109456Y-169962051D01*
X78103106Y-169893388D01*
X78095253Y-169844613D01*
X78085678Y-169810527D01*
X78074161Y-169785931D01*
X78060482Y-169765626D01*
X78051368Y-169754164D01*
X77976830Y-169682627D01*
X77888002Y-169620264D01*
X77746935Y-169567262D01*
X77593915Y-169563380D01*
X77449654Y-169609371D01*
X77324428Y-169699884D01*
X77228510Y-169829569D01*
X77172176Y-169993073D01*
X77167613Y-170014110D01*
X77141888Y-170080907D01*
X77111807Y-170107832D01*
X77104280Y-170105886D01*
X77074266Y-170066723D01*
X77051439Y-169993073D01*
X77017820Y-169880204D01*
X76931563Y-169739133D01*
X76810770Y-169634246D01*
X76666036Y-169573862D01*
X76507957Y-169566301D01*
X76381554Y-169601913D01*
X76244914Y-169691226D01*
X76143620Y-169819630D01*
X76089263Y-169975789D01*
X76080495Y-170019774D01*
X76054173Y-170076633D01*
X76010121Y-170092531D01*
X75991722Y-170090676D01*
X75954025Y-170060360D01*
X75932072Y-169982518D01*
X75925837Y-169949720D01*
X75863137Y-169787652D01*
X75758123Y-169663840D01*
X75618154Y-169584785D01*
X75450584Y-169556988D01*
X75419011Y-169557932D01*
X75255622Y-169595633D01*
X75119608Y-169682391D01*
X75020547Y-169810003D01*
X74968017Y-169970266D01*
X74963660Y-169996026D01*
X74938261Y-170078594D01*
X74904959Y-170107832D01*
X74887226Y-170105766D01*
X74860422Y-170084880D01*
X74848845Y-169998198D01*
X74796589Y-169832760D01*
X74704735Y-169708097D01*
X74568551Y-169616617D01*
X74547536Y-169606917D01*
X74385134Y-169564865D01*
X74229125Y-169583580D01*
X74080991Y-169662920D01*
X74074948Y-169667575D01*
X73972787Y-169768698D01*
X73907826Y-169891405D01*
X73870051Y-170054278D01*
X73848901Y-170199639D01*
X70316197Y-170199639D01*
X66783494Y-170199639D01*
X66783494Y-172127591D01*
X66783494Y-174055543D01*
X66630482Y-174055543D01*
X66630482Y-172141372D01*
X66630547Y-171875257D01*
X66630942Y-171516461D01*
X66631791Y-171211386D01*
X66633197Y-170955509D01*
X66635266Y-170744308D01*
X66638104Y-170573260D01*
X66641816Y-170437843D01*
X66646507Y-170333533D01*
X66652283Y-170255807D01*
X66659249Y-170200144D01*
X66667510Y-170162021D01*
X66677172Y-170136914D01*
X66723861Y-170046627D01*
X70236005Y-170046627D01*
X73748149Y-170046627D01*
X73784898Y-169909226D01*
X73796205Y-169871436D01*
X73878869Y-169707110D01*
X73998609Y-169581657D01*
X74145049Y-169497895D01*
X74307812Y-169458644D01*
X74476522Y-169466722D01*
X74640803Y-169524947D01*
X74790278Y-169636137D01*
X74854063Y-169696801D01*
X74904434Y-169737962D01*
X74923735Y-169744095D01*
X74944986Y-169702682D01*
X75002792Y-169640554D01*
X75081187Y-169572865D01*
X75164149Y-169513389D01*
X75235655Y-169475905D01*
X75283833Y-169460650D01*
X75465626Y-169439063D01*
X75642058Y-169469733D01*
X75799698Y-169548831D01*
X75925118Y-169672525D01*
X76012205Y-169792745D01*
X76127410Y-169660309D01*
X76197715Y-169592392D01*
X76341003Y-169503476D01*
X76497068Y-169455319D01*
X76646900Y-169455419D01*
X76656712Y-169457374D01*
X76805960Y-169506765D01*
X76940879Y-169584242D01*
X77038041Y-169676559D01*
X77103452Y-169765031D01*
X77230039Y-169633400D01*
X77358729Y-169529148D01*
X77523648Y-169459143D01*
X77695759Y-169442824D01*
X77864767Y-169479360D01*
X78020376Y-169567923D01*
X78152289Y-169707682D01*
X78244096Y-169837624D01*
X78251744Y-171388089D01*
X78252375Y-171508325D01*
X78254872Y-171871247D01*
X78258037Y-172177345D01*
X78261962Y-172429992D01*
X78266740Y-172632556D01*
X78272464Y-172788409D01*
X78279226Y-172900920D01*
X78287118Y-172973460D01*
X78289907Y-172984458D01*
X78296233Y-173009400D01*
G37*
G36*
X87715542Y-167827952D02*
G01*
X87715542Y-170781085D01*
X86047711Y-170781085D01*
X84379880Y-170781085D01*
X84379880Y-172418314D01*
X84379880Y-174055543D01*
X84777361Y-174055543D01*
X84868322Y-174055910D01*
X85019417Y-174059431D01*
X85123482Y-174067475D01*
X85190073Y-174081003D01*
X85228747Y-174100976D01*
X85269223Y-174129693D01*
X85353430Y-174185008D01*
X85471545Y-174260531D01*
X85614265Y-174350314D01*
X85772289Y-174448413D01*
X86261928Y-174750418D01*
X86271106Y-174586595D01*
X86276007Y-174516306D01*
X86287648Y-174454287D01*
X86311484Y-174428137D01*
X86355262Y-174422772D01*
X86430241Y-174422772D01*
X86430241Y-174773811D01*
X86430241Y-174896383D01*
X86430241Y-175124850D01*
X86835723Y-175133389D01*
X86990659Y-175137109D01*
X87106584Y-175141962D01*
X87179953Y-175149331D01*
X87220414Y-175160877D01*
X87237615Y-175178257D01*
X87241205Y-175203133D01*
X87238236Y-175226433D01*
X87222376Y-175244333D01*
X87183953Y-175256262D01*
X87113309Y-175263884D01*
X87000784Y-175268865D01*
X86836717Y-175272870D01*
X86432229Y-175281402D01*
X86423584Y-175624797D01*
X86421148Y-175715739D01*
X86416305Y-175834993D01*
X86408755Y-175910005D01*
X86396121Y-175951614D01*
X86376023Y-175970657D01*
X86346084Y-175977972D01*
X86311493Y-175979733D01*
X86288571Y-175962890D01*
X86279093Y-175912505D01*
X86277229Y-175814759D01*
X86274653Y-175741022D01*
X86265187Y-175673854D01*
X86251152Y-175651968D01*
X86249681Y-175652643D01*
X86210896Y-175675230D01*
X86129817Y-175724777D01*
X86014782Y-175796115D01*
X85874131Y-175884077D01*
X85716203Y-175983494D01*
X85207330Y-176304820D01*
X85206737Y-176630773D01*
X85206145Y-176956726D01*
X85311385Y-177018819D01*
X85370891Y-177063153D01*
X85446102Y-177170791D01*
X85469301Y-177298138D01*
X85436314Y-177431413D01*
X85434648Y-177434862D01*
X85371928Y-177522932D01*
X85294198Y-177581177D01*
X85204384Y-177620723D01*
X85212915Y-177940994D01*
X85221446Y-178261266D01*
X85741687Y-178593001D01*
X86261928Y-178924737D01*
X86271106Y-178754718D01*
X86276591Y-178675149D01*
X86288346Y-178615012D01*
X86312123Y-178589806D01*
X86355262Y-178584699D01*
X86430241Y-178584699D01*
X86430241Y-178935739D01*
X86430241Y-179286778D01*
X86835723Y-179295317D01*
X86990659Y-179299037D01*
X87106584Y-179303890D01*
X87179953Y-179311259D01*
X87220414Y-179322804D01*
X87237615Y-179340185D01*
X87241205Y-179365061D01*
X87238236Y-179388361D01*
X87222376Y-179406261D01*
X87183953Y-179418190D01*
X87113309Y-179425812D01*
X87000784Y-179430792D01*
X86836717Y-179434797D01*
X86432229Y-179443329D01*
X86427262Y-179640619D01*
X86423584Y-179786725D01*
X86421148Y-179877667D01*
X86416305Y-179996921D01*
X86408755Y-180071933D01*
X86396121Y-180113542D01*
X86376023Y-180132585D01*
X86346084Y-180139900D01*
X86345256Y-180140017D01*
X86307582Y-180140832D01*
X86287203Y-180120796D01*
X86278843Y-180066463D01*
X86277229Y-179964389D01*
X86277229Y-179779099D01*
X85887048Y-180026979D01*
X85845055Y-180053685D01*
X85689103Y-180153275D01*
X85538978Y-180249719D01*
X85409982Y-180333164D01*
X85317416Y-180393755D01*
X85137965Y-180512651D01*
X83764344Y-180512651D01*
X82390723Y-180512651D01*
X82390723Y-180864579D01*
X82390723Y-181216506D01*
X83106133Y-181216506D01*
X83273658Y-181216779D01*
X83470547Y-181218346D01*
X83618212Y-181221679D01*
X83723747Y-181227198D01*
X83794247Y-181235322D01*
X83836809Y-181246473D01*
X83858526Y-181261070D01*
X83875406Y-181290376D01*
X83875768Y-181337576D01*
X83874723Y-181338623D01*
X83833354Y-181346879D01*
X83733622Y-181353837D01*
X83575056Y-181359509D01*
X83357183Y-181363903D01*
X83079533Y-181367029D01*
X82741634Y-181368898D01*
X82343013Y-181369519D01*
X82070837Y-181369479D01*
X81771873Y-181369210D01*
X81525192Y-181368519D01*
X81325776Y-181367213D01*
X81168608Y-181365101D01*
X81048673Y-181361989D01*
X80960953Y-181357687D01*
X80900432Y-181352001D01*
X80862093Y-181344741D01*
X80840919Y-181335713D01*
X80831894Y-181324726D01*
X80830000Y-181311588D01*
X80837567Y-181277680D01*
X80878407Y-181235082D01*
X80886726Y-181233191D01*
X80948897Y-181227871D01*
X81059282Y-181223285D01*
X81208134Y-181219690D01*
X81385709Y-181217345D01*
X81582262Y-181216506D01*
X82237711Y-181216506D01*
X82237711Y-180864579D01*
X82237711Y-180512651D01*
X80885527Y-180512651D01*
X80621012Y-180512577D01*
X80342226Y-180512157D01*
X80114631Y-180511166D01*
X79932673Y-180509380D01*
X79790796Y-180506578D01*
X79683446Y-180502538D01*
X79605067Y-180497036D01*
X79550104Y-180489850D01*
X79513003Y-180480757D01*
X79488209Y-180469536D01*
X79470165Y-180455964D01*
X79427235Y-180422894D01*
X79341294Y-180363171D01*
X79228146Y-180288139D01*
X79100964Y-180206692D01*
X78995951Y-180140512D01*
X78854580Y-180051163D01*
X78728006Y-179970900D01*
X78634748Y-179911452D01*
X78558597Y-179863701D01*
X78491564Y-179824031D01*
X78460383Y-179808796D01*
X78454176Y-179821377D01*
X78444564Y-179879691D01*
X78436961Y-179969458D01*
X78433945Y-180014263D01*
X78422628Y-180089680D01*
X78400033Y-180126245D01*
X78358856Y-180139900D01*
X78333950Y-180142226D01*
X78312745Y-180134750D01*
X78299766Y-180106446D01*
X78292994Y-180047219D01*
X78290412Y-179946976D01*
X78290000Y-179795623D01*
X78290000Y-179643636D01*
X78443012Y-179643636D01*
X78998747Y-180001638D01*
X79554482Y-180359639D01*
X82357362Y-180358916D01*
X85160241Y-180358194D01*
X85718735Y-179999406D01*
X86277229Y-179640619D01*
X86277229Y-179362386D01*
X86277229Y-179084153D01*
X85680482Y-178705546D01*
X85083735Y-178326938D01*
X85083735Y-177973651D01*
X85083735Y-177620363D01*
X84988697Y-177578295D01*
X84918292Y-177530227D01*
X84849512Y-177430568D01*
X84805365Y-177324909D01*
X84553748Y-177333606D01*
X84518725Y-177334582D01*
X84401607Y-177334332D01*
X84311119Y-177328863D01*
X84264500Y-177319044D01*
X84264426Y-177318997D01*
X84255523Y-177299487D01*
X84248026Y-177250619D01*
X84244788Y-177207591D01*
X84379880Y-177207591D01*
X84604486Y-177207591D01*
X84647935Y-177207479D01*
X84748345Y-177204413D01*
X84807600Y-177193834D01*
X84840858Y-177171347D01*
X84863279Y-177132557D01*
X84863427Y-177132234D01*
X84914963Y-177065242D01*
X84990601Y-177009361D01*
X85083735Y-176961200D01*
X85083735Y-176599276D01*
X85083735Y-176237353D01*
X85680207Y-175857954D01*
X86276678Y-175478555D01*
X86276954Y-175187469D01*
X86277229Y-174896383D01*
X85948253Y-174696232D01*
X85828962Y-174623710D01*
X85664311Y-174523751D01*
X85507717Y-174428817D01*
X85381284Y-174352317D01*
X85143291Y-174208555D01*
X84761585Y-174208555D01*
X84379880Y-174208555D01*
X84379880Y-175708073D01*
X84379880Y-177207591D01*
X84244788Y-177207591D01*
X84241839Y-177168413D01*
X84236866Y-177048888D01*
X84233012Y-176888065D01*
X84230180Y-176681962D01*
X84228276Y-176426598D01*
X84227204Y-176117995D01*
X84226868Y-175752170D01*
X84226868Y-174208555D01*
X83417966Y-174208555D01*
X83274760Y-174208599D01*
X83062498Y-174209105D01*
X82900481Y-174210597D01*
X82781680Y-174213587D01*
X82699066Y-174218588D01*
X82645609Y-174226114D01*
X82614280Y-174236676D01*
X82598051Y-174250787D01*
X82589892Y-174268961D01*
X82583142Y-174287416D01*
X82517632Y-174375776D01*
X82418972Y-174430164D01*
X82302776Y-174449899D01*
X82184658Y-174434304D01*
X82080232Y-174382699D01*
X82005112Y-174294404D01*
X81960718Y-174208555D01*
X81212025Y-174208555D01*
X80463332Y-174208555D01*
X80455401Y-175761627D01*
X80447470Y-177314699D01*
X80164591Y-177323496D01*
X80132357Y-177324508D01*
X80010421Y-177329535D01*
X79933235Y-177337876D01*
X79887195Y-177353682D01*
X79858699Y-177381100D01*
X79834143Y-177424280D01*
X79778804Y-177498983D01*
X79711540Y-177550456D01*
X79681168Y-177566315D01*
X79659726Y-177588942D01*
X79646550Y-177628731D01*
X79639629Y-177696695D01*
X79636952Y-177803843D01*
X79636506Y-177961185D01*
X79636191Y-178088505D01*
X79633883Y-178206465D01*
X79627724Y-178282922D01*
X79615865Y-178328963D01*
X79596457Y-178355676D01*
X79567651Y-178374149D01*
X79562909Y-178376747D01*
X79508394Y-178409169D01*
X79412915Y-178467884D01*
X79285492Y-178547277D01*
X79135148Y-178641731D01*
X78970904Y-178745629D01*
X78443012Y-179080686D01*
X78443012Y-179362161D01*
X78443012Y-179643636D01*
X78290000Y-179643636D01*
X78290000Y-179441567D01*
X77922771Y-179441567D01*
X77555542Y-179441567D01*
X77555542Y-179365061D01*
X77555542Y-179288555D01*
X77922771Y-179288555D01*
X78290000Y-179288555D01*
X78290000Y-178936627D01*
X78290000Y-178584699D01*
X78364979Y-178584699D01*
X78399274Y-178587195D01*
X78427418Y-178606010D01*
X78441548Y-178656196D01*
X78449136Y-178752666D01*
X78458313Y-178920634D01*
X78970904Y-178593663D01*
X79483494Y-178266693D01*
X79483494Y-177922819D01*
X79483441Y-177873333D01*
X79481943Y-177738925D01*
X79477000Y-177651429D01*
X79466770Y-177599781D01*
X79449413Y-177572917D01*
X79423088Y-177559772D01*
X79404632Y-177553022D01*
X79316273Y-177487512D01*
X79261885Y-177388852D01*
X79242149Y-177272656D01*
X79257744Y-177154538D01*
X79309350Y-177050112D01*
X79397645Y-176974992D01*
X79421009Y-176962569D01*
X79451447Y-176940067D01*
X79469936Y-176906478D01*
X79479454Y-176849274D01*
X79482981Y-176755923D01*
X79483494Y-176613898D01*
X79483494Y-176297198D01*
X78976709Y-175972033D01*
X78953349Y-175957053D01*
X78799423Y-175858761D01*
X78664932Y-175773581D01*
X78557875Y-175706529D01*
X78486254Y-175662619D01*
X78458067Y-175646868D01*
X78452755Y-175659454D01*
X78444166Y-175717768D01*
X78436961Y-175807531D01*
X78433945Y-175852335D01*
X78422628Y-175927753D01*
X78400033Y-175964318D01*
X78358856Y-175977972D01*
X78333950Y-175980298D01*
X78312745Y-175972822D01*
X78299766Y-175944518D01*
X78292994Y-175885292D01*
X78290412Y-175785049D01*
X78290000Y-175633695D01*
X78290000Y-175482841D01*
X78443012Y-175482841D01*
X79039759Y-175861085D01*
X79636506Y-176239329D01*
X79636506Y-176584963D01*
X79636506Y-176930597D01*
X79724003Y-176975844D01*
X79795040Y-177032900D01*
X79850125Y-177114340D01*
X79864530Y-177147351D01*
X79888720Y-177181790D01*
X79928266Y-177199717D01*
X79998450Y-177206521D01*
X80114556Y-177207591D01*
X80340362Y-177207591D01*
X80340362Y-175708073D01*
X80340362Y-174208555D01*
X79954835Y-174208555D01*
X79569309Y-174208555D01*
X79289233Y-174381038D01*
X79229539Y-174417958D01*
X79060986Y-174523307D01*
X78883236Y-174635621D01*
X78726084Y-174736112D01*
X78443012Y-174918703D01*
X78443012Y-175200772D01*
X78443012Y-175482841D01*
X78290000Y-175482841D01*
X78290000Y-175279639D01*
X77922771Y-175279639D01*
X77555542Y-175279639D01*
X77555542Y-175203133D01*
X77555542Y-175126627D01*
X77922771Y-175126627D01*
X78290000Y-175126627D01*
X78290000Y-174774699D01*
X78290000Y-174422772D01*
X78366506Y-174422772D01*
X78404715Y-174425529D01*
X78430530Y-174444495D01*
X78441026Y-174494688D01*
X78443012Y-174591085D01*
X78444404Y-174660300D01*
X78450082Y-174731713D01*
X78458646Y-174759398D01*
X78465513Y-174756552D01*
X78514038Y-174728540D01*
X78600064Y-174675612D01*
X78713988Y-174603952D01*
X78846207Y-174519750D01*
X78987116Y-174429191D01*
X79127112Y-174338462D01*
X79256593Y-174253751D01*
X79365954Y-174181244D01*
X79445592Y-174127129D01*
X79485904Y-174097592D01*
X79488114Y-174095775D01*
X79532631Y-174077030D01*
X79614514Y-174064585D01*
X79741666Y-174057676D01*
X79921988Y-174055543D01*
X80309759Y-174055543D01*
X80309759Y-172053588D01*
X80309798Y-171923258D01*
X80310276Y-171583651D01*
X80311260Y-171263408D01*
X80312703Y-170967759D01*
X80314557Y-170701934D01*
X80316774Y-170471164D01*
X80319308Y-170280678D01*
X80322111Y-170135706D01*
X80325136Y-170041479D01*
X80328334Y-170003226D01*
X80333280Y-169995659D01*
X80350317Y-169985702D01*
X80383288Y-169977485D01*
X80437223Y-169970843D01*
X80517152Y-169965616D01*
X80628105Y-169961639D01*
X80775113Y-169958750D01*
X80963204Y-169956786D01*
X81197410Y-169955585D01*
X81482759Y-169954984D01*
X81824283Y-169954820D01*
X83301657Y-169954820D01*
X83320109Y-169885964D01*
X83328091Y-169837728D01*
X83335825Y-169740450D01*
X83338980Y-169627101D01*
X83339398Y-169437094D01*
X81357892Y-169428186D01*
X79376386Y-169419278D01*
X79224937Y-169342772D01*
X79173301Y-169313252D01*
X79065641Y-169234095D01*
X78982036Y-169151037D01*
X78936680Y-169080823D01*
X78884809Y-168927265D01*
X78875076Y-168759456D01*
X78905553Y-168593610D01*
X78974310Y-168445944D01*
X79079417Y-168332671D01*
X79171296Y-168264742D01*
X79039664Y-168138154D01*
X79026311Y-168124936D01*
X78918185Y-167976861D01*
X78859942Y-167812061D01*
X78857278Y-167762950D01*
X78966762Y-167762950D01*
X79008108Y-167911037D01*
X79092479Y-168036895D01*
X79214229Y-168129478D01*
X79367711Y-168177740D01*
X79391492Y-168181323D01*
X79475442Y-168207034D01*
X79508288Y-168248735D01*
X79501914Y-168288090D01*
X79449496Y-168302290D01*
X79425861Y-168304669D01*
X79343368Y-168327151D01*
X79249491Y-168365666D01*
X79170875Y-168413072D01*
X79062483Y-168525721D01*
X78999027Y-168662473D01*
X78981108Y-168811431D01*
X79009330Y-168960703D01*
X79084294Y-169098393D01*
X79206602Y-169212607D01*
X79308931Y-169281567D01*
X81387205Y-169281567D01*
X83465479Y-169281567D01*
X83448603Y-169671747D01*
X83447773Y-169690956D01*
X83441487Y-169837850D01*
X83436331Y-169960717D01*
X83432820Y-170047185D01*
X83431466Y-170084880D01*
X83431205Y-170085307D01*
X83396223Y-170089844D01*
X83306459Y-170094070D01*
X83167797Y-170097896D01*
X82986123Y-170101230D01*
X82767321Y-170103982D01*
X82517275Y-170106060D01*
X82241869Y-170107374D01*
X81946988Y-170107832D01*
X80462771Y-170107832D01*
X80462771Y-172096988D01*
X80462771Y-174086145D01*
X81210860Y-174086145D01*
X81958950Y-174086145D01*
X81999032Y-174002517D01*
X82001843Y-173996948D01*
X82058895Y-173922188D01*
X82136377Y-173857155D01*
X82173940Y-173831999D01*
X82208098Y-173798115D01*
X82227373Y-173750456D01*
X82237278Y-173673219D01*
X82243326Y-173550603D01*
X82245708Y-173494943D01*
X82252727Y-173393821D01*
X82264122Y-173336749D01*
X82283437Y-173311484D01*
X82314217Y-173305784D01*
X82333859Y-173307453D01*
X82356700Y-173322546D01*
X82370605Y-173363294D01*
X82378722Y-173441548D01*
X82384200Y-173569156D01*
X82388031Y-173667513D01*
X82395398Y-173759990D01*
X82408720Y-173814933D01*
X82431891Y-173846057D01*
X82468807Y-173867079D01*
X82524997Y-173906648D01*
X82579700Y-173978586D01*
X82614764Y-174055543D01*
X83420816Y-174055543D01*
X84226868Y-174055543D01*
X84226868Y-172378531D01*
X84226870Y-172345236D01*
X84227268Y-171962537D01*
X84228408Y-171637177D01*
X84230366Y-171365580D01*
X84233220Y-171144171D01*
X84237044Y-170969374D01*
X84241917Y-170837614D01*
X84247915Y-170745314D01*
X84255114Y-170688900D01*
X84263590Y-170664796D01*
X84287353Y-170656338D01*
X84343609Y-170649072D01*
X84435851Y-170643029D01*
X84567680Y-170638132D01*
X84742700Y-170634301D01*
X84964511Y-170631458D01*
X85236718Y-170629525D01*
X85562921Y-170628423D01*
X85946723Y-170628073D01*
X87593133Y-170628073D01*
X87593186Y-168753675D01*
X87593311Y-168544770D01*
X87594074Y-168169063D01*
X87595472Y-167788831D01*
X87597439Y-167413464D01*
X87599905Y-167052352D01*
X87602805Y-166714885D01*
X87606070Y-166410453D01*
X87609633Y-166148446D01*
X87613426Y-165938253D01*
X87633612Y-164997229D01*
X83471271Y-164997229D01*
X79308931Y-164997229D01*
X79207761Y-165066085D01*
X79135770Y-165122810D01*
X79028491Y-165255390D01*
X78973640Y-165404694D01*
X78973773Y-165561294D01*
X79031452Y-165715762D01*
X79083465Y-165786802D01*
X79191230Y-165882433D01*
X79314446Y-165950031D01*
X79432184Y-165976003D01*
X79469124Y-165979315D01*
X79511786Y-166002894D01*
X79508236Y-166039111D01*
X79463280Y-166076003D01*
X79381725Y-166101606D01*
X79363615Y-166104880D01*
X79215152Y-166161059D01*
X79101779Y-166256150D01*
X79025121Y-166378921D01*
X78986805Y-166518139D01*
X78988457Y-166662571D01*
X79031704Y-166800983D01*
X79118174Y-166922143D01*
X79249491Y-167014817D01*
X79287787Y-167032122D01*
X79379641Y-167065101D01*
X79447252Y-167078193D01*
X79492841Y-167088795D01*
X79514096Y-167138011D01*
X79511613Y-167158567D01*
X79479369Y-167195084D01*
X79399337Y-167217749D01*
X79366922Y-167224511D01*
X79220860Y-167282427D01*
X79096709Y-167373957D01*
X79013940Y-167485569D01*
X78974084Y-167603678D01*
X78966762Y-167762950D01*
X78857278Y-167762950D01*
X78850720Y-167642051D01*
X78889659Y-167478345D01*
X78975898Y-167332458D01*
X79108578Y-167215904D01*
X79124948Y-167205370D01*
X79182470Y-167163949D01*
X79205715Y-167139398D01*
X79204204Y-167135786D01*
X79170830Y-167106004D01*
X79107436Y-167062892D01*
X79103674Y-167060514D01*
X78998475Y-166959622D01*
X78922317Y-166819865D01*
X78879671Y-166657966D01*
X78875006Y-166490644D01*
X78912791Y-166334624D01*
X78927000Y-166306220D01*
X78988631Y-166218692D01*
X79066373Y-166137126D01*
X79178609Y-166038581D01*
X79055805Y-165927635D01*
X78997166Y-165867167D01*
X78901538Y-165711945D01*
X78858329Y-165541367D01*
X78867686Y-165366925D01*
X78929753Y-165200108D01*
X79044678Y-165052407D01*
X79065565Y-165031713D01*
X79087653Y-165009005D01*
X79109307Y-164988592D01*
X79133611Y-164970353D01*
X79163644Y-164954165D01*
X79202490Y-164939907D01*
X79253230Y-164927457D01*
X79318946Y-164916693D01*
X79402720Y-164907494D01*
X79507635Y-164899736D01*
X79636771Y-164893300D01*
X79793210Y-164888062D01*
X79980035Y-164883902D01*
X80200328Y-164880696D01*
X80457171Y-164878324D01*
X80753644Y-164876663D01*
X81092831Y-164875592D01*
X81477813Y-164874989D01*
X81911672Y-164874732D01*
X82397490Y-164874700D01*
X82938349Y-164874769D01*
X83537330Y-164874820D01*
X87715542Y-164874820D01*
X87715542Y-164997229D01*
X87715542Y-167827952D01*
G37*
D13*
X157666002Y-169826600D02*
X158293998Y-169826600D01*
X160206002Y-169826600D02*
X160833998Y-169826600D01*
D12*
X157091000Y-168455000D02*
G75*
G03*
X157091000Y-168455000I-381000J0D01*
G01*
D13*
X127916002Y-169826600D02*
X128543998Y-169826600D01*
X130456002Y-169826600D02*
X131083998Y-169826600D01*
D12*
X127341000Y-168455000D02*
G75*
G03*
X127341000Y-168455000I-381000J0D01*
G01*
D13*
X221916002Y-169826600D02*
X222543998Y-169826600D01*
X224456002Y-169826600D02*
X225083998Y-169826600D01*
D12*
X221341000Y-168455000D02*
G75*
G03*
X221341000Y-168455000I-381000J0D01*
G01*
D13*
X282416002Y-169826600D02*
X283043998Y-169826600D01*
X284956002Y-169826600D02*
X285583998Y-169826600D01*
D12*
X281841000Y-168455000D02*
G75*
G03*
X281841000Y-168455000I-381000J0D01*
G01*
D13*
X252916002Y-169826600D02*
X253543998Y-169826600D01*
X255456002Y-169826600D02*
X256083998Y-169826600D01*
D12*
X252341000Y-168455000D02*
G75*
G03*
X252341000Y-168455000I-381000J0D01*
G01*
D13*
X311916002Y-169826600D02*
X312543998Y-169826600D01*
X314456002Y-169826600D02*
X315083998Y-169826600D01*
D12*
X311341000Y-168455000D02*
G75*
G03*
X311341000Y-168455000I-381000J0D01*
G01*
%LPC*%
D14*
X100739673Y-95275000D03*
X112739649Y-95275000D03*
D15*
X109739650Y-93315000D03*
D16*
X106739651Y-93315000D03*
X103739652Y-93315000D03*
D17*
X295050000Y-125400000D03*
X300130000Y-125400000D03*
X302670000Y-125400000D03*
X305210000Y-125400000D03*
X307750000Y-125400000D03*
X307750000Y-120320000D03*
X305210000Y-120320000D03*
X302670000Y-120320000D03*
X300130000Y-120320000D03*
X295050000Y-120320000D03*
D18*
X351000000Y-114000000D03*
D19*
X351000000Y-119000000D03*
X351000000Y-124000000D03*
X351000000Y-129000000D03*
X351000000Y-134000000D03*
X351000000Y-139000000D03*
X351000000Y-144000000D03*
D20*
X58000000Y-180000000D03*
D17*
X275256380Y-107000000D03*
X280336380Y-107000000D03*
X282876380Y-107000000D03*
X285416380Y-107000000D03*
X287956380Y-107000000D03*
X287956380Y-101920000D03*
X285416380Y-101920000D03*
X282876380Y-101920000D03*
X280336380Y-101920000D03*
X275256380Y-101920000D03*
X100300000Y-107000000D03*
X105380000Y-107000000D03*
X107920000Y-107000000D03*
X110460000Y-107000000D03*
X113000000Y-107000000D03*
X113000000Y-101920000D03*
X110460000Y-101920000D03*
X107920000Y-101920000D03*
X105380000Y-101920000D03*
X100300000Y-101920000D03*
D21*
X198914200Y-150425000D03*
D17*
X202419400Y-150425000D03*
D14*
X178000023Y-95330000D03*
X189999999Y-95330000D03*
D15*
X187000000Y-93370000D03*
D16*
X184000001Y-93370000D03*
X181000002Y-93370000D03*
D14*
X275000021Y-95275000D03*
X286999997Y-95275000D03*
D15*
X283999998Y-93315000D03*
D16*
X280999999Y-93315000D03*
X278000000Y-93315000D03*
D21*
X82468900Y-152494800D03*
D17*
X82468900Y-156000000D03*
D22*
X61869001Y-124389900D03*
X61869001Y-135819900D03*
D17*
X68229001Y-125659900D03*
X70769001Y-126929900D03*
X68229001Y-128199900D03*
X70769001Y-129469900D03*
X68229001Y-130739900D03*
X70769001Y-132009900D03*
X68229001Y-133279900D03*
X70769001Y-134549900D03*
D21*
X293976150Y-149425000D03*
D17*
X297481350Y-149425000D03*
X223923048Y-107000000D03*
X229003048Y-107000000D03*
X231543048Y-107000000D03*
X234083048Y-107000000D03*
X236623048Y-107000000D03*
X236623048Y-101920000D03*
X234083048Y-101920000D03*
X231543048Y-101920000D03*
X229003048Y-101920000D03*
X223923048Y-101920000D03*
D23*
X226000000Y-117000000D03*
D24*
X223460000Y-117000000D03*
X220920000Y-117000000D03*
X218380000Y-117000000D03*
D18*
X351000000Y-152000000D03*
D19*
X351000000Y-157000000D03*
X351000000Y-162000000D03*
X351000000Y-167000000D03*
D20*
X58000000Y-92000000D03*
X356000000Y-180000000D03*
D17*
X295050000Y-141480000D03*
X300130000Y-141480000D03*
X302670000Y-141480000D03*
X305210000Y-141480000D03*
X307750000Y-141480000D03*
X307750000Y-136400000D03*
X305210000Y-136400000D03*
X302670000Y-136400000D03*
X300130000Y-136400000D03*
X295050000Y-136400000D03*
D20*
X356000000Y-92000000D03*
X207000000Y-92000000D03*
D14*
X249739673Y-95275000D03*
X261739649Y-95275000D03*
D15*
X258739650Y-93315000D03*
D16*
X255739651Y-93315000D03*
X252739652Y-93315000D03*
D17*
X300923048Y-107000000D03*
X306003048Y-107000000D03*
X308543048Y-107000000D03*
X311083048Y-107000000D03*
X313623048Y-107000000D03*
X313623048Y-101920000D03*
X311083048Y-101920000D03*
X308543048Y-101920000D03*
X306003048Y-101920000D03*
X300923048Y-101920000D03*
X126173333Y-107000000D03*
X131253333Y-107000000D03*
X133793333Y-107000000D03*
X136333333Y-107000000D03*
X138873333Y-107000000D03*
X138873333Y-101920000D03*
X136333333Y-101920000D03*
X133793333Y-101920000D03*
X131253333Y-101920000D03*
X126173333Y-101920000D03*
X314501400Y-141480000D03*
X319581400Y-141480000D03*
X322121400Y-141480000D03*
X324661400Y-141480000D03*
X327201400Y-141480000D03*
X327201400Y-136400000D03*
X324661400Y-136400000D03*
X322121400Y-136400000D03*
X319581400Y-136400000D03*
X314501400Y-136400000D03*
D21*
X167914150Y-150500000D03*
D17*
X171419350Y-150500000D03*
X177920000Y-107000000D03*
X183000000Y-107000000D03*
X185540000Y-107000000D03*
X188080000Y-107000000D03*
X190620000Y-107000000D03*
X190620000Y-101920000D03*
X188080000Y-101920000D03*
X185540000Y-101920000D03*
X183000000Y-101920000D03*
X177920000Y-101920000D03*
D20*
X207000000Y-180000000D03*
D25*
X298240000Y-115400000D03*
D26*
X305860000Y-115400000D03*
D21*
X71150000Y-99000000D03*
D17*
X74655200Y-99000000D03*
X314501400Y-125480000D03*
X319581400Y-125480000D03*
X322121400Y-125480000D03*
X324661400Y-125480000D03*
X327201400Y-125480000D03*
X327201400Y-120400000D03*
X324661400Y-120400000D03*
X322121400Y-120400000D03*
X319581400Y-120400000D03*
X314501400Y-120400000D03*
D14*
X126493123Y-95275000D03*
X138493099Y-95275000D03*
D15*
X135493100Y-93315000D03*
D16*
X132493101Y-93315000D03*
X129493102Y-93315000D03*
D27*
X329000000Y-97000000D03*
D19*
X334000000Y-97000000D03*
X339000000Y-97000000D03*
X344000000Y-97000000D03*
D28*
X106540000Y-136810000D03*
X104000000Y-136810000D03*
X101460000Y-136810000D03*
X101460000Y-129190000D03*
X104000000Y-129190000D03*
D29*
X106540000Y-129190000D03*
D21*
X137914150Y-150275000D03*
D17*
X141419350Y-150275000D03*
D30*
X196000000Y-117000000D03*
D31*
X196000000Y-119540000D03*
X196000000Y-122080000D03*
D21*
X108932800Y-150975000D03*
D17*
X112438000Y-150975000D03*
D14*
X224000021Y-95275000D03*
X235999997Y-95275000D03*
D15*
X232999998Y-93315000D03*
D16*
X229999999Y-93315000D03*
X227000000Y-93315000D03*
D21*
X232757150Y-150050000D03*
D17*
X236262350Y-150050000D03*
D32*
X319081500Y-115400000D03*
D33*
X323018500Y-115400000D03*
D21*
X263828350Y-149925000D03*
D17*
X267333550Y-149925000D03*
X152046666Y-107000000D03*
X157126666Y-107000000D03*
X159666666Y-107000000D03*
X162206666Y-107000000D03*
X164746666Y-107000000D03*
X164746666Y-101920000D03*
X162206666Y-101920000D03*
X159666666Y-101920000D03*
X157126666Y-101920000D03*
X152046666Y-101920000D03*
D21*
X322579000Y-150425000D03*
D17*
X326084200Y-150425000D03*
X249589714Y-107000000D03*
X254669714Y-107000000D03*
X257209714Y-107000000D03*
X259749714Y-107000000D03*
X262289714Y-107000000D03*
X262289714Y-101920000D03*
X259749714Y-101920000D03*
X257209714Y-101920000D03*
X254669714Y-101920000D03*
X249589714Y-101920000D03*
D14*
X152246573Y-95330000D03*
X164246549Y-95330000D03*
D15*
X161246550Y-93370000D03*
D16*
X158246551Y-93370000D03*
X155246552Y-93370000D03*
D34*
X188000000Y-120000000D03*
D35*
X190000000Y-120000000D03*
D14*
X301000021Y-95275000D03*
X312999997Y-95275000D03*
D15*
X309999998Y-93315000D03*
D16*
X306999999Y-93315000D03*
X304000000Y-93315000D03*
D17*
X186960000Y-170360000D03*
X188230000Y-172900000D03*
X189500000Y-170360000D03*
X190770000Y-172900000D03*
X192040000Y-170360000D03*
X193310000Y-172900000D03*
D36*
X185055000Y-179250000D03*
X195215000Y-179250000D03*
D17*
X97460000Y-170360000D03*
X98730000Y-172900000D03*
X100000000Y-170360000D03*
X101270000Y-172900000D03*
X102540000Y-170360000D03*
X103810000Y-172900000D03*
D36*
X95555000Y-179250000D03*
X105715000Y-179250000D03*
D17*
X156710000Y-170360000D03*
X157980000Y-172900000D03*
X159250000Y-170360000D03*
X160520000Y-172900000D03*
X161790000Y-170360000D03*
X163060000Y-172900000D03*
D36*
X154805000Y-179250000D03*
X164965000Y-179250000D03*
D17*
X126960000Y-170360000D03*
X128230000Y-172900000D03*
X129500000Y-170360000D03*
X130770000Y-172900000D03*
X132040000Y-170360000D03*
X133310000Y-172900000D03*
D36*
X125055000Y-179250000D03*
X135215000Y-179250000D03*
D17*
X220960000Y-170360000D03*
X222230000Y-172900000D03*
X223500000Y-170360000D03*
X224770000Y-172900000D03*
X226040000Y-170360000D03*
X227310000Y-172900000D03*
D36*
X219055000Y-179250000D03*
X229215000Y-179250000D03*
D17*
X281460000Y-170360000D03*
X282730000Y-172900000D03*
X284000000Y-170360000D03*
X285270000Y-172900000D03*
X286540000Y-170360000D03*
X287810000Y-172900000D03*
D36*
X279555000Y-179250000D03*
X289715000Y-179250000D03*
D17*
X251960000Y-170360000D03*
X253230000Y-172900000D03*
X254500000Y-170360000D03*
X255770000Y-172900000D03*
X257040000Y-170360000D03*
X258310000Y-172900000D03*
D36*
X250055000Y-179250000D03*
X260215000Y-179250000D03*
D17*
X310960000Y-170360000D03*
X312230000Y-172900000D03*
X313500000Y-170360000D03*
X314770000Y-172900000D03*
X316040000Y-170360000D03*
X317310000Y-172900000D03*
D36*
X309055000Y-179250000D03*
X319215000Y-179250000D03*
%LPD*%
M02*
