G04 #@! TF.GenerationSoftware,KiCad,Pcbnew,7.0.7*
G04 #@! TF.CreationDate,2024-01-25T11:55:39-05:00*
G04 #@! TF.ProjectId,AOML_AB_3.0_reorganized-v1,414f4d4c-5f41-4425-9f33-2e305f72656f,1*
G04 #@! TF.SameCoordinates,Original*
G04 #@! TF.FileFunction,Soldermask,Top*
G04 #@! TF.FilePolarity,Negative*
%FSLAX46Y46*%
G04 Gerber Fmt 4.6, Leading zero omitted, Abs format (unit mm)*
G04 Created by KiCad (PCBNEW 7.0.7) date 2024-01-25 11:55:39*
%MOMM*%
%LPD*%
G01*
G04 APERTURE LIST*
G04 Aperture macros list*
%AMRoundRect*
0 Rectangle with rounded corners*
0 $1 Rounding radius*
0 $2 $3 $4 $5 $6 $7 $8 $9 X,Y pos of 4 corners*
0 Add a 4 corners polygon primitive as box body*
4,1,4,$2,$3,$4,$5,$6,$7,$8,$9,$2,$3,0*
0 Add four circle primitives for the rounded corners*
1,1,$1+$1,$2,$3*
1,1,$1+$1,$4,$5*
1,1,$1+$1,$6,$7*
1,1,$1+$1,$8,$9*
0 Add four rect primitives between the rounded corners*
20,1,$1+$1,$2,$3,$4,$5,0*
20,1,$1+$1,$4,$5,$6,$7,0*
20,1,$1+$1,$6,$7,$8,$9,0*
20,1,$1+$1,$8,$9,$2,$3,0*%
%AMFreePoly0*
4,1,19,0.550000,-0.750000,0.000000,-0.750000,0.000000,-0.744911,-0.071157,-0.744911,-0.207708,-0.704816,-0.327430,-0.627875,-0.420627,-0.520320,-0.479746,-0.390866,-0.500000,-0.250000,-0.500000,0.250000,-0.479746,0.390866,-0.420627,0.520320,-0.327430,0.627875,-0.207708,0.704816,-0.071157,0.744911,0.000000,0.744911,0.000000,0.750000,0.550000,0.750000,0.550000,-0.750000,0.550000,-0.750000,
$1*%
%AMFreePoly1*
4,1,19,0.000000,0.744911,0.071157,0.744911,0.207708,0.704816,0.327430,0.627875,0.420627,0.520320,0.479746,0.390866,0.500000,0.250000,0.500000,-0.250000,0.479746,-0.390866,0.420627,-0.520320,0.327430,-0.627875,0.207708,-0.704816,0.071157,-0.744911,0.000000,-0.744911,0.000000,-0.750000,-0.550000,-0.750000,-0.550000,0.750000,0.000000,0.750000,0.000000,0.744911,0.000000,0.744911,
$1*%
%AMFreePoly2*
4,1,19,0.500000,-0.750000,0.000000,-0.750000,0.000000,-0.744911,-0.071157,-0.744911,-0.207708,-0.704816,-0.327430,-0.627875,-0.420627,-0.520320,-0.479746,-0.390866,-0.500000,-0.250000,-0.500000,0.250000,-0.479746,0.390866,-0.420627,0.520320,-0.327430,0.627875,-0.207708,0.704816,-0.071157,0.744911,0.000000,0.744911,0.000000,0.750000,0.500000,0.750000,0.500000,-0.750000,0.500000,-0.750000,
$1*%
%AMFreePoly3*
4,1,19,0.000000,0.744911,0.071157,0.744911,0.207708,0.704816,0.327430,0.627875,0.420627,0.520320,0.479746,0.390866,0.500000,0.250000,0.500000,-0.250000,0.479746,-0.390866,0.420627,-0.520320,0.327430,-0.627875,0.207708,-0.704816,0.071157,-0.744911,0.000000,-0.744911,0.000000,-0.750000,-0.500000,-0.750000,-0.500000,0.750000,0.000000,0.750000,0.000000,0.744911,0.000000,0.744911,
$1*%
G04 Aperture macros list end*
%ADD10C,1.270000*%
%ADD11R,1.520000X1.520000*%
%ADD12C,1.520000*%
%ADD13C,1.524000*%
%ADD14RoundRect,0.102000X-0.975000X0.975000X-0.975000X-0.975000X0.975000X-0.975000X0.975000X0.975000X0*%
%ADD15C,2.154000*%
%ADD16R,0.855600X1.250000*%
%ADD17R,1.016000X1.219200*%
%ADD18R,1.200000X0.800000*%
%ADD19C,5.000000*%
%ADD20R,0.650001X0.399999*%
%ADD21FreePoly0,0.000000*%
%ADD22R,1.000000X1.500000*%
%ADD23FreePoly1,0.000000*%
%ADD24R,1.305598X1.449997*%
%ADD25R,1.000000X1.000000*%
%ADD26RoundRect,0.150000X-0.512500X-0.150000X0.512500X-0.150000X0.512500X0.150000X-0.512500X0.150000X0*%
%ADD27R,1.066800X1.346200*%
%ADD28R,1.524000X1.524000*%
%ADD29R,2.000000X1.500000*%
%ADD30R,2.000000X3.800000*%
%ADD31FreePoly2,270.000000*%
%ADD32FreePoly3,270.000000*%
%ADD33C,3.327400*%
%ADD34RoundRect,0.102000X-0.550000X-0.690000X0.550000X-0.690000X0.550000X0.690000X-0.550000X0.690000X0*%
%ADD35R,1.651000X1.651000*%
%ADD36C,1.651000*%
%ADD37O,1.250000X0.549999*%
%ADD38R,1.525000X0.650000*%
%ADD39RoundRect,0.102000X0.730000X1.720000X-0.730000X1.720000X-0.730000X-1.720000X0.730000X-1.720000X0*%
%ADD40RoundRect,0.102000X-0.605000X-0.365000X0.605000X-0.365000X0.605000X0.365000X-0.605000X0.365000X0*%
%ADD41R,1.193800X0.304800*%
%ADD42R,0.304800X1.193800*%
%ADD43RoundRect,0.102000X2.800000X1.050000X-2.800000X1.050000X-2.800000X-1.050000X2.800000X-1.050000X0*%
%ADD44R,0.457200X0.812800*%
%ADD45FreePoly0,270.000000*%
%ADD46R,1.500000X1.000000*%
%ADD47FreePoly1,270.000000*%
%ADD48R,1.475000X0.450000*%
%ADD49R,3.100000X5.180000*%
%ADD50C,1.600000*%
%ADD51O,1.600000X1.600000*%
%ADD52R,0.889000X0.914400*%
%ADD53R,0.889000X0.406400*%
%ADD54R,1.600200X5.105400*%
%ADD55R,2.184400X1.625600*%
%ADD56RoundRect,0.102000X-0.975000X-0.975000X0.975000X-0.975000X0.975000X0.975000X-0.975000X0.975000X0*%
%ADD57C,1.784000*%
%ADD58RoundRect,0.102000X0.790000X0.790000X-0.790000X0.790000X-0.790000X-0.790000X0.790000X-0.790000X0*%
%ADD59R,1.700000X1.700000*%
%ADD60O,1.700000X1.700000*%
%ADD61R,3.200400X0.939800*%
%ADD62R,8.204200X10.591800*%
%ADD63RoundRect,0.193500X-0.358500X-0.213500X0.358500X-0.213500X0.358500X0.213500X-0.358500X0.213500X0*%
%ADD64RoundRect,0.170900X-0.381100X-0.196100X0.381100X-0.196100X0.381100X0.196100X-0.381100X0.196100X0*%
%ADD65R,1.397000X1.397000*%
%ADD66C,1.397000*%
%ADD67R,1.549400X0.939800*%
%ADD68R,2.133600X1.498600*%
%ADD69R,0.952500X0.558800*%
%ADD70R,1.168400X1.447800*%
%ADD71R,1.250000X0.855600*%
%ADD72FreePoly2,0.000000*%
%ADD73FreePoly3,0.000000*%
%ADD74RoundRect,0.100000X-0.637500X-0.100000X0.637500X-0.100000X0.637500X0.100000X-0.637500X0.100000X0*%
%ADD75R,1.320800X1.320800*%
%ADD76C,1.320800*%
%ADD77C,3.860800*%
G04 APERTURE END LIST*
D10*
X100739673Y-95275000D03*
X112739649Y-95275000D03*
D11*
X109739650Y-93315000D03*
D12*
X106739651Y-93315000D03*
X103739652Y-93315000D03*
D13*
X295050000Y-125400000D03*
X300130000Y-125400000D03*
X302670000Y-125400000D03*
X305210000Y-125400000D03*
X307750000Y-125400000D03*
X307750000Y-120320000D03*
X305210000Y-120320000D03*
X302670000Y-120320000D03*
X300130000Y-120320000D03*
X295050000Y-120320000D03*
D14*
X351000000Y-114000000D03*
D15*
X351000000Y-119000000D03*
X351000000Y-124000000D03*
X351000000Y-129000000D03*
X351000000Y-134000000D03*
X351000000Y-139000000D03*
X351000000Y-144000000D03*
D16*
X72468900Y-146960000D03*
X74324500Y-146960000D03*
D17*
X276949400Y-122000000D03*
X278651200Y-122000000D03*
D16*
X150000000Y-164500000D03*
X151855600Y-164500000D03*
X316156400Y-153500000D03*
X318012000Y-153500000D03*
D18*
X252650300Y-125730000D03*
X252650300Y-128270000D03*
X258950300Y-128270000D03*
X258950300Y-125730000D03*
D19*
X58000000Y-180000000D03*
D16*
X124572200Y-155725000D03*
X126427800Y-155725000D03*
D20*
X79039001Y-166670999D03*
X79039001Y-167321000D03*
X79039001Y-167970999D03*
X81089002Y-167970999D03*
X81089002Y-167321000D03*
X81089002Y-166670999D03*
D13*
X275256380Y-107000000D03*
X280336380Y-107000000D03*
X282876380Y-107000000D03*
X285416380Y-107000000D03*
X287956380Y-107000000D03*
X287956380Y-101920000D03*
X285416380Y-101920000D03*
X282876380Y-101920000D03*
X280336380Y-101920000D03*
X275256380Y-101920000D03*
D21*
X305750000Y-131480000D03*
D22*
X307050000Y-131480000D03*
D23*
X308350000Y-131480000D03*
D16*
X202475000Y-141750000D03*
X200619400Y-141750000D03*
D24*
X195802799Y-132000000D03*
X194197201Y-132000000D03*
D13*
X100300000Y-107000000D03*
X105380000Y-107000000D03*
X107920000Y-107000000D03*
X110460000Y-107000000D03*
X113000000Y-107000000D03*
X113000000Y-101920000D03*
X110460000Y-101920000D03*
X107920000Y-101920000D03*
X105380000Y-101920000D03*
X100300000Y-101920000D03*
D17*
X130350900Y-153725000D03*
X128649100Y-153725000D03*
X255265100Y-153425000D03*
X253563300Y-153425000D03*
D25*
X77468900Y-159960000D03*
D26*
X235606800Y-119050000D03*
X235606800Y-120000000D03*
X235606800Y-120950000D03*
X237881800Y-120950000D03*
X237881800Y-119050000D03*
D17*
X341149100Y-107000000D03*
X342850900Y-107000000D03*
D27*
X300376300Y-164500000D03*
X298623700Y-164500000D03*
D28*
X198914200Y-150425000D03*
D13*
X202419400Y-150425000D03*
D10*
X178000023Y-95330000D03*
X189999999Y-95330000D03*
D11*
X187000000Y-93370000D03*
D12*
X184000001Y-93370000D03*
X181000002Y-93370000D03*
D29*
X81000000Y-96700000D03*
X81000000Y-99000000D03*
D30*
X87300000Y-99000000D03*
D29*
X81000000Y-101300000D03*
D31*
X84039000Y-166021000D03*
D32*
X84039000Y-167321000D03*
D16*
X102644400Y-154500000D03*
X104500000Y-154500000D03*
D10*
X275000021Y-95275000D03*
X286999997Y-95275000D03*
D11*
X283999998Y-93315000D03*
D12*
X280999999Y-93315000D03*
X278000000Y-93315000D03*
D28*
X82468900Y-152494800D03*
D13*
X82468900Y-156000000D03*
D33*
X61869001Y-124389900D03*
X61869001Y-135819900D03*
D13*
X68229001Y-125659900D03*
X70769001Y-126929900D03*
X68229001Y-128199900D03*
X70769001Y-129469900D03*
X68229001Y-130739900D03*
X70769001Y-132009900D03*
X68229001Y-133279900D03*
X70769001Y-134549900D03*
D25*
X246000000Y-131000000D03*
D17*
X124576900Y-160842600D03*
X126278700Y-160842600D03*
X154076900Y-161000000D03*
X155778700Y-161000000D03*
D25*
X143000000Y-137000000D03*
D16*
X234072200Y-131000000D03*
X235927800Y-131000000D03*
D28*
X293976150Y-149425000D03*
D13*
X297481350Y-149425000D03*
D17*
X285412900Y-152275000D03*
X283711100Y-152275000D03*
D13*
X223923048Y-107000000D03*
X229003048Y-107000000D03*
X231543048Y-107000000D03*
X234083048Y-107000000D03*
X236623048Y-107000000D03*
X236623048Y-101920000D03*
X234083048Y-101920000D03*
X231543048Y-101920000D03*
X229003048Y-101920000D03*
X223923048Y-101920000D03*
D17*
X314435100Y-153500000D03*
X312733300Y-153500000D03*
D27*
X175376300Y-166000000D03*
X173623700Y-166000000D03*
D17*
X95149100Y-161000000D03*
X96850900Y-161000000D03*
D16*
X241072200Y-120000000D03*
X242927800Y-120000000D03*
X199547200Y-124250000D03*
X201402800Y-124250000D03*
D25*
X70000000Y-116500000D03*
D34*
X81424000Y-105000000D03*
X83150000Y-105000000D03*
D16*
X222915200Y-155550000D03*
X224770800Y-155550000D03*
D35*
X226000000Y-117000000D03*
D36*
X223460000Y-117000000D03*
X220920000Y-117000000D03*
X218380000Y-117000000D03*
D16*
X283634200Y-154275000D03*
X285489800Y-154275000D03*
D17*
X151437100Y-122000000D03*
X153138900Y-122000000D03*
X217798200Y-160550000D03*
X219500000Y-160550000D03*
D37*
X209874999Y-104055000D03*
X209874999Y-105325000D03*
X209874999Y-106595000D03*
X209874999Y-107865000D03*
X209874999Y-109135000D03*
X209874999Y-110405000D03*
X209874999Y-111675000D03*
X209874999Y-112945000D03*
X215124999Y-112945000D03*
X215124999Y-111675000D03*
X215124999Y-110405000D03*
X215124999Y-109135000D03*
X215124999Y-107865000D03*
X215124999Y-106595000D03*
X215124999Y-105325000D03*
X215124999Y-104055000D03*
D17*
X184076900Y-160925000D03*
X185778700Y-160925000D03*
D27*
X240123700Y-131000000D03*
X241876300Y-131000000D03*
D38*
X138576000Y-119555000D03*
X138576000Y-120825000D03*
X138576000Y-122095000D03*
X138576000Y-123365000D03*
X138576000Y-124635000D03*
X138576000Y-125905000D03*
X138576000Y-127175000D03*
X138576000Y-128445000D03*
X144000000Y-128445000D03*
X144000000Y-127175000D03*
X144000000Y-125905000D03*
X144000000Y-124635000D03*
X144000000Y-123365000D03*
X144000000Y-122095000D03*
X144000000Y-120825000D03*
X144000000Y-119555000D03*
D27*
X329752600Y-165000000D03*
X328000000Y-165000000D03*
D16*
X179441600Y-115832200D03*
X181297200Y-115832200D03*
D17*
X341149100Y-104000000D03*
X342850900Y-104000000D03*
D25*
X186000000Y-116000000D03*
D16*
X304500000Y-164000000D03*
X306355600Y-164000000D03*
X154072200Y-156000000D03*
X155927800Y-156000000D03*
X249486400Y-155425000D03*
X251342000Y-155425000D03*
D14*
X351000000Y-152000000D03*
D15*
X351000000Y-157000000D03*
X351000000Y-162000000D03*
X351000000Y-167000000D03*
D25*
X162927800Y-129500000D03*
D19*
X58000000Y-92000000D03*
X356000000Y-180000000D03*
D17*
X95149100Y-164500000D03*
X96850900Y-164500000D03*
X308576900Y-161000000D03*
X310278700Y-161000000D03*
D25*
X179000000Y-152500000D03*
D13*
X295050000Y-141480000D03*
X300130000Y-141480000D03*
X302670000Y-141480000D03*
X305210000Y-141480000D03*
X307750000Y-141480000D03*
X307750000Y-136400000D03*
X305210000Y-136400000D03*
X302670000Y-136400000D03*
X300130000Y-136400000D03*
X295050000Y-136400000D03*
D18*
X127426000Y-125730000D03*
X127426000Y-128270000D03*
X133726000Y-128270000D03*
X133726000Y-125730000D03*
D39*
X67000000Y-170000000D03*
X61148000Y-170000000D03*
D21*
X320901400Y-131480000D03*
D22*
X322201400Y-131480000D03*
D23*
X323501400Y-131480000D03*
D40*
X79719000Y-171500000D03*
X76359000Y-171500000D03*
D16*
X287134200Y-152275000D03*
X288989800Y-152275000D03*
D41*
X200250001Y-129250000D03*
X200250001Y-129749999D03*
X200250001Y-130250000D03*
X200250001Y-130749999D03*
X200250001Y-131250001D03*
X200250001Y-131750000D03*
X200250001Y-132249999D03*
X200250001Y-132750000D03*
X200250001Y-133250000D03*
X200250001Y-133750001D03*
X200250001Y-134250000D03*
X200250001Y-134749999D03*
X200250001Y-135250001D03*
X200250001Y-135750000D03*
X200250001Y-136250001D03*
X200250001Y-136750000D03*
D42*
X202250000Y-138749999D03*
X202749999Y-138749999D03*
X203250000Y-138749999D03*
X203749999Y-138749999D03*
X204250001Y-138749999D03*
X204750000Y-138749999D03*
X205249999Y-138749999D03*
X205750000Y-138749999D03*
X206250000Y-138749999D03*
X206750001Y-138749999D03*
X207250000Y-138749999D03*
X207749999Y-138749999D03*
X208250001Y-138749999D03*
X208750000Y-138749999D03*
X209250001Y-138749999D03*
X209750000Y-138749999D03*
D41*
X211749999Y-136750000D03*
X211749999Y-136250001D03*
X211749999Y-135750000D03*
X211749999Y-135250001D03*
X211749999Y-134749999D03*
X211749999Y-134250000D03*
X211749999Y-133750001D03*
X211749999Y-133250000D03*
X211749999Y-132750000D03*
X211749999Y-132249999D03*
X211749999Y-131750000D03*
X211749999Y-131250001D03*
X211749999Y-130749999D03*
X211749999Y-130250000D03*
X211749999Y-129749999D03*
X211749999Y-129250000D03*
D42*
X209750000Y-127250001D03*
X209250001Y-127250001D03*
X208750000Y-127250001D03*
X208250001Y-127250001D03*
X207749999Y-127250001D03*
X207250000Y-127250001D03*
X206750001Y-127250001D03*
X206250000Y-127250001D03*
X205750000Y-127250001D03*
X205249999Y-127250001D03*
X204750000Y-127250001D03*
X204250001Y-127250001D03*
X203749999Y-127250001D03*
X203250000Y-127250001D03*
X202749999Y-127250001D03*
X202250000Y-127250001D03*
D16*
X192644450Y-153925000D03*
X194500050Y-153925000D03*
D43*
X188750000Y-130750000D03*
X179250000Y-130750000D03*
D16*
X218915200Y-155550000D03*
X220770800Y-155550000D03*
D19*
X356000000Y-92000000D03*
D18*
X149138000Y-116730000D03*
X149138000Y-119270000D03*
X155438000Y-119270000D03*
X155438000Y-116730000D03*
D19*
X207000000Y-92000000D03*
D16*
X194330600Y-136000000D03*
X192475000Y-136000000D03*
D18*
X274645000Y-116730000D03*
X274645000Y-119270000D03*
X280945000Y-119270000D03*
X280945000Y-116730000D03*
D10*
X249739673Y-95275000D03*
X261739649Y-95275000D03*
D11*
X258739650Y-93315000D03*
D12*
X255739651Y-93315000D03*
X252739652Y-93315000D03*
D16*
X128572200Y-155725000D03*
X130427800Y-155725000D03*
X237072200Y-141000000D03*
X238927800Y-141000000D03*
D13*
X300923048Y-107000000D03*
X306003048Y-107000000D03*
X308543048Y-107000000D03*
X311083048Y-107000000D03*
X313623048Y-107000000D03*
X313623048Y-101920000D03*
X311083048Y-101920000D03*
X308543048Y-101920000D03*
X306003048Y-101920000D03*
X300923048Y-101920000D03*
D16*
X229072200Y-137000000D03*
X230927800Y-137000000D03*
X120500000Y-164225000D03*
X122355600Y-164225000D03*
D18*
X252645000Y-116730000D03*
X252645000Y-119270000D03*
X258945000Y-119270000D03*
X258945000Y-116730000D03*
D16*
X257058600Y-153425000D03*
X258914200Y-153425000D03*
D13*
X126173333Y-107000000D03*
X131253333Y-107000000D03*
X133793333Y-107000000D03*
X136333333Y-107000000D03*
X138873333Y-107000000D03*
X138873333Y-101920000D03*
X136333333Y-101920000D03*
X133793333Y-101920000D03*
X131253333Y-101920000D03*
X126173333Y-101920000D03*
D37*
X198750000Y-104150000D03*
X198750000Y-105420000D03*
X198750000Y-106690000D03*
X198750000Y-107960000D03*
X198750000Y-109230000D03*
X198750000Y-110500000D03*
X198750000Y-111770000D03*
X198750000Y-113040000D03*
X204000000Y-113040000D03*
X204000000Y-111770000D03*
X204000000Y-110500000D03*
X204000000Y-109230000D03*
X204000000Y-107960000D03*
X204000000Y-106690000D03*
X204000000Y-105420000D03*
X204000000Y-104150000D03*
D27*
X115376300Y-165500000D03*
X113623700Y-165500000D03*
D44*
X80611900Y-146960000D03*
X79468900Y-146960000D03*
D17*
X218721300Y-164050000D03*
X220423100Y-164050000D03*
X190850950Y-153925000D03*
X189149150Y-153925000D03*
D16*
X279634200Y-154275000D03*
X281489800Y-154275000D03*
D13*
X314501400Y-141480000D03*
X319581400Y-141480000D03*
X322121400Y-141480000D03*
X324661400Y-141480000D03*
X327201400Y-141480000D03*
X327201400Y-136400000D03*
X324661400Y-136400000D03*
X322121400Y-136400000D03*
X319581400Y-136400000D03*
X314501400Y-136400000D03*
D25*
X121500000Y-134500000D03*
D28*
X167914150Y-150500000D03*
D13*
X171419350Y-150500000D03*
D17*
X151437100Y-131000000D03*
X153138900Y-131000000D03*
D45*
X342000000Y-152400000D03*
D46*
X342000000Y-153700000D03*
D47*
X342000000Y-155000000D03*
D25*
X189000000Y-142000000D03*
D24*
X195802799Y-129000000D03*
X194197201Y-129000000D03*
D13*
X177920000Y-107000000D03*
X183000000Y-107000000D03*
X185540000Y-107000000D03*
X188080000Y-107000000D03*
X190620000Y-107000000D03*
X190620000Y-101920000D03*
X188080000Y-101920000D03*
X185540000Y-101920000D03*
X183000000Y-101920000D03*
X177920000Y-101920000D03*
D19*
X207000000Y-180000000D03*
D17*
X86170700Y-146960000D03*
X84468900Y-146960000D03*
D16*
X308656400Y-155500000D03*
X310512000Y-155500000D03*
D25*
X162927800Y-125500000D03*
D17*
X184721300Y-164425000D03*
X186423100Y-164425000D03*
D48*
X259562000Y-156775000D03*
X259562000Y-157425000D03*
X259562000Y-158075000D03*
X259562000Y-158725000D03*
X259562000Y-159375000D03*
X259562000Y-160025000D03*
X259562000Y-160675000D03*
X259562000Y-161325000D03*
X259562000Y-161975000D03*
X259562000Y-162625000D03*
X259562000Y-163275000D03*
X259562000Y-163925000D03*
X259562000Y-164575000D03*
X259562000Y-165225000D03*
X265438000Y-165225000D03*
X265438000Y-164575000D03*
X265438000Y-163925000D03*
X265438000Y-163275000D03*
X265438000Y-162625000D03*
X265438000Y-161975000D03*
X265438000Y-161325000D03*
X265438000Y-160675000D03*
X265438000Y-160025000D03*
X265438000Y-159375000D03*
X265438000Y-158725000D03*
X265438000Y-158075000D03*
X265438000Y-157425000D03*
X265438000Y-156775000D03*
D49*
X262500000Y-161000000D03*
D25*
X76039000Y-165321000D03*
D50*
X298240000Y-115400000D03*
D51*
X305860000Y-115400000D03*
D27*
X206376300Y-165500000D03*
X204623700Y-165500000D03*
D16*
X99000000Y-156500000D03*
X100855600Y-156500000D03*
X194330600Y-138250000D03*
X192475000Y-138250000D03*
D25*
X92150000Y-104000000D03*
D16*
X230855600Y-134000000D03*
X229000000Y-134000000D03*
D52*
X211500000Y-98096400D03*
D53*
X211500000Y-99074300D03*
X211500000Y-99798200D03*
X211500000Y-100522100D03*
D52*
X211500000Y-101500000D03*
X213278000Y-101500000D03*
D53*
X213278000Y-100522100D03*
X213278000Y-99798200D03*
X213278000Y-99074300D03*
D52*
X213278000Y-98096400D03*
D16*
X245423100Y-163925000D03*
X247278700Y-163925000D03*
X66541100Y-145960000D03*
X68396700Y-145960000D03*
X158144400Y-156000000D03*
X160000000Y-156000000D03*
D54*
X89000000Y-126461000D03*
X89000000Y-115539000D03*
D28*
X71150000Y-99000000D03*
D13*
X74655200Y-99000000D03*
D16*
X95072200Y-156500000D03*
X96927800Y-156500000D03*
D48*
X105062000Y-157775000D03*
X105062000Y-158425000D03*
X105062000Y-159075000D03*
X105062000Y-159725000D03*
X105062000Y-160375000D03*
X105062000Y-161025000D03*
X105062000Y-161675000D03*
X105062000Y-162325000D03*
X105062000Y-162975000D03*
X105062000Y-163625000D03*
X105062000Y-164275000D03*
X105062000Y-164925000D03*
X105062000Y-165575000D03*
X105062000Y-166225000D03*
X110938000Y-166225000D03*
X110938000Y-165575000D03*
X110938000Y-164925000D03*
X110938000Y-164275000D03*
X110938000Y-163625000D03*
X110938000Y-162975000D03*
X110938000Y-162325000D03*
X110938000Y-161675000D03*
X110938000Y-161025000D03*
X110938000Y-160375000D03*
X110938000Y-159725000D03*
X110938000Y-159075000D03*
X110938000Y-158425000D03*
X110938000Y-157775000D03*
D49*
X108000000Y-162000000D03*
D55*
X81854200Y-133000000D03*
X78145800Y-133000000D03*
D13*
X314501400Y-125480000D03*
X319581400Y-125480000D03*
X322121400Y-125480000D03*
X324661400Y-125480000D03*
X327201400Y-125480000D03*
X327201400Y-120400000D03*
X324661400Y-120400000D03*
X322121400Y-120400000D03*
X319581400Y-120400000D03*
X314501400Y-120400000D03*
D17*
X254944100Y-122000000D03*
X256645900Y-122000000D03*
D27*
X270376300Y-165000000D03*
X268623700Y-165000000D03*
D10*
X126493123Y-95275000D03*
X138493099Y-95275000D03*
D11*
X135493100Y-93315000D03*
D12*
X132493101Y-93315000D03*
X129493102Y-93315000D03*
D16*
X213047200Y-126250000D03*
X214902800Y-126250000D03*
D29*
X163777800Y-132700000D03*
X163777800Y-135000000D03*
D30*
X170077800Y-135000000D03*
D29*
X163777800Y-137300000D03*
D56*
X329000000Y-97000000D03*
D15*
X334000000Y-97000000D03*
X339000000Y-97000000D03*
X344000000Y-97000000D03*
D17*
X249500000Y-163925000D03*
X251201800Y-163925000D03*
D57*
X106540000Y-136810000D03*
X104000000Y-136810000D03*
X101460000Y-136810000D03*
X101460000Y-129190000D03*
X104000000Y-129190000D03*
D58*
X106540000Y-129190000D03*
D38*
X264083000Y-119555000D03*
X264083000Y-120825000D03*
X264083000Y-122095000D03*
X264083000Y-123365000D03*
X264083000Y-124635000D03*
X264083000Y-125905000D03*
X264083000Y-127175000D03*
X264083000Y-128445000D03*
X269507000Y-128445000D03*
X269507000Y-127175000D03*
X269507000Y-125905000D03*
X269507000Y-124635000D03*
X269507000Y-123365000D03*
X269507000Y-122095000D03*
X269507000Y-120825000D03*
X269507000Y-119555000D03*
D17*
X129725100Y-131000000D03*
X131426900Y-131000000D03*
D48*
X229000000Y-156900000D03*
X229000000Y-157550000D03*
X229000000Y-158200000D03*
X229000000Y-158850000D03*
X229000000Y-159500000D03*
X229000000Y-160150000D03*
X229000000Y-160800000D03*
X229000000Y-161450000D03*
X229000000Y-162100000D03*
X229000000Y-162750000D03*
X229000000Y-163400000D03*
X229000000Y-164050000D03*
X229000000Y-164700000D03*
X229000000Y-165350000D03*
X234876000Y-165350000D03*
X234876000Y-164700000D03*
X234876000Y-164050000D03*
X234876000Y-163400000D03*
X234876000Y-162750000D03*
X234876000Y-162100000D03*
X234876000Y-161450000D03*
X234876000Y-160800000D03*
X234876000Y-160150000D03*
X234876000Y-159500000D03*
X234876000Y-158850000D03*
X234876000Y-158200000D03*
X234876000Y-157550000D03*
X234876000Y-156900000D03*
D49*
X231938000Y-161125000D03*
D17*
X159923100Y-154000000D03*
X158221300Y-154000000D03*
D28*
X137914150Y-150275000D03*
D13*
X141419350Y-150275000D03*
D59*
X196000000Y-117000000D03*
D60*
X196000000Y-119540000D03*
X196000000Y-122080000D03*
D61*
X73902200Y-156540000D03*
X73902200Y-151460000D03*
D62*
X61468900Y-154000000D03*
D16*
X226415200Y-153550000D03*
X228270800Y-153550000D03*
D63*
X140723000Y-114315000D03*
D64*
X140723000Y-115155000D03*
X140723000Y-115955000D03*
D63*
X140723000Y-116795000D03*
X142493000Y-116795000D03*
D64*
X142493000Y-115955000D03*
X142493000Y-115155000D03*
D63*
X142493000Y-114315000D03*
D44*
X167356300Y-123000000D03*
X168499300Y-123000000D03*
D28*
X108932800Y-150975000D03*
D13*
X112438000Y-150975000D03*
D17*
X341149100Y-129000000D03*
X342850900Y-129000000D03*
X276944100Y-131000000D03*
X278645900Y-131000000D03*
D16*
X91072200Y-164500000D03*
X92927800Y-164500000D03*
D17*
X146000000Y-137000000D03*
X147701800Y-137000000D03*
D10*
X224000021Y-95275000D03*
X235999997Y-95275000D03*
D11*
X232999998Y-93315000D03*
D12*
X229999999Y-93315000D03*
X227000000Y-93315000D03*
D16*
X211902800Y-141750000D03*
X210047200Y-141750000D03*
D17*
X129725100Y-122000000D03*
X131426900Y-122000000D03*
X278649100Y-160000000D03*
X280350900Y-160000000D03*
X254944100Y-131000000D03*
X256645900Y-131000000D03*
D16*
X189072250Y-155925000D03*
X190927850Y-155925000D03*
D63*
X266230000Y-114520000D03*
D64*
X266230000Y-115360000D03*
X266230000Y-116160000D03*
D63*
X266230000Y-117000000D03*
X268000000Y-117000000D03*
D64*
X268000000Y-116160000D03*
X268000000Y-115360000D03*
D63*
X268000000Y-114520000D03*
D17*
X91733300Y-94500000D03*
X93435100Y-94500000D03*
D16*
X169072200Y-126000000D03*
X170927800Y-126000000D03*
D44*
X210571500Y-145500000D03*
X209428500Y-145500000D03*
D28*
X232757150Y-150050000D03*
D13*
X236262350Y-150050000D03*
D65*
X319081500Y-115400000D03*
D66*
X323018500Y-115400000D03*
D17*
X249149100Y-160609250D03*
X250850900Y-160609250D03*
D67*
X113115700Y-132050000D03*
D68*
X115592200Y-133000000D03*
D67*
X113115700Y-133950000D03*
D48*
X164500000Y-157648100D03*
X164500000Y-158298100D03*
X164500000Y-158948100D03*
X164500000Y-159598100D03*
X164500000Y-160248100D03*
X164500000Y-160898100D03*
X164500000Y-161548100D03*
X164500000Y-162198100D03*
X164500000Y-162848100D03*
X164500000Y-163498100D03*
X164500000Y-164148100D03*
X164500000Y-164798100D03*
X164500000Y-165448100D03*
X164500000Y-166098100D03*
X170376000Y-166098100D03*
X170376000Y-165448100D03*
X170376000Y-164798100D03*
X170376000Y-164148100D03*
X170376000Y-163498100D03*
X170376000Y-162848100D03*
X170376000Y-162198100D03*
X170376000Y-161548100D03*
X170376000Y-160898100D03*
X170376000Y-160248100D03*
X170376000Y-159598100D03*
X170376000Y-158948100D03*
X170376000Y-158298100D03*
X170376000Y-157648100D03*
D49*
X167438000Y-161873100D03*
D17*
X100850900Y-154500000D03*
X99149100Y-154500000D03*
X200000000Y-119558800D03*
X201701800Y-119558800D03*
D18*
X127426000Y-116730000D03*
X127426000Y-119270000D03*
X133726000Y-119270000D03*
X133726000Y-116730000D03*
D17*
X154076900Y-164500000D03*
X155778700Y-164500000D03*
D16*
X312656400Y-155500000D03*
X314512000Y-155500000D03*
D17*
X214850900Y-145500000D03*
X213149100Y-145500000D03*
D25*
X121500000Y-140000000D03*
D48*
X134500000Y-157275000D03*
X134500000Y-157925000D03*
X134500000Y-158575000D03*
X134500000Y-159225000D03*
X134500000Y-159875000D03*
X134500000Y-160525000D03*
X134500000Y-161175000D03*
X134500000Y-161825000D03*
X134500000Y-162475000D03*
X134500000Y-163125000D03*
X134500000Y-163775000D03*
X134500000Y-164425000D03*
X134500000Y-165075000D03*
X134500000Y-165725000D03*
X140376000Y-165725000D03*
X140376000Y-165075000D03*
X140376000Y-164425000D03*
X140376000Y-163775000D03*
X140376000Y-163125000D03*
X140376000Y-162475000D03*
X140376000Y-161825000D03*
X140376000Y-161175000D03*
X140376000Y-160525000D03*
X140376000Y-159875000D03*
X140376000Y-159225000D03*
X140376000Y-158575000D03*
X140376000Y-157925000D03*
X140376000Y-157275000D03*
D49*
X137438000Y-161500000D03*
D16*
X180644400Y-164425000D03*
X182500000Y-164425000D03*
X169072200Y-129000000D03*
X170927800Y-129000000D03*
X214644400Y-164050000D03*
X216500000Y-164050000D03*
D69*
X176818650Y-119145800D03*
X183181350Y-119145800D03*
X176818650Y-122854200D03*
X183181350Y-122854200D03*
D48*
X289562000Y-156275000D03*
X289562000Y-156925000D03*
X289562000Y-157575000D03*
X289562000Y-158225000D03*
X289562000Y-158875000D03*
X289562000Y-159525000D03*
X289562000Y-160175000D03*
X289562000Y-160825000D03*
X289562000Y-161475000D03*
X289562000Y-162125000D03*
X289562000Y-162775000D03*
X289562000Y-163425000D03*
X289562000Y-164075000D03*
X289562000Y-164725000D03*
X295438000Y-164725000D03*
X295438000Y-164075000D03*
X295438000Y-163425000D03*
X295438000Y-162775000D03*
X295438000Y-162125000D03*
X295438000Y-161475000D03*
X295438000Y-160825000D03*
X295438000Y-160175000D03*
X295438000Y-159525000D03*
X295438000Y-158875000D03*
X295438000Y-158225000D03*
X295438000Y-157575000D03*
X295438000Y-156925000D03*
X295438000Y-156275000D03*
D49*
X292500000Y-160500000D03*
D17*
X124576900Y-164225000D03*
X126278700Y-164225000D03*
D45*
X337000000Y-151100000D03*
D46*
X337000000Y-152400000D03*
D47*
X337000000Y-153700000D03*
D70*
X192598700Y-140750000D03*
X194351300Y-140750000D03*
D16*
X85431400Y-105000000D03*
X87287000Y-105000000D03*
D17*
X278721300Y-163275000D03*
X280423100Y-163275000D03*
D28*
X263828350Y-149925000D03*
D13*
X267333550Y-149925000D03*
D16*
X253486400Y-155425000D03*
X255342000Y-155425000D03*
D13*
X152046666Y-107000000D03*
X157126666Y-107000000D03*
X159666666Y-107000000D03*
X162206666Y-107000000D03*
X164746666Y-107000000D03*
X164746666Y-101920000D03*
X162206666Y-101920000D03*
X159666666Y-101920000D03*
X157126666Y-101920000D03*
X152046666Y-101920000D03*
D27*
X145376300Y-165500000D03*
X143623700Y-165500000D03*
D31*
X138000000Y-140350000D03*
D32*
X138000000Y-141650000D03*
D28*
X322579000Y-150425000D03*
D13*
X326084200Y-150425000D03*
D71*
X83039000Y-170144400D03*
X83039000Y-172000000D03*
D48*
X195062000Y-157275000D03*
X195062000Y-157925000D03*
X195062000Y-158575000D03*
X195062000Y-159225000D03*
X195062000Y-159875000D03*
X195062000Y-160525000D03*
X195062000Y-161175000D03*
X195062000Y-161825000D03*
X195062000Y-162475000D03*
X195062000Y-163125000D03*
X195062000Y-163775000D03*
X195062000Y-164425000D03*
X195062000Y-165075000D03*
X195062000Y-165725000D03*
X200938000Y-165725000D03*
X200938000Y-165075000D03*
X200938000Y-164425000D03*
X200938000Y-163775000D03*
X200938000Y-163125000D03*
X200938000Y-162475000D03*
X200938000Y-161825000D03*
X200938000Y-161175000D03*
X200938000Y-160525000D03*
X200938000Y-159875000D03*
X200938000Y-159225000D03*
X200938000Y-158575000D03*
X200938000Y-157925000D03*
X200938000Y-157275000D03*
D49*
X198000000Y-161500000D03*
D52*
X200222000Y-98096400D03*
D53*
X200222000Y-99074300D03*
X200222000Y-99798200D03*
X200222000Y-100522100D03*
D52*
X200222000Y-101500000D03*
X202000000Y-101500000D03*
D53*
X202000000Y-100522100D03*
X202000000Y-99798200D03*
X202000000Y-99074300D03*
D52*
X202000000Y-98096400D03*
D13*
X249589714Y-107000000D03*
X254669714Y-107000000D03*
X257209714Y-107000000D03*
X259749714Y-107000000D03*
X262289714Y-107000000D03*
X262289714Y-101920000D03*
X259749714Y-101920000D03*
X257209714Y-101920000D03*
X254669714Y-101920000D03*
X249589714Y-101920000D03*
D72*
X71039000Y-167500000D03*
D73*
X72339000Y-167500000D03*
D17*
X237732700Y-124500000D03*
X236030900Y-124500000D03*
D72*
X240881800Y-124450000D03*
D73*
X242181800Y-124450000D03*
D16*
X132072200Y-153725000D03*
X133927800Y-153725000D03*
D40*
X145680000Y-140000000D03*
X142320000Y-140000000D03*
D16*
X341072200Y-132000000D03*
X342927800Y-132000000D03*
X161644400Y-154000000D03*
X163500000Y-154000000D03*
D27*
X239876300Y-165000000D03*
X238123700Y-165000000D03*
D17*
X224693900Y-153550000D03*
X222992100Y-153550000D03*
D16*
X165572200Y-140500000D03*
X167427800Y-140500000D03*
D18*
X274645000Y-125730000D03*
X274645000Y-128270000D03*
X280945000Y-128270000D03*
X280945000Y-125730000D03*
D17*
X308576900Y-164000000D03*
X310278700Y-164000000D03*
D44*
X93150000Y-97000000D03*
X92007000Y-97000000D03*
D18*
X149138000Y-125730000D03*
X149138000Y-128270000D03*
X155438000Y-128270000D03*
X155438000Y-125730000D03*
D17*
X168927800Y-120000000D03*
X167226000Y-120000000D03*
D16*
X185072250Y-155925000D03*
X186927850Y-155925000D03*
D48*
X319146200Y-156775000D03*
X319146200Y-157425000D03*
X319146200Y-158075000D03*
X319146200Y-158725000D03*
X319146200Y-159375000D03*
X319146200Y-160025000D03*
X319146200Y-160675000D03*
X319146200Y-161325000D03*
X319146200Y-161975000D03*
X319146200Y-162625000D03*
X319146200Y-163275000D03*
X319146200Y-163925000D03*
X319146200Y-164575000D03*
X319146200Y-165225000D03*
X325022200Y-165225000D03*
X325022200Y-164575000D03*
X325022200Y-163925000D03*
X325022200Y-163275000D03*
X325022200Y-162625000D03*
X325022200Y-161975000D03*
X325022200Y-161325000D03*
X325022200Y-160675000D03*
X325022200Y-160025000D03*
X325022200Y-159375000D03*
X325022200Y-158725000D03*
X325022200Y-158075000D03*
X325022200Y-157425000D03*
X325022200Y-156775000D03*
D49*
X322084200Y-161000000D03*
D25*
X70000000Y-111000000D03*
D72*
X71039000Y-171500000D03*
D73*
X72339000Y-171500000D03*
D21*
X299450000Y-131480000D03*
D22*
X300750000Y-131480000D03*
D23*
X302050000Y-131480000D03*
D16*
X225927800Y-121000000D03*
X224072200Y-121000000D03*
D17*
X237732700Y-115500000D03*
X236030900Y-115500000D03*
X139201800Y-137000000D03*
X137500000Y-137000000D03*
D10*
X152246573Y-95330000D03*
X164246549Y-95330000D03*
D11*
X161246550Y-93370000D03*
D12*
X158246551Y-93370000D03*
X155246552Y-93370000D03*
D72*
X240881800Y-115450000D03*
D73*
X242181800Y-115450000D03*
D16*
X274644400Y-163275000D03*
X276500000Y-163275000D03*
D74*
X235137500Y-133725000D03*
X235137500Y-134375000D03*
X235137500Y-135025000D03*
X235137500Y-135675000D03*
X235137500Y-136325000D03*
X235137500Y-136975000D03*
X235137500Y-137625000D03*
X235137500Y-138275000D03*
X240862500Y-138275000D03*
X240862500Y-137625000D03*
X240862500Y-136975000D03*
X240862500Y-136325000D03*
X240862500Y-135675000D03*
X240862500Y-135025000D03*
X240862500Y-134375000D03*
X240862500Y-133725000D03*
D75*
X188000000Y-120000000D03*
D76*
X190000000Y-120000000D03*
D10*
X301000021Y-95275000D03*
X312999997Y-95275000D03*
D11*
X309999998Y-93315000D03*
D12*
X306999999Y-93315000D03*
X304000000Y-93315000D03*
D13*
X186960000Y-170360000D03*
X188230000Y-172900000D03*
X189500000Y-170360000D03*
X190770000Y-172900000D03*
X192040000Y-170360000D03*
X193310000Y-172900000D03*
D77*
X185055000Y-179250000D03*
X195215000Y-179250000D03*
D13*
X97460000Y-170360000D03*
X98730000Y-172900000D03*
X100000000Y-170360000D03*
X101270000Y-172900000D03*
X102540000Y-170360000D03*
X103810000Y-172900000D03*
D77*
X95555000Y-179250000D03*
X105715000Y-179250000D03*
D13*
X156710000Y-170360000D03*
X157980000Y-172900000D03*
X159250000Y-170360000D03*
X160520000Y-172900000D03*
X161790000Y-170360000D03*
X163060000Y-172900000D03*
D77*
X154805000Y-179250000D03*
X164965000Y-179250000D03*
D13*
X126960000Y-170360000D03*
X128230000Y-172900000D03*
X129500000Y-170360000D03*
X130770000Y-172900000D03*
X132040000Y-170360000D03*
X133310000Y-172900000D03*
D77*
X125055000Y-179250000D03*
X135215000Y-179250000D03*
D13*
X220960000Y-170360000D03*
X222230000Y-172900000D03*
X223500000Y-170360000D03*
X224770000Y-172900000D03*
X226040000Y-170360000D03*
X227310000Y-172900000D03*
D77*
X219055000Y-179250000D03*
X229215000Y-179250000D03*
D13*
X281460000Y-170360000D03*
X282730000Y-172900000D03*
X284000000Y-170360000D03*
X285270000Y-172900000D03*
X286540000Y-170360000D03*
X287810000Y-172900000D03*
D77*
X279555000Y-179250000D03*
X289715000Y-179250000D03*
D13*
X251960000Y-170360000D03*
X253230000Y-172900000D03*
X254500000Y-170360000D03*
X255770000Y-172900000D03*
X257040000Y-170360000D03*
X258310000Y-172900000D03*
D77*
X250055000Y-179250000D03*
X260215000Y-179250000D03*
D13*
X310960000Y-170360000D03*
X312230000Y-172900000D03*
X313500000Y-170360000D03*
X314770000Y-172900000D03*
X316040000Y-170360000D03*
X317310000Y-172900000D03*
D77*
X309055000Y-179250000D03*
X319215000Y-179250000D03*
M02*
